<svg width="282" height="28" viewBox="0 0 282 28" fill="none" xmlns="http://www.w3.org/2000/svg">
<path d="M11.7812 3.93517L11.7811 3.93524L8.45109 17.9817L11.7812 3.93517ZM11.7812 3.93517C11.7856 3.91633 11.7911 3.89485 11.7972 3.87146C11.8213 3.77793 11.8533 3.65396 11.8533 3.54746C11.8533 3.47663 11.8366 3.41982 11.8076 3.37524C11.7788 3.33081 11.74 3.30177 11.7011 3.28296C11.6258 3.24661 11.5456 3.24663 11.5208 3.24663L11.5199 3.24663C11.5143 3.24663 11.4903 3.24852 11.4581 3.25116L11.3193 3.26288C11.2056 3.27269 11.0549 3.28602 10.9013 3.30014C10.7477 3.31426 10.591 3.32917 10.4653 3.34213C10.3459 3.35444 10.2506 3.36534 10.2144 3.37236C10.0216 3.38448 9.83958 3.40234 9.65636 3.42031L9.63451 3.42245C9.44259 3.44127 9.24862 3.45999 9.03715 3.47247L9.03715 3.47245L9.03586 3.47256C8.88869 3.48506 8.76556 3.49618 8.66468 3.51304C8.56411 3.52984 8.48073 3.55304 8.4151 3.59236C8.27589 3.67576 8.23434 3.81975 8.23434 4.04912C8.23434 4.11771 8.2472 4.17529 8.27708 4.22134C8.3074 4.26809 8.35161 4.29738 8.40345 4.31573C8.4543 4.33374 8.5144 4.34193 8.5802 4.34594C8.64593 4.34995 8.721 4.34995 8.80276 4.34995H8.80392C9.09188 4.34995 9.3076 4.36401 9.46913 4.38858C9.63112 4.41321 9.73557 4.44797 9.80314 4.48737C9.86903 4.52579 9.89993 4.56858 9.91597 4.61317C9.93295 4.66037 9.93479 4.71327 9.93479 4.77653C9.93479 4.91991 9.8891 5.11513 9.86623 5.18797L9.86611 5.18793L9.86528 5.19144L8.45969 11.1382M11.7812 3.93517L8.45969 11.1382M8.45969 11.1382C8.1651 10.485 7.52091 9.59264 6.34771 9.59264C4.99124 9.59264 3.59072 10.5217 2.53213 11.9074C1.47241 13.2945 0.747607 15.1486 0.747607 17.017C0.747607 19.5173 2.13026 21.0051 3.7734 21.0051C4.43691 21.0051 5.04921 20.7297 5.57672 20.353C6.06857 20.0018 6.48957 19.5606 6.81356 19.1654C6.94819 19.8564 7.27756 20.3121 7.66423 20.5971C8.06963 20.896 8.53506 21.0051 8.89839 21.0051C9.63401 21.0051 10.2146 20.5341 10.6441 19.6219L10.6446 19.6208C10.8352 19.1905 11.0132 18.5915 11.1432 18.0893C11.2083 17.8379 11.2616 17.6099 11.2987 17.4383C11.3172 17.3526 11.3317 17.2807 11.3416 17.227C11.3465 17.2001 11.3504 17.1775 11.353 17.1598C11.3555 17.1432 11.3574 17.1279 11.3574 17.1174C11.3574 16.9637 11.2399 16.8416 11.0712 16.8416C11.0135 16.8416 10.9633 16.8501 10.9199 16.8728C10.8758 16.896 10.8437 16.9314 10.8181 16.9768C10.793 17.0211 10.7733 17.0766 10.7542 17.1422C10.7377 17.1987 10.721 17.2655 10.7018 17.3424C10.6986 17.355 10.6954 17.3679 10.6921 17.3811L10.6919 17.3816C10.5147 18.1221 10.315 18.8821 10.0401 19.4567C9.76356 20.0347 9.42163 20.4034 8.96924 20.4034C8.80622 20.4034 8.68515 20.3647 8.59415 20.3024C8.50297 20.24 8.43816 20.1512 8.39224 20.0448C8.2994 19.8297 8.2871 19.551 8.2871 19.2996V19.2994C8.2871 19.2006 8.2871 18.6784 8.45108 17.9817L8.45969 11.1382ZM8.07378 12.7818L8.07277 12.7813L8.07034 12.7916L6.91331 17.707C6.90576 17.7343 6.8987 17.7599 6.89203 17.7842C6.84624 17.9508 6.81865 18.0512 6.77146 18.1567C6.71753 18.2773 6.63744 18.4055 6.47238 18.6434C6.21443 18.992 5.82805 19.4331 5.36952 19.7867C4.91005 20.1411 4.38345 20.4034 3.84426 20.4034C3.37915 20.4034 3.01662 20.1819 2.76795 19.7782C2.5178 19.372 2.38274 18.7804 2.38274 18.0454C2.38274 17.3619 2.56456 16.3194 2.80355 15.3135C3.04233 14.3086 3.33664 13.3464 3.55936 12.8233C3.95866 11.9504 4.43315 11.2919 4.91989 10.8524C5.40714 10.4123 5.9035 10.1943 6.34771 10.1943C7.09995 10.1943 7.55288 10.6889 7.82047 11.2203C7.95409 11.4856 8.04003 11.7576 8.09254 11.9761C8.14534 12.1957 8.16348 12.3574 8.16348 12.4018C8.16348 12.3996 8.1634 12.4026 8.16113 12.4156C8.15925 12.4264 8.15649 12.4409 8.15303 12.4581C8.14611 12.4925 8.13661 12.5368 8.12635 12.5819C8.11608 12.6271 8.10515 12.6728 8.09537 12.7101C8.08505 12.7495 8.07731 12.7743 8.07378 12.7818Z" fill="" stroke="#5F5B80" stroke-width="0.1"/>
<path d="M22.0487 2.83581L22.0513 2.82807V2.82379C22.0513 2.82367 22.0514 2.82354 22.0514 2.82341C22.0522 2.82041 22.0534 2.81594 22.0553 2.80987C22.0589 2.79782 22.0643 2.78144 22.0709 2.76175C22.0795 2.7359 22.0901 2.70529 22.1013 2.67258C22.1072 2.65542 22.1133 2.63769 22.1195 2.61977C22.1372 2.56803 22.1551 2.51491 22.1686 2.47145C22.1754 2.44976 22.1812 2.42993 22.1854 2.4136C22.189 2.3993 22.193 2.38197 22.193 2.36842C22.193 2.03916 21.9338 1.84185 21.7179 1.84185L21.7172 1.84185C21.6561 1.84184 21.5595 1.84184 21.4546 1.9209C21.3516 1.9985 21.247 2.14727 21.151 2.42748L21.1509 2.42778L13.2391 26.0309L13.2365 26.0386V26.0429C13.2365 26.043 13.2364 26.0432 13.2364 26.0433C13.2356 26.0463 13.2344 26.0508 13.2325 26.0568C13.2289 26.0689 13.2235 26.0853 13.2169 26.105C13.2083 26.1308 13.1978 26.1613 13.1865 26.194C13.1806 26.2112 13.1745 26.229 13.1683 26.2469C13.1506 26.2987 13.1327 26.3518 13.1192 26.3953C13.1124 26.4169 13.1066 26.4368 13.1024 26.4531C13.0988 26.4674 13.0948 26.4847 13.0948 26.4983C13.0948 26.8275 13.354 27.0249 13.5699 27.0249C13.6449 27.0249 13.7471 27.0182 13.8518 26.9357C13.9544 26.8548 14.053 26.7061 14.137 26.4385C14.1371 26.4383 14.1371 26.4382 14.1372 26.438L22.0487 2.83581Z" fill="" stroke="#5F5B80" stroke-width="0.1"/>
<path d="M35.36 3.93492L35.36 3.935L32.03 17.9814L35.36 3.93492ZM35.36 3.93492C35.3644 3.91609 35.37 3.89461 35.376 3.87122C35.4002 3.77769 35.4322 3.65371 35.4322 3.54722C35.4322 3.47639 35.4154 3.41957 35.3865 3.375C35.3577 3.33056 35.3189 3.30152 35.2799 3.28271C35.2046 3.24637 35.1245 3.24638 35.0996 3.24639L35.0988 3.24639C35.0931 3.24639 35.0692 3.24828 35.037 3.25091L34.8982 3.26264C34.7844 3.27245 34.6338 3.28578 34.4802 3.2999C34.3266 3.31401 34.1699 3.32893 34.0442 3.34189C33.9247 3.3542 33.8294 3.3651 33.7933 3.37211C33.6004 3.38424 33.4184 3.40209 33.2352 3.42006L33.2134 3.42221C33.0214 3.44102 32.8275 3.45974 32.616 3.47222L32.616 3.47221L32.6147 3.47232C32.4675 3.48482 32.3444 3.49594 32.2435 3.51279C32.143 3.5296 32.0596 3.5528 31.994 3.59212C31.8548 3.67552 31.8132 3.81951 31.8132 4.04888C31.8132 4.11746 31.8261 4.17505 31.8559 4.2211C31.8863 4.26785 31.9305 4.29714 31.9823 4.31549C32.0332 4.33349 32.0933 4.34168 32.1591 4.3457C32.2248 4.34971 32.2999 4.34971 32.3816 4.34971H32.3828C32.6707 4.34971 32.8865 4.36377 33.048 4.38833C33.21 4.41297 33.3144 4.44773 33.382 4.48713C33.4479 4.52555 33.4788 4.56833 33.4948 4.61292C33.5118 4.66013 33.5136 4.71303 33.5136 4.77629C33.5136 4.91966 33.468 5.11489 33.4451 5.18772L33.445 5.18769L33.4441 5.1912L32.0385 11.138M35.36 3.93492L32.0385 11.138M32.0385 11.138C31.744 10.4847 31.0998 9.59239 29.9266 9.59239C28.5701 9.59239 27.1696 10.5215 26.111 11.9071C25.0513 13.2943 24.3265 15.1483 24.3265 17.0168C24.3265 19.517 25.7091 21.0048 27.3523 21.0048C28.0158 21.0048 28.6281 20.7294 29.1556 20.3528C29.6474 20.0016 30.0684 19.5603 30.3924 19.1652C30.527 19.8562 30.8564 20.3119 31.2431 20.5969C31.6485 20.8957 32.1139 21.0048 32.4772 21.0048C33.2129 21.0048 33.7935 20.5339 34.223 19.6217L34.2234 19.6206C34.4141 19.1903 34.592 18.5913 34.7221 18.0891C34.7872 17.8376 34.8405 17.6096 34.8775 17.4381C34.8961 17.3523 34.9106 17.2805 34.9205 17.2267C34.9254 17.1999 34.9292 17.1772 34.9319 17.1595C34.9343 17.143 34.9362 17.1276 34.9362 17.1171C34.9362 16.9634 34.8187 16.8414 34.6501 16.8414C34.5924 16.8414 34.5421 16.8498 34.4988 16.8726C34.4546 16.8958 34.4225 16.9312 34.3969 16.9765C34.3719 17.0209 34.3521 17.0763 34.333 17.142C34.3166 17.1985 34.2999 17.2652 34.2806 17.3422C34.2774 17.3548 34.2742 17.3677 34.2709 17.3809L34.2708 17.3814C34.0935 18.1218 33.8938 18.8819 33.6189 19.4565C33.3424 20.0344 33.0005 20.4032 32.5481 20.4032C32.3851 20.4032 32.264 20.3645 32.173 20.3022C32.0818 20.2397 32.017 20.151 31.9711 20.0446C31.8783 19.8295 31.866 19.5508 31.866 19.2994V19.2992C31.866 19.2004 31.866 18.6781 32.0299 17.9815L32.0385 11.138ZM31.6526 12.7816L31.6516 12.7811L31.6492 12.7914L30.4922 17.7067C30.4846 17.734 30.4776 17.7597 30.4709 17.7839C30.4251 17.9506 30.3975 18.051 30.3503 18.1565C30.2964 18.2771 30.2163 18.4052 30.0512 18.6432C29.7933 18.9917 29.4069 19.4329 28.9484 19.7865C28.4889 20.1408 27.9623 20.4032 27.4231 20.4032C26.958 20.4032 26.5955 20.1817 26.3468 19.7779C26.0967 19.3718 25.9616 18.7801 25.9616 18.0452C25.9616 17.3616 26.1434 16.3192 26.3824 15.3133C26.6212 14.3083 26.9155 13.3461 27.1382 12.823C27.5375 11.9501 28.012 11.2917 28.4987 10.8521C28.986 10.4121 29.4824 10.1941 29.9266 10.1941C30.6788 10.1941 31.1317 10.6887 31.3993 11.22C31.5329 11.4853 31.6189 11.7574 31.6714 11.9758C31.7242 12.1955 31.7423 12.3572 31.7423 12.4015C31.7423 12.3994 31.7423 12.4023 31.74 12.4154C31.7381 12.4262 31.7353 12.4407 31.7319 12.4579C31.725 12.4923 31.7155 12.5366 31.7052 12.5817C31.6949 12.6269 31.684 12.6725 31.6742 12.7098C31.6639 12.7492 31.6562 12.774 31.6526 12.7816Z" fill="" stroke="#5F5B80" stroke-width="0.1"/>
<path d="M46.5122 10.4501C45.8185 10.6438 45.5538 11.2308 45.5538 11.6994C45.5538 12.0143 45.6719 12.2296 45.8379 12.3652C46.0021 12.4993 46.2089 12.552 46.3832 12.552C47.1262 12.552 47.6377 11.87 47.6377 11.1726C47.6377 10.6246 47.3416 10.2276 46.9231 9.96998C46.506 9.71319 45.965 9.59258 45.4621 9.59258C44.7229 9.59258 44.1497 9.97898 43.737 10.4205C43.3834 10.7987 43.1445 11.2205 43.0157 11.4851C42.7331 10.6121 42.2458 10.1386 41.7689 9.8838C41.2714 9.61801 40.7896 9.59258 40.5733 9.59258C39.3443 9.59258 38.4101 10.4305 37.7868 11.3259C37.4744 11.7746 37.238 12.2404 37.0796 12.629C37.0004 12.8233 36.9405 12.9988 36.9003 13.1436C36.8605 13.2872 36.839 13.4042 36.839 13.4803C36.839 13.6086 36.9563 13.756 37.1488 13.756C37.2595 13.756 37.3323 13.7107 37.3822 13.65C37.4203 13.6038 37.4456 13.5473 37.4651 13.5036C37.4695 13.4938 37.4736 13.4847 37.4774 13.4765L37.478 13.4768L37.4802 13.4691C38.2781 10.7026 39.8435 10.1942 40.5025 10.1942C41.013 10.1942 41.3163 10.4453 41.4949 10.7703C41.6752 11.0986 41.7278 11.503 41.7278 11.7997C41.7278 12.3221 41.5993 12.8677 41.338 13.9768C41.3269 14.0238 41.3156 14.0719 41.304 14.121L41.304 14.1211L40.501 17.5574C40.3245 18.3072 40.0666 19.0213 39.6998 19.5468C39.3337 20.0714 38.8631 20.4034 38.2588 20.4034C38.1495 20.4034 37.6421 20.4028 37.1833 20.147C37.5539 20.0402 37.7902 19.8202 37.9352 19.5861C38.0942 19.3296 38.1435 19.0569 38.1435 18.8982C38.1435 18.635 38.0502 18.4208 37.8948 18.2726C37.7397 18.1247 37.526 18.0456 37.2905 18.0456C36.6945 18.0456 36.0596 18.5963 36.0596 19.425C36.0596 19.9725 36.3494 20.3696 36.7652 20.6275C37.1795 20.8845 37.7207 21.005 38.2352 21.005C39.3554 21.005 40.1526 20.1 40.6544 19.113C41.0729 20.5214 42.2344 21.005 43.1004 21.005C44.3294 21.005 45.2635 20.1671 45.8869 19.2717C46.1993 18.823 46.4357 18.3572 46.5941 17.9686C46.6733 17.7743 46.7332 17.5988 46.7734 17.454C46.8132 17.3104 46.8347 17.1934 46.8347 17.1173C46.8347 16.9636 46.7172 16.8416 46.5485 16.8416C46.4907 16.8416 46.4419 16.8501 46.4004 16.8687C46.3583 16.8876 46.3266 16.9155 46.3015 16.9498C46.277 16.9833 46.2589 17.0226 46.2429 17.064C46.2322 17.0914 46.2217 17.1219 46.2108 17.1536C46.2054 17.1692 46.2 17.1851 46.1944 17.201L46.1943 17.201L46.1935 17.2038C45.559 19.4001 44.2025 20.4034 43.1712 20.4034C42.7728 20.4034 42.4693 20.247 42.2638 19.969C42.0568 19.689 41.9459 19.2807 41.9459 18.7728C41.9459 18.2389 42.0348 17.8493 42.3947 16.2727L42.4168 16.1759L42.417 16.1753L43.2434 12.7646L43.2435 12.7643C43.4195 12.0167 43.7062 11.3723 44.0808 10.9159C44.4549 10.4601 44.9142 10.1942 45.4385 10.1942C45.4825 10.1942 46.0456 10.1949 46.5122 10.4501Z" fill="" stroke="#5F5B80" stroke-width="0.1"/>
<path d="M66.3377 22.3804L66.3378 22.3806C67.0368 23.8904 67.8721 25.0545 68.5657 25.8416C68.9125 26.2351 69.2243 26.5348 69.4665 26.7366C69.5875 26.8374 69.6918 26.9143 69.7748 26.9664C69.8163 26.9924 69.8533 27.0127 69.8851 27.0267C69.9155 27.04 69.9461 27.0499 69.9731 27.0499C70.028 27.0499 70.0927 27.0355 70.145 26.9959C70.1993 26.9547 70.2356 26.8895 70.2356 26.7993V26.7981C70.2356 26.7794 70.2356 26.7562 70.2274 26.7275C70.2192 26.6988 70.2037 26.6674 70.177 26.6273C70.1242 26.5481 70.0211 26.4262 69.8206 26.2133C67.4707 23.6925 66.1498 19.5682 66.1498 14.4584C66.1498 9.59955 67.2581 5.42563 69.9851 2.47876C70.1027 2.36625 70.166 2.29347 70.1992 2.23701C70.2164 2.20773 70.2261 2.18207 70.231 2.157C70.2356 2.13338 70.2356 2.11196 70.2356 2.094V2.09251C70.2356 2.00232 70.1993 1.93713 70.145 1.89591C70.0927 1.85626 70.028 1.84185 69.9731 1.84185C69.9434 1.84185 69.9102 1.85225 69.8768 1.86698C69.8423 1.8822 69.8029 1.90423 69.7593 1.93214C69.6721 1.98801 69.5648 2.06974 69.4424 2.17444C69.1974 2.38401 68.8887 2.68833 68.5539 3.06908C67.8843 3.83055 67.108 4.90044 66.5269 6.1346C65.3188 8.67563 64.7745 11.367 64.7745 14.4584C64.7745 16.6948 65.1056 19.6876 66.3377 22.3804Z" fill="" stroke="#5F5B80" stroke-width="0.1"/>
<path d="M87.2511 22.3804L87.2512 22.3806C87.9501 23.8904 88.7854 25.0545 89.4791 25.8416C89.8259 26.2351 90.1377 26.5348 90.3798 26.7366C90.5008 26.8374 90.6051 26.9143 90.6882 26.9664C90.7296 26.9924 90.7667 27.0127 90.7984 27.0267C90.8288 27.04 90.8594 27.0499 90.8864 27.0499C90.9414 27.0499 91.0061 27.0355 91.0583 26.9959C91.1127 26.9547 91.149 26.8895 91.149 26.7993V26.7981C91.149 26.7794 91.149 26.7562 91.1408 26.7275C91.1326 26.6988 91.1171 26.6674 91.0904 26.6273C91.0376 26.5481 90.9345 26.4262 90.7339 26.2133C88.384 23.6925 87.0631 19.5682 87.0631 14.4584C87.0631 9.59955 88.1715 5.42563 90.8984 2.47876C91.0161 2.36625 91.0793 2.29347 91.1125 2.23701C91.1298 2.20773 91.1394 2.18207 91.1443 2.157C91.149 2.13338 91.149 2.11196 91.149 2.094V2.09251C91.149 2.00232 91.1127 1.93713 91.0583 1.89591C91.0061 1.85626 90.9414 1.84185 90.8864 1.84185C90.8567 1.84185 90.8235 1.85225 90.7901 1.86698C90.7557 1.8822 90.7162 1.90423 90.6726 1.93214C90.5854 1.98801 90.4781 2.06974 90.3557 2.17444C90.1107 2.38401 89.802 2.68833 89.4672 3.06908C88.7977 3.83055 88.0213 4.90044 87.4403 6.1346C86.2322 8.67563 85.6878 11.367 85.6878 14.4584C85.6878 16.6948 86.0189 19.6876 87.2511 22.3804Z" fill="" stroke="#5F5B80" stroke-width="0.1"/>
<path d="M103.481 10.4501C102.787 10.6438 102.522 11.2308 102.522 11.6994C102.522 12.0143 102.64 12.2296 102.806 12.3652C102.971 12.4993 103.177 12.552 103.352 12.552C104.095 12.552 104.606 11.87 104.606 11.1726C104.606 10.6246 104.31 10.2276 103.892 9.96998C103.475 9.71319 102.934 9.59258 102.431 9.59258C101.691 9.59258 101.118 9.97898 100.705 10.4205C100.352 10.7987 100.113 11.2205 99.9842 11.4851C99.7016 10.6121 99.2143 10.1386 98.7374 9.8838C98.2399 9.61801 97.7581 9.59258 97.5418 9.59258C96.3128 9.59258 95.3787 10.4305 94.7553 11.3259C94.4429 11.7746 94.2065 12.2404 94.0481 12.629C93.9689 12.8233 93.909 12.9988 93.8688 13.1436C93.829 13.2872 93.8075 13.4042 93.8075 13.4803C93.8075 13.6086 93.9248 13.756 94.1173 13.756C94.228 13.756 94.3008 13.7107 94.3507 13.65C94.3888 13.6038 94.4141 13.5473 94.4336 13.5036C94.438 13.4938 94.4421 13.4847 94.4459 13.4765L94.4465 13.4768L94.4487 13.4691C95.2466 10.7026 96.812 10.1942 97.471 10.1942C97.9816 10.1942 98.2848 10.4453 98.4634 10.7703C98.6437 11.0986 98.6963 11.503 98.6963 11.7997C98.6963 12.3221 98.5678 12.8677 98.3065 13.9768C98.2954 14.0238 98.2841 14.0719 98.2725 14.121L98.2725 14.1211L97.4695 17.5574C97.293 18.3072 97.0351 19.0213 96.6683 19.5468C96.3022 20.0714 95.8316 20.4034 95.2273 20.4034C95.118 20.4034 94.6106 20.4028 94.1518 20.147C94.5225 20.0402 94.7587 19.8202 94.9037 19.5861C95.0627 19.3296 95.112 19.0569 95.112 18.8982C95.112 18.635 95.0187 18.4208 94.8633 18.2726C94.7082 18.1247 94.4945 18.0456 94.259 18.0456C93.663 18.0456 93.0281 18.5963 93.0281 19.425C93.0281 19.9725 93.3179 20.3696 93.7337 20.6275C94.148 20.8845 94.6892 21.005 95.2037 21.005C96.3239 21.005 97.1211 20.1 97.623 19.113C98.0414 20.5214 99.2029 21.005 100.069 21.005C101.298 21.005 102.232 20.1671 102.855 19.2717C103.168 18.823 103.404 18.3572 103.563 17.9686C103.642 17.7743 103.702 17.5988 103.742 17.454C103.782 17.3104 103.803 17.1934 103.803 17.1173C103.803 16.9636 103.686 16.8416 103.517 16.8416C103.459 16.8416 103.41 16.8501 103.369 16.8687C103.327 16.8876 103.295 16.9155 103.27 16.9498C103.246 16.9833 103.227 17.0226 103.211 17.064C103.201 17.0914 103.19 17.1219 103.179 17.1536C103.174 17.1692 103.168 17.1851 103.163 17.201L103.163 17.201L103.162 17.2038C102.527 19.4001 101.171 20.4034 100.14 20.4034C99.7413 20.4034 99.4378 20.247 99.2323 19.969C99.0253 19.689 98.9144 19.2807 98.9144 18.7728C98.9144 18.2389 99.0033 17.8493 99.3633 16.2727L99.3853 16.1759L99.3855 16.1753L100.212 12.7646L100.212 12.7643C100.388 12.0167 100.675 11.3723 101.049 10.9159C101.423 10.4601 101.883 10.1942 102.407 10.1942C102.451 10.1942 103.014 10.1949 103.481 10.4501Z" fill="" stroke="#5F5B80" stroke-width="0.1"/>
<path d="M110.705 6.51151L110.705 6.5112C110.006 5.00142 109.17 3.83733 108.477 3.05023C108.13 2.65672 107.818 2.357 107.576 2.15521C107.455 2.05439 107.351 1.97745 107.268 1.92541C107.226 1.89942 107.189 1.87911 107.157 1.86513C107.127 1.85176 107.096 1.84185 107.069 1.84185C107.015 1.84185 106.95 1.85626 106.898 1.89591C106.843 1.93713 106.807 2.00232 106.807 2.09251C106.807 2.0929 106.807 2.09329 106.807 2.09368C106.807 2.11242 106.807 2.13554 106.815 2.16426C106.823 2.19296 106.839 2.22443 106.866 2.26448C106.918 2.34364 107.021 2.46555 107.222 2.67852C109.572 5.19929 110.893 9.32363 110.893 14.4334C110.893 19.2922 109.784 23.4662 107.057 26.413C106.94 26.5255 106.877 26.5983 106.843 26.6548C106.826 26.6841 106.816 26.7097 106.812 26.7348C106.807 26.7584 106.807 26.7798 106.807 26.7978L106.807 26.7993C106.807 26.8895 106.843 26.9547 106.898 26.9959C106.95 27.0355 107.015 27.0499 107.069 27.0499C107.099 27.0499 107.132 27.0395 107.166 27.0248C107.2 27.0096 107.24 26.9876 107.283 26.9596C107.371 26.9038 107.478 26.822 107.6 26.7173C107.845 26.5078 108.154 26.2035 108.489 25.8227C109.158 25.0612 109.935 23.9913 110.516 22.7571C111.724 20.1911 112.268 17.4747 112.268 14.4584C112.268 12.549 112.032 9.43049 110.705 6.51151Z" fill="" stroke="#5F5B80" stroke-width="0.1"/>
<path d="M119.698 6.51151L119.698 6.5112C118.999 5.00142 118.164 3.83733 117.47 3.05023C117.123 2.65672 116.811 2.357 116.569 2.15521C116.448 2.05439 116.344 1.97745 116.261 1.92541C116.219 1.89942 116.182 1.87911 116.151 1.86513C116.12 1.85176 116.09 1.84185 116.063 1.84185C116.008 1.84185 115.943 1.85626 115.891 1.89591C115.836 1.93713 115.8 2.00232 115.8 2.09251C115.8 2.0929 115.8 2.09329 115.8 2.09368C115.8 2.11242 115.8 2.13554 115.808 2.16426C115.817 2.19296 115.832 2.22443 115.859 2.26448C115.911 2.34364 116.015 2.46555 116.215 2.67852C118.565 5.19929 119.886 9.32363 119.886 14.4334C119.886 19.2922 118.778 23.4662 116.051 26.413C115.933 26.5255 115.87 26.5983 115.837 26.6548C115.819 26.6841 115.81 26.7097 115.805 26.7348C115.8 26.7584 115.8 26.7798 115.8 26.7978L115.8 26.7993C115.8 26.8895 115.836 26.9547 115.891 26.9959C115.943 27.0355 116.008 27.0499 116.063 27.0499C116.092 27.0499 116.126 27.0395 116.159 27.0248C116.193 27.0096 116.233 26.9876 116.276 26.9596C116.364 26.9038 116.471 26.822 116.593 26.7173C116.838 26.5078 117.147 26.2035 117.482 25.8227C118.151 25.0612 118.928 23.9913 119.509 22.7571C120.717 20.1911 121.261 17.4747 121.261 14.4584C121.261 12.549 121.025 9.43049 119.698 6.51151Z" fill="" stroke="#5F5B80" stroke-width="0.1"/>
<path d="M146.046 12.6272L146.051 12.6272C146.213 12.6273 146.409 12.6273 146.566 12.5675C146.646 12.5367 146.719 12.4892 146.771 12.4157C146.823 12.342 146.852 12.2467 146.852 12.1257C146.852 11.9996 146.825 11.9002 146.775 11.8231C146.726 11.7458 146.655 11.6953 146.576 11.6625C146.422 11.5992 146.225 11.5992 146.052 11.5992L146.046 11.5992H132.135L132.13 11.5992C131.968 11.5992 131.772 11.5992 131.615 11.6589C131.535 11.6897 131.462 11.7372 131.41 11.8107C131.358 11.8844 131.329 11.9798 131.329 12.1007C131.329 12.2268 131.356 12.3262 131.406 12.4033C131.455 12.4806 131.526 12.5311 131.605 12.5639C131.759 12.6273 131.956 12.6273 132.129 12.6272L132.135 12.6272H146.046ZM146.046 17.2927H146.051C146.213 17.2927 146.409 17.2927 146.566 17.2329C146.646 17.2022 146.719 17.1547 146.771 17.0811C146.823 17.0075 146.852 16.9121 146.852 16.7912C146.852 16.6651 146.825 16.5656 146.775 16.4886C146.726 16.4113 146.655 16.3608 146.576 16.328C146.422 16.2646 146.225 16.2646 146.052 16.2646H146.046H132.135H132.13C131.968 16.2646 131.772 16.2646 131.615 16.3243C131.535 16.3551 131.462 16.4026 131.41 16.4762C131.358 16.5498 131.329 16.6452 131.329 16.7661C131.329 16.8922 131.356 16.9917 131.406 17.0687C131.455 17.146 131.526 17.1965 131.605 17.2293C131.759 17.2927 131.956 17.2927 132.129 17.2927H132.135H146.046Z" fill="" stroke="#5F5B80" stroke-width="0.1"/>
<path d="M172.79 2.44033L172.79 2.44034L172.791 2.4384C172.807 2.39401 172.823 2.35319 172.837 2.31472C172.893 2.17138 172.935 2.06065 172.935 1.91971C172.935 1.33688 172.437 0.95 171.972 0.95C171.639 0.95 171.424 1.10623 171.287 1.29216C171.151 1.47581 171.09 1.68858 171.058 1.80618C171.058 1.80625 171.058 1.80632 171.058 1.80639L169.059 9.01239C168.995 9.21404 168.994 9.26983 168.994 9.29412C168.994 9.38234 169.023 9.44402 169.08 9.48837C169.131 9.52776 169.202 9.55095 169.277 9.57486C169.555 9.706 169.597 9.712 169.642 9.712H169.643C169.655 9.712 169.675 9.71201 169.698 9.70597C169.723 9.69967 169.749 9.68739 169.776 9.66512C169.829 9.62164 169.884 9.54134 169.94 9.39624C169.94 9.3961 169.94 9.39595 169.941 9.3958L172.79 2.44033Z" fill="" stroke="#5F5B80" stroke-width="0.1"/>
<path d="M177.92 22.3804L177.92 22.3806C178.619 23.8904 179.455 25.0545 180.148 25.8416C180.495 26.2351 180.807 26.5348 181.049 26.7366C181.17 26.8374 181.274 26.9143 181.357 26.9664C181.399 26.9924 181.436 27.0127 181.468 27.0267C181.498 27.04 181.529 27.0499 181.556 27.0499C181.611 27.0499 181.675 27.0355 181.728 26.9959C181.782 26.9547 181.818 26.8895 181.818 26.7993V26.7981C181.818 26.7794 181.818 26.7562 181.81 26.7275C181.802 26.6988 181.786 26.6674 181.76 26.6273C181.707 26.5481 181.604 26.4262 181.403 26.2133C179.053 23.6925 177.732 19.5682 177.732 14.4584C177.732 9.59955 178.841 5.42563 181.568 2.47876C181.685 2.36625 181.748 2.29347 181.782 2.23701C181.799 2.20773 181.809 2.18207 181.814 2.157C181.818 2.13338 181.818 2.11196 181.818 2.094V2.09251C181.818 2.00232 181.782 1.93713 181.728 1.89591C181.675 1.85626 181.611 1.84185 181.556 1.84185C181.526 1.84185 181.493 1.85225 181.459 1.86698C181.425 1.8822 181.385 1.90423 181.342 1.93214C181.255 1.98801 181.147 2.06974 181.025 2.17444C180.78 2.38401 180.471 2.68833 180.136 3.06908C179.467 3.83055 178.691 4.90044 178.109 6.1346C176.901 8.67563 176.357 11.367 176.357 14.4584C176.357 16.6948 176.688 19.6876 177.92 22.3804Z" fill="" stroke="#5F5B80" stroke-width="0.1"/>
<path d="M198.834 22.3804L198.834 22.3806C199.533 23.8904 200.369 25.0545 201.062 25.8416C201.409 26.2351 201.721 26.5348 201.963 26.7366C202.084 26.8374 202.188 26.9143 202.271 26.9664C202.313 26.9924 202.35 27.0127 202.382 27.0267C202.412 27.04 202.443 27.0499 202.47 27.0499C202.525 27.0499 202.589 27.0355 202.642 26.9959C202.696 26.9547 202.732 26.8895 202.732 26.7993V26.7981C202.732 26.7794 202.732 26.7562 202.724 26.7275C202.716 26.6988 202.7 26.6674 202.674 26.6273C202.621 26.5481 202.518 26.4262 202.317 26.2133C199.967 23.6925 198.646 19.5682 198.646 14.4584C198.646 9.59955 199.755 5.42563 202.482 2.47876C202.599 2.36625 202.663 2.29347 202.696 2.23701C202.713 2.20773 202.723 2.18207 202.728 2.157C202.732 2.13338 202.732 2.11196 202.732 2.094V2.09251C202.732 2.00232 202.696 1.93713 202.642 1.89591C202.589 1.85626 202.525 1.84185 202.47 1.84185C202.44 1.84185 202.407 1.85225 202.373 1.86698C202.339 1.8822 202.299 1.90423 202.256 1.93214C202.169 1.98801 202.061 2.06974 201.939 2.17444C201.694 2.38401 201.385 2.68833 201.05 3.06908C200.381 3.83055 199.605 4.90044 199.024 6.1346C197.815 8.67563 197.271 11.367 197.271 14.4584C197.271 16.6948 197.602 19.6876 198.834 22.3804Z" fill="" stroke="#5F5B80" stroke-width="0.1"/>
<path d="M215.063 10.4501C214.37 10.6438 214.105 11.2308 214.105 11.6994C214.105 12.0143 214.223 12.2296 214.389 12.3652C214.553 12.4993 214.76 12.552 214.934 12.552C215.677 12.552 216.189 11.87 216.189 11.1726C216.189 10.6246 215.893 10.2276 215.474 9.96998C215.057 9.71319 214.516 9.59258 214.013 9.59258C213.274 9.59258 212.701 9.97898 212.288 10.4205C211.934 10.7987 211.695 11.2205 211.567 11.4851C211.284 10.6121 210.797 10.1386 210.32 9.8838C209.822 9.61801 209.341 9.59258 209.124 9.59258C207.895 9.59258 206.961 10.4305 206.338 11.3259C206.025 11.7746 205.789 12.2404 205.631 12.629C205.551 12.8233 205.492 12.9988 205.451 13.1436C205.412 13.2872 205.39 13.4042 205.39 13.4803C205.39 13.6086 205.507 13.756 205.7 13.756C205.811 13.756 205.883 13.7107 205.933 13.65C205.971 13.6038 205.997 13.5473 206.016 13.5036C206.021 13.4938 206.025 13.4847 206.028 13.4765L206.029 13.4768L206.031 13.4691C206.829 10.7026 208.394 10.1942 209.053 10.1942C209.564 10.1942 209.867 10.4453 210.046 10.7703C210.226 11.0986 210.279 11.503 210.279 11.7997C210.279 12.3221 210.15 12.8677 209.889 13.9768C209.878 14.0238 209.867 14.0719 209.855 14.121L209.855 14.1211L209.052 17.5574C208.876 18.3072 208.618 19.0213 208.251 19.5468C207.885 20.0714 207.414 20.4034 206.81 20.4034C206.7 20.4034 206.193 20.4028 205.734 20.147C206.105 20.0402 206.341 19.8202 206.486 19.5861C206.645 19.3296 206.695 19.0569 206.695 18.8982C206.695 18.635 206.601 18.4208 206.446 18.2726C206.291 18.1247 206.077 18.0456 205.842 18.0456C205.246 18.0456 204.611 18.5963 204.611 19.425C204.611 19.9725 204.9 20.3696 205.316 20.6275C205.731 20.8845 206.272 21.005 206.786 21.005C207.906 21.005 208.704 20.1 209.205 19.113C209.624 20.5214 210.785 21.005 211.651 21.005C212.88 21.005 213.815 20.1671 214.438 19.2717C214.75 18.823 214.987 18.3572 215.145 17.9686C215.224 17.7743 215.284 17.5988 215.324 17.454C215.364 17.3104 215.386 17.1934 215.386 17.1173C215.386 16.9636 215.268 16.8416 215.1 16.8416C215.042 16.8416 214.993 16.8501 214.951 16.8687C214.909 16.8876 214.878 16.9155 214.853 16.9498C214.828 16.9833 214.81 17.0226 214.794 17.064C214.783 17.0914 214.773 17.1219 214.762 17.1536C214.756 17.1692 214.751 17.1851 214.745 17.201L214.745 17.201L214.744 17.2038C214.11 19.4001 212.754 20.4034 211.722 20.4034C211.324 20.4034 211.02 20.247 210.815 19.969C210.608 19.689 210.497 19.2807 210.497 18.7728C210.497 18.2389 210.586 17.8493 210.946 16.2727L210.968 16.1759L210.968 16.1753L211.794 12.7646L211.795 12.7643C211.971 12.0167 212.257 11.3723 212.632 10.9159C213.006 10.4601 213.465 10.1942 213.99 10.1942C214.033 10.1942 214.597 10.1949 215.063 10.4501Z" fill="" stroke="#5F5B80" stroke-width="0.1"/>
<path d="M222.288 6.51151L222.288 6.5112C221.589 5.00142 220.754 3.83733 220.06 3.05023C219.713 2.65672 219.401 2.357 219.159 2.15521C219.038 2.05439 218.934 1.97745 218.851 1.92541C218.809 1.89942 218.772 1.87911 218.74 1.86513C218.71 1.85176 218.679 1.84185 218.652 1.84185C218.598 1.84185 218.533 1.85626 218.481 1.89591C218.426 1.93713 218.39 2.00232 218.39 2.09251C218.39 2.0929 218.39 2.09329 218.39 2.09368C218.39 2.11242 218.39 2.13554 218.398 2.16426C218.406 2.19296 218.422 2.22443 218.449 2.26448C218.501 2.34364 218.604 2.46555 218.805 2.67852C221.155 5.19929 222.476 9.32363 222.476 14.4334C222.476 19.2922 221.367 23.4662 218.64 26.413C218.523 26.5255 218.46 26.5983 218.426 26.6548C218.409 26.6841 218.399 26.7097 218.395 26.7348C218.39 26.7584 218.39 26.7798 218.39 26.7978L218.39 26.7993C218.39 26.8895 218.426 26.9547 218.481 26.9959C218.533 27.0355 218.598 27.0499 218.652 27.0499C218.682 27.0499 218.715 27.0395 218.749 27.0248C218.783 27.0096 218.823 26.9876 218.866 26.9596C218.954 26.9038 219.061 26.822 219.183 26.7173C219.428 26.5078 219.737 26.2035 220.072 25.8227C220.741 25.0612 221.518 23.9913 222.099 22.7571C223.307 20.1911 223.851 17.4747 223.851 14.4584C223.851 12.549 223.615 9.43049 222.288 6.51151Z" fill="" stroke="#5F5B80" stroke-width="0.1"/>
<path d="M231.281 6.51151L231.281 6.5112C230.582 5.00142 229.747 3.83733 229.053 3.05023C228.706 2.65672 228.394 2.357 228.152 2.15521C228.031 2.05439 227.927 1.97745 227.844 1.92541C227.802 1.89942 227.765 1.87911 227.734 1.86513C227.703 1.85176 227.673 1.84185 227.646 1.84185C227.591 1.84185 227.526 1.85626 227.474 1.89591C227.419 1.93713 227.383 2.00232 227.383 2.09251C227.383 2.0929 227.383 2.09329 227.383 2.09368C227.383 2.11242 227.383 2.13554 227.391 2.16426C227.4 2.19296 227.415 2.22443 227.442 2.26448C227.494 2.34364 227.598 2.46555 227.798 2.67852C230.148 5.19929 231.469 9.32363 231.469 14.4334C231.469 19.2922 230.361 23.4662 227.634 26.413C227.516 26.5255 227.453 26.5983 227.42 26.6548C227.402 26.6841 227.393 26.7097 227.388 26.7348C227.383 26.7584 227.383 26.7798 227.383 26.7978L227.383 26.7993C227.383 26.8895 227.419 26.9547 227.474 26.9959C227.526 27.0355 227.591 27.0499 227.646 27.0499C227.675 27.0499 227.709 27.0395 227.742 27.0248C227.776 27.0096 227.816 26.9876 227.859 26.9596C227.947 26.9038 228.054 26.822 228.176 26.7173C228.421 26.5078 228.73 26.2035 229.065 25.8227C229.734 25.0612 230.511 23.9913 231.092 22.7571C232.3 20.1911 232.844 17.4747 232.844 14.4584C232.844 12.549 232.608 9.43049 231.281 6.51151Z" fill="" stroke="#5F5B80" stroke-width="0.1"/>
<path d="M251.267 2.44033L251.267 2.44034L251.267 2.4384C251.283 2.39401 251.299 2.35319 251.314 2.31472C251.369 2.17138 251.412 2.06065 251.412 1.91971C251.412 1.33688 250.914 0.95 250.449 0.95C250.115 0.95 249.901 1.10623 249.763 1.29216C249.627 1.47581 249.566 1.68858 249.535 1.80618C249.535 1.80625 249.535 1.80632 249.535 1.80639L247.535 9.01239C247.472 9.21404 247.47 9.26983 247.47 9.29412C247.47 9.38234 247.499 9.44402 247.557 9.48837C247.608 9.52776 247.679 9.55095 247.754 9.57486C248.032 9.706 248.074 9.712 248.119 9.712H248.119C248.131 9.712 248.151 9.71201 248.175 9.70597C248.199 9.69967 248.225 9.68739 248.253 9.66512C248.306 9.62164 248.361 9.54134 248.417 9.39624C248.417 9.3961 248.417 9.39595 248.417 9.3958L251.267 2.44033Z" fill="" stroke="#5F5B80" stroke-width="0.1"/>
<path d="M256.397 22.3804L256.397 22.3806C257.096 23.8904 257.932 25.0545 258.625 25.8416C258.972 26.2351 259.284 26.5348 259.526 26.7366C259.647 26.8374 259.751 26.9143 259.834 26.9664C259.876 26.9924 259.913 27.0127 259.945 27.0267C259.975 27.04 260.006 27.0499 260.033 27.0499C260.088 27.0499 260.152 27.0355 260.205 26.9959C260.259 26.9547 260.295 26.8895 260.295 26.7993V26.7981C260.295 26.7794 260.295 26.7562 260.287 26.7275C260.279 26.6988 260.263 26.6674 260.237 26.6273C260.184 26.5481 260.081 26.4262 259.88 26.2133C257.53 23.6925 256.209 19.5682 256.209 14.4584C256.209 9.59955 257.318 5.42563 260.045 2.47876C260.162 2.36625 260.226 2.29347 260.259 2.23701C260.276 2.20773 260.286 2.18207 260.291 2.157C260.295 2.13338 260.295 2.11196 260.295 2.094V2.09251C260.295 2.00232 260.259 1.93713 260.205 1.89591C260.152 1.85626 260.088 1.84185 260.033 1.84185C260.003 1.84185 259.97 1.85225 259.936 1.86698C259.902 1.8822 259.862 1.90423 259.819 1.93214C259.732 1.98801 259.624 2.06974 259.502 2.17444C259.257 2.38401 258.948 2.68833 258.613 3.06908C257.944 3.83055 257.168 4.90044 256.587 6.1346C255.378 8.67563 254.834 11.367 254.834 14.4584C254.834 16.6948 255.165 19.6876 256.397 22.3804Z" fill="" stroke="#5F5B80" stroke-width="0.1"/>
<path d="M272.626 10.4501C271.933 10.6438 271.668 11.2308 271.668 11.6994C271.668 12.0143 271.786 12.2296 271.952 12.3652C272.116 12.4993 272.323 12.552 272.497 12.552C273.241 12.552 273.752 11.87 273.752 11.1726C273.752 10.6246 273.456 10.2276 273.037 9.96998C272.62 9.71319 272.079 9.59258 271.576 9.59258C270.837 9.59258 270.264 9.97898 269.851 10.4205C269.498 10.7987 269.259 11.2205 269.13 11.4851C268.847 10.6121 268.36 10.1386 267.883 9.8838C267.386 9.61801 266.904 9.59258 266.688 9.59258C265.459 9.59258 264.524 10.4305 263.901 11.3259C263.589 11.7746 263.352 12.2404 263.194 12.629C263.115 12.8233 263.055 12.9988 263.015 13.1436C262.975 13.2872 262.953 13.4042 262.953 13.4803C262.953 13.6086 263.071 13.756 263.263 13.756C263.374 13.756 263.447 13.7107 263.496 13.65C263.535 13.6038 263.56 13.5473 263.579 13.5036C263.584 13.4938 263.588 13.4847 263.592 13.4765L263.592 13.4768L263.594 13.4691C264.392 10.7026 265.958 10.1942 266.617 10.1942C267.127 10.1942 267.431 10.4453 267.609 10.7703C267.789 11.0986 267.842 11.503 267.842 11.7997C267.842 12.3221 267.714 12.8677 267.452 13.9768C267.441 14.0238 267.43 14.0719 267.418 14.121L267.418 14.1211L266.615 17.5574C266.439 18.3072 266.181 19.0213 265.814 19.5468C265.448 20.0714 264.977 20.4034 264.373 20.4034C264.264 20.4034 263.756 20.4028 263.298 20.147C263.668 20.0402 263.904 19.8202 264.049 19.5861C264.208 19.3296 264.258 19.0569 264.258 18.8982C264.258 18.635 264.164 18.4208 264.009 18.2726C263.854 18.1247 263.64 18.0456 263.405 18.0456C262.809 18.0456 262.174 18.5963 262.174 19.425C262.174 19.9725 262.464 20.3696 262.879 20.6275C263.294 20.8845 263.835 21.005 264.349 21.005C265.47 21.005 266.267 20.1 266.769 19.113C267.187 20.5214 268.349 21.005 269.215 21.005C270.444 21.005 271.378 20.1671 272.001 19.2717C272.314 18.823 272.55 18.3572 272.708 17.9686C272.788 17.7743 272.847 17.5988 272.888 17.454C272.927 17.3104 272.949 17.1934 272.949 17.1173C272.949 16.9636 272.831 16.8416 272.663 16.8416C272.605 16.8416 272.556 16.8501 272.515 16.8687C272.473 16.8876 272.441 16.9155 272.416 16.9498C272.391 16.9833 272.373 17.0226 272.357 17.064C272.346 17.0914 272.336 17.1219 272.325 17.1536C272.32 17.1692 272.314 17.1851 272.309 17.201L272.309 17.201L272.308 17.2038C271.673 19.4001 270.317 20.4034 269.285 20.4034C268.887 20.4034 268.584 20.247 268.378 19.969C268.171 19.689 268.06 19.2807 268.06 18.7728C268.06 18.2389 268.149 17.8493 268.509 16.2727L268.531 16.1759L268.531 16.1753L269.358 12.7646L269.358 12.7643C269.534 12.0167 269.82 11.3723 270.195 10.9159C270.569 10.4601 271.028 10.1942 271.553 10.1942C271.597 10.1942 272.16 10.1949 272.626 10.4501Z" fill="" stroke="#5F5B80" stroke-width="0.1"/>
<path d="M279.851 6.51151L279.85 6.5112C279.152 5.00142 278.316 3.83733 277.623 3.05023C277.276 2.65672 276.964 2.357 276.722 2.15521C276.601 2.05439 276.497 1.97745 276.413 1.92541C276.372 1.89942 276.335 1.87911 276.303 1.86513C276.273 1.85176 276.242 1.84185 276.215 1.84185C276.16 1.84185 276.096 1.85626 276.043 1.89591C275.989 1.93713 275.953 2.00232 275.953 2.09251C275.953 2.0929 275.953 2.09329 275.953 2.09368C275.953 2.11242 275.953 2.13554 275.961 2.16426C275.969 2.19296 275.985 2.22443 276.011 2.26448C276.064 2.34364 276.167 2.46555 276.368 2.67852C278.718 5.19929 280.039 9.32363 280.039 14.4334C280.039 19.2922 278.93 23.4662 276.203 26.413C276.086 26.5255 276.022 26.5983 275.989 26.6548C275.972 26.6841 275.962 26.7097 275.957 26.7348C275.953 26.7584 275.953 26.7798 275.953 26.7978L275.953 26.7993C275.953 26.8895 275.989 26.9547 276.043 26.9959C276.096 27.0355 276.16 27.0499 276.215 27.0499C276.245 27.0499 276.278 27.0395 276.312 27.0248C276.346 27.0096 276.385 26.9876 276.429 26.9596C276.516 26.9038 276.624 26.822 276.746 26.7173C276.991 26.5078 277.3 26.2035 277.634 25.8227C278.304 25.0612 279.08 23.9913 279.661 22.7571C280.869 20.1911 281.414 17.4747 281.414 14.4584C281.414 12.549 281.177 9.43049 279.851 6.51151Z" fill="" stroke="#5F5B80" stroke-width="0.1"/>
<path d="M78.3382 18.3649L78.3381 18.3648L78.3365 18.3671C77.3711 19.689 76.3899 20.1525 75.6775 20.1525C75.302 20.1525 74.9383 19.9965 74.6669 19.6303C74.3943 19.2626 74.212 18.6788 74.212 17.8196C74.212 17.1611 74.3884 16.1312 74.6309 15.1224C74.8733 14.1142 75.1801 13.1337 75.4385 12.5737C75.7796 11.8761 76.2139 11.2799 76.6846 10.8587C77.156 10.437 77.6596 10.1942 78.1401 10.1942C78.8945 10.1942 79.3487 10.6891 79.617 11.2142C79.7509 11.4764 79.8371 11.7438 79.8897 11.9552C79.9405 12.1594 79.9592 12.3074 79.9606 12.347L79.8908 12.6921L78.7781 17.5072C78.7781 17.5072 78.7781 17.5072 78.7781 17.5072C78.7308 17.7076 78.6964 17.8279 78.6372 17.9443C78.5777 18.0613 78.4921 18.1768 78.3382 18.3649ZM76.5414 24.2562L76.5409 24.2567C76.0612 24.7649 75.6008 25.0173 75.1979 25.1432C74.7943 25.2693 74.4458 25.2695 74.1857 25.2695C73.5344 25.2695 72.9867 25.2271 72.4484 25.0662C73.1163 24.7915 73.2885 24.1352 73.2885 23.8646C73.2885 23.4405 72.9866 23.012 72.4335 23.012C71.8367 23.012 71.1995 23.5369 71.1995 24.3914C71.1995 24.6567 71.2622 24.8847 71.3912 25.0765C71.5199 25.2681 71.7122 25.42 71.9655 25.5373C72.4702 25.771 73.2254 25.8711 74.2331 25.8711C77.3132 25.8711 78.9181 23.7709 79.2307 22.396C79.2307 22.396 79.2307 22.3959 79.2307 22.3958L81.859 11.159C81.859 11.159 81.859 11.159 81.859 11.159C81.9302 10.8574 81.9314 10.8025 81.9314 10.7462C81.9314 10.3689 81.6499 10.0692 81.2657 10.0692C80.9647 10.0692 80.7257 10.2029 80.5543 10.424C80.4132 10.6062 80.3184 10.8467 80.2695 11.12C79.9324 10.4154 79.2691 9.59258 78.1401 9.59258C76.8284 9.59258 75.4362 10.4642 74.3745 11.7968C73.3117 13.1308 72.5729 14.9349 72.5729 16.8163C72.5729 18.1302 72.9487 19.1146 73.5205 19.7713C74.0924 20.4281 74.8579 20.7542 75.6301 20.7542C76.2713 20.7542 76.873 20.4853 77.3657 20.1563C77.7712 19.8856 78.1057 19.5723 78.3315 19.3286L77.8547 21.3948L77.8546 21.3953L77.8424 21.446C77.6827 22.1107 77.5666 22.594 77.3895 23.0176C77.2088 23.45 76.9639 23.8211 76.5414 24.2562Z" fill="" stroke="#5F5B80" stroke-width="0.1"/>
<path d="M190.338 18.3649L190.338 18.3648L190.337 18.3671C189.371 19.689 188.39 20.1525 187.677 20.1525C187.302 20.1525 186.938 19.9965 186.667 19.6303C186.394 19.2626 186.212 18.6788 186.212 17.8196C186.212 17.1611 186.388 16.1312 186.631 15.1224C186.873 14.1142 187.18 13.1337 187.439 12.5737C187.78 11.8761 188.214 11.2799 188.685 10.8587C189.156 10.437 189.66 10.1942 190.14 10.1942C190.895 10.1942 191.349 10.6891 191.617 11.2142C191.751 11.4764 191.837 11.7438 191.89 11.9552C191.941 12.1594 191.959 12.3074 191.961 12.347L191.891 12.6921L190.778 17.5072C190.778 17.5072 190.778 17.5072 190.778 17.5072C190.731 17.7076 190.696 17.8279 190.637 17.9443C190.578 18.0613 190.492 18.1768 190.338 18.3649ZM188.541 24.2562L188.541 24.2567C188.061 24.7649 187.601 25.0173 187.198 25.1432C186.794 25.2693 186.446 25.2695 186.186 25.2695C185.534 25.2695 184.987 25.2271 184.448 25.0662C185.116 24.7915 185.289 24.1352 185.289 23.8646C185.289 23.4405 184.987 23.012 184.433 23.012C183.837 23.012 183.2 23.5369 183.2 24.3914C183.2 24.6567 183.262 24.8847 183.391 25.0765C183.52 25.2681 183.712 25.42 183.966 25.5373C184.47 25.771 185.225 25.8711 186.233 25.8711C189.313 25.8711 190.918 23.7709 191.231 22.396C191.231 22.396 191.231 22.3959 191.231 22.3958L193.859 11.159C193.859 11.159 193.859 11.159 193.859 11.159C193.93 10.8574 193.931 10.8025 193.931 10.7462C193.931 10.3689 193.65 10.0692 193.266 10.0692C192.965 10.0692 192.726 10.2029 192.554 10.424C192.413 10.6062 192.318 10.8467 192.27 11.12C191.932 10.4154 191.269 9.59258 190.14 9.59258C188.828 9.59258 187.436 10.4642 186.375 11.7968C185.312 13.1308 184.573 14.9349 184.573 16.8163C184.573 18.1302 184.949 19.1146 185.521 19.7713C186.092 20.4281 186.858 20.7542 187.63 20.7542C188.271 20.7542 188.873 20.4853 189.366 20.1563C189.771 19.8856 190.106 19.5723 190.331 19.3286L189.855 21.3948L189.855 21.3953L189.842 21.446C189.683 22.1107 189.567 22.594 189.39 23.0176C189.209 23.45 188.964 23.8211 188.541 24.2562Z" fill="" stroke="#5F5B80" stroke-width="0.1"/>
<path d="M242.338 17.3649L242.338 17.3648L242.337 17.3671C241.371 18.689 240.39 19.1525 239.677 19.1525C239.302 19.1525 238.938 18.9965 238.667 18.6303C238.394 18.2626 238.212 17.6788 238.212 16.8196C238.212 16.1611 238.388 15.1312 238.631 14.1224C238.873 13.1142 239.18 12.1337 239.439 11.5737C239.78 10.8761 240.214 10.2799 240.685 9.85874C241.156 9.43697 241.66 9.19424 242.14 9.19424C242.895 9.19424 243.349 9.68907 243.617 10.2142C243.751 10.4764 243.837 10.7438 243.89 10.9552C243.941 11.1594 243.959 11.3074 243.961 11.347L243.891 11.6921L242.778 16.5072C242.778 16.5072 242.778 16.5072 242.778 16.5072C242.731 16.7076 242.696 16.8279 242.637 16.9443C242.578 17.0613 242.492 17.1768 242.338 17.3649ZM240.541 23.2562L240.541 23.2567C240.061 23.7649 239.601 24.0173 239.198 24.1432C238.794 24.2693 238.446 24.2695 238.186 24.2695C237.534 24.2695 236.987 24.2271 236.448 24.0662C237.116 23.7915 237.289 23.1352 237.289 22.8646C237.289 22.4405 236.987 22.012 236.433 22.012C235.837 22.012 235.2 22.5369 235.2 23.3914C235.2 23.6567 235.262 23.8847 235.391 24.0765C235.52 24.2681 235.712 24.42 235.966 24.5373C236.47 24.771 237.225 24.8711 238.233 24.8711C241.313 24.8711 242.918 22.7709 243.231 21.396C243.231 21.396 243.231 21.3959 243.231 21.3958L245.859 10.159C245.859 10.159 245.859 10.159 245.859 10.159C245.93 9.85735 245.931 9.80249 245.931 9.74623C245.931 9.36889 245.65 9.06916 245.266 9.06916C244.965 9.06916 244.726 9.20286 244.554 9.42401C244.413 9.60616 244.318 9.8467 244.27 10.12C243.932 9.41541 243.269 8.59258 242.14 8.59258C240.828 8.59258 239.436 9.4642 238.375 10.7968C237.312 12.1308 236.573 13.9349 236.573 15.8163C236.573 17.1302 236.949 18.1146 237.521 18.7713C238.092 19.4281 238.858 19.7542 239.63 19.7542C240.271 19.7542 240.873 19.4853 241.366 19.1563C241.771 18.8856 242.106 18.5723 242.331 18.3286L241.855 20.3948L241.855 20.3953L241.842 20.446C241.683 21.1107 241.567 21.594 241.39 22.0176C241.209 22.45 240.964 22.8211 240.541 23.2562Z" fill="" stroke="#5F5B80" stroke-width="0.1"/>
<path d="M55.4297 10.6998H54.0667H54.0653C53.9553 10.6998 53.8624 10.6998 53.786 10.6953C53.7097 10.6909 53.6449 10.6819 53.5929 10.6615C53.5386 10.6402 53.4976 10.6063 53.4719 10.5545C53.4474 10.505 53.4389 10.4437 53.4389 10.3711C53.4389 10.1366 53.4963 9.99803 53.6295 9.92794C53.6923 9.89492 53.7673 9.87987 53.8501 9.87252C53.9325 9.8652 54.0274 9.8652 54.1316 9.8652H54.1333H55.5793C56.0857 6.58255 56.3084 5.66786 56.71 4.7779C57.159 3.77987 58.1064 2.95 59.0889 2.95C59.5871 2.95 60.0762 3.09832 60.442 3.38493C60.8088 3.67243 61.05 4.09821 61.05 4.64648C61.05 5.63543 60.3621 6.08965 59.8889 6.08965C59.6655 6.08965 59.4633 6.00906 59.317 5.85928C59.1706 5.70941 59.0833 5.49364 59.0833 5.22907C59.0833 5.00489 59.1524 4.70327 59.334 4.44367C59.5021 4.20342 59.7659 4.00042 60.1559 3.92862C59.9225 3.73475 59.5166 3.55661 59.1111 3.55661C58.8399 3.55661 58.5912 3.6933 58.3922 3.9079C58.1932 4.12251 58.0471 4.41192 57.9822 4.70785C57.8061 5.51078 57.4985 7.28711 57.081 9.8652H58.8222H58.8234C58.9225 9.8652 59.0097 9.8652 59.084 9.86923C59.1582 9.87326 59.2233 9.88145 59.277 9.89946C59.3318 9.91783 59.3774 9.94734 59.408 9.99501C59.4381 10.0417 59.45 10.0999 59.45 10.1685C59.45 10.4109 59.4062 10.5573 59.2813 10.6325C59.2218 10.6682 59.1492 10.6843 59.0672 10.692C58.9857 10.6998 58.8893 10.6998 58.7798 10.6998H58.7778H56.932C56.7912 11.6396 55.7316 18.1879 55.3379 20.1077M55.4297 10.6998L55.2889 20.098M55.4297 10.6998C55.3073 11.4224 55.1397 12.4427 54.9514 13.589C54.5165 16.2364 53.9712 19.5556 53.6175 21.4313L53.6174 21.4321C53.4282 22.5355 53.2511 23.5436 52.9836 24.2762C52.7146 25.0127 52.3645 25.4434 51.8444 25.4434C51.7814 25.4434 51.2207 25.4423 50.8353 25.0504M55.4297 10.6998L50.7738 25.0583M55.3379 20.1077C55.3379 20.1079 55.3379 20.108 55.3379 20.1081L55.2889 20.098M55.3379 20.1077C55.338 20.1077 55.338 20.1076 55.338 20.1075L55.2889 20.098M55.3379 20.1077C55.2157 20.7412 54.9205 22.221 54.3712 23.5431C54.0966 24.2042 53.7571 24.829 53.3416 25.2894C52.9258 25.7502 52.43 26.05 51.8444 26.05C51.4012 26.05 50.929 25.9077 50.5664 25.6246C50.2027 25.3406 49.95 24.9149 49.95 24.3535C49.95 23.3646 50.6379 22.9104 51.1111 22.9104C51.3345 22.9104 51.5367 22.9909 51.683 23.1407C51.8294 23.2906 51.9167 23.5064 51.9167 23.7709C51.9167 23.7861 51.9166 24.0801 51.7701 24.3847C51.6304 24.6749 51.3581 24.9733 50.8353 25.0504M55.2889 20.098C55.0444 21.3645 54.1111 26 51.8444 26C50.9778 26 50 25.4427 50 24.3535C50 23.391 50.6667 22.9604 51.1111 22.9604C51.5333 22.9604 51.8667 23.2643 51.8667 23.7709C51.8667 23.7958 51.8667 24.8709 50.7936 25.0056C50.8073 25.0211 50.8212 25.036 50.8353 25.0504M50.8353 25.0504C50.8152 25.0534 50.7947 25.056 50.7738 25.0583M50.7738 25.0583C50.7601 25.0434 50.7466 25.028 50.7333 25.0121L50.7738 25.0583ZM57.0729 9.9152H57.0222C57.0249 9.8985 57.0276 9.88183 57.0303 9.8652L57.0729 9.9152Z" fill="" stroke="#5F5B80" stroke-width="0.1"/>
<path d="M161.43 9.69978H160.067H160.065C159.955 9.69978 159.862 9.69978 159.786 9.69534C159.71 9.69092 159.645 9.6819 159.593 9.6615C159.539 9.64024 159.498 9.60634 159.472 9.55446C159.447 9.50504 159.439 9.44366 159.439 9.37115C159.439 9.13664 159.496 8.99803 159.629 8.92794C159.692 8.89492 159.767 8.87987 159.85 8.87252C159.933 8.8652 160.027 8.8652 160.132 8.8652H160.133H161.579C162.086 5.58261 162.308 4.6679 162.71 3.77794C163.159 2.77989 164.106 1.95 165.089 1.95C165.587 1.95 166.076 2.09832 166.442 2.38493C166.809 2.67243 167.05 3.09821 167.05 3.64648C167.05 4.63543 166.362 5.08965 165.889 5.08965C165.666 5.08965 165.463 5.00906 165.317 4.85928C165.171 4.70941 165.083 4.49364 165.083 4.22907C165.083 4.00489 165.152 3.70327 165.334 3.44367C165.502 3.20342 165.766 3.00042 166.156 2.92862C165.923 2.73475 165.517 2.55661 165.111 2.55661C164.84 2.55661 164.591 2.6933 164.392 2.9079C164.193 3.12251 164.047 3.41192 163.982 3.70785C163.806 4.51078 163.498 6.28711 163.081 8.8652H164.822H164.823C164.922 8.8652 165.01 8.8652 165.084 8.86923C165.158 8.87326 165.223 8.88145 165.277 8.89946C165.332 8.91783 165.377 8.94734 165.408 8.99501C165.438 9.04171 165.45 9.09994 165.45 9.1685C165.45 9.41089 165.406 9.55735 165.281 9.63246C165.222 9.66825 165.149 9.68425 165.067 9.69204C164.986 9.69978 164.889 9.69978 164.78 9.69978H164.778H162.932C162.791 10.6396 161.732 17.188 161.338 19.1078M161.43 9.69978L161.289 19.098M161.43 9.69978C161.307 10.4224 161.14 11.4427 160.951 12.5889C160.516 15.2364 159.971 18.5556 159.618 20.4313L159.617 20.4321C159.428 21.5355 159.251 22.5436 158.984 23.2762C158.715 24.0127 158.365 24.4434 157.844 24.4434C157.781 24.4434 157.221 24.4423 156.835 24.0504M161.43 9.69978L156.774 24.0583M161.338 19.1078C161.338 19.1079 161.338 19.108 161.338 19.1081L161.289 19.098M161.338 19.1078C161.338 19.1077 161.338 19.1076 161.338 19.1075L161.289 19.098M161.338 19.1078C161.216 19.7413 160.92 21.221 160.371 22.5431C160.097 23.2042 159.757 23.829 159.342 24.2894C158.926 24.7502 158.43 25.05 157.844 25.05C157.401 25.05 156.929 24.9077 156.566 24.6246C156.203 24.3406 155.95 23.9149 155.95 23.3535C155.95 22.3646 156.638 21.9104 157.111 21.9104C157.334 21.9104 157.537 21.9909 157.683 22.1407C157.829 22.2906 157.917 22.5064 157.917 22.7709C157.917 22.7861 157.917 23.0801 157.77 23.3847C157.63 23.6749 157.358 23.9733 156.835 24.0504M161.289 19.098C161.044 20.3645 160.111 25 157.844 25C156.978 25 156 24.4427 156 23.3535C156 22.391 156.667 21.9604 157.111 21.9604C157.533 21.9604 157.867 22.2643 157.867 22.7709C157.867 22.7958 157.867 23.8709 156.794 24.0056C156.807 24.0211 156.821 24.036 156.835 24.0504M156.835 24.0504C156.815 24.0534 156.795 24.056 156.774 24.0583M156.774 24.0583C156.76 24.0434 156.747 24.028 156.733 24.0121L156.774 24.0583ZM163.073 8.9152H163.022C163.025 8.8985 163.028 8.88183 163.03 8.8652L163.073 8.9152Z" fill="" stroke="#5F5B80" stroke-width="0.1"/>
</svg>
