<svg width="118" height="28" viewBox="0 0 118 28" fill="none" xmlns="http://www.w3.org/2000/svg">
<path d="M11.6855 3.11448L11.6854 3.11456L8.37238 17.6599L11.6855 3.11448ZM11.6855 3.11448C11.6899 3.09484 11.6955 3.07248 11.7015 3.04818C11.7255 2.95132 11.7572 2.82359 11.7572 2.71384C11.7572 2.64116 11.7407 2.58296 11.7122 2.53724C11.6837 2.49156 11.6452 2.46147 11.6063 2.44189C11.531 2.40408 11.4508 2.4041 11.4261 2.4041L11.4252 2.4041C11.4195 2.4041 11.3955 2.40608 11.3635 2.4088C11.3295 2.4117 11.282 2.41586 11.2254 2.42094C11.1123 2.4311 10.9624 2.4449 10.8095 2.45952C10.6567 2.47414 10.5008 2.48959 10.3757 2.50301C10.2572 2.51573 10.1623 2.52701 10.1261 2.53431C9.93424 2.54687 9.75318 2.56535 9.57095 2.58396L9.5492 2.58618C9.35825 2.60566 9.16532 2.62505 8.95497 2.63796L8.95497 2.63795L8.95363 2.63806C8.80722 2.65101 8.68463 2.66253 8.58416 2.68C8.48397 2.69743 8.4008 2.72151 8.33534 2.76232C8.19714 2.8485 8.15613 2.9966 8.15613 3.23332C8.15613 3.30383 8.16882 3.36278 8.1982 3.40993C8.22813 3.45795 8.27201 3.48838 8.32395 3.50751C8.37478 3.52624 8.43479 3.53474 8.50034 3.53891C8.56581 3.54306 8.64056 3.54306 8.72186 3.54306H8.72306C9.00949 3.54306 9.22398 3.55762 9.38455 3.58303C9.54554 3.60851 9.64924 3.64446 9.71631 3.68516C9.78169 3.72484 9.81278 3.76929 9.829 3.81621C9.8461 3.86571 9.84791 3.92108 9.84791 3.98657C9.84791 4.13557 9.80234 4.33812 9.77955 4.41369L9.77944 4.41366L9.77867 4.41706L8.38046 10.5741M11.6855 3.11448L8.38046 10.5741M8.38046 10.5741C8.08745 9.89868 7.44684 8.97553 6.27937 8.97553C4.92881 8.97553 3.5353 9.93818 2.48248 11.3726C1.42833 12.8088 0.707568 14.728 0.707568 16.6619C0.707568 19.2483 2.08163 20.7898 3.71819 20.7898C4.37897 20.7898 4.98846 20.5044 5.51323 20.1144C6.00202 19.7511 6.42044 19.2948 6.74257 18.8861C6.87636 19.6006 7.20362 20.0721 7.58827 20.3672C7.99169 20.6767 8.45508 20.7898 8.81705 20.7898C9.55016 20.7898 10.1276 20.3014 10.5544 19.3578L10.5548 19.3568C10.7444 18.9114 10.9214 18.2914 11.0508 17.7714C11.1156 17.511 11.1686 17.275 11.2054 17.0974C11.2239 17.0086 11.2383 16.9342 11.2481 16.8786C11.2575 16.8254 11.2638 16.7842 11.2638 16.7658C11.2638 16.6095 11.1486 16.482 10.9788 16.482C10.9212 16.482 10.8708 16.4908 10.8274 16.5145C10.7834 16.5386 10.7516 16.5753 10.7263 16.6218C10.7015 16.6675 10.682 16.7247 10.663 16.7925C10.6466 16.851 10.63 16.92 10.6109 16.9996C10.6077 17.0127 10.6045 17.0261 10.6012 17.0398L10.6011 17.0403C10.4248 17.807 10.226 18.5944 9.95235 19.1897C9.67681 19.7892 9.33642 20.1703 8.88754 20.1703C8.7258 20.1703 8.60568 20.1304 8.51528 20.066C8.42455 20.0013 8.35987 19.9092 8.314 19.7986C8.22135 19.5751 8.20913 19.2859 8.20913 19.0255V19.0254C8.20913 18.9229 8.20914 18.3818 8.37237 17.66L8.38046 10.5741ZM7.99609 12.2777L7.99514 12.2772L7.99288 12.2872L6.84173 17.3772C6.83421 17.4055 6.82719 17.4321 6.82055 17.4572C6.775 17.6297 6.74748 17.734 6.70044 17.8435C6.64667 17.9686 6.56688 18.1014 6.40265 18.3478C6.14594 18.7089 5.76147 19.1658 5.30525 19.532C4.84801 19.899 4.32441 20.1703 3.78868 20.1703C3.32701 20.1703 2.96634 19.9415 2.71854 19.5228C2.46933 19.1016 2.33488 18.4883 2.33488 17.7268C2.33488 17.0185 2.51585 15.9387 2.75363 14.897C2.99122 13.8563 3.28408 12.8597 3.50576 12.3178C3.90316 11.4135 4.37539 10.7315 4.85974 10.2762C5.34466 9.82045 5.8382 9.59501 6.27937 9.59501C7.02657 9.59501 7.47735 10.1065 7.74405 10.6577C7.8771 10.9327 7.96268 11.2146 8.01496 11.441C8.06751 11.6685 8.08564 11.8363 8.08564 11.8827C8.08564 11.8821 8.08562 11.882 8.08551 11.8828C8.0853 11.8842 8.08473 11.8887 8.08325 11.8976C8.08137 11.9089 8.07861 11.9239 8.07516 11.9418C8.06828 11.9774 8.05882 12.0233 8.04861 12.0701C8.03839 12.1168 8.0275 12.1642 8.01776 12.2029C8.00751 12.2436 7.99974 12.2696 7.99609 12.2777Z" fill="" stroke="#5F5B80" stroke-width="0.1"/>
<path d="M21.9007 1.97637L21.9031 1.96889V1.96461C21.9032 1.96436 21.9033 1.96408 21.9033 1.96377C21.9041 1.96059 21.9054 1.95591 21.9072 1.9496C21.9108 1.93707 21.9162 1.92008 21.9228 1.89968C21.9314 1.87293 21.9419 1.84124 21.953 1.8074C21.9589 1.78961 21.965 1.77122 21.9711 1.75264C21.9888 1.69905 22.0066 1.64409 22.02 1.59913C22.0267 1.57669 22.0325 1.55622 22.0366 1.53939C22.0403 1.52451 22.0441 1.50699 22.0441 1.49351C22.0441 1.15544 21.788 0.95 21.5712 0.95L21.5706 0.95C21.5096 0.949999 21.4129 0.949998 21.3083 1.03209C21.206 1.11234 21.1021 1.26607 21.0067 1.5558L21.0066 1.5561L13.1351 25.9977L13.1327 26.0051V26.0094C13.1327 26.0097 13.1326 26.01 13.1325 26.0103C13.1318 26.0134 13.1305 26.0181 13.1287 26.0244C13.125 26.037 13.1197 26.0539 13.1131 26.0743C13.1045 26.1011 13.094 26.1328 13.0828 26.1667C13.0769 26.1845 13.0708 26.2028 13.0647 26.2214C13.0471 26.275 13.0293 26.3299 13.0159 26.3749C13.0092 26.3973 13.0034 26.4178 12.9993 26.4346C12.9956 26.4495 12.9917 26.467 12.9917 26.4805C12.9917 26.8186 13.2479 27.024 13.4647 27.024C13.5396 27.024 13.6418 27.017 13.7461 26.9315C13.8481 26.8479 13.9459 26.6942 14.0294 26.4175C14.0294 26.4173 14.0295 26.4172 14.0295 26.417L21.9007 1.97637Z" fill="" stroke="#5F5B80" stroke-width="0.1"/>
<path d="M35.1442 3.11448L35.1442 3.11456L31.8311 17.6599L35.1442 3.11448ZM35.1442 3.11448C35.1486 3.09484 35.1542 3.07248 35.1602 3.04818C35.1842 2.95132 35.2159 2.82359 35.2159 2.71384C35.2159 2.64116 35.1994 2.58296 35.1709 2.53724C35.1424 2.49156 35.104 2.46147 35.065 2.44189C34.9898 2.40408 34.9096 2.4041 34.8848 2.4041L34.884 2.4041C34.8782 2.4041 34.8542 2.40608 34.8223 2.4088C34.7882 2.4117 34.7408 2.41586 34.6842 2.42094C34.571 2.4311 34.4211 2.4449 34.2683 2.45952C34.1155 2.47414 33.9596 2.48959 33.8345 2.50301C33.7159 2.51573 33.6211 2.52701 33.5848 2.53431C33.393 2.54687 33.2119 2.56535 33.0297 2.58396L33.0079 2.58618C32.817 2.60566 32.6241 2.62505 32.4137 2.63796L32.4137 2.63795L32.4124 2.63806C32.266 2.65101 32.1434 2.66253 32.0429 2.68C31.9427 2.69743 31.8595 2.72151 31.7941 2.76232C31.6559 2.8485 31.6149 2.9966 31.6149 3.23332C31.6149 3.30383 31.6276 3.36278 31.6569 3.40993C31.6869 3.45795 31.7308 3.48838 31.7827 3.50751C31.8335 3.52624 31.8935 3.53474 31.9591 3.53891C32.0246 3.54306 32.0993 3.54306 32.1806 3.54306H32.1818C32.4682 3.54306 32.6827 3.55762 32.8433 3.58303C33.0043 3.60851 33.108 3.64446 33.175 3.68516C33.2404 3.72484 33.2715 3.76929 33.2877 3.81621C33.3048 3.86571 33.3067 3.92108 33.3067 3.98657C33.3067 4.13557 33.2611 4.33812 33.2383 4.41369L33.2382 4.41366L33.2374 4.41706L31.8392 10.5741M35.1442 3.11448L31.8392 10.5741M31.8392 10.5741C31.5462 9.89868 30.9056 8.97553 29.7381 8.97553C28.3876 8.97553 26.994 9.93818 25.9412 11.3726C24.8871 12.8088 24.1663 14.728 24.1663 16.6619C24.1663 19.2483 25.5404 20.7898 27.1769 20.7898C27.8377 20.7898 28.4472 20.5044 28.972 20.1144C29.4608 19.7511 29.8792 19.2948 30.2013 18.8861C30.3351 19.6006 30.6624 20.0721 31.047 20.3672C31.4504 20.6767 31.9138 20.7898 32.2758 20.7898C33.0089 20.7898 33.5863 20.3014 34.0131 19.3578L34.0136 19.3568C34.2032 18.9114 34.3802 18.2914 34.5095 17.7714C34.5743 17.511 34.6273 17.275 34.6642 17.0974C34.6826 17.0086 34.697 16.9342 34.7069 16.8786C34.7163 16.8254 34.7225 16.7842 34.7225 16.7658C34.7225 16.6095 34.6073 16.482 34.4375 16.482C34.3799 16.482 34.3295 16.4908 34.2861 16.5145C34.2421 16.5386 34.2103 16.5753 34.185 16.6218C34.1602 16.6675 34.1407 16.7247 34.1217 16.7925C34.1054 16.851 34.0888 16.92 34.0696 16.9996C34.0665 17.0127 34.0633 17.0261 34.06 17.0398L34.0598 17.0403C33.8835 17.807 33.6847 18.5944 33.4111 19.1897C33.1355 19.7892 32.7952 20.1703 32.3463 20.1703C32.1845 20.1703 32.0644 20.1304 31.974 20.066C31.8833 20.0013 31.8186 19.9092 31.7727 19.7986C31.6801 19.5751 31.6679 19.2859 31.6679 19.0255V19.0254C31.6679 18.9229 31.6679 18.3818 31.8311 17.66L31.8392 10.5741ZM31.4548 12.2777L31.4539 12.2772L31.4516 12.2872L30.3005 17.3772C30.293 17.4055 30.2859 17.4321 30.2793 17.4572C30.2337 17.6297 30.2062 17.734 30.1592 17.8435C30.1054 17.9686 30.0256 18.1014 29.8614 18.3478C29.6047 18.7089 29.2202 19.1658 28.764 19.532C28.3068 19.899 27.7832 20.1703 27.2474 20.1703C26.7858 20.1703 26.4251 19.9415 26.1773 19.5228C25.9281 19.1016 25.7936 18.4883 25.7936 17.7268C25.7936 17.0185 25.9746 15.9387 26.2124 14.897C26.45 13.8563 26.7428 12.8597 26.9645 12.3178C27.3619 11.4135 27.8341 10.7315 28.3185 10.2762C28.8034 9.82045 29.2969 9.59501 29.7381 9.59501C30.4853 9.59501 30.9361 10.1065 31.2028 10.6577C31.3358 10.9327 31.4214 11.2146 31.4737 11.441C31.5263 11.6685 31.5444 11.8363 31.5444 11.8827C31.5444 11.8821 31.5444 11.882 31.5443 11.8828C31.544 11.8842 31.5435 11.8887 31.542 11.8976C31.5401 11.9089 31.5374 11.9239 31.5339 11.9418C31.527 11.9774 31.5176 12.0233 31.5073 12.0701C31.4971 12.1168 31.4862 12.1642 31.4765 12.2029C31.4662 12.2436 31.4585 12.2696 31.4548 12.2777Z" fill="" stroke="#5F5B80" stroke-width="0.1"/>
<path d="M46.2424 9.86272C45.5482 10.0622 45.285 10.6716 45.285 11.1558C45.285 11.4806 45.4019 11.7029 45.5669 11.8432C45.7304 11.9822 45.9364 12.0369 46.1104 12.0369C46.8515 12.0369 47.3587 11.3297 47.3587 10.6103C47.3587 10.0445 47.0651 9.63391 46.6484 9.3669C46.2333 9.10088 45.6947 8.97588 45.194 8.97588C44.4576 8.97588 43.8871 9.37645 43.4767 9.83338C43.1258 10.2242 42.8883 10.66 42.7601 10.9339C42.4791 10.0314 41.9949 9.54149 41.5204 9.27764C41.0252 9.00225 40.5455 8.97588 40.3301 8.97588C39.1063 8.97588 38.1768 9.84421 37.557 10.7708C37.2463 11.2353 37.0112 11.7175 36.8537 12.1197C36.7749 12.3208 36.7154 12.5024 36.6754 12.6522C36.6358 12.8008 36.6146 12.9217 36.6146 12.9999C36.6146 13.1299 36.7295 13.2837 36.923 13.2837C37.0341 13.2837 37.1066 13.2363 37.1561 13.1738C37.1938 13.1262 37.2188 13.068 37.2382 13.0227C37.2426 13.0126 37.2467 13.0031 37.2505 12.9945L37.2511 12.9948L37.2532 12.9873C38.0475 10.1209 39.6054 9.59536 40.2596 9.59536C40.7664 9.59536 41.0683 9.85468 41.2463 10.1921C41.426 10.5326 41.4784 10.952 41.4784 11.2596C41.4784 11.801 41.3505 12.3664 41.0906 13.5144C41.0796 13.5632 41.0683 13.6132 41.0567 13.6642L41.0567 13.6643L40.2578 17.2226C40.0822 17.9993 39.8254 18.7392 39.4603 19.2837C39.0957 19.8276 38.6275 20.1707 38.0274 20.1707C37.9184 20.1707 37.4111 20.1702 36.9537 19.9028C37.3254 19.7926 37.5616 19.5637 37.7061 19.3209C37.864 19.0558 37.9129 18.774 37.9129 18.6103C37.9129 18.3388 37.8206 18.1177 37.6661 17.9644C37.5119 17.8113 37.299 17.7291 37.064 17.7291C36.4691 17.7291 35.8392 18.3005 35.8392 19.1557C35.8392 19.7211 36.1265 20.1318 36.5405 20.3991C36.9529 20.6652 37.4916 20.7902 38.0039 20.7902C39.119 20.7902 39.9117 19.8533 40.4107 18.8327C40.8268 20.2888 41.9814 20.7902 42.8443 20.7902C44.0681 20.7902 44.9976 19.9218 45.6174 18.9952C45.9281 18.5308 46.1632 18.0486 46.3207 17.6464C46.3994 17.4453 46.459 17.2637 46.4989 17.1138C46.5386 16.9652 46.5598 16.8443 46.5598 16.7661C46.5598 16.6099 46.4447 16.4824 46.2748 16.4824C46.217 16.4824 46.1682 16.4912 46.1267 16.5106C46.0846 16.5303 46.0532 16.5593 46.0284 16.5945C46.0041 16.629 45.9862 16.6694 45.9703 16.7122C45.9597 16.7405 45.9493 16.772 45.9384 16.8048C45.9331 16.8209 45.9277 16.8374 45.922 16.854L45.922 16.8539L45.9212 16.8567C45.2895 19.1326 43.9394 20.1707 42.9148 20.1707C42.5192 20.1707 42.2175 20.0093 42.0127 19.721C41.8064 19.4304 41.6959 19.0069 41.6959 18.4804C41.6959 17.9271 41.7845 17.5232 42.1424 15.8915L42.1646 15.7905L42.1647 15.7898L42.987 12.258L42.987 12.2577C43.1622 11.4831 43.4476 10.8154 43.8205 10.3426C44.193 9.87013 44.6498 9.59536 45.1705 9.59536C45.2143 9.59536 45.7776 9.59602 46.2424 9.86272Z" fill="" stroke="#5F5B80" stroke-width="0.1"/>
<path d="M52.1134 22.2149L52.1135 22.2151C52.8088 23.7783 53.6397 24.9836 54.3298 25.7985C54.6748 26.206 54.9849 26.5163 55.2258 26.7253C55.3462 26.8297 55.45 26.9093 55.5326 26.9632C55.5739 26.9902 55.6108 27.0112 55.6425 27.0257C55.6727 27.0396 55.7034 27.05 55.7308 27.05C55.7859 27.05 55.8506 27.0349 55.9027 26.9938C55.9567 26.9512 55.9922 26.8843 55.9922 26.7922V26.791C55.9922 26.7717 55.9922 26.7482 55.9842 26.7189C55.9762 26.6896 55.9609 26.6573 55.9344 26.6159C55.882 26.534 55.7795 26.4079 55.5799 26.1873C53.2416 23.5766 51.9272 19.3049 51.9272 14.013C51.9272 8.98082 53.0301 4.6578 55.7436 1.60579C55.8607 1.48925 55.9235 1.41399 55.9564 1.35578C55.9734 1.32564 55.9829 1.29939 55.9877 1.27387C55.9922 1.24976 55.9922 1.22789 55.9922 1.20926V1.20779C55.9922 1.11571 55.9567 1.04884 55.9027 1.00621C55.8506 0.965076 55.7859 0.95 55.7308 0.95C55.7008 0.95 55.6674 0.960927 55.6342 0.976188C55.5998 0.991978 55.5605 1.01482 55.5172 1.04373C55.4303 1.10159 55.3236 1.18623 55.2019 1.29464C54.9582 1.51163 54.6511 1.82673 54.318 2.22098C53.6519 3.00944 52.8796 4.11718 52.3017 5.3949C51.0999 8.02576 50.5584 10.8122 50.5584 14.013C50.5584 16.3285 50.8878 19.427 52.1134 22.2149Z" fill="" stroke="#5F5B80" stroke-width="0.1"/>
<path d="M72.2761 5.78518L72.276 5.78488C71.5807 4.22173 70.7498 3.01644 70.0597 2.20146C69.7147 1.79401 69.4045 1.48367 69.1636 1.27473C69.0433 1.17034 68.9395 1.09066 68.8569 1.03675C68.8156 1.00983 68.7787 0.988773 68.747 0.974266C68.7168 0.960423 68.6861 0.95 68.6587 0.95C68.6036 0.95 68.5389 0.965076 68.4868 1.00621C68.4328 1.04884 68.3973 1.11571 68.3973 1.20779C68.3973 1.20818 68.3973 1.20857 68.3973 1.20896C68.3973 1.22833 68.3973 1.25184 68.4053 1.2811C68.4133 1.31039 68.4286 1.34272 68.4551 1.38412C68.5075 1.46596 68.61 1.59211 68.8096 1.81267C71.1479 4.42343 72.4623 8.69508 72.4623 13.987C72.4623 19.0192 71.3594 23.3422 68.6459 26.3942C68.5288 26.5108 68.466 26.586 68.4331 26.6442C68.4161 26.6744 68.4066 26.7006 68.4018 26.7261C68.3973 26.7502 68.3973 26.7721 68.3973 26.7907L68.3973 26.7922C68.3973 26.8843 68.4328 26.9512 68.4868 26.9938C68.5389 27.0349 68.6036 27.05 68.6587 27.05C68.6887 27.05 68.7221 27.0391 68.7553 27.0238C68.7897 27.008 68.829 26.9852 68.8723 26.9563C68.9591 26.8984 69.0659 26.8138 69.1876 26.7054C69.4313 26.4884 69.7384 26.1733 70.0715 25.779C70.7376 24.9905 71.5099 23.8828 72.0879 22.605C73.2895 19.9483 73.8311 17.1359 73.8311 14.013C73.8311 12.036 73.5959 8.80727 72.2761 5.78518Z" fill="" stroke="#5F5B80" stroke-width="0.1"/>
<path d="M98.4889 12.1155L98.4942 12.1155C98.655 12.1155 98.8509 12.1156 99.0067 12.0535C99.087 12.0216 99.1592 11.9723 99.2109 11.8964C99.2625 11.8206 99.2908 11.7225 99.2908 11.598C99.2908 11.468 99.2645 11.3657 99.2154 11.2864C99.166 11.2067 99.0963 11.1543 99.0167 11.1202C98.8633 11.0545 98.6668 11.0545 98.4952 11.0545L98.4889 11.0545H84.6491L84.6438 11.0545C84.483 11.0545 84.2871 11.0545 84.1313 11.1165C84.051 11.1485 83.9788 11.1977 83.9271 11.2736C83.8755 11.3494 83.8472 11.4475 83.8472 11.572C83.8472 11.702 83.8735 11.8044 83.9226 11.8836C83.972 11.9633 84.0417 12.0157 84.1213 12.0498C84.2747 12.1156 84.4712 12.1155 84.6428 12.1155L84.6491 12.1155H98.4889ZM98.4889 16.9467H98.4942C98.655 16.9467 98.8509 16.9467 99.0067 16.8847C99.087 16.8527 99.1592 16.8035 99.2109 16.7276C99.2625 16.6518 99.2908 16.5537 99.2908 16.4292C99.2908 16.2992 99.2645 16.1968 99.2154 16.1175C99.166 16.0378 99.0963 15.9855 99.0167 15.9514C98.8633 15.8856 98.6668 15.8857 98.4952 15.8857H98.4889H84.6491H84.6438C84.483 15.8857 84.2871 15.8856 84.1313 15.9476C84.051 15.9796 83.9788 16.0289 83.9271 16.1048C83.8755 16.1806 83.8472 16.2787 83.8472 16.4032C83.8472 16.5332 83.8735 16.6355 83.9226 16.7148C83.972 16.7945 84.0417 16.8469 84.1213 16.881C84.2747 16.9467 84.4712 16.9467 84.6428 16.9467H84.6491H98.4889Z" fill="" stroke="#5F5B80" stroke-width="0.1"/>
<path d="M116.66 5.91583L116.659 5.91513C115.687 3.73881 113.975 3.15825 112.807 3.15825C111.425 3.15825 109.738 3.923 108.86 6.09864L108.86 6.09869C108.199 7.74349 107.964 9.36111 107.964 12.1693C107.964 14.6903 108.128 16.5955 108.979 18.4499L108.979 18.4501C109.904 20.4438 111.545 21.0764 112.784 21.0764C114.856 21.0764 116.044 19.7049 116.73 18.1899L116.73 18.1892C117.581 16.2303 117.627 13.6747 117.627 12.1693C117.627 10.0126 117.51 7.89985 116.66 5.91583ZM110.107 17.2005L110.107 17.2001C109.85 15.6465 109.849 13.6771 109.849 11.8576C109.849 9.72566 109.85 7.81042 110.224 6.2851L110.224 6.2851L110.224 6.28437C110.619 4.56262 111.801 3.77773 112.784 3.77773C113.219 3.77773 113.771 3.92356 114.27 4.34388C114.768 4.76389 115.215 5.46083 115.437 6.5687L115.437 6.56901C115.741 8.04342 115.741 10.0895 115.741 11.8576C115.741 13.599 115.741 15.5687 115.483 17.1483L115.483 17.1486C115.261 18.5694 114.783 19.3953 114.265 19.8661C113.748 20.3366 113.185 20.457 112.784 20.457C112.418 20.457 111.86 20.3431 111.339 19.8819C110.819 19.4207 110.329 18.6078 110.107 17.2005Z" fill="" stroke="#5F5B80" stroke-width="0.1"/>
<path d="M66.4215 17.9089L66.4211 17.9085L66.4169 17.9141C64.8172 20.0289 62.4415 20.4025 61.4925 20.4025C60.6402 20.4025 60.0824 20.035 59.7355 19.5155C59.3868 18.9934 59.2493 18.3144 59.2493 17.6935C59.2493 17.26 59.3555 16.4365 59.5756 15.5072C59.7955 14.5785 60.1281 13.5485 60.5788 12.7009C60.9036 12.1168 61.4033 11.489 62.0178 11.0077C62.6326 10.5262 63.3591 10.1937 64.1384 10.1937C64.3001 10.1937 64.7224 10.2062 65.1655 10.3512C65.5879 10.4893 66.0241 10.7461 66.2753 11.2225C66.0761 11.2229 65.9161 11.2267 65.7681 11.2614C65.5981 11.3012 65.4463 11.3809 65.2654 11.5352C65.1841 11.6026 65.0734 11.7332 64.9829 11.8973C64.8921 12.0619 64.8192 12.2646 64.8192 12.4764C64.8192 12.7406 64.9192 12.9551 65.0847 13.1031C65.2496 13.2505 65.4763 13.329 65.726 13.329C66.3593 13.329 67.0611 12.804 67.0611 11.7741C67.0611 10.5303 65.8656 9.59209 64.1132 9.59209C62.4449 9.59209 60.7819 10.4978 59.5374 11.8468C58.2928 13.196 57.461 14.9947 57.461 16.7905C57.461 17.8916 57.8043 18.9446 58.4748 19.7233C59.1461 20.5028 60.1429 21.0042 61.4421 21.0042C63.1689 21.0042 64.5775 20.3343 65.5538 19.6245C66.0419 19.2695 66.4227 18.9041 66.6819 18.6061C66.8114 18.4572 66.9111 18.3246 66.9787 18.218C67.0125 18.1648 67.0388 18.1173 67.0568 18.077C67.0741 18.0383 67.0863 18.0008 67.0863 17.9694C67.0863 17.8773 67.0404 17.7963 66.9834 17.7396C66.9275 17.6839 66.8526 17.6435 66.7843 17.6435C66.7625 17.6435 66.7404 17.6453 66.7164 17.6538C66.6929 17.6622 66.6708 17.6758 66.6464 17.6948C66.6 17.7312 66.5353 17.7955 66.426 17.9043L66.4215 17.9089Z" fill="" stroke="#5F5B80" stroke-width="0.1"/>
</svg>
