<svg width="140" height="123" viewBox="0 0 140 123" fill="none" xmlns="http://www.w3.org/2000/svg">
<path d="M138.787 33.2822L70.0696 63.3757L69.0782 121.635L137.796 91.5419L138.787 33.2822Z" fill="url(#paint0_linear_1683_2110)" fill-opacity="0.03"/>
<path fill-rule="evenodd" clip-rule="evenodd" d="M69.9737 69.0138L70.0057 67.1344L138.723 37.0409L138.691 38.9203L69.9737 69.0138ZM69.9417 70.8931L138.659 40.7996L138.627 42.6789L69.9097 72.7724L69.9417 70.8931ZM138.563 46.4376L138.595 44.5583L69.8777 74.6518L69.8458 76.5311L138.563 46.4376ZM138.531 48.317L138.499 50.1963L69.7818 80.2898L69.8138 78.4105L138.531 48.317ZM138.435 53.955L138.467 52.0757L69.7498 82.1692L69.7178 84.0485L138.435 53.955ZM138.403 55.8343L138.371 57.7137L69.6539 87.8072L69.6859 85.9279L138.403 55.8343ZM138.307 61.4724L138.339 59.593L69.6219 89.6865L69.5899 91.5659L138.307 61.4724ZM138.275 63.3517L138.243 65.2311L69.526 95.3246L69.5579 93.4452L138.275 63.3517ZM138.179 68.9898L138.211 67.1104L69.494 97.2039L69.462 99.0833L138.179 68.9898ZM138.148 70.8691L138.116 72.7484L69.398 102.842L69.43 100.963L138.148 70.8691ZM138.052 76.5071L138.084 74.6278L69.3661 104.721L69.3341 106.601L138.052 76.5071ZM138.02 78.3865L137.988 80.2658L69.2701 110.359L69.3021 108.48L138.02 78.3865ZM137.924 84.0245L137.956 82.1452L69.2381 112.239L69.2062 114.118L137.924 84.0245ZM137.892 85.9038L137.86 87.7832L69.1422 117.877L69.1742 115.997L137.892 85.9038ZM137.796 91.5419L137.828 89.6625L69.1102 119.756L69.0782 121.635L137.796 91.5419ZM70.0696 63.3757L70.0376 65.2551L138.755 35.1616L138.787 33.2822L70.0696 63.3757Z" fill="url(#paint1_linear_1683_2110)" fill-opacity="0.03"/>
<path d="M70.0689 63.3756L2.4067 31.4508L1.41532 89.7104L69.0775 121.635L70.0689 63.3756Z" fill="url(#paint2_linear_1683_2110)" fill-opacity="0.03"/>
<path fill-rule="evenodd" clip-rule="evenodd" d="M2.31076 37.0888L2.34274 35.2094L70.0049 67.1342L69.9729 69.0136L2.31076 37.0888ZM2.27878 38.9681L69.9409 70.8929L69.909 72.7723L2.2468 40.8475L2.27878 38.9681ZM69.845 76.531L69.877 74.6516L2.21482 42.7268L2.18284 44.6062L69.845 76.531ZM69.813 78.4103L69.781 80.2896L2.11888 48.3648L2.15086 46.4855L69.813 78.4103ZM69.7171 84.0483L69.7491 82.169L2.0869 50.2442L2.05492 52.1235L69.7171 84.0483ZM69.6851 85.9277L69.6531 87.807L1.99096 55.8822L2.02294 54.0029L69.6851 85.9277ZM69.5892 91.5657L69.6211 89.6864L1.95898 57.7616L1.927 59.6409L69.5892 91.5657ZM69.5572 93.445L69.5252 95.3244L1.86304 63.3996L1.89502 61.5202L69.5572 93.445ZM69.4612 99.0831L69.4932 97.2037L1.83106 65.2789L1.79908 67.1583L69.4612 99.0831ZM69.4293 100.962L69.3973 102.842L1.73512 70.917L1.7671 69.0376L69.4293 100.962ZM69.3333 106.6L69.3653 104.721L1.70314 72.7963L1.67116 74.6756L69.3333 106.6ZM69.3013 108.48L69.2694 110.359L1.6072 78.4343L1.63918 76.555L69.3013 108.48ZM69.2054 114.118L69.2374 112.238L1.57522 80.3137L1.54324 82.193L69.2054 114.118ZM69.1734 115.997L69.1414 117.877L1.47928 85.9517L1.51126 84.0724L69.1734 115.997ZM69.0775 121.635L69.1095 119.756L1.4473 87.8311L1.41532 89.7104L69.0775 121.635ZM2.4067 31.4508L2.37472 33.3301L70.0369 65.2549L70.0689 63.3756L2.4067 31.4508Z" fill="url(#paint3_linear_1683_2110)" fill-opacity="0.03"/>
<path d="M137.793 91.542L70.1308 59.6172L71.1222 1.35752L138.784 33.2823L137.793 91.542Z" fill="url(#paint4_linear_1683_2110)" fill-opacity="0.03"/>
<path fill-rule="evenodd" clip-rule="evenodd" d="M70.2268 53.9791L70.1948 55.8585L137.857 87.7833L137.889 85.904L70.2268 53.9791ZM70.2587 52.0998L137.921 84.0246L137.953 82.1453L70.2907 50.2205L70.2587 52.0998ZM138.017 78.3866L137.985 80.2659L70.3227 48.3411L70.3547 46.4618L138.017 78.3866ZM138.049 76.5072L138.081 74.6279L70.4186 42.7031L70.3867 44.5824L138.049 76.5072ZM138.145 70.8692L138.113 72.7486L70.4506 40.8237L70.4826 38.9444L138.145 70.8692ZM138.177 68.9899L138.209 67.1105L70.5466 35.1857L70.5146 37.065L138.177 68.9899ZM138.273 63.3518L138.241 65.2312L70.5785 33.3064L70.6105 31.427L138.273 63.3518ZM138.305 61.4725L138.337 59.5932L70.6745 27.6683L70.6425 29.5477L138.305 61.4725ZM138.401 55.8345L138.369 57.7138L70.7065 25.789L70.7384 23.9096L138.401 55.8345ZM138.433 53.9551L138.465 52.0758L70.8024 20.151L70.7704 22.0303L138.433 53.9551ZM138.529 48.3171L138.497 50.1964L70.8344 18.2716L70.8664 16.3923L138.529 48.3171ZM138.56 46.4377L138.592 44.5584L70.9303 12.6336L70.8983 14.5129L138.56 46.4377ZM138.656 40.7997L138.624 42.6791L70.9623 10.7542L70.9943 8.8749L138.656 40.7997ZM138.688 38.9204L138.72 37.041L71.0582 5.11621L71.0263 6.99555L138.688 38.9204ZM138.784 33.2823L138.752 35.1617L71.0902 3.23686L71.1222 1.35752L138.784 33.2823ZM70.1308 59.6172L70.1628 57.7378L137.825 89.6626L137.793 91.542L70.1308 59.6172Z" fill="url(#paint5_linear_1683_2110)" fill-opacity="0.03"/>
<path d="M70.1304 59.6166L1.41287 89.7101L2.40425 31.4504L71.1217 1.35699L70.1304 59.6166Z" fill="url(#paint6_linear_1683_2110)" fill-opacity="0.03"/>
<path fill-rule="evenodd" clip-rule="evenodd" d="M1.50881 84.0721L1.47683 85.9514L70.1943 55.8579L70.2263 53.9786L1.50881 84.0721ZM1.54079 82.1927L70.2583 52.0993L70.2903 50.2199L1.57277 80.3134L1.54079 82.1927ZM70.3542 46.4612L70.3222 48.3406L1.60475 78.4341L1.63673 76.5547L70.3542 46.4612ZM70.3862 44.5819L70.4182 42.7025L1.70069 72.796L1.66871 74.6754L70.3862 44.5819ZM70.4821 38.9439L70.4502 40.8232L1.73267 70.9167L1.76465 69.0373L70.4821 38.9439ZM70.5141 37.0645L70.5461 35.1852L1.82861 65.2786L1.79663 67.158L70.5141 37.0645ZM70.6101 31.4265L70.5781 33.3058L1.86059 63.3993L1.89257 61.52L70.6101 31.4265ZM70.642 29.5471L70.674 27.6678L1.95653 57.7613L1.92455 59.6406L70.642 29.5471ZM70.738 23.9091L70.706 25.7885L1.98851 55.8819L2.02049 54.0026L70.738 23.9091ZM70.77 22.0298L70.8019 20.1504L2.08445 50.2439L2.05247 52.1232L70.77 22.0298ZM70.8659 16.3917L70.8339 18.2711L2.11643 48.3646L2.14841 46.4852L70.8659 16.3917ZM70.8979 14.5124L70.9299 12.6331L2.21237 42.7265L2.18039 44.6059L70.8979 14.5124ZM70.9938 8.87437L70.9618 10.7537L2.24435 40.8472L2.27633 38.9678L70.9938 8.87437ZM71.0258 6.99502L71.0578 5.11568L2.34029 35.2092L2.30831 37.0885L71.0258 6.99502ZM71.1217 1.35699L71.0898 3.23634L2.37227 33.3298L2.40425 31.4504L71.1217 1.35699ZM1.41287 89.7101L1.44485 87.8308L70.1623 57.7373L70.1304 59.6166L1.41287 89.7101Z" fill="url(#paint7_linear_1683_2110)" fill-opacity="0.03"/>
<defs>
<linearGradient id="paint0_linear_1683_2110" x1="104.429" y1="48.2862" x2="125.668" y2="96.9227" gradientUnits="userSpaceOnUse">
<stop stop-color="#353535"/>
<stop offset="1" stop-color="white"/>
</linearGradient>
<linearGradient id="paint1_linear_1683_2110" x1="81.6664" y1="49.9031" x2="128.336" y2="110.045" gradientUnits="userSpaceOnUse">
<stop stop-color="#181818"/>
<stop offset="1" stop-color="#181818" stop-opacity="0"/>
</linearGradient>
<linearGradient id="paint2_linear_1683_2110" x1="64.1353" y1="60.4763" x2="36.5527" y2="103.263" gradientUnits="userSpaceOnUse">
<stop stop-color="#5F5C5B"/>
<stop offset="1" stop-color="white"/>
</linearGradient>
<linearGradient id="paint3_linear_1683_2110" x1="68.9445" y1="59.131" x2="19.2644" y2="106.15" gradientUnits="userSpaceOnUse">
<stop stop-color="#181818"/>
<stop offset="1" stop-color="#181818" stop-opacity="0"/>
</linearGradient>
<linearGradient id="paint4_linear_1683_2110" x1="122.228" y1="85.4267" x2="137.815" y2="11.1342" gradientUnits="userSpaceOnUse">
<stop stop-color="white"/>
<stop offset="1" stop-color="#5F5F5F"/>
</linearGradient>
<linearGradient id="paint5_linear_1683_2110" x1="121.356" y1="82.5191" x2="136.69" y2="25.8667" gradientUnits="userSpaceOnUse">
<stop stop-color="#282828"/>
<stop offset="1" stop-color="#181818"/>
</linearGradient>
<linearGradient id="paint6_linear_1683_2110" x1="59.0518" y1="60.6871" x2="5.06872" y2="44.8938" gradientUnits="userSpaceOnUse">
<stop stop-color="white"/>
<stop offset="1" stop-color="#4E4E4E"/>
</linearGradient>
<linearGradient id="paint7_linear_1683_2110" x1="62.7747" y1="58.5652" x2="-11.8834" y2="50.3118" gradientUnits="userSpaceOnUse">
<stop stop-color="#1C1C1C"/>
<stop offset="1" stop-color="#181818"/>
</linearGradient>
</defs>
</svg>
