<svg width="336" height="28" viewBox="0 0 336 28" fill="none" xmlns="http://www.w3.org/2000/svg">
<path d="M11.7569 3.93527L11.7569 3.93519C11.7614 3.91637 11.7669 3.89489 11.773 3.87151C11.7972 3.77797 11.8293 3.65398 11.8293 3.54746C11.8293 3.47661 11.8125 3.41977 11.7835 3.37519C11.7546 3.33076 11.7157 3.30173 11.6767 3.28294C11.6012 3.24661 11.5209 3.24663 11.496 3.24663L11.4951 3.24663C11.4895 3.24663 11.4655 3.24852 11.4332 3.25116L11.294 3.26288C11.18 3.27269 11.0289 3.28602 10.8749 3.30014C10.7209 3.31426 10.5639 3.32917 10.4378 3.34213C10.318 3.35444 10.2225 3.36534 10.1863 3.37236C9.99291 3.38448 9.81044 3.40233 9.62673 3.42031L9.60483 3.42245C9.41242 3.44127 9.21794 3.45999 9.00591 3.47247L9.00591 3.47245L9.00462 3.47256C8.85706 3.48506 8.73363 3.49618 8.63249 3.51304C8.53168 3.52983 8.44811 3.55303 8.38234 3.59233C8.31458 3.63282 8.26804 3.68898 8.2394 3.76596C8.21153 3.84088 8.20112 3.93411 8.20112 4.04912C8.20112 4.11773 8.21403 4.17533 8.24398 4.22139C8.27438 4.26814 8.31869 4.29741 8.37062 4.31575C8.42158 4.33374 8.48181 4.34193 8.54777 4.34594C8.61366 4.34995 8.68892 4.34995 8.7709 4.34995H8.77206C9.06077 4.34995 9.27707 4.36401 9.43904 4.38858C9.60147 4.41321 9.70622 4.44799 9.774 4.4874C9.84009 4.52584 9.87107 4.56864 9.88714 4.61321C9.90415 4.66039 9.90601 4.71327 9.90601 4.77653C9.90601 4.91989 9.8602 5.1151 9.83728 5.18793L9.83715 5.18789L9.83632 5.19141L8.42697 11.1386C8.13168 10.4852 7.4858 9.59264 6.30944 9.59264C4.94955 9.59264 3.54542 10.5217 2.48406 11.9073C1.42158 13.2945 0.694873 15.1485 0.694873 17.017C0.694873 19.5174 2.08121 21.0051 3.72843 21.0051C4.39359 21.0051 5.00744 20.7297 5.53632 20.3531C6.02956 20.0018 6.45173 19.5604 6.77659 19.1652C6.91155 19.8564 7.24182 20.3121 7.62953 20.5972C8.03595 20.896 8.50255 21.0051 8.86677 21.0051C9.60417 21.0051 10.1863 20.5342 10.6169 19.6219L10.6174 19.6209C10.8085 19.1906 10.9869 18.5916 11.1173 18.0894C11.1826 17.8379 11.236 17.6099 11.2732 17.4384C11.2917 17.3526 11.3063 17.2807 11.3162 17.227C11.3212 17.2001 11.325 17.1775 11.3277 17.1598C11.3301 17.1432 11.332 17.1279 11.332 17.1174C11.332 16.9636 11.2141 16.8416 11.0452 16.8416C10.9875 16.8416 10.9371 16.8501 10.8937 16.8728C10.8495 16.896 10.8173 16.9314 10.7916 16.9767C10.7665 17.0211 10.7467 17.0766 10.7275 17.1422C10.711 17.1987 10.6943 17.2654 10.675 17.3424C10.6718 17.355 10.6686 17.3679 10.6652 17.3811L10.6651 17.3816C10.4874 18.1221 10.2872 18.8821 10.0116 19.4567C9.73437 20.0346 9.39153 20.4034 8.93781 20.4034C8.77431 20.4034 8.65288 20.3647 8.56161 20.3024C8.47017 20.2399 8.4052 20.1512 8.35916 20.0448C8.26609 19.8297 8.25376 19.551 8.25376 19.2996V19.2994C8.25376 19.2006 8.25376 18.6783 8.41818 17.9817L11.7569 3.93527ZM8.04015 12.7818L8.03914 12.7813L8.0367 12.7916L6.87666 17.7069C6.86908 17.7342 6.86201 17.7599 6.85532 17.7842C6.80941 17.9508 6.78174 18.0512 6.73444 18.1567C6.68036 18.2773 6.60007 18.4054 6.43458 18.6433C6.17596 18.9919 5.78856 19.4331 5.32883 19.7867C4.86816 20.141 4.34015 20.4034 3.79946 20.4034C3.33303 20.4034 2.96952 20.1818 2.72021 19.7781C2.46941 19.372 2.33401 18.7804 2.33401 18.0454C2.33401 17.3619 2.5163 16.3195 2.75591 15.3136C2.99531 14.3086 3.29039 13.3464 3.51369 12.8233C3.91403 11.9504 4.38975 11.292 4.87776 10.8524C5.36629 10.4124 5.86399 10.1943 6.30944 10.1943C7.06378 10.1943 7.51791 10.689 7.78618 11.2203C7.92015 11.4856 8.00631 11.7577 8.05896 11.9761C8.11189 12.1957 8.13008 12.3574 8.13008 12.4018C8.13008 12.4007 8.13006 12.4009 8.12979 12.4027C8.1295 12.4047 8.12891 12.4088 8.12773 12.4156C8.12584 12.4264 8.12307 12.4409 8.1196 12.4581C8.11266 12.4925 8.10314 12.5368 8.09285 12.5819C8.08256 12.6271 8.0716 12.6727 8.0618 12.71C8.05144 12.7494 8.04369 12.7743 8.04015 12.7818Z" fill="black" stroke="#5F5B80" stroke-width="0.1"/>
<path d="M22.0513 2.83584L22.0539 2.82809V2.8238C22.0539 2.82369 22.054 2.82356 22.054 2.82344C22.0547 2.82044 22.056 2.81598 22.0578 2.80991C22.0615 2.79786 22.0669 2.78148 22.0735 2.76179C22.0822 2.73597 22.0927 2.70541 22.104 2.67274C22.1099 2.65555 22.1161 2.63778 22.1222 2.61981C22.14 2.56806 22.158 2.51495 22.1715 2.47149C22.1783 2.4498 22.1841 2.42996 22.1883 2.41363C22.192 2.39933 22.196 2.38199 22.196 2.36842C22.196 2.03904 21.936 1.84185 21.7197 1.84185L21.7191 1.84185C21.6578 1.84184 21.561 1.84184 21.4559 1.92086C21.3527 1.99844 21.2477 2.14722 21.1515 2.42744L21.1514 2.42774L13.2189 26.0309L13.2163 26.0386V26.0429C13.2163 26.043 13.2163 26.0431 13.2163 26.0433C13.2155 26.0463 13.2142 26.0507 13.2124 26.0568C13.2087 26.0688 13.2034 26.0852 13.1968 26.1049C13.1881 26.1307 13.1775 26.1613 13.1662 26.194C13.1603 26.2112 13.1542 26.2289 13.148 26.2469C13.1302 26.2986 13.1123 26.3518 13.0987 26.3952C13.092 26.4169 13.0861 26.4367 13.0819 26.4531C13.0783 26.4674 13.0743 26.4847 13.0743 26.4983C13.0743 26.8277 13.3342 27.0249 13.5505 27.0249C13.6256 27.0249 13.7281 27.0182 13.833 26.9358C13.9359 26.8549 14.0347 26.7062 14.119 26.4385C14.119 26.4383 14.1191 26.4382 14.1191 26.438L22.0513 2.83584Z" fill="black" stroke="#5F5B80" stroke-width="0.1"/>
<path d="M35.397 3.93503L35.3971 3.93495C35.4015 3.91612 35.4071 3.89464 35.4131 3.87126C35.4373 3.77773 35.4694 3.65373 35.4694 3.54722C35.4694 3.47637 35.4526 3.41953 35.4236 3.37495C35.3947 3.33051 35.3558 3.30149 35.3168 3.28269C35.2414 3.24637 35.161 3.24638 35.1361 3.24639L35.1353 3.24639C35.1296 3.24639 35.1056 3.24828 35.0733 3.25091L34.9342 3.26264C34.8201 3.27245 34.6691 3.28578 34.5151 3.2999C34.3611 3.31401 34.204 3.32893 34.0779 3.34189C33.9582 3.3542 33.8626 3.3651 33.8264 3.37211C33.633 3.38424 33.4506 3.40209 33.2669 3.42006L33.245 3.42221C33.0526 3.44102 32.8581 3.45974 32.646 3.47222L32.646 3.47221L32.6448 3.47231C32.4972 3.48482 32.3738 3.49594 32.2726 3.51279C32.1718 3.52959 32.0883 3.55279 32.0225 3.59209C31.9547 3.63258 31.9082 3.68874 31.8795 3.76572C31.8517 3.84063 31.8413 3.93387 31.8413 4.04888C31.8413 4.11748 31.8542 4.17509 31.8841 4.22115C31.9145 4.2679 31.9588 4.29716 32.0108 4.3155C32.0617 4.3335 32.1219 4.34168 32.1879 4.3457C32.2538 4.34971 32.3291 4.34971 32.411 4.34971H32.4122C32.7009 4.34971 32.9172 4.36377 33.0792 4.38834C33.2416 4.41297 33.3464 4.44774 33.4141 4.48716C33.4802 4.52559 33.5112 4.56839 33.5273 4.61296C33.5443 4.66015 33.5461 4.71303 33.5461 4.77629C33.5461 4.91964 33.5003 5.11485 33.4774 5.18769L33.4773 5.18765L33.4765 5.19117L32.0671 11.1383C31.7718 10.485 31.1259 9.59239 29.9496 9.59239C28.5897 9.59239 27.1856 10.5214 26.1242 11.9071C25.0617 13.2942 24.335 15.1483 24.335 17.0168C24.335 19.5171 25.7213 21.0048 27.3686 21.0048C28.0337 21.0048 28.6476 20.7295 29.1765 20.3528C29.6697 20.0015 30.0919 19.5602 30.4167 19.165C30.5517 19.8561 30.882 20.3119 31.2697 20.5969C31.6761 20.8957 32.1427 21.0048 32.5069 21.0048C33.2443 21.0048 33.8264 20.534 34.257 19.6217L34.2575 19.6206C34.4487 19.1903 34.6271 18.5913 34.7575 18.0891C34.8227 17.8376 34.8762 17.6097 34.9133 17.4381C34.9319 17.3524 34.9464 17.2805 34.9564 17.2267C34.9613 17.1999 34.9652 17.1773 34.9678 17.1595C34.9703 17.143 34.9722 17.1276 34.9722 17.1171C34.9722 16.9633 34.8543 16.8414 34.6854 16.8414C34.6276 16.8414 34.5772 16.8498 34.5338 16.8726C34.4896 16.8957 34.4574 16.9311 34.4317 16.9765C34.4066 17.0208 34.3868 17.0763 34.3677 17.1419C34.3512 17.1985 34.3344 17.2652 34.3151 17.3421C34.3119 17.3547 34.3087 17.3677 34.3054 17.3808L34.3053 17.3814C34.1275 18.1218 33.9273 18.8819 33.6517 19.4564C33.3745 20.0343 33.0317 20.4032 32.5779 20.4032C32.4145 20.4032 32.293 20.3645 32.2018 20.3021C32.1103 20.2397 32.0453 20.1509 31.9993 20.0445C31.9062 19.8294 31.8939 19.5508 31.8939 19.2994V19.2992C31.8939 19.2004 31.8939 18.6781 32.0583 17.9814L35.397 3.93503ZM31.6803 12.7815L31.6793 12.781L31.6768 12.7914L30.5168 17.7067C30.5092 17.734 30.5021 17.7596 30.4955 17.7839C30.4495 17.9505 30.4219 18.0509 30.3746 18.1564C30.3205 18.277 30.2402 18.4052 30.0747 18.6431C29.8161 18.9917 29.4287 19.4329 28.969 19.7865C28.5083 20.1408 27.9803 20.4032 27.4396 20.4032C26.9732 20.4032 26.6097 20.1816 26.3604 19.7779C26.1095 19.3717 25.9741 18.7801 25.9741 18.0452C25.9741 17.3616 26.1564 16.3192 26.396 15.3133C26.6354 14.3083 26.9305 13.3461 27.1538 12.8231C27.5542 11.9502 28.0299 11.2917 28.5179 10.8522C29.0064 10.4121 29.5041 10.1941 29.9496 10.1941C30.7039 10.1941 31.1581 10.6888 31.4263 11.2201C31.5603 11.4854 31.6464 11.7574 31.6991 11.9759C31.752 12.1955 31.7702 12.3572 31.7702 12.4015C31.7702 12.4005 31.7702 12.4006 31.7699 12.4025C31.7696 12.4045 31.769 12.4085 31.7679 12.4153C31.766 12.4261 31.7632 12.4406 31.7597 12.4579C31.7528 12.4923 31.7433 12.5365 31.733 12.5817C31.7227 12.6268 31.7117 12.6725 31.7019 12.7098C31.6916 12.7492 31.6838 12.774 31.6803 12.7815Z" fill="black" stroke="#5F5B80" stroke-width="0.1"/>
<path d="M46.5787 10.4501C45.8833 10.6437 45.6179 11.2307 45.6179 11.6994C45.6179 12.0143 45.7363 12.2297 45.9027 12.3652C46.0673 12.4994 46.2746 12.552 46.4493 12.552C47.1941 12.552 47.7069 11.8702 47.7069 11.1726C47.7069 10.6246 47.41 10.2276 46.9905 9.96994C46.5724 9.71318 46.03 9.59258 45.5258 9.59258C44.7847 9.59258 44.2101 9.97892 43.7963 10.4204C43.4417 10.7988 43.202 11.2208 43.0729 11.4854C42.7896 10.6122 42.301 10.1386 41.8228 9.88377C41.3241 9.61801 40.8411 9.59258 40.6243 9.59258C39.3922 9.59258 38.4556 10.4305 37.8306 11.3259C37.5174 11.7745 37.2804 12.2403 37.1216 12.6289C37.0422 12.8232 36.9821 12.9987 36.9418 13.1435C36.9019 13.2871 36.8803 13.4042 36.8803 13.4803C36.8803 13.6088 36.998 13.756 37.1908 13.756C37.3017 13.756 37.3746 13.7107 37.4247 13.6501C37.4629 13.6039 37.4882 13.5473 37.5078 13.5036C37.5122 13.4939 37.5163 13.4848 37.5202 13.4765L37.5207 13.4768L37.523 13.4691C38.3229 10.7027 39.8923 10.1942 40.5532 10.1942C41.0653 10.1942 41.3694 10.4454 41.5483 10.7703C41.7291 11.0986 41.7819 11.503 41.7819 11.7997C41.7819 12.3221 41.653 12.8677 41.3911 13.9767C41.3799 14.0238 41.3686 14.0718 41.357 14.121L41.357 14.121L40.5519 17.5573C40.375 18.3071 40.1163 19.0212 39.7486 19.5468C39.3816 20.0714 38.9097 20.4034 38.3037 20.4034C38.1941 20.4034 37.6854 20.4028 37.2253 20.147C37.5969 20.0402 37.8337 19.8202 37.9792 19.5862C38.1385 19.3297 38.188 19.0569 38.188 18.8982C38.188 18.635 38.0945 18.4208 37.9386 18.2725C37.7831 18.1246 37.569 18.0456 37.3329 18.0456C36.7355 18.0456 36.0989 18.5962 36.0989 19.425C36.0989 19.9726 36.3895 20.3697 36.8064 20.6276C37.2217 20.8845 37.7642 21.005 38.28 21.005C39.4032 21.005 40.2024 20.0999 40.7056 19.1127C41.1251 20.5214 42.2897 21.005 43.1579 21.005C44.39 21.005 45.3266 20.1671 45.9516 19.2717C46.2648 18.8231 46.5018 18.3573 46.6606 17.9687C46.74 17.7744 46.8001 17.5989 46.8403 17.4541C46.8803 17.3105 46.9018 17.1934 46.9018 17.1173C46.9018 16.9635 46.784 16.8416 46.615 16.8416C46.5571 16.8416 46.5082 16.8501 46.4666 16.8687C46.4244 16.8875 46.3927 16.9155 46.3676 16.9498C46.343 16.9832 46.3248 17.0225 46.3087 17.0639C46.2981 17.0913 46.2875 17.1218 46.2766 17.1535C46.2712 17.1691 46.2657 17.185 46.2601 17.201L46.26 17.2009L46.2592 17.2037C45.6231 19.4 44.2631 20.4034 43.2289 20.4034C42.8294 20.4034 42.525 20.247 42.319 19.969C42.1115 19.6889 42.0003 19.2806 42.0003 18.7728C42.0003 18.2389 42.0894 17.8493 42.4503 16.2727L42.4724 16.176L42.4726 16.1753L43.3012 12.7647L43.3013 12.7644C43.4777 12.0168 43.7652 11.3724 44.1407 10.916C44.5158 10.4601 44.9763 10.1942 45.5021 10.1942C45.5462 10.1942 46.1108 10.1949 46.5787 10.4501Z" fill="black" stroke="#5F5B80" stroke-width="0.1"/>
<path d="M54.5809 27.0249H54.6309V26.9749V26.0468V25.9968H54.5809H52.3341V2.86992H54.5809H54.6309V2.81992V1.89185V1.84185H54.5809H51.408H51.358V1.89185V26.9749V27.0249H51.408H54.5809Z" fill="black" stroke="#5F5B80" stroke-width="0.1"/>
<path d="M60.6423 10.671H62.0978C61.9674 11.3865 61.7889 12.3964 61.5884 13.5309C61.125 16.1524 60.544 19.4391 60.1671 21.2964L60.1669 21.2973C59.9654 22.3899 59.7767 23.3879 59.4918 24.113C59.206 24.8403 58.833 25.2696 58.2744 25.2696H58.2744C58.2403 25.2696 58.0558 25.2696 57.828 25.2116C57.6251 25.1599 57.3908 25.0629 57.1979 24.8816C57.7525 24.8056 58.0424 24.5114 58.1916 24.2233C58.348 23.9211 58.3481 23.6293 58.3481 23.614C58.3481 23.3507 58.2546 23.1365 58.0987 22.9883C57.9433 22.8404 57.7291 22.7613 57.493 22.7613C56.9941 22.7613 56.2591 23.2079 56.2591 24.1909C56.2591 24.7485 56.5292 25.1703 56.9161 25.451C57.3017 25.7308 57.8037 25.8713 58.2744 25.8713C58.8957 25.8713 59.4229 25.5756 59.8661 25.1193C60.3088 24.6635 60.6705 24.0446 60.9633 23.3898C61.5487 22.0803 61.8633 20.6148 61.9936 19.9874C62.4131 18.0861 63.5423 11.6012 63.6922 10.671H65.6623H65.6642C65.7811 10.671 65.8835 10.671 65.9701 10.6633C66.0569 10.6557 66.1333 10.64 66.1958 10.605C66.328 10.5311 66.3753 10.3857 66.3753 10.1444C66.3753 10.0759 66.3624 10.0175 66.3302 9.97092C66.2975 9.92373 66.2495 9.89502 66.1922 9.87718C66.1357 9.85959 66.0671 9.85152 65.9882 9.84754C65.9092 9.84356 65.8164 9.84356 65.7107 9.84356H65.7096H63.8511C64.2959 7.29125 64.6236 5.53279 64.8111 4.73795C64.8801 4.44558 65.0356 4.15922 65.2478 3.94658C65.4599 3.73407 65.726 3.59756 66.0175 3.59756C66.4498 3.59756 66.882 3.77335 67.1316 3.96492C66.718 4.03577 66.4378 4.23588 66.2587 4.47378C66.0651 4.73102 65.9912 5.0303 65.9912 5.2532C65.9912 5.51643 66.0847 5.73063 66.2405 5.87888C66.396 6.02678 66.6101 6.10586 66.8462 6.10586C67.3452 6.10586 68.0802 5.65929 68.0802 4.6763C68.0802 4.1317 67.8223 3.70979 67.4321 3.42562C67.0432 3.14235 66.5232 2.9959 65.9938 2.9959C64.9507 2.9959 63.9416 3.81539 63.4625 4.80496C63.0345 5.68665 62.797 6.59287 62.2575 9.84356H60.7134H60.7118C60.6006 9.84356 60.4997 9.84356 60.4122 9.85079C60.3244 9.85803 60.2453 9.87282 60.1794 9.90508C60.1116 9.93818 60.0595 9.98881 60.0253 10.0631C59.9918 10.1358 59.9767 10.2285 59.9767 10.3451C59.9767 10.4172 59.9858 10.4786 60.0122 10.5281C60.0398 10.5799 60.0833 10.6129 60.1398 10.6335C60.1944 10.6533 60.2626 10.6622 60.3437 10.6666C60.4249 10.671 60.5237 10.671 60.641 10.671H60.6423Z" fill="black" stroke="#5F5B80" stroke-width="0.1"/>
<path d="M72.8963 22.3804L72.8964 22.3806C73.5971 23.8904 74.4346 25.0545 75.1301 25.8416C75.4778 26.2351 75.7904 26.5348 76.0332 26.7366C76.1545 26.8374 76.259 26.9144 76.3423 26.9664C76.3839 26.9924 76.421 27.0127 76.4528 27.0267C76.4833 27.0401 76.5139 27.0499 76.5409 27.0499C76.596 27.0499 76.6608 27.0355 76.7132 26.9959C76.7676 26.9547 76.804 26.8895 76.804 26.7993V26.7981C76.804 26.7794 76.8041 26.7562 76.7958 26.7275C76.7876 26.6988 76.7721 26.6673 76.7453 26.6273C76.6924 26.5481 76.589 26.4262 76.3879 26.2132C74.0319 23.6924 72.7076 19.5681 72.7076 14.4584C72.7076 9.59957 73.8188 5.42568 76.5529 2.4788C76.6708 2.3663 76.7342 2.29352 76.7675 2.23706C76.7848 2.20777 76.7945 2.18211 76.7994 2.15703C76.8041 2.13339 76.804 2.11196 76.804 2.094V2.09251C76.804 2.00226 76.7676 1.93707 76.7132 1.89587C76.6608 1.85625 76.596 1.84185 76.5409 1.84185C76.5112 1.84185 76.478 1.85223 76.4445 1.86696C76.41 1.88218 76.3704 1.9042 76.3267 1.93211C76.2393 1.98798 76.1317 2.0697 76.009 2.1744C75.7634 2.38397 75.4539 2.68828 75.1182 3.06904C74.4469 3.83049 73.6685 4.90036 73.086 6.13451C71.8747 8.67556 71.3289 11.367 71.3289 14.4584C71.3289 16.6948 71.6609 19.6876 72.8963 22.3804Z" fill="black" stroke="#5F5B80" stroke-width="0.1"/>
<path d="M89.1673 10.4501C88.4719 10.6437 88.2065 11.2307 88.2065 11.6994C88.2065 12.0143 88.3249 12.2297 88.4913 12.3652C88.6559 12.4994 88.8632 12.552 89.0379 12.552C89.7827 12.552 90.2955 11.8702 90.2955 11.1726C90.2955 10.6246 89.9987 10.2276 89.5791 9.96994C89.161 9.71318 88.6186 9.59258 88.1144 9.59258C87.3734 9.59258 86.7987 9.97892 86.3849 10.4204C86.0303 10.7988 85.7907 11.2208 85.6616 11.4854C85.3782 10.6122 84.8896 10.1386 84.4115 9.88377C83.9127 9.61801 83.4297 9.59258 83.2129 9.59258C81.9808 9.59258 81.0442 10.4305 80.4192 11.3259C80.106 11.7745 79.869 12.2403 79.7102 12.6289C79.6308 12.8232 79.5707 12.9987 79.5304 13.1435C79.4905 13.2871 79.469 13.4042 79.469 13.4803C79.469 13.6088 79.5866 13.756 79.7794 13.756C79.8903 13.756 79.9632 13.7107 80.0133 13.6501C80.0515 13.6039 80.0768 13.5473 80.0964 13.5036C80.1008 13.4939 80.1049 13.4848 80.1088 13.4765L80.1094 13.4768L80.1116 13.4691C80.9115 10.7027 82.481 10.1942 83.1418 10.1942C83.6539 10.1942 83.958 10.4454 84.137 10.7703C84.3177 11.0986 84.3705 11.503 84.3705 11.7997C84.3705 12.3221 84.2416 12.8677 83.9797 13.9767C83.9686 14.0238 83.9572 14.0718 83.9456 14.121L83.9456 14.121L83.1405 17.5573C82.9636 18.3071 82.7049 19.0212 82.3372 19.5468C81.9702 20.0714 81.4983 20.4034 80.8923 20.4034C80.7827 20.4034 80.274 20.4028 79.8139 20.147C80.1855 20.0402 80.4224 19.8202 80.5678 19.5862C80.7272 19.3297 80.7766 19.0569 80.7766 18.8982C80.7766 18.635 80.6831 18.4208 80.5272 18.2725C80.3717 18.1246 80.1576 18.0456 79.9215 18.0456C79.3241 18.0456 78.6875 18.5962 78.6875 19.425C78.6875 19.9726 78.9781 20.3697 79.395 20.6276C79.8103 20.8845 80.3528 21.005 80.8687 21.005C81.9918 21.005 82.7911 20.0999 83.2943 19.1127C83.7137 20.5214 84.8783 21.005 85.7465 21.005C86.9786 21.005 87.9152 20.1671 88.5402 19.2717C88.8534 18.8231 89.0904 18.3573 89.2492 17.9687C89.3286 17.7744 89.3887 17.5989 89.429 17.4541C89.4689 17.3105 89.4905 17.1934 89.4905 17.1173C89.4905 16.9635 89.3726 16.8416 89.2037 16.8416C89.1457 16.8416 89.0968 16.8501 89.0552 16.8687C89.0131 16.8875 88.9813 16.9155 88.9562 16.9498C88.9316 16.9832 88.9134 17.0225 88.8973 17.0639C88.8867 17.0913 88.8762 17.1218 88.8652 17.1535C88.8598 17.1691 88.8544 17.185 88.8487 17.201L88.8486 17.2009L88.8478 17.2037C88.2117 19.4 86.8517 20.4034 85.8176 20.4034C85.418 20.4034 85.1137 20.247 84.9076 19.969C84.7001 19.6889 84.5889 19.2806 84.5889 18.7728C84.5889 18.2389 84.6781 17.8493 85.0389 16.2727L85.0611 16.176L85.0612 16.1753L85.8898 12.7647L85.8899 12.7644C86.0664 12.0168 86.3538 11.3724 86.7293 10.916C87.1044 10.4601 87.5649 10.1942 88.0908 10.1942C88.1348 10.1942 88.6994 10.1949 89.1673 10.4501Z" fill="black" stroke="#5F5B80" stroke-width="0.1"/>
<path d="M96.4106 6.51147L96.4104 6.51115C95.7096 5.00137 94.8722 3.83728 94.1767 3.05018C93.829 2.65667 93.5164 2.35695 93.2736 2.15517C93.1523 2.05436 93.0478 1.97742 92.9645 1.92538C92.9229 1.89939 92.8858 1.87908 92.8539 1.86511C92.8235 1.85174 92.7928 1.84185 92.7658 1.84185C92.7108 1.84185 92.646 1.85625 92.5936 1.89587C92.5392 1.93707 92.5027 2.00226 92.5027 2.09251C92.5027 2.0929 92.5027 2.09329 92.5027 2.09369C92.5027 2.11242 92.5027 2.13556 92.511 2.16429C92.5192 2.19301 92.5347 2.22448 92.5615 2.26453C92.6144 2.34369 92.7178 2.4656 92.9188 2.67857C95.2749 5.19934 96.5992 9.32366 96.5992 14.4334C96.5992 19.2922 95.488 23.4661 92.7539 26.413C92.636 26.5255 92.5726 26.5983 92.5393 26.6547C92.522 26.684 92.5123 26.7097 92.5074 26.7348C92.5027 26.7584 92.5027 26.7798 92.5027 26.7978L92.5027 26.7993C92.5027 26.8895 92.5392 26.9547 92.5936 26.9959C92.646 27.0355 92.7108 27.0499 92.7658 27.0499C92.7955 27.0499 92.8288 27.0396 92.8623 27.0248C92.8968 27.0096 92.9364 26.9876 92.9801 26.9597C93.0675 26.9038 93.1751 26.8221 93.2978 26.7174C93.5434 26.5078 93.8529 26.2035 94.1886 25.8228C94.8599 25.0613 95.6383 23.9914 96.2208 22.7572C97.432 20.1912 97.9779 17.4748 97.9779 14.4584C97.9779 12.549 97.7408 9.43046 96.4106 6.51147Z" fill="black" stroke="#5F5B80" stroke-width="0.1"/>
<path d="M136.338 18.3649L136.338 18.3648L136.337 18.3671C135.371 19.689 134.39 20.1525 133.677 20.1525C133.302 20.1525 132.938 19.9965 132.667 19.6303C132.394 19.2626 132.212 18.6788 132.212 17.8196C132.212 17.1611 132.388 16.1312 132.631 15.1224C132.873 14.1142 133.18 13.1337 133.439 12.5737C133.78 11.8761 134.214 11.2799 134.685 10.8587C135.156 10.437 135.66 10.1942 136.14 10.1942C136.895 10.1942 137.349 10.6891 137.617 11.2142C137.751 11.4764 137.837 11.7438 137.89 11.9552C137.941 12.1594 137.959 12.3074 137.961 12.347L137.891 12.6921L136.778 17.5072C136.778 17.5072 136.778 17.5072 136.778 17.5072C136.731 17.7076 136.696 17.8279 136.637 17.9443C136.578 18.0613 136.492 18.1768 136.338 18.3649ZM134.541 24.2562L134.541 24.2567C134.061 24.7649 133.601 25.0173 133.198 25.1432C132.794 25.2693 132.446 25.2695 132.186 25.2695C131.534 25.2695 130.987 25.2271 130.448 25.0662C131.116 24.7915 131.289 24.1352 131.289 23.8646C131.289 23.4405 130.987 23.012 130.433 23.012C129.837 23.012 129.2 23.5369 129.2 24.3914C129.2 24.6567 129.262 24.8847 129.391 25.0765C129.52 25.2681 129.712 25.42 129.966 25.5373C130.47 25.771 131.225 25.8711 132.233 25.8711C135.313 25.8711 136.918 23.7709 137.231 22.396C137.231 22.396 137.231 22.3959 137.231 22.3958L139.859 11.159C139.859 11.159 139.859 11.159 139.859 11.159C139.93 10.8574 139.931 10.8025 139.931 10.7462C139.931 10.3689 139.65 10.0692 139.266 10.0692C138.965 10.0692 138.726 10.2029 138.554 10.424C138.413 10.6062 138.318 10.8467 138.27 11.12C137.932 10.4154 137.269 9.59258 136.14 9.59258C134.828 9.59258 133.436 10.4642 132.375 11.7968C131.312 13.1308 130.573 14.9349 130.573 16.8163C130.573 18.1302 130.949 19.1146 131.521 19.7713C132.092 20.4281 132.858 20.7542 133.63 20.7542C134.271 20.7542 134.873 20.4853 135.366 20.1563C135.771 19.8856 136.106 19.5723 136.331 19.3286L135.855 21.3948L135.855 21.3953L135.842 21.446C135.683 22.1107 135.567 22.594 135.39 23.0176C135.209 23.45 134.964 23.8211 134.541 24.2562Z" fill="black" stroke="#5F5B80" stroke-width="0.1"/>
<path d="M144.613 22.3804L144.613 22.3806C145.314 23.8904 146.152 25.0545 146.847 25.8416C147.195 26.2351 147.507 26.5348 147.75 26.7366C147.872 26.8374 147.976 26.9144 148.059 26.9664C148.101 26.9924 148.138 27.0127 148.17 27.0267C148.2 27.0401 148.231 27.0499 148.258 27.0499C148.313 27.0499 148.378 27.0355 148.43 26.9959C148.485 26.9547 148.521 26.8895 148.521 26.7993V26.7981C148.521 26.7794 148.521 26.7562 148.513 26.7275C148.505 26.6988 148.489 26.6673 148.462 26.6273C148.409 26.5481 148.306 26.4262 148.105 26.2132C145.749 23.6924 144.425 19.5681 144.425 14.4584C144.425 9.59957 145.536 5.42568 148.27 2.4788C148.388 2.3663 148.451 2.29352 148.485 2.23706C148.502 2.20777 148.512 2.18211 148.516 2.15703C148.521 2.13339 148.521 2.11196 148.521 2.094V2.09251C148.521 2.00226 148.485 1.93707 148.43 1.89587C148.378 1.85625 148.313 1.84185 148.258 1.84185C148.228 1.84185 148.195 1.85223 148.162 1.86696C148.127 1.88218 148.087 1.9042 148.044 1.93211C147.956 1.98798 147.849 2.0697 147.726 2.1744C147.48 2.38397 147.171 2.68828 146.835 3.06904C146.164 3.83049 145.386 4.90036 144.803 6.13451C143.592 8.67556 143.046 11.367 143.046 14.4584C143.046 16.6948 143.378 19.6876 144.613 22.3804Z" fill="black" stroke="#5F5B80" stroke-width="0.1"/>
<path d="M160.885 10.4501C160.189 10.6437 159.924 11.2307 159.924 11.6994C159.924 12.0143 160.042 12.2297 160.209 12.3652C160.373 12.4994 160.58 12.552 160.755 12.552C161.5 12.552 162.013 11.8702 162.013 11.1726C162.013 10.6246 161.716 10.2276 161.296 9.96994C160.878 9.71318 160.336 9.59258 159.832 9.59258C159.091 9.59258 158.516 9.97892 158.102 10.4204C157.748 10.7988 157.508 11.2208 157.379 11.4854C157.096 10.6122 156.607 10.1386 156.129 9.88377C155.63 9.61801 155.147 9.59258 154.93 9.59258C153.698 9.59258 152.762 10.4305 152.136 11.3259C151.823 11.7745 151.586 12.2403 151.427 12.6289C151.348 12.8232 151.288 12.9987 151.248 13.1435C151.208 13.2871 151.186 13.4042 151.186 13.4803C151.186 13.6088 151.304 13.756 151.497 13.756C151.608 13.756 151.681 13.7107 151.731 13.6501C151.769 13.6039 151.794 13.5473 151.814 13.5036C151.818 13.4939 151.822 13.4848 151.826 13.4765L151.827 13.4768L151.829 13.4691C152.629 10.7027 154.198 10.1942 154.859 10.1942C155.371 10.1942 155.675 10.4454 155.854 10.7703C156.035 11.0986 156.088 11.503 156.088 11.7997C156.088 12.3221 155.959 12.8677 155.697 13.9767C155.686 14.0238 155.675 14.0718 155.663 14.121L155.663 14.121L154.858 17.5573C154.681 18.3071 154.422 19.0212 154.055 19.5468C153.687 20.0714 153.216 20.4034 152.61 20.4034C152.5 20.4034 151.991 20.4028 151.531 20.147C151.903 20.0402 152.14 19.8202 152.285 19.5862C152.444 19.3297 152.494 19.0569 152.494 18.8982C152.494 18.635 152.4 18.4208 152.245 18.2725C152.089 18.1246 151.875 18.0456 151.639 18.0456C151.041 18.0456 150.405 18.5962 150.405 19.425C150.405 19.9726 150.695 20.3697 151.112 20.6276C151.528 20.8845 152.07 21.005 152.586 21.005C153.709 21.005 154.508 20.0999 155.012 19.1127C155.431 20.5214 156.596 21.005 157.464 21.005C158.696 21.005 159.632 20.1671 160.258 19.2717C160.571 18.8231 160.808 18.3573 160.966 17.9687C161.046 17.7744 161.106 17.5989 161.146 17.4541C161.186 17.3105 161.208 17.1934 161.208 17.1173C161.208 16.9635 161.09 16.8416 160.921 16.8416C160.863 16.8416 160.814 16.8501 160.773 16.8687C160.73 16.8875 160.699 16.9155 160.673 16.9498C160.649 16.9832 160.631 17.0225 160.615 17.0639C160.604 17.0913 160.593 17.1218 160.583 17.1535C160.577 17.1691 160.572 17.185 160.566 17.201L160.566 17.2009L160.565 17.2037C159.929 19.4 158.569 20.4034 157.535 20.4034C157.135 20.4034 156.831 20.247 156.625 19.969C156.417 19.6889 156.306 19.2806 156.306 18.7728C156.306 18.2389 156.395 17.8493 156.756 16.2727L156.778 16.176L156.779 16.1753L157.607 12.7647L157.607 12.7644C157.784 12.0168 158.071 11.3724 158.447 10.916C158.822 10.4601 159.282 10.1942 159.808 10.1942C159.852 10.1942 160.417 10.1949 160.885 10.4501Z" fill="black" stroke="#5F5B80" stroke-width="0.1"/>
<path d="M168.128 6.51147L168.128 6.51115C167.427 5.00137 166.589 3.83728 165.894 3.05018C165.546 2.65667 165.234 2.35695 164.991 2.15517C164.87 2.05436 164.765 1.97742 164.682 1.92538C164.64 1.89939 164.603 1.87908 164.571 1.86511C164.541 1.85174 164.51 1.84185 164.483 1.84185C164.428 1.84185 164.363 1.85625 164.311 1.89587C164.256 1.93707 164.22 2.00226 164.22 2.09251C164.22 2.0929 164.22 2.09329 164.22 2.09369C164.22 2.11242 164.22 2.13556 164.228 2.16429C164.236 2.19301 164.252 2.22448 164.279 2.26453C164.332 2.34369 164.435 2.4656 164.636 2.67857C166.992 5.19934 168.316 9.32366 168.316 14.4334C168.316 19.2922 167.205 23.4661 164.471 26.413C164.353 26.5255 164.29 26.5983 164.257 26.6547C164.239 26.684 164.23 26.7097 164.225 26.7348C164.22 26.7584 164.22 26.7798 164.22 26.7978L164.22 26.7993C164.22 26.8895 164.256 26.9547 164.311 26.9959C164.363 27.0355 164.428 27.0499 164.483 27.0499C164.513 27.0499 164.546 27.0396 164.58 27.0248C164.614 27.0096 164.654 26.9876 164.697 26.9597C164.785 26.9038 164.892 26.8221 165.015 26.7174C165.261 26.5078 165.57 26.2035 165.906 25.8228C166.577 25.0613 167.356 23.9914 167.938 22.7572C169.149 20.1912 169.695 17.4748 169.695 14.4584C169.695 12.549 169.458 9.43046 168.128 6.51147Z" fill="black" stroke="#5F5B80" stroke-width="0.1"/>
<path d="M175.704 1.89185V1.84185H175.654H172.481H172.431V1.89185V2.81992V2.86992H172.481H174.728V25.9968H172.481H172.431V26.0468V26.9749V27.0249H172.481H175.654H175.704V26.9749V1.89185Z" fill="black" stroke="#5F5B80" stroke-width="0.1"/>
<path d="M200.985 12.6272L200.99 12.6272C201.152 12.6273 201.349 12.6273 201.506 12.5675C201.587 12.5368 201.659 12.4893 201.712 12.4157C201.764 12.3421 201.793 12.2467 201.793 12.1257C201.793 11.9996 201.766 11.9002 201.716 11.8231C201.666 11.7458 201.596 11.6953 201.516 11.6625C201.362 11.5992 201.164 11.5992 200.991 11.5992L200.985 11.5992H187.038L187.033 11.5992C186.871 11.5992 186.674 11.5992 186.517 11.6589C186.436 11.6896 186.364 11.7371 186.311 11.8107C186.259 11.8843 186.23 11.9797 186.23 12.1007C186.23 12.2268 186.257 12.3263 186.307 12.4033C186.357 12.4806 186.427 12.5311 186.507 12.5639C186.661 12.6273 186.859 12.6273 187.032 12.6272L187.038 12.6272H200.985ZM200.985 17.2927H200.99C201.152 17.2927 201.349 17.2927 201.506 17.233C201.587 17.2022 201.659 17.1547 201.712 17.0812C201.764 17.0075 201.793 16.9121 201.793 16.7912C201.793 16.665 201.766 16.5656 201.716 16.4885C201.666 16.4112 201.596 16.3607 201.516 16.3279C201.362 16.2646 201.164 16.2646 200.991 16.2646H200.985H187.038H187.033C186.871 16.2646 186.674 16.2646 186.517 16.3243C186.436 16.3551 186.364 16.4026 186.311 16.4761C186.259 16.5498 186.23 16.6452 186.23 16.7661C186.23 16.8922 186.257 16.9917 186.307 17.0688C186.357 17.1461 186.427 17.1966 186.507 17.2294C186.661 17.2927 186.859 17.2927 187.032 17.2927H187.038H200.985Z" fill="black" stroke="#5F5B80" stroke-width="0.1"/>
<path d="M215.153 10.671H216.609C216.478 11.3865 216.3 12.3964 216.099 13.5309C215.636 16.1524 215.055 19.4391 214.678 21.2964L214.678 21.2973C214.476 22.3899 214.288 23.3879 214.003 24.113C213.717 24.8403 213.344 25.2696 212.785 25.2696H212.785C212.751 25.2696 212.567 25.2696 212.339 25.2116C212.136 25.1599 211.902 25.0629 211.709 24.8816C212.263 24.8056 212.553 24.5114 212.703 24.2233C212.859 23.9211 212.859 23.6293 212.859 23.614C212.859 23.3507 212.766 23.1365 212.61 22.9883C212.454 22.8404 212.24 22.7613 212.004 22.7613C211.505 22.7613 210.77 23.2079 210.77 24.1909C210.77 24.7485 211.04 25.1703 211.427 25.451C211.813 25.7308 212.315 25.8713 212.785 25.8713C213.407 25.8713 213.934 25.5756 214.377 25.1193C214.82 24.6635 215.182 24.0446 215.474 23.3898C216.06 22.0803 216.374 20.6148 216.505 19.9874C216.924 18.0861 218.053 11.6012 218.203 10.671H220.173H220.175C220.292 10.671 220.395 10.671 220.481 10.6633C220.568 10.6557 220.644 10.64 220.707 10.605C220.839 10.5311 220.886 10.3857 220.886 10.1444C220.886 10.0759 220.873 10.0175 220.841 9.97092C220.808 9.92373 220.76 9.89502 220.703 9.87718C220.647 9.85959 220.578 9.85152 220.499 9.84754C220.42 9.84356 220.327 9.84356 220.222 9.84356H220.221H218.362C218.807 7.29125 219.135 5.53279 219.322 4.73795C219.391 4.44558 219.547 4.15922 219.759 3.94658C219.971 3.73407 220.237 3.59756 220.528 3.59756C220.961 3.59756 221.393 3.77335 221.643 3.96492C221.229 4.03577 220.949 4.23588 220.77 4.47378C220.576 4.73102 220.502 5.0303 220.502 5.2532C220.502 5.51643 220.596 5.73063 220.752 5.87888C220.907 6.02678 221.121 6.10586 221.357 6.10586C221.856 6.10586 222.591 5.65929 222.591 4.6763C222.591 4.1317 222.333 3.70979 221.943 3.42562C221.554 3.14235 221.034 2.9959 220.505 2.9959C219.462 2.9959 218.453 3.81539 217.974 4.80496C217.545 5.68665 217.308 6.59287 216.768 9.84356H215.224H215.223C215.112 9.84356 215.011 9.84356 214.923 9.85079C214.835 9.85803 214.756 9.87282 214.69 9.90508C214.623 9.93818 214.57 9.98881 214.536 10.0631C214.503 10.1358 214.488 10.2285 214.488 10.3451C214.488 10.4172 214.497 10.4786 214.523 10.5281C214.551 10.5799 214.594 10.6129 214.651 10.6335C214.705 10.6533 214.774 10.6622 214.855 10.6666C214.936 10.671 215.035 10.671 215.152 10.671H215.153Z" fill="black" stroke="#5F5B80" stroke-width="0.1"/>
<path d="M227.798 2.44037L227.798 2.44039L227.799 2.43844C227.815 2.39406 227.831 2.35324 227.846 2.31477C227.901 2.17143 227.944 2.06068 227.944 1.91971C227.944 1.33676 227.445 0.95 226.979 0.95C226.644 0.95 226.429 1.10617 226.291 1.29211C226.155 1.47576 226.094 1.68854 226.062 1.80615C226.062 1.80622 226.062 1.80629 226.062 1.80636L224.058 9.01236C223.994 9.21401 223.992 9.26981 223.992 9.29412C223.992 9.33693 223.999 9.37463 224.014 9.40774C224.029 9.44123 224.052 9.46734 224.079 9.48841C224.13 9.52778 224.202 9.55097 224.277 9.57487C224.556 9.70602 224.598 9.712 224.642 9.712H224.643C224.655 9.712 224.675 9.71201 224.699 9.70598C224.723 9.69969 224.749 9.68742 224.777 9.66516C224.83 9.62169 224.885 9.5414 224.941 9.39629C224.941 9.39614 224.941 9.39599 224.942 9.39584L227.798 2.44037Z" fill="black" stroke="#5F5B80" stroke-width="0.1"/>
<path d="M232.943 22.3804L232.943 22.3806C233.644 23.8904 234.481 25.0545 235.177 25.8416C235.525 26.2351 235.837 26.5348 236.08 26.7366C236.201 26.8374 236.306 26.9144 236.389 26.9664C236.431 26.9924 236.468 27.0127 236.5 27.0267C236.53 27.0401 236.561 27.0499 236.588 27.0499C236.643 27.0499 236.708 27.0355 236.76 26.9959C236.815 26.9547 236.851 26.8895 236.851 26.7993V26.7981C236.851 26.7794 236.851 26.7562 236.843 26.7275C236.834 26.6988 236.819 26.6673 236.792 26.6273C236.739 26.5481 236.636 26.4262 236.435 26.2132C234.079 23.6924 232.754 19.5681 232.754 14.4584C232.754 9.59957 233.866 5.42568 236.6 2.4788C236.718 2.3663 236.781 2.29352 236.814 2.23706C236.832 2.20777 236.841 2.18211 236.846 2.15703C236.851 2.13339 236.851 2.11196 236.851 2.094V2.09251C236.851 2.00226 236.815 1.93707 236.76 1.89587C236.708 1.85625 236.643 1.84185 236.588 1.84185C236.558 1.84185 236.525 1.85223 236.491 1.86696C236.457 1.88218 236.417 1.9042 236.374 1.93211C236.286 1.98798 236.179 2.0697 236.056 2.1744C235.81 2.38397 235.501 2.68828 235.165 3.06904C234.494 3.83049 233.715 4.90036 233.133 6.13451C231.922 8.67556 231.376 11.367 231.376 14.4584C231.376 16.6948 231.708 19.6876 232.943 22.3804Z" fill="black" stroke="#5F5B80" stroke-width="0.1"/>
<path d="M249.214 10.4501C248.519 10.6437 248.254 11.2307 248.254 11.6994C248.254 12.0143 248.372 12.2297 248.538 12.3652C248.703 12.4994 248.91 12.552 249.085 12.552C249.83 12.552 250.343 11.8702 250.343 11.1726C250.343 10.6246 250.046 10.2276 249.626 9.96994C249.208 9.71318 248.666 9.59258 248.162 9.59258C247.42 9.59258 246.846 9.97892 246.432 10.4204C246.077 10.7988 245.838 11.2208 245.709 11.4854C245.425 10.6122 244.937 10.1386 244.459 9.88377C243.96 9.61801 243.477 9.59258 243.26 9.59258C242.028 9.59258 241.091 10.4305 240.466 11.3259C240.153 11.7745 239.916 12.2403 239.757 12.6289C239.678 12.8232 239.618 12.9987 239.578 13.1435C239.538 13.2871 239.516 13.4042 239.516 13.4803C239.516 13.6088 239.634 13.756 239.827 13.756C239.937 13.756 240.01 13.7107 240.06 13.6501C240.099 13.6039 240.124 13.5473 240.144 13.5036C240.148 13.4939 240.152 13.4848 240.156 13.4765L240.156 13.4768L240.159 13.4691C240.959 10.7027 242.528 10.1942 243.189 10.1942C243.701 10.1942 244.005 10.4454 244.184 10.7703C244.365 11.0986 244.418 11.503 244.418 11.7997C244.418 12.3221 244.289 12.8677 244.027 13.9767C244.016 14.0238 244.004 14.0718 243.993 14.121L243.993 14.121L243.188 17.5573C243.011 18.3071 242.752 19.0212 242.384 19.5468C242.017 20.0714 241.545 20.4034 240.939 20.4034C240.83 20.4034 240.321 20.4028 239.861 20.147C240.233 20.0402 240.469 19.8202 240.615 19.5862C240.774 19.3297 240.824 19.0569 240.824 18.8982C240.824 18.635 240.73 18.4208 240.574 18.2725C240.419 18.1246 240.205 18.0456 239.969 18.0456C239.371 18.0456 238.735 18.5962 238.735 19.425C238.735 19.9726 239.025 20.3697 239.442 20.6276C239.857 20.8845 240.4 21.005 240.916 21.005C242.039 21.005 242.838 20.0999 243.341 19.1127C243.761 20.5214 244.925 21.005 245.794 21.005C247.026 21.005 247.962 20.1671 248.587 19.2717C248.901 18.8231 249.138 18.3573 249.296 17.9687C249.376 17.7744 249.436 17.5989 249.476 17.4541C249.516 17.3105 249.538 17.1934 249.538 17.1173C249.538 16.9635 249.42 16.8416 249.251 16.8416C249.193 16.8416 249.144 16.8501 249.102 16.8687C249.06 16.8875 249.028 16.9155 249.003 16.9498C248.979 16.9832 248.961 17.0225 248.944 17.0639C248.934 17.0913 248.923 17.1218 248.912 17.1535C248.907 17.1691 248.901 17.185 248.896 17.201L248.896 17.2009L248.895 17.2037C248.259 19.4 246.899 20.4034 245.865 20.4034C245.465 20.4034 245.161 20.247 244.955 19.969C244.747 19.6889 244.636 19.2806 244.636 18.7728C244.636 18.2389 244.725 17.8493 245.086 16.2727L245.108 16.176L245.108 16.1753L245.937 12.7647L245.937 12.7644C246.113 12.0168 246.401 11.3724 246.776 10.916C247.152 10.4601 247.612 10.1942 248.138 10.1942C248.182 10.1942 248.747 10.1949 249.214 10.4501Z" fill="black" stroke="#5F5B80" stroke-width="0.1"/>
<path d="M256.457 6.51147L256.457 6.51115C255.756 5.00137 254.919 3.83728 254.223 3.05018C253.876 2.65667 253.563 2.35695 253.32 2.15517C253.199 2.05436 253.094 1.97742 253.011 1.92538C252.97 1.89939 252.932 1.87908 252.901 1.86511C252.87 1.85174 252.839 1.84185 252.812 1.84185C252.757 1.84185 252.693 1.85625 252.64 1.89587C252.586 1.93707 252.549 2.00226 252.549 2.09251C252.549 2.0929 252.549 2.09329 252.549 2.09369C252.549 2.11242 252.549 2.13556 252.558 2.16429C252.566 2.19301 252.581 2.22448 252.608 2.26453C252.661 2.34369 252.764 2.4656 252.965 2.67857C255.322 5.19934 256.646 9.32366 256.646 14.4334C256.646 19.2922 255.535 23.4661 252.801 26.413C252.683 26.5255 252.619 26.5983 252.586 26.6547C252.569 26.684 252.559 26.7097 252.554 26.7348C252.549 26.7584 252.549 26.7798 252.549 26.7978L252.549 26.7993C252.549 26.8895 252.586 26.9547 252.64 26.9959C252.693 27.0355 252.757 27.0499 252.812 27.0499C252.842 27.0499 252.875 27.0396 252.909 27.0248C252.943 27.0096 252.983 26.9876 253.027 26.9597C253.114 26.9038 253.222 26.8221 253.344 26.7174C253.59 26.5078 253.9 26.2035 254.235 25.8228C254.907 25.0613 255.685 23.9914 256.267 22.7572C257.479 20.1912 258.024 17.4748 258.024 14.4584C258.024 12.549 257.787 9.43046 256.457 6.51147Z" fill="black" stroke="#5F5B80" stroke-width="0.1"/>
<path d="M296.386 18.3649L296.385 18.3648L296.384 18.3671C295.418 19.689 294.437 20.1525 293.725 20.1525C293.349 20.1525 292.986 19.9965 292.714 19.6303C292.442 19.2626 292.259 18.6788 292.259 17.8196C292.259 17.1611 292.436 16.1312 292.678 15.1224C292.921 14.1142 293.227 13.1337 293.486 12.5737C293.827 11.8761 294.261 11.2799 294.732 10.8587C295.203 10.437 295.707 10.1942 296.187 10.1942C296.942 10.1942 297.396 10.6891 297.664 11.2142C297.798 11.4764 297.884 11.7438 297.937 11.9552C297.988 12.1594 298.007 12.3074 298.008 12.347L297.938 12.6921L296.825 17.5072C296.825 17.5072 296.825 17.5072 296.825 17.5072C296.778 17.7076 296.744 17.8279 296.685 17.9443C296.625 18.0613 296.539 18.1768 296.386 18.3649ZM294.589 24.2562L294.588 24.2567C294.109 24.7649 293.648 25.0173 293.245 25.1432C292.842 25.2693 292.493 25.2695 292.233 25.2695C291.582 25.2695 291.034 25.2271 290.496 25.0662C291.164 24.7915 291.336 24.1352 291.336 23.8646C291.336 23.4405 291.034 23.012 290.481 23.012C289.884 23.012 289.247 23.5369 289.247 24.3914C289.247 24.6567 289.31 24.8847 289.439 25.0765C289.567 25.2681 289.76 25.42 290.013 25.5373C290.518 25.771 291.273 25.8711 292.28 25.8711C295.361 25.8711 296.965 23.7709 297.278 22.396C297.278 22.396 297.278 22.3959 297.278 22.3958L299.906 11.159C299.906 11.159 299.906 11.159 299.906 11.159C299.978 10.8574 299.979 10.8025 299.979 10.7462C299.979 10.3689 299.697 10.0692 299.313 10.0692C299.012 10.0692 298.773 10.2029 298.602 10.424C298.461 10.6062 298.366 10.8467 298.317 11.12C297.98 10.4154 297.317 9.59258 296.187 9.59258C294.876 9.59258 293.484 10.4642 292.422 11.7968C291.359 13.1308 290.62 14.9349 290.62 16.8163C290.62 18.1302 290.996 19.1146 291.568 19.7713C292.14 20.4281 292.905 20.7542 293.677 20.7542C294.319 20.7542 294.92 20.4853 295.413 20.1563C295.819 19.8856 296.153 19.5723 296.379 19.3286L295.902 21.3948L295.902 21.3953L295.89 21.446C295.73 22.1107 295.614 22.594 295.437 23.0176C295.256 23.45 295.011 23.8211 294.589 24.2562Z" fill="black" stroke="#5F5B80" stroke-width="0.1"/>
<path d="M305.052 2.44037L305.052 2.44039L305.053 2.43844C305.069 2.39406 305.085 2.35324 305.099 2.31477C305.155 2.17143 305.198 2.06068 305.198 1.91971C305.198 1.33676 304.698 0.95 304.232 0.95C303.898 0.95 303.683 1.10617 303.545 1.29211C303.408 1.47576 303.347 1.68854 303.316 1.80615C303.316 1.80622 303.316 1.80629 303.316 1.80636L301.311 9.01236C301.248 9.21401 301.246 9.26981 301.246 9.29412C301.246 9.33693 301.253 9.37463 301.268 9.40774C301.283 9.44123 301.305 9.46734 301.332 9.48841C301.384 9.52778 301.455 9.55097 301.53 9.57487C301.809 9.70602 301.851 9.712 301.896 9.712H301.897C301.909 9.712 301.929 9.71201 301.952 9.70598C301.977 9.69969 302.003 9.68742 302.03 9.66516C302.083 9.62169 302.138 9.5414 302.195 9.39629C302.195 9.39614 302.195 9.39599 302.195 9.39584L305.052 2.44037Z" fill="black" stroke="#5F5B80" stroke-width="0.1"/>
<path d="M310.197 22.3804L310.197 22.3806C310.897 23.8904 311.735 25.0545 312.43 25.8416C312.778 26.2351 313.091 26.5348 313.333 26.7366C313.455 26.8374 313.559 26.9144 313.643 26.9664C313.684 26.9924 313.721 27.0127 313.753 27.0267C313.784 27.0401 313.814 27.0499 313.841 27.0499C313.896 27.0499 313.961 27.0355 314.013 26.9959C314.068 26.9547 314.104 26.8895 314.104 26.7993V26.7981C314.104 26.7794 314.104 26.7562 314.096 26.7275C314.088 26.6988 314.072 26.6673 314.046 26.6273C313.993 26.5481 313.889 26.4262 313.688 26.2132C311.332 23.6924 310.008 19.5681 310.008 14.4584C310.008 9.59957 311.119 5.42568 313.853 2.4788C313.971 2.3663 314.034 2.29352 314.068 2.23706C314.085 2.20777 314.095 2.18211 314.1 2.15703C314.104 2.13339 314.104 2.11196 314.104 2.094V2.09251C314.104 2.00226 314.068 1.93707 314.013 1.89587C313.961 1.85625 313.896 1.84185 313.841 1.84185C313.812 1.84185 313.778 1.85223 313.745 1.86696C313.71 1.88218 313.671 1.9042 313.627 1.93211C313.54 1.98798 313.432 2.0697 313.309 2.1744C313.064 2.38397 312.754 2.68828 312.418 3.06904C311.747 3.83049 310.969 4.90036 310.386 6.13451C309.175 8.67556 308.629 11.367 308.629 14.4584C308.629 16.6948 308.961 19.6876 310.197 22.3804Z" fill="black" stroke="#5F5B80" stroke-width="0.1"/>
<path d="M326.468 10.4501C325.772 10.6437 325.507 11.2307 325.507 11.6994C325.507 12.0143 325.625 12.2297 325.792 12.3652C325.956 12.4994 326.163 12.552 326.338 12.552C327.083 12.552 327.596 11.8702 327.596 11.1726C327.596 10.6246 327.299 10.2276 326.879 9.96994C326.461 9.71318 325.919 9.59258 325.415 9.59258C324.674 9.59258 324.099 9.97892 323.685 10.4204C323.331 10.7988 323.091 11.2208 322.962 11.4854C322.679 10.6122 322.19 10.1386 321.712 9.88377C321.213 9.61801 320.73 9.59258 320.513 9.59258C319.281 9.59258 318.345 10.4305 317.719 11.3259C317.406 11.7745 317.169 12.2403 317.01 12.6289C316.931 12.8232 316.871 12.9987 316.831 13.1435C316.791 13.2871 316.769 13.4042 316.769 13.4803C316.769 13.6088 316.887 13.756 317.08 13.756C317.191 13.756 317.264 13.7107 317.314 13.6501C317.352 13.6039 317.377 13.5473 317.397 13.5036C317.401 13.4939 317.405 13.4848 317.409 13.4765L317.41 13.4768L317.412 13.4691C318.212 10.7027 319.781 10.1942 320.442 10.1942C320.954 10.1942 321.258 10.4454 321.437 10.7703C321.618 11.0986 321.671 11.503 321.671 11.7997C321.671 12.3221 321.542 12.8677 321.28 13.9767C321.269 14.0238 321.258 14.0718 321.246 14.121L321.246 14.121L320.441 17.5573C320.264 18.3071 320.005 19.0212 319.638 19.5468C319.27 20.0714 318.799 20.4034 318.193 20.4034C318.083 20.4034 317.574 20.4028 317.114 20.147C317.486 20.0402 317.723 19.8202 317.868 19.5862C318.027 19.3297 318.077 19.0569 318.077 18.8982C318.077 18.635 317.983 18.4208 317.828 18.2725C317.672 18.1246 317.458 18.0456 317.222 18.0456C316.624 18.0456 315.988 18.5962 315.988 19.425C315.988 19.9726 316.278 20.3697 316.695 20.6276C317.111 20.8845 317.653 21.005 318.169 21.005C319.292 21.005 320.091 20.0999 320.595 19.1127C321.014 20.5214 322.179 21.005 323.047 21.005C324.279 21.005 325.215 20.1671 325.841 19.2717C326.154 18.8231 326.391 18.3573 326.55 17.9687C326.629 17.7744 326.689 17.5989 326.729 17.4541C326.769 17.3105 326.791 17.1934 326.791 17.1173C326.791 16.9635 326.673 16.8416 326.504 16.8416C326.446 16.8416 326.397 16.8501 326.356 16.8687C326.313 16.8875 326.282 16.9155 326.256 16.9498C326.232 16.9832 326.214 17.0225 326.198 17.0639C326.187 17.0913 326.176 17.1218 326.166 17.1535C326.16 17.1691 326.155 17.185 326.149 17.201L326.149 17.2009L326.148 17.2037C325.512 19.4 324.152 20.4034 323.118 20.4034C322.718 20.4034 322.414 20.247 322.208 19.969C322 19.6889 321.889 19.2806 321.889 18.7728C321.889 18.2389 321.978 17.8493 322.339 16.2727L322.361 16.176L322.362 16.1753L323.19 12.7647L323.19 12.7644C323.367 12.0168 323.654 11.3724 324.03 10.916C324.405 10.4601 324.865 10.1942 325.391 10.1942C325.435 10.1942 326 10.1949 326.468 10.4501Z" fill="black" stroke="#5F5B80" stroke-width="0.1"/>
<path d="M333.71 6.51147L333.71 6.51115C333.009 5.00137 332.172 3.83728 331.477 3.05018C331.129 2.65667 330.816 2.35695 330.573 2.15517C330.452 2.05436 330.348 1.97742 330.264 1.92538C330.223 1.89939 330.186 1.87908 330.154 1.86511C330.123 1.85174 330.093 1.84185 330.066 1.84185C330.011 1.84185 329.946 1.85625 329.893 1.89587C329.839 1.93707 329.803 2.00226 329.803 2.09251C329.803 2.0929 329.803 2.09329 329.803 2.09369C329.803 2.11242 329.803 2.13556 329.811 2.16429C329.819 2.19301 329.835 2.22448 329.861 2.26453C329.914 2.34369 330.018 2.4656 330.219 2.67857C332.575 5.19934 333.899 9.32366 333.899 14.4334C333.899 19.2922 332.788 23.4661 330.054 26.413C329.936 26.5255 329.872 26.5983 329.839 26.6547C329.822 26.684 329.812 26.7097 329.807 26.7348C329.803 26.7584 329.803 26.7798 329.803 26.7978L329.803 26.7993C329.803 26.8895 329.839 26.9547 329.893 26.9959C329.946 27.0355 330.011 27.0499 330.066 27.0499C330.095 27.0499 330.129 27.0396 330.162 27.0248C330.197 27.0096 330.236 26.9876 330.28 26.9597C330.367 26.9038 330.475 26.8221 330.598 26.7174C330.843 26.5078 331.153 26.2035 331.488 25.8228C332.16 25.0613 332.938 23.9914 333.521 22.7572C334.732 20.1912 335.278 17.4748 335.278 14.4584C335.278 12.549 335.041 9.43046 333.71 6.51147Z" fill="black" stroke="#5F5B80" stroke-width="0.1"/>
<path d="M122.309 16.7702H122.313C122.514 16.7702 122.764 16.7703 122.963 16.6989C123.065 16.6624 123.157 16.6064 123.224 16.5196C123.291 16.4324 123.328 16.3185 123.328 16.1726C123.328 16.0268 123.291 15.9129 123.224 15.8256C123.157 15.7388 123.065 15.6828 122.963 15.6464C122.764 15.575 122.514 15.575 122.313 15.575L122.309 15.575H107.689L107.685 15.575C107.484 15.575 107.234 15.575 107.035 15.6464C106.933 15.6828 106.841 15.7388 106.774 15.8256C106.707 15.9129 106.67 16.0268 106.67 16.1726C106.67 16.3185 106.707 16.4324 106.774 16.5196C106.841 16.6064 106.933 16.6624 107.035 16.6989C107.234 16.7703 107.484 16.7702 107.685 16.7702H107.689H122.309Z" fill="black" stroke="#5F5B80" stroke-width="0.1"/>
<path d="M282.927 16.7702H282.931C283.132 16.7702 283.382 16.7703 283.581 16.6989C283.683 16.6624 283.775 16.6064 283.842 16.5196C283.909 16.4324 283.946 16.3185 283.946 16.1726C283.946 16.0268 283.909 15.9129 283.842 15.8256C283.775 15.7388 283.683 15.6828 283.581 15.6464C283.382 15.575 283.132 15.575 282.931 15.575L282.927 15.575H268.307L268.302 15.575C268.101 15.575 267.852 15.575 267.652 15.6464C267.551 15.6828 267.459 15.7388 267.392 15.8256C267.325 15.9129 267.288 16.0268 267.288 16.1726C267.288 16.3185 267.325 16.4324 267.392 16.5196C267.459 16.6064 267.551 16.6624 267.652 16.6989C267.852 16.7703 268.101 16.7702 268.302 16.7702H268.307H282.927Z" fill="black" stroke="#5F5B80" stroke-width="0.1"/>
</svg>
