<svg width="158" height="48" viewBox="0 0 158 48" fill="none" xmlns="http://www.w3.org/2000/svg">
<path d="M1.24589 46.6175C1.49929 46.9919 1.85827 47.1791 2.32284 47.1791H2.36508C2.75926 47.1791 3.15344 46.7471 3.54762 45.883C3.9418 45.019 4.30782 43.8381 4.64569 42.3404C4.98356 40.8427 5.30031 39.3378 5.59594 37.8257C5.89158 36.3136 6.18721 34.679 6.48285 32.9221C6.52508 32.6197 6.56027 32.3965 6.58843 32.2525C7.60203 26.132 8.7001 20.458 9.88264 15.2304C11.0652 10.0029 11.9239 6.60423 12.4589 5.03451C12.5434 4.7753 12.6137 4.55928 12.6701 4.38647C12.7264 4.21365 12.846 3.89683 13.029 3.436C13.2121 2.97517 13.4021 2.57194 13.5992 2.22631C13.7963 1.88069 14.0356 1.52786 14.3172 1.16784C14.5987 0.807808 14.9084 0.519787 15.2463 0.303772C15.5842 0.0877571 15.9432 -0.0130501 16.3233 0.0013504C17.1116 0.0013504 17.7029 0.253368 18.0971 0.757404C18.4912 1.26144 18.7165 1.83748 18.7728 2.48553C18.7728 2.84555 18.6883 3.13358 18.5194 3.34959C18.3505 3.56561 18.1886 3.70242 18.0337 3.76002C17.8789 3.81763 17.724 3.83923 17.5691 3.82483C17.2735 3.82483 17.006 3.71682 16.7667 3.5008C16.5274 3.28479 16.4077 2.98957 16.4077 2.61514C16.4077 1.92389 16.7808 1.51346 17.5269 1.38385L17.4636 1.29744C17.4213 1.25424 17.365 1.20384 17.2946 1.14623C17.2242 1.08863 17.1679 1.04543 17.1257 1.01662C16.9145 0.872612 16.6822 0.80061 16.4288 0.80061C16.2317 0.80061 16.0487 0.887016 15.8798 1.05983C15.7109 1.23264 15.4856 1.63587 15.2041 2.26952C14.9225 2.90316 14.648 3.73842 14.3805 4.7753C14.113 5.81217 13.7822 7.27387 13.388 9.16041C12.9938 11.0469 12.5997 13.2647 12.2055 15.8137C11.3749 20.638 10.5091 25.196 9.60813 29.4875C8.70714 33.779 8.00325 36.8896 7.49645 38.8193C6.98965 40.7491 6.60251 42.1316 6.33503 42.9668C5.25103 46.3223 3.91364 48 2.32284 48C1.75973 48 1.24589 47.7768 0.78132 47.3304C0.316751 46.8839 0.0563114 46.2719 0 45.4942C0 44.9902 0.133739 44.6446 0.401218 44.4573C0.668697 44.2701 0.936176 44.1765 1.20366 44.1765C1.49929 44.1765 1.76677 44.2845 2.00609 44.5005C2.24542 44.7166 2.36508 45.0118 2.36508 45.3862C2.36508 46.0775 1.99201 46.4879 1.24589 46.6175Z" fill=""/>
<path d="M26.8672 25.7505C26.8672 24.9297 27.0009 24.1808 27.2684 23.5039C27.5359 22.8271 27.8808 22.2655 28.3031 21.819C28.7255 21.3726 29.1971 20.9982 29.7179 20.6957C30.2388 20.3933 30.7316 20.1701 31.1961 20.0261C31.6607 19.8821 32.1041 19.8173 32.5265 19.8317H32.5898C33.2233 19.8317 33.7724 19.9901 34.2369 20.3069C34.7015 20.6237 34.9338 21.0918 34.9338 21.711C34.9338 23.0071 34.1525 23.8568 32.5898 24.26C31.9 24.4472 30.9568 24.548 29.7602 24.5624C29.2393 24.5624 28.9718 24.5768 28.9577 24.6056C28.9577 24.6344 28.9155 24.8864 28.831 25.3617C28.7466 25.8369 28.6973 26.2545 28.6832 26.6146C28.6832 27.2914 28.831 27.8243 29.1267 28.2131C29.4223 28.6019 29.8658 28.8035 30.457 28.8179C31.0483 28.8323 31.7029 28.6955 32.4209 28.4075C33.1389 28.1195 33.7864 27.6442 34.3636 26.9818C34.4903 26.8378 34.5748 26.7658 34.617 26.7658C34.6733 26.7658 34.7649 26.8306 34.8916 26.9602C35.0183 27.0898 35.0886 27.1906 35.1027 27.2626C35.1168 27.3346 35.0535 27.4498 34.9127 27.6082C34.7719 27.7667 34.5607 27.9611 34.2792 28.1915C33.9976 28.4219 33.6738 28.6451 33.3078 28.8611C32.9418 29.0771 32.4983 29.2572 31.9774 29.4012C31.4566 29.5452 30.9216 29.6172 30.3726 29.6172C29.2604 29.6172 28.4017 29.2356 27.7963 28.4723C27.191 27.7091 26.8813 26.8018 26.8672 25.7505ZM33.9202 21.7542C33.8357 21.0054 33.3571 20.6309 32.4842 20.6309C32.0197 20.6309 31.5903 20.7317 31.1961 20.9334C30.8019 21.135 30.4852 21.3798 30.2459 21.6678C30.0065 21.9558 29.8024 22.2511 29.6335 22.5535C29.4645 22.8559 29.3519 23.1151 29.2956 23.3311C29.2393 23.5472 29.2041 23.684 29.19 23.7416C29.19 23.756 29.3308 23.7632 29.6124 23.7632C31.2032 23.7632 32.3153 23.5904 32.9488 23.2447C33.5823 22.8991 33.9061 22.4023 33.9202 21.7542Z" fill=""/>
<path d="M36.6601 16.0443C36.7297 15.6167 36.9985 15.1229 37.4662 14.5629C37.934 14.0029 38.5113 13.7178 39.1981 13.7076C39.5464 13.7076 39.8649 13.7993 40.1536 13.9825C40.4422 14.1658 40.6562 14.3949 40.7955 14.6698C41.2136 14.0283 41.7162 13.7076 42.3034 13.7076C42.6717 13.7076 42.9902 13.8196 43.2589 14.0436C43.5276 14.2676 43.667 14.568 43.6769 14.9447C43.6769 15.2399 43.6073 15.4792 43.4679 15.6625C43.3286 15.8457 43.1942 15.9577 43.0648 15.9985C42.9354 16.0392 42.821 16.0596 42.7214 16.0596C42.5323 16.0596 42.3781 16.0036 42.2586 15.8916C42.1392 15.7796 42.0795 15.6319 42.0795 15.4487C42.0795 14.9803 42.3283 14.6596 42.826 14.4865C42.7165 14.3542 42.5174 14.288 42.2288 14.288C42.0994 14.288 42.0048 14.2982 41.9451 14.3185C41.5669 14.4814 41.2882 14.8174 41.1091 15.3265C40.5119 17.5766 40.2133 18.89 40.2133 19.2667C40.2133 19.5518 40.2929 19.7555 40.4522 19.8776C40.6114 19.9998 40.7856 20.0609 40.9747 20.0609C41.343 20.0609 41.7062 19.8929 42.0645 19.5569C42.4229 19.2209 42.6667 18.8086 42.7961 18.3199C42.826 18.218 42.8558 18.162 42.8857 18.1519C42.9155 18.1417 42.9952 18.1315 43.1245 18.1213H43.1843C43.3336 18.1213 43.4082 18.162 43.4082 18.2435C43.4082 18.2537 43.3983 18.3097 43.3784 18.4115C43.2191 18.9918 42.9106 19.506 42.4527 19.954C41.9949 20.402 41.4624 20.626 40.8553 20.626C40.1585 20.626 39.631 20.3053 39.2727 19.6638C38.8646 20.2951 38.3969 20.6107 37.8693 20.6107H37.7798C37.2921 20.6107 36.9437 20.4783 36.7347 20.2136C36.5257 19.9489 36.4162 19.6689 36.4062 19.3736C36.4062 19.0478 36.5008 18.7831 36.6899 18.5795C36.879 18.3759 37.103 18.274 37.3617 18.274C37.7897 18.274 38.0037 18.4879 38.0037 18.9155C38.0037 19.1191 37.944 19.2973 37.8246 19.45C37.7051 19.6027 37.5907 19.7045 37.4812 19.7555C37.3717 19.8064 37.307 19.8318 37.2871 19.8318L37.2423 19.8471C37.2423 19.8573 37.2722 19.8776 37.3319 19.9082C37.3916 19.9387 37.4712 19.9744 37.5708 20.0151C37.6703 20.0558 37.7648 20.0711 37.8544 20.0609C38.2127 20.0609 38.5213 19.8318 38.78 19.3736C38.8696 19.2107 38.9841 18.8646 39.1234 18.3351C39.2628 17.8057 39.4021 17.2559 39.5415 16.6857C39.6808 16.1156 39.7604 15.7796 39.7803 15.6778C39.8301 15.4029 39.855 15.2043 39.855 15.0821C39.855 14.797 39.7803 14.5934 39.631 14.4712C39.4817 14.3491 39.3125 14.288 39.1234 14.288C38.7253 14.288 38.3521 14.4509 38.0037 14.7767C37.6554 15.1025 37.4115 15.5199 37.2722 16.029C37.2523 16.1206 37.2274 16.1716 37.1975 16.1817C37.1677 16.1919 37.088 16.2021 36.9586 16.2123H36.7496C36.6899 16.1512 36.6601 16.0952 36.6601 16.0443Z" fill=""/>
<path d="M53.2077 14.6256C53.2217 14.6256 53.7285 14.5896 54.7281 14.5176C55.7276 14.4456 56.2414 14.4024 56.2696 14.388C56.4385 14.388 56.523 14.4456 56.523 14.5608C56.523 14.6616 56.0092 16.8361 54.9815 21.0844C53.9538 25.3328 53.4259 27.5001 53.3977 27.5865C53.3696 27.6729 53.3625 27.7809 53.3766 27.9105C53.3766 28.5154 53.5737 28.8178 53.9679 28.8178C54.0946 28.8034 54.2353 28.7386 54.3902 28.6234C54.6858 28.3354 54.9744 27.6441 55.256 26.5496C55.3405 26.2616 55.4108 26.1104 55.4672 26.096C55.4953 26.0816 55.5657 26.0744 55.6783 26.0744H55.7628H55.8473C56.0584 26.0744 56.164 26.132 56.164 26.2472C56.164 26.3192 56.1429 26.4344 56.1007 26.5928C55.9176 27.3129 55.7065 27.8961 55.4672 28.3426C55.2278 28.789 55.0307 29.077 54.8759 29.2066C54.721 29.3362 54.5239 29.4514 54.2846 29.5523C54.172 29.5811 54.0031 29.5955 53.7778 29.5955C53.2992 29.5955 52.898 29.4875 52.5742 29.2714C52.2504 29.0554 52.0392 28.8322 51.9407 28.6018L51.814 28.2778C51.7999 28.2634 51.7717 28.2706 51.7295 28.2994C51.7013 28.3282 51.6732 28.357 51.645 28.3858C50.8144 29.1922 49.9698 29.5955 49.111 29.5955C48.3367 29.5955 47.654 29.3074 47.0627 28.7314C46.4714 28.1554 46.1758 27.2409 46.1758 25.988C46.1758 25.2967 46.3166 24.5911 46.5981 23.871C46.8797 23.151 47.2175 22.5318 47.6117 22.0133C48.2734 21.1925 48.935 20.6236 49.5967 20.3068C50.2584 19.99 50.8567 19.8316 51.3916 19.8316C52.18 19.8316 52.7712 20.134 53.1654 20.7388C53.2358 20.8252 53.271 20.854 53.271 20.8252C53.2851 20.7676 53.4751 19.9828 53.8412 18.4707C54.2072 16.9585 54.4043 16.1593 54.4324 16.0729C54.4324 15.8857 54.3832 15.7705 54.2846 15.7273C54.1861 15.6841 53.9116 15.6481 53.4611 15.6193H53.0176C52.9331 15.5328 52.8909 15.4752 52.8909 15.4464C52.8909 15.4176 52.905 15.2808 52.9331 15.036C53.0035 14.7624 53.095 14.6256 53.2077 14.6256ZM52.912 22.3373C52.5882 21.1997 52.0603 20.6308 51.3283 20.6308C50.8355 20.6308 50.3639 20.854 49.9134 21.3005C49.463 21.7469 49.111 22.3301 48.8576 23.0502C48.4494 24.1879 48.1608 25.3688 47.9918 26.5928C47.9918 26.636 47.9918 26.7153 47.9918 26.8305C47.9918 26.9457 47.9848 27.0321 47.9707 27.0897C47.9707 27.7377 48.0974 28.1842 48.3508 28.429C48.6042 28.6738 48.9069 28.8034 49.2588 28.8178C50.019 28.8178 50.8004 28.2994 51.6028 27.2625L51.7717 27.0249L52.912 22.3373Z" fill=""/>
<path d="M57.5577 23.1365C57.6563 22.5316 58.0364 21.8332 58.698 21.0411C59.3597 20.2491 60.1762 19.8458 61.1476 19.8314C61.6403 19.8314 62.0908 19.9611 62.499 20.2203C62.9073 20.4795 63.21 20.8035 63.4071 21.1923C63.9983 20.2851 64.7093 19.8314 65.5399 19.8314C66.0607 19.8314 66.5112 19.9899 66.8913 20.3067C67.2714 20.6235 67.4685 21.0483 67.4826 21.5812C67.4826 21.9988 67.384 22.3372 67.187 22.5964C66.9899 22.8557 66.7998 23.0141 66.6168 23.0717C66.4338 23.1293 66.2719 23.1581 66.1311 23.1581C65.8636 23.1581 65.6454 23.0789 65.4765 22.9205C65.3076 22.7621 65.2231 22.5532 65.2231 22.294C65.2231 21.6316 65.575 21.1779 66.2789 20.9331C66.1241 20.7459 65.8425 20.6523 65.4343 20.6523C65.2513 20.6523 65.1175 20.6667 65.033 20.6955C64.4981 20.9259 64.1039 21.4012 63.8505 22.1212C63.0058 25.3038 62.5835 27.1616 62.5835 27.6944C62.5835 28.0976 62.6961 28.3857 62.9214 28.5585C63.1466 28.7313 63.393 28.8177 63.6605 28.8177C64.1813 28.8177 64.6952 28.5801 65.202 28.1048C65.7088 27.6296 66.0537 27.0464 66.2367 26.3551C66.2789 26.2111 66.3212 26.1319 66.3634 26.1175C66.4056 26.1031 66.5183 26.0887 66.7013 26.0743H66.7857C66.9969 26.0743 67.1025 26.1319 67.1025 26.2471C67.1025 26.2615 67.0884 26.3407 67.0603 26.4847C66.835 27.3056 66.3986 28.0328 65.751 28.6665C65.1034 29.3001 64.3503 29.6169 63.4915 29.6169C62.5061 29.6169 61.76 29.1633 61.2531 28.256C60.676 29.1489 60.0143 29.5953 59.2682 29.5953H59.1415C58.4517 29.5953 57.9589 29.4081 57.6633 29.0337C57.3677 28.6593 57.2128 28.2632 57.1987 27.8456C57.1987 27.3848 57.3325 27.0104 57.5999 26.7223C57.8674 26.4343 58.1842 26.2903 58.5502 26.2903C59.1556 26.2903 59.4582 26.5927 59.4582 27.1976C59.4582 27.4856 59.3738 27.7376 59.2048 27.9536C59.0359 28.1696 58.874 28.3136 58.7191 28.3857C58.5643 28.4577 58.4728 28.4937 58.4446 28.4937L58.3813 28.5153C58.3813 28.5297 58.4235 28.5585 58.508 28.6017C58.5924 28.6449 58.7051 28.6953 58.8458 28.7529C58.9866 28.8105 59.1204 28.8321 59.2471 28.8177C59.7539 28.8177 60.1903 28.4937 60.5563 27.8456C60.683 27.6152 60.8449 27.1256 61.042 26.3767C61.2391 25.6279 61.4362 24.8502 61.6333 24.0437C61.8303 23.2373 61.943 22.7621 61.9711 22.618C62.0415 22.2292 62.0767 21.9484 62.0767 21.7756C62.0767 21.3724 61.9711 21.0843 61.76 20.9115C61.5488 20.7387 61.3095 20.6523 61.042 20.6523C60.4789 20.6523 59.9509 20.8827 59.4582 21.3435C58.9655 21.8044 58.6206 22.3948 58.4235 23.1149C58.3953 23.2445 58.3602 23.3165 58.3179 23.3309C58.2757 23.3453 58.1631 23.3597 57.9801 23.3741H57.6844C57.5999 23.2877 57.5577 23.2085 57.5577 23.1365Z" fill=""/>
<path d="M75.5874 21.8839C75.5874 21.6966 75.6859 21.5526 75.883 21.4518H89.3344C89.5456 21.567 89.6512 21.711 89.6512 21.8839C89.6512 22.0423 89.5526 22.1791 89.3555 22.2943L82.6404 22.3159H75.9253C75.7 22.2439 75.5874 22.0999 75.5874 21.8839ZM75.5874 26.0746C75.5874 25.8585 75.7 25.7145 75.9253 25.6425H89.3555C89.5526 25.7865 89.6512 25.9306 89.6512 26.0746C89.6512 26.2618 89.5456 26.4058 89.3344 26.5066H75.883C75.6859 26.4058 75.5874 26.2618 75.5874 26.0746Z" fill=""/>
<path d="M97.5229 25.7505C97.5229 24.9297 97.6567 24.1808 97.9242 23.5039C98.1916 22.8271 98.5366 22.2655 98.9589 21.819C99.3812 21.3726 99.8528 20.9982 100.374 20.6957C100.895 20.3933 101.387 20.1701 101.852 20.0261C102.316 19.8821 102.76 19.8173 103.182 19.8317H103.246C103.879 19.8317 104.428 19.9901 104.893 20.3069C105.357 20.6237 105.59 21.0918 105.59 21.711C105.59 23.0071 104.808 23.8568 103.246 24.26C102.556 24.4472 101.613 24.548 100.416 24.5624C99.8951 24.5624 99.6276 24.5768 99.6135 24.6056C99.6135 24.6344 99.5713 24.8864 99.4868 25.3617C99.4023 25.8369 99.3531 26.2545 99.339 26.6146C99.339 27.2914 99.4868 27.8243 99.7824 28.2131C100.078 28.6019 100.522 28.8035 101.113 28.8179C101.704 28.8323 102.359 28.6955 103.077 28.4075C103.795 28.1195 104.442 27.6442 105.019 26.9818C105.146 26.8378 105.231 26.7658 105.273 26.7658C105.329 26.7658 105.421 26.8306 105.547 26.9602C105.674 27.0898 105.744 27.1906 105.758 27.2626C105.773 27.3346 105.709 27.4498 105.568 27.6082C105.428 27.7667 105.216 27.9611 104.935 28.1915C104.653 28.4219 104.33 28.6451 103.964 28.8611C103.598 29.0771 103.154 29.2572 102.633 29.4012C102.112 29.5452 101.577 29.6172 101.028 29.6172C99.9162 29.6172 99.0574 29.2356 98.4521 28.4723C97.8467 27.7091 97.537 26.8018 97.5229 25.7505ZM104.576 21.7542C104.491 21.0054 104.013 20.6309 103.14 20.6309C102.675 20.6309 102.246 20.7317 101.852 20.9334C101.458 21.135 101.141 21.3798 100.902 21.6678C100.662 21.9558 100.458 22.2511 100.289 22.5535C100.12 22.8559 100.008 23.1151 99.9514 23.3311C99.8951 23.5472 99.8599 23.684 99.8458 23.7416C99.8458 23.756 99.9866 23.7632 100.268 23.7632C101.859 23.7632 102.971 23.5904 103.605 23.2447C104.238 22.8991 104.562 22.4023 104.576 21.7542Z" fill=""/>
<path d="M107.316 16.0443C107.386 15.6167 107.655 15.1229 108.122 14.5629C108.59 14.0029 109.168 13.7178 109.854 13.7076C110.203 13.7076 110.521 13.7993 110.81 13.9825C111.098 14.1658 111.312 14.3949 111.452 14.6698C111.87 14.0283 112.372 13.7076 112.96 13.7076C113.328 13.7076 113.646 13.8196 113.915 14.0436C114.184 14.2676 114.323 14.568 114.333 14.9447C114.333 15.2399 114.264 15.4792 114.124 15.6625C113.985 15.8457 113.85 15.9577 113.721 15.9985C113.592 16.0392 113.477 16.0596 113.378 16.0596C113.189 16.0596 113.034 16.0036 112.915 15.8916C112.795 15.7796 112.736 15.6319 112.736 15.4487C112.736 14.9803 112.985 14.6596 113.482 14.4865C113.373 14.3542 113.174 14.288 112.885 14.288C112.756 14.288 112.661 14.2982 112.601 14.3185C112.223 14.4814 111.944 14.8174 111.765 15.3265C111.168 17.5766 110.87 18.89 110.87 19.2667C110.87 19.5518 110.949 19.7555 111.108 19.8776C111.268 19.9998 111.442 20.0609 111.631 20.0609C111.999 20.0609 112.362 19.8929 112.721 19.5569C113.079 19.2209 113.323 18.8086 113.452 18.3199C113.482 18.218 113.512 18.162 113.542 18.1519C113.572 18.1417 113.651 18.1315 113.781 18.1213H113.841C113.99 18.1213 114.064 18.162 114.064 18.2435C114.064 18.2537 114.055 18.3097 114.035 18.4115C113.875 18.9918 113.567 19.506 113.109 19.954C112.651 20.402 112.119 20.626 111.512 20.626C110.815 20.626 110.287 20.3053 109.929 19.6638C109.521 20.2951 109.053 20.6107 108.526 20.6107H108.436C107.948 20.6107 107.6 20.4783 107.391 20.2136C107.182 19.9489 107.072 19.6689 107.062 19.3736C107.062 19.0478 107.157 18.7831 107.346 18.5795C107.535 18.3759 107.759 18.274 108.018 18.274C108.446 18.274 108.66 18.4879 108.66 18.9155C108.66 19.1191 108.6 19.2973 108.481 19.45C108.361 19.6027 108.247 19.7045 108.137 19.7555C108.028 19.8064 107.963 19.8318 107.943 19.8318L107.899 19.8471C107.899 19.8573 107.928 19.8776 107.988 19.9082C108.048 19.9387 108.127 19.9744 108.227 20.0151C108.327 20.0558 108.421 20.0711 108.511 20.0609C108.869 20.0609 109.178 19.8318 109.436 19.3736C109.526 19.2107 109.64 18.8646 109.78 18.3351C109.919 17.8057 110.058 17.2559 110.198 16.6857C110.337 16.1156 110.417 15.7796 110.437 15.6778C110.486 15.4029 110.511 15.2043 110.511 15.0821C110.511 14.797 110.437 14.5934 110.287 14.4712C110.138 14.3491 109.969 14.288 109.78 14.288C109.382 14.288 109.008 14.4509 108.66 14.7767C108.312 15.1025 108.068 15.5199 107.928 16.029C107.909 16.1206 107.884 16.1716 107.854 16.1817C107.824 16.1919 107.744 16.2021 107.615 16.2123H107.406C107.346 16.1512 107.316 16.0952 107.316 16.0443Z" fill=""/>
<path d="M122.013 24.26C122.013 24.26 122.013 24.1664 122.013 23.9792C122.013 23.792 122.111 23.6479 122.308 23.5471H128.622V20.3069L128.643 17.0667C128.784 16.8795 128.918 16.7858 129.045 16.7858C129.228 16.7858 129.368 16.8939 129.467 17.1099V23.5471H135.76C135.971 23.6623 136.076 23.8064 136.076 23.9792C136.076 24.152 135.971 24.296 135.76 24.4112H129.467V30.8485C129.354 31.0501 129.228 31.1509 129.087 31.1509H129.045H129.002C128.833 31.1509 128.707 31.0501 128.622 30.8485V24.4112H122.308C122.111 24.3104 122.013 24.1664 122.013 23.9792V24.26Z" fill=""/>
<path d="M143.007 23.9359C143.007 22.2798 143.478 20.6885 144.422 19.162C145.365 17.6355 146.554 16.4258 147.99 15.5329C149.426 14.64 150.862 14.1864 152.298 14.172C153.565 14.172 154.572 14.5392 155.318 15.2737C155.445 15.4177 155.55 15.5401 155.635 15.6409C155.719 15.7417 155.775 15.8137 155.804 15.8569L155.825 15.9217C155.867 15.9217 156.057 15.7345 156.395 15.3601C156.493 15.2737 156.599 15.1729 156.712 15.0577C156.824 14.9425 156.937 14.8273 157.049 14.712C157.162 14.5968 157.232 14.5176 157.261 14.4744L157.577 14.1504H157.704C157.901 14.1504 158 14.2008 158 14.3016C158 14.3592 157.774 15.3457 157.324 17.261C156.817 19.2628 156.564 20.2708 156.564 20.2852C156.536 20.3573 156.5 20.4005 156.458 20.4149C156.416 20.4293 156.289 20.4437 156.078 20.4581H155.74C155.656 20.3717 155.614 20.3068 155.614 20.2636C155.614 20.2492 155.621 20.1988 155.635 20.1124C155.649 20.026 155.663 19.882 155.677 19.6804C155.691 19.4788 155.698 19.2484 155.698 18.9892C155.698 17.9667 155.473 17.0738 155.022 16.3106C154.572 15.5473 153.805 15.1585 152.721 15.1441C152.355 15.1441 151.96 15.1945 151.538 15.2953C151.116 15.3961 150.609 15.5689 150.018 15.8137C149.426 16.0585 148.842 16.4618 148.265 17.0234C147.688 17.5851 147.174 18.2547 146.723 19.0324C146.273 19.8532 145.914 20.8109 145.646 21.9054C145.379 22.9998 145.245 23.8927 145.245 24.584C145.245 26.2257 145.78 27.4066 146.85 28.1266C147.526 28.6162 148.356 28.8611 149.342 28.8611C150.623 28.8611 151.763 28.3714 152.763 27.3922C153.762 26.4129 154.424 25.3472 154.748 24.1951C154.804 24.0079 154.846 23.8999 154.874 23.8711C154.903 23.8423 155.015 23.8279 155.212 23.8279C155.494 23.8279 155.635 23.8927 155.635 24.0223C155.635 24.0943 155.628 24.1591 155.614 24.2167C155.205 25.7576 154.332 27.0825 152.995 28.1914C151.658 29.3003 150.222 29.8547 148.687 29.8547C147.096 29.8547 145.752 29.3147 144.654 28.2346C143.556 27.1545 143.007 25.7216 143.007 23.9359Z" fill=""/>
</svg>
