<svg width="200" height="50" viewBox="0 0 200 50" fill="none" xmlns="http://www.w3.org/2000/svg">
<path d="M1.2575 45.996C1.51326 46.3655 1.87559 46.5502 2.34449 46.5502H2.38712C2.78497 46.5502 3.18282 46.1239 3.58068 45.2714C3.97853 44.4188 4.34796 43.2537 4.68898 41.776C5.03 40.2982 5.3497 38.8134 5.64809 37.3214C5.94648 35.8295 6.24487 34.2167 6.54326 32.4832C6.58589 32.1849 6.62141 31.9646 6.64983 31.8225C7.67288 25.7837 8.78118 20.1853 9.97474 15.0274C11.1683 9.86957 12.0351 6.51624 12.575 4.96745C12.6602 4.71169 12.7313 4.49855 12.7881 4.32804C12.845 4.15754 12.9657 3.84494 13.1505 3.39025C13.3352 2.93556 13.527 2.5377 13.7259 2.19669C13.9249 1.85567 14.1664 1.50755 14.4506 1.15232C14.7348 0.797096 15.0474 0.512917 15.3884 0.299782C15.7294 0.086647 16.0917 -0.0128174 16.4754 0.00139236C17.2711 0.00139236 17.8679 0.25005 18.2657 0.747364C18.6636 1.24468 18.8909 1.81304 18.9477 2.45245C18.9477 2.80767 18.8625 3.09186 18.692 3.30499C18.5215 3.51813 18.3581 3.65311 18.2018 3.70995C18.0455 3.76678 17.8892 3.7881 17.7329 3.77389C17.4345 3.77389 17.1645 3.66732 16.923 3.45419C16.6814 3.24105 16.5606 2.94976 16.5606 2.58033C16.5606 1.8983 16.9372 1.49334 17.6902 1.36546L17.6263 1.2802C17.5837 1.23758 17.5268 1.18785 17.4558 1.13101C17.3848 1.07417 17.3279 1.03155 17.2853 1.00313C17.0722 0.861038 16.8377 0.789993 16.5819 0.789993C16.383 0.789993 16.1983 0.875248 16.0278 1.04575C15.8573 1.21626 15.6299 1.61412 15.3458 2.23932C15.0616 2.86451 14.7845 3.68864 14.5145 4.71169C14.2446 5.73474 13.9106 7.17695 13.5128 9.03834C13.1149 10.8997 12.7171 13.0879 12.3192 15.6029C11.4809 20.3629 10.607 24.8601 9.69767 29.0944C8.78829 33.3287 8.07784 36.3978 7.56631 38.3018C7.05479 40.2059 6.66404 41.5699 6.39407 42.394C5.29997 45.7048 3.95011 47.3601 2.34449 47.3601C1.77613 47.3601 1.2575 47.1399 0.788601 46.6994C0.319703 46.2589 0.0568361 45.655 0 44.8877C0 44.3904 0.134986 44.0494 0.404957 43.8647C0.674929 43.68 0.944901 43.5876 1.21487 43.5876C1.51326 43.5876 1.78323 43.6942 2.02479 43.9073C2.26634 44.1204 2.38712 44.4117 2.38712 44.7812C2.38712 45.4632 2.01058 45.8682 1.2575 45.996Z" fill=""/>
<path d="M26.7336 22.8707C26.7479 22.7855 26.7692 22.6718 26.7976 22.5297C26.826 22.3876 26.9113 22.1176 27.0533 21.7198C27.1954 21.3219 27.3375 20.988 27.4796 20.7181C27.6217 20.4481 27.8562 20.1852 28.183 19.9295C28.5098 19.6737 28.8366 19.5529 29.1634 19.5671C29.6749 19.5671 30.1012 19.695 30.4422 19.9508C30.7832 20.2065 30.9964 20.4481 31.0816 20.6754C31.1669 20.9028 31.2095 21.052 31.2095 21.123C31.2095 21.1514 31.2166 21.1656 31.2308 21.1656L31.4653 20.9312C32.332 20.0218 33.3195 19.5671 34.4278 19.5671C35.1951 19.5671 35.8132 19.7589 36.2821 20.1426C36.751 20.5262 36.9926 21.0875 37.0068 21.8264C37.021 22.5652 36.751 23.6806 36.1969 25.1726C35.6427 26.6645 35.3727 27.5668 35.3869 27.8794C35.3869 28.2488 35.5077 28.4336 35.7493 28.4336C35.8345 28.4336 35.8985 28.4265 35.9411 28.4123C36.3532 28.3412 36.7226 28.0712 37.0494 27.6023C37.3762 27.1334 37.6249 26.5651 37.7954 25.8973C37.8238 25.7836 37.9659 25.7267 38.2216 25.7267C38.5058 25.7267 38.6479 25.7836 38.6479 25.8973C38.6479 25.9115 38.6195 26.018 38.5627 26.217C38.449 26.629 38.2927 27.034 38.0938 27.4318C37.8948 27.8297 37.568 28.2275 37.1133 28.6254C36.6587 29.0232 36.1684 29.2151 35.6427 29.2009C34.9749 29.2009 34.4918 29.009 34.1934 28.6254C33.895 28.2417 33.7458 27.8439 33.7458 27.4318C33.7458 27.1619 34.0016 26.3093 34.5131 24.8742C35.0246 23.4391 35.2875 22.3592 35.3017 21.6345C35.3017 20.7962 34.9891 20.377 34.3639 20.377H34.2573C33.0354 20.377 32.0052 21.0946 31.1669 22.5297L31.0177 22.7855L30.3143 25.6415C29.8454 27.5029 29.5754 28.5046 29.5044 28.6467C29.3197 29.0303 29.0142 29.2222 28.5879 29.2222C28.4032 29.2222 28.254 29.1795 28.1403 29.0943C28.0267 29.009 27.9485 28.9238 27.9059 28.8385C27.8633 28.7533 27.8491 28.6822 27.8633 28.6254C27.8633 28.4407 28.1332 27.2826 28.6732 25.1513C29.2131 23.0199 29.4973 21.8619 29.5257 21.6772C29.5399 21.6061 29.547 21.4427 29.547 21.187C29.547 20.6328 29.3765 20.3557 29.0355 20.3557C28.4956 20.3557 28.048 21.0662 27.6928 22.4871C27.6075 22.7713 27.5649 22.9205 27.5649 22.9347C27.5365 23.0199 27.4015 23.0626 27.1599 23.0626H26.8615C26.7763 22.9773 26.7336 22.9134 26.7336 22.8707Z" fill=""/>
<path d="M39.8577 15.8305C39.9281 15.4085 40.1993 14.9213 40.6714 14.3688C41.1436 13.8163 41.7262 13.535 42.4194 13.525C42.771 13.525 43.0925 13.6154 43.3838 13.7962C43.6751 13.977 43.8911 14.2031 44.0318 14.4743C44.4537 13.8414 44.961 13.525 45.5537 13.525C45.9254 13.525 46.2469 13.6355 46.5181 13.8565C46.7893 14.0775 46.93 14.3738 46.94 14.7455C46.94 15.0369 46.8697 15.2729 46.729 15.4538C46.5884 15.6346 46.4528 15.7451 46.3222 15.7853C46.1916 15.8254 46.0761 15.8455 45.9756 15.8455C45.7847 15.8455 45.629 15.7903 45.5085 15.6798C45.3879 15.5693 45.3277 15.4236 45.3277 15.2428C45.3277 14.7807 45.5788 14.4642 46.0811 14.2935C45.9706 14.1629 45.7697 14.0976 45.4783 14.0976C45.3478 14.0976 45.2523 14.1076 45.192 14.1277C44.8103 14.2884 44.529 14.62 44.3482 15.1222C43.7455 17.3424 43.4441 18.6383 43.4441 19.01C43.4441 19.2912 43.5244 19.4922 43.6852 19.6127C43.8459 19.7333 44.0217 19.7935 44.2126 19.7935C44.5843 19.7935 44.9509 19.6278 45.3126 19.2963C45.6742 18.9648 45.9204 18.5579 46.051 18.0757C46.0811 17.9752 46.1112 17.92 46.1414 17.9099C46.1715 17.8999 46.2519 17.8899 46.3825 17.8798H46.4427C46.5934 17.8798 46.6688 17.92 46.6688 18.0004C46.6688 18.0104 46.6587 18.0657 46.6386 18.1661C46.4779 18.7387 46.1665 19.246 45.7044 19.6881C45.2423 20.1301 44.7048 20.3511 44.092 20.3511C43.3888 20.3511 42.8564 20.0346 42.4947 19.4017C42.0829 20.0246 41.6107 20.336 41.0783 20.336H40.9879C40.4956 20.336 40.144 20.2054 39.9331 19.9442C39.7221 19.683 39.6116 19.4068 39.6016 19.1154C39.6016 18.794 39.697 18.5328 39.8879 18.3319C40.0787 18.131 40.3048 18.0305 40.566 18.0305C40.9979 18.0305 41.2139 18.2415 41.2139 18.6634C41.2139 18.8643 41.1536 19.0401 41.0331 19.1908C40.9125 19.3415 40.797 19.4419 40.6865 19.4922C40.576 19.5424 40.5107 19.5675 40.4906 19.5675L40.4454 19.5826C40.4454 19.5926 40.4755 19.6127 40.5358 19.6428C40.5961 19.673 40.6765 19.7081 40.7769 19.7483C40.8774 19.7885 40.9728 19.8036 41.0632 19.7935C41.4249 19.7935 41.7363 19.5675 41.9975 19.1154C42.0879 18.9547 42.2034 18.6132 42.3441 18.0908C42.4847 17.5684 42.6253 17.0259 42.766 16.4634C42.9066 15.9008 42.987 15.5693 43.0071 15.4688C43.0573 15.1976 43.0824 15.0017 43.0824 14.8811C43.0824 14.5999 43.0071 14.3989 42.8564 14.2784C42.7057 14.1578 42.5349 14.0976 42.3441 14.0976C41.9422 14.0976 41.5655 14.2583 41.2139 14.5798C40.8623 14.9012 40.6162 15.3131 40.4755 15.8154C40.4555 15.9058 40.4303 15.956 40.4002 15.9661C40.3701 15.9761 40.2897 15.9862 40.1591 15.9962H39.9481C39.8879 15.936 39.8577 15.8807 39.8577 15.8305Z" fill=""/>
<path d="M56.5598 14.4306C56.574 14.4306 57.0855 14.3951 58.0944 14.3241C59.1032 14.253 59.6219 14.2104 59.6503 14.1962C59.8208 14.1962 59.906 14.253 59.906 14.3667C59.906 14.4662 59.3874 16.6117 58.3502 20.8034C57.3129 24.9951 56.7801 27.1335 56.7516 27.2188C56.7232 27.304 56.7161 27.4106 56.7303 27.5385C56.7303 28.1353 56.9293 28.4336 57.3271 28.4336C57.455 28.4194 57.5971 28.3555 57.7534 28.2418C58.0518 27.9576 58.3431 27.2756 58.6272 26.1957C58.7125 25.9115 58.7835 25.7623 58.8404 25.7481C58.8688 25.7339 58.9398 25.7268 59.0535 25.7268H59.1388H59.224C59.4371 25.7268 59.5437 25.7837 59.5437 25.8973C59.5437 25.9684 59.5224 26.082 59.4798 26.2383C59.2951 26.9488 59.0819 27.5243 58.8404 27.9647C58.5988 28.4052 58.3999 28.6894 58.2436 28.8173C58.0873 28.9452 57.8884 29.0588 57.6468 29.1583C57.5331 29.1867 57.3626 29.2009 57.1353 29.2009C56.6522 29.2009 56.2472 29.0944 55.9204 28.8812C55.5936 28.6681 55.3805 28.4478 55.281 28.2205L55.1531 27.9008C55.1389 27.8866 55.1105 27.8937 55.0679 27.9221C55.0394 27.9505 55.011 27.979 54.9826 28.0074C54.1443 28.8031 53.2917 29.2009 52.425 29.2009C51.6435 29.2009 50.9544 28.9167 50.3576 28.3484C49.7608 27.78 49.4624 26.8778 49.4624 25.6416C49.4624 24.9595 49.6045 24.2633 49.8887 23.5528C50.1729 22.8424 50.5139 22.2314 50.9117 21.7199C51.5795 20.91 52.2474 20.3487 52.9152 20.0361C53.583 19.7235 54.1869 19.5672 54.7269 19.5672C55.5226 19.5672 56.1193 19.8656 56.5172 20.4624C56.5882 20.5476 56.6238 20.576 56.6238 20.5476C56.638 20.4908 56.8298 19.7164 57.1992 18.2244C57.5687 16.7325 57.7676 15.9439 57.796 15.8586C57.796 15.6739 57.7463 15.5603 57.6468 15.5176C57.5473 15.475 57.2703 15.4395 56.8156 15.4111H56.368C56.2827 15.3258 56.2401 15.269 56.2401 15.2406C56.2401 15.2121 56.2543 15.0771 56.2827 14.8356C56.3538 14.5656 56.4461 14.4306 56.5598 14.4306ZM56.2614 22.0396C55.9346 20.9171 55.4018 20.3558 54.6629 20.3558C54.1656 20.3558 53.6896 20.576 53.2349 21.0165C52.7802 21.457 52.425 22.0325 52.1692 22.7429C51.7572 23.8654 51.4659 25.0306 51.2954 26.2383C51.2954 26.281 51.2954 26.3591 51.2954 26.4728C51.2954 26.5865 51.2883 26.6717 51.2741 26.7286C51.2741 27.368 51.4019 27.8084 51.6577 28.05C51.9135 28.2915 52.219 28.4194 52.5742 28.4336C53.3415 28.4336 54.1301 27.9221 54.94 26.8991L55.1105 26.6646L56.2614 22.0396Z" fill=""/>
<path d="M60.9503 22.8281C61.0498 22.2313 61.4335 21.5422 62.1013 20.7607C62.7691 19.9792 63.5932 19.5813 64.5736 19.5671C65.071 19.5671 65.5257 19.695 65.9377 19.9508C66.3498 20.2065 66.6553 20.5262 66.8542 20.9099C67.451 20.0147 68.1685 19.5671 69.0069 19.5671C69.5326 19.5671 69.9873 19.7234 70.3709 20.036C70.7546 20.3486 70.9535 20.7678 70.9677 21.2935C70.9677 21.7056 70.8682 22.0395 70.6693 22.2953C70.4704 22.551 70.2786 22.7073 70.0939 22.7642C69.9091 22.821 69.7457 22.8494 69.6036 22.8494C69.3337 22.8494 69.1134 22.7713 68.9429 22.615C68.7724 22.4587 68.6872 22.2526 68.6872 21.9969C68.6872 21.3433 69.0424 20.8957 69.7528 20.6541C69.5965 20.4694 69.3124 20.377 68.9003 20.377C68.7156 20.377 68.5806 20.3913 68.4953 20.4197C67.9554 20.647 67.5575 21.1159 67.3018 21.8264C66.4492 24.9666 66.023 26.7995 66.023 27.3253C66.023 27.7231 66.1366 28.0073 66.364 28.1778C66.5913 28.3483 66.84 28.4336 67.11 28.4336C67.6357 28.4336 68.1543 28.1991 68.6658 27.7302C69.1774 27.2613 69.5255 26.6859 69.7102 26.0038C69.7528 25.8617 69.7955 25.7836 69.8381 25.7694C69.8807 25.7552 69.9944 25.741 70.1791 25.7267H70.2644C70.4775 25.7267 70.5841 25.7836 70.5841 25.8973C70.5841 25.9115 70.5699 25.9896 70.5414 26.1317C70.3141 26.9416 69.8736 27.6592 69.22 28.2844C68.5664 28.9096 67.8062 29.2222 66.9395 29.2222C65.9448 29.2222 65.1917 28.7746 64.6802 27.8794C64.0976 28.7604 63.4298 29.2009 62.6767 29.2009H62.5489C61.8526 29.2009 61.3553 29.0161 61.0569 28.6467C60.7585 28.2773 60.6022 27.8865 60.588 27.4745C60.588 27.0198 60.723 26.6503 60.993 26.3662C61.2629 26.082 61.5826 25.9399 61.9521 25.9399C62.5631 25.9399 62.8686 26.2383 62.8686 26.835C62.8686 27.1192 62.7833 27.3679 62.6128 27.581C62.4423 27.7942 62.2789 27.9363 62.1226 28.0073C61.9663 28.0783 61.8739 28.1139 61.8455 28.1139L61.7816 28.1352C61.7816 28.1494 61.8242 28.1778 61.9095 28.2204C61.9947 28.2631 62.1084 28.3128 62.2505 28.3696C62.3926 28.4265 62.5275 28.4478 62.6554 28.4336C63.167 28.4336 63.6074 28.1139 63.9769 27.4745C64.1047 27.2471 64.2682 26.764 64.4671 26.0251C64.666 25.2863 64.8649 24.519 65.0639 23.7233C65.2628 22.9276 65.3765 22.4587 65.4049 22.3166C65.4759 21.9329 65.5114 21.6559 65.5114 21.4853C65.5114 21.0875 65.4049 20.8033 65.1917 20.6328C64.9786 20.4623 64.7371 20.377 64.4671 20.377C63.8987 20.377 63.3659 20.6044 62.8686 21.0591C62.3712 21.5138 62.0231 22.0963 61.8242 22.8068C61.7958 22.9347 61.7603 23.0057 61.7176 23.0199C61.675 23.0341 61.5613 23.0483 61.3766 23.0626H61.0782C60.993 22.9773 60.9503 22.8991 60.9503 22.8281Z" fill=""/>
<path d="M79.1478 21.592C79.1478 21.4073 79.2473 21.2652 79.4462 21.1657H93.023C93.2361 21.2794 93.3427 21.4215 93.3427 21.592C93.3427 21.7483 93.2432 21.8833 93.0443 21.9969L86.2666 22.0182H79.4888C79.2615 21.9472 79.1478 21.8051 79.1478 21.592ZM79.1478 25.7268C79.1478 25.5137 79.2615 25.3716 79.4888 25.3005H93.0443C93.2432 25.4426 93.3427 25.5847 93.3427 25.7268C93.3427 25.9115 93.2361 26.0536 93.023 26.1531H79.4462C79.2473 26.0536 79.1478 25.9115 79.1478 25.7268Z" fill=""/>
<path d="M118.314 8.46277C118.328 8.37752 118.349 8.26384 118.378 8.12175C118.406 7.97966 118.491 7.70969 118.633 7.31184C118.775 6.91398 118.917 6.58007 119.06 6.3101C119.202 6.04013 119.436 5.77726 119.763 5.5215C120.09 5.26574 120.417 5.14496 120.743 5.15917C121.255 5.15917 121.681 5.28705 122.022 5.54281C122.363 5.79858 122.576 6.04013 122.662 6.26747C122.747 6.49482 122.789 6.64401 122.789 6.71506C122.789 6.74348 122.797 6.75768 122.811 6.75768L123.045 6.52324C123.912 5.61386 124.899 5.15917 126.008 5.15917C126.775 5.15917 127.393 5.35099 127.862 5.73463C128.331 6.11828 128.573 6.67953 128.587 7.41841C128.601 8.15728 128.331 9.27268 127.777 10.7646C127.223 12.2566 126.953 13.1589 126.967 13.4715C126.967 13.8409 127.088 14.0256 127.329 14.0256C127.414 14.0256 127.478 14.0185 127.521 14.0043C127.933 13.9332 128.303 13.6633 128.629 13.1944C128.956 12.7255 129.205 12.1571 129.375 11.4893C129.404 11.3756 129.546 11.3188 129.802 11.3188C130.086 11.3188 130.228 11.3756 130.228 11.4893C130.228 11.5035 130.199 11.6101 130.143 11.809C130.029 12.2211 129.873 12.626 129.674 13.0239C129.475 13.4217 129.148 13.8196 128.693 14.2174C128.239 14.6153 127.748 14.8071 127.223 14.7929C126.555 14.7929 126.072 14.6011 125.773 14.2174C125.475 13.8338 125.326 13.4359 125.326 13.0239C125.326 12.7539 125.582 11.9014 126.093 10.4662C126.605 9.03113 126.867 7.95124 126.882 7.22658C126.882 6.38825 126.569 5.96908 125.944 5.96908H125.837C124.615 5.96908 123.585 6.68664 122.747 8.12175L122.598 8.37752L121.894 11.2335C121.425 13.0949 121.155 14.0967 121.084 14.2387C120.9 14.6224 120.594 14.8142 120.168 14.8142C119.983 14.8142 119.834 14.7716 119.72 14.6863C119.607 14.6011 119.528 14.5158 119.486 14.4306C119.443 14.3453 119.429 14.2743 119.443 14.2174C119.443 14.0327 119.713 12.8747 120.253 10.7433C120.793 8.61196 121.077 7.45393 121.106 7.26921C121.12 7.19816 121.127 7.03476 121.127 6.779C121.127 6.22485 120.956 5.94777 120.615 5.94777C120.076 5.94777 119.628 6.65822 119.273 8.07913C119.187 8.36331 119.145 8.5125 119.145 8.52671C119.116 8.61196 118.981 8.65459 118.74 8.65459H118.441C118.356 8.56934 118.314 8.5054 118.314 8.46277Z" fill=""/>
<path d="M131.438 2.48818C131.508 2.06626 131.779 1.57904 132.251 1.02652C132.724 0.474004 133.306 0.192721 133.999 0.182676C134.351 0.182676 134.672 0.273088 134.964 0.453912C135.255 0.634736 135.471 0.860766 135.612 1.132C136.034 0.499118 136.541 0.182676 137.134 0.182676C137.505 0.182676 137.827 0.29318 138.098 0.514187C138.369 0.735194 138.51 1.03154 138.52 1.40324C138.52 1.69457 138.45 1.93064 138.309 2.11147C138.168 2.29229 138.033 2.40279 137.902 2.44298C137.772 2.48316 137.656 2.50325 137.556 2.50325C137.365 2.50325 137.209 2.448 137.088 2.3375C136.968 2.22699 136.908 2.08133 136.908 1.90051C136.908 1.4384 137.159 1.12196 137.661 0.951179C137.551 0.820583 137.35 0.755286 137.058 0.755286C136.928 0.755286 136.832 0.765331 136.772 0.785423C136.39 0.946156 136.109 1.27767 135.928 1.77996C135.325 4.00008 135.024 5.29598 135.024 5.66768C135.024 5.94896 135.104 6.14987 135.265 6.27042C135.426 6.39097 135.602 6.45125 135.793 6.45125C136.164 6.45125 136.531 6.28549 136.893 5.95398C137.254 5.62247 137.5 5.21562 137.631 4.73342C137.661 4.63296 137.691 4.57771 137.721 4.56766C137.751 4.55762 137.832 4.54757 137.962 4.53753H138.023C138.173 4.53753 138.249 4.57771 138.249 4.65807C138.249 4.66812 138.239 4.72337 138.219 4.82383C138.058 5.39644 137.746 5.90375 137.284 6.34577C136.822 6.78778 136.285 7.00879 135.672 7.00879C134.969 7.00879 134.436 6.69235 134.075 6.05946C133.663 6.6823 133.191 6.99372 132.658 6.99372H132.568C132.076 6.99372 131.724 6.86313 131.513 6.60193C131.302 6.34074 131.192 6.06448 131.182 5.77316C131.182 5.45169 131.277 5.1905 131.468 4.98959C131.659 4.78867 131.885 4.68821 132.146 4.68821C132.578 4.68821 132.794 4.89917 132.794 5.3211C132.794 5.52201 132.734 5.69781 132.613 5.8485C132.492 5.99919 132.377 6.09965 132.266 6.14987C132.156 6.2001 132.091 6.22522 132.071 6.22522L132.025 6.24029C132.025 6.25033 132.056 6.27042 132.116 6.30056C132.176 6.3307 132.256 6.36586 132.357 6.40604C132.457 6.44622 132.553 6.46129 132.643 6.45125C133.005 6.45125 133.316 6.22522 133.577 5.77316C133.668 5.61242 133.783 5.27087 133.924 4.74849C134.065 4.22611 134.205 3.68363 134.346 3.12107C134.487 2.5585 134.567 2.22699 134.587 2.12654C134.637 1.8553 134.662 1.65941 134.662 1.53886C134.662 1.25758 134.587 1.05666 134.436 0.93611C134.286 0.81556 134.115 0.755286 133.924 0.755286C133.522 0.755286 133.145 0.916018 132.794 1.23748C132.442 1.55895 132.196 1.97083 132.056 2.47312C132.035 2.56353 132.01 2.61376 131.98 2.6238C131.95 2.63385 131.87 2.64389 131.739 2.65394H131.528C131.468 2.59367 131.438 2.53841 131.438 2.48818Z" fill=""/>
<path d="M107.64 42.8629C107.64 43.3318 107.817 43.5662 108.173 43.5662C108.698 43.5662 109.146 42.8203 109.515 41.3283C109.601 41.0441 109.672 40.8949 109.729 40.8807C109.757 40.8665 109.828 40.8594 109.942 40.8594H110.027C110.155 40.8594 110.24 40.8594 110.283 40.8594C110.325 40.8594 110.361 40.8736 110.389 40.902C110.418 40.9305 110.432 40.9802 110.432 41.0512C110.418 41.1365 110.396 41.2502 110.368 41.3923C110.34 41.5343 110.261 41.8043 110.134 42.2022C110.006 42.6 109.864 42.9339 109.707 43.2039C109.551 43.4739 109.331 43.7367 109.047 43.9925C108.762 44.2483 108.436 44.369 108.066 44.3548C107.555 44.3548 107.079 44.1985 106.638 43.8859C106.198 43.5733 105.97 43.0476 105.956 42.3087C105.956 42.1382 105.963 42.0174 105.977 41.9464L107.363 36.4475C108.258 32.8242 108.706 30.9557 108.706 30.842C108.706 30.7994 108.698 30.7639 108.684 30.7355C108.67 30.7071 108.642 30.6786 108.599 30.6502C108.556 30.6218 108.521 30.6076 108.492 30.6076C108.464 30.6076 108.407 30.6005 108.322 30.5863C108.237 30.5721 108.18 30.565 108.151 30.565C108.123 30.565 108.059 30.5579 107.96 30.5437C107.86 30.5294 107.789 30.5294 107.746 30.5437C107.604 30.5437 107.512 30.5437 107.469 30.5437C107.427 30.5437 107.37 30.5365 107.299 30.5223C107.228 30.5081 107.185 30.4868 107.171 30.4584C107.157 30.43 107.15 30.3874 107.15 30.3305C107.15 30.3021 107.164 30.2026 107.192 30.0321C107.263 29.7622 107.341 29.613 107.427 29.5845C107.512 29.5561 108.023 29.5135 108.961 29.4567C109.174 29.4425 109.416 29.4282 109.686 29.414C109.956 29.3998 110.169 29.3785 110.325 29.3501C110.482 29.3217 110.56 29.3146 110.56 29.3288C110.73 29.3288 110.816 29.3856 110.816 29.4993C110.816 29.6556 110.297 31.7869 109.26 35.8934C108.222 39.9998 107.69 42.1524 107.661 42.3514C107.661 42.3798 107.661 42.4366 107.661 42.5219C107.661 42.6071 107.654 42.6782 107.64 42.735V42.8629Z" fill=""/>
<path d="M111.945 38.0033C111.959 37.918 111.981 37.8044 112.009 37.6623C112.038 37.5202 112.123 37.2502 112.265 36.8524C112.407 36.4545 112.549 36.1206 112.691 35.8506C112.833 35.5807 113.068 35.3178 113.395 35.062C113.721 34.8063 114.048 34.6855 114.375 34.6997C114.886 34.6997 115.313 34.8276 115.654 35.0833C115.995 35.3391 116.208 35.5807 116.293 35.808C116.378 36.0353 116.421 36.1845 116.421 36.2556C116.421 36.284 116.428 36.2982 116.442 36.2982L116.677 36.0638C117.544 35.1544 118.531 34.6997 119.639 34.6997C120.407 34.6997 121.025 34.8915 121.494 35.2752C121.963 35.6588 122.204 36.2201 122.218 36.9589C122.233 37.6978 121.963 38.8132 121.408 40.3052C120.854 41.7971 120.584 42.6994 120.598 43.012C120.598 43.3814 120.719 43.5661 120.961 43.5661C121.046 43.5661 121.11 43.559 121.153 43.5448C121.565 43.4738 121.934 43.2038 122.261 42.7349C122.588 42.266 122.836 41.6976 123.007 41.0298C123.035 40.9161 123.177 40.8593 123.433 40.8593C123.717 40.8593 123.859 40.9161 123.859 41.0298C123.859 41.044 123.831 41.1506 123.774 41.3495C123.661 41.7616 123.504 42.1665 123.305 42.5644C123.106 42.9623 122.78 43.3601 122.325 43.758C121.87 44.1558 121.38 44.3476 120.854 44.3334C120.186 44.3334 119.703 44.1416 119.405 43.758C119.107 43.3743 118.957 42.9765 118.957 42.5644C118.957 42.2944 119.213 41.4419 119.725 40.0068C120.236 38.5717 120.499 37.4918 120.513 36.7671C120.513 35.9288 120.201 35.5096 119.575 35.5096H119.469C118.247 35.5096 117.217 36.2272 116.378 37.6623L116.229 37.918L115.526 40.7741C115.057 42.6354 114.787 43.6372 114.716 43.7793C114.531 44.1629 114.226 44.3547 113.799 44.3547C113.615 44.3547 113.466 44.3121 113.352 44.2269C113.238 44.1416 113.16 44.0563 113.117 43.9711C113.075 43.8858 113.061 43.8148 113.075 43.758C113.075 43.5732 113.345 42.4152 113.885 40.2838C114.425 38.1525 114.709 36.9945 114.737 36.8097C114.751 36.7387 114.759 36.5753 114.759 36.3195C114.759 35.7654 114.588 35.4883 114.247 35.4883C113.707 35.4883 113.26 36.1987 112.904 37.6197C112.819 37.9038 112.776 38.053 112.776 38.0672C112.748 38.1525 112.613 38.1951 112.371 38.1951H112.073C111.988 38.1099 111.945 38.0459 111.945 38.0033Z" fill=""/>
<path d="M126.289 38.792C126.289 37.8115 126.36 36.8808 126.502 35.9999C126.644 35.1189 126.808 34.3587 126.993 33.7193C127.177 33.0799 127.44 32.4547 127.781 31.8437C128.122 31.2327 128.392 30.7567 128.591 30.4157C128.79 30.0747 129.088 29.7053 129.486 29.3074C129.884 28.9096 130.119 28.668 130.19 28.5828C130.261 28.4975 130.438 28.3483 130.722 28.1352H130.999H131.085C131.284 28.1352 131.383 28.1991 131.383 28.327C131.383 28.3696 131.262 28.5188 131.021 28.7746C130.779 29.0303 130.488 29.4069 130.147 29.9042C129.806 30.4015 129.458 31.0125 129.103 31.7372C128.747 32.4618 128.449 33.4423 128.207 34.6784C127.966 35.9146 127.845 37.2858 127.845 38.792C127.845 40.2981 127.966 41.6622 128.207 42.8842C128.449 44.1061 128.74 45.0937 129.081 45.8467C129.422 46.5998 129.77 47.2108 130.126 47.6797C130.481 48.1486 130.779 48.5251 131.021 48.8093C131.262 49.0935 131.383 49.2427 131.383 49.2569C131.383 49.3848 131.277 49.4487 131.063 49.4487H130.999H130.722L130.126 48.9372C128.79 47.7294 127.817 46.2233 127.206 44.4187C126.595 42.6142 126.289 40.7386 126.289 38.792Z" fill=""/>
<path d="M133.685 37.9607C133.784 37.3639 134.168 36.6748 134.836 35.8933C135.504 35.1118 136.328 34.7139 137.308 34.6997C137.806 34.6997 138.26 34.8276 138.672 35.0833C139.084 35.3391 139.39 35.6588 139.589 36.0424C140.186 35.1473 140.903 34.6997 141.741 34.6997C142.267 34.6997 142.722 34.856 143.106 35.1686C143.489 35.4812 143.688 35.9004 143.702 36.4261C143.702 36.8382 143.603 37.1721 143.404 37.4278C143.205 37.6836 143.013 37.8399 142.828 37.8967C142.644 37.9536 142.48 37.982 142.338 37.982C142.068 37.982 141.848 37.9038 141.678 37.7475C141.507 37.5912 141.422 37.3852 141.422 37.1294C141.422 36.4758 141.777 36.0282 142.487 35.7867C142.331 35.602 142.047 35.5096 141.635 35.5096C141.45 35.5096 141.315 35.5238 141.23 35.5522C140.69 35.7796 140.292 36.2485 140.036 36.9589C139.184 40.0991 138.758 41.9321 138.758 42.4578C138.758 42.8557 138.871 43.1399 139.099 43.3104C139.326 43.4809 139.575 43.5661 139.845 43.5661C140.37 43.5661 140.889 43.3317 141.4 42.8628C141.912 42.3939 142.26 41.8184 142.445 41.1364C142.487 40.9943 142.53 40.9161 142.573 40.9019C142.615 40.8877 142.729 40.8735 142.914 40.8593H142.999C143.212 40.8593 143.319 40.9161 143.319 41.0298C143.319 41.044 143.304 41.1222 143.276 41.2643C143.049 42.0742 142.608 42.7917 141.955 43.4169C141.301 44.0421 140.541 44.3547 139.674 44.3547C138.679 44.3547 137.926 43.9072 137.415 43.012C136.832 43.8929 136.164 44.3334 135.411 44.3334H135.283C134.587 44.3334 134.09 44.1487 133.792 43.7793C133.493 43.4098 133.337 43.0191 133.323 42.607C133.323 42.1523 133.458 41.7829 133.728 41.4987C133.998 41.2145 134.317 41.0724 134.687 41.0724C135.298 41.0724 135.603 41.3708 135.603 41.9676C135.603 42.2518 135.518 42.5005 135.347 42.7136C135.177 42.9267 135.014 43.0688 134.857 43.1399C134.701 43.2109 134.609 43.2464 134.58 43.2464L134.516 43.2677C134.516 43.282 134.559 43.3104 134.644 43.353C134.729 43.3956 134.843 43.4454 134.985 43.5022C135.127 43.559 135.262 43.5803 135.39 43.5661C135.902 43.5661 136.342 43.2464 136.711 42.607C136.839 42.3797 137.003 41.8966 137.202 41.1577C137.401 40.4188 137.6 39.6515 137.798 38.8558C137.997 38.0601 138.111 37.5912 138.139 37.4491C138.211 37.0655 138.246 36.7884 138.246 36.6179C138.246 36.2201 138.139 35.9359 137.926 35.7654C137.713 35.5949 137.472 35.5096 137.202 35.5096C136.633 35.5096 136.1 35.737 135.603 36.1916C135.106 36.6463 134.758 37.2289 134.559 37.9394C134.53 38.0672 134.495 38.1383 134.452 38.1525C134.41 38.1667 134.296 38.1809 134.111 38.1951H133.813C133.728 38.1099 133.685 38.0317 133.685 37.9607Z" fill=""/>
<path d="M146.047 28.1565L146.132 28.1352C146.203 28.1352 146.274 28.1352 146.345 28.1352H146.601L147.198 28.6467C148.533 29.8545 149.507 31.3606 150.118 33.1652C150.729 34.9697 151.034 36.8453 151.034 38.792C151.034 39.7582 150.963 40.6889 150.821 41.584C150.679 42.4792 150.516 43.2394 150.331 43.8646C150.146 44.4898 149.883 45.115 149.542 45.7402C149.201 46.3654 148.931 46.8414 148.732 47.1682C148.533 47.495 148.242 47.8573 147.859 48.2552C147.475 48.653 147.248 48.8875 147.176 48.9585C147.105 49.0296 146.942 49.1645 146.686 49.3635C146.644 49.4061 146.615 49.4345 146.601 49.4487H146.345C146.232 49.4487 146.153 49.4487 146.111 49.4487C146.068 49.4487 146.033 49.4274 146.004 49.3848C145.976 49.3422 145.955 49.2782 145.94 49.193C145.955 49.1788 146.033 49.0864 146.175 48.9159C148.377 46.6282 149.478 43.2536 149.478 38.792C149.478 34.3303 148.377 30.9557 146.175 28.668C146.033 28.4975 145.955 28.4051 145.94 28.3909C145.94 28.2773 145.976 28.1991 146.047 28.1565Z" fill=""/>
<path d="M155.19 24.2988H103.015V23.02H155.19V24.2988Z" fill=""/>
<path d="M163.677 23.9363C163.677 23.9363 163.677 23.844 163.677 23.6593C163.677 23.4745 163.777 23.3324 163.976 23.233H170.349V20.0359L170.37 16.8389C170.512 16.6542 170.647 16.5618 170.775 16.5618C170.96 16.5618 171.102 16.6684 171.201 16.8815V23.233H177.553C177.766 23.3467 177.872 23.4887 177.872 23.6593C177.872 23.8298 177.766 23.9719 177.553 24.0855H171.201V30.437C171.088 30.6359 170.96 30.7354 170.818 30.7354H170.775H170.732C170.562 30.7354 170.434 30.6359 170.349 30.437V24.0855H163.976C163.777 23.9861 163.677 23.844 163.677 23.6593V23.9363Z" fill=""/>
<path d="M184.867 23.6166C184.867 21.9826 185.343 20.4125 186.295 18.9063C187.247 17.4002 188.448 16.2066 189.897 15.3257C191.347 14.4447 192.796 13.9971 194.245 13.9829C195.524 13.9829 196.54 14.3452 197.293 15.0699C197.421 15.212 197.528 15.3328 197.613 15.4322C197.698 15.5317 197.755 15.6027 197.783 15.6454L197.805 15.7093C197.847 15.7093 198.039 15.5246 198.38 15.1551C198.48 15.0699 198.586 14.9704 198.7 14.8568C198.814 14.7431 198.927 14.6294 199.041 14.5157C199.155 14.4021 199.226 14.3239 199.254 14.2813L199.574 13.9616H199.702C199.901 13.9616 200 14.0113 200 14.1108C200 14.1676 199.773 15.1409 199.318 17.0307C198.806 19.0058 198.551 20.0004 198.551 20.0146C198.522 20.0857 198.487 20.1283 198.444 20.1425C198.402 20.1567 198.274 20.1709 198.061 20.1851H197.72C197.634 20.0999 197.592 20.036 197.592 19.9933C197.592 19.9791 197.599 19.9294 197.613 19.8441C197.627 19.7589 197.641 19.6168 197.656 19.4179C197.67 19.2189 197.677 18.9916 197.677 18.7358C197.677 17.727 197.45 16.846 196.995 16.0929C196.54 15.3399 195.766 14.9562 194.672 14.942C194.302 14.942 193.904 14.9917 193.478 15.0912C193.052 15.1907 192.54 15.3612 191.944 15.6027C191.347 15.8443 190.757 16.2421 190.175 16.7963C189.592 17.3504 189.073 18.0112 188.619 18.7785C188.164 19.5884 187.802 20.5333 187.532 21.6132C187.262 22.693 187.127 23.574 187.127 24.256C187.127 25.8759 187.667 27.041 188.746 27.7515C189.429 28.2346 190.267 28.4761 191.261 28.4761C192.555 28.4761 193.705 27.993 194.714 27.0268C195.723 26.0606 196.391 25.0091 196.718 23.8724C196.775 23.6877 196.817 23.5811 196.846 23.5527C196.874 23.5243 196.988 23.5101 197.187 23.5101C197.471 23.5101 197.613 23.574 197.613 23.7019C197.613 23.7729 197.606 23.8369 197.592 23.8937C197.18 25.4141 196.299 26.7213 194.949 27.8154C193.599 28.9095 192.15 29.4565 190.601 29.4565C188.995 29.4565 187.638 28.9237 186.53 27.858C185.422 26.7923 184.867 25.3785 184.867 23.6166Z" fill=""/>
</svg>
