<svg width="97" height="98" viewBox="0 0 97 98" fill="none" xmlns="http://www.w3.org/2000/svg">
<path d="M62.1611 51.2917C61.9735 60.1004 60.2562 68.0303 57.6415 73.7286C56.334 76.5781 54.8072 78.8583 53.1453 80.4128C51.4846 81.9661 49.7021 82.7836 47.8715 82.7446C46.0409 82.7057 44.2949 81.813 42.7018 80.1904C41.1076 78.5666 39.6793 76.2235 38.4942 73.3209C36.1244 67.5165 34.7463 59.5206 34.9339 50.7119C35.1215 41.9032 36.8387 33.9733 39.4534 28.2751C40.761 25.4255 42.2878 23.1453 43.9497 21.5909C45.6104 20.0376 47.3928 19.22 49.2234 19.259C51.054 19.298 52.8001 20.1907 54.3931 21.8133C55.9873 23.437 57.4157 25.7802 58.6008 28.6828C60.9705 34.4872 62.3486 42.483 62.1611 51.2917Z" stroke="white" stroke-width="0.5"/>
<path d="M64.2939 51.3376C64.1063 60.1463 62.3891 68.0762 59.7743 73.7745C58.4668 76.624 56.94 78.9042 55.2781 80.4587C53.6174 82.012 51.835 82.8295 50.0043 82.7905C48.1737 82.7516 46.4277 81.8589 44.8346 80.2363C43.2404 78.6125 41.8121 76.2694 40.627 73.3668C38.2572 67.5624 36.8791 59.5665 37.0667 50.7578C37.2543 41.9491 38.9715 34.0192 41.5863 28.321C42.8938 25.4714 44.4206 23.1912 46.0825 21.6368C47.7432 20.0835 49.5256 19.2659 51.3562 19.3049C53.1869 19.3439 54.9329 20.2366 56.5259 21.8592C58.1202 23.4829 59.5485 25.8261 60.7336 28.7287C63.1033 34.5331 64.4815 42.5289 64.2939 51.3376Z" stroke="white" stroke-width="0.5"/>
<path d="M66.4267 51.3825C66.2391 60.1912 64.5219 68.1212 61.9071 73.8194C60.5996 76.669 59.0728 78.9492 57.4109 80.5036C55.7502 82.0569 53.9678 82.8744 52.1372 82.8355C50.3065 82.7965 48.5605 81.9038 46.9675 80.2812C45.3733 78.6574 43.9449 76.3143 42.7598 73.4117C40.3901 67.6073 39.012 59.6115 39.1995 50.8028C39.3871 41.9941 41.1043 34.0642 43.7191 28.3659C45.0266 25.5163 46.5534 23.2361 48.2153 21.6817C49.876 20.1284 51.6584 19.3109 53.4891 19.3498C55.3197 19.3888 57.0657 20.2815 58.6588 21.9041C60.253 23.5279 61.6813 25.871 62.8664 28.7736C65.2362 34.578 66.6143 42.5739 66.4267 51.3825Z" stroke="white" stroke-width="0.5"/>
<path d="M56.6327 41.2266C64.1674 45.7934 70.1763 51.2455 73.8038 56.3591C75.6178 58.9162 76.8291 61.3786 77.3443 63.595C77.8592 65.8099 77.676 67.7623 76.7269 69.3282C75.7778 70.894 74.1318 71.9598 71.93 72.5281C69.7267 73.0969 66.9833 73.1623 63.877 72.7373C57.6654 71.8874 50.0517 69.0829 42.517 64.5161C34.9822 59.9493 28.9733 54.4972 25.3458 49.3837C23.5318 46.8265 22.3205 44.3642 21.8053 42.1477C21.2904 39.9328 21.4736 37.9804 22.4227 36.4146C23.3718 34.8487 25.0179 33.783 27.2196 33.2146C29.4229 32.6459 32.1663 32.5804 35.2726 33.0055C41.4842 33.8554 49.0979 36.6598 56.6327 41.2266Z" stroke="white" stroke-width="0.5"/>
<path d="M57.7381 39.4024C65.2729 43.9692 71.2818 49.4213 74.9093 54.5349C76.7233 57.092 77.9346 59.5544 78.4498 61.7708C78.9646 63.9857 78.7814 65.9381 77.8324 67.5039C76.8833 69.0698 75.2372 70.1356 73.0355 70.7039C70.8322 71.2726 68.0888 71.3381 64.9825 70.9131C58.7708 70.0631 51.1572 67.2587 43.6224 62.6919C36.0877 58.1251 30.0788 52.673 26.4513 47.5594C24.6373 45.0023 23.426 42.5399 22.9108 40.3235C22.3959 38.1086 22.5791 36.1562 23.5282 34.5904C24.4772 33.0245 26.1233 31.9587 28.3251 31.3904C30.5284 30.8217 33.2718 30.7562 36.3781 31.1812C42.5897 32.0312 50.2034 34.8356 57.7381 39.4024Z" stroke="white" stroke-width="0.5"/>
<path d="M58.8436 37.5782C66.3784 42.145 72.3872 47.5971 76.0147 52.7107C77.8287 55.2678 79.04 57.7301 79.5553 59.9466C80.0701 62.1615 79.8869 64.1139 78.9378 65.6797C77.9888 67.2456 76.3427 68.3113 74.1409 68.8797C71.9376 69.4484 69.1942 69.5139 66.088 69.0888C59.8763 68.2389 52.2627 65.4345 44.7279 60.8677C37.1931 56.3009 31.1842 50.8488 27.5568 45.7352C25.7428 43.1781 24.5315 40.7157 24.0162 38.4993C23.5014 36.2844 23.6846 34.332 24.6336 32.7661C25.5827 31.2003 27.2288 30.1345 29.4306 29.5662C31.6339 28.9974 34.3773 28.932 37.4835 29.357C43.6952 30.2069 51.3088 33.0114 58.8436 37.5782Z" stroke="white" stroke-width="0.5"/>
<path d="M45.1507 40.982C37.4284 45.2239 31.1928 50.4153 27.3509 55.3698C25.4297 57.8474 24.1147 60.256 23.5056 62.4485C22.8969 64.6394 22.9968 66.5978 23.8784 68.2027C24.7599 69.8075 26.3591 70.9424 28.5347 71.6039C30.7118 72.266 33.4499 72.4481 36.5715 72.1557C42.8137 71.571 50.5398 69.0932 58.2622 64.8513C65.9845 60.6094 72.22 55.418 76.0619 50.4635C77.9831 47.9859 79.2982 45.5774 79.9073 43.3849C80.5159 41.1939 80.416 39.2355 79.5345 37.6307C78.6529 36.0258 77.0537 34.8909 74.8781 34.2294C72.701 33.5674 69.9629 33.3852 66.8414 33.6776C60.5992 34.2623 52.873 36.7401 45.1507 40.982Z" stroke="white" stroke-width="0.5"/>
<path d="M44.1233 39.1119C36.401 43.3538 30.1655 48.5452 26.3236 53.4997C24.4024 55.9773 23.0874 58.3858 22.4782 60.5783C21.8696 62.7693 21.9695 64.7277 22.851 66.3326C23.7326 67.9374 25.3318 69.0723 27.5074 69.7338C29.6845 70.3958 32.4226 70.578 35.5441 70.2856C41.7863 69.7009 49.5125 67.2231 57.2348 62.9812C64.9572 58.7393 71.1927 53.5479 75.0346 48.5934C76.9558 46.1158 78.2708 43.7073 78.8799 41.5148C79.4886 39.3238 79.3887 37.3654 78.5071 35.7605C77.6256 34.1557 76.0264 33.0208 73.8508 32.3593C71.6737 31.6972 68.9356 31.5151 65.814 31.8075C59.5718 32.3922 51.8457 34.87 44.1233 39.1119Z" stroke="white" stroke-width="0.5"/>
<path d="M43.096 37.2428C35.3737 41.4847 29.1381 46.676 25.2962 51.6305C23.375 54.1081 22.06 56.5167 21.4509 58.7092C20.8422 60.9001 20.9421 62.8586 21.8237 64.4634C22.7052 66.0683 24.3045 67.2031 26.48 67.8647C28.6571 68.5267 31.3952 68.7089 34.5168 68.4165C40.759 67.8317 48.4851 65.354 56.2075 61.1121C63.9298 56.8702 70.1653 51.6788 74.0072 46.7243C75.9284 44.2467 77.2435 41.8381 77.8526 39.6456C78.4613 37.4547 78.3613 35.4962 77.4798 33.8914C76.5982 32.2865 74.999 31.1517 72.8234 30.4901C70.6463 29.8281 67.9082 29.6459 64.7867 29.9384C58.5445 30.5231 50.8183 33.0009 43.096 37.2428Z" stroke="white" stroke-width="0.5"/>
</svg>
