<svg width="200" height="47" viewBox="0 0 200 47" fill="none" xmlns="http://www.w3.org/2000/svg">
<path d="M1.06547 38.9722C1.28218 39.2852 1.58918 39.4417 1.98647 39.4417H2.02259C2.35969 39.4417 2.69679 39.0805 3.03389 38.3582C3.37099 37.6358 3.68401 36.6486 3.97295 35.3965C4.26189 34.1444 4.53277 32.8863 4.7856 31.6222C5.03842 30.3581 5.29124 28.9916 5.54407 27.5229C5.58019 27.27 5.61028 27.0834 5.63436 26.963C6.50119 21.8463 7.44025 17.1029 8.45154 12.7326C9.46284 8.36241 10.1972 5.52115 10.6547 4.20887C10.727 3.99216 10.7872 3.81158 10.8353 3.66711C10.8835 3.52263 10.9858 3.25777 11.1423 2.87252C11.2988 2.48726 11.4614 2.15016 11.6299 1.86122C11.7985 1.57228 12.0031 1.27732 12.2439 0.976337C12.4847 0.675354 12.7496 0.43457 13.0385 0.253983C13.3274 0.0733948 13.6344 -0.0108795 13.9595 0.00115967C14.6337 0.00115967 15.1393 0.211845 15.4764 0.633217C15.8135 1.05459 16.0062 1.53616 16.0543 2.07793C16.0543 2.37891 15.9821 2.61969 15.8376 2.80028C15.6931 2.98087 15.5547 3.09524 15.4223 3.1434C15.2898 3.19156 15.1574 3.20961 15.025 3.19757C14.7721 3.19757 14.5434 3.10728 14.3387 2.92669C14.1341 2.74611 14.0317 2.4993 14.0317 2.18628C14.0317 1.60839 14.3508 1.26528 14.9888 1.15693L14.9347 1.08469C14.8986 1.04857 14.8504 1.00644 14.7902 0.958279C14.73 0.910122 14.6818 0.874001 14.6457 0.849922C14.4651 0.72953 14.2665 0.669334 14.0498 0.669334C13.8812 0.669334 13.7247 0.74157 13.5803 0.88604C13.4358 1.03051 13.2432 1.36761 13.0024 1.89734C12.7616 2.42706 12.5268 3.12534 12.2981 3.99216C12.0693 4.85899 11.7864 6.08097 11.4493 7.65811C11.1122 9.23525 10.7751 11.0893 10.438 13.2202C9.7277 17.2534 8.98729 21.0638 8.21678 24.6515C7.44627 28.2392 6.84431 30.8397 6.41089 32.4529C5.97748 34.0662 5.6464 35.2219 5.41766 35.9202C4.49063 38.7254 3.34691 40.1279 1.98647 40.1279C1.5049 40.1279 1.06547 39.9413 0.668178 39.5681C0.270883 39.1949 0.0481569 38.6832 0 38.0331C0 37.6117 0.114373 37.3228 0.343118 37.1663C0.571864 37.0098 0.800609 36.9315 1.02935 36.9315C1.28218 36.9315 1.51092 37.0218 1.71559 37.2024C1.92026 37.383 2.02259 37.6298 2.02259 37.9428C2.02259 38.5207 1.70355 38.8638 1.06547 38.9722Z" fill=""/>
<path d="M24.6377 19.3421C24.6377 18.9568 24.734 18.5656 24.9267 18.1683C25.1193 17.771 25.4564 17.4038 25.938 17.0667C26.4195 16.7296 27.0034 16.5671 27.6897 16.5791C28.4361 16.5791 28.9779 16.7416 29.315 17.0667C29.6521 17.3917 29.8266 17.7529 29.8387 18.1502C29.8387 18.5355 29.7363 18.8184 29.5317 18.999C29.327 19.1796 29.0983 19.2759 28.8454 19.2879C28.6889 19.2879 28.5444 19.2398 28.412 19.1435C28.2796 19.0471 28.2073 18.8906 28.1953 18.6739C28.1953 18.4813 28.2495 18.3127 28.3578 18.1683C28.4662 18.0238 28.5685 17.9155 28.6648 17.8432C28.7612 17.771 28.8394 17.7349 28.8996 17.7349C28.9116 17.7349 28.9177 17.7288 28.9177 17.7168C28.9177 17.6807 28.8755 17.6265 28.7913 17.5543C28.707 17.482 28.5565 17.4158 28.3398 17.3556C28.1231 17.2954 27.8883 17.2593 27.6355 17.2473C27.0576 17.2473 26.6362 17.4038 26.3714 17.7168C26.1065 18.0298 25.9681 18.3489 25.956 18.6739C25.956 18.9749 26.0704 19.1856 26.2991 19.306C26.5279 19.4264 26.859 19.5287 27.2924 19.613C27.7258 19.6973 28.0388 19.7876 28.2314 19.8839C29.026 20.233 29.4233 20.8109 29.4233 21.6175C29.4233 21.9546 29.3571 22.2917 29.2247 22.6288C29.0922 22.9659 28.8936 23.303 28.6287 23.6401C28.3639 23.9772 27.9846 24.2421 27.491 24.4347C26.9974 24.6273 26.4316 24.7297 25.7935 24.7417C24.8665 24.7417 24.2103 24.5671 23.8251 24.218C23.4398 23.8689 23.2412 23.4595 23.2291 22.99C23.2291 22.5205 23.3555 22.1834 23.6084 21.9787C23.8612 21.774 24.126 21.6717 24.403 21.6717C24.5835 21.6717 24.7521 21.7259 24.9086 21.8342C25.0651 21.9426 25.1494 22.1292 25.1614 22.394C25.1614 22.7071 25.0531 22.9719 24.8364 23.1886C24.6197 23.4053 24.433 23.5137 24.2765 23.5137C24.2525 23.5257 24.2344 23.5318 24.2224 23.5318C24.2103 23.5318 24.2043 23.5438 24.2043 23.5679C24.2163 23.604 24.2645 23.6521 24.3488 23.7123C24.433 23.7725 24.6197 23.8508 24.9086 23.9471C25.1975 24.0434 25.5286 24.0856 25.9018 24.0735C26.3352 24.0735 26.7085 24.0073 27.0215 23.8749C27.3345 23.7424 27.5633 23.5739 27.7077 23.3692C27.8522 23.1646 27.9545 22.978 28.0147 22.8094C28.0749 22.6409 28.105 22.4904 28.105 22.3579C28.105 22.0208 27.9786 21.768 27.7258 21.5995C27.473 21.4309 27.184 21.3286 26.859 21.2925C26.5339 21.2563 26.1787 21.166 25.7935 21.0216C25.4082 20.8771 25.1253 20.6664 24.9447 20.3895C24.7401 20.0885 24.6377 19.7394 24.6377 19.3421Z" fill=""/>
<path d="M34.0644 13.7258C34.0644 13.4369 34.1788 13.184 34.4076 12.9673C34.6363 12.7506 34.9012 12.6363 35.2022 12.6242C35.4189 12.6242 35.5994 12.6965 35.7439 12.8409C35.8884 12.9854 35.9666 13.166 35.9787 13.3827C35.9787 13.6596 35.8583 13.9124 35.6175 14.1412C35.3767 14.3699 35.1119 14.4903 34.8229 14.5023C34.6423 14.5023 34.4738 14.4421 34.3173 14.3217C34.1608 14.2014 34.0765 14.0027 34.0644 13.7258ZM31.1208 19.3782C31.1208 19.2819 31.175 19.0953 31.2834 18.8184C31.3917 18.5415 31.5362 18.2345 31.7168 17.8974C31.8974 17.5603 32.1622 17.2533 32.5114 16.9764C32.8605 16.6995 33.2217 16.5671 33.5949 16.5791C34.0644 16.5791 34.4557 16.7176 34.7687 16.9945C35.0818 17.2714 35.2443 17.6446 35.2563 18.1141C35.2563 18.3188 35.1721 18.6559 35.0035 19.1254C34.835 19.5949 34.5942 20.227 34.2811 21.0216C33.9681 21.8162 33.7153 22.4964 33.5227 23.0622C33.4625 23.3271 33.4324 23.5197 33.4324 23.6401C33.4324 23.9411 33.5347 24.0916 33.7394 24.0916C33.8477 24.0916 33.9621 24.0735 34.0825 24.0374C34.2029 24.0013 34.3413 23.917 34.4979 23.7846C34.6544 23.6522 34.8169 23.4415 34.9854 23.1525C35.154 22.8636 35.3045 22.5084 35.4369 22.0871C35.473 21.9426 35.5031 21.8583 35.5272 21.8342C35.5513 21.8102 35.6536 21.7981 35.8342 21.7981C36.075 21.7981 36.1954 21.8583 36.1954 21.9787C36.1954 22.075 36.1412 22.2616 36.0329 22.5385C35.9245 22.8154 35.774 23.1224 35.5814 23.4595C35.3888 23.7966 35.1179 24.0976 34.7687 24.3625C34.4196 24.6273 34.0464 24.7598 33.6491 24.7598C33.2638 24.7598 32.9087 24.6334 32.5836 24.3805C32.2586 24.1277 32.09 23.7425 32.078 23.2248C32.078 23.0201 32.1081 22.8275 32.1683 22.6469C32.2285 22.4663 32.4873 21.7801 32.9448 20.5882C33.4023 19.3722 33.6671 18.6438 33.7394 18.403C33.8116 18.1623 33.8538 17.9275 33.8658 17.6988C33.8658 17.4098 33.7635 17.2653 33.5588 17.2653H33.5227C33.1615 17.2653 32.8304 17.464 32.5294 17.8613C32.2285 18.2586 31.9997 18.7642 31.8432 19.3782C31.8312 19.3903 31.8191 19.4083 31.8071 19.4324C31.795 19.4565 31.789 19.4745 31.789 19.4866C31.789 19.4986 31.777 19.5107 31.7529 19.5227C31.7288 19.5347 31.7108 19.5408 31.6987 19.5408C31.6867 19.5408 31.6626 19.5408 31.6265 19.5408C31.5904 19.5408 31.5422 19.5408 31.482 19.5408H31.2292C31.157 19.4685 31.1208 19.4143 31.1208 19.3782Z" fill=""/>
<path d="M37.3511 19.3782C37.3631 19.306 37.3812 19.2097 37.4053 19.0893C37.4293 18.9689 37.5016 18.7401 37.622 18.403C37.7423 18.066 37.8627 17.783 37.9831 17.5543C38.1035 17.3255 38.3022 17.1028 38.5791 16.8861C38.856 16.6694 39.1329 16.5671 39.4098 16.5791C39.8432 16.5791 40.2044 16.6875 40.4933 16.9042C40.7823 17.1209 40.9628 17.3255 41.0351 17.5182C41.1073 17.7108 41.1434 17.8372 41.1434 17.8974C41.1434 17.9215 41.1495 17.9335 41.1615 17.9335L41.3601 17.7349C42.0945 16.9644 42.9313 16.5791 43.8703 16.5791C44.5204 16.5791 45.0441 16.7416 45.4414 17.0667C45.8387 17.3918 46.0434 17.8673 46.0554 18.4933C46.0675 19.1194 45.8387 20.0645 45.3692 21.3286C44.8997 22.5927 44.6709 23.3572 44.683 23.6221C44.683 23.9351 44.7853 24.0916 44.99 24.0916C45.0622 24.0916 45.1164 24.0856 45.1525 24.0735C45.5016 24.0133 45.8147 23.7846 46.0916 23.3873C46.3685 22.99 46.5791 22.5084 46.7236 21.9426C46.7477 21.8463 46.8681 21.7981 47.0848 21.7981C47.3256 21.7981 47.446 21.8463 47.446 21.9426C47.446 21.9546 47.4219 22.0449 47.3737 22.2135C47.2774 22.5626 47.145 22.9057 46.9764 23.2428C46.8079 23.5799 46.531 23.917 46.1457 24.2541C45.7605 24.5912 45.3451 24.7537 44.8997 24.7417C44.3338 24.7417 43.9245 24.5792 43.6717 24.2541C43.4188 23.9291 43.2924 23.592 43.2924 23.2428C43.2924 23.0141 43.5091 22.2917 43.9426 21.0758C44.376 19.8598 44.5987 18.9448 44.6107 18.3308C44.6107 17.6205 44.3459 17.2653 43.8161 17.2653H43.7258C42.6905 17.2653 41.8176 17.8733 41.1073 19.0893L40.9809 19.306L40.385 21.7259C39.9877 23.303 39.7589 24.1518 39.6987 24.2722C39.5422 24.5972 39.2834 24.7598 38.9222 24.7598C38.7657 24.7598 38.6393 24.7236 38.543 24.6514C38.4466 24.5792 38.3804 24.5069 38.3443 24.4347C38.3082 24.3625 38.2962 24.3023 38.3082 24.2541C38.3082 24.0976 38.5369 23.1164 38.9944 21.3105C39.4519 19.5046 39.6927 18.5234 39.7168 18.3669C39.7288 18.3067 39.7348 18.1683 39.7348 17.9516C39.7348 17.482 39.5904 17.2473 39.3014 17.2473C38.8439 17.2473 38.4647 17.8492 38.1637 19.0532C38.0915 19.294 38.0554 19.4204 38.0554 19.4324C38.0313 19.5046 37.9169 19.5408 37.7123 19.5408H37.4594C37.3872 19.4685 37.3511 19.4143 37.3511 19.3782Z" fill=""/>
<path d="M48.8796 14.0769C48.8796 14.0769 48.8796 14.0216 48.8796 13.9109C48.8796 13.8003 48.9392 13.7151 49.0584 13.6556H56.4764C56.604 13.7236 56.6679 13.8088 56.6679 13.9109C56.6679 14.013 56.604 14.0982 56.4764 14.1663H49.0584C48.9392 14.1067 48.8796 14.0216 48.8796 13.9109V14.0769Z" fill=""/>
<path d="M60.4598 9.72311L60.2939 9.78694C60.1747 9.8295 60.0045 9.87206 59.7832 9.91462C59.5618 9.95718 59.315 9.98697 59.0426 10.004H58.8V9.41668H59.0426C59.4427 9.39966 59.8129 9.33582 60.1534 9.22517C60.4939 9.11452 60.7322 9.01238 60.8684 8.91875C61.0046 8.82512 61.1238 8.73149 61.2259 8.63786C61.2429 8.61232 61.294 8.59956 61.3791 8.59956C61.4557 8.59956 61.5281 8.62509 61.5962 8.67616V12.4937L61.6089 16.324C61.6685 16.3835 61.7196 16.4218 61.7621 16.4389C61.8047 16.4559 61.9068 16.4729 62.0686 16.4899C62.2303 16.507 62.4941 16.5155 62.8601 16.5155H63.1921V17.1028H63.0517C62.8729 17.0772 62.1962 17.0645 61.0216 17.0645C59.864 17.0645 59.1958 17.0772 59.0171 17.1028H58.8639V16.5155H59.1958C59.3831 16.5155 59.5448 16.5155 59.681 16.5155C59.8172 16.5155 59.9236 16.5112 60.0002 16.5027C60.0768 16.4942 60.1449 16.4814 60.2045 16.4644C60.2641 16.4474 60.2981 16.4389 60.3066 16.4389C60.3151 16.4389 60.3407 16.4176 60.3832 16.375C60.4258 16.3325 60.4513 16.3154 60.4598 16.324V9.72311Z" fill=""/>
<path d="M71.0562 18.2948C71.0562 18.1383 71.1404 18.0179 71.309 17.9337H82.8125C82.9931 18.03 83.0833 18.1504 83.0833 18.2948C83.0833 18.4273 82.9991 18.5416 82.8305 18.6379L77.0878 18.656H71.3451C71.1525 18.5958 71.0562 18.4754 71.0562 18.2948ZM71.0562 21.7982C71.0562 21.6177 71.1525 21.4973 71.3451 21.4371H82.8305C82.9991 21.5575 83.0833 21.6779 83.0833 21.7982C83.0833 21.9548 82.9931 22.0751 82.8125 22.1594H71.309C71.1404 22.0751 71.0562 21.9548 71.0562 21.7982Z" fill=""/>
<path d="M125.988 1.9155L125.753 2.00579C125.584 2.06599 125.343 2.12619 125.03 2.18638C124.717 2.24658 124.368 2.28871 123.983 2.31279H123.64V1.48209H123.983C124.549 1.45801 125.073 1.36771 125.554 1.2112C126.036 1.05469 126.373 0.910222 126.565 0.777791C126.758 0.645359 126.927 0.512927 127.071 0.380496C127.095 0.344378 127.167 0.32632 127.288 0.32632C127.396 0.32632 127.498 0.362437 127.595 0.434672V5.83427L127.613 11.2519C127.697 11.3362 127.769 11.3904 127.83 11.4145C127.89 11.4385 128.034 11.4626 128.263 11.4867C128.492 11.5108 128.865 11.5228 129.383 11.5228H129.852V12.3535H129.653C129.401 12.3174 128.444 12.2993 126.782 12.2993C125.145 12.2993 124.2 12.3174 123.947 12.3535H123.73V11.5228H124.2C124.465 11.5228 124.693 11.5228 124.886 11.5228C125.079 11.5228 125.229 11.5168 125.337 11.5047C125.446 11.4927 125.542 11.4747 125.626 11.4506C125.711 11.4265 125.759 11.4145 125.771 11.4145C125.783 11.4145 125.819 11.3844 125.879 11.3242C125.939 11.264 125.976 11.2399 125.988 11.2519V1.9155Z" fill=""/>
<path d="M115.351 33.3286L115.116 33.4189C114.948 33.4791 114.707 33.5393 114.394 33.5995C114.081 33.6597 113.732 33.7018 113.346 33.7259H113.003V32.8952H113.346C113.912 32.8711 114.436 32.7808 114.918 32.6243C115.399 32.4678 115.736 32.3233 115.929 32.1909C116.121 32.0584 116.29 31.926 116.434 31.7936C116.459 31.7575 116.531 31.7394 116.651 31.7394C116.76 31.7394 116.862 31.7755 116.958 31.8478V37.2474L116.976 42.665C117.061 42.7493 117.133 42.8035 117.193 42.8275C117.253 42.8516 117.398 42.8757 117.626 42.8998C117.855 42.9239 118.228 42.9359 118.746 42.9359H119.216V43.7666H119.017C118.764 43.7305 117.807 43.7124 116.146 43.7124C114.508 43.7124 113.563 43.7305 113.31 43.7666H113.094V42.9359H113.563C113.828 42.9359 114.057 42.9359 114.249 42.9359C114.442 42.9359 114.592 42.9299 114.701 42.9178C114.809 42.9058 114.905 42.8877 114.99 42.8637C115.074 42.8396 115.122 42.8275 115.134 42.8275C115.146 42.8275 115.182 42.7974 115.243 42.7372C115.303 42.6771 115.339 42.653 115.351 42.665V33.3286Z" fill=""/>
<path d="M126.063 39.4866C126.063 39.4866 126.063 39.4084 126.063 39.2519C126.063 39.0953 126.148 38.975 126.316 38.8907H136.808C136.989 38.987 137.079 39.1074 137.079 39.2519C137.079 39.3963 136.989 39.5167 136.808 39.613H126.316C126.148 39.5288 126.063 39.4084 126.063 39.2519V39.4866Z" fill=""/>
<path d="M143.548 38.5477C143.632 38.042 143.957 37.4581 144.523 36.796C145.089 36.1338 145.787 35.7967 146.618 35.7847C147.039 35.7847 147.425 35.893 147.774 36.1097C148.123 36.3264 148.382 36.5973 148.55 36.9224C149.056 36.1639 149.664 35.7847 150.374 35.7847C150.82 35.7847 151.205 35.9171 151.53 36.182C151.855 36.4468 152.024 36.802 152.036 37.2474C152.036 37.5966 151.951 37.8795 151.783 38.0962C151.614 38.3129 151.452 38.4453 151.295 38.4935C151.139 38.5417 151 38.5657 150.88 38.5657C150.651 38.5657 150.465 38.4995 150.32 38.3671C150.176 38.2347 150.103 38.0601 150.103 37.8434C150.103 37.2896 150.404 36.9103 151.006 36.7057C150.874 36.5492 150.633 36.4709 150.284 36.4709C150.128 36.4709 150.013 36.4829 149.941 36.507C149.483 36.6997 149.146 37.0969 148.93 37.6989C148.207 40.3596 147.846 41.9126 147.846 42.3581C147.846 42.6952 147.942 42.936 148.135 43.0804C148.328 43.2249 148.538 43.2972 148.767 43.2972C149.213 43.2972 149.652 43.0985 150.085 42.7012C150.519 42.3039 150.814 41.8163 150.97 41.2384C151.006 41.1181 151.043 41.0518 151.079 41.0398C151.115 41.0278 151.211 41.0157 151.368 41.0037H151.44C151.62 41.0037 151.711 41.0518 151.711 41.1482C151.711 41.1602 151.699 41.2264 151.675 41.3468C151.482 42.033 151.109 42.641 150.555 43.1707C150.001 43.7005 149.357 43.9653 148.623 43.9653C147.78 43.9653 147.142 43.5861 146.708 42.8276C146.215 43.5741 145.649 43.9473 145.011 43.9473H144.903C144.313 43.9473 143.891 43.7908 143.638 43.4777C143.386 43.1647 143.253 42.8336 143.241 42.4845C143.241 42.0993 143.355 41.7862 143.584 41.5454C143.813 41.3047 144.084 41.1843 144.397 41.1843C144.915 41.1843 145.173 41.4371 145.173 41.9427C145.173 42.1835 145.101 42.3942 144.957 42.5748C144.812 42.7554 144.674 42.8758 144.541 42.936C144.409 42.9962 144.331 43.0263 144.307 43.0263L144.252 43.0443C144.252 43.0564 144.289 43.0804 144.361 43.1166C144.433 43.1527 144.529 43.1948 144.65 43.243C144.77 43.2911 144.884 43.3092 144.993 43.2972C145.426 43.2972 145.799 43.0263 146.112 42.4845C146.221 42.2919 146.359 41.8825 146.528 41.2565C146.696 40.6305 146.865 39.9803 147.033 39.3061C147.202 38.632 147.298 38.2347 147.322 38.1143C147.383 37.7892 147.413 37.5544 147.413 37.41C147.413 37.0729 147.322 36.8321 147.142 36.6876C146.961 36.5431 146.757 36.4709 146.528 36.4709C146.046 36.4709 145.595 36.6635 145.173 37.0488C144.752 37.434 144.457 37.9277 144.289 38.5296C144.264 38.638 144.234 38.6982 144.198 38.7102C144.162 38.7222 144.066 38.7343 143.909 38.7463H143.656C143.584 38.6741 143.548 38.6079 143.548 38.5477Z" fill=""/>
<path d="M154.33 31.7341C154.1 31.7341 153.917 31.6575 153.781 31.5043C153.645 31.3511 153.577 31.1638 153.577 30.9425C153.577 30.3382 153.803 29.8147 154.254 29.3721C154.705 28.9295 155.267 28.7082 155.939 28.7082C156.714 28.7082 157.36 28.9465 157.88 29.4232C158.399 29.8998 158.663 30.5169 158.671 31.2745C158.671 31.6405 158.586 31.9895 158.416 32.3214C158.246 32.6534 158.041 32.9428 157.803 33.1896C157.565 33.4365 157.224 33.7514 156.782 34.1344C156.475 34.3983 156.05 34.7898 155.505 35.3091L154.752 36.024L155.722 36.0368C157.058 36.0368 157.769 36.0155 157.854 35.973C157.914 35.9559 158.016 35.5772 158.161 34.8367V34.7983H158.671V34.8367C158.663 34.8622 158.607 35.2495 158.505 35.9985C158.403 36.7475 158.339 37.1391 158.314 37.1731V37.2114H153.577V36.9688V36.8156C153.577 36.756 153.603 36.6922 153.654 36.6241C153.705 36.556 153.832 36.4071 154.037 36.1772C154.284 35.9049 154.496 35.6665 154.675 35.4623C154.752 35.3771 154.896 35.2197 155.109 34.9899C155.322 34.76 155.467 34.6026 155.543 34.5175C155.62 34.4323 155.743 34.2919 155.913 34.0961C156.084 33.9004 156.203 33.7557 156.271 33.662C156.339 33.5684 156.437 33.4407 156.565 33.279C156.692 33.1173 156.782 32.9811 156.833 32.8704C156.884 32.7598 156.948 32.6364 157.024 32.5002C157.101 32.364 157.156 32.2278 157.19 32.0916C157.224 31.9554 157.254 31.8278 157.28 31.7086C157.305 31.5894 157.318 31.449 157.318 31.2873C157.318 30.751 157.173 30.2871 156.884 29.8956C156.594 29.504 156.182 29.3083 155.645 29.3083C155.364 29.3083 155.118 29.3806 154.905 29.5253C154.692 29.67 154.543 29.8105 154.458 29.9467C154.373 30.0828 154.33 30.1637 154.33 30.1892C154.33 30.1978 154.352 30.202 154.394 30.202C154.547 30.202 154.705 30.2616 154.867 30.3808C155.028 30.4999 155.109 30.6957 155.109 30.9681C155.109 31.1809 155.041 31.3596 154.905 31.5043C154.769 31.649 154.577 31.7256 154.33 31.7341Z" fill=""/>
<path d="M97.8338 35.7758C97.8459 35.7758 98.1589 36.4921 98.7729 37.9248C99.3869 39.3574 100.001 40.7901 100.615 42.2228C101.229 43.6554 101.548 44.3778 101.572 44.3898L106.177 34.8186C109.259 28.3777 110.806 25.1451 110.818 25.121C110.902 24.9886 111.017 24.9224 111.161 24.9224C111.246 24.9224 111.318 24.9585 111.378 25.0307C111.438 25.103 111.48 25.1752 111.504 25.2475V25.3558L106.466 35.8841C105.31 38.292 104.1 40.8142 102.836 43.4508C102.102 44.9798 101.674 45.8707 101.554 46.1235C101.434 46.3763 101.337 46.5208 101.265 46.5569C101.217 46.581 101.115 46.593 100.958 46.593L100.741 46.575L98.7729 42.0061C97.4606 38.9722 96.7984 37.4552 96.7864 37.4552L96.1724 37.9248C95.7751 38.2378 95.5704 38.3943 95.5584 38.3943L95.0889 37.9248L97.8338 35.7758Z" fill=""/>
<path d="M160.227 26.0059H111.504V24.9223H160.227V26.0059Z" fill=""/>
<path d="M162.033 20.5884H91.2784V19.5048H162.033V20.5884Z" fill=""/>
<path d="M169.224 20.2812C169.224 20.2812 169.224 20.203 169.224 20.0465C169.224 19.8899 169.308 19.7696 169.477 19.6853H174.877V16.9764L174.895 14.2676C175.015 14.1111 175.129 14.0329 175.238 14.0329C175.394 14.0329 175.515 14.1231 175.599 14.3037V19.6853H180.98C181.161 19.7816 181.251 19.902 181.251 20.0465C181.251 20.1909 181.161 20.3113 180.98 20.4076H175.599V25.7892C175.503 25.9577 175.394 26.042 175.274 26.042H175.238H175.202C175.057 26.042 174.949 25.9577 174.877 25.7892V20.4076H169.477C169.308 20.3234 169.224 20.203 169.224 20.0465V20.2812Z" fill=""/>
<path d="M187.178 20.0104C187.178 18.6259 187.582 17.2955 188.388 16.0194C189.195 14.7432 190.212 13.7319 191.44 12.9855C192.668 12.239 193.896 11.8598 195.124 11.8478C196.208 11.8478 197.068 12.1548 197.707 12.7688C197.815 12.8892 197.905 12.9915 197.977 13.0758C198.05 13.16 198.098 13.2202 198.122 13.2564L198.14 13.3105C198.176 13.3105 198.339 13.154 198.628 12.841C198.712 12.7688 198.802 12.6845 198.898 12.5882C198.995 12.4919 199.091 12.3956 199.187 12.2992C199.284 12.2029 199.344 12.1367 199.368 12.1006L199.639 11.8297H199.747C199.916 11.8297 200 11.8718 200 11.9561C200 12.0043 199.807 12.829 199.422 14.4302C198.989 16.1036 198.772 16.9464 198.772 16.9584C198.748 17.0186 198.718 17.0547 198.682 17.0668C198.646 17.0788 198.537 17.0909 198.357 17.1029H198.068C197.995 17.0307 197.959 16.9765 197.959 16.9404C197.959 16.9283 197.965 16.8862 197.977 16.814C197.989 16.7417 198.001 16.6213 198.014 16.4528C198.026 16.2842 198.032 16.0916 198.032 15.8749C198.032 15.0201 197.839 14.2737 197.454 13.6356C197.068 12.9975 196.412 12.6725 195.485 12.6604C195.172 12.6604 194.835 12.7026 194.474 12.7868C194.113 12.8711 193.679 13.0156 193.174 13.2202C192.668 13.4249 192.168 13.762 191.675 14.2315C191.181 14.7011 190.742 15.2609 190.357 15.911C189.971 16.5972 189.664 17.3979 189.436 18.3128C189.207 19.2278 189.092 19.9743 189.092 20.5521C189.092 21.9246 189.55 22.9118 190.465 23.5138C191.043 23.9231 191.753 24.1278 192.596 24.1278C193.691 24.1278 194.667 23.7185 195.521 22.8998C196.376 22.0811 196.942 21.1902 197.219 20.2271C197.267 20.0706 197.303 19.9803 197.327 19.9562C197.351 19.9321 197.448 19.9201 197.616 19.9201C197.857 19.9201 197.977 19.9743 197.977 20.0826C197.977 20.1428 197.971 20.197 197.959 20.2451C197.61 21.5333 196.864 22.6409 195.72 23.568C194.576 24.495 193.348 24.9585 192.036 24.9585C190.676 24.9585 189.526 24.507 188.587 23.6041C187.648 22.7011 187.178 21.5032 187.178 20.0104Z" fill=""/>
</svg>
