<svg width="200" height="45" viewBox="0 0 200 45" fill="none" xmlns="http://www.w3.org/2000/svg">
<path d="M1.16475 42.6035C1.40165 42.9457 1.73726 43.1168 2.17157 43.1168H2.21106C2.57957 43.1168 2.94808 42.7219 3.31659 41.9323C3.6851 41.1426 4.02728 40.0634 4.34315 38.6946C4.65901 37.3259 4.95514 35.9506 5.23152 34.5687C5.5079 33.1867 5.78428 31.693 6.06067 30.0873C6.10015 29.8109 6.13305 29.6069 6.15937 29.4753C7.10697 23.8819 8.13353 18.6964 9.23906 13.919C10.3446 9.1415 11.1474 6.03549 11.6475 4.60094C11.7265 4.36404 11.7923 4.16662 11.8449 4.00869C11.8976 3.85076 12.0095 3.56121 12.1806 3.14006C12.3516 2.71891 12.5293 2.3504 12.7136 2.03453C12.8978 1.71867 13.1216 1.39622 13.3848 1.0672C13.648 0.738167 13.9376 0.474945 14.2534 0.277531C14.5693 0.0801163 14.9049 -0.0120125 15.2602 0.00114822C15.9973 0.00114822 16.55 0.231468 16.9185 0.692104C17.287 1.15274 17.4976 1.67918 17.5503 2.27143C17.5503 2.60046 17.4713 2.86368 17.3134 3.06109C17.1554 3.25851 17.0041 3.38354 16.8593 3.43618C16.7145 3.48883 16.5698 3.50857 16.425 3.49541C16.1486 3.49541 15.8986 3.3967 15.6748 3.19928C15.4511 3.00187 15.3392 2.73207 15.3392 2.38988C15.3392 1.75815 15.688 1.38306 16.3855 1.26461L16.3263 1.18564C16.2868 1.14616 16.2342 1.1001 16.1684 1.04745C16.1026 0.994808 16.0499 0.955326 16.0104 0.929005C15.813 0.797394 15.5958 0.731586 15.359 0.731586C15.1747 0.731586 15.0036 0.810555 14.8457 0.968487C14.6877 1.12642 14.4772 1.49493 14.2139 2.07402C13.9507 2.6531 13.6941 3.41644 13.444 4.36404C13.194 5.31163 12.8847 6.64748 12.5162 8.37158C12.1477 10.0957 11.7791 12.1225 11.4106 14.452C10.6341 18.8609 9.82473 23.0264 8.98242 26.9484C8.14011 30.8704 7.48206 33.7132 7.00826 35.4768C6.53446 37.2404 6.17253 38.5038 5.92247 39.2672C4.90907 42.3337 3.65877 43.8669 2.17157 43.8669C1.64513 43.8669 1.16475 43.6629 0.730439 43.255C0.296124 42.847 0.0526442 42.2876 0 41.5769C0 41.1163 0.12503 40.8004 0.37509 40.6293C0.62515 40.4582 0.87521 40.3727 1.12527 40.3727C1.40165 40.3727 1.65171 40.4714 1.87545 40.6688C2.09919 40.8662 2.21106 41.136 2.21106 41.4782C2.21106 42.1099 1.86229 42.485 1.16475 42.6035Z" fill=""/>
<path d="M24.8606 19.2492C24.7685 19.1571 24.7224 19.0913 24.7224 19.0518C24.7224 18.9992 24.7422 18.8939 24.7816 18.7359C24.8211 18.578 24.854 18.4859 24.8803 18.4596C24.9067 18.3938 24.9659 18.3609 25.058 18.3609C25.1501 18.3609 25.4858 18.3543 26.0648 18.3411H27.1111L27.4862 16.7618C27.5257 16.617 27.5718 16.4262 27.6244 16.1893C27.6771 15.9524 27.7231 15.7813 27.7626 15.676C27.8021 15.5707 27.8416 15.4391 27.8811 15.2812C27.9205 15.1232 27.9732 15.0114 28.039 14.9456C28.1048 14.8798 28.1706 14.8008 28.2364 14.7087C28.3022 14.6165 28.3943 14.5573 28.5128 14.531C28.6312 14.5047 28.7497 14.4915 28.8681 14.4915C29.105 14.5047 29.2696 14.5771 29.3617 14.7087C29.4538 14.8403 29.4999 14.9653 29.4999 15.0838C29.4999 15.1759 29.4407 15.4852 29.3222 16.0116C29.2038 16.5381 29.0721 17.0579 28.9274 17.5712L28.73 18.3016C28.73 18.328 29.059 18.3411 29.717 18.3411H30.7239C30.816 18.4332 30.862 18.5056 30.862 18.5583C30.862 18.8478 30.7765 19.0781 30.6054 19.2492H28.4931L27.7824 22.1118C27.2691 24.2175 27.0124 25.3494 27.0124 25.5073C27.0124 26.0601 27.1901 26.3365 27.5455 26.3365C28.0061 26.3365 28.4536 26.1127 28.8879 25.6652C29.3222 25.2178 29.671 24.665 29.9342 24.0069C29.9605 23.928 29.9934 23.8819 30.0329 23.8688C30.0724 23.8556 30.1711 23.8424 30.329 23.8293H30.408C30.6054 23.8293 30.7041 23.8819 30.7041 23.9872C30.7041 24.0267 30.6844 24.1057 30.6449 24.2241C30.5791 24.4347 30.4606 24.6847 30.2895 24.9743C30.1184 25.2638 29.8947 25.5731 29.6183 25.9021C29.3419 26.2312 29.0063 26.5075 28.6115 26.7313C28.2167 26.955 27.8153 27.0669 27.4073 27.0669C27.0124 27.0669 26.6373 26.9682 26.282 26.7708C25.9266 26.5734 25.67 26.2312 25.5121 25.7442C25.4858 25.6389 25.4726 25.4612 25.4726 25.2112V24.8558L26.1635 22.092C26.6242 20.2363 26.8611 19.3019 26.8742 19.2887C26.8742 19.2624 26.5386 19.2492 25.8674 19.2492H24.8606Z" fill=""/>
<path d="M32.1255 23.7503C32.1255 22.421 32.6256 21.1575 33.6258 19.9599C34.6261 18.7622 35.7514 18.1568 37.0017 18.1437C37.6729 18.1437 38.2651 18.4661 38.7784 19.111C38.989 18.7162 39.2917 18.5188 39.6865 18.5188C39.8576 18.5188 40.009 18.5714 40.1406 18.6767C40.2722 18.782 40.338 18.9136 40.338 19.0715C40.338 19.2426 40.0945 20.2955 39.6075 22.2302C39.1206 24.1648 38.8705 25.2572 38.8574 25.5073C38.8574 25.8363 38.9034 26.0535 38.9956 26.1587C39.0877 26.264 39.2259 26.3233 39.4101 26.3364C39.5286 26.3233 39.6602 26.264 39.805 26.1587C40.0813 25.8955 40.3511 25.2638 40.6144 24.2636C40.6933 24.0003 40.7591 23.8621 40.8118 23.849C40.8381 23.8358 40.9039 23.8292 41.0092 23.8292H41.0882C41.3382 23.8292 41.4633 23.8885 41.4633 24.0069C41.4633 24.0859 41.4304 24.2636 41.3645 24.5399C41.2987 24.8163 41.1671 25.1717 40.9697 25.606C40.7723 26.0403 40.5617 26.3693 40.338 26.5931C40.1669 26.7642 39.9563 26.9023 39.7063 27.0076C39.601 27.034 39.443 27.0471 39.2325 27.0471C38.785 27.0471 38.4099 26.9484 38.1072 26.751C37.8045 26.5536 37.6071 26.3496 37.5149 26.139L37.3965 25.8429C37.3833 25.8297 37.357 25.8363 37.3175 25.8626C37.2912 25.8889 37.2649 25.9153 37.2386 25.9416C36.4621 26.6786 35.6724 27.0471 34.8696 27.0471C34.1457 27.0471 33.5074 26.7839 32.9546 26.2575C32.4019 25.731 32.1255 24.8953 32.1255 23.7503ZM38.4033 20.3745C38.4033 20.2955 38.3704 20.1507 38.3046 19.9401C38.2388 19.7296 38.0874 19.4993 37.8505 19.2492C37.6136 18.9991 37.3109 18.8675 36.9424 18.8544C36.4818 18.8544 36.0409 19.0584 35.6197 19.4664C35.1986 19.8743 34.8696 20.4074 34.6327 21.0654C34.251 22.1051 33.9812 23.1843 33.8233 24.303C33.8233 24.3425 33.8233 24.4149 33.8233 24.5202C33.8233 24.6255 33.8167 24.7045 33.8035 24.7571C33.8035 25.3493 33.922 25.7573 34.1589 25.9811C34.3958 26.2048 34.6787 26.3233 35.0078 26.3364C35.5079 26.3364 36.0014 26.1193 36.4884 25.6849C36.9753 25.2506 37.2649 24.915 37.357 24.6781C37.3833 24.6255 37.561 23.9214 37.89 22.5658C38.2191 21.2102 38.3901 20.4798 38.4033 20.3745Z" fill=""/>
<path d="M42.3319 21.1839C42.3451 21.1049 42.3648 20.9996 42.3911 20.868C42.4175 20.7364 42.4964 20.4864 42.628 20.1179C42.7596 19.7493 42.8913 19.4401 43.0229 19.19C43.1545 18.9399 43.3716 18.6965 43.6743 18.4596C43.977 18.2227 44.2797 18.1108 44.5824 18.124C45.0562 18.124 45.4511 18.2424 45.7669 18.4793C46.0828 18.7162 46.2802 18.9399 46.3592 19.1505C46.4382 19.3611 46.4776 19.4993 46.4776 19.5651C46.4776 19.5914 46.4842 19.6046 46.4974 19.6046L46.7145 19.3874C47.5174 18.5451 48.4321 18.124 49.4586 18.124C50.1693 18.124 50.7418 18.3016 51.1761 18.657C51.6105 19.0123 51.8342 19.5322 51.8474 20.2166C51.8605 20.9009 51.6105 21.9341 51.0972 23.316C50.5839 24.6979 50.3338 25.5336 50.347 25.8232C50.347 26.1654 50.4589 26.3365 50.6826 26.3365C50.7616 26.3365 50.8208 26.3299 50.8603 26.3167C51.2419 26.2509 51.5841 26.0008 51.8868 25.5665C52.1895 25.1322 52.4199 24.6058 52.5778 23.9872C52.6041 23.8819 52.7357 23.8293 52.9726 23.8293C53.2358 23.8293 53.3675 23.8819 53.3675 23.9872C53.3675 24.0004 53.3411 24.0991 53.2885 24.2833C53.1832 24.665 53.0384 25.0401 52.8542 25.4086C52.6699 25.7771 52.3672 26.1456 51.9461 26.5141C51.5249 26.8826 51.0708 27.0603 50.5839 27.0472C49.9653 27.0472 49.5178 26.8695 49.2415 26.5141C48.9651 26.1588 48.8269 25.7903 48.8269 25.4086C48.8269 25.1585 49.0638 24.3689 49.5376 23.0396C50.0114 21.7103 50.2549 20.7101 50.268 20.0389C50.268 19.2624 49.9785 18.8741 49.3994 18.8741H49.3007C48.1688 18.8741 47.2147 19.5388 46.4382 20.868L46.3 21.1049L45.6485 23.7503C45.2142 25.4744 44.9641 26.4023 44.8983 26.5339C44.7272 26.8892 44.4443 27.0669 44.0494 27.0669C43.8783 27.0669 43.7401 27.0274 43.6349 26.9484C43.5296 26.8695 43.4572 26.7905 43.4177 26.7115C43.3782 26.6326 43.3651 26.5668 43.3782 26.5141C43.3782 26.343 43.6283 25.2704 44.1284 23.2963C44.6285 21.3221 44.8917 20.2495 44.9181 20.0784C44.9312 20.0126 44.9378 19.8612 44.9378 19.6243C44.9378 19.111 44.7799 18.8544 44.464 18.8544C43.9639 18.8544 43.5493 19.5124 43.2203 20.8286C43.1413 21.0918 43.1018 21.23 43.1018 21.2431C43.0755 21.3221 42.9505 21.3616 42.7267 21.3616H42.4504C42.3714 21.2826 42.3319 21.2234 42.3319 21.1839Z" fill=""/>
<path d="M54.9347 15.3886C54.9347 15.3886 54.9347 15.3281 54.9347 15.2072C54.9347 15.0862 54.9998 14.9932 55.1301 14.928H63.2393C63.3789 15.0025 63.4486 15.0955 63.4486 15.2072C63.4486 15.3188 63.3789 15.4119 63.2393 15.4863H55.1301C54.9998 15.4212 54.9347 15.3281 54.9347 15.2072V15.3886Z" fill=""/>
<path d="M67.594 10.6292L67.4125 10.699C67.2823 10.7455 67.0962 10.792 66.8543 10.8386C66.6123 10.8851 66.3425 10.9177 66.0447 10.9363H65.7795V10.2942H66.0447C66.4821 10.2756 66.8868 10.2058 67.259 10.0849C67.6312 9.96392 67.8917 9.85226 68.0406 9.7499C68.1895 9.64755 68.3198 9.5452 68.4314 9.44284C68.45 9.41493 68.5059 9.40097 68.5989 9.40097C68.6827 9.40097 68.7618 9.42889 68.8362 9.48472V13.6579L68.8501 17.8451C68.9153 17.9103 68.9711 17.9521 69.0176 17.9708C69.0642 17.9894 69.1758 18.008 69.3526 18.0266C69.5294 18.0452 69.8179 18.0545 70.218 18.0545H70.5809V18.6965H70.4273C70.2319 18.6686 69.4922 18.6547 68.2081 18.6547C66.9426 18.6547 66.2122 18.6686 66.0168 18.6965H65.8493V18.0545H66.2122C66.4169 18.0545 66.5937 18.0545 66.7426 18.0545C66.8915 18.0545 67.0078 18.0498 67.0915 18.0405C67.1753 18.0312 67.2497 18.0173 67.3148 17.9987C67.38 17.9801 67.4172 17.9708 67.4265 17.9708C67.4358 17.9708 67.4637 17.9475 67.5102 17.901C67.5568 17.8544 67.5847 17.8358 67.594 17.8451V10.6292Z" fill=""/>
<path d="M79.1776 19.9994C79.1776 19.8283 79.2697 19.6967 79.454 19.6046H92.0294C92.2268 19.7099 92.3255 19.8415 92.3255 19.9994C92.3255 20.1442 92.2334 20.2692 92.0491 20.3745L85.7713 20.3943H79.4935C79.2829 20.3284 79.1776 20.1968 79.1776 19.9994ZM79.1776 23.8293C79.1776 23.6319 79.2829 23.5003 79.4935 23.4345H92.0491C92.2334 23.5661 92.3255 23.6977 92.3255 23.8293C92.3255 24.0004 92.2268 24.132 92.0294 24.2241H79.454C79.2697 24.132 79.1776 24.0004 79.1776 23.8293Z" fill=""/>
<path d="M129.159 2.09376L128.903 2.19247C128.718 2.25827 128.455 2.32408 128.113 2.38988C127.771 2.45569 127.389 2.50175 126.968 2.52808H126.593V1.61996H126.968C127.587 1.59364 128.159 1.49493 128.686 1.32384C129.212 1.15275 129.58 0.994812 129.791 0.85004C130.002 0.705269 130.186 0.560497 130.344 0.415726C130.37 0.376243 130.449 0.356501 130.581 0.356501C130.699 0.356501 130.811 0.395985 130.916 0.474951V6.37768L130.936 12.3002C131.028 12.3923 131.107 12.4515 131.173 12.4778C131.239 12.5042 131.397 12.5305 131.647 12.5568C131.897 12.5831 132.305 12.5963 132.871 12.5963H133.384V13.5044H133.167C132.89 13.4649 131.844 13.4452 130.028 13.4452C128.238 13.4452 127.205 13.4649 126.929 13.5044H126.692V12.5963H127.205C127.494 12.5963 127.744 12.5963 127.955 12.5963C128.166 12.5963 128.33 12.5897 128.449 12.5765C128.567 12.5634 128.672 12.5436 128.764 12.5173C128.857 12.491 128.909 12.4778 128.922 12.4778C128.936 12.4778 128.975 12.4449 129.041 12.3791C129.107 12.3133 129.146 12.287 129.159 12.3002V2.09376Z" fill=""/>
<path d="M107.463 31.1118L107.207 31.2105C107.022 31.2763 106.759 31.3421 106.417 31.408C106.075 31.4738 105.693 31.5198 105.272 31.5461H104.897V30.638H105.272C105.891 30.6117 106.463 30.513 106.989 30.3419C107.516 30.1708 107.884 30.0129 108.095 29.8681C108.306 29.7233 108.49 29.5786 108.648 29.4338C108.674 29.3943 108.753 29.3746 108.885 29.3746C109.003 29.3746 109.115 29.4141 109.22 29.493V35.3958L109.24 41.3182C109.332 41.4104 109.411 41.4696 109.477 41.4959C109.543 41.5222 109.701 41.5485 109.951 41.5749C110.201 41.6012 110.609 41.6143 111.175 41.6143H111.688V42.5225H111.471C111.194 42.483 110.148 42.4632 108.332 42.4632C106.542 42.4632 105.509 42.483 105.232 42.5225H104.996V41.6143H105.509C105.798 41.6143 106.048 41.6143 106.259 41.6143C106.47 41.6143 106.634 41.6078 106.753 41.5946C106.871 41.5814 106.976 41.5617 107.068 41.5354C107.161 41.5091 107.213 41.4959 107.226 41.4959C107.24 41.4959 107.279 41.463 107.345 41.3972C107.411 41.3314 107.45 41.3051 107.463 41.3182V31.1118Z" fill=""/>
<path d="M118.621 37.8438C118.621 37.8438 118.621 37.7582 118.621 37.5872C118.621 37.4161 118.713 37.2844 118.898 37.1923H124.8V34.2311L124.82 31.2698C124.952 31.0988 125.077 31.0132 125.195 31.0132C125.366 31.0132 125.498 31.1119 125.59 31.3093V37.1923H131.473C131.67 37.2976 131.769 37.4292 131.769 37.5872C131.769 37.7451 131.67 37.8767 131.473 37.982H125.59V43.865C125.485 44.0492 125.366 44.1414 125.235 44.1414H125.195H125.156C124.998 44.1414 124.879 44.0492 124.8 43.865V37.982H118.898C118.713 37.8899 118.621 37.7582 118.621 37.5872V37.8438Z" fill=""/>
<path d="M138.288 36.8173C138.38 36.2645 138.735 35.6262 139.354 34.9023C139.972 34.1785 140.736 33.81 141.644 33.7968C142.104 33.7968 142.526 33.9153 142.907 34.1522C143.289 34.3891 143.572 34.6852 143.756 35.0405C144.309 34.2114 144.974 33.7968 145.75 33.7968C146.237 33.7968 146.658 33.9416 147.014 34.2311C147.369 34.5207 147.553 34.9089 147.566 35.3959C147.566 35.7775 147.474 36.0868 147.29 36.3237C147.106 36.5606 146.928 36.7054 146.757 36.758C146.586 36.8107 146.434 36.837 146.303 36.837C146.053 36.837 145.849 36.7646 145.691 36.6199C145.533 36.4751 145.454 36.2842 145.454 36.0474C145.454 35.4419 145.783 35.0274 146.441 34.8036C146.296 34.6325 146.033 34.547 145.651 34.547C145.48 34.547 145.355 34.5602 145.276 34.5865C144.776 34.7971 144.408 35.2314 144.171 35.8894C143.381 38.798 142.986 40.4958 142.986 40.9827C142.986 41.3513 143.092 41.6145 143.302 41.7724C143.513 41.9303 143.743 42.0093 143.993 42.0093C144.48 42.0093 144.96 41.7922 145.434 41.3578C145.908 40.9235 146.23 40.3905 146.402 39.7588C146.441 39.6272 146.481 39.5548 146.52 39.5416C146.559 39.5284 146.665 39.5153 146.836 39.5021H146.915C147.112 39.5021 147.211 39.5548 147.211 39.6601C147.211 39.6732 147.198 39.7456 147.171 39.8772C146.961 40.6274 146.553 41.292 145.947 41.8711C145.342 42.4502 144.638 42.7397 143.835 42.7397C142.914 42.7397 142.216 42.3252 141.743 41.496C141.203 42.312 140.584 42.72 139.887 42.72H139.768C139.123 42.72 138.663 42.5489 138.386 42.2067C138.11 41.8645 137.965 41.5026 137.952 41.1209C137.952 40.6998 138.077 40.3576 138.327 40.0944C138.577 39.8312 138.873 39.6995 139.216 39.6995C139.782 39.6995 140.064 39.9759 140.064 40.5287C140.064 40.7919 139.986 41.0222 139.828 41.2196C139.67 41.4171 139.518 41.5487 139.374 41.6145C139.229 41.6803 139.143 41.7132 139.117 41.7132L139.058 41.7329C139.058 41.7461 139.097 41.7724 139.176 41.8119C139.255 41.8514 139.36 41.8974 139.492 41.9501C139.624 42.0027 139.749 42.0225 139.867 42.0093C140.341 42.0093 140.749 41.7132 141.091 41.1209C141.21 40.9104 141.361 40.4629 141.545 39.7785C141.729 39.0941 141.914 38.3834 142.098 37.6464C142.282 36.9094 142.387 36.4751 142.414 36.3435C142.48 35.9881 142.512 35.7315 142.512 35.5736C142.512 35.205 142.414 34.9418 142.216 34.7839C142.019 34.626 141.795 34.547 141.545 34.547C141.019 34.547 140.525 34.7576 140.064 35.1787C139.604 35.5999 139.281 36.1395 139.097 36.7975C139.071 36.916 139.038 36.9818 138.998 36.9949C138.959 37.0081 138.854 37.0213 138.683 37.0344H138.406C138.327 36.9555 138.288 36.8831 138.288 36.8173Z" fill=""/>
<path d="M150.075 29.3688C149.823 29.3688 149.623 29.285 149.475 29.1175C149.326 28.95 149.251 28.7453 149.251 28.5034C149.251 27.8428 149.498 27.2705 149.991 26.7867C150.484 26.3028 151.098 26.0609 151.833 26.0609C152.68 26.0609 153.387 26.3214 153.955 26.8425C154.522 27.3636 154.811 28.0382 154.82 28.8663C154.82 29.2664 154.727 29.6479 154.541 30.0108C154.355 30.3737 154.132 30.6901 153.871 30.9599C153.611 31.2297 153.238 31.574 152.755 31.9927C152.42 32.2812 151.954 32.7092 151.359 33.2768L150.535 34.0584L151.596 34.0724C153.057 34.0724 153.834 34.0491 153.927 34.0026C153.992 33.984 154.104 33.5699 154.262 32.7604V32.7185H154.82V32.7604C154.811 32.7883 154.75 33.2117 154.639 34.0305C154.527 34.8493 154.457 35.2774 154.429 35.3146V35.3564H149.251V35.0913V34.9238C149.251 34.8586 149.279 34.7888 149.335 34.7144C149.391 34.64 149.53 34.4771 149.754 34.2259C150.024 33.9281 150.256 33.6676 150.452 33.4443C150.535 33.3512 150.693 33.1791 150.926 32.9279C151.159 32.6766 151.317 32.5045 151.401 32.4115C151.484 32.3184 151.619 32.1649 151.805 31.9509C151.992 31.7369 152.122 31.5787 152.196 31.4763C152.271 31.374 152.378 31.2344 152.517 31.0576C152.657 30.8808 152.755 30.7319 152.81 30.611C152.866 30.49 152.936 30.3551 153.02 30.2062C153.103 30.0573 153.164 29.9084 153.201 29.7596C153.238 29.6107 153.271 29.4711 153.299 29.3408C153.327 29.2106 153.341 29.0571 153.341 28.8803C153.341 28.2941 153.183 27.7869 152.866 27.3589C152.55 26.9309 152.099 26.7169 151.512 26.7169C151.205 26.7169 150.935 26.796 150.703 26.9542C150.47 27.1123 150.307 27.2659 150.214 27.4147C150.121 27.5636 150.075 27.652 150.075 27.6799C150.075 27.6892 150.098 27.6939 150.144 27.6939C150.312 27.6939 150.484 27.759 150.661 27.8893C150.838 28.0196 150.926 28.2336 150.926 28.5313C150.926 28.7639 150.852 28.9594 150.703 29.1175C150.554 29.2757 150.345 29.3595 150.075 29.3688Z" fill=""/>
<path d="M158.495 22.5066H101.284V21.3221H158.495V22.5066Z" fill=""/>
<path d="M166.356 22.1709C166.356 22.1709 166.356 22.0854 166.356 21.9143C166.356 21.7432 166.449 21.6116 166.633 21.5195H172.536V18.5582L172.555 15.597C172.687 15.4259 172.812 15.3404 172.93 15.3404C173.101 15.3404 173.233 15.4391 173.325 15.6365V21.5195H179.208C179.406 21.6248 179.504 21.7564 179.504 21.9143C179.504 22.0722 179.406 22.2038 179.208 22.3091H173.325V28.1921C173.22 28.3764 173.101 28.4685 172.97 28.4685H172.93H172.891C172.733 28.4685 172.615 28.3764 172.536 28.1921V22.3091H166.633C166.449 22.217 166.356 22.0854 166.356 21.9143V22.1709Z" fill=""/>
<path d="M185.984 21.8747C185.984 20.3612 186.424 18.9069 187.306 17.5119C188.188 16.1168 189.3 15.0113 190.643 14.1953C191.985 13.3793 193.327 12.9647 194.67 12.9515C195.854 12.9515 196.795 13.2872 197.493 13.9584C197.611 14.09 197.71 14.2018 197.789 14.294C197.868 14.3861 197.921 14.4519 197.947 14.4914L197.967 14.5506C198.006 14.5506 198.184 14.3795 198.5 14.0373C198.592 13.9584 198.691 13.8662 198.796 13.761C198.901 13.6557 199.006 13.5504 199.112 13.4451C199.217 13.3398 199.283 13.2674 199.309 13.2279L199.605 12.9318H199.724C199.908 12.9318 200 12.9779 200 13.07C200 13.1226 199.789 14.0242 199.368 15.7746C198.895 17.604 198.658 18.5253 198.658 18.5384C198.631 18.6042 198.598 18.6437 198.559 18.6569C198.519 18.67 198.401 18.6832 198.204 18.6963H197.888C197.809 18.6174 197.769 18.5582 197.769 18.5187C197.769 18.5055 197.776 18.4594 197.789 18.3805C197.802 18.3015 197.815 18.1699 197.828 17.9857C197.842 17.8014 197.848 17.5908 197.848 17.3539C197.848 16.4195 197.638 15.6035 197.216 14.906C196.795 14.2084 196.078 13.8531 195.065 13.8399C194.722 13.8399 194.354 13.886 193.959 13.9781C193.564 14.0702 193.09 14.2282 192.538 14.4519C191.985 14.6756 191.439 15.0442 190.899 15.5574C190.36 16.0707 189.879 16.6827 189.458 17.3934C189.037 18.1436 188.701 19.0188 188.451 20.019C188.201 21.0193 188.076 21.8353 188.076 22.467C188.076 23.9673 188.576 25.0466 189.576 25.7046C190.208 26.1521 190.985 26.3758 191.906 26.3758C193.104 26.3758 194.17 25.9283 195.104 25.0334C196.039 24.1384 196.657 23.1645 196.96 22.1116C197.012 21.9405 197.052 21.8418 197.078 21.8155C197.105 21.7892 197.21 21.776 197.394 21.776C197.657 21.776 197.789 21.8353 197.789 21.9537C197.789 22.0195 197.782 22.0787 197.769 22.1314C197.388 23.5396 196.572 24.7504 195.321 25.7638C194.071 26.7772 192.729 27.2839 191.294 27.2839C189.807 27.2839 188.55 26.7904 187.523 25.8033C186.497 24.8162 185.984 23.5067 185.984 21.8747Z" fill=""/>
</svg>
