<svg width="614" height="182" viewBox="0 0 614 182" fill="none" xmlns="http://www.w3.org/2000/svg">
<path d="M15.4309 36.4244C16.0097 36.4244 16.2412 36.4244 16.2412 35.835C16.2412 35.5248 16.0097 35.5248 15.4888 35.5248H13.1447C13.6946 32.3299 14.0997 30.1275 14.3312 29.1349C14.5049 28.3905 15.1126 27.677 15.865 27.677C16.4727 27.677 17.0804 27.9562 17.3698 28.2354C16.2412 28.3594 15.8939 29.259 15.8939 29.7863C15.8939 30.4067 16.328 30.7789 16.8779 30.7789C17.4566 30.7789 18.3248 30.2516 18.3248 29.0729C18.3248 27.7701 17.1094 27.0566 15.8361 27.0566C14.5917 27.0566 13.3762 28.0492 12.7975 29.259C12.2766 30.3447 11.9872 31.4613 11.3216 35.5248H9.38266C8.83282 35.5248 8.54343 35.5248 8.54343 36.0832C8.54343 36.4244 8.71706 36.4244 9.29584 36.4244H11.1479C10.627 39.3091 9.44053 46.3194 8.77494 49.6385C8.28297 52.3371 7.84889 54.6015 6.40194 54.6015C6.31512 54.6015 5.47589 54.6015 4.95499 54.0121C6.43088 53.8881 6.43088 52.5232 6.43088 52.4922C6.43088 51.8718 5.99679 51.4996 5.44695 51.4996C4.86817 51.4996 4 52.0269 4 53.2056C4 54.5395 5.27332 55.2219 6.40194 55.2219C9.35372 55.2219 10.5692 49.5454 10.8875 47.9945C11.4084 45.606 12.8264 37.3549 12.9711 36.4244H15.4309Z" fill="#5F5B80" stroke="#5F5B80" stroke-width="0.5"/>
<path d="M28.9866 56.4313C28.9866 56.3382 28.9866 56.2762 28.4947 55.7488C25.6008 52.6159 23.9802 47.4978 23.9802 41.1699C23.9802 35.1522 25.3403 29.9721 28.6972 26.3118C28.9866 26.0326 28.9866 25.9706 28.9866 25.8775C28.9866 25.6914 28.8419 25.6294 28.7262 25.6294C28.35 25.6294 25.977 27.8628 24.559 30.9026C23.0831 34.0355 22.4175 37.3546 22.4175 41.1699C22.4175 43.9306 22.8226 47.6219 24.3275 50.9409C26.0349 54.6632 28.4079 56.6794 28.7262 56.6794C28.8419 56.6794 28.9866 56.6174 28.9866 56.4313Z" fill="#5F5B80" stroke="#5F5B80" stroke-width="0.5"/>
<path d="M44.3174 36.2375C43.3914 36.4236 43.0441 37.1681 43.0441 37.7574C43.0441 38.5019 43.594 38.75 43.9991 38.75C44.8673 38.75 45.475 37.9435 45.475 37.106C45.475 35.8032 44.0859 35.2139 42.8705 35.2139C41.1052 35.2139 40.1213 37.075 39.8608 37.6644C39.1952 35.3379 37.401 35.2139 36.8801 35.2139C33.9283 35.2139 32.3656 39.2774 32.3656 39.9598C32.3656 40.0838 32.4814 40.2389 32.684 40.2389C32.9155 40.2389 32.9734 40.0528 33.0312 39.9288C34.0152 36.4856 35.9541 35.8342 36.7933 35.8342C38.0956 35.8342 38.356 37.137 38.356 37.8815C38.356 38.5639 38.1824 39.2774 37.8351 40.7663L36.8512 45.0159C36.4171 46.877 35.5779 48.583 34.0441 48.583C33.8994 48.583 33.1759 48.583 32.5682 48.1798C33.61 47.9627 33.8415 47.0321 33.8415 46.6599C33.8415 46.0395 33.4074 45.6673 32.8576 45.6673C32.1631 45.6673 31.4106 46.3187 31.4106 47.3113C31.4106 48.6141 32.7708 49.2034 34.0152 49.2034C35.4042 49.2034 36.3882 48.0247 36.9959 46.7529C37.4589 48.5831 38.9058 49.2034 39.9766 49.2034C42.9284 49.2034 44.4911 45.1399 44.4911 44.4575C44.4911 44.3024 44.3753 44.1784 44.2017 44.1784C43.9412 44.1784 43.9123 44.3334 43.8255 44.5816C43.0441 47.3113 41.3657 48.583 40.0634 48.583C39.0505 48.583 38.5007 47.7766 38.5007 46.5048C38.5007 45.8224 38.6165 45.3261 39.0795 43.2788L40.0923 39.0602C40.5264 37.1991 41.5104 35.8342 42.8416 35.8342C42.8994 35.8342 43.7097 35.8342 44.3174 36.2375Z" fill="#5F5B80" stroke="#5F5B80" stroke-width="0.5"/>
<path d="M54.8641 41.1699C54.8641 38.8125 54.5747 34.9661 52.9541 31.3679C51.2467 27.6456 48.8737 25.6294 48.5554 25.6294C48.4396 25.6294 48.2949 25.6914 48.2949 25.8775C48.2949 25.9706 48.2949 26.0326 48.7869 26.56C51.6808 29.6929 53.3014 34.811 53.3014 41.1389C53.3014 47.1566 51.9412 52.3367 48.5843 55.997C48.2949 56.2762 48.2949 56.3382 48.2949 56.4313C48.2949 56.6174 48.4396 56.6794 48.5554 56.6794C48.9316 56.6794 51.3046 54.446 52.7226 51.4062C54.1985 48.2422 54.8641 44.8922 54.8641 41.1699Z" fill="#5F5B80" stroke="#5F5B80" stroke-width="0.5"/>
<path d="M85.2944 38.843C85.6995 38.843 86.2204 38.843 86.2204 38.2847C86.2204 37.6953 85.7285 37.6953 85.2944 37.6953H68.2493C67.8441 37.6953 67.3232 37.6953 67.3232 38.2537C67.3232 38.843 67.8152 38.843 68.2493 38.843H85.2944ZM85.2944 44.6125C85.6995 44.6125 86.2204 44.6125 86.2204 44.0542C86.2204 43.4648 85.7285 43.4648 85.2944 43.4648H68.2493C67.8441 43.4648 67.3232 43.4648 67.3232 44.0232C67.3232 44.6125 67.8152 44.6125 68.2493 44.6125H85.2944Z" fill="#5F5B80" stroke="#5F5B80" stroke-width="0.5"/>
<path d="M116.907 4.45345C115.769 2.98521 115.615 2.81978 114.939 2.28212C114.052 1.55834 112.875 1 111.602 1C109.248 1 107.627 3.21269 107.627 5.67353C107.627 8.09301 109.229 10.3264 111.525 10.3264C113.107 10.3264 114.959 9.43716 116.56 6.87293C117.698 8.34116 117.853 8.50659 118.528 9.04426C119.415 9.76803 120.592 10.3264 121.865 10.3264C124.219 10.3264 125.84 8.11369 125.84 5.65285C125.84 3.23337 124.238 1 121.943 1C120.361 1 118.509 1.88921 116.907 4.45345ZM117.486 5.21858C118.219 3.91578 119.801 1.78581 122.078 1.78581C124.142 1.78581 125.3 3.79171 125.3 5.65285C125.3 7.65874 123.872 9.20969 122.174 9.20969C120.476 9.20969 119.338 7.7001 117.486 5.21858ZM115.981 6.10779C115.248 7.41059 113.666 9.54056 111.39 9.54056C109.325 9.54056 108.168 7.53467 108.168 5.67353C108.168 3.66763 109.595 2.11668 111.293 2.11668C112.991 2.11668 114.129 3.62627 115.981 6.10779Z" fill="#5F5B80" stroke="#5F5B80" stroke-width="0.5"/>
<path d="M132.475 62.8514L135.976 52.9253H135.253C134.124 56.1513 131.057 58.2606 127.729 59.1911C127.121 59.3462 124.285 60.1527 118.729 60.1527H101.278L116.008 41.6344C116.211 41.3862 116.269 41.2932 116.269 41.1381C116.269 41.0761 116.269 40.983 116.066 40.6728L102.581 20.9137H118.439C122.317 20.9137 124.951 21.348 125.211 21.41C126.774 21.6582 129.291 22.1855 131.578 23.7364C132.301 24.2327 134.269 25.6286 135.253 28.1411H135.976L132.475 19.4248H98.2688C97.6032 19.4248 97.5743 19.4558 97.4874 19.6419C97.4585 19.735 97.4585 20.3244 97.4585 20.6656L112.767 43.1233L97.7768 61.9518C97.4874 62.3241 97.4874 62.4792 97.4874 62.5102C97.4874 62.8514 97.7479 62.8514 98.2688 62.8514H132.475Z" fill="#5F5B80" stroke="#5F5B80" stroke-width="0.5"/>
<path d="M101.282 81.1735C101.34 80.8633 101.533 80.0775 101.591 79.7673C101.861 78.6506 101.861 78.6299 102.305 77.9475C102.941 76.9342 103.848 76.0243 105.141 76.0243C105.835 76.0243 106.24 76.4586 106.24 77.4305C106.24 78.5679 105.43 80.9253 105.064 81.9386C104.813 82.621 104.813 82.7451 104.813 83.0139C104.813 84.1927 105.72 84.7717 106.549 84.7717C108.44 84.7717 109.231 81.8766 109.231 81.6078C109.231 81.401 109.076 81.3389 108.941 81.3389C108.71 81.3389 108.671 81.4837 108.613 81.6905C108.15 83.3862 107.34 84.1927 106.607 84.1927C106.298 84.1927 106.144 83.9859 106.144 83.5102C106.144 83.0346 106.298 82.5797 106.491 82.0627C106.781 81.2769 107.629 78.8988 107.629 77.7407C107.629 76.1898 106.626 75.4453 105.237 75.4453C103.674 75.4453 102.671 76.4586 102.112 77.2444C101.977 76.107 101.128 75.4453 100.144 75.4453C99.4494 75.4453 98.9671 75.9209 98.6584 76.562C98.1954 77.5339 98.0024 78.5679 98.0024 78.6092C98.0024 78.7954 98.1375 78.8781 98.2918 78.8781C98.5426 78.8781 98.5619 78.7954 98.697 78.2577C98.9285 77.2444 99.2758 76.0243 100.086 76.0243C100.588 76.0243 100.703 76.5413 100.703 76.9963C100.703 77.3685 100.607 77.7614 100.453 78.4438C100.414 78.6092 100.125 79.8293 100.047 80.1188L99.3336 83.2207C99.2565 83.5309 99.1407 84.0479 99.1407 84.1306C99.1407 84.6063 99.5073 84.7717 99.7581 84.7717C100.105 84.7717 100.395 84.5235 100.53 84.2754C100.588 84.1513 100.742 83.4482 100.838 83.0139L101.282 81.1735Z" fill="#5F5B80" stroke="#5F5B80" stroke-width="0.5"/>
<path d="M123.964 77.6793C124.254 77.6793 124.639 77.6793 124.639 77.2037C124.639 76.728 124.176 76.728 123.887 76.728H111.752C111.463 76.728 111 76.728 111 77.2037C111 77.6793 111.385 77.6793 111.675 77.6793H123.964ZM123.887 82.0633C124.176 82.0633 124.639 82.0633 124.639 81.5877C124.639 81.112 124.254 81.112 123.964 81.112H111.675C111.385 81.112 111 81.112 111 81.5877C111 82.0633 111.463 82.0633 111.752 82.0633H123.887Z" fill="#5F5B80" stroke="#5F5B80" stroke-width="0.5"/>
<path d="M135.238 77.969C135.238 75.7563 135.026 74.4122 134.389 73.0887C133.541 71.2689 131.978 70.814 130.917 70.814C128.486 70.814 127.598 72.7578 127.328 73.3368C126.634 74.8464 126.595 76.8937 126.595 77.969C126.595 79.3338 126.653 81.4225 127.579 83.0768C128.467 84.6071 129.894 85 130.917 85C131.843 85 133.502 84.6898 134.467 82.6425C135.18 81.1536 135.238 79.3132 135.238 77.969ZM130.917 84.421C130.261 84.421 128.93 84.0901 128.524 81.9188C128.312 80.74 128.312 78.7962 128.312 77.7209C128.312 76.294 128.312 74.8464 128.524 73.7091C128.93 71.5998 130.434 71.393 130.917 71.393C131.573 71.393 132.904 71.7445 133.29 73.6264C133.521 74.7637 133.521 76.3147 133.521 77.7209C133.521 78.9409 133.521 80.8021 133.29 81.9601C132.885 84.1315 131.553 84.421 130.917 84.421Z" fill="#5F5B80" stroke="#5F5B80" stroke-width="0.5"/>
<path d="M158.262 15.44C158.841 15.44 159.073 15.44 159.073 14.8506C159.073 14.5405 158.841 14.5405 158.32 14.5405H155.976C156.526 11.3455 156.931 9.14314 157.163 8.15054C157.336 7.40608 157.944 6.69265 158.697 6.69265C159.304 6.69265 159.912 6.97182 160.201 7.25099C159.073 7.37506 158.725 8.27461 158.725 8.80193C158.725 9.42232 159.16 9.79454 159.709 9.79454C160.288 9.79454 161.156 9.26722 161.156 8.0885C161.156 6.7857 159.941 6.07227 158.668 6.07227C157.423 6.07227 156.208 7.06487 155.629 8.27461C155.108 9.36028 154.819 10.477 154.153 14.5405H152.214C151.664 14.5405 151.375 14.5405 151.375 15.0988C151.375 15.44 151.549 15.44 152.127 15.44H153.979C153.459 18.3248 152.272 25.3351 151.606 28.6541C151.115 31.3527 150.68 33.6171 149.233 33.6171C149.147 33.6171 148.307 33.6171 147.787 33.0278C149.262 32.9037 149.262 31.5389 149.262 31.5078C149.262 30.8875 148.828 30.5152 148.278 30.5152C147.7 30.5152 146.832 31.0426 146.832 32.2213C146.832 33.5551 148.105 34.2375 149.233 34.2375C152.185 34.2375 153.401 28.561 153.719 27.0101C154.24 24.6216 155.658 16.3706 155.803 15.44H158.262Z" fill="#5F5B80" stroke="#5F5B80" stroke-width="0.5"/>
<path d="M168.837 21.8219C168.992 21.8219 169.223 21.8219 169.223 21.5738C169.223 21.491 169.204 21.4704 168.953 21.2015C166.31 18.5339 165.654 14.6875 165.654 11.4822C165.654 5.5266 167.95 2.73489 168.934 1.78364C169.204 1.51481 169.223 1.49413 169.223 1.39073C169.223 1.28733 169.146 1.14258 168.953 1.14258C168.644 1.14258 167.68 2.19722 167.525 2.38334C164.94 5.27844 164.4 9.00072 164.4 11.4822C164.4 16.1144 166.213 19.8367 168.837 21.8219Z" fill="#5F5B80" stroke="#5F5B80" stroke-width="0.5"/>
<path d="M174.243 13.2609C174.301 12.9507 174.494 12.1649 174.552 11.8547C174.822 10.738 174.822 10.7173 175.266 10.0349C175.902 9.02163 176.809 8.11174 178.102 8.11174C178.796 8.11174 179.201 8.546 179.201 9.51793C179.201 10.6553 178.391 13.0127 178.024 14.026C177.774 14.7084 177.774 14.8325 177.774 15.1013C177.774 16.2801 178.68 16.8591 179.51 16.8591C181.401 16.8591 182.192 13.964 182.192 13.6952C182.192 13.4884 182.037 13.4263 181.902 13.4263C181.671 13.4263 181.632 13.5711 181.574 13.7779C181.111 15.4736 180.301 16.2801 179.568 16.2801C179.259 16.2801 179.105 16.0733 179.105 15.5976C179.105 15.122 179.259 14.6671 179.452 14.1501C179.742 13.3643 180.59 10.9862 180.59 9.82812C180.59 8.27717 179.587 7.53271 178.198 7.53271C176.635 7.53271 175.632 8.546 175.073 9.33181C174.938 8.19445 174.089 7.53271 173.105 7.53271C172.41 7.53271 171.928 8.00834 171.619 8.6494C171.156 9.62133 170.963 10.6553 170.963 10.6967C170.963 10.8828 171.098 10.9655 171.253 10.9655C171.504 10.9655 171.523 10.8828 171.658 10.3451C171.889 9.33181 172.237 8.11174 173.047 8.11174C173.549 8.11174 173.664 8.62872 173.664 9.08366C173.664 9.45589 173.568 9.8488 173.414 10.5312C173.375 10.6967 173.086 11.9167 173.008 12.2062L172.295 15.3081C172.217 15.6183 172.102 16.1353 172.102 16.218C172.102 16.6937 172.468 16.8591 172.719 16.8591C173.066 16.8591 173.356 16.6109 173.491 16.3628C173.549 16.2387 173.703 15.5356 173.799 15.1013L174.243 13.2609Z" fill="#5F5B80" stroke="#5F5B80" stroke-width="0.5"/>
<path d="M188.784 11.4822C188.784 9.5177 188.476 7.16026 187.28 4.7201C186.334 2.8176 184.579 1.14258 184.231 1.14258C184.038 1.14258 183.98 1.28733 183.98 1.39073C183.98 1.47345 183.98 1.51481 184.212 1.76296C186.913 4.51331 187.53 8.29763 187.53 11.4822C187.53 17.4172 185.234 20.2296 184.251 21.1808C184 21.4497 183.98 21.4704 183.98 21.5738C183.98 21.6772 184.038 21.8219 184.231 21.8219C184.54 21.8219 185.505 20.7673 185.659 20.5811C188.244 17.686 188.784 13.9638 188.784 11.4822Z" fill="#5F5B80" stroke="#5F5B80" stroke-width="0.5"/>
<path d="M201.405 35.4469C201.405 35.3538 201.405 35.2918 200.913 34.7645C198.019 31.6315 196.398 26.5134 196.398 20.1855C196.398 14.1679 197.758 8.98768 201.115 5.32744C201.405 5.04827 201.405 4.98623 201.405 4.89317C201.405 4.70706 201.26 4.64502 201.144 4.64502C200.768 4.64502 198.395 6.87839 196.977 9.91825C195.501 13.0512 194.835 16.3702 194.835 20.1855C194.835 22.9462 195.241 26.6375 196.745 29.9565C198.453 33.6788 200.826 35.695 201.144 35.695C201.26 35.695 201.405 35.633 201.405 35.4469Z" fill="#5F5B80" stroke="#5F5B80" stroke-width="0.5"/>
<path d="M226.055 20.1855C226.055 17.8281 225.766 13.9817 224.145 10.3835C222.438 6.66125 220.065 4.64502 219.746 4.64502C219.631 4.64502 219.486 4.70706 219.486 4.89317C219.486 4.98623 219.486 5.04827 219.978 5.57559C222.872 8.70851 224.492 13.8266 224.492 20.1545C224.492 26.1722 223.132 31.3524 219.775 35.0126C219.486 35.2918 219.486 35.3538 219.486 35.4469C219.486 35.633 219.631 35.695 219.746 35.695C220.122 35.695 222.495 33.4617 223.914 30.4218C225.389 27.2579 226.055 23.9078 226.055 20.1855Z" fill="#5F5B80" stroke="#5F5B80" stroke-width="0.5"/>
<path d="M228.913 40.5181H145.355V41.7588H228.913V40.5181Z" fill="#5F5B80" stroke="#5F5B80" stroke-width="0.5"/>
<path d="M180.704 61.082C180.761 60.8959 181.485 59.345 182.556 58.3524C183.308 57.6079 184.292 57.1116 185.421 57.1116C186.578 57.1116 186.983 58.0422 186.983 59.2829C186.983 61.051 185.797 64.5872 185.218 66.2622C184.958 67.0066 184.813 67.4099 184.813 67.9682C184.813 69.3641 185.71 70.4808 187.099 70.4808C189.79 70.4808 190.803 65.921 190.803 65.7349C190.803 65.5798 190.687 65.4557 190.514 65.4557C190.253 65.4557 190.224 65.5488 190.08 66.0761C189.414 68.6196 188.314 69.8604 187.186 69.8604C186.896 69.8604 186.433 69.8294 186.433 68.8368C186.433 68.0613 186.752 67.1307 186.925 66.6965C187.504 64.9904 188.72 61.5163 188.72 59.7482C188.72 57.8871 187.707 56.4912 185.507 56.4912C182.932 56.4912 181.572 58.4454 181.051 59.2209C180.964 57.4528 179.777 56.4912 178.504 56.4912C177.578 56.4912 176.941 57.0806 176.449 58.1352C175.929 59.2519 175.523 61.113 175.523 61.2371C175.523 61.3612 175.639 61.5163 175.842 61.5163C176.073 61.5163 176.102 61.4853 176.276 60.7718C176.739 58.8797 177.26 57.1116 178.417 57.1116C179.083 57.1116 179.314 57.6079 179.314 58.5385C179.314 59.2209 179.025 60.4306 178.822 61.3922L178.012 64.7423C177.896 65.3316 177.578 66.7275 177.433 67.2858C177.231 68.0923 176.913 69.5502 176.913 69.7053C176.913 70.1396 177.231 70.4808 177.665 70.4808C178.012 70.4808 178.417 70.2947 178.649 69.8294C178.707 69.6743 178.967 68.5886 179.112 67.9682L179.749 65.1765L180.704 61.082Z" fill="#5F5B80" stroke="#5F5B80" stroke-width="0.5"/>
<path d="M196.981 49.4496C196.981 48.457 196.2 47.9917 195.592 47.9917C194.984 47.9917 194.087 48.426 194.174 49.7288L195.216 63.9355C195.245 64.4628 195.302 64.5869 195.563 64.5869C195.852 64.5869 195.91 64.4938 195.939 63.9355L196.981 49.4496ZM196.981 68.6503C196.981 67.8438 196.344 67.1614 195.592 67.1614C194.782 67.1614 194.174 67.8438 194.174 68.6814C194.174 69.4879 194.81 70.1703 195.563 70.1703C196.373 70.1703 196.981 69.4879 196.981 68.6503Z" fill="#5F5B80" stroke="#5F5B80" stroke-width="0.5"/>
<path d="M241.212 56.4313C241.212 56.3382 241.212 56.2762 240.72 55.7488C237.826 52.6159 236.206 47.4978 236.206 41.1699C236.206 35.1522 237.566 29.9721 240.923 26.3118C241.212 26.0326 241.212 25.9706 241.212 25.8775C241.212 25.6914 241.068 25.6294 240.952 25.6294C240.576 25.6294 238.203 27.8628 236.785 30.9026C235.309 34.0355 234.643 37.3546 234.643 41.1699C234.643 43.9306 235.048 47.6219 236.553 50.9409C238.26 54.6632 240.633 56.6794 240.952 56.6794C241.068 56.6794 241.212 56.6174 241.212 56.4313Z" fill="#5F5B80" stroke="#5F5B80" stroke-width="0.5"/>
<path d="M256.544 36.2375C255.618 36.4236 255.271 37.1681 255.271 37.7574C255.271 38.5019 255.821 38.75 256.226 38.75C257.094 38.75 257.702 37.9435 257.702 37.106C257.702 35.8032 256.312 35.2139 255.097 35.2139C253.332 35.2139 252.348 37.075 252.087 37.6644C251.422 35.3379 249.628 35.2139 249.107 35.2139C246.155 35.2139 244.592 39.2774 244.592 39.9598C244.592 40.0838 244.708 40.2389 244.911 40.2389C245.142 40.2389 245.2 40.0528 245.258 39.9288C246.242 36.4856 248.181 35.8342 249.02 35.8342C250.322 35.8342 250.583 37.137 250.583 37.8815C250.583 38.5639 250.409 39.2774 250.062 40.7663L249.078 45.0159C248.644 46.877 247.804 48.583 246.271 48.583C246.126 48.583 245.402 48.583 244.795 48.1798C245.837 47.9627 246.068 47.0321 246.068 46.6599C246.068 46.0395 245.634 45.6673 245.084 45.6673C244.39 45.6673 243.637 46.3187 243.637 47.3113C243.637 48.6141 244.997 49.2034 246.242 49.2034C247.631 49.2034 248.615 48.0247 249.222 46.7529C249.685 48.5831 251.132 49.2034 252.203 49.2034C255.155 49.2034 256.718 45.1399 256.718 44.4575C256.718 44.3024 256.602 44.1784 256.428 44.1784C256.168 44.1784 256.139 44.3334 256.052 44.5816C255.271 47.3113 253.592 48.583 252.29 48.583C251.277 48.583 250.727 47.7766 250.727 46.5048C250.727 45.8224 250.843 45.3261 251.306 43.2788L252.319 39.0602C252.753 37.1991 253.737 35.8342 255.068 35.8342C255.126 35.8342 255.936 35.8342 256.544 36.2375Z" fill="#5F5B80" stroke="#5F5B80" stroke-width="0.5"/>
<path d="M272.28 31.7282C272.338 31.418 272.531 30.6322 272.588 30.322C272.859 29.2053 272.859 29.1846 273.302 28.5022C273.939 27.4889 274.846 26.579 276.138 26.579C276.833 26.579 277.238 27.0133 277.238 27.9852C277.238 29.1226 276.428 31.48 276.061 32.4933C275.81 33.1757 275.81 33.2998 275.81 33.5686C275.81 34.7474 276.717 35.3264 277.547 35.3264C279.437 35.3264 280.228 32.4313 280.228 32.1624C280.228 31.9556 280.074 31.8936 279.939 31.8936C279.707 31.8936 279.669 32.0384 279.611 32.2452C279.148 33.9409 278.338 34.7474 277.605 34.7474C277.296 34.7474 277.142 34.5406 277.142 34.0649C277.142 33.5893 277.296 33.1344 277.489 32.6174C277.778 31.8316 278.627 29.4534 278.627 28.2954C278.627 26.7445 277.624 26 276.235 26C274.672 26 273.669 27.0133 273.109 27.7991C272.974 26.6617 272.125 26 271.141 26C270.447 26 269.965 26.4756 269.656 27.1167C269.193 28.0886 269 29.1226 269 29.1639C269 29.35 269.135 29.4328 269.289 29.4328C269.54 29.4328 269.559 29.3501 269.695 28.8124C269.926 27.7991 270.273 26.579 271.084 26.579C271.585 26.579 271.701 27.096 271.701 27.5509C271.701 27.9232 271.605 28.3161 271.45 28.9985C271.412 29.1639 271.122 30.384 271.045 30.6735L270.331 33.7754C270.254 34.0856 270.138 34.6026 270.138 34.6853C270.138 35.1609 270.505 35.3264 270.756 35.3264C271.103 35.3264 271.392 35.0782 271.527 34.8301C271.585 34.706 271.74 34.0029 271.836 33.5686L272.28 31.7282Z" fill="#5F5B80" stroke="#5F5B80" stroke-width="0.5"/>
<path d="M20.4287 149.591C20.8667 149.591 21.4299 149.591 21.4299 149.042C21.4299 148.463 20.898 148.463 20.4287 148.463H2.00116C1.56315 148.463 1 148.463 1 149.012C1 149.591 1.53187 149.591 2.00116 149.591H20.4287ZM20.4287 155.258C20.8667 155.258 21.4299 155.258 21.4299 154.709C21.4299 154.13 20.898 154.13 20.4287 154.13H2.00116C1.56315 154.13 1 154.13 1 154.679C1 155.258 1.53187 155.258 2.00116 155.258H20.4287Z" fill="#5F5B80" stroke="#5F5B80" stroke-width="0.5"/>
<path d="M45.7819 147.214C46.4076 147.214 46.6579 147.214 46.6579 146.635C46.6579 146.33 46.4076 146.33 45.8444 146.33H43.3103C43.9047 143.192 44.3427 141.029 44.593 140.054C44.7807 139.323 45.4377 138.622 46.2512 138.622C46.9082 138.622 47.5652 138.896 47.878 139.17C46.6579 139.292 46.2824 140.176 46.2824 140.694C46.2824 141.303 46.7517 141.669 47.3462 141.669C47.9719 141.669 48.9105 141.151 48.9105 139.993C48.9105 138.713 47.5965 138.013 46.2199 138.013C44.8746 138.013 43.5605 138.988 42.9348 140.176C42.3717 141.242 42.0588 142.339 41.3392 146.33H39.2431C38.6486 146.33 38.3358 146.33 38.3358 146.879C38.3358 147.214 38.5235 147.214 39.1492 147.214H41.1515C40.5884 150.047 39.3056 156.933 38.586 160.193C38.0542 162.843 37.5849 165.067 36.0206 165.067C35.9267 165.067 35.0194 165.067 34.4563 164.488C36.0519 164.367 36.0519 163.026 36.0519 162.996C36.0519 162.386 35.5826 162.021 34.9881 162.021C34.3624 162.021 33.4238 162.539 33.4238 163.696C33.4238 165.006 34.8004 165.677 36.0206 165.677C39.2118 165.677 40.5258 160.101 40.8699 158.578C41.4331 156.232 42.9661 148.128 43.1225 147.214H45.7819Z" fill="#5F5B80" stroke="#5F5B80" stroke-width="0.5"/>
<path d="M60.4359 166.865C60.4359 166.774 60.4359 166.713 59.9041 166.195C56.7755 163.118 55.0234 158.091 55.0234 151.875C55.0234 145.965 56.4939 140.877 60.1231 137.282C60.4359 137.007 60.4359 136.946 60.4359 136.855C60.4359 136.672 60.2795 136.611 60.1544 136.611C59.7476 136.611 57.1822 138.805 55.6492 141.791C54.0536 144.868 53.334 148.128 53.334 151.875C53.334 154.587 53.772 158.212 55.3989 161.472C57.2448 165.128 59.8102 167.109 60.1544 167.109C60.2795 167.109 60.4359 167.048 60.4359 166.865Z" fill="#5F5B80" stroke="#5F5B80" stroke-width="0.5"/>
<path d="M76.1968 149.712C76.1968 147.184 76.0404 144.716 74.9141 142.4C73.6314 139.871 71.3788 139.201 69.8458 139.201C68.0312 139.201 65.8098 140.085 64.6523 142.613C63.7762 144.533 63.4634 146.422 63.4634 149.712C63.4634 152.668 63.6824 154.892 64.8087 157.055C66.0288 159.37 68.1876 160.102 69.8145 160.102C72.5364 160.102 74.1007 158.517 75.008 156.75C76.1343 154.465 76.1968 151.479 76.1968 149.712ZM69.8145 159.492C68.8133 159.492 66.7797 158.944 66.1853 155.623C65.8411 153.795 65.8411 151.479 65.8411 149.347C65.8411 146.848 65.8411 144.594 66.3417 142.796C66.8736 140.755 68.4692 139.811 69.8145 139.811C71.0033 139.811 72.8179 140.511 73.4124 143.131C73.8191 144.868 73.8191 147.275 73.8191 149.347C73.8191 151.388 73.8191 153.703 73.4749 155.562C72.8805 158.913 70.9095 159.492 69.8145 159.492Z" fill="#5F5B80" stroke="#5F5B80" stroke-width="0.5"/>
<path d="M86.3212 151.875C86.3212 149.56 86.0083 145.782 84.2563 142.248C82.4104 138.592 79.845 136.611 79.5008 136.611C79.3757 136.611 79.2192 136.672 79.2192 136.855C79.2192 136.946 79.2192 137.007 79.7511 137.525C82.8797 140.603 84.6317 145.63 84.6317 151.845C84.6317 157.755 83.1613 162.843 79.5321 166.438C79.2192 166.713 79.2192 166.774 79.2192 166.865C79.2192 167.048 79.3757 167.109 79.5008 167.109C79.9075 167.109 82.473 164.915 84.006 161.929C85.6016 158.822 86.3212 155.531 86.3212 151.875Z" fill="#5F5B80" stroke="#5F5B80" stroke-width="0.5"/>
<path d="M108.846 152.423H117.481C117.919 152.423 118.483 152.423 118.483 151.875C118.483 151.296 117.951 151.296 117.481 151.296H108.846V142.887C108.846 142.461 108.846 141.912 108.283 141.912C107.689 141.912 107.689 142.43 107.689 142.887V151.296H99.0539C98.6159 151.296 98.0527 151.296 98.0527 151.844C98.0527 152.423 98.5846 152.423 99.0539 152.423H107.689V160.832C107.689 161.259 107.689 161.807 108.252 161.807C108.846 161.807 108.846 161.289 108.846 160.832V152.423Z" fill="#5F5B80" stroke="#5F5B80" stroke-width="0.5"/>
<path d="M141.096 147.214C141.722 147.214 141.972 147.214 141.972 146.635C141.972 146.33 141.722 146.33 141.159 146.33H138.625C139.219 143.192 139.657 141.029 139.907 140.054C140.095 139.323 140.752 138.622 141.566 138.622C142.223 138.622 142.88 138.896 143.192 139.17C141.972 139.292 141.597 140.176 141.597 140.694C141.597 141.303 142.066 141.669 142.661 141.669C143.286 141.669 144.225 141.151 144.225 139.993C144.225 138.713 142.911 138.013 141.534 138.013C140.189 138.013 138.875 138.988 138.249 140.176C137.686 141.242 137.373 142.339 136.654 146.33H134.558C133.963 146.33 133.65 146.33 133.65 146.879C133.65 147.214 133.838 147.214 134.464 147.214H136.466C135.903 150.047 134.62 156.933 133.9 160.193C133.369 162.843 132.899 165.067 131.335 165.067C131.241 165.067 130.334 165.067 129.771 164.488C131.366 164.367 131.366 163.026 131.366 162.996C131.366 162.386 130.897 162.021 130.303 162.021C129.677 162.021 128.738 162.539 128.738 163.696C128.738 165.006 130.115 165.677 131.335 165.677C134.526 165.677 135.84 160.101 136.184 158.578C136.748 156.232 138.281 148.128 138.437 147.214H141.096Z" fill="#5F5B80" stroke="#5F5B80" stroke-width="0.5"/>
<path d="M151.11 137.254C151.214 136.99 151.297 136.848 151.297 136.644C151.297 135.974 150.671 135.527 150.087 135.527C149.253 135.527 149.024 136.238 148.94 136.523L146.291 145.277C146.208 145.521 146.208 145.581 146.208 145.602C146.208 145.785 146.333 145.825 146.542 145.886C146.917 146.049 146.959 146.049 147.001 146.049C147.063 146.049 147.188 146.049 147.334 145.703L151.11 137.254Z" fill="#5F5B80" stroke="#5F5B80" stroke-width="0.5"/>
<path d="M163.065 166.865C163.065 166.774 163.065 166.713 162.533 166.195C159.405 163.118 157.653 158.091 157.653 151.875C157.653 145.965 159.123 140.877 162.752 137.282C163.065 137.007 163.065 136.946 163.065 136.855C163.065 136.672 162.909 136.611 162.784 136.611C162.377 136.611 159.812 138.805 158.279 141.791C156.683 144.868 155.963 148.128 155.963 151.875C155.963 154.587 156.401 158.212 158.028 161.472C159.874 165.128 162.44 167.109 162.784 167.109C162.909 167.109 163.065 167.048 163.065 166.865Z" fill="#5F5B80" stroke="#5F5B80" stroke-width="0.5"/>
<path d="M178.827 149.712C178.827 147.184 178.67 144.716 177.544 142.4C176.261 139.871 174.009 139.201 172.476 139.201C170.661 139.201 168.44 140.085 167.282 142.613C166.406 144.533 166.093 146.422 166.093 149.712C166.093 152.668 166.312 154.892 167.439 157.055C168.659 159.37 170.817 160.102 172.444 160.102C175.166 160.102 176.731 158.517 177.638 156.75C178.764 154.465 178.827 151.479 178.827 149.712ZM172.444 159.492C171.443 159.492 169.41 158.944 168.815 155.623C168.471 153.795 168.471 151.479 168.471 149.347C168.471 146.848 168.471 144.594 168.972 142.796C169.503 140.755 171.099 139.811 172.444 139.811C173.633 139.811 175.448 140.511 176.042 143.131C176.449 144.868 176.449 147.275 176.449 149.347C176.449 151.388 176.449 153.703 176.105 155.562C175.51 158.913 173.539 159.492 172.444 159.492Z" fill="#5F5B80" stroke="#5F5B80" stroke-width="0.5"/>
<path d="M188.951 151.875C188.951 149.56 188.638 145.782 186.886 142.248C185.04 138.592 182.474 136.611 182.13 136.611C182.005 136.611 181.849 136.672 181.849 136.855C181.849 136.946 181.849 137.007 182.38 137.525C185.509 140.603 187.261 145.63 187.261 151.845C187.261 157.755 185.791 162.843 182.161 166.438C181.849 166.713 181.849 166.774 181.849 166.865C181.849 167.048 182.005 167.109 182.13 167.109C182.537 167.109 185.102 164.915 186.635 161.929C188.231 158.822 188.951 155.531 188.951 151.875Z" fill="#5F5B80" stroke="#5F5B80" stroke-width="0.5"/>
<path d="M206.871 147.031C205.869 147.214 205.494 147.945 205.494 148.524C205.494 149.255 206.088 149.499 206.526 149.499C207.465 149.499 208.122 148.706 208.122 147.884C208.122 146.604 206.62 146.025 205.306 146.025C203.398 146.025 202.334 147.853 202.053 148.432C201.333 146.147 199.393 146.025 198.83 146.025C195.639 146.025 193.949 150.017 193.949 150.687C193.949 150.809 194.075 150.961 194.294 150.961C194.544 150.961 194.606 150.778 194.669 150.656C195.733 147.275 197.829 146.635 198.736 146.635C200.144 146.635 200.426 147.914 200.426 148.646C200.426 149.316 200.238 150.017 199.863 151.479L198.799 155.653C198.329 157.481 197.422 159.157 195.764 159.157C195.608 159.157 194.825 159.157 194.168 158.761C195.295 158.547 195.545 157.633 195.545 157.268C195.545 156.658 195.076 156.293 194.481 156.293C193.73 156.293 192.917 156.933 192.917 157.908C192.917 159.187 194.387 159.766 195.733 159.766C197.234 159.766 198.298 158.608 198.955 157.359C199.456 159.157 201.02 159.766 202.178 159.766C205.369 159.766 207.058 155.775 207.058 155.105C207.058 154.952 206.933 154.83 206.745 154.83C206.464 154.83 206.433 154.983 206.339 155.226C205.494 157.908 203.679 159.157 202.272 159.157C201.177 159.157 200.582 158.365 200.582 157.115C200.582 156.445 200.707 155.958 201.208 153.947L202.303 149.803C202.772 147.975 203.836 146.635 205.275 146.635C205.338 146.635 206.214 146.635 206.871 147.031Z" fill="#5F5B80" stroke="#5F5B80" stroke-width="0.5"/>
<path d="M228.885 152.423H237.52C237.958 152.423 238.521 152.423 238.521 151.875C238.521 151.296 237.989 151.296 237.52 151.296H228.885V142.887C228.885 142.461 228.885 141.912 228.321 141.912C227.727 141.912 227.727 142.43 227.727 142.887V151.296H219.092C218.654 151.296 218.091 151.296 218.091 151.844C218.091 152.423 218.623 152.423 219.092 152.423H227.727V160.832C227.727 161.259 227.727 161.807 228.29 161.807C228.885 161.807 228.885 161.289 228.885 160.832V152.423Z" fill="#5F5B80" stroke="#5F5B80" stroke-width="0.5"/>
<path d="M264.262 126.603C264.888 126.603 265.138 126.603 265.138 126.024C265.138 125.719 264.888 125.719 264.325 125.719H261.791C262.385 122.581 262.823 120.418 263.073 119.443C263.261 118.712 263.918 118.011 264.732 118.011C265.389 118.011 266.046 118.285 266.358 118.56C265.138 118.681 264.763 119.565 264.763 120.083C264.763 120.692 265.232 121.058 265.827 121.058C266.452 121.058 267.391 120.54 267.391 119.382C267.391 118.103 266.077 117.402 264.7 117.402C263.355 117.402 262.041 118.377 261.415 119.565C260.852 120.631 260.539 121.728 259.82 125.719H257.724C257.129 125.719 256.816 125.719 256.816 126.268C256.816 126.603 257.004 126.603 257.63 126.603H259.632C259.069 129.436 257.786 136.322 257.067 139.582C256.535 142.232 256.065 144.457 254.501 144.457C254.407 144.457 253.5 144.457 252.937 143.878C254.532 143.756 254.532 142.415 254.532 142.385C254.532 141.775 254.063 141.41 253.469 141.41C252.843 141.41 251.904 141.928 251.904 143.086C251.904 144.396 253.281 145.066 254.501 145.066C257.692 145.066 259.006 139.49 259.35 137.967C259.914 135.621 261.447 127.517 261.603 126.603H264.262Z" fill="#5F5B80" stroke="#5F5B80" stroke-width="0.5"/>
<path d="M274.276 118.167C274.38 117.903 274.463 117.761 274.463 117.558C274.463 116.887 273.838 116.44 273.254 116.44C272.419 116.44 272.19 117.151 272.106 117.436L269.457 126.19C269.374 126.434 269.374 126.495 269.374 126.515C269.374 126.698 269.499 126.738 269.708 126.799C270.083 126.962 270.125 126.962 270.167 126.962C270.229 126.962 270.354 126.962 270.5 126.616L274.276 118.167Z" fill="#5F5B80" stroke="#5F5B80" stroke-width="0.5"/>
<path d="M280.287 118.167C280.392 117.903 280.475 117.761 280.475 117.558C280.475 116.887 279.849 116.44 279.265 116.44C278.431 116.44 278.201 117.151 278.118 117.436L275.469 126.19C275.386 126.434 275.386 126.495 275.386 126.515C275.386 126.698 275.511 126.738 275.719 126.799C276.095 126.962 276.137 126.962 276.178 126.962C276.241 126.962 276.366 126.962 276.512 126.616L280.287 118.167Z" fill="#5F5B80" stroke="#5F5B80" stroke-width="0.5"/>
<path d="M292.243 146.254C292.243 146.162 292.243 146.101 291.711 145.583C288.583 142.506 286.831 137.479 286.831 131.264C286.831 125.353 288.301 120.265 291.93 116.67C292.243 116.396 292.243 116.335 292.243 116.244C292.243 116.061 292.087 116 291.961 116C291.555 116 288.989 118.194 287.456 121.179C285.861 124.257 285.141 127.517 285.141 131.264C285.141 133.976 285.579 137.601 287.206 140.861C289.052 144.517 291.617 146.497 291.961 146.497C292.087 146.497 292.243 146.437 292.243 146.254Z" fill="#5F5B80" stroke="#5F5B80" stroke-width="0.5"/>
<path d="M308.004 129.101C308.004 126.572 307.848 124.104 306.721 121.789C305.439 119.26 303.186 118.59 301.653 118.59C299.838 118.59 297.617 119.473 296.459 122.002C295.583 123.922 295.271 125.811 295.271 129.101C295.271 132.056 295.49 134.28 296.616 136.443C297.836 138.759 299.995 139.49 301.622 139.49C304.343 139.49 305.908 137.906 306.815 136.139C307.941 133.854 308.004 130.868 308.004 129.101ZM301.622 138.881C300.62 138.881 298.587 138.332 297.992 135.012C297.648 133.184 297.648 130.868 297.648 128.735C297.648 126.237 297.648 123.982 298.149 122.185C298.681 120.144 300.276 119.199 301.622 119.199C302.81 119.199 304.625 119.9 305.22 122.52C305.626 124.257 305.626 126.664 305.626 128.735C305.626 130.777 305.626 133.092 305.282 134.951C304.688 138.302 302.717 138.881 301.622 138.881Z" fill="#5F5B80" stroke="#5F5B80" stroke-width="0.5"/>
<path d="M216.733 20.5111C216.733 17.9823 216.577 15.5145 215.451 13.199C214.168 10.6703 211.915 10 210.382 10C208.568 10 206.346 10.8835 205.189 13.4123C204.313 15.3317 204 17.2207 204 20.5111C204 23.4664 204.219 25.6905 205.345 27.8536C206.565 30.1691 208.724 30.9003 210.351 30.9003C213.073 30.9003 214.637 29.3161 215.545 27.549C216.671 25.264 216.733 22.2782 216.733 20.5111ZM210.351 30.291C209.35 30.291 207.316 29.7426 206.722 26.4217C206.378 24.5937 206.378 22.2782 206.378 20.1455C206.378 17.6472 206.378 15.3927 206.878 13.5951C207.41 11.5538 209.006 10.6093 210.351 10.6093C211.54 10.6093 213.355 11.3101 213.949 13.9302C214.356 15.6669 214.356 18.0737 214.356 20.1455C214.356 22.1868 214.356 24.5023 214.012 26.3608C213.417 29.7121 211.446 30.291 210.351 30.291Z" fill="#5F5B80" stroke="#5F5B80" stroke-width="0.5"/>
<path d="M318.127 131.264C318.127 128.948 317.814 125.171 316.062 121.636C314.217 117.98 311.651 116 311.307 116C311.182 116 311.025 116.061 311.025 116.244C311.025 116.335 311.025 116.396 311.557 116.914C314.686 119.991 316.438 125.018 316.438 131.233C316.438 137.144 314.967 142.232 311.338 145.827C311.025 146.101 311.025 146.162 311.025 146.254C311.025 146.437 311.182 146.497 311.307 146.497C311.714 146.497 314.279 144.304 315.812 141.318C317.408 138.21 318.127 134.92 318.127 131.264Z" fill="#5F5B80" stroke="#5F5B80" stroke-width="0.5"/>
<path d="M267.102 41.264C267.102 38.9485 266.789 35.1706 265.037 31.6364C263.191 27.9804 260.626 26 260.282 26C260.156 26 260 26.0609 260 26.2437C260 26.3351 260 26.3961 260.532 26.914C263.66 29.9912 265.413 35.0182 265.413 41.2335C265.413 47.1441 263.942 52.2321 260.313 55.8272C260 56.1014 260 56.1623 260 56.2537C260 56.4365 260.156 56.4974 260.282 56.4974C260.688 56.4974 263.254 54.3038 264.787 51.3181C266.382 48.2104 267.102 44.92 267.102 41.264Z" fill="#5F5B80" stroke="#5F5B80" stroke-width="0.5"/>
<path d="M321.218 151.235H250.309V152.453H321.218V151.235Z" fill="#5F5B80" stroke="#5F5B80" stroke-width="0.5"/>
<path d="M287.616 175.242H286.928C286.834 175.76 286.584 177.435 286.271 177.923C286.052 178.197 284.269 178.197 283.33 178.197H277.542C278.387 177.496 280.295 175.546 281.109 174.815C285.864 170.55 287.616 168.965 287.616 165.949C287.616 162.446 284.769 160.1 281.14 160.1C277.511 160.1 275.383 163.116 275.383 165.736C275.383 167.29 276.76 167.29 276.854 167.29C277.511 167.29 278.324 166.833 278.324 165.858C278.324 165.005 277.73 164.426 276.854 164.426C276.572 164.426 276.51 164.426 276.416 164.456C277.01 162.385 278.7 160.983 280.733 160.983C283.393 160.983 285.019 163.146 285.019 165.949C285.019 168.539 283.486 170.794 281.703 172.743L275.383 179.629V180.36H286.803L287.616 175.242Z" fill="#5F5B80" stroke="#5F5B80" stroke-width="0.5"/>
<path d="M294.924 160.009C294.924 159.034 294.079 158.577 293.422 158.577C292.765 158.577 291.795 159.003 291.889 160.283L293.015 174.237C293.047 174.755 293.109 174.876 293.391 174.876C293.704 174.876 293.766 174.785 293.798 174.237L294.924 160.009ZM294.924 178.868C294.924 178.076 294.236 177.405 293.422 177.405C292.546 177.405 291.889 178.076 291.889 178.898C291.889 179.69 292.577 180.361 293.391 180.361C294.267 180.361 294.924 179.69 294.924 178.868Z" fill="#5F5B80" stroke="#5F5B80" stroke-width="0.5"/>
<path d="M334.515 166.865C334.515 166.774 334.515 166.713 333.983 166.195C330.854 163.118 329.102 158.091 329.102 151.875C329.102 145.965 330.572 140.877 334.202 137.282C334.515 137.007 334.515 136.946 334.515 136.855C334.515 136.672 334.358 136.611 334.233 136.611C333.826 136.611 331.261 138.805 329.728 141.791C328.132 144.868 327.413 148.128 327.413 151.875C327.413 154.587 327.851 158.212 329.477 161.472C331.323 165.128 333.889 167.109 334.233 167.109C334.358 167.109 334.515 167.048 334.515 166.865Z" fill="#5F5B80" stroke="#5F5B80" stroke-width="0.5"/>
<path d="M351.089 147.031C350.088 147.214 349.713 147.945 349.713 148.524C349.713 149.255 350.307 149.499 350.745 149.499C351.684 149.499 352.341 148.706 352.341 147.884C352.341 146.604 350.839 146.025 349.525 146.025C347.617 146.025 346.553 147.853 346.271 148.432C345.552 146.147 343.612 146.025 343.049 146.025C339.858 146.025 338.168 150.017 338.168 150.687C338.168 150.809 338.293 150.961 338.512 150.961C338.763 150.961 338.825 150.778 338.888 150.656C339.951 147.275 342.048 146.635 342.955 146.635C344.363 146.635 344.644 147.914 344.644 148.646C344.644 149.316 344.457 150.017 344.081 151.479L343.018 155.653C342.548 157.481 341.641 159.157 339.983 159.157C339.826 159.157 339.044 159.157 338.387 158.761C339.513 158.547 339.764 157.633 339.764 157.268C339.764 156.658 339.294 156.293 338.7 156.293C337.949 156.293 337.136 156.933 337.136 157.908C337.136 159.187 338.606 159.766 339.951 159.766C341.453 159.766 342.517 158.608 343.174 157.359C343.675 159.157 345.239 159.766 346.396 159.766C349.588 159.766 351.277 155.775 351.277 155.105C351.277 154.952 351.152 154.83 350.964 154.83C350.683 154.83 350.651 154.983 350.557 155.226C349.713 157.908 347.898 159.157 346.49 159.157C345.395 159.157 344.801 158.365 344.801 157.115C344.801 156.445 344.926 155.958 345.427 153.947L346.522 149.803C346.991 147.975 348.055 146.635 349.494 146.635C349.556 146.635 350.432 146.635 351.089 147.031Z" fill="#5F5B80" stroke="#5F5B80" stroke-width="0.5"/>
<path d="M362.491 151.875C362.491 149.56 362.178 145.782 360.426 142.248C358.58 138.592 356.015 136.611 355.671 136.611C355.546 136.611 355.389 136.672 355.389 136.855C355.389 136.946 355.389 137.007 355.921 137.525C359.05 140.603 360.802 145.63 360.802 151.845C360.802 157.755 359.331 162.843 355.702 166.438C355.389 166.713 355.389 166.774 355.389 166.865C355.389 167.048 355.546 167.109 355.671 167.109C356.077 167.109 358.643 164.915 360.176 161.929C361.772 158.822 362.491 155.531 362.491 151.875Z" fill="#5F5B80" stroke="#5F5B80" stroke-width="0.5"/>
<path d="M371.463 142.738C371.797 142.433 372.673 141.763 373.006 141.479C374.299 140.321 375.53 139.204 375.53 137.356C375.53 134.938 373.444 133.375 370.837 133.375C368.334 133.375 366.687 135.223 366.687 137.031C366.687 138.026 367.5 138.168 367.792 138.168C368.23 138.168 368.877 137.863 368.877 137.091C368.877 136.035 367.834 136.035 367.583 136.035C368.188 134.553 369.586 134.045 370.608 134.045C372.547 134.045 373.549 135.649 373.549 137.356C373.549 139.468 372.026 141.012 369.565 143.469L366.937 146.11C366.687 146.333 366.687 146.374 366.687 146.882H374.925L375.53 143.246H374.883C374.821 143.652 374.654 144.668 374.404 145.054C374.279 145.216 372.693 145.216 372.36 145.216H368.647L371.463 142.738Z" fill="#5F5B80" stroke="#5F5B80" stroke-width="0.5"/>
<path d="M397.401 152.423H406.036C406.474 152.423 407.037 152.423 407.037 151.875C407.037 151.296 406.505 151.296 406.036 151.296H397.401V142.887C397.401 142.461 397.401 141.912 396.838 141.912C396.243 141.912 396.243 142.43 396.243 142.887V151.296H387.608C387.17 151.296 386.607 151.296 386.607 151.844C386.607 152.423 387.139 152.423 387.608 152.423H396.243V160.832C396.243 161.259 396.243 161.807 396.806 161.807C397.401 161.807 397.401 161.289 397.401 160.832V152.423Z" fill="#5F5B80" stroke="#5F5B80" stroke-width="0.5"/>
<path d="M432.78 126.603C433.406 126.603 433.656 126.603 433.656 126.024C433.656 125.719 433.406 125.719 432.842 125.719H430.308C430.903 122.581 431.341 120.418 431.591 119.443C431.779 118.712 432.436 118.011 433.249 118.011C433.906 118.011 434.563 118.285 434.876 118.56C433.656 118.681 433.28 119.565 433.28 120.083C433.28 120.692 433.75 121.058 434.344 121.058C434.97 121.058 435.909 120.54 435.909 119.382C435.909 118.103 434.595 117.402 433.218 117.402C431.873 117.402 430.559 118.377 429.933 119.565C429.37 120.631 429.057 121.728 428.337 125.719H426.241C425.647 125.719 425.334 125.719 425.334 126.268C425.334 126.603 425.522 126.603 426.147 126.603H428.15C427.586 129.436 426.304 136.322 425.584 139.582C425.052 142.232 424.583 144.457 423.019 144.457C422.925 144.457 422.017 144.457 421.454 143.878C423.05 143.756 423.05 142.415 423.05 142.385C423.05 141.775 422.581 141.41 421.986 141.41C421.36 141.41 420.422 141.928 420.422 143.086C420.422 144.396 421.798 145.066 423.019 145.066C426.21 145.066 427.524 139.49 427.868 137.967C428.431 135.621 429.964 127.517 430.121 126.603H432.78Z" fill="#5F5B80" stroke="#5F5B80" stroke-width="0.5"/>
<path d="M442.793 118.167C442.897 117.903 442.981 117.761 442.981 117.558C442.981 116.887 442.355 116.44 441.771 116.44C440.937 116.44 440.707 117.151 440.624 117.436L437.975 126.19C437.892 126.434 437.892 126.495 437.892 126.515C437.892 126.698 438.017 126.738 438.225 126.799C438.601 126.962 438.642 126.962 438.684 126.962C438.747 126.962 438.872 126.962 439.018 126.616L442.793 118.167Z" fill="#5F5B80" stroke="#5F5B80" stroke-width="0.5"/>
<path d="M448.804 118.167C448.909 117.903 448.992 117.761 448.992 117.558C448.992 116.887 448.366 116.44 447.782 116.44C446.948 116.44 446.719 117.151 446.635 117.436L443.986 126.19C443.903 126.434 443.903 126.495 443.903 126.515C443.903 126.698 444.028 126.738 444.237 126.799C444.612 126.962 444.654 126.962 444.695 126.962C444.758 126.962 444.883 126.962 445.029 126.616L448.804 118.167Z" fill="#5F5B80" stroke="#5F5B80" stroke-width="0.5"/>
<path d="M454.815 118.167C454.919 117.903 455.002 117.761 455.002 117.558C455.002 116.887 454.377 116.44 453.793 116.44C452.958 116.44 452.729 117.151 452.645 117.436L449.997 126.19C449.913 126.434 449.913 126.495 449.913 126.515C449.913 126.698 450.038 126.738 450.247 126.799C450.622 126.962 450.664 126.962 450.706 126.962C450.768 126.962 450.893 126.962 451.039 126.616L454.815 118.167Z" fill="#5F5B80" stroke="#5F5B80" stroke-width="0.5"/>
<path d="M466.77 146.254C466.77 146.162 466.77 146.101 466.239 145.583C463.11 142.506 461.358 137.479 461.358 131.264C461.358 125.353 462.828 120.265 466.458 116.67C466.77 116.396 466.77 116.335 466.77 116.244C466.77 116.061 466.614 116 466.489 116C466.082 116 463.517 118.194 461.984 121.179C460.388 124.257 459.668 127.517 459.668 131.264C459.668 133.976 460.106 137.601 461.733 140.861C463.579 144.517 466.145 146.497 466.489 146.497C466.614 146.497 466.77 146.437 466.77 146.254Z" fill="#5F5B80" stroke="#5F5B80" stroke-width="0.5"/>
<path d="M482.532 129.101C482.532 126.572 482.375 124.104 481.249 121.789C479.966 119.26 477.714 118.59 476.181 118.59C474.366 118.59 472.145 119.473 470.987 122.002C470.111 123.922 469.798 125.811 469.798 129.101C469.798 132.056 470.017 134.28 471.144 136.443C472.364 138.759 474.523 139.49 476.149 139.49C478.871 139.49 480.436 137.906 481.343 136.139C482.469 133.854 482.532 130.868 482.532 129.101ZM476.149 138.881C475.148 138.881 473.115 138.332 472.52 135.012C472.176 133.184 472.176 130.868 472.176 128.735C472.176 126.237 472.176 123.982 472.677 122.185C473.209 120.144 474.804 119.199 476.149 119.199C477.338 119.199 479.153 119.9 479.747 122.52C480.154 124.257 480.154 126.664 480.154 128.735C480.154 130.777 480.154 133.092 479.81 134.951C479.215 138.302 477.244 138.881 476.149 138.881Z" fill="#5F5B80" stroke="#5F5B80" stroke-width="0.5"/>
<path d="M492.656 131.264C492.656 128.948 492.343 125.171 490.591 121.636C488.745 117.98 486.179 116 485.835 116C485.71 116 485.554 116.061 485.554 116.244C485.554 116.335 485.554 116.396 486.086 116.914C489.214 119.991 490.966 125.018 490.966 131.233C490.966 137.144 489.496 142.232 485.867 145.827C485.554 146.101 485.554 146.162 485.554 146.254C485.554 146.437 485.71 146.497 485.835 146.497C486.242 146.497 488.807 144.304 490.34 141.318C491.936 138.21 492.656 134.92 492.656 131.264Z" fill="#5F5B80" stroke="#5F5B80" stroke-width="0.5"/>
<path d="M495.746 151.235H418.826V152.453H495.746V151.235Z" fill="#5F5B80" stroke="#5F5B80" stroke-width="0.5"/>
<path d="M451.129 169.423C450.597 169.453 450.472 169.483 450.472 169.758C450.472 170.062 450.629 170.062 451.192 170.062H452.631C455.29 170.062 456.479 172.195 456.479 175.12C456.479 179.111 454.352 180.177 452.819 180.177C451.317 180.177 448.751 179.477 447.844 177.466C448.845 177.618 449.753 177.07 449.753 175.973C449.753 175.089 449.096 174.48 448.22 174.48C447.469 174.48 446.655 174.907 446.655 176.064C446.655 178.776 449.44 181 452.913 181C456.636 181 459.389 178.227 459.389 175.15C459.389 172.347 457.074 170.154 454.07 169.636C456.792 168.874 458.544 166.65 458.544 164.274C458.544 161.867 455.979 160.1 452.944 160.1C449.815 160.1 447.5 161.958 447.5 164.182C447.5 165.401 448.47 165.645 448.939 165.645C449.596 165.645 450.347 165.188 450.347 164.274C450.347 163.299 449.596 162.872 448.908 162.872C448.72 162.872 448.658 162.872 448.564 162.903C449.753 160.831 452.694 160.831 452.85 160.831C453.882 160.831 455.916 161.288 455.916 164.274C455.916 164.852 455.822 166.559 454.915 167.869C453.976 169.209 452.913 169.301 452.068 169.331L451.129 169.423Z" fill="#5F5B80" stroke="#5F5B80" stroke-width="0.5"/>
<path d="M466.446 160.009C466.446 159.034 465.601 158.577 464.944 158.577C464.287 158.577 463.317 159.003 463.411 160.283L464.537 174.237C464.569 174.755 464.631 174.876 464.913 174.876C465.226 174.876 465.288 174.785 465.32 174.237L466.446 160.009ZM466.446 178.868C466.446 178.076 465.758 177.405 464.944 177.405C464.068 177.405 463.411 178.076 463.411 178.898C463.411 179.69 464.099 180.361 464.913 180.361C465.789 180.361 466.446 179.69 466.446 178.868Z" fill="#5F5B80" stroke="#5F5B80" stroke-width="0.5"/>
<path d="M509.042 166.865C509.042 166.774 509.042 166.713 508.51 166.195C505.381 163.118 503.629 158.091 503.629 151.875C503.629 145.965 505.1 140.877 508.729 137.282C509.042 137.007 509.042 136.946 509.042 136.855C509.042 136.672 508.885 136.611 508.76 136.611C508.354 136.611 505.788 138.805 504.255 141.791C502.66 144.868 501.94 148.128 501.94 151.875C501.94 154.587 502.378 158.212 504.005 161.472C505.851 165.128 508.416 167.109 508.76 167.109C508.885 167.109 509.042 167.048 509.042 166.865Z" fill="#5F5B80" stroke="#5F5B80" stroke-width="0.5"/>
<path d="M525.618 147.031C524.617 147.214 524.241 147.945 524.241 148.524C524.241 149.255 524.836 149.499 525.274 149.499C526.212 149.499 526.869 148.706 526.869 147.884C526.869 146.604 525.367 146.025 524.053 146.025C522.145 146.025 521.081 147.853 520.8 148.432C520.08 146.147 518.14 146.025 517.577 146.025C514.386 146.025 512.697 150.017 512.697 150.687C512.697 150.809 512.822 150.961 513.041 150.961C513.291 150.961 513.354 150.778 513.416 150.656C514.48 147.275 516.576 146.635 517.483 146.635C518.891 146.635 519.173 147.914 519.173 148.646C519.173 149.316 518.985 150.017 518.61 151.479L517.546 155.653C517.077 157.481 516.169 159.157 514.511 159.157C514.355 159.157 513.573 159.157 512.916 158.761C514.042 158.547 514.292 157.633 514.292 157.268C514.292 156.658 513.823 156.293 513.228 156.293C512.478 156.293 511.664 156.933 511.664 157.908C511.664 159.187 513.135 159.766 514.48 159.766C515.982 159.766 517.045 158.608 517.702 157.359C518.203 159.157 519.767 159.766 520.925 159.766C524.116 159.766 525.805 155.775 525.805 155.105C525.805 154.952 525.68 154.83 525.493 154.83C525.211 154.83 525.18 154.983 525.086 155.226C524.241 157.908 522.426 159.157 521.019 159.157C519.924 159.157 519.329 158.365 519.329 157.115C519.329 156.445 519.454 155.958 519.955 153.947L521.05 149.803C521.519 147.975 522.583 146.635 524.022 146.635C524.085 146.635 524.961 146.635 525.618 147.031Z" fill="#5F5B80" stroke="#5F5B80" stroke-width="0.5"/>
<path d="M537.018 151.875C537.018 149.56 536.706 145.782 534.954 142.248C533.108 138.592 530.542 136.611 530.198 136.611C530.073 136.611 529.917 136.672 529.917 136.855C529.917 136.946 529.917 137.007 530.448 137.525C533.577 140.603 535.329 145.63 535.329 151.845C535.329 157.755 533.859 162.843 530.229 166.438C529.917 166.713 529.917 166.774 529.917 166.865C529.917 167.048 530.073 167.109 530.198 167.109C530.605 167.109 533.17 164.915 534.703 161.929C536.299 158.822 537.018 155.531 537.018 151.875Z" fill="#5F5B80" stroke="#5F5B80" stroke-width="0.5"/>
<path d="M545.386 140.098C547.033 140.098 548.076 141.276 548.076 143.408C548.076 145.947 546.595 146.699 545.49 146.699C544.343 146.699 542.778 146.293 542.048 145.216C542.799 145.216 543.321 144.749 543.321 144.079C543.321 143.429 542.841 142.961 542.174 142.961C541.61 142.961 541.026 143.307 541.026 144.119C541.026 146.049 543.154 147.308 545.532 147.308C548.306 147.308 550.245 145.439 550.245 143.408C550.245 141.722 548.869 140.179 546.741 139.732C548.389 139.163 549.62 137.782 549.62 136.157C549.62 134.532 547.742 133.375 545.573 133.375C543.342 133.375 541.652 134.553 541.652 136.096C541.652 136.848 542.174 137.173 542.716 137.173C543.362 137.173 543.78 136.726 543.78 136.137C543.78 135.385 543.112 135.101 542.653 135.081C543.529 133.964 545.135 133.903 545.511 133.903C546.053 133.903 547.638 134.065 547.638 136.157C547.638 137.579 547.033 138.432 546.741 138.757C546.116 139.387 545.636 139.427 544.364 139.509C543.967 139.529 543.8 139.549 543.8 139.813C543.8 140.098 543.988 140.098 544.343 140.098H545.386Z" fill="#5F5B80" stroke="#5F5B80" stroke-width="0.5"/>
<path d="M571.929 152.423H580.564C581.002 152.423 581.566 152.423 581.566 151.875C581.566 151.296 581.034 151.296 580.564 151.296H571.929V142.887C571.929 142.461 571.929 141.912 571.366 141.912C570.772 141.912 570.772 142.43 570.772 142.887V151.296H562.137C561.699 151.296 561.136 151.296 561.136 151.844C561.136 152.423 561.668 152.423 562.137 152.423H570.772V160.832C570.772 161.259 570.772 161.807 571.335 161.807C571.929 161.807 571.929 161.289 571.929 160.832V152.423Z" fill="#5F5B80" stroke="#5F5B80" stroke-width="0.5"/>
<path d="M595.981 157.999C595.981 157.116 595.23 156.506 594.479 156.506C593.572 156.506 592.946 157.238 592.946 157.969C592.946 158.852 593.697 159.462 594.448 159.462C595.355 159.462 595.981 158.73 595.981 157.999Z" fill="#5F5B80" stroke="#5F5B80" stroke-width="0.5"/>
<path d="M604.49 157.999C604.49 157.116 603.739 156.506 602.989 156.506C602.081 156.506 601.456 157.238 601.456 157.969C601.456 158.852 602.206 159.462 602.957 159.462C603.865 159.462 604.49 158.73 604.49 157.999Z" fill="#5F5B80" stroke="#5F5B80" stroke-width="0.5"/>
<path d="M613 157.999C613 157.116 612.249 156.506 611.498 156.506C610.591 156.506 609.965 157.238 609.965 157.969C609.965 158.852 610.716 159.462 611.467 159.462C612.374 159.462 613 158.73 613 157.999Z" fill="#5F5B80" stroke="#5F5B80" stroke-width="0.5"/>
</svg>
