<svg width="431" height="116" viewBox="0 0 431 116" fill="none" xmlns="http://www.w3.org/2000/svg">
<path d="M11.1159 23.4353C11.5216 23.4353 11.6839 23.4353 11.6839 23.0621C11.6839 22.8656 11.5216 22.8656 11.1564 22.8656H9.5133C9.89873 20.8422 10.1827 19.4473 10.345 18.8187C10.4667 18.3472 10.8927 17.8953 11.4202 17.8953C11.8462 17.8953 12.2722 18.0722 12.475 18.249C11.6839 18.3275 11.4404 18.8973 11.4404 19.2312C11.4404 19.6241 11.7447 19.8599 12.1302 19.8599C12.5359 19.8599 13.1444 19.5259 13.1444 18.7794C13.1444 17.9543 12.2924 17.5024 11.3999 17.5024C10.5276 17.5024 9.67559 18.1311 9.26988 18.8973C8.90473 19.5848 8.70188 20.2921 8.2353 22.8656H6.87616C6.49074 22.8656 6.28788 22.8656 6.28788 23.2192C6.28788 23.4353 6.40959 23.4353 6.81531 23.4353H8.11359C7.74845 25.2624 6.91674 29.7022 6.45016 31.8043C6.10531 33.5134 5.80102 34.9475 4.78674 34.9475C4.72588 34.9475 4.1376 34.9475 3.77245 34.5743C4.80702 34.4957 4.80702 33.6313 4.80702 33.6116C4.80702 33.2187 4.50274 32.983 4.11731 32.983C3.7116 32.983 3.10303 33.317 3.10303 34.0635C3.10303 34.9082 3.9956 35.3404 4.78674 35.3404C6.85588 35.3404 7.70788 31.7453 7.93102 30.7631C8.29616 29.2504 9.29016 24.0247 9.39159 23.4353H11.1159Z" fill="" stroke="black" stroke-width="0.2"/>
<path d="M20.6183 36.1065C20.6183 36.0475 20.6183 36.0083 20.2734 35.6743C18.2449 33.6901 17.1089 30.4486 17.1089 26.441C17.1089 22.6298 18.0623 19.349 20.4154 17.0308C20.6183 16.854 20.6183 16.8147 20.6183 16.7558C20.6183 16.6379 20.5169 16.5986 20.4357 16.5986C20.172 16.5986 18.5086 18.0131 17.5146 19.9383C16.48 21.9225 16.0134 24.0246 16.0134 26.441C16.0134 28.1894 16.2974 30.5272 17.3523 32.6292C18.5491 34.9867 20.2126 36.2636 20.4357 36.2636C20.5169 36.2636 20.6183 36.2244 20.6183 36.1065Z" fill="" stroke="black" stroke-width="0.2"/>
<path d="M31.3648 23.3172C30.7157 23.4351 30.4722 23.9066 30.4722 24.2799C30.4722 24.7514 30.8577 24.9085 31.1417 24.9085C31.7502 24.9085 32.1762 24.3977 32.1762 23.8673C32.1762 23.0422 31.2025 22.6689 30.3505 22.6689C29.1131 22.6689 28.4234 23.8477 28.2408 24.2209C27.7742 22.7475 26.5165 22.6689 26.1514 22.6689C24.0822 22.6689 22.9868 25.2425 22.9868 25.6747C22.9868 25.7533 23.068 25.8515 23.21 25.8515C23.3722 25.8515 23.4128 25.7336 23.4534 25.655C24.1431 23.4744 25.5022 23.0619 26.0905 23.0619C27.0034 23.0619 27.1859 23.887 27.1859 24.3584C27.1859 24.7906 27.0642 25.2425 26.8208 26.1855L26.1311 28.8769C25.8268 30.0556 25.2385 31.1361 24.1634 31.1361C24.062 31.1361 23.5548 31.1361 23.1288 30.8807C23.8591 30.7432 24.0214 30.1538 24.0214 29.9181C24.0214 29.5252 23.7171 29.2894 23.3317 29.2894C22.8448 29.2894 22.3174 29.702 22.3174 30.3306C22.3174 31.1557 23.2708 31.529 24.1431 31.529C25.1168 31.529 25.8065 30.7825 26.2325 29.977C26.5571 31.1361 27.5714 31.529 28.3219 31.529C30.3911 31.529 31.4865 28.9555 31.4865 28.5233C31.4865 28.425 31.4054 28.3465 31.2837 28.3465C31.1011 28.3465 31.0808 28.4447 31.0199 28.6018C30.4722 30.3306 29.2957 31.1361 28.3828 31.1361C27.6728 31.1361 27.2874 30.6253 27.2874 29.8199C27.2874 29.3877 27.3685 29.0733 27.6931 27.7767L28.4031 25.105C28.7074 23.9262 29.3971 23.0619 30.3302 23.0619C30.3708 23.0619 30.9388 23.0619 31.3648 23.3172Z" fill="" stroke="black" stroke-width="0.2"/>
<path d="M38.7577 26.441C38.7577 24.9479 38.5548 22.5119 37.4188 20.233C36.222 17.8756 34.5585 16.5986 34.3354 16.5986C34.2543 16.5986 34.1528 16.6379 34.1528 16.7558C34.1528 16.8147 34.1528 16.854 34.4977 17.188C36.5263 19.1722 37.6623 22.4137 37.6623 26.4213C37.6623 30.2325 36.7088 33.5133 34.3557 35.8314C34.1528 36.0083 34.1528 36.0475 34.1528 36.1065C34.1528 36.2244 34.2543 36.2636 34.3354 36.2636C34.5991 36.2636 36.2625 34.8492 37.2565 32.9239C38.2911 30.9201 38.7577 28.7984 38.7577 26.441Z" fill="" stroke="black" stroke-width="0.2"/>
<path d="M60.0889 24.9674C60.3729 24.9674 60.738 24.9674 60.738 24.6137C60.738 24.2405 60.3932 24.2405 60.0889 24.2405H48.1406C47.8566 24.2405 47.4915 24.2405 47.4915 24.5941C47.4915 24.9674 47.8363 24.9674 48.1406 24.9674H60.0889ZM60.0889 28.6214C60.3729 28.6214 60.738 28.6214 60.738 28.2678C60.738 27.8945 60.3932 27.8945 60.0889 27.8945H48.1406C47.8566 27.8945 47.4915 27.8945 47.4915 28.2481C47.4915 28.6214 47.8363 28.6214 48.1406 28.6214H60.0889Z" fill="" stroke="black" stroke-width="0.2"/>
<path d="M82.2488 3.18718C81.4509 2.2573 81.3427 2.15253 80.8694 1.81201C80.2473 1.35362 79.4224 1 78.5298 1C76.8799 1 75.7439 2.40137 75.7439 3.9599C75.7439 5.49224 76.8664 6.9067 78.4757 6.9067C79.5847 6.9067 80.8829 6.34354 82.0054 4.71952C82.8033 5.6494 82.9115 5.75418 83.3848 6.0947C84.0069 6.55309 84.8319 6.9067 85.7245 6.9067C87.3744 6.9067 88.5104 5.50534 88.5104 3.9468C88.5104 2.41447 87.3879 1 85.7785 1C84.6696 1 83.3713 1.56317 82.2488 3.18718ZM82.6546 3.67177C83.1685 2.84666 84.2774 1.49768 85.8732 1.49768C87.3203 1.49768 88.1317 2.76808 88.1317 3.9468C88.1317 5.2172 87.1309 6.19947 85.9408 6.19947C84.7507 6.19947 83.9528 5.2434 82.6546 3.67177ZM81.5997 4.23494C81.0858 5.06004 79.9768 6.40902 78.381 6.40902C76.934 6.40902 76.1226 5.13862 76.1226 3.9599C76.1226 2.6895 77.1233 1.70723 78.3134 1.70723C79.5035 1.70723 80.3014 2.66331 81.5997 4.23494Z" fill="" stroke="black" stroke-width="0.2"/>
<path d="M93.1614 40.1727L95.616 33.8862H95.1088C94.3177 35.9293 92.1674 37.2652 89.8346 37.8545C89.4086 37.9528 87.4206 38.4636 83.5257 38.4636H71.2934L81.6188 26.7353C81.7608 26.5781 81.8014 26.5192 81.8014 26.4209C81.8014 26.3817 81.8014 26.3227 81.6594 26.1263L72.2063 13.6122H83.3228C86.0411 13.6122 87.8871 13.8872 88.0697 13.9265C89.1651 14.0837 90.93 14.4176 92.5326 15.3999C93.0397 15.7142 94.4191 16.5983 95.1088 18.1895H95.616L93.1614 12.6692H69.1837C68.7172 12.6692 68.6969 12.6888 68.636 12.8067C68.6157 12.8656 68.6157 13.2389 68.6157 13.455L79.3469 27.6782L68.8389 39.603C68.636 39.8387 68.636 39.937 68.636 39.9566C68.636 40.1727 68.8186 40.1727 69.1837 40.1727H93.1614Z" fill="" stroke="black" stroke-width="0.2"/>
<path d="M71.2959 51.7765C71.3364 51.5801 71.4717 51.0824 71.5123 50.8859C71.7016 50.1787 71.7016 50.1656 72.0126 49.7334C72.4589 49.0917 73.0945 48.5154 74.0006 48.5154C74.4875 48.5154 74.7715 48.7904 74.7715 49.406C74.7715 50.1263 74.2035 51.6194 73.9465 52.2611C73.7707 52.6933 73.7707 52.7719 73.7707 52.9422C73.7707 53.6887 74.4063 54.0554 74.9879 54.0554C76.3132 54.0554 76.8677 52.2218 76.8677 52.0516C76.8677 51.9206 76.7595 51.8813 76.6648 51.8813C76.5025 51.8813 76.4755 51.973 76.4349 52.1039C76.1103 53.1779 75.5423 53.6887 75.0284 53.6887C74.8121 53.6887 74.7039 53.5577 74.7039 53.2565C74.7039 52.9552 74.8121 52.6671 74.9473 52.3397C75.1502 51.842 75.7452 50.3359 75.7452 49.6024C75.7452 48.6202 75.042 48.1487 74.0682 48.1487C72.9728 48.1487 72.2696 48.7904 71.8774 49.2881C71.7827 48.5678 71.1877 48.1487 70.498 48.1487C70.0111 48.1487 69.673 48.4499 69.4566 48.8559C69.1321 49.4715 68.9968 50.1263 68.9968 50.1525C68.9968 50.2704 69.0915 50.3228 69.1997 50.3228C69.3755 50.3228 69.389 50.2704 69.4837 49.9299C69.646 49.2881 69.8894 48.5154 70.4574 48.5154C70.809 48.5154 70.8902 48.8428 70.8902 49.1309C70.8902 49.3667 70.8225 49.6155 70.7143 50.0477C70.6873 50.1525 70.4844 50.9252 70.4303 51.1086L69.93 53.0731C69.8759 53.2696 69.7947 53.597 69.7947 53.6494C69.7947 53.9506 70.0517 54.0554 70.2275 54.0554C70.4709 54.0554 70.6738 53.8982 70.7684 53.7411C70.809 53.6625 70.9172 53.2172 70.9848 52.9422L71.2959 51.7765Z" fill="" stroke="black" stroke-width="0.2"/>
<path d="M87.1957 49.5636C87.3985 49.5636 87.669 49.5636 87.669 49.2624C87.669 48.9612 87.3444 48.9612 87.1416 48.9612H78.6351C78.4322 48.9612 78.1077 48.9612 78.1077 49.2624C78.1077 49.5636 78.3781 49.5636 78.581 49.5636H87.1957ZM87.1416 52.3402C87.3444 52.3402 87.669 52.3402 87.669 52.039C87.669 51.7377 87.3985 51.7377 87.1957 51.7377H78.581C78.3781 51.7377 78.1077 51.7377 78.1077 52.039C78.1077 52.3402 78.4322 52.3402 78.6351 52.3402H87.1416Z" fill="" stroke="black" stroke-width="0.2"/>
<path d="M95.0986 49.7471C95.0986 48.3457 94.9498 47.4944 94.5035 46.6562C93.9085 45.5037 92.8131 45.2156 92.0692 45.2156C90.3652 45.2156 89.7432 46.4467 89.5538 46.8134C89.067 47.7695 89.0399 49.0661 89.0399 49.7471C89.0399 50.6115 89.0805 51.9343 89.7296 52.982C90.3517 53.9512 91.3525 54.2001 92.0692 54.2001C92.7184 54.2001 93.8814 54.0036 94.5576 52.707C95.058 51.764 95.0986 50.5984 95.0986 49.7471ZM92.0692 53.8333C91.6094 53.8333 90.6763 53.6238 90.3923 52.2486C90.2435 51.5021 90.2435 50.271 90.2435 49.5899C90.2435 48.6863 90.2435 47.7695 90.3923 47.0491C90.6763 45.7133 91.7312 45.5823 92.0692 45.5823C92.5291 45.5823 93.4622 45.8049 93.7327 46.9968C93.895 47.7171 93.895 48.6994 93.895 49.5899C93.895 50.3627 93.895 51.5414 93.7327 52.2748C93.4487 53.65 92.5155 53.8333 92.0692 53.8333Z" fill="" stroke="black" stroke-width="0.2"/>
<path d="M111.238 10.1453C111.644 10.1453 111.806 10.1453 111.806 9.77204C111.806 9.57559 111.644 9.57559 111.279 9.57559H109.635C110.021 7.55211 110.305 6.15729 110.467 5.52864C110.589 5.05715 111.015 4.60531 111.542 4.60531C111.968 4.60531 112.394 4.78212 112.597 4.95893C111.806 5.03751 111.563 5.60722 111.563 5.94119C111.563 6.3341 111.867 6.56985 112.252 6.56985C112.658 6.56985 113.267 6.23587 113.267 5.48935C113.267 4.66425 112.415 4.2124 111.522 4.2124C110.65 4.2124 109.798 4.84105 109.392 5.60722C109.027 6.29481 108.824 7.00204 108.357 9.57559H106.998C106.613 9.57559 106.41 9.57559 106.41 9.9292C106.41 10.1453 106.532 10.1453 106.937 10.1453H108.236C107.871 11.9723 107.039 16.4122 106.572 18.5142C106.227 20.2234 105.923 21.6575 104.909 21.6575C104.848 21.6575 104.26 21.6575 103.895 21.2842C104.929 21.2056 104.929 20.3412 104.929 20.3216C104.929 19.9287 104.625 19.6929 104.239 19.6929C103.834 19.6929 103.225 20.0269 103.225 20.7734C103.225 21.6182 104.118 22.0504 104.909 22.0504C106.978 22.0504 107.83 18.4553 108.053 17.473C108.418 15.9603 109.412 10.7347 109.514 10.1453H111.238Z" fill="" stroke="black" stroke-width="0.2"/>
<path d="M118.651 14.187C118.759 14.187 118.921 14.187 118.921 14.0298C118.921 13.9774 118.908 13.9644 118.732 13.7941C116.879 12.1046 116.419 9.66856 116.419 7.63854C116.419 3.86663 118.029 2.09855 118.718 1.49609C118.908 1.32583 118.921 1.31273 118.921 1.24725C118.921 1.18176 118.867 1.09009 118.732 1.09009C118.515 1.09009 117.839 1.75803 117.731 1.8759C115.919 3.70947 115.54 6.06691 115.54 7.63854C115.54 10.5723 116.811 12.9297 118.651 14.187Z" fill="" stroke="black" stroke-width="0.2"/>
<path d="M122.44 8.76529C122.481 8.56884 122.616 8.07116 122.657 7.8747C122.846 7.16747 122.846 7.15437 123.157 6.72218C123.603 6.08043 124.239 5.50416 125.145 5.50416C125.632 5.50416 125.916 5.7792 125.916 6.39475C125.916 7.11508 125.348 8.60813 125.091 9.24988C124.915 9.68208 124.915 9.76066 124.915 9.93092C124.915 10.6774 125.551 11.0442 126.132 11.0442C127.457 11.0442 128.012 9.21059 128.012 9.04033C128.012 8.90936 127.904 8.87007 127.809 8.87007C127.647 8.87007 127.62 8.96175 127.579 9.09272C127.255 10.1667 126.687 10.6774 126.173 10.6774C125.956 10.6774 125.848 10.5465 125.848 10.2452C125.848 9.94402 125.956 9.65588 126.092 9.32846C126.294 8.83078 126.889 7.32463 126.889 6.59121C126.889 5.60894 126.186 5.13745 125.213 5.13745C124.117 5.13745 123.414 5.7792 123.022 6.27688C122.927 5.55655 122.332 5.13745 121.642 5.13745C121.155 5.13745 120.817 5.43868 120.601 5.84468C120.276 6.46024 120.141 7.11508 120.141 7.14128C120.141 7.25915 120.236 7.31154 120.344 7.31154C120.52 7.31154 120.533 7.25915 120.628 6.91863C120.79 6.27688 121.034 5.50416 121.602 5.50416C121.953 5.50416 122.034 5.83159 122.034 6.11972C122.034 6.35546 121.967 6.6043 121.859 7.0365C121.832 7.14128 121.629 7.91399 121.575 8.09735L121.074 10.0619C121.02 10.2583 120.939 10.5858 120.939 10.6382C120.939 10.9394 121.196 11.0442 121.372 11.0442C121.615 11.0442 121.818 10.887 121.913 10.7298C121.953 10.6512 122.061 10.206 122.129 9.93092L122.44 8.76529Z" fill="" stroke="black" stroke-width="0.2"/>
<path d="M132.633 7.63854C132.633 6.39434 132.417 4.90129 131.578 3.35585C130.916 2.15094 129.685 1.09009 129.442 1.09009C129.306 1.09009 129.266 1.18177 129.266 1.24725C129.266 1.29964 129.266 1.32583 129.428 1.48299C131.321 3.22488 131.754 5.62162 131.754 7.63854C131.754 11.3974 130.145 13.1785 129.455 13.781C129.279 13.9513 129.266 13.9643 129.266 14.0298C129.266 14.0953 129.306 14.187 129.442 14.187C129.658 14.187 130.334 13.5191 130.442 13.4012C132.255 11.5676 132.633 9.21017 132.633 7.63854Z" fill="" stroke="black" stroke-width="0.2"/>
<path d="M141.48 22.8162C141.48 22.7573 141.48 22.718 141.135 22.384C139.106 20.3998 137.97 17.1583 137.97 13.1507C137.97 9.33948 138.924 6.0587 141.277 3.74055C141.48 3.56374 141.48 3.52445 141.48 3.46551C141.48 3.34764 141.378 3.30835 141.297 3.30835C141.033 3.30835 139.37 4.72282 138.376 6.64806C137.341 8.63224 136.875 10.7343 136.875 13.1507C136.875 14.8991 137.159 17.2369 138.214 19.339C139.411 21.6964 141.074 22.9734 141.297 22.9734C141.378 22.9734 141.48 22.9341 141.48 22.8162Z" fill="" stroke="black" stroke-width="0.2"/>
<path d="M158.759 13.1507C158.759 11.6576 158.556 9.22161 157.42 6.94274C156.224 4.5853 154.56 3.30835 154.337 3.30835C154.256 3.30835 154.154 3.34764 154.154 3.46551C154.154 3.52445 154.154 3.56374 154.499 3.89771C156.528 5.88189 157.664 9.12338 157.664 13.131C157.664 16.9422 156.71 20.223 154.357 22.5412C154.154 22.718 154.154 22.7573 154.154 22.8162C154.154 22.9341 154.256 22.9734 154.337 22.9734C154.601 22.9734 156.264 21.5589 157.258 19.6336C158.293 17.6298 158.759 15.5081 158.759 13.1507Z" fill="" stroke="black" stroke-width="0.2"/>
<path d="M160.762 26.0283H102.19V26.8141H160.762V26.0283Z" fill="" stroke="black" stroke-width="0.2"/>
<path d="M126.969 39.052C127.009 38.9342 127.516 37.9519 128.267 37.3233C128.794 36.8518 129.484 36.5374 130.275 36.5374C131.087 36.5374 131.371 37.1268 131.371 37.9126C131.371 39.0324 130.539 41.272 130.133 42.3328C129.951 42.8043 129.849 43.0597 129.849 43.4133C129.849 44.2974 130.478 45.0046 131.452 45.0046C133.338 45.0046 134.048 42.1167 134.048 41.9988C134.048 41.9006 133.967 41.822 133.846 41.822C133.663 41.822 133.643 41.881 133.541 42.2149C133.075 43.8259 132.304 44.6117 131.513 44.6117C131.31 44.6117 130.985 44.592 130.985 43.9634C130.985 43.4723 131.208 42.8829 131.33 42.6079C131.736 41.5274 132.588 39.3271 132.588 38.2073C132.588 37.0286 131.878 36.1445 130.336 36.1445C128.531 36.1445 127.577 37.3822 127.212 37.8733C127.151 36.7535 126.32 36.1445 125.427 36.1445C124.778 36.1445 124.332 36.5178 123.987 37.1857C123.622 37.893 123.338 39.0717 123.338 39.1503C123.338 39.2289 123.419 39.3271 123.561 39.3271C123.723 39.3271 123.743 39.3074 123.865 38.8556C124.19 37.6572 124.555 36.5374 125.366 36.5374C125.833 36.5374 125.995 36.8518 125.995 37.4411C125.995 37.8733 125.792 38.6395 125.65 39.2485L125.082 41.3702C125.001 41.7435 124.778 42.6275 124.676 42.9811C124.534 43.4919 124.311 44.4152 124.311 44.5135C124.311 44.7885 124.534 45.0046 124.839 45.0046C125.082 45.0046 125.366 44.8867 125.528 44.592C125.569 44.4938 125.752 43.8062 125.853 43.4133L126.299 41.6452L126.969 39.052Z" fill="" stroke="black" stroke-width="0.2"/>
<path d="M138.379 31.6848C138.379 31.0562 137.831 30.7615 137.405 30.7615C136.979 30.7615 136.35 31.0365 136.411 31.8616L137.141 40.8592C137.162 41.1932 137.202 41.2717 137.385 41.2717C137.588 41.2717 137.628 41.2128 137.649 40.8592L138.379 31.6848ZM138.379 43.8453C138.379 43.3345 137.933 42.9023 137.405 42.9023C136.837 42.9023 136.411 43.3345 136.411 43.8649C136.411 44.3757 136.857 44.8079 137.385 44.8079C137.953 44.8079 138.379 44.3757 138.379 43.8453Z" fill="" stroke="black" stroke-width="0.2"/>
<path d="M169.384 36.1065C169.384 36.0475 169.384 36.0083 169.039 35.6743C167.011 33.6901 165.875 30.4486 165.875 26.441C165.875 22.6298 166.828 19.349 169.181 17.0308C169.384 16.854 169.384 16.8147 169.384 16.7558C169.384 16.6379 169.283 16.5986 169.202 16.5986C168.938 16.5986 167.274 18.0131 166.28 19.9383C165.246 21.9225 164.779 24.0246 164.779 26.441C164.779 28.1894 165.063 30.5272 166.118 32.6292C167.315 34.9867 168.978 36.2636 169.202 36.2636C169.283 36.2636 169.384 36.2244 169.384 36.1065Z" fill="" stroke="black" stroke-width="0.2"/>
<path d="M180.131 23.3172C179.482 23.4351 179.239 23.9066 179.239 24.2799C179.239 24.7514 179.624 24.9085 179.908 24.9085C180.517 24.9085 180.943 24.3977 180.943 23.8673C180.943 23.0422 179.969 22.6689 179.117 22.6689C177.88 22.6689 177.19 23.8477 177.007 24.2209C176.541 22.7475 175.283 22.6689 174.918 22.6689C172.849 22.6689 171.753 25.2425 171.753 25.6747C171.753 25.7533 171.835 25.8515 171.977 25.8515C172.139 25.8515 172.179 25.7336 172.22 25.655C172.91 23.4744 174.269 23.0619 174.857 23.0619C175.77 23.0619 175.953 23.887 175.953 24.3584C175.953 24.7906 175.831 25.2425 175.587 26.1855L174.898 28.8769C174.593 30.0556 174.005 31.1361 172.93 31.1361C172.829 31.1361 172.321 31.1361 171.895 30.8807C172.626 30.7432 172.788 30.1538 172.788 29.9181C172.788 29.5252 172.484 29.2894 172.098 29.2894C171.611 29.2894 171.084 29.702 171.084 30.3306C171.084 31.1557 172.037 31.529 172.91 31.529C173.883 31.529 174.573 30.7825 174.999 29.977C175.324 31.1361 176.338 31.529 177.089 31.529C179.158 31.529 180.253 28.9555 180.253 28.5233C180.253 28.425 180.172 28.3465 180.05 28.3465C179.868 28.3465 179.847 28.4447 179.787 28.6018C179.239 30.3306 178.062 31.1361 177.149 31.1361C176.439 31.1361 176.054 30.6253 176.054 29.8199C176.054 29.3877 176.135 29.0733 176.46 27.7767L177.17 25.105C177.474 23.9262 178.164 23.0619 179.097 23.0619C179.137 23.0619 179.705 23.0619 180.131 23.3172Z" fill="" stroke="black" stroke-width="0.2"/>
<path d="M191.162 20.4611C191.203 20.2646 191.338 19.767 191.378 19.5705C191.568 18.8633 191.568 18.8502 191.879 18.418C192.325 17.7762 192.961 17.2 193.867 17.2C194.354 17.2 194.638 17.475 194.638 18.0906C194.638 18.8109 194.07 20.3039 193.813 20.9457C193.637 21.3779 193.637 21.4565 193.637 21.6267C193.637 22.3732 194.272 22.74 194.854 22.74C196.179 22.74 196.734 20.9064 196.734 20.7361C196.734 20.6052 196.626 20.5659 196.531 20.5659C196.369 20.5659 196.342 20.6575 196.301 20.7885C195.976 21.8625 195.408 22.3732 194.895 22.3732C194.678 22.3732 194.57 22.2423 194.57 21.941C194.57 21.6398 194.678 21.3517 194.813 21.0243C195.016 20.5266 195.611 19.0204 195.611 18.287C195.611 17.3047 194.908 16.8333 193.934 16.8333C192.839 16.8333 192.136 17.475 191.743 17.9727C191.649 17.2524 191.054 16.8333 190.364 16.8333C189.877 16.8333 189.539 17.1345 189.323 17.5405C188.998 18.156 188.863 18.8109 188.863 18.8371C188.863 18.955 188.958 19.0073 189.066 19.0073C189.242 19.0073 189.255 18.955 189.35 18.6144C189.512 17.9727 189.755 17.2 190.323 17.2C190.675 17.2 190.756 17.5274 190.756 17.8155C190.756 18.0513 190.689 18.3001 190.58 18.7323C190.553 18.8371 190.351 19.6098 190.296 19.7932L189.796 21.7577C189.742 21.9541 189.661 22.2816 189.661 22.334C189.661 22.6352 189.918 22.74 190.094 22.74C190.337 22.74 190.54 22.5828 190.635 22.4256C190.675 22.3471 190.783 21.9018 190.851 21.6267L191.162 20.4611Z" fill="" stroke="black" stroke-width="0.2"/>
<path d="M14.6191 95.1075C14.9262 95.1075 15.3209 95.1075 15.3209 94.7602C15.3209 94.3936 14.9481 94.3936 14.6191 94.3936H1.70179C1.39476 94.3936 1 94.3936 1 94.7409C1 95.1075 1.37283 95.1075 1.70179 95.1075H14.6191ZM14.6191 98.6965C14.9262 98.6965 15.3209 98.6965 15.3209 98.3492C15.3209 97.9826 14.9481 97.9826 14.6191 97.9826H1.70179C1.39476 97.9826 1 97.9826 1 98.3299C1 98.6965 1.37283 98.6965 1.70179 98.6965H14.6191Z" fill="" stroke="black" stroke-width="0.2"/>
<path d="M32.391 93.602C32.8296 93.602 33.0051 93.602 33.0051 93.2354C33.0051 93.0424 32.8296 93.0424 32.4349 93.0424H30.6585C31.0751 91.0549 31.3822 89.6849 31.5576 89.0675C31.6892 88.6044 32.1498 88.1606 32.72 88.1606C33.1805 88.1606 33.6411 88.3342 33.8604 88.5079C33.0051 88.5851 32.7419 89.1447 32.7419 89.4727C32.7419 89.8586 33.0709 90.0901 33.4876 90.0901C33.9262 90.0901 34.5841 89.7621 34.5841 89.0289C34.5841 88.2185 33.663 87.7747 32.698 87.7747C31.755 87.7747 30.8339 88.3921 30.3953 89.1447C30.0005 89.82 29.7812 90.5147 29.2768 93.0424H27.8074C27.3907 93.0424 27.1714 93.0424 27.1714 93.3897C27.1714 93.602 27.303 93.602 27.7416 93.602H29.1452C28.7505 95.3965 27.8513 99.7573 27.3469 101.822C26.9741 103.501 26.6451 104.909 25.5485 104.909C25.4827 104.909 24.8468 104.909 24.452 104.543C25.5705 104.465 25.5705 103.616 25.5705 103.597C25.5705 103.211 25.2415 102.98 24.8248 102.98C24.3862 102.98 23.7283 103.308 23.7283 104.041C23.7283 104.871 24.6932 105.295 25.5485 105.295C27.7855 105.295 28.7066 101.764 28.9478 100.799C29.3426 99.3135 30.4172 94.1808 30.5269 93.602H32.391Z" fill="" stroke="black" stroke-width="0.2"/>
<path d="M42.6634 106.048C42.6634 105.99 42.6634 105.951 42.2906 105.623C40.0975 103.675 38.8693 100.491 38.8693 96.5544C38.8693 92.811 39.9001 89.5886 42.4441 87.3117C42.6634 87.1381 42.6634 87.0995 42.6634 87.0416C42.6634 86.9258 42.5537 86.8872 42.466 86.8872C42.1809 86.8872 40.3826 88.2765 39.308 90.1675C38.1895 92.1164 37.6851 94.181 37.6851 96.5544C37.6851 98.2717 37.9921 100.568 39.1325 102.633C40.4264 104.948 42.2248 106.202 42.466 106.202C42.5537 106.202 42.6634 106.164 42.6634 106.048Z" fill="" stroke="black" stroke-width="0.2"/>
<path d="M53.7113 95.1844C53.7113 93.5828 53.6017 92.0199 52.8121 90.5534C51.913 88.9519 50.3339 88.5273 49.2593 88.5273C47.9873 88.5273 46.4302 89.0869 45.6188 90.6885C45.0047 91.9041 44.7854 93.1004 44.7854 95.1844C44.7854 97.0561 44.9389 98.4647 45.7284 99.8347C46.5837 101.301 48.097 101.764 49.2374 101.764C51.1454 101.764 52.2419 100.761 52.8779 99.6417C53.6674 98.1945 53.7113 96.3035 53.7113 95.1844ZM49.2374 101.378C48.5356 101.378 47.1101 101.031 46.6934 98.9278C46.4522 97.77 46.4522 96.3035 46.4522 94.9528C46.4522 93.3706 46.4522 91.9427 46.803 90.8042C47.1759 89.5114 48.2944 88.9133 49.2374 88.9133C50.0708 88.9133 51.3428 89.3571 51.7595 91.0165C52.0446 92.1164 52.0446 93.6407 52.0446 94.9528C52.0446 96.2456 52.0446 97.7121 51.8033 98.8892C51.3866 101.012 50.005 101.378 49.2374 101.378Z" fill="" stroke="black" stroke-width="0.2"/>
<path d="M60.8084 96.5544C60.8084 95.0879 60.5891 92.6952 59.361 90.4569C58.067 88.1414 56.2687 86.8872 56.0275 86.8872C55.9397 86.8872 55.8301 86.9258 55.8301 87.0416C55.8301 87.0995 55.8301 87.1381 56.2029 87.4661C58.396 89.415 59.6241 92.5988 59.6241 96.5351C59.6241 100.278 58.5934 103.501 56.0494 105.778C55.8301 105.951 55.8301 105.99 55.8301 106.048C55.8301 106.164 55.9397 106.202 56.0275 106.202C56.3126 106.202 58.1109 104.813 59.1855 102.922C60.304 100.954 60.8084 98.8699 60.8084 96.5544Z" fill="" stroke="black" stroke-width="0.2"/>
<path d="M76.5982 96.9014H82.6511C82.9582 96.9014 83.3529 96.9014 83.3529 96.5541C83.3529 96.1875 82.9801 96.1875 82.6511 96.1875H76.5982V90.8618C76.5982 90.5917 76.5982 90.2444 76.2034 90.2444C75.7867 90.2444 75.7867 90.5724 75.7867 90.8618V96.1875H69.7338C69.4267 96.1875 69.032 96.1875 69.032 96.5348C69.032 96.9014 69.4048 96.9014 69.7338 96.9014H75.7867V102.227C75.7867 102.497 75.7867 102.845 76.1815 102.845C76.5982 102.845 76.5982 102.516 76.5982 102.227V96.9014Z" fill="" stroke="black" stroke-width="0.2"/>
<path d="M99.2049 93.602C99.6435 93.602 99.8189 93.602 99.8189 93.2354C99.8189 93.0424 99.6435 93.0424 99.2487 93.0424H97.4723C97.889 91.0549 98.196 89.6849 98.3715 89.0675C98.5031 88.6044 98.9636 88.1606 99.5338 88.1606C99.9944 88.1606 100.455 88.3342 100.674 88.5079C99.8189 88.5851 99.5557 89.1447 99.5557 89.4727C99.5557 89.8586 99.8847 90.0901 100.301 90.0901C100.74 90.0901 101.398 89.7621 101.398 89.0289C101.398 88.2185 100.477 87.7747 99.5119 87.7747C98.5689 87.7747 97.6478 88.3921 97.2091 89.1447C96.8144 89.82 96.5951 90.5147 96.0907 93.0424H94.6213C94.2046 93.0424 93.9853 93.0424 93.9853 93.3897C93.9853 93.602 94.1169 93.602 94.5555 93.602H95.9591C95.5643 95.3965 94.6651 99.7573 94.1607 101.822C93.7879 103.501 93.4589 104.909 92.3624 104.909C92.2966 104.909 91.6606 104.909 91.2658 104.543C92.3843 104.465 92.3843 103.616 92.3843 103.597C92.3843 103.211 92.0554 102.98 91.6387 102.98C91.2 102.98 90.5421 103.308 90.5421 104.041C90.5421 104.871 91.5071 105.295 92.3624 105.295C94.5993 105.295 95.5204 101.764 95.7617 100.799C96.1564 99.3135 97.2311 94.1808 97.3407 93.602H99.2049Z" fill="" stroke="black" stroke-width="0.2"/>
<path d="M106.224 87.2941C106.297 87.1269 106.355 87.0368 106.355 86.9082C106.355 86.4837 105.917 86.2007 105.507 86.2007C104.923 86.2007 104.762 86.6509 104.703 86.831L102.846 92.3753C102.788 92.5297 102.788 92.5683 102.788 92.5811C102.788 92.6969 102.876 92.7226 103.022 92.7612C103.285 92.8642 103.314 92.8642 103.344 92.8642C103.387 92.8642 103.475 92.8642 103.577 92.6455L106.224 87.2941Z" fill="" stroke="black" stroke-width="0.2"/>
<path d="M114.605 106.048C114.605 105.99 114.605 105.951 114.232 105.623C112.039 103.675 110.811 100.491 110.811 96.5544C110.811 92.811 111.841 89.5886 114.385 87.3117C114.605 87.1381 114.605 87.0995 114.605 87.0416C114.605 86.9258 114.495 86.8872 114.407 86.8872C114.122 86.8872 112.324 88.2765 111.249 90.1675C110.131 92.1164 109.626 94.181 109.626 96.5544C109.626 98.2717 109.933 100.568 111.074 102.633C112.368 104.948 114.166 106.202 114.407 106.202C114.495 106.202 114.605 106.164 114.605 106.048Z" fill="" stroke="black" stroke-width="0.2"/>
<path d="M125.653 95.1844C125.653 93.5828 125.543 92.0199 124.754 90.5534C123.854 88.9519 122.275 88.5273 121.201 88.5273C119.929 88.5273 118.372 89.0869 117.56 90.6885C116.946 91.9041 116.727 93.1004 116.727 95.1844C116.727 97.0561 116.88 98.4647 117.67 99.8347C118.525 101.301 120.039 101.764 121.179 101.764C123.087 101.764 124.183 100.761 124.819 99.6417C125.609 98.1945 125.653 96.3035 125.653 95.1844ZM121.179 101.378C120.477 101.378 119.052 101.031 118.635 98.9278C118.394 97.77 118.394 96.3035 118.394 94.9528C118.394 93.3706 118.394 91.9427 118.745 90.8042C119.117 89.5114 120.236 88.9133 121.179 88.9133C122.012 88.9133 123.284 89.3571 123.701 91.0165C123.986 92.1164 123.986 93.6407 123.986 94.9528C123.986 96.2456 123.986 97.7121 123.745 98.8892C123.328 101.012 121.947 101.378 121.179 101.378Z" fill="" stroke="black" stroke-width="0.2"/>
<path d="M132.75 96.5544C132.75 95.0879 132.53 92.6952 131.302 90.4569C130.008 88.1414 128.21 86.8872 127.969 86.8872C127.881 86.8872 127.771 86.9258 127.771 87.0416C127.771 87.0995 127.771 87.1381 128.144 87.4661C130.337 89.415 131.565 92.5988 131.565 96.5351C131.565 100.278 130.535 103.501 127.991 105.778C127.771 105.951 127.771 105.99 127.771 106.048C127.771 106.164 127.881 106.202 127.969 106.202C128.254 106.202 130.052 104.813 131.127 102.922C132.245 100.954 132.75 98.8699 132.75 96.5544Z" fill="" stroke="black" stroke-width="0.2"/>
<path d="M145.311 93.4861C144.609 93.6019 144.346 94.065 144.346 94.4316C144.346 94.8947 144.763 95.0491 145.07 95.0491C145.728 95.0491 146.188 94.5474 146.188 94.0264C146.188 93.216 145.136 92.8494 144.215 92.8494C142.877 92.8494 142.131 94.0071 141.934 94.3737C141.429 92.9265 140.07 92.8494 139.675 92.8494C137.438 92.8494 136.254 95.3771 136.254 95.8016C136.254 95.8788 136.341 95.9753 136.495 95.9753C136.67 95.9753 136.714 95.8595 136.758 95.7823C137.504 93.6405 138.973 93.2353 139.609 93.2353C140.596 93.2353 140.793 94.0457 140.793 94.5088C140.793 94.9333 140.662 95.3771 140.399 96.3033L139.653 98.9468C139.324 100.105 138.688 101.166 137.526 101.166C137.416 101.166 136.868 101.166 136.407 100.915C137.197 100.78 137.372 100.201 137.372 99.9695C137.372 99.5836 137.043 99.352 136.626 99.352C136.1 99.352 135.53 99.7572 135.53 100.375C135.53 101.185 136.561 101.552 137.504 101.552C138.556 101.552 139.302 100.819 139.763 100.027C140.113 101.166 141.21 101.552 142.021 101.552C144.258 101.552 145.443 99.024 145.443 98.5995C145.443 98.503 145.355 98.4258 145.223 98.4258C145.026 98.4258 145.004 98.5223 144.938 98.6767C144.346 100.375 143.074 101.166 142.087 101.166C141.32 101.166 140.903 100.664 140.903 99.873C140.903 99.4485 140.991 99.1398 141.342 97.8663L142.109 95.242C142.438 94.0843 143.184 93.2353 144.193 93.2353C144.237 93.2353 144.851 93.2353 145.311 93.4861Z" fill="" stroke="black" stroke-width="0.2"/>
<path d="M160.743 96.9014H166.796C167.103 96.9014 167.497 96.9014 167.497 96.5541C167.497 96.1875 167.125 96.1875 166.796 96.1875H160.743V90.8618C160.743 90.5917 160.743 90.2444 160.348 90.2444C159.931 90.2444 159.931 90.5724 159.931 90.8618V96.1875H153.878C153.571 96.1875 153.177 96.1875 153.177 96.5348C153.177 96.9014 153.549 96.9014 153.878 96.9014H159.931V102.227C159.931 102.497 159.931 102.845 160.326 102.845C160.743 102.845 160.743 102.516 160.743 102.227V96.9014Z" fill="" stroke="black" stroke-width="0.2"/>
<path d="M185.542 80.5485C185.98 80.5485 186.156 80.5485 186.156 80.1819C186.156 79.9889 185.98 79.9889 185.586 79.9889H183.809C184.226 78.0015 184.533 76.6315 184.708 76.014C184.84 75.5509 185.301 75.1071 185.871 75.1071C186.331 75.1071 186.792 75.2808 187.011 75.4544C186.156 75.5316 185.893 76.0912 185.893 76.4192C185.893 76.8051 186.222 77.0367 186.638 77.0367C187.077 77.0367 187.735 76.7087 187.735 75.9754C187.735 75.165 186.814 74.7212 185.849 74.7212C184.906 74.7212 183.985 75.3387 183.546 76.0912C183.151 76.7665 182.932 77.4612 182.428 79.9889H180.958C180.542 79.9889 180.322 79.9889 180.322 80.3363C180.322 80.5485 180.454 80.5485 180.892 80.5485H182.296C181.901 82.343 181.002 86.7039 180.498 88.7685C180.125 90.4472 179.796 91.8558 178.699 91.8558C178.634 91.8558 177.998 91.8558 177.603 91.4892C178.721 91.412 178.721 90.563 178.721 90.5437C178.721 90.1578 178.392 89.9262 177.976 89.9262C177.537 89.9262 176.879 90.2543 176.879 90.9875C176.879 91.8172 177.844 92.2417 178.699 92.2417C180.936 92.2417 181.857 88.7106 182.099 87.7458C182.493 86.2601 183.568 81.1274 183.678 80.5485H185.542Z" fill="" stroke="black" stroke-width="0.2"/>
<path d="M192.561 75.2057C192.634 75.0385 192.692 74.9485 192.692 74.8198C192.692 74.3953 192.254 74.1123 191.844 74.1123C191.26 74.1123 191.099 74.5625 191.04 74.7426L189.183 80.2869C189.125 80.4413 189.125 80.4799 189.125 80.4928C189.125 80.6085 189.213 80.6343 189.359 80.6729C189.622 80.7758 189.651 80.7758 189.681 80.7758C189.724 80.7758 189.812 80.7758 189.915 80.5571L192.561 75.2057Z" fill="" stroke="black" stroke-width="0.2"/>
<path d="M196.775 75.2057C196.848 75.0385 196.906 74.9485 196.906 74.8198C196.906 74.3953 196.468 74.1123 196.058 74.1123C195.474 74.1123 195.313 74.5625 195.254 74.7426L193.397 80.2869C193.339 80.4413 193.339 80.4799 193.339 80.4928C193.339 80.6085 193.427 80.6343 193.573 80.6729C193.836 80.7758 193.865 80.7758 193.895 80.7758C193.938 80.7758 194.026 80.7758 194.129 80.5571L196.775 75.2057Z" fill="" stroke="black" stroke-width="0.2"/>
<path d="M205.156 92.9939C205.156 92.9361 205.156 92.8975 204.783 92.5694C202.59 90.6206 201.362 87.4368 201.362 83.5004C201.362 79.757 202.392 76.5347 204.936 74.2578C205.156 74.0841 205.156 74.0455 205.156 73.9876C205.156 73.8718 205.046 73.8333 204.958 73.8333C204.673 73.8333 202.875 75.2225 201.8 77.1135C200.682 79.0624 200.177 81.127 200.177 83.5004C200.177 85.2177 200.484 87.5139 201.625 89.5786C202.919 91.8941 204.717 93.1483 204.958 93.1483C205.046 93.1483 205.156 93.1097 205.156 92.9939Z" fill="" stroke="black" stroke-width="0.2"/>
<path d="M216.204 82.1307C216.204 80.5291 216.094 78.9662 215.305 77.4997C214.406 75.8981 212.826 75.4736 211.752 75.4736C210.48 75.4736 208.923 76.0332 208.111 77.6348C207.497 78.8504 207.278 80.0467 207.278 82.1307C207.278 84.0024 207.431 85.4109 208.221 86.7809C209.076 88.2474 210.59 88.7105 211.73 88.7105C213.638 88.7105 214.734 87.7071 215.37 86.588C216.16 85.1408 216.204 83.2498 216.204 82.1307ZM211.73 88.3246C211.028 88.3246 209.603 87.9773 209.186 85.874C208.945 84.7163 208.945 83.2498 208.945 81.8991C208.945 80.3169 208.945 78.889 209.296 77.7505C209.668 76.4577 210.787 75.8595 211.73 75.8595C212.563 75.8595 213.835 76.3034 214.252 77.9628C214.537 79.0626 214.537 80.587 214.537 81.8991C214.537 83.1919 214.537 84.6584 214.296 85.8355C213.879 87.958 212.498 88.3246 211.73 88.3246Z" fill="" stroke="black" stroke-width="0.2"/>
<path d="M152.225 13.357C152.225 11.7554 152.115 10.1925 151.326 8.72601C150.427 7.12446 148.848 6.69995 147.773 6.69995C146.501 6.69995 144.944 7.25953 144.132 8.86108C143.518 10.0767 143.299 11.273 143.299 13.357C143.299 15.2287 143.453 16.6373 144.242 18.0073C145.097 19.4737 146.611 19.9368 147.751 19.9368C149.659 19.9368 150.756 18.9335 151.392 17.8143C152.181 16.3671 152.225 14.4761 152.225 13.357ZM147.751 19.5509C147.049 19.5509 145.624 19.2036 145.207 17.1004C144.966 15.9426 144.966 14.4761 144.966 13.1254C144.966 11.5432 144.966 10.1153 145.317 8.97685C145.69 7.68404 146.808 7.08587 147.751 7.08587C148.584 7.08587 149.856 7.52967 150.273 9.1891C150.558 10.289 150.558 11.8133 150.558 13.1254C150.558 14.4183 150.558 15.8847 150.317 17.0618C149.9 19.1843 148.519 19.5509 147.751 19.5509Z" fill="" stroke="black" stroke-width="0.2"/>
<path d="M223.3 83.5004C223.3 82.0339 223.081 79.6413 221.852 77.403C220.558 75.0875 218.76 73.8333 218.519 73.8333C218.431 73.8333 218.322 73.8718 218.322 73.9876C218.322 74.0455 218.322 74.0841 218.694 74.4121C220.887 76.361 222.116 79.5448 222.116 83.4811C222.116 87.2245 221.085 90.4469 218.541 92.7238C218.322 92.8975 218.322 92.936 218.322 92.9939C218.322 93.1097 218.431 93.1483 218.519 93.1483C218.804 93.1483 220.602 91.759 221.677 89.868C222.795 87.8999 223.3 85.8159 223.3 83.5004Z" fill="" stroke="black" stroke-width="0.2"/>
<path d="M187.532 26.5004C187.532 25.0339 187.313 22.6413 186.085 20.403C184.791 18.0875 182.993 16.8333 182.751 16.8333C182.664 16.8333 182.554 16.8718 182.554 16.9876C182.554 17.0455 182.554 17.0841 182.927 17.4121C185.12 19.361 186.348 22.5448 186.348 26.4811C186.348 30.2245 185.317 33.4469 182.773 35.7238C182.554 35.8975 182.554 35.9361 182.554 35.9939C182.554 36.1097 182.664 36.1483 182.751 36.1483C183.036 36.1483 184.835 34.759 185.909 32.868C187.028 30.8999 187.532 28.8159 187.532 26.5004Z" fill="" stroke="black" stroke-width="0.2"/>
<path d="M225.467 96.1487H175.76V96.9205H225.467V96.1487Z" fill="" stroke="black" stroke-width="0.2"/>
<path d="M201.912 111.353H201.43C201.364 111.681 201.189 112.742 200.969 113.051C200.816 113.225 199.566 113.225 198.908 113.225H194.851C195.443 112.781 196.781 111.546 197.351 111.083C200.684 108.382 201.912 107.378 201.912 105.468C201.912 103.249 199.917 101.763 197.373 101.763C194.829 101.763 193.337 103.673 193.337 105.333C193.337 106.317 194.302 106.317 194.368 106.317C194.829 106.317 195.399 106.028 195.399 105.41C195.399 104.87 194.982 104.503 194.368 104.503C194.171 104.503 194.127 104.503 194.061 104.522C194.478 103.21 195.662 102.323 197.088 102.323C198.952 102.323 200.092 103.693 200.092 105.468C200.092 107.108 199.018 108.536 197.767 109.771L193.337 114.132V114.595H201.342L201.912 111.353Z" fill="" stroke="black" stroke-width="0.2"/>
<path d="M207.035 101.705C207.035 101.088 206.443 100.799 205.982 100.799C205.522 100.799 204.842 101.069 204.908 101.879L205.697 110.717C205.719 111.045 205.763 111.122 205.96 111.122C206.18 111.122 206.223 111.064 206.245 110.717L207.035 101.705ZM207.035 113.65C207.035 113.148 206.552 112.723 205.982 112.723C205.368 112.723 204.908 113.148 204.908 113.669C204.908 114.171 205.39 114.595 205.96 114.595C206.574 114.595 207.035 114.171 207.035 113.65Z" fill="" stroke="black" stroke-width="0.2"/>
<path d="M234.787 106.048C234.787 105.99 234.787 105.951 234.415 105.623C232.221 103.675 230.993 100.491 230.993 96.5544C230.993 92.811 232.024 89.5886 234.568 87.3117C234.787 87.1381 234.787 87.0995 234.787 87.0416C234.787 86.9258 234.678 86.8872 234.59 86.8872C234.305 86.8872 232.507 88.2765 231.432 90.1675C230.313 92.1164 229.809 94.181 229.809 96.5544C229.809 98.2717 230.116 100.568 231.257 102.633C232.55 104.948 234.349 106.202 234.59 106.202C234.678 106.202 234.787 106.164 234.787 106.048Z" fill="" stroke="black" stroke-width="0.2"/>
<path d="M246.406 93.4861C245.704 93.6019 245.441 94.065 245.441 94.4316C245.441 94.8947 245.857 95.0491 246.164 95.0491C246.822 95.0491 247.283 94.5474 247.283 94.0264C247.283 93.216 246.23 92.8494 245.309 92.8494C243.971 92.8494 243.226 94.0071 243.028 94.3737C242.524 92.9265 241.164 92.8494 240.769 92.8494C238.532 92.8494 237.348 95.3771 237.348 95.8016C237.348 95.8788 237.436 95.9753 237.589 95.9753C237.765 95.9753 237.809 95.8595 237.853 95.7823C238.598 93.6405 240.068 93.2353 240.704 93.2353C241.69 93.2353 241.888 94.0457 241.888 94.5088C241.888 94.9333 241.756 95.3771 241.493 96.3033L240.747 98.9468C240.418 100.105 239.782 101.166 238.62 101.166C238.51 101.166 237.962 101.166 237.502 100.915C238.291 100.78 238.467 100.201 238.467 99.9695C238.467 99.5836 238.138 99.352 237.721 99.352C237.195 99.352 236.624 99.7572 236.624 100.375C236.624 101.185 237.655 101.552 238.598 101.552C239.651 101.552 240.397 100.819 240.857 100.027C241.208 101.166 242.305 101.552 243.116 101.552C245.353 101.552 246.537 99.024 246.537 98.5995C246.537 98.503 246.449 98.4258 246.318 98.4258C246.121 98.4258 246.099 98.5223 246.033 98.6767C245.441 100.375 244.169 101.166 243.182 101.166C242.414 101.166 241.997 100.664 241.997 99.873C241.997 99.4485 242.085 99.1398 242.436 97.8663L243.204 95.242C243.533 94.0843 244.278 93.2353 245.287 93.2353C245.331 93.2353 245.945 93.2353 246.406 93.4861Z" fill="" stroke="black" stroke-width="0.2"/>
<path d="M254.398 96.5544C254.398 95.0879 254.179 92.6952 252.951 90.4569C251.657 88.1414 249.858 86.8872 249.617 86.8872C249.529 86.8872 249.42 86.9258 249.42 87.0416C249.42 87.0995 249.42 87.1381 249.793 87.4661C251.986 89.415 253.214 92.5988 253.214 96.5351C253.214 100.278 252.183 103.501 249.639 105.778C249.42 105.951 249.42 105.99 249.42 106.048C249.42 106.164 249.529 106.202 249.617 106.202C249.902 106.202 251.701 104.813 252.775 102.922C253.894 100.954 254.398 98.8699 254.398 96.5544Z" fill="" stroke="black" stroke-width="0.2"/>
<path d="M260.687 90.7674C260.921 90.5744 261.535 90.1499 261.769 89.9698C262.676 89.2366 263.538 88.5291 263.538 87.3585C263.538 85.8277 262.076 84.8372 260.249 84.8372C258.494 84.8372 257.339 86.0078 257.339 87.1527C257.339 87.783 257.909 87.873 258.114 87.873C258.421 87.873 258.874 87.6801 258.874 87.1912C258.874 86.5223 258.143 86.5223 257.968 86.5223C258.392 85.5833 259.372 85.2617 260.088 85.2617C261.448 85.2617 262.149 86.2779 262.149 87.3585C262.149 88.6963 261.082 89.674 259.357 91.2305L257.515 92.9028C257.339 93.0443 257.339 93.07 257.339 93.3916H263.114L263.538 91.089H263.085C263.041 91.3463 262.924 91.9895 262.749 92.2339C262.661 92.3368 261.55 92.3368 261.316 92.3368H258.714L260.687 90.7674Z" fill="" stroke="black" stroke-width="0.2"/>
<path d="M278.869 96.9014H284.922C285.229 96.9014 285.624 96.9014 285.624 96.5541C285.624 96.1875 285.251 96.1875 284.922 96.1875H278.869V90.8618C278.869 90.5917 278.869 90.2444 278.474 90.2444C278.058 90.2444 278.058 90.5724 278.058 90.8618V96.1875H272.005C271.698 96.1875 271.303 96.1875 271.303 96.5348C271.303 96.9014 271.676 96.9014 272.005 96.9014H278.058V102.227C278.058 102.497 278.058 102.845 278.452 102.845C278.869 102.845 278.869 102.516 278.869 102.227V96.9014Z" fill="" stroke="black" stroke-width="0.2"/>
<path d="M303.669 80.5485C304.108 80.5485 304.283 80.5485 304.283 80.1819C304.283 79.9889 304.108 79.9889 303.713 79.9889H301.937C302.353 78.0015 302.66 76.6315 302.836 76.014C302.967 75.5509 303.428 75.1071 303.998 75.1071C304.459 75.1071 304.919 75.2808 305.139 75.4544C304.283 75.5316 304.02 76.0912 304.02 76.4192C304.02 76.8051 304.349 77.0367 304.766 77.0367C305.204 77.0367 305.862 76.7087 305.862 75.9754C305.862 75.165 304.941 74.7212 303.976 74.7212C303.033 74.7212 302.112 75.3387 301.673 76.0912C301.279 76.7665 301.059 77.4612 300.555 79.9889H299.086C298.669 79.9889 298.45 79.9889 298.45 80.3363C298.45 80.5485 298.581 80.5485 299.02 80.5485H300.423C300.029 82.343 299.129 86.7039 298.625 88.7685C298.252 90.4472 297.923 91.8558 296.827 91.8558C296.761 91.8558 296.125 91.8558 295.73 91.4892C296.849 91.412 296.849 90.563 296.849 90.5437C296.849 90.1578 296.52 89.9262 296.103 89.9262C295.664 89.9262 295.006 90.2543 295.006 90.9875C295.006 91.8172 295.971 92.2417 296.827 92.2417C299.064 92.2417 299.985 88.7106 300.226 87.7458C300.621 86.2601 301.695 81.1274 301.805 80.5485H303.669Z" fill="" stroke="black" stroke-width="0.2"/>
<path d="M310.688 75.2057C310.761 75.0385 310.82 74.9485 310.82 74.8198C310.82 74.3953 310.381 74.1123 309.972 74.1123C309.387 74.1123 309.226 74.5625 309.168 74.7426L307.311 80.2869C307.252 80.4413 307.252 80.4799 307.252 80.4928C307.252 80.6085 307.34 80.6343 307.486 80.6729C307.75 80.7758 307.779 80.7758 307.808 80.7758C307.852 80.7758 307.94 80.7758 308.042 80.5571L310.688 75.2057Z" fill="" stroke="black" stroke-width="0.2"/>
<path d="M314.902 75.2057C314.975 75.0385 315.034 74.9485 315.034 74.8198C315.034 74.3953 314.595 74.1123 314.186 74.1123C313.601 74.1123 313.44 74.5625 313.381 74.7426L311.525 80.2869C311.466 80.4413 311.466 80.4799 311.466 80.4928C311.466 80.6085 311.554 80.6343 311.7 80.6729C311.963 80.7758 311.993 80.7758 312.022 80.7758C312.066 80.7758 312.153 80.7758 312.256 80.5571L314.902 75.2057Z" fill="" stroke="black" stroke-width="0.2"/>
<path d="M319.115 75.2057C319.188 75.0385 319.247 74.9485 319.247 74.8198C319.247 74.3953 318.808 74.1123 318.399 74.1123C317.814 74.1123 317.653 74.5625 317.595 74.7426L315.738 80.2869C315.679 80.4413 315.679 80.4799 315.679 80.4928C315.679 80.6085 315.767 80.6343 315.913 80.6729C316.176 80.7758 316.206 80.7758 316.235 80.7758C316.279 80.7758 316.366 80.7758 316.469 80.5571L319.115 75.2057Z" fill="" stroke="black" stroke-width="0.2"/>
<path d="M327.496 92.9939C327.496 92.9361 327.496 92.8975 327.123 92.5694C324.93 90.6206 323.702 87.4368 323.702 83.5004C323.702 79.757 324.733 76.5347 327.277 74.2578C327.496 74.0841 327.496 74.0455 327.496 73.9876C327.496 73.8718 327.386 73.8333 327.299 73.8333C327.013 73.8333 325.215 75.2225 324.14 77.1135C323.022 79.0624 322.518 81.127 322.518 83.5004C322.518 85.2177 322.825 87.5139 323.965 89.5786C325.259 91.8941 327.057 93.1483 327.299 93.1483C327.386 93.1483 327.496 93.1097 327.496 92.9939Z" fill="" stroke="black" stroke-width="0.2"/>
<path d="M338.544 82.1307C338.544 80.5291 338.435 78.9662 337.645 77.4997C336.746 75.8981 335.167 75.4736 334.092 75.4736C332.82 75.4736 331.263 76.0332 330.452 77.6348C329.838 78.8504 329.618 80.0467 329.618 82.1307C329.618 84.0024 329.772 85.4109 330.561 86.7809C331.417 88.2474 332.93 88.7105 334.07 88.7105C335.978 88.7105 337.075 87.7071 337.711 86.588C338.5 85.1408 338.544 83.2498 338.544 82.1307ZM334.07 88.3246C333.369 88.3246 331.943 87.9773 331.526 85.874C331.285 84.7163 331.285 83.2498 331.285 81.8991C331.285 80.3169 331.285 78.889 331.636 77.7505C332.009 76.4577 333.127 75.8595 334.07 75.8595C334.904 75.8595 336.176 76.3034 336.592 77.9628C336.878 79.0626 336.878 80.587 336.878 81.8991C336.878 83.1919 336.878 84.6584 336.636 85.8355C336.22 87.958 334.838 88.3246 334.07 88.3246Z" fill="" stroke="black" stroke-width="0.2"/>
<path d="M345.641 83.5004C345.641 82.0339 345.422 79.6413 344.194 77.403C342.9 75.0875 341.101 73.8333 340.86 73.8333C340.772 73.8333 340.663 73.8718 340.663 73.9876C340.663 74.0455 340.663 74.0841 341.036 74.4121C343.229 76.361 344.457 79.5448 344.457 83.4811C344.457 87.2245 343.426 90.4469 340.882 92.7238C340.663 92.8975 340.663 92.9361 340.663 92.9939C340.663 93.1097 340.772 93.1483 340.86 93.1483C341.145 93.1483 342.944 91.759 344.018 89.868C345.137 87.8999 345.641 85.8159 345.641 83.5004Z" fill="" stroke="black" stroke-width="0.2"/>
<path d="M347.808 96.1487H293.888V96.9205H347.808V96.1487Z" fill="" stroke="black" stroke-width="0.2"/>
<path d="M316.532 107.668C316.159 107.687 316.071 107.706 316.071 107.88C316.071 108.073 316.181 108.073 316.575 108.073H317.584C319.448 108.073 320.282 109.424 320.282 111.276C320.282 113.804 318.791 114.479 317.716 114.479C316.663 114.479 314.865 114.035 314.229 112.762C314.931 112.858 315.567 112.511 315.567 111.816C315.567 111.257 315.106 110.871 314.492 110.871C313.966 110.871 313.396 111.141 313.396 111.874C313.396 113.591 315.347 115 317.782 115C320.391 115 322.321 113.244 322.321 111.295C322.321 109.52 320.699 108.131 318.593 107.803C320.501 107.32 321.729 105.912 321.729 104.407C321.729 102.882 319.931 101.763 317.804 101.763C315.611 101.763 313.988 102.94 313.988 104.349C313.988 105.121 314.668 105.275 314.996 105.275C315.457 105.275 315.983 104.986 315.983 104.407C315.983 103.789 315.457 103.519 314.975 103.519C314.843 103.519 314.799 103.519 314.733 103.538C315.567 102.226 317.628 102.226 317.738 102.226C318.462 102.226 319.887 102.516 319.887 104.407C319.887 104.773 319.821 105.854 319.185 106.684C318.527 107.533 317.782 107.591 317.19 107.61L316.532 107.668Z" fill="" stroke="black" stroke-width="0.2"/>
<path d="M327.268 101.705C327.268 101.088 326.676 100.799 326.216 100.799C325.755 100.799 325.075 101.069 325.141 101.879L325.931 110.717C325.952 111.045 325.996 111.122 326.194 111.122C326.413 111.122 326.457 111.064 326.479 110.717L327.268 101.705ZM327.268 113.65C327.268 113.148 326.786 112.723 326.216 112.723C325.602 112.723 325.141 113.148 325.141 113.669C325.141 114.171 325.624 114.595 326.194 114.595C326.808 114.595 327.268 114.171 327.268 113.65Z" fill="" stroke="black" stroke-width="0.2"/>
<path d="M357.128 106.048C357.128 105.99 357.128 105.951 356.755 105.623C354.562 103.675 353.333 100.491 353.333 96.5544C353.333 92.811 354.364 89.5886 356.908 87.3117C357.128 87.1381 357.128 87.0995 357.128 87.0416C357.128 86.9258 357.018 86.8872 356.93 86.8872C356.645 86.8872 354.847 88.2765 353.772 90.1675C352.654 92.1164 352.149 94.181 352.149 96.5544C352.149 98.2717 352.456 100.568 353.597 102.633C354.891 104.948 356.689 106.202 356.93 106.202C357.018 106.202 357.128 106.164 357.128 106.048Z" fill="" stroke="black" stroke-width="0.2"/>
<path d="M368.747 93.4861C368.045 93.6019 367.782 94.065 367.782 94.4316C367.782 94.8947 368.199 95.0491 368.506 95.0491C369.163 95.0491 369.624 94.5474 369.624 94.0264C369.624 93.216 368.571 92.8494 367.65 92.8494C366.312 92.8494 365.567 94.0071 365.369 94.3737C364.865 92.9265 363.505 92.8494 363.111 92.8494C360.874 92.8494 359.689 95.3771 359.689 95.8016C359.689 95.8788 359.777 95.9753 359.931 95.9753C360.106 95.9753 360.15 95.8595 360.194 95.7823C360.939 93.6405 362.409 93.2353 363.045 93.2353C364.032 93.2353 364.229 94.0457 364.229 94.5088C364.229 94.9333 364.097 95.3771 363.834 96.3033L363.089 98.9468C362.76 100.105 362.124 101.166 360.961 101.166C360.852 101.166 360.303 101.166 359.843 100.915C360.632 100.78 360.808 100.201 360.808 99.9695C360.808 99.5836 360.479 99.352 360.062 99.352C359.536 99.352 358.966 99.7572 358.966 100.375C358.966 101.185 359.996 101.552 360.939 101.552C361.992 101.552 362.738 100.819 363.198 100.027C363.549 101.166 364.646 101.552 365.457 101.552C367.694 101.552 368.878 99.024 368.878 98.5995C368.878 98.503 368.791 98.4258 368.659 98.4258C368.462 98.4258 368.44 98.5223 368.374 98.6767C367.782 100.375 366.51 101.166 365.523 101.166C364.755 101.166 364.339 100.664 364.339 99.873C364.339 99.4485 364.426 99.1398 364.777 97.8663L365.545 95.242C365.874 94.0843 366.619 93.2353 367.628 93.2353C367.672 93.2353 368.286 93.2353 368.747 93.4861Z" fill="" stroke="black" stroke-width="0.2"/>
<path d="M376.738 96.5544C376.738 95.0879 376.519 92.6952 375.291 90.4569C373.997 88.1414 372.199 86.8872 371.958 86.8872C371.87 86.8872 371.76 86.9258 371.76 87.0416C371.76 87.0995 371.76 87.1381 372.133 87.4661C374.326 89.415 375.554 92.5988 375.554 96.5351C375.554 100.278 374.523 103.501 371.979 105.778C371.76 105.951 371.76 105.99 371.76 106.048C371.76 106.164 371.87 106.202 371.958 106.202C372.243 106.202 374.041 104.813 375.116 102.922C376.234 100.954 376.738 98.8699 376.738 96.5544Z" fill="" stroke="black" stroke-width="0.2"/>
<path d="M382.604 89.0951C383.759 89.0951 384.49 89.8412 384.49 91.1919C384.49 92.7999 383.452 93.2758 382.677 93.2758C381.873 93.2758 380.776 93.0186 380.265 92.3368C380.791 92.3368 381.156 92.0409 381.156 91.6164C381.156 91.2048 380.82 90.9089 380.352 90.9089C379.957 90.9089 379.548 91.1276 379.548 91.6421C379.548 92.8642 381.039 93.6617 382.706 93.6617C384.651 93.6617 386.01 92.4783 386.01 91.1919C386.01 90.1242 385.045 89.1465 383.554 88.8635C384.709 88.5034 385.572 87.6286 385.572 86.5995C385.572 85.5704 384.256 84.8372 382.735 84.8372C381.171 84.8372 379.987 85.5833 379.987 86.5609C379.987 87.0369 380.352 87.2427 380.732 87.2427C381.186 87.2427 381.478 86.9597 381.478 86.5866C381.478 86.1107 381.01 85.9306 380.689 85.9177C381.303 85.2102 382.428 85.1716 382.692 85.1716C383.072 85.1716 384.183 85.2745 384.183 86.5995C384.183 87.5 383.759 88.0403 383.554 88.2461C383.116 88.6449 382.779 88.6706 381.887 88.722C381.61 88.7349 381.493 88.7478 381.493 88.915C381.493 89.0951 381.624 89.0951 381.873 89.0951H382.604Z" fill="" stroke="black" stroke-width="0.2"/>
<path d="M401.21 96.9014H407.263C407.57 96.9014 407.965 96.9014 407.965 96.5541C407.965 96.1875 407.592 96.1875 407.263 96.1875H401.21V90.8618C401.21 90.5917 401.21 90.2444 400.816 90.2444C400.399 90.2444 400.399 90.5724 400.399 90.8618V96.1875H394.346C394.039 96.1875 393.644 96.1875 393.644 96.5348C393.644 96.9014 394.017 96.9014 394.346 96.9014H400.399V102.227C400.399 102.497 400.399 102.845 400.794 102.845C401.21 102.845 401.21 102.516 401.21 102.227V96.9014Z" fill="" stroke="black" stroke-width="0.2"/>
<path d="M418.07 100.433C418.07 99.8732 417.544 99.4873 417.017 99.4873C416.381 99.4873 415.943 99.9504 415.943 100.414C415.943 100.973 416.469 101.359 416.995 101.359C417.631 101.359 418.07 100.896 418.07 100.433Z" fill="" stroke="black" stroke-width="0.2"/>
<path d="M424.035 100.433C424.035 99.8732 423.509 99.4873 422.982 99.4873C422.346 99.4873 421.908 99.9504 421.908 100.414C421.908 100.973 422.434 101.359 422.96 101.359C423.596 101.359 424.035 100.896 424.035 100.433Z" fill="" stroke="black" stroke-width="0.2"/>
<path d="M430 100.433C430 99.8732 429.474 99.4873 428.947 99.4873C428.311 99.4873 427.873 99.9504 427.873 100.414C427.873 100.973 428.399 101.359 428.925 101.359C429.561 101.359 430 100.896 430 100.433Z" fill="" stroke="black" stroke-width="0.2"/>
</svg>
