<svg width="465" height="61" viewBox="0 0 465 61" fill="none" xmlns="http://www.w3.org/2000/svg">
<path d="M6.3541 23.5742C6.3541 23.4791 5.93248 23.4158 5.08925 23.3841C4.73421 23.3841 4.50491 23.3761 4.40136 23.3603C4.2978 23.3445 4.24603 23.2652 4.24603 23.1226C4.24603 23.1068 4.26082 23.0196 4.29041 22.8612C4.3052 22.8136 4.31999 22.7582 4.33479 22.6948C4.34958 22.6314 4.35698 22.5918 4.35698 22.576C4.35698 22.5601 4.37177 22.5205 4.40136 22.4571C4.43094 22.3937 4.44574 22.37 4.44574 22.3858C4.44574 22.4017 4.47532 22.3858 4.5345 22.3383C4.59367 22.2908 4.63066 22.2749 4.64545 22.2908C4.66024 22.3066 4.71942 22.3066 4.82297 22.2908C4.92653 22.2749 5.01529 22.267 5.08925 22.267C5.17802 22.267 5.39992 22.267 5.75496 22.267C6.11001 22.267 6.44286 22.2749 6.75352 22.2908C7.92221 22.2908 8.59532 22.2908 8.77284 22.2908C8.95036 22.2908 9.06871 22.3304 9.12788 22.4096C9.14268 22.473 9.41636 24.7071 9.94892 29.1121L10.7478 35.7433L11.2581 34.8639C11.6132 34.2935 12.0866 33.5012 12.6783 32.4871C13.2701 31.4731 13.921 30.3639 14.6311 29.1597C17.2199 24.7388 18.5292 22.5126 18.5587 22.4809C18.5735 22.4651 18.5957 22.4413 18.6253 22.4096C18.6549 22.3779 18.6845 22.3541 18.7141 22.3383L18.8472 22.2908H20.9775C21.229 22.2908 21.5248 22.2908 21.8651 22.2908C22.2053 22.2908 22.4198 22.2828 22.5086 22.267C23.0116 22.267 23.2631 22.3541 23.2631 22.5284C23.2631 22.6077 23.2409 22.7423 23.1965 22.9325C23.1521 23.1226 23.1299 23.2256 23.1299 23.2415C23.0708 23.3365 22.7971 23.3841 22.3089 23.3841C21.7172 23.3999 21.3399 23.4237 21.1772 23.4554C21.0145 23.4871 20.8813 23.5742 20.7778 23.7168C20.7334 23.796 20.2008 26.0381 19.1801 30.4431C18.1593 34.8481 17.6415 37.0743 17.6268 37.1219C17.6268 37.1852 17.6341 37.2249 17.6489 37.2407C17.6637 37.2566 17.7155 37.2882 17.8043 37.3358C17.893 37.3833 18.0188 37.3992 18.1815 37.3833C18.3442 37.3675 18.5883 37.3833 18.9138 37.4309H19.6017C19.6904 37.5735 19.7348 37.6606 19.7348 37.6923C19.7348 37.9458 19.6831 38.1835 19.5795 38.4053C19.5055 38.4846 19.3872 38.5242 19.2245 38.5242C19.1505 38.5242 18.8472 38.5162 18.3147 38.5004C17.7821 38.4846 17.1016 38.4766 16.2731 38.4766C15.3707 38.4766 14.6902 38.4766 14.2316 38.4766C13.773 38.4766 13.5142 38.4846 13.455 38.5004C13.2035 38.5004 13.0777 38.4212 13.0777 38.2627C13.0777 38.231 13.0925 38.1201 13.1221 37.93C13.1813 37.6765 13.2405 37.5338 13.2997 37.5022C13.3588 37.4705 13.529 37.4467 13.81 37.4309C14.2095 37.4309 14.6533 37.4071 15.1414 37.3595C15.3486 37.312 15.4891 37.2169 15.5631 37.0743C15.5926 37.011 15.8737 35.8543 16.4063 33.6042C16.9389 31.3542 17.464 29.1121 17.9818 26.8779C18.4996 24.6438 18.7585 23.5267 18.7585 23.5267L14.4535 30.8709C11.554 35.8146 10.0673 38.3261 9.9933 38.4053C9.96372 38.4212 9.93413 38.437 9.90454 38.4529C9.83057 38.5004 9.71223 38.5242 9.5495 38.5242C9.32759 38.5242 9.19445 38.4687 9.15007 38.3578C9.12049 38.2944 8.81722 35.8384 8.24027 30.9898L7.37485 23.6931L5.86591 30.1104C4.87475 34.3252 4.37917 36.5039 4.37917 36.6465C4.46793 37.1694 5.00049 37.4309 5.97687 37.4309H6.19877C6.28753 37.5101 6.33931 37.5814 6.3541 37.6448C6.36889 37.7081 6.3467 37.8507 6.28753 38.0726C6.22836 38.3261 6.16918 38.4687 6.11001 38.5004C6.05083 38.5162 5.96947 38.5242 5.86591 38.5242C5.83633 38.5242 5.74757 38.5242 5.59963 38.5242C5.4517 38.5242 5.20021 38.5162 4.84516 38.5004C4.49012 38.4846 4.01673 38.4766 3.42499 38.4766C2.98118 38.4766 2.52258 38.4846 2.04919 38.5004C1.5758 38.5162 1.30212 38.5242 1.22815 38.5242C1.00625 38.5242 0.865709 38.5083 0.806534 38.4766C0.74736 38.4449 0.717773 38.3736 0.717773 38.2627C0.717773 38.231 0.739964 38.1201 0.784344 37.93C0.828725 37.7398 0.865709 37.621 0.895296 37.5735C0.924883 37.4784 1.08761 37.4309 1.38348 37.4309C2.41903 37.4309 3.07734 37.1139 3.35841 36.4801C3.41759 36.3851 3.92796 34.2618 4.88954 30.1104C5.85112 25.9589 6.33931 23.7802 6.3541 23.5742Z" fill="black" stroke="#5F5B80" stroke-width="0.2"/>
<path d="M30.6692 30.2789C30.6692 30.0729 30.7727 29.9145 30.9799 29.8036H45.1151C45.337 29.9303 45.4479 30.0888 45.4479 30.2789C45.4479 30.4532 45.3444 30.6037 45.1372 30.7305L38.0807 30.7543H31.0242C30.7875 30.6751 30.6692 30.5166 30.6692 30.2789ZM30.6692 34.8899C30.6692 34.6522 30.7875 34.4937 31.0242 34.4145H45.1372C45.3444 34.573 45.4479 34.7314 45.4479 34.8899C45.4479 35.0959 45.337 35.2543 45.1151 35.3652H30.9799C30.7727 35.2543 30.6692 35.0959 30.6692 34.8899Z" fill="black" stroke="#5F5B80" stroke-width="0.2"/>
<path d="M55.3861 57.495C55.6524 57.9069 56.0296 58.1129 56.5178 58.1129H56.5622C56.9764 58.1129 57.3906 57.6376 57.8049 56.6869C58.2191 55.7362 58.6037 54.4368 58.9588 52.7889C59.3138 51.141 59.6467 49.4852 59.9573 47.8215C60.268 46.1577 60.5787 44.3593 60.8893 42.4262C60.9337 42.0934 60.9707 41.8478 61.0003 41.6894C62.0654 34.9552 63.2193 28.7121 64.4619 22.9603C65.7046 17.2085 66.607 13.4691 67.1692 11.7419C67.2579 11.4567 67.3319 11.219 67.3911 11.0289C67.4502 10.8388 67.576 10.4902 67.7683 9.98311C67.9606 9.47606 68.1603 9.0324 68.3674 8.65211C68.5745 8.27183 68.826 7.88362 69.1219 7.48749C69.4178 7.09136 69.7432 6.77445 70.0983 6.53678C70.4533 6.2991 70.8306 6.18818 71.23 6.20403C72.0584 6.20403 72.6797 6.48132 73.094 7.0359C73.5082 7.59048 73.7449 8.22429 73.804 8.93733C73.804 9.33346 73.7153 9.65036 73.5378 9.88804C73.3602 10.1257 73.1901 10.2762 73.0274 10.3396C72.8647 10.403 72.7019 10.4268 72.5392 10.4109C72.2285 10.4109 71.9475 10.2921 71.696 10.0544C71.4445 9.81673 71.3187 9.49191 71.3187 9.07993C71.3187 8.31936 71.7108 7.86777 72.4948 7.72517L72.4282 7.6301C72.3839 7.58256 72.3247 7.5271 72.2507 7.46372C72.1768 7.40034 72.1176 7.3528 72.0732 7.32111C71.8513 7.16266 71.6072 7.08344 71.3409 7.08344C71.1338 7.08344 70.9415 7.17851 70.764 7.36865C70.5865 7.55879 70.3498 8.00246 70.0539 8.69965C69.758 9.39684 69.4695 10.3159 69.1885 11.4567C68.9074 12.5976 68.5597 14.2059 68.1455 16.2816C67.7313 18.3573 67.3171 20.7975 66.9029 23.6021C66.0301 28.9102 65.1203 33.9252 64.1735 38.6471C63.2267 43.369 62.487 46.7915 61.9544 48.9148C61.4219 51.038 61.0151 52.5592 60.734 53.4782C59.5949 57.1701 58.1895 59.0161 56.5178 59.0161C55.9261 59.0161 55.3861 58.7705 54.8979 58.2793C54.4098 57.7881 54.1361 57.1147 54.0769 56.259C54.0769 55.7045 54.2174 55.3242 54.4985 55.1182C54.7796 54.9122 55.0607 54.8092 55.3417 54.8092C55.6524 54.8092 55.9335 54.928 56.185 55.1657C56.4365 55.4034 56.5622 55.7282 56.5622 56.1402C56.5622 56.9008 56.1702 57.3524 55.3861 57.495Z" fill="black" stroke="#5F5B80" stroke-width="0.2"/>
<path d="M77.7797 1.78951C77.7797 1.67748 77.8006 1.54865 77.8424 1.40302C77.8843 1.25739 77.947 1.18457 78.0307 1.18457C78.0412 1.18457 78.4177 1.15656 79.1603 1.10055C79.9029 1.04454 80.2846 1.01093 80.3055 0.999727C80.431 0.999727 80.4938 1.05014 80.4938 1.15096C80.4938 1.25178 80.316 2.05277 79.9604 3.55391C79.8767 3.9348 79.7878 4.32689 79.6937 4.73018C79.5996 5.13347 79.5211 5.43594 79.4584 5.63759L79.3956 5.95686C79.3956 5.99047 79.427 5.97366 79.4897 5.90645C80.0022 5.45835 80.5304 5.2343 81.0743 5.2343C81.7227 5.2343 82.2457 5.49195 82.6431 6.00727C83.0406 6.52259 83.2445 7.17234 83.255 7.95652C83.255 9.2 82.8418 10.3259 82.0156 11.3341C81.1893 12.3423 80.3003 12.8464 79.3485 12.8464C78.8256 12.8464 78.3497 12.6336 77.9209 12.2079C77.4921 11.7822 77.2724 11.0932 77.262 10.141V9.98978C77.262 9.75453 77.3038 9.42965 77.3875 9.01516C77.4711 8.60066 77.7274 7.49721 78.1562 5.7048C78.6792 3.4979 78.9406 2.32723 78.9406 2.1928C78.9406 2.05837 78.7419 1.97995 78.3445 1.95755C78.2922 1.95755 78.2503 1.95755 78.219 1.95755H78.1405C78.0359 1.95755 77.9679 1.95755 77.9366 1.95755C77.9052 1.95755 77.8686 1.94074 77.8267 1.90713C77.7849 1.87353 77.7692 1.83432 77.7797 1.78951ZM81.9058 7.20034V7.09952C81.9058 6.27053 81.5868 5.85604 80.9488 5.85604C80.771 5.85604 80.5879 5.90085 80.3997 5.99047C80.2114 6.08009 80.0388 6.19772 79.8819 6.34335C79.7251 6.48898 79.5891 6.62341 79.474 6.74664C79.359 6.86987 79.2649 6.9931 79.1917 7.11633L79.0975 7.25076L78.7681 8.69589C78.538 9.65931 78.4229 10.3427 78.4229 10.746C78.4229 11.2837 78.5484 11.687 78.7994 11.9558C78.9668 12.1351 79.176 12.2247 79.427 12.2247C79.7721 12.2247 80.1225 12.0455 80.4781 11.687C80.7396 11.4293 80.9488 11.1156 81.1056 10.746C81.2625 10.3763 81.4351 9.78814 81.6234 8.98155C81.8116 8.17497 81.9058 7.58123 81.9058 7.20034Z" fill="black" stroke="#5F5B80" stroke-width="0.2"/>
<path d="M65.71 57.1938C65.71 56.0623 66.1074 54.9869 66.9023 53.9674C67.6972 52.948 68.5914 52.4327 69.585 52.4215C70.1184 52.4215 70.5891 52.6959 70.997 53.2449C71.1643 52.9088 71.4049 52.7407 71.7187 52.7407C71.8546 52.7407 71.9749 52.7855 72.0795 52.8752C72.1841 52.9648 72.2364 53.0768 72.2364 53.2112C72.2364 53.3569 72.0429 54.2531 71.6559 55.8999C71.2689 57.5466 71.0702 58.4765 71.0597 58.6893C71.0597 58.9694 71.0964 59.1542 71.1696 59.2438C71.2428 59.3334 71.3526 59.3839 71.499 59.3951C71.5932 59.3839 71.6977 59.3334 71.8128 59.2438C72.0324 59.0198 72.2468 58.4821 72.456 57.6307C72.5188 57.4066 72.5711 57.289 72.6129 57.2778C72.6338 57.2666 72.6861 57.261 72.7698 57.261H72.8325C73.0313 57.261 73.1306 57.3114 73.1306 57.4122C73.1306 57.4794 73.1045 57.6307 73.0522 57.8659C72.9999 58.1012 72.8953 58.4036 72.7384 58.7733C72.5815 59.143 72.4142 59.4231 72.2364 59.6135C72.1004 59.7591 71.9331 59.8768 71.7344 59.9664C71.6507 59.9888 71.5252 60 71.3578 60C71.0022 60 70.7041 59.916 70.4636 59.7479C70.223 59.5799 70.0661 59.4063 69.9929 59.227L69.8988 58.975C69.8883 58.9638 69.8674 58.9694 69.836 58.9918C69.8151 59.0142 69.7942 59.0366 69.7733 59.059C69.1562 59.6863 68.5287 60 67.8907 60C67.3154 60 66.8082 59.7759 66.3689 59.3278C65.9296 58.8797 65.71 58.1684 65.71 57.1938ZM70.6989 54.3203C70.6989 54.2531 70.6728 54.1299 70.6205 53.9506C70.5682 53.7714 70.4479 53.5753 70.2596 53.3625C70.0714 53.1496 69.8308 53.0376 69.538 53.0264C69.1719 53.0264 68.8215 53.2 68.4868 53.5473C68.1521 53.8946 67.8907 54.3483 67.7024 54.9084C67.3991 55.7934 67.1847 56.712 67.0592 57.6643C67.0592 57.6979 67.0592 57.7595 67.0592 57.8491C67.0592 57.9387 67.0539 58.0059 67.0435 58.0508C67.0435 58.5549 67.1376 58.9021 67.3259 59.0926C67.5141 59.283 67.739 59.3839 68.0005 59.3951C68.3979 59.3951 68.7901 59.2102 69.1771 58.8405C69.5641 58.4709 69.7942 58.1852 69.8674 57.9835C69.8883 57.9387 70.0295 57.3394 70.291 56.1855C70.5525 55.0317 70.6885 54.4099 70.6989 54.3203Z" fill="black" stroke="#5F5B80" stroke-width="0.2"/>
<path d="M91.8604 30.9443C91.8604 30.2946 91.9861 29.7084 92.2376 29.1855C92.4891 28.6626 92.7997 28.2585 93.1696 27.9733C93.5394 27.6881 93.9019 27.4663 94.2569 27.3078C94.6119 27.1494 94.9226 27.0701 95.1889 27.0701C95.2185 27.0701 95.2777 27.0701 95.3664 27.0701C95.4552 27.0701 95.5291 27.0622 95.5883 27.0464C96.1653 27.0464 96.7052 27.1652 97.2082 27.4029C97.7112 27.6406 98.4287 28.0763 99.3607 28.7101L100.47 29.4707C101.343 30.0253 102.157 30.3026 102.911 30.3026C103.74 30.3026 104.45 30.0728 105.041 29.6133C105.633 29.1538 105.966 28.5279 106.04 27.7356C106.04 27.5613 106.07 27.4029 106.129 27.2603C106.188 27.1177 106.262 27.0464 106.351 27.0464C106.558 27.0464 106.661 27.292 106.661 27.7832C106.661 28.829 106.314 29.7321 105.618 30.4927C104.923 31.2533 104.035 31.6415 102.955 31.6573C102.349 31.6573 101.705 31.491 101.025 31.1582C100.344 30.8255 99.7527 30.4531 99.2497 30.0411C98.7467 29.6291 98.155 29.2568 97.4745 28.924C96.794 28.5913 96.1727 28.417 95.6105 28.4011C94.7229 28.4011 93.9906 28.6626 93.4137 29.1855C92.8367 29.7084 92.5261 30.3026 92.4817 30.9681C92.4521 31.4276 92.3485 31.6573 92.171 31.6573C91.9639 31.6573 91.8604 31.4196 91.8604 30.9443ZM91.8604 36.506C91.8604 35.8563 91.9861 35.27 92.2376 34.7471C92.4891 34.2242 92.7997 33.8202 93.1696 33.535C93.5394 33.2498 93.9019 33.0279 94.2569 32.8695C94.6119 32.711 94.9226 32.6318 95.1889 32.6318C95.2185 32.6318 95.2777 32.6318 95.3664 32.6318C95.4552 32.6318 95.5291 32.6239 95.5883 32.608C96.1653 32.608 96.7052 32.7269 97.2082 32.9646C97.7112 33.2022 98.4287 33.638 99.3607 34.2718L100.47 35.0324C101.343 35.5869 102.157 35.8642 102.911 35.8642C103.74 35.8642 104.45 35.6345 105.041 35.175C105.633 34.7155 105.966 34.0896 106.04 33.2973C106.04 32.8378 106.143 32.608 106.351 32.608C106.558 32.608 106.661 32.8616 106.661 33.3686C106.661 34.3827 106.314 35.278 105.618 36.0544C104.923 36.8308 104.035 37.219 102.955 37.219C102.349 37.219 101.705 37.0526 101.025 36.7199C100.344 36.3871 99.7527 36.0148 99.2497 35.6028C98.7467 35.1908 98.155 34.8184 97.4745 34.4857C96.794 34.1529 96.1727 33.9786 95.6105 33.9628C94.7229 33.9628 93.9906 34.2242 93.4137 34.7471C92.8367 35.27 92.5261 35.8642 92.4817 36.5297C92.4373 36.9892 92.3337 37.219 92.171 37.219C91.9639 37.219 91.8604 36.9813 91.8604 36.506Z" fill="black" stroke="#5F5B80" stroke-width="0.2"/>
<path d="M120.481 23.5754C120.481 23.4804 120.059 23.417 119.216 23.3853C118.861 23.3853 118.631 23.3774 118.528 23.3615C118.424 23.3457 118.372 23.2665 118.372 23.1238C118.372 23.108 118.387 23.0209 118.417 22.8624C118.432 22.8149 118.446 22.7594 118.461 22.696C118.476 22.6326 118.483 22.593 118.483 22.5772C118.483 22.5613 118.498 22.5217 118.528 22.4583C118.557 22.395 118.572 22.3712 118.572 22.387C118.572 22.4029 118.602 22.387 118.661 22.3395C118.72 22.292 118.757 22.2761 118.772 22.292C118.787 22.3078 118.846 22.3078 118.949 22.292C119.053 22.2761 119.142 22.2682 119.216 22.2682C119.304 22.2682 119.526 22.2682 119.881 22.2682C120.236 22.2682 120.569 22.2761 120.88 22.292C122.049 22.292 122.722 22.292 122.899 22.292C123.077 22.292 123.195 22.3316 123.254 22.4108C123.269 22.4742 123.543 24.7084 124.075 29.1133L124.874 35.7446L125.385 34.8651C125.74 34.2947 126.213 33.5025 126.805 32.4884C127.397 31.4743 128.047 30.3651 128.758 29.1609C131.346 24.7401 132.656 22.5138 132.685 22.4821C132.7 22.4663 132.722 22.4425 132.752 22.4108C132.781 22.3791 132.811 22.3554 132.841 22.3395L132.974 22.292H135.104C135.355 22.292 135.651 22.292 135.992 22.292C136.332 22.292 136.546 22.2841 136.635 22.2682C137.138 22.2682 137.39 22.3554 137.39 22.5297C137.39 22.6089 137.367 22.7436 137.323 22.9337C137.279 23.1238 137.256 23.2268 137.256 23.2427C137.197 23.3378 136.924 23.3853 136.435 23.3853C135.844 23.4011 135.466 23.4249 135.304 23.4566C135.141 23.4883 135.008 23.5754 134.904 23.718C134.86 23.7973 134.327 26.0394 133.307 30.4443C132.286 34.8493 131.768 37.0756 131.753 37.1231C131.753 37.1865 131.761 37.2261 131.775 37.2419C131.79 37.2578 131.842 37.2895 131.931 37.337C132.02 37.3845 132.145 37.4004 132.308 37.3845C132.471 37.3687 132.715 37.3845 133.04 37.4321H133.728C133.817 37.5747 133.861 37.6618 133.861 37.6935C133.861 37.947 133.81 38.1847 133.706 38.4066C133.632 38.4858 133.514 38.5254 133.351 38.5254C133.277 38.5254 132.974 38.5175 132.441 38.5016C131.909 38.4858 131.228 38.4779 130.4 38.4779C129.497 38.4779 128.817 38.4779 128.358 38.4779C127.9 38.4779 127.641 38.4858 127.581 38.5016C127.33 38.5016 127.204 38.4224 127.204 38.2639C127.204 38.2323 127.219 38.1213 127.249 37.9312C127.308 37.6777 127.367 37.5351 127.426 37.5034C127.485 37.4717 127.655 37.4479 127.936 37.4321C128.336 37.4321 128.78 37.4083 129.268 37.3608C129.475 37.3132 129.616 37.2182 129.69 37.0756C129.719 37.0122 130 35.8555 130.533 33.6055C131.065 31.3554 131.59 29.1133 132.108 26.8792C132.626 24.645 132.885 23.5279 132.885 23.5279L128.58 30.8722C125.68 35.8159 124.194 38.3273 124.12 38.4066C124.09 38.4224 124.061 38.4382 124.031 38.4541C123.957 38.5016 123.839 38.5254 123.676 38.5254C123.454 38.5254 123.321 38.4699 123.277 38.359C123.247 38.2956 122.944 35.8396 122.367 30.991L121.501 23.6943L119.992 30.1116C119.001 34.3264 118.506 36.5051 118.506 36.6477C118.594 37.1706 119.127 37.4321 120.103 37.4321H120.325C120.414 37.5113 120.466 37.5826 120.481 37.646C120.495 37.7094 120.473 37.852 120.414 38.0738C120.355 38.3273 120.296 38.4699 120.236 38.5016C120.177 38.5175 120.096 38.5254 119.992 38.5254C119.963 38.5254 119.874 38.5254 119.726 38.5254C119.578 38.5254 119.327 38.5175 118.972 38.5016C118.617 38.4858 118.143 38.4779 117.551 38.4779C117.108 38.4779 116.649 38.4858 116.176 38.5016C115.702 38.5175 115.429 38.5254 115.355 38.5254C115.133 38.5254 114.992 38.5095 114.933 38.4779C114.874 38.4462 114.844 38.3749 114.844 38.2639C114.844 38.2323 114.866 38.1213 114.911 37.9312C114.955 37.7411 114.992 37.6222 115.022 37.5747C115.051 37.4796 115.214 37.4321 115.51 37.4321C116.545 37.4321 117.204 37.1152 117.485 36.4814C117.544 36.3863 118.054 34.263 119.016 30.1116C119.978 25.9601 120.466 23.7814 120.481 23.5754Z" fill="black" stroke="#5F5B80" stroke-width="0.2"/>
<path d="M135.922 37.2691C135.932 37.2018 135.948 37.1122 135.969 37.0002C135.99 36.8882 136.053 36.6753 136.157 36.3617C136.262 36.048 136.366 35.7847 136.471 35.5719C136.576 35.359 136.748 35.1518 136.989 34.9501C137.229 34.7485 137.47 34.6533 137.71 34.6645C138.087 34.6645 138.401 34.7653 138.652 34.9669C138.903 35.1686 139.06 35.359 139.122 35.5383C139.185 35.7175 139.216 35.8351 139.216 35.8911C139.216 35.9136 139.222 35.9248 139.232 35.9248L139.405 35.7399C140.043 35.023 140.77 34.6645 141.585 34.6645C142.15 34.6645 142.605 34.8157 142.95 35.1182C143.295 35.4206 143.473 35.8631 143.484 36.4457C143.494 37.0282 143.295 37.9076 142.888 39.0839C142.48 40.2601 142.281 40.9715 142.291 41.218C142.291 41.5092 142.38 41.6549 142.558 41.6549C142.621 41.6549 142.668 41.6493 142.699 41.6381C143.003 41.5821 143.275 41.3692 143.515 40.9995C143.756 40.6298 143.939 40.1817 144.064 39.6552C144.085 39.5656 144.19 39.5208 144.378 39.5208C144.587 39.5208 144.692 39.5656 144.692 39.6552C144.692 39.6664 144.671 39.7504 144.629 39.9073C144.545 40.2321 144.43 40.5514 144.284 40.8651C144.137 41.1788 143.897 41.4924 143.562 41.8061C143.227 42.1198 142.867 42.271 142.48 42.2598C141.988 42.2598 141.632 42.1086 141.413 41.8061C141.193 41.5036 141.083 41.19 141.083 40.8651C141.083 40.6522 141.272 39.9801 141.648 38.8486C142.025 37.7172 142.218 36.8658 142.229 36.2944C142.229 35.6335 141.999 35.303 141.538 35.303H141.46C140.56 35.303 139.802 35.8687 139.185 37.0002L139.075 37.2018L138.558 39.4536C138.212 40.9211 138.014 41.7109 137.961 41.8229C137.825 42.1254 137.601 42.2766 137.287 42.2766C137.151 42.2766 137.041 42.243 136.957 42.1758C136.874 42.1086 136.816 42.0414 136.785 41.9741C136.753 41.9069 136.743 41.8509 136.753 41.8061C136.753 41.6605 136.952 40.7475 137.35 39.0671C137.747 37.3867 137.956 36.4737 137.977 36.328C137.988 36.272 137.993 36.1432 137.993 35.9416C137.993 35.5047 137.867 35.2862 137.616 35.2862C137.219 35.2862 136.889 35.8463 136.628 36.9666C136.565 37.1906 136.534 37.3083 136.534 37.3195C136.513 37.3867 136.413 37.4203 136.236 37.4203H136.016C135.953 37.3531 135.922 37.3027 135.922 37.2691Z" fill="black" stroke="#5F5B80" stroke-width="0.2"/>
<path d="M153.521 30.2789C153.521 30.0729 153.625 29.9145 153.832 29.8036H167.967C168.189 29.9303 168.3 30.0888 168.3 30.2789C168.3 30.4532 168.197 30.6037 167.99 30.7305L160.933 30.7543H153.877C153.64 30.6751 153.521 30.5166 153.521 30.2789ZM153.521 34.8899C153.521 34.6522 153.64 34.4937 153.877 34.4145H167.99C168.197 34.573 168.3 34.7314 168.3 34.8899C168.3 35.0959 168.189 35.2543 167.967 35.3652H153.832C153.625 35.2543 153.521 35.0959 153.521 34.8899Z" fill="black" stroke="#5F5B80" stroke-width="0.2"/>
<path d="M177.374 38.5242L177.307 38.4766C177.263 38.4608 177.226 38.437 177.196 38.4053C177.166 38.3736 177.13 38.3261 177.085 38.2627C177.041 38.1993 177.019 38.128 177.019 38.0488C177.019 37.9854 177.041 37.9062 177.085 37.8111C177.13 37.7002 178.483 35.0065 181.146 29.7301C183.809 24.4536 185.162 21.7837 185.207 21.7203C185.207 21.7045 185.222 21.6807 185.251 21.649C185.281 21.6173 185.325 21.5856 185.384 21.554C185.443 21.5223 185.503 21.5064 185.562 21.5064C185.665 21.5064 185.747 21.5381 185.806 21.6015C185.865 21.6332 187.263 24.3586 190 29.7776L194.083 37.8824V38.0488C194.083 38.2548 193.979 38.4133 193.772 38.5242H177.374ZM189.245 30.2767L185.562 23.0038C185.547 23.0038 184.319 25.4281 181.878 30.2767C179.437 35.1254 178.217 37.5576 178.217 37.5735H192.907C192.907 37.5418 191.686 35.1095 189.245 30.2767Z" fill="black" stroke="#5F5B80" stroke-width="0.2"/>
<path d="M196.589 31.6585C196.692 30.993 197.092 30.2245 197.787 29.353C198.482 28.4815 199.34 28.0378 200.361 28.022C200.879 28.022 201.352 28.1646 201.781 28.4498C202.21 28.735 202.528 29.0916 202.735 29.5194C203.357 28.5211 204.104 28.022 204.977 28.022C205.524 28.022 205.997 28.1963 206.397 28.5449C206.796 28.8935 207.003 29.3609 207.018 29.9472C207.018 30.4067 206.915 30.7791 206.707 31.0643C206.5 31.3495 206.301 31.5238 206.108 31.5872C205.916 31.6506 205.746 31.6822 205.598 31.6822C205.317 31.6822 205.088 31.5951 204.91 31.4208C204.732 31.2465 204.644 31.0167 204.644 30.7315C204.644 30.0026 205.014 29.5035 205.753 29.2342C205.591 29.0282 205.295 28.9252 204.866 28.9252C204.673 28.9252 204.533 28.941 204.444 28.9727C203.882 29.2262 203.468 29.7491 203.201 30.5414C202.314 34.0432 201.87 36.0872 201.87 36.6735C201.87 37.1171 201.988 37.4341 202.225 37.6242C202.462 37.8143 202.721 37.9094 203.002 37.9094C203.549 37.9094 204.089 37.648 204.622 37.1251C205.154 36.6022 205.517 35.9604 205.709 35.1999C205.753 35.0414 205.798 34.9543 205.842 34.9384C205.886 34.9226 206.005 34.9067 206.197 34.8909H206.286C206.508 34.8909 206.619 34.9543 206.619 35.081C206.619 35.0969 206.604 35.184 206.574 35.3425C206.338 36.2457 205.879 37.0458 205.198 37.743C204.518 38.4402 203.727 38.7888 202.824 38.7888C201.789 38.7888 201.005 38.2897 200.472 37.2914C199.865 38.2738 199.17 38.7651 198.386 38.7651H198.253C197.528 38.7651 197.01 38.5591 196.7 38.1471C196.389 37.7351 196.226 37.2994 196.211 36.8399C196.211 36.3328 196.352 35.9208 196.633 35.6039C196.914 35.287 197.247 35.1286 197.632 35.1286C198.268 35.1286 198.586 35.4613 198.586 36.1268C198.586 36.4437 198.497 36.721 198.32 36.9587C198.142 37.1964 197.972 37.3548 197.809 37.4341C197.646 37.5133 197.55 37.5529 197.521 37.5529L197.454 37.5767C197.454 37.5925 197.498 37.6242 197.587 37.6717C197.676 37.7193 197.794 37.7747 197.942 37.8381C198.09 37.9015 198.231 37.9253 198.364 37.9094C198.896 37.9094 199.355 37.5529 199.74 36.8399C199.873 36.5863 200.043 36.0476 200.25 35.2236C200.457 34.3997 200.664 33.5441 200.871 32.6567C201.078 31.7694 201.197 31.2465 201.226 31.088C201.3 30.6602 201.337 30.3512 201.337 30.1611C201.337 29.7174 201.226 29.4005 201.005 29.2104C200.783 29.0202 200.531 28.9252 200.25 28.9252C199.658 28.9252 199.104 29.1787 198.586 29.6857C198.068 30.1928 197.706 30.8424 197.498 31.6347C197.469 31.7773 197.432 31.8565 197.388 31.8724C197.343 31.8882 197.225 31.9041 197.032 31.9199H196.722C196.633 31.8248 196.589 31.7377 196.589 31.6585Z" fill="black" stroke="#5F5B80" stroke-width="0.2"/>
<path d="M210.746 44.4683V20.7004H213.786V21.6512H211.633V43.5175H213.786V44.4683H210.746Z" fill="black" stroke="#5F5B80" stroke-width="0.2"/>
<path d="M216.916 42.3742C216.945 42.3742 216.99 42.3901 217.049 42.4218C217.108 42.4535 217.189 42.4772 217.293 42.4931C217.396 42.5089 217.485 42.5168 217.559 42.5168C217.751 42.5168 217.929 42.4138 218.092 42.2078C218.254 42.0019 218.373 41.7721 218.447 41.5186C218.595 41.0908 218.846 39.8786 219.201 37.8821C219.556 35.8856 219.896 33.9842 220.222 32.1778C220.547 30.3715 220.71 29.4604 220.71 29.4445V29.3732H219.667C218.972 29.3732 218.602 29.3574 218.558 29.3257C218.498 29.2782 218.469 29.1989 218.469 29.088L218.624 28.4225C218.654 28.3433 218.713 28.3037 218.802 28.3037C218.89 28.3037 219.238 28.2958 219.845 28.2799C220.555 28.2799 220.91 28.272 220.91 28.2561C220.91 28.2245 220.976 27.8283 221.11 27.0678C221.243 26.3072 221.331 25.8477 221.376 25.6892C221.923 23.0748 223.003 21.7675 224.616 21.7675C225.163 21.7992 225.614 21.9735 225.969 22.2904C226.324 22.6073 226.502 23.0272 226.502 23.5501C226.502 24.1205 226.346 24.5325 226.036 24.786C225.725 25.0396 225.414 25.1743 225.104 25.1901C224.453 25.1901 224.127 24.8573 224.127 24.1918C224.127 23.8908 224.209 23.6293 224.371 23.4075C224.534 23.1857 224.712 23.0193 224.904 22.9084L225.104 22.7895C224.867 22.6945 224.645 22.6469 224.438 22.6469C224.261 22.6469 224.09 22.7262 223.928 22.8846C223.765 23.0431 223.654 23.2649 223.595 23.5501C223.491 24.0096 223.373 24.6276 223.24 25.404C223.107 26.1804 222.988 26.838 222.885 27.3767C222.781 27.9155 222.729 28.2007 222.729 28.2324C222.729 28.2641 223.136 28.2799 223.95 28.2799C224.616 28.2799 225 28.2878 225.104 28.3037C225.207 28.3195 225.289 28.3671 225.348 28.4463C225.363 28.5097 225.348 28.6444 225.303 28.8503C225.259 29.0563 225.222 29.1831 225.193 29.2306C225.163 29.3099 225.096 29.3495 224.993 29.3495C224.889 29.3495 224.49 29.3574 223.795 29.3732H222.552L222.042 32.2729C221.331 36.2025 220.836 38.6585 220.555 39.6409C220.155 40.9878 219.638 41.986 219.001 42.6357C218.454 43.1427 217.914 43.3962 217.382 43.3962C216.908 43.3962 216.479 43.2457 216.095 42.9447C215.71 42.6436 215.518 42.2158 215.518 41.6612C215.518 41.0749 215.673 40.6471 215.984 40.3777C216.294 40.1084 216.605 39.9737 216.916 39.9737C217.566 39.9737 217.892 40.3064 217.892 40.9719C217.892 41.273 217.811 41.5344 217.648 41.7563C217.485 41.9781 217.308 42.1445 217.115 42.2554L216.916 42.3742Z" fill="black" stroke="#5F5B80" stroke-width="0.2"/>
<path d="M228.586 32.5844C228.586 31.491 228.66 30.4532 228.808 29.4708C228.956 28.4884 229.126 27.6406 229.319 26.9276C229.511 26.2146 229.785 25.5174 230.14 24.836C230.495 24.1547 230.776 23.6239 230.983 23.2436C231.19 22.8633 231.501 22.4513 231.915 22.0077C232.329 21.564 232.573 21.2946 232.647 21.1996C232.721 21.1045 232.906 20.9381 233.202 20.7004H233.49H233.579C233.786 20.7004 233.89 20.7717 233.89 20.9144C233.89 20.9619 233.764 21.1283 233.513 21.4135C233.261 21.6987 232.958 22.1186 232.603 22.6732C232.248 23.2278 231.885 23.9091 231.516 24.7172C231.146 25.5253 230.835 26.6186 230.584 27.9972C230.332 29.3757 230.206 30.9048 230.206 32.5844C230.206 34.2639 230.332 35.7851 230.584 37.1478C230.835 38.5105 231.138 39.6117 231.493 40.4515C231.848 41.2913 232.211 41.9726 232.581 42.4955C232.951 43.0184 233.261 43.4383 233.513 43.7552C233.764 44.0721 233.89 44.2385 233.89 44.2544C233.89 44.397 233.779 44.4683 233.557 44.4683H233.49H233.202L232.581 43.8978C231.19 42.551 230.177 40.8714 229.541 38.8591C228.904 36.8467 228.586 34.7551 228.586 32.5844Z" fill="black" stroke="#5F5B80" stroke-width="0.2"/>
<path d="M236.288 31.6592C236.391 30.9937 236.791 30.2252 237.486 29.3537C238.181 28.4822 239.039 28.0386 240.06 28.0227C240.578 28.0227 241.051 28.1653 241.48 28.4506C241.909 28.7358 242.227 29.0923 242.434 29.5201C243.056 28.5219 243.803 28.0227 244.676 28.0227C245.223 28.0227 245.696 28.197 246.096 28.5456C246.495 28.8942 246.702 29.3617 246.717 29.9479C246.717 30.4074 246.614 30.7798 246.406 31.065C246.199 31.3502 246 31.5245 245.807 31.5879C245.615 31.6513 245.445 31.683 245.297 31.683C245.016 31.683 244.787 31.5958 244.609 31.4215C244.431 31.2472 244.343 31.0175 244.343 30.7323C244.343 30.0034 244.713 29.5043 245.452 29.2349C245.289 29.0289 244.994 28.9259 244.565 28.9259C244.372 28.9259 244.232 28.9418 244.143 28.9734C243.581 29.227 243.167 29.7499 242.9 30.5421C242.013 34.0439 241.569 36.0879 241.569 36.6742C241.569 37.1179 241.687 37.4348 241.924 37.6249C242.161 37.8151 242.42 37.9101 242.701 37.9101C243.248 37.9101 243.788 37.6487 244.321 37.1258C244.853 36.6029 245.216 35.9612 245.408 35.2006C245.452 35.0422 245.497 34.955 245.541 34.9392C245.585 34.9233 245.704 34.9075 245.896 34.8916H245.985C246.207 34.8916 246.318 34.955 246.318 35.0818C246.318 35.0976 246.303 35.1848 246.273 35.3432C246.037 36.2464 245.578 37.0466 244.897 37.7438C244.217 38.441 243.426 38.7896 242.523 38.7896C241.488 38.7896 240.703 38.2904 240.171 37.2922C239.564 38.2746 238.869 38.7658 238.085 38.7658H237.952C237.227 38.7658 236.709 38.5598 236.399 38.1478C236.088 37.7358 235.925 37.3001 235.91 36.8406C235.91 36.3335 236.051 35.9216 236.332 35.6047C236.613 35.2878 236.946 35.1293 237.331 35.1293C237.967 35.1293 238.285 35.4621 238.285 36.1276C238.285 36.4445 238.196 36.7218 238.018 36.9594C237.841 37.1971 237.671 37.3556 237.508 37.4348C237.345 37.514 237.249 37.5536 237.22 37.5536L237.153 37.5774C237.153 37.5932 237.197 37.6249 237.286 37.6725C237.375 37.72 237.493 37.7755 237.641 37.8388C237.789 37.9022 237.93 37.926 238.063 37.9101C238.595 37.9101 239.054 37.5536 239.439 36.8406C239.572 36.5871 239.742 36.0483 239.949 35.2244C240.156 34.4004 240.363 33.5448 240.57 32.6575C240.777 31.7701 240.896 31.2472 240.925 31.0888C240.999 30.661 241.036 30.352 241.036 30.1618C241.036 29.7182 240.925 29.4013 240.703 29.2111C240.482 29.021 240.23 28.9259 239.949 28.9259C239.357 28.9259 238.803 29.1794 238.285 29.6865C237.767 30.1935 237.405 30.8432 237.197 31.6354C237.168 31.778 237.131 31.8573 237.086 31.8731C237.042 31.889 236.924 31.9048 236.731 31.9207H236.421C236.332 31.8256 236.288 31.7384 236.288 31.6592Z" fill="black" stroke="#5F5B80" stroke-width="0.2"/>
<path d="M251.168 32.3806L250.964 32.4647C250.818 32.5207 250.608 32.5767 250.336 32.6327C250.064 32.6887 249.761 32.7279 249.426 32.7503H249.128V31.9773H249.426C249.918 31.9549 250.373 31.8709 250.791 31.7253C251.21 31.5797 251.503 31.4452 251.67 31.322C251.837 31.1988 251.984 31.0755 252.109 30.9523C252.13 30.9187 252.193 30.9019 252.297 30.9019C252.392 30.9019 252.481 30.9355 252.564 31.0027V36.0271L252.58 41.0682C252.653 41.1466 252.716 41.1971 252.768 41.2195C252.82 41.2419 252.946 41.2643 253.145 41.2867C253.343 41.3091 253.668 41.3203 254.117 41.3203H254.525V42.0933H254.353C254.133 42.0597 253.302 42.0429 251.858 42.0429C250.436 42.0429 249.615 42.0597 249.395 42.0933H249.207V41.3203H249.615C249.845 41.3203 250.044 41.3203 250.211 41.3203C250.378 41.3203 250.509 41.3147 250.603 41.3035C250.697 41.2923 250.781 41.2755 250.854 41.2531C250.927 41.2307 250.969 41.2195 250.98 41.2195C250.99 41.2195 251.021 41.1915 251.074 41.1354C251.126 41.0794 251.157 41.057 251.168 41.0682V32.3806Z" fill="black" stroke="#5F5B80" stroke-width="0.2"/>
<g clip-path="url(#clip0_1843_2311)">
<path d="M233.744 25.7888V25.0158H257.185V25.7888H233.744Z" fill="#5F5B80"/>
</g>
<path d="M258.113 20.7242L258.202 20.7004C258.276 20.7004 258.35 20.7004 258.424 20.7004H258.69L259.312 21.2709C260.702 22.6177 261.716 24.2973 262.352 26.3096C262.988 28.322 263.306 30.4136 263.306 32.5844C263.306 33.6618 263.232 34.6997 263.084 35.6979C262.936 36.6962 262.766 37.5439 262.574 38.2411C262.381 38.9383 262.108 39.6355 261.753 40.3327C261.398 41.0299 261.116 41.5607 260.909 41.9251C260.702 42.2895 260.399 42.6936 260 43.1373C259.6 43.5809 259.363 43.8424 259.289 43.9216C259.216 44.0008 259.045 44.1514 258.779 44.3732C258.735 44.4207 258.705 44.4524 258.69 44.4683H258.424C258.306 44.4683 258.224 44.4683 258.18 44.4683C258.136 44.4683 258.099 44.4445 258.069 44.397C258.039 44.3494 258.017 44.2781 258.002 44.183C258.017 44.1672 258.099 44.0642 258.247 43.8741C260.54 41.323 261.686 37.5597 261.686 32.5844C261.686 27.609 260.54 23.8457 258.247 21.2946C258.099 21.1045 258.017 21.0015 258.002 20.9857C258.002 20.8589 258.039 20.7717 258.113 20.7242Z" fill="black" stroke="#5F5B80" stroke-width="0.2"/>
<path d="M271.588 32.8946C271.588 32.8946 271.588 32.7916 271.588 32.5856C271.588 32.3797 271.691 32.2212 271.899 32.1103H278.533V28.5451L278.556 24.9799C278.704 24.774 278.844 24.671 278.977 24.671C279.17 24.671 279.317 24.7898 279.421 25.0275V32.1103H286.034C286.256 32.2371 286.367 32.3955 286.367 32.5856C286.367 32.7758 286.256 32.9342 286.034 33.061H279.421V40.1438C279.303 40.3656 279.17 40.4766 279.022 40.4766H278.977H278.933C278.755 40.4766 278.622 40.3656 278.533 40.1438V33.061H271.899C271.691 32.9501 271.588 32.7916 271.588 32.5856V32.8946Z" fill="black" stroke="#5F5B80" stroke-width="0.2"/>
<path d="M295.158 42.3742C295.188 42.3742 295.232 42.3901 295.291 42.4218C295.351 42.4535 295.432 42.4772 295.535 42.4931C295.639 42.5089 295.728 42.5168 295.802 42.5168C295.994 42.5168 296.172 42.4138 296.334 42.2078C296.497 42.0019 296.615 41.7721 296.689 41.5186C296.837 41.0908 297.089 39.8786 297.444 37.8821C297.799 35.8856 298.139 33.9842 298.465 32.1778C298.79 30.3715 298.953 29.4604 298.953 29.4445V29.3732H297.91C297.215 29.3732 296.845 29.3574 296.8 29.3257C296.741 29.2782 296.712 29.1989 296.712 29.088L296.867 28.4225C296.896 28.3433 296.956 28.3037 297.044 28.3037C297.133 28.3037 297.481 28.2958 298.087 28.2799C298.797 28.2799 299.152 28.272 299.152 28.2561C299.152 28.2245 299.219 27.8283 299.352 27.0678C299.485 26.3072 299.574 25.8477 299.618 25.6892C300.166 23.0748 301.246 21.7675 302.858 21.7675C303.406 21.7992 303.857 21.9735 304.212 22.2904C304.567 22.6073 304.744 23.0272 304.744 23.5501C304.744 24.1205 304.589 24.5325 304.278 24.786C303.968 25.0396 303.657 25.1743 303.346 25.1901C302.696 25.1901 302.37 24.8573 302.37 24.1918C302.37 23.8908 302.451 23.6293 302.614 23.4075C302.777 23.1857 302.954 23.0193 303.147 22.9084L303.346 22.7895C303.11 22.6945 302.888 22.6469 302.681 22.6469C302.503 22.6469 302.333 22.7262 302.17 22.8846C302.008 23.0431 301.897 23.2649 301.838 23.5501C301.734 24.0096 301.616 24.6276 301.482 25.404C301.349 26.1804 301.231 26.838 301.127 27.3767C301.024 27.9155 300.972 28.2007 300.972 28.2324C300.972 28.2641 301.379 28.2799 302.193 28.2799C302.858 28.2799 303.243 28.2878 303.346 28.3037C303.45 28.3195 303.531 28.3671 303.591 28.4463C303.605 28.5097 303.591 28.6444 303.546 28.8503C303.502 29.0563 303.465 29.1831 303.435 29.2306C303.406 29.3099 303.339 29.3495 303.235 29.3495C303.132 29.3495 302.733 29.3574 302.037 29.3732H300.795L300.284 32.2729C299.574 36.2025 299.079 38.6585 298.797 39.6409C298.398 40.9878 297.88 41.986 297.244 42.6357C296.697 43.1427 296.157 43.3962 295.624 43.3962C295.151 43.3962 294.722 43.2457 294.337 42.9447C293.953 42.6436 293.76 42.2158 293.76 41.6612C293.76 41.0749 293.916 40.6471 294.226 40.3777C294.537 40.1084 294.848 39.9737 295.158 39.9737C295.809 39.9737 296.135 40.3064 296.135 40.9719C296.135 41.273 296.053 41.5344 295.891 41.7563C295.728 41.9781 295.55 42.1445 295.358 42.2554L295.158 42.3742Z" fill="black" stroke="#5F5B80" stroke-width="0.2"/>
<path d="M306.829 32.5844C306.829 31.491 306.903 30.4532 307.051 29.4708C307.199 28.4884 307.369 27.6406 307.562 26.9276C307.754 26.2146 308.028 25.5174 308.383 24.836C308.738 24.1547 309.019 23.6239 309.226 23.2436C309.433 22.8633 309.744 22.4513 310.158 22.0077C310.572 21.564 310.816 21.2946 310.89 21.1996C310.964 21.1045 311.149 20.9381 311.445 20.7004H311.733H311.822C312.029 20.7004 312.133 20.7717 312.133 20.9144C312.133 20.9619 312.007 21.1283 311.756 21.4135C311.504 21.6987 311.201 22.1186 310.846 22.6732C310.491 23.2278 310.128 23.9091 309.758 24.7172C309.389 25.5253 309.078 26.6186 308.826 27.9972C308.575 29.3757 308.449 30.9048 308.449 32.5844C308.449 34.2639 308.575 35.7851 308.826 37.1478C309.078 38.5105 309.381 39.6117 309.736 40.4515C310.091 41.2913 310.454 41.9726 310.824 42.4955C311.193 43.0184 311.504 43.4383 311.756 43.7552C312.007 44.0721 312.133 44.2385 312.133 44.2544C312.133 44.397 312.022 44.4683 311.8 44.4683H311.733H311.445L310.824 43.8978C309.433 42.551 308.42 40.8714 307.784 38.8591C307.147 36.8467 306.829 34.7551 306.829 32.5844Z" fill="black" stroke="#5F5B80" stroke-width="0.2"/>
<path d="M314.529 31.6592C314.633 30.9937 315.032 30.2252 315.728 29.3537C316.423 28.4822 317.281 28.0386 318.302 28.0227C318.819 28.0227 319.293 28.1653 319.722 28.4506C320.151 28.7358 320.469 29.0923 320.676 29.5201C321.297 28.5219 322.044 28.0227 322.917 28.0227C323.465 28.0227 323.938 28.197 324.337 28.5456C324.737 28.8942 324.944 29.3617 324.959 29.9479C324.959 30.4074 324.855 30.7798 324.648 31.065C324.441 31.3502 324.241 31.5245 324.049 31.5879C323.857 31.6513 323.687 31.683 323.539 31.683C323.258 31.683 323.028 31.5958 322.851 31.4215C322.673 31.2472 322.584 31.0175 322.584 30.7323C322.584 30.0034 322.954 29.5043 323.694 29.2349C323.531 29.0289 323.235 28.9259 322.806 28.9259C322.614 28.9259 322.473 28.9418 322.385 28.9734C321.823 29.227 321.408 29.7499 321.142 30.5421C320.254 34.0439 319.811 36.0879 319.811 36.6742C319.811 37.1179 319.929 37.4348 320.166 37.6249C320.402 37.8151 320.661 37.9101 320.942 37.9101C321.49 37.9101 322.03 37.6487 322.562 37.1258C323.095 36.6029 323.457 35.9612 323.65 35.2006C323.694 35.0422 323.738 34.955 323.783 34.9392C323.827 34.9233 323.945 34.9075 324.138 34.8916H324.226C324.448 34.8916 324.559 34.955 324.559 35.0818C324.559 35.0976 324.545 35.1848 324.515 35.3432C324.278 36.2464 323.82 37.0466 323.139 37.7438C322.459 38.441 321.667 38.7896 320.765 38.7896C319.729 38.7896 318.945 38.2904 318.413 37.2922C317.806 38.2746 317.111 38.7658 316.327 38.7658H316.194C315.469 38.7658 314.951 38.5598 314.64 38.1478C314.33 37.7358 314.167 37.3001 314.152 36.8406C314.152 36.3335 314.293 35.9216 314.574 35.6047C314.855 35.2878 315.188 35.1293 315.572 35.1293C316.208 35.1293 316.526 35.4621 316.526 36.1276C316.526 36.4445 316.438 36.7218 316.26 36.9594C316.083 37.1971 315.913 37.3556 315.75 37.4348C315.587 37.514 315.491 37.5536 315.461 37.5536L315.395 37.5774C315.395 37.5932 315.439 37.6249 315.528 37.6725C315.617 37.72 315.735 37.7755 315.883 37.8388C316.031 37.9022 316.171 37.926 316.305 37.9101C316.837 37.9101 317.296 37.5536 317.68 36.8406C317.813 36.5871 317.984 36.0483 318.191 35.2244C318.398 34.4004 318.605 33.5448 318.812 32.6575C319.019 31.7701 319.138 31.2472 319.167 31.0888C319.241 30.661 319.278 30.352 319.278 30.1618C319.278 29.7182 319.167 29.4013 318.945 29.2111C318.723 29.021 318.472 28.9259 318.191 28.9259C317.599 28.9259 317.044 29.1794 316.526 29.6865C316.009 30.1935 315.646 30.8432 315.439 31.6354C315.41 31.778 315.373 31.8573 315.328 31.8731C315.284 31.889 315.165 31.9048 314.973 31.9207H314.662C314.574 31.8256 314.529 31.7384 314.529 31.6592Z" fill="black" stroke="#5F5B80" stroke-width="0.2"/>
<path d="M327.776 34.8844C327.494 34.8844 327.269 34.7836 327.101 34.5819C326.934 34.3803 326.85 34.1338 326.85 33.8426C326.85 33.0472 327.128 32.3582 327.682 31.7757C328.236 31.1932 328.926 30.9019 329.753 30.9019C330.704 30.9019 331.499 31.2156 332.137 31.8429C332.775 32.4703 333.1 33.2824 333.11 34.2795C333.11 34.7612 333.005 35.2205 332.796 35.6574C332.587 36.0943 332.336 36.4752 332.043 36.8001C331.75 37.1249 331.332 37.5394 330.788 38.0435C330.412 38.3908 329.889 38.9061 329.219 39.5895L328.294 40.5305L329.486 40.5473C331.128 40.5473 332.001 40.5193 332.106 40.4633C332.179 40.4409 332.305 39.9424 332.483 38.9677V38.9173H333.11V38.9677C333.1 39.0014 333.032 39.5111 332.906 40.4969C332.781 41.4827 332.702 41.998 332.671 42.0429V42.0933H326.85V41.774V41.5723C326.85 41.4939 326.882 41.4099 326.944 41.3203C327.007 41.2307 327.164 41.0346 327.415 40.7322C327.718 40.3737 327.98 40.06 328.2 39.7911C328.294 39.6791 328.471 39.4719 328.733 39.1694C328.994 38.8669 329.172 38.6597 329.266 38.5477C329.361 38.4356 329.512 38.2508 329.721 37.9931C329.931 37.7355 330.077 37.545 330.161 37.4218C330.244 37.2986 330.365 37.1305 330.521 36.9177C330.678 36.7048 330.788 36.5256 330.851 36.38C330.914 36.2343 330.992 36.0719 331.086 35.8926C331.18 35.7134 331.248 35.5342 331.29 35.3549C331.332 35.1757 331.369 35.0076 331.4 34.8508C331.431 34.694 331.447 34.5091 331.447 34.2963C331.447 33.5905 331.269 32.98 330.914 32.4647C330.558 31.9493 330.051 31.6917 329.392 31.6917C329.047 31.6917 328.743 31.7869 328.482 31.9773C328.22 32.1678 328.037 32.3526 327.933 32.5319C327.828 32.7111 327.776 32.8175 327.776 32.8511C327.776 32.8624 327.802 32.868 327.854 32.868C328.043 32.868 328.236 32.9464 328.435 33.1032C328.634 33.26 328.733 33.5177 328.733 33.8762C328.733 34.1562 328.649 34.3915 328.482 34.5819C328.315 34.7724 328.079 34.8732 327.776 34.8844Z" fill="black" stroke="#5F5B80" stroke-width="0.2"/>
<g clip-path="url(#clip1_1843_2311)">
<path d="M312.502 25.7888V25.0158H335.944V25.7888H312.502Z" fill="#5F5B80"/>
</g>
<path d="M336.355 20.7242L336.444 20.7004C336.518 20.7004 336.592 20.7004 336.666 20.7004H336.932L337.553 21.2709C338.944 22.6177 339.957 24.2973 340.593 26.3096C341.229 28.322 341.547 30.4136 341.547 32.5844C341.547 33.6618 341.473 34.6997 341.325 35.6979C341.178 36.6962 341.007 37.5439 340.815 38.2411C340.623 38.9383 340.349 39.6355 339.994 40.3327C339.639 41.0299 339.358 41.5607 339.151 41.9251C338.944 42.2895 338.64 42.6936 338.241 43.1373C337.842 43.5809 337.605 43.8424 337.531 43.9216C337.457 44.0008 337.287 44.1514 337.021 44.3732C336.976 44.4207 336.947 44.4524 336.932 44.4683H336.666C336.547 44.4683 336.466 44.4683 336.421 44.4683C336.377 44.4683 336.34 44.4445 336.31 44.397C336.281 44.3494 336.259 44.2781 336.244 44.183C336.259 44.1672 336.34 44.0642 336.488 43.8741C338.781 41.323 339.927 37.5597 339.927 32.5844C339.927 27.609 338.781 23.8457 336.488 21.2946C336.34 21.1045 336.259 21.0015 336.244 20.9857C336.244 20.8589 336.281 20.7717 336.355 20.7242Z" fill="black" stroke="#5F5B80" stroke-width="0.2"/>
<path d="M344.895 32.8946C344.895 32.8946 344.895 32.7916 344.895 32.5856C344.895 32.3797 344.999 32.2212 345.206 32.1103H351.841V28.5451L351.863 24.9799C352.011 24.774 352.151 24.671 352.285 24.671C352.477 24.671 352.625 24.7898 352.728 25.0275V32.1103H359.341C359.563 32.2371 359.674 32.3955 359.674 32.5856C359.674 32.7758 359.563 32.9342 359.341 33.061H352.728V40.1438C352.61 40.3656 352.477 40.4766 352.329 40.4766H352.285H352.24C352.063 40.4766 351.93 40.3656 351.841 40.1438V33.061H345.206C344.999 32.9501 344.895 32.7916 344.895 32.5856V32.8946Z" fill="black" stroke="#5F5B80" stroke-width="0.2"/>
<path d="M362.65 37.0981C362.65 36.7178 362.776 36.3851 363.028 36.0999C363.279 35.8146 363.597 35.672 363.982 35.672C364.337 35.672 364.648 35.7988 364.914 36.0523C365.18 36.3058 365.321 36.6465 365.335 37.0743C365.335 37.4705 365.21 37.8111 364.958 38.0963C364.707 38.3816 364.389 38.5242 364.004 38.5242C363.619 38.5242 363.301 38.3895 363.05 38.1201C362.798 37.8507 362.665 37.5101 362.65 37.0981Z" fill="black" stroke="#5F5B80" stroke-width="0.2"/>
<path d="M372.518 37.0981C372.518 36.7178 372.644 36.3851 372.895 36.0999C373.147 35.8146 373.465 35.672 373.849 35.672C374.204 35.672 374.515 35.7988 374.781 36.0523C375.048 36.3058 375.188 36.6465 375.203 37.0743C375.203 37.4705 375.077 37.8111 374.826 38.0963C374.574 38.3816 374.256 38.5242 373.871 38.5242C373.487 38.5242 373.169 38.3895 372.917 38.1201C372.666 37.8507 372.533 37.5101 372.518 37.0981Z" fill="black" stroke="#5F5B80" stroke-width="0.2"/>
<path d="M382.386 37.0981C382.386 36.7178 382.512 36.3851 382.763 36.0999C383.015 35.8146 383.333 35.672 383.718 35.672C384.073 35.672 384.383 35.7988 384.65 36.0523C384.916 36.3058 385.056 36.6465 385.071 37.0743C385.071 37.4705 384.946 37.8111 384.694 38.0963C384.443 38.3816 384.124 38.5242 383.74 38.5242C383.355 38.5242 383.037 38.3895 382.786 38.1201C382.534 37.8507 382.401 37.5101 382.386 37.0981Z" fill="black" stroke="#5F5B80" stroke-width="0.2"/>
<path d="M391.764 32.8946C391.764 32.8946 391.764 32.7916 391.764 32.5856C391.764 32.3797 391.868 32.2212 392.075 32.1103H398.71V28.5451L398.732 24.9799C398.88 24.774 399.02 24.671 399.154 24.671C399.346 24.671 399.494 24.7898 399.597 25.0275V32.1103H406.21C406.432 32.2371 406.543 32.3955 406.543 32.5856C406.543 32.7758 406.432 32.9342 406.21 33.061H399.597V40.1438C399.479 40.3656 399.346 40.4766 399.198 40.4766H399.154H399.109C398.932 40.4766 398.798 40.3656 398.71 40.1438V33.061H392.075C391.868 32.9501 391.764 32.7916 391.764 32.5856V32.8946Z" fill="black" stroke="#5F5B80" stroke-width="0.2"/>
<path d="M410.402 42.3742C410.432 42.3742 410.476 42.3901 410.535 42.4218C410.594 42.4535 410.676 42.4772 410.779 42.4931C410.883 42.5089 410.972 42.5168 411.046 42.5168C411.238 42.5168 411.415 42.4138 411.578 42.2078C411.741 42.0019 411.859 41.7721 411.933 41.5186C412.081 41.0908 412.333 39.8786 412.688 37.8821C413.043 35.8856 413.383 33.9842 413.708 32.1778C414.034 30.3715 414.197 29.4604 414.197 29.4445V29.3732H413.154C412.458 29.3732 412.089 29.3574 412.044 29.3257C411.985 29.2782 411.955 29.1989 411.955 29.088L412.111 28.4225C412.14 28.3433 412.2 28.3037 412.288 28.3037C412.377 28.3037 412.725 28.2958 413.331 28.2799C414.041 28.2799 414.396 28.272 414.396 28.2561C414.396 28.2245 414.463 27.8283 414.596 27.0678C414.729 26.3072 414.818 25.8477 414.862 25.6892C415.41 23.0748 416.49 21.7675 418.102 21.7675C418.65 21.7992 419.101 21.9735 419.456 22.2904C419.811 22.6073 419.988 23.0272 419.988 23.5501C419.988 24.1205 419.833 24.5325 419.522 24.786C419.212 25.0396 418.901 25.1743 418.59 25.1901C417.939 25.1901 417.614 24.8573 417.614 24.1918C417.614 23.8908 417.695 23.6293 417.858 23.4075C418.021 23.1857 418.198 23.0193 418.391 22.9084L418.59 22.7895C418.354 22.6945 418.132 22.6469 417.925 22.6469C417.747 22.6469 417.577 22.7262 417.414 22.8846C417.252 23.0431 417.141 23.2649 417.081 23.5501C416.978 24.0096 416.86 24.6276 416.726 25.404C416.593 26.1804 416.475 26.838 416.371 27.3767C416.268 27.9155 416.216 28.2007 416.216 28.2324C416.216 28.2641 416.623 28.2799 417.436 28.2799C418.102 28.2799 418.487 28.2878 418.59 28.3037C418.694 28.3195 418.775 28.3671 418.834 28.4463C418.849 28.5097 418.834 28.6444 418.79 28.8503C418.746 29.0563 418.709 29.1831 418.679 29.2306C418.65 29.3099 418.583 29.3495 418.479 29.3495C418.376 29.3495 417.976 29.3574 417.281 29.3732H416.038L415.528 32.2729C414.818 36.2025 414.322 38.6585 414.041 39.6409C413.642 40.9878 413.124 41.986 412.488 42.6357C411.941 43.1427 411.401 43.3962 410.868 43.3962C410.395 43.3962 409.966 43.2457 409.581 42.9447C409.196 42.6436 409.004 42.2158 409.004 41.6612C409.004 41.0749 409.159 40.6471 409.47 40.3777C409.781 40.1084 410.091 39.9737 410.402 39.9737C411.053 39.9737 411.379 40.3064 411.379 40.9719C411.379 41.273 411.297 41.5344 411.134 41.7563C410.972 41.9781 410.794 42.1445 410.602 42.2554L410.402 42.3742Z" fill="black" stroke="#5F5B80" stroke-width="0.2"/>
<path d="M422.075 32.5844C422.075 31.491 422.149 30.4532 422.297 29.4708C422.445 28.4884 422.615 27.6406 422.807 26.9276C423 26.2146 423.273 25.5174 423.629 24.836C423.984 24.1547 424.265 23.6239 424.472 23.2436C424.679 22.8633 424.99 22.4513 425.404 22.0077C425.818 21.564 426.062 21.2946 426.136 21.1996C426.21 21.1045 426.395 20.9381 426.691 20.7004H426.979H427.068C427.275 20.7004 427.379 20.7717 427.379 20.9144C427.379 20.9619 427.253 21.1283 427.001 21.4135C426.75 21.6987 426.447 22.1186 426.092 22.6732C425.737 23.2278 425.374 23.9091 425.004 24.7172C424.634 25.5253 424.324 26.6186 424.072 27.9972C423.821 29.3757 423.695 30.9048 423.695 32.5844C423.695 34.2639 423.821 35.7851 424.072 37.1478C424.324 38.5105 424.627 39.6117 424.982 40.4515C425.337 41.2913 425.7 41.9726 426.069 42.4955C426.439 43.0184 426.75 43.4383 427.001 43.7552C427.253 44.0721 427.379 44.2385 427.379 44.2544C427.379 44.397 427.268 44.4683 427.046 44.4683H426.979H426.691L426.069 43.8978C424.679 42.551 423.665 40.8714 423.029 38.8591C422.393 36.8467 422.075 34.7551 422.075 32.5844Z" fill="black" stroke="#5F5B80" stroke-width="0.2"/>
<path d="M429.777 31.6563C429.881 30.9908 430.28 30.2223 430.976 29.3508C431.671 28.4793 432.529 28.0356 433.55 28.0198C434.067 28.0198 434.541 28.1624 434.97 28.4476C435.399 28.7328 435.717 29.0894 435.924 29.5172C436.545 28.5189 437.292 28.0198 438.165 28.0198C438.713 28.0198 439.186 28.1941 439.585 28.5427C439.985 28.8913 440.192 29.3587 440.207 29.945C440.207 30.4045 440.103 30.7769 439.896 31.0621C439.689 31.3473 439.489 31.5216 439.297 31.585C439.105 31.6484 438.935 31.68 438.787 31.68C438.506 31.68 438.276 31.5929 438.099 31.4186C437.921 31.2443 437.832 31.0145 437.832 30.7293C437.832 30.0005 438.202 29.5013 438.942 29.232C438.779 29.026 438.483 28.923 438.054 28.923C437.862 28.923 437.721 28.9388 437.633 28.9705C437.071 29.224 436.656 29.7469 436.39 30.5392C435.502 34.041 435.059 36.085 435.059 36.6713C435.059 37.115 435.177 37.4319 435.414 37.622C435.65 37.8121 435.909 37.9072 436.19 37.9072C436.738 37.9072 437.278 37.6458 437.81 37.1229C438.343 36.6 438.705 35.9583 438.898 35.1977C438.942 35.0392 438.986 34.9521 439.031 34.9362C439.075 34.9204 439.193 34.9045 439.386 34.8887H439.475C439.696 34.8887 439.807 34.9521 439.807 35.0788C439.807 35.0947 439.793 35.1818 439.763 35.3403C439.526 36.2435 439.068 37.0436 438.387 37.7408C437.707 38.438 436.915 38.7866 436.013 38.7866C434.977 38.7866 434.193 38.2875 433.661 37.2892C433.054 38.2717 432.359 38.7629 431.575 38.7629H431.442C430.717 38.7629 430.199 38.5569 429.888 38.1449C429.578 37.7329 429.415 37.2972 429.4 36.8377C429.4 36.3306 429.541 35.9186 429.822 35.6017C430.103 35.2848 430.436 35.1264 430.82 35.1264C431.456 35.1264 431.775 35.4591 431.775 36.1246C431.775 36.4415 431.686 36.7188 431.508 36.9565C431.331 37.1942 431.161 37.3526 430.998 37.4319C430.835 37.5111 430.739 37.5507 430.709 37.5507L430.643 37.5745C430.643 37.5903 430.687 37.622 430.776 37.6695C430.865 37.7171 430.983 37.7725 431.131 37.8359C431.279 37.8993 431.419 37.9231 431.553 37.9072C432.085 37.9072 432.544 37.5507 432.928 36.8377C433.062 36.5841 433.232 36.0454 433.439 35.2214C433.646 34.3975 433.853 33.5419 434.06 32.6545C434.267 31.7672 434.386 31.2443 434.415 31.0858C434.489 30.658 434.526 30.349 434.526 30.1589C434.526 29.7152 434.415 29.3983 434.193 29.2082C433.971 29.018 433.72 28.923 433.439 28.923C432.847 28.923 432.292 29.1765 431.775 29.6835C431.257 30.1906 430.894 30.8402 430.687 31.6325C430.658 31.7751 430.621 31.8543 430.576 31.8702C430.532 31.886 430.414 31.9019 430.221 31.9177H429.911C429.822 31.8227 429.777 31.7355 429.777 31.6563Z" fill="black" stroke="#5F5B80" stroke-width="0.2"/>
<path d="M441.645 37.2691C441.655 37.2018 441.671 37.1122 441.692 37.0002C441.713 36.8882 441.776 36.6753 441.88 36.3617C441.985 36.048 442.09 35.7847 442.194 35.5719C442.299 35.359 442.471 35.1518 442.712 34.9501C442.952 34.7485 443.193 34.6533 443.434 34.6645C443.81 34.6645 444.124 34.7653 444.375 34.9669C444.626 35.1686 444.783 35.359 444.845 35.5383C444.908 35.7175 444.94 35.8351 444.94 35.8911C444.94 35.9136 444.945 35.9248 444.955 35.9248L445.128 35.7399C445.766 35.023 446.493 34.6645 447.309 34.6645C447.873 34.6645 448.328 34.8157 448.673 35.1182C449.019 35.4206 449.196 35.8631 449.207 36.4457C449.217 37.0282 449.019 37.9076 448.611 39.0839C448.203 40.2601 448.004 40.9715 448.015 41.218C448.015 41.5092 448.103 41.6549 448.281 41.6549C448.344 41.6549 448.391 41.6493 448.422 41.6381C448.726 41.5821 448.998 41.3692 449.238 40.9995C449.479 40.6298 449.662 40.1817 449.787 39.6552C449.808 39.5656 449.913 39.5208 450.101 39.5208C450.31 39.5208 450.415 39.5656 450.415 39.6552C450.415 39.6664 450.394 39.7504 450.352 39.9073C450.268 40.2321 450.153 40.5514 450.007 40.8651C449.861 41.1788 449.62 41.4924 449.285 41.8061C448.951 42.1198 448.59 42.271 448.203 42.2598C447.711 42.2598 447.356 42.1086 447.136 41.8061C446.916 41.5036 446.807 41.19 446.807 40.8651C446.807 40.6522 446.995 39.9801 447.371 38.8486C447.748 37.7172 447.941 36.8658 447.952 36.2944C447.952 35.6335 447.722 35.303 447.262 35.303H447.183C446.284 35.303 445.525 35.8687 444.908 37.0002L444.798 37.2018L444.281 39.4536C443.936 40.9211 443.737 41.7109 443.685 41.8229C443.549 42.1254 443.324 42.2766 443.01 42.2766C442.874 42.2766 442.764 42.243 442.68 42.1758C442.597 42.1086 442.539 42.0414 442.508 41.9741C442.477 41.9069 442.466 41.8509 442.477 41.8061C442.477 41.6605 442.675 40.7475 443.073 39.0671C443.47 37.3867 443.679 36.4737 443.7 36.328C443.711 36.272 443.716 36.1432 443.716 35.9416C443.716 35.5047 443.59 35.2862 443.339 35.2862C442.942 35.2862 442.612 35.8463 442.351 36.9666C442.288 37.1906 442.257 37.3083 442.257 37.3195C442.236 37.3867 442.137 37.4203 441.959 37.4203H441.739C441.676 37.3531 441.645 37.3027 441.645 37.2691Z" fill="black" stroke="#5F5B80" stroke-width="0.2"/>
<g clip-path="url(#clip2_1843_2311)">
<path d="M428.255 25.7864V25.0134H453.396V25.7864H428.255Z" fill="#5F5B80"/>
</g>
<path d="M453.172 20.7242L453.261 20.7004C453.334 20.7004 453.408 20.7004 453.482 20.7004H453.749L454.37 21.2709C455.761 22.6177 456.774 24.2973 457.41 26.3096C458.046 28.322 458.364 30.4136 458.364 32.5844C458.364 33.6618 458.29 34.6997 458.142 35.6979C457.994 36.6962 457.824 37.5439 457.632 38.2411C457.44 38.9383 457.166 39.6355 456.811 40.3327C456.456 41.0299 456.175 41.5607 455.968 41.9251C455.761 42.2895 455.457 42.6936 455.058 43.1373C454.658 43.5809 454.422 43.8424 454.348 43.9216C454.274 44.0008 454.104 44.1514 453.837 44.3732C453.793 44.4207 453.763 44.4524 453.749 44.4683H453.482C453.364 44.4683 453.283 44.4683 453.238 44.4683C453.194 44.4683 453.157 44.4445 453.127 44.397C453.098 44.3494 453.076 44.2781 453.061 44.183C453.076 44.1672 453.157 44.0642 453.305 43.8741C455.598 41.323 456.744 37.5597 456.744 32.5844C456.744 27.609 455.598 23.8457 453.305 21.2946C453.157 21.1045 453.076 21.0015 453.061 20.9857C453.061 20.8589 453.098 20.7717 453.172 20.7242Z" fill="black" stroke="#5F5B80" stroke-width="0.2"/>
<path d="M460.96 21.6512V20.7004H464V44.4683H460.96V43.5175H463.112V21.6512H460.96Z" fill="black" stroke="#5F5B80" stroke-width="0.2"/>
<defs>
<clipPath id="clip0_1843_2311">
<rect width="21.6439" height="4.13375" fill="white" transform="matrix(1 0 0 -1 234.674 27.4692)"/>
</clipPath>
<clipPath id="clip1_1843_2311">
<rect width="21.6439" height="4.13375" fill="white" transform="matrix(1 0 0 -1 313.433 27.4692)"/>
</clipPath>
<clipPath id="clip2_1843_2311">
<rect width="23.2127" height="4.13375" fill="white" transform="matrix(1 0 0 -1 429.253 27.4668)"/>
</clipPath>
</defs>
</svg>
