<svg width="220" height="28" viewBox="0 0 220 28" fill="none" xmlns="http://www.w3.org/2000/svg">
<path d="M12.373 3.93611L12.373 3.93619L8.81991 17.9821L12.373 3.93611ZM12.373 3.93611C12.3781 3.91585 12.3843 3.89349 12.391 3.86899C12.3924 3.86397 12.3938 3.85886 12.3952 3.85367C12.4035 3.82341 12.4123 3.79061 12.4204 3.75685C12.4364 3.68983 12.4501 3.61633 12.4501 3.5477C12.4501 3.47622 12.432 3.41895 12.4011 3.37424C12.3703 3.32984 12.3293 3.30115 12.2884 3.28267C12.2093 3.24686 12.1249 3.24687 12.0986 3.24687L12.0977 3.24687C12.0921 3.24687 12.0669 3.24873 12.0323 3.25138L11.8842 3.26311C11.7629 3.27291 11.6021 3.28624 11.4383 3.30036C11.2744 3.31447 11.1073 3.32938 10.9731 3.34234C10.845 3.35472 10.7434 3.36562 10.7056 3.37256C10.4998 3.38468 10.3056 3.40253 10.1099 3.42052L10.0867 3.42266C9.88189 3.44148 9.67482 3.46021 9.44904 3.47268L9.44783 3.47277C9.29074 3.48528 9.15964 3.49639 9.05229 3.51319C8.94532 3.52994 8.85715 3.553 8.78789 3.59189C8.71659 3.63192 8.667 3.68778 8.63634 3.76522C8.60652 3.84053 8.59542 3.93416 8.59542 4.04934C8.59542 4.11845 8.6093 4.17654 8.64132 4.2228C8.67361 4.26946 8.72029 4.29826 8.77457 4.31627C8.82807 4.33402 8.89152 4.34216 8.96149 4.34616C9.03143 4.35016 9.11137 4.35016 9.19871 4.35016H9.19981C9.50723 4.35016 9.73775 4.36423 9.91054 4.38885C10.0838 4.41355 10.196 4.44847 10.2689 4.48826C10.34 4.52716 10.3729 4.57027 10.3899 4.61436C10.4078 4.66108 10.4098 4.71348 10.4098 4.77672C10.4098 4.91962 10.3611 5.1145 10.3368 5.18724L10.3366 5.1872L10.3357 5.19089L8.83361 11.1468M12.373 3.93611L8.83361 11.1468M8.83361 11.1468C8.52099 10.4918 7.83348 9.59267 6.57907 9.59267C5.13462 9.59267 3.64132 10.5202 2.51157 11.9061C1.38094 13.2931 0.607227 15.1475 0.607227 17.0168C0.607227 19.5202 2.08435 21.0047 3.83234 21.0047C4.53845 21.0047 5.19066 20.73 5.75325 20.3536C6.28069 20.0006 6.73185 19.5565 7.07829 19.1598C7.22131 19.8549 7.57392 20.3123 7.98702 20.5977C8.41881 20.896 8.91424 21.0047 9.3006 21.0047C10.0819 21.0047 10.7009 20.536 11.1596 19.6227L11.1602 19.6217C11.3637 19.1912 11.5536 18.5921 11.6923 18.0899C11.7618 17.8384 11.8187 17.6104 11.8582 17.4388C11.878 17.353 11.8935 17.2811 11.9041 17.2273C11.9093 17.2005 11.9134 17.1778 11.9163 17.16C11.9189 17.1435 11.9209 17.1279 11.9209 17.1172C11.9209 16.9605 11.794 16.8414 11.6189 16.8414C11.5581 16.8414 11.5055 16.8498 11.4602 16.872C11.414 16.8948 11.3799 16.9298 11.3525 16.9753C11.3257 17.0198 11.3046 17.0754 11.2842 17.1411C11.2666 17.1977 11.2487 17.2645 11.2282 17.3414C11.2248 17.354 11.2214 17.3669 11.2179 17.3801L11.2177 17.3807C11.0286 18.1211 10.8156 18.8809 10.5223 19.4553C10.228 20.0319 9.8627 20.4031 9.3762 20.4031C9.20109 20.4031 9.07076 20.3641 8.97285 20.3013C8.87496 20.2385 8.80582 20.1495 8.75698 20.0434C8.65816 19.8288 8.64502 19.5507 8.64502 19.2993V19.2992C8.64502 19.2004 8.64502 18.6785 8.81989 17.9822L8.83361 11.1468ZM8.42435 12.7806L8.42325 12.78L8.42053 12.7908L7.18601 17.706C7.17795 17.7332 7.17043 17.7589 7.16332 17.7831C7.11446 17.9498 7.08507 18.05 7.03479 18.1553C6.97729 18.2758 6.89189 18.4039 6.71575 18.6419C6.44053 18.9904 6.02817 19.4317 5.53866 19.7855C5.04832 20.1399 4.4853 20.4031 3.90794 20.4031C3.4089 20.4031 3.0211 20.1802 2.75591 19.7766C2.48917 19.3708 2.34518 18.7796 2.34518 18.0452C2.34518 17.362 2.5391 16.32 2.79409 15.3141C3.04884 14.3093 3.36282 13.3473 3.60038 12.8243C4.45427 11.0749 5.6255 10.1943 6.57907 10.1943C7.38523 10.1943 7.86909 10.6911 8.15409 11.2214C8.29659 11.4866 8.38823 11.7585 8.44422 11.9768C8.50054 12.1963 8.51982 12.3578 8.51982 12.4017C8.51982 12.4004 8.51982 12.4005 8.51951 12.4025C8.51919 12.4045 8.51858 12.4084 8.51736 12.415C8.51537 12.4258 8.51242 12.4402 8.50873 12.4575C8.50136 12.4918 8.49122 12.5361 8.48028 12.5812C8.46933 12.6263 8.45767 12.672 8.44725 12.7092C8.43623 12.7486 8.42802 12.7733 8.42435 12.7806Z" fill="black" stroke="#5F5B80" stroke-width="0.1"/>
<path d="M23.3274 2.8377L23.3303 2.82953V2.82513C23.3303 2.82512 23.3303 2.82512 23.3303 2.82511C23.3311 2.82218 23.3324 2.81776 23.3344 2.8117C23.3383 2.79969 23.344 2.78334 23.351 2.76365C23.3603 2.73782 23.3715 2.70723 23.3835 2.67454C23.3898 2.65738 23.3963 2.63963 23.4029 2.62169C23.4218 2.56994 23.4409 2.51681 23.4553 2.47331C23.4626 2.4516 23.4688 2.43173 23.4733 2.41533C23.4771 2.40111 23.4815 2.38341 23.4815 2.36938C23.4815 2.03715 23.2034 1.84282 22.9779 1.84282L22.9771 1.84282C22.9123 1.84282 22.8109 1.84282 22.7002 1.92096C22.5909 1.99819 22.4791 2.14683 22.3766 2.42747L22.3765 2.42779L13.9347 26.0301L13.9318 26.0383V26.0427C13.9318 26.0427 13.9318 26.0427 13.9318 26.0427C13.931 26.0456 13.9296 26.0501 13.9277 26.0561C13.9238 26.0681 13.9181 26.0845 13.9111 26.1042C13.9018 26.13 13.8906 26.1606 13.8786 26.1932C13.8723 26.2104 13.8658 26.2282 13.8592 26.2461C13.8403 26.2979 13.8212 26.351 13.8067 26.3945C13.7995 26.4162 13.7933 26.4361 13.7888 26.4525C13.7849 26.4667 13.7806 26.4844 13.7806 26.4984C13.7806 26.8307 14.0587 27.025 14.2842 27.025C14.3634 27.025 14.471 27.0185 14.5816 26.9368C14.6907 26.8563 14.7959 26.7077 14.8858 26.4395C14.8859 26.4394 14.8859 26.4392 14.886 26.4391L23.3274 2.8377Z" fill="black" stroke="#5F5B80" stroke-width="0.1"/>
<path d="M37.5312 3.93611L37.5312 3.93619L33.9781 17.9821L37.5312 3.93611ZM37.5312 3.93611C37.5363 3.91585 37.5425 3.89349 37.5492 3.86899C37.5506 3.86397 37.552 3.85886 37.5534 3.85367C37.5617 3.82341 37.5705 3.79061 37.5786 3.75685C37.5946 3.68983 37.6083 3.61633 37.6083 3.5477C37.6083 3.47622 37.5902 3.41895 37.5593 3.37424C37.5286 3.32984 37.4875 3.30115 37.4466 3.28267C37.3675 3.24686 37.2831 3.24687 37.2568 3.24687L37.2559 3.24687C37.2503 3.24687 37.2251 3.24873 37.1905 3.25138L37.0424 3.26311C36.9211 3.27291 36.7604 3.28624 36.5965 3.30036C36.4326 3.31447 36.2655 3.32938 36.1313 3.34234C36.0032 3.35472 35.9016 3.36562 35.8638 3.37256C35.658 3.38468 35.4638 3.40253 35.2681 3.42052L35.2449 3.42266C35.0401 3.44148 34.833 3.46021 34.6072 3.47268L34.606 3.47277C34.4489 3.48528 34.3178 3.49639 34.2105 3.51319C34.1035 3.52994 34.0154 3.553 33.9461 3.59189C33.8748 3.63192 33.8252 3.68778 33.7945 3.76522C33.7647 3.84053 33.7536 3.93416 33.7536 4.04934C33.7536 4.11845 33.7675 4.17654 33.7995 4.2228C33.8318 4.26946 33.8785 4.29826 33.9328 4.31627C33.9863 4.33402 34.0497 4.34216 34.1197 4.34616C34.1896 4.35016 34.2696 4.35016 34.3569 4.35016H34.358C34.6654 4.35016 34.896 4.36423 35.0687 4.38885C35.242 4.41355 35.3542 4.44847 35.4271 4.48826C35.4982 4.52716 35.5311 4.57027 35.5481 4.61436C35.566 4.66108 35.568 4.71348 35.568 4.77672C35.568 4.91962 35.5193 5.1145 35.495 5.18724L35.4948 5.1872L35.4939 5.19089L33.9918 11.1468M37.5312 3.93611L33.9918 11.1468M33.9918 11.1468C33.6792 10.4918 32.9917 9.59267 31.7373 9.59267C30.2928 9.59267 28.7995 10.5202 27.6698 11.9061C26.5391 13.2931 25.7654 15.1475 25.7654 17.0168C25.7654 19.5202 27.2426 21.0047 28.9905 21.0047C29.6967 21.0047 30.3489 20.73 30.9115 20.3536C31.4389 20.0006 31.8901 19.5565 32.2365 19.1598C32.3795 19.8549 32.7321 20.3123 33.1452 20.5977C33.577 20.896 34.0724 21.0047 34.4588 21.0047C35.2401 21.0047 35.8591 20.536 36.3179 19.6227L36.3184 19.6217C36.5219 19.1912 36.7118 18.5921 36.8505 18.0899C36.92 17.8384 36.9769 17.6104 37.0164 17.4388C37.0362 17.353 37.0517 17.2811 37.0623 17.2273C37.0675 17.2005 37.0716 17.1778 37.0745 17.16C37.0771 17.1435 37.0791 17.1279 37.0791 17.1172C37.0791 16.9605 36.9522 16.8414 36.7771 16.8414C36.7163 16.8414 36.6637 16.8498 36.6184 16.872C36.5722 16.8948 36.5381 16.9298 36.5107 16.9753C36.4839 17.0198 36.4628 17.0754 36.4424 17.1411C36.4248 17.1977 36.407 17.2645 36.3864 17.3414C36.383 17.354 36.3796 17.3669 36.3761 17.3801L36.3759 17.3807C36.1868 18.1211 35.9738 18.8809 35.6805 19.4553C35.3862 20.0319 35.0209 20.4031 34.5344 20.4031C34.3593 20.4031 34.229 20.3641 34.1311 20.3013C34.0332 20.2385 33.964 20.1495 33.9152 20.0434C33.8164 19.8288 33.8032 19.5507 33.8032 19.2993V19.2992C33.8032 19.2004 33.8032 18.6785 33.9781 17.9822L33.9918 11.1468ZM33.5825 12.7806L33.5815 12.78L33.5787 12.7908L32.3442 17.706C32.3362 17.7332 32.3286 17.7589 32.3215 17.7831C32.2727 17.9498 32.2433 18.05 32.193 18.1553C32.1355 18.2758 32.0501 18.4039 31.8739 18.6419C31.5987 18.9904 31.1864 19.4317 30.6969 19.7855C30.2065 20.1399 29.6435 20.4031 29.0661 20.4031C28.5671 20.4031 28.1793 20.1802 27.9141 19.7766C27.6474 19.3708 27.5034 18.7796 27.5034 18.0452C27.5034 17.362 27.6973 16.32 27.9523 15.3141C28.207 14.3093 28.521 13.3473 28.7586 12.8243C29.6125 11.0749 30.7837 10.1943 31.7373 10.1943C32.5434 10.1943 33.0273 10.6911 33.3123 11.2214C33.4548 11.4866 33.5464 11.7585 33.6024 11.9768C33.6587 12.1963 33.678 12.3578 33.678 12.4017C33.678 12.4004 33.678 12.4005 33.6777 12.4025C33.6774 12.4045 33.6768 12.4084 33.6756 12.415C33.6736 12.4258 33.6706 12.4402 33.6669 12.4575C33.6596 12.4918 33.6494 12.5361 33.6385 12.5812C33.6275 12.6263 33.6159 12.672 33.6055 12.7092C33.5944 12.7486 33.5862 12.7733 33.5825 12.7806Z" fill="black" stroke="#5F5B80" stroke-width="0.1"/>
<path d="M49.4352 10.4495C48.6982 10.6425 48.4146 11.228 48.4146 11.6988C48.4146 12.015 48.5412 12.2305 48.7177 12.3656C48.8922 12.4992 49.1115 12.5515 49.2962 12.5515C50.0838 12.5515 50.6314 11.8727 50.6314 11.1721C50.6314 10.6225 50.3145 10.2257 49.8693 9.96874C49.4251 9.71248 48.849 9.59209 48.3134 9.59209C47.5271 9.59209 46.9167 9.97727 46.4763 10.4188C46.0952 10.8009 45.8388 11.2276 45.7024 11.4917C45.401 10.613 44.8794 10.1377 44.3701 9.88269C43.8403 9.61745 43.3273 9.59209 43.0971 9.59209C41.7889 9.59209 40.7932 10.4282 40.1276 11.3241C39.7943 11.7728 39.542 12.2386 39.373 12.6273C39.2884 12.8217 39.2245 12.9972 39.1816 13.1421C39.1391 13.2858 39.116 13.4032 39.116 13.4797C39.116 13.611 39.2428 13.7554 39.4432 13.7554C39.5591 13.7554 39.6355 13.7111 39.6887 13.6506C39.7293 13.6044 39.7563 13.5478 39.7772 13.5041C39.7818 13.4943 39.7862 13.4852 39.7903 13.477L39.7909 13.4773L39.7934 13.4693C40.6443 10.7044 42.3145 10.1937 43.0216 10.1937C43.5694 10.1937 43.8938 10.4464 44.084 10.771C44.2762 11.099 44.3323 11.5028 44.3323 11.7992C44.3323 12.3211 44.1952 12.8664 43.9164 13.9758C43.9046 14.0227 43.8925 14.0706 43.8802 14.1196L43.8802 14.1197L43.0235 17.5559L49.4352 10.4495ZM49.4352 10.4495C48.9363 10.1944 48.3352 10.1937 48.2882 10.1937C47.7262 10.1937 47.2351 10.4608 46.8359 10.9166C46.4362 11.373 46.1304 12.0172 45.9428 12.7645L45.9427 12.7648L45.0609 16.1753L45.0607 16.176L45.0373 16.272C44.6531 17.8493 44.5583 18.2385 44.5583 18.772C44.5583 19.2792 44.6765 19.687 44.8972 19.9669C45.1167 20.2452 45.4417 20.4025 45.8691 20.4025C46.9736 20.4025 48.4208 19.3966 49.0972 17.2022L49.0981 17.1993L49.0982 17.1993C49.1042 17.1834 49.11 17.1675 49.1157 17.1519C49.1274 17.1202 49.1386 17.0896 49.15 17.0622C49.1671 17.0207 49.1865 16.9813 49.2127 16.9478C49.2395 16.9136 49.2729 16.886 49.317 16.8675C49.3603 16.8493 49.4115 16.8408 49.4726 16.8408C49.6476 16.8408 49.7746 16.9599 49.7746 17.1166C49.7746 17.1931 49.7515 17.3105 49.709 17.4541C49.6661 17.599 49.6022 17.7746 49.5176 17.9689C49.3486 18.3576 49.0963 18.8235 48.763 19.2721C48.0975 20.168 47.1017 21.0042 45.7935 21.0042C44.8711 21.0042 43.6292 20.5206 43.1846 19.1051C42.6489 20.0962 41.7974 21.0042 40.6024 21.0042C40.0544 21.0042 39.4781 20.8838 39.037 20.6274C38.5945 20.3702 38.2845 19.9733 38.2845 19.4241C38.2845 18.5924 38.9635 18.0448 39.5944 18.0448C39.8441 18.0448 40.0708 18.1233 40.2357 18.2707C40.4012 18.4187 40.5012 18.6332 40.5012 18.8974C40.5012 19.198 40.3102 19.9219 39.4787 20.1463C39.9691 20.402 40.5109 20.4025 40.6276 20.4025C41.2752 20.4025 41.7784 20.0691 42.1688 19.5448C42.56 19.0193 42.8352 18.3055 43.0234 17.556L49.4352 10.4495Z" fill="black" stroke="#5F5B80" stroke-width="0.1"/>
<path d="M57.9497 27.025H57.9997V26.975V26.047V25.997H57.9497H55.5554V2.87086H57.9497H57.9997V2.82086V1.89282V1.84282H57.9497H54.573H54.523V1.89282V26.975V27.025H54.573H57.9497Z" fill="black" stroke="#5F5B80" stroke-width="0.1"/>
<path d="M68.4215 17.9089L68.4211 17.9085L68.4169 17.9141C66.8172 20.0289 64.4415 20.4025 63.4925 20.4025C62.6402 20.4025 62.0824 20.035 61.7355 19.5155C61.3868 18.9934 61.2493 18.3144 61.2493 17.6935C61.2493 17.26 61.3555 16.4365 61.5756 15.5072C61.7955 14.5785 62.1281 13.5485 62.5788 12.7009C62.9036 12.1168 63.4033 11.489 64.0178 11.0077C64.6326 10.5262 65.3591 10.1937 66.1384 10.1937C66.3001 10.1937 66.7224 10.2062 67.1655 10.3512C67.5879 10.4893 68.0241 10.7461 68.2753 11.2225C68.0761 11.2229 67.9161 11.2267 67.7681 11.2614C67.5981 11.3012 67.4463 11.3809 67.2654 11.5352C67.1841 11.6026 67.0734 11.7332 66.9829 11.8973C66.8921 12.0619 66.8192 12.2646 66.8192 12.4764C66.8192 12.7406 66.9192 12.9551 67.0847 13.1031C67.2496 13.2505 67.4763 13.329 67.726 13.329C68.3593 13.329 69.0611 12.804 69.0611 11.7741C69.0611 10.5303 67.8656 9.59209 66.1132 9.59209C64.4449 9.59209 62.7819 10.4978 61.5374 11.8468C60.2928 13.196 59.461 14.9947 59.461 16.7905C59.461 17.8916 59.8043 18.9446 60.4748 19.7233C61.1461 20.5028 62.1429 21.0042 63.4421 21.0042C65.1689 21.0042 66.5775 20.3343 67.5538 19.6245C68.0419 19.2695 68.4227 18.9041 68.6819 18.6061C68.8114 18.4572 68.9111 18.3246 68.9787 18.218C69.0125 18.1648 69.0388 18.1173 69.0568 18.077C69.0741 18.0383 69.0863 18.0008 69.0863 17.9694C69.0863 17.8773 69.0404 17.7963 68.9834 17.7396C68.9275 17.6839 68.8526 17.6435 68.7843 17.6435C68.7625 17.6435 68.7404 17.6453 68.7164 17.6538C68.6929 17.6622 68.6708 17.6758 68.6464 17.6948C68.6 17.7312 68.5353 17.7955 68.426 17.9043L68.4215 17.9089Z" fill="black" stroke="#5F5B80" stroke-width="0.1"/>
<path d="M75.0197 10.6697H76.5718C76.433 11.3853 76.2431 12.3949 76.0297 13.529C75.5366 16.1505 74.9183 19.437 74.5172 21.2942L74.517 21.2951C74.3025 22.3878 74.1018 23.3855 73.7986 24.1103C73.4951 24.836 73.098 25.2679 72.4997 25.2679H72.4997C72.4632 25.2679 72.2663 25.2679 72.0232 25.2097C71.807 25.1579 71.5576 25.061 71.3521 24.8801C71.9408 24.8046 72.249 24.5114 72.4081 24.2227C72.5748 23.9202 72.5749 23.6279 72.5749 23.6123C72.5749 23.3481 72.475 23.1336 72.3094 22.9856C72.1445 22.8382 71.9178 22.7597 71.6682 22.7597C71.1419 22.7597 70.3582 23.2034 70.3582 24.1892C70.3582 24.7482 70.6464 25.17 71.0573 25.4501C71.4669 25.7294 72 25.8695 72.4997 25.8695C73.1587 25.8695 73.7186 25.5749 74.1902 25.1187C74.6612 24.663 75.0462 24.0441 75.3578 23.3892C75.9809 22.0796 76.3157 20.6139 76.4544 19.9865C76.901 18.0849 78.103 11.5982 78.2622 10.6697H80.3619H80.3637C80.4883 10.6697 80.5971 10.6697 80.6889 10.6621C80.781 10.6545 80.8614 10.6389 80.927 10.6044C81.0665 10.5311 81.1175 10.3856 81.1175 10.1432C81.1175 10.0741 81.1037 10.0153 81.0692 9.96852C81.0346 9.92152 80.984 9.89328 80.9241 9.87572C80.8647 9.85835 80.7922 9.8503 80.7084 9.84633C80.6246 9.84236 80.5259 9.84236 80.4134 9.84236H80.4123H78.4313C78.9046 7.2904 79.2533 5.53228 79.4529 4.73761C79.6005 4.1498 80.1151 3.59657 80.7399 3.59657C81.2007 3.59657 81.6609 3.77219 81.9273 3.96373C81.4884 4.03423 81.1907 4.23369 81.0002 4.47156C80.7941 4.72881 80.7151 5.02851 80.7151 5.25215C80.7151 5.51641 80.8151 5.73091 80.9807 5.87886C81.1456 6.02626 81.3722 6.10478 81.6219 6.10478C82.1482 6.10478 82.9319 5.66103 82.9319 4.67526C82.9319 4.12931 82.6567 3.70736 82.2423 3.42379C81.8292 3.14105 81.277 2.99492 80.7147 2.99492C79.6079 2.99492 78.5346 3.81247 78.0244 4.80283C77.5687 5.6848 77.3159 6.59139 76.7417 9.84236H75.0953H75.0938C74.9753 9.84236 74.8681 9.84236 74.7752 9.84956C74.6822 9.85678 74.5989 9.87148 74.5295 9.90336C74.4584 9.93601 74.403 9.9862 74.3665 10.0608C74.3307 10.1338 74.3145 10.227 74.3145 10.3438C74.3145 10.4163 74.3242 10.4782 74.3525 10.528C74.382 10.5799 74.4279 10.6124 74.4869 10.6326C74.5442 10.6522 74.6161 10.661 74.7022 10.6654C74.7885 10.6697 74.8935 10.6697 75.0185 10.6697H75.0197Z" fill="black" stroke="#5F5B80" stroke-width="0.1"/>
<path d="M88.0635 22.3818L88.0636 22.382C88.8095 23.8919 89.7007 25.0559 90.4408 25.8429C90.8108 26.2364 91.1434 26.536 91.4016 26.7377C91.5307 26.8385 91.6418 26.9153 91.7303 26.9673C91.7744 26.9932 91.8138 27.0134 91.8473 27.0273C91.8797 27.0406 91.9114 27.0501 91.9388 27.0501C91.9963 27.0501 92.064 27.036 92.1189 26.9969C92.1762 26.9563 92.2156 26.891 92.2156 26.7994V26.7982C92.2156 26.7795 92.2156 26.756 92.2067 26.7268C92.1978 26.6978 92.1812 26.6662 92.1528 26.6262C92.0964 26.5471 91.9864 26.4252 91.7725 26.2122C89.2651 23.6914 87.8561 19.5677 87.8561 14.459C87.8561 9.601 89.0384 5.42768 91.9481 2.48085C92.0735 2.3684 92.141 2.29568 92.1764 2.23921C92.1948 2.20988 92.2052 2.18402 92.2106 2.15859C92.2156 2.13466 92.2156 2.11297 92.2156 2.09503V2.09348C92.2156 2.00195 92.1762 1.93664 92.1189 1.89597C92.064 1.85694 91.9963 1.84282 91.9388 1.84282C91.9085 1.84282 91.874 1.85283 91.8385 1.8675C91.802 1.88259 91.7601 1.9045 91.7137 1.93235C91.6208 1.9881 91.5065 2.06973 91.3759 2.17439C91.1147 2.38387 90.7854 2.68811 90.4281 3.06883C89.7138 3.83018 88.8854 4.90003 88.2654 6.13426C86.9763 8.67548 86.3953 11.3672 86.3953 14.459C86.3953 16.6956 86.7486 19.6887 88.0635 22.3818Z" fill="black" stroke="#5F5B80" stroke-width="0.1"/>
<path d="M105.377 10.4495C104.64 10.6425 104.357 11.228 104.357 11.6988C104.357 12.015 104.483 12.2305 104.66 12.3656C104.834 12.4992 105.054 12.5515 105.238 12.5515C106.026 12.5515 106.573 11.8727 106.573 11.1721C106.573 10.6225 106.257 10.2257 105.811 9.96874C105.367 9.71248 104.791 9.59209 104.256 9.59209C103.469 9.59209 102.859 9.97727 102.418 10.4188C102.037 10.8009 101.781 11.2276 101.645 11.4917C101.343 10.613 100.822 10.1377 100.312 9.88269C99.7824 9.61745 99.2695 9.59209 99.0393 9.59209C97.7311 9.59209 96.7353 10.4282 96.0697 11.3241C95.7364 11.7728 95.4842 12.2386 95.3151 12.6273C95.2306 12.8217 95.1666 12.9972 95.1237 13.1421C95.0812 13.2858 95.0582 13.4032 95.0582 13.4797C95.0582 13.611 95.1849 13.7554 95.3854 13.7554C95.5012 13.7554 95.5777 13.7111 95.6308 13.6506C95.6714 13.6044 95.6985 13.5478 95.7193 13.5041C95.724 13.4943 95.7283 13.4852 95.7325 13.477L95.7331 13.4773L95.7356 13.4693C96.5864 10.7044 98.2567 10.1937 98.9637 10.1937C99.5115 10.1937 99.836 10.4464 100.026 10.771C100.218 11.099 100.274 11.5028 100.274 11.7992C100.274 12.3211 100.137 12.8664 99.8585 13.9758C99.8467 14.0227 99.8347 14.0706 99.8224 14.1196L99.8224 14.1197L98.9656 17.5559L105.377 10.4495ZM105.377 10.4495C104.878 10.1944 104.277 10.1937 104.23 10.1937C103.668 10.1937 103.177 10.4608 102.778 10.9166C102.378 11.373 102.073 12.0172 101.885 12.7645L101.885 12.7648L101.003 16.1753L101.003 16.176L100.979 16.272C100.595 17.8493 100.5 18.2385 100.5 18.772C100.5 19.2792 100.619 19.687 100.839 19.9669C101.059 20.2452 101.384 20.4025 101.811 20.4025C102.916 20.4025 104.363 19.3966 105.039 17.2022L105.04 17.1993L105.04 17.1993C105.046 17.1834 105.052 17.1675 105.058 17.1519C105.07 17.1202 105.081 17.0896 105.092 17.0622C105.109 17.0207 105.129 16.9813 105.155 16.9478C105.182 16.9136 105.215 16.886 105.259 16.8675C105.302 16.8493 105.354 16.8408 105.415 16.8408C105.59 16.8408 105.717 16.9599 105.717 17.1166C105.717 17.1931 105.694 17.3105 105.651 17.4541C105.608 17.599 105.544 17.7746 105.46 17.9689C105.291 18.3576 105.038 18.8235 104.705 19.2721C104.04 20.168 103.044 21.0042 101.736 21.0042C100.813 21.0042 99.5714 20.5206 99.1268 19.1051C98.591 20.0962 97.7396 21.0042 96.5446 21.0042C95.9965 21.0042 95.4202 20.8838 94.9791 20.6274C94.5367 20.3702 94.2266 19.9733 94.2266 19.4241C94.2266 18.5924 94.9057 18.0448 95.5366 18.0448C95.7863 18.0448 96.0129 18.1233 96.1778 18.2707C96.3434 18.4187 96.4434 18.6332 96.4434 18.8974C96.4434 19.198 96.2523 19.9219 95.4208 20.1463C95.9112 20.402 96.453 20.4025 96.5698 20.4025C97.2174 20.4025 97.7205 20.0691 98.1109 19.5448C98.5022 19.0193 98.7773 18.3055 98.9656 17.556L105.377 10.4495Z" fill="black" stroke="#5F5B80" stroke-width="0.1"/>
<path d="M113.081 6.51121L113.08 6.51088C112.335 5.00103 111.443 3.83696 110.703 3.04997C110.333 2.65651 110.001 2.35687 109.742 2.15519C109.613 2.05441 109.502 1.97757 109.414 1.92564C109.37 1.8997 109.33 1.8795 109.297 1.86565C109.264 1.85231 109.233 1.84282 109.205 1.84282C109.148 1.84282 109.08 1.85694 109.025 1.89597C108.968 1.93664 108.929 2.00195 108.929 2.09348C108.929 2.09388 108.929 2.09428 108.929 2.09468C108.929 2.11345 108.929 2.13696 108.937 2.16607C108.946 2.19508 108.963 2.22668 108.991 2.26669C109.048 2.34583 109.158 2.46769 109.372 2.68064C111.879 5.2014 113.288 9.32514 113.288 14.4339C113.288 19.2919 112.106 23.4652 109.196 26.4121C109.071 26.5245 109.003 26.5972 108.968 26.6537C108.949 26.683 108.939 26.7089 108.934 26.7343C108.929 26.7582 108.929 26.7799 108.929 26.7979L108.929 26.7994C108.929 26.891 108.968 26.9563 109.025 26.9969C109.08 27.036 109.148 27.0501 109.205 27.0501C109.236 27.0501 109.27 27.0401 109.306 27.0254C109.342 27.0103 109.384 26.9884 109.43 26.9606C109.523 26.9048 109.638 26.8232 109.768 26.7185C110.029 26.509 110.359 26.2048 110.716 25.8241C111.43 25.0627 112.259 23.9928 112.879 22.7586C114.168 20.1924 114.749 17.4757 114.749 14.459C114.749 12.5493 114.496 9.43047 113.081 6.51121Z" fill="black" stroke="#5F5B80" stroke-width="0.1"/>
<path d="M121.144 1.89282V1.84282H121.094H117.717H117.667V1.89282V2.82086V2.87086H117.717H120.112V25.997H117.717H117.667V26.047V26.975V27.025H117.717H121.094H121.144V26.975V1.89282Z" fill="black" stroke="#5F5B80" stroke-width="0.1"/>
<path d="M148.052 12.6265L148.057 12.6265C148.23 12.6265 148.438 12.6265 148.604 12.5671C148.689 12.5367 148.766 12.4896 148.821 12.4162C148.877 12.3424 148.908 12.2466 148.908 12.125C148.908 11.9983 148.879 11.8984 148.826 11.8212C148.773 11.7439 148.699 11.6938 148.615 11.6614C148.451 11.5984 148.242 11.5984 148.058 11.5984L148.052 11.5984H133.209L133.204 11.5984C133.031 11.5984 132.823 11.5984 132.657 11.6578C132.572 11.6883 132.495 11.7354 132.439 11.8087C132.384 11.8825 132.353 11.9783 132.353 12.0999C132.353 12.2266 132.381 12.3265 132.434 12.4038C132.488 12.481 132.562 12.5311 132.646 12.5636C132.809 12.6265 133.019 12.6265 133.203 12.6265L133.209 12.6265H148.052ZM148.052 17.2918H148.057C148.23 17.2918 148.438 17.2918 148.604 17.2324C148.689 17.2019 148.766 17.1548 148.821 17.0815C148.877 17.0077 148.908 16.9119 148.908 16.7903C148.908 16.6636 148.879 16.5637 148.826 16.4865C148.773 16.4092 148.699 16.3591 148.615 16.3266C148.451 16.2637 148.242 16.2637 148.058 16.2637H148.052H133.209H133.204C133.031 16.2637 132.823 16.2637 132.657 16.3231C132.572 16.3535 132.495 16.4006 132.439 16.474C132.384 16.5478 132.353 16.6436 132.353 16.7652C132.353 16.8919 132.381 16.9918 132.434 17.069C132.488 17.1463 132.562 17.1964 132.646 17.2288C132.809 17.2918 133.019 17.2918 133.203 17.2918H133.209H148.052Z" fill="black" stroke="#5F5B80" stroke-width="0.1"/>
<path d="M167.151 17.9089L167.151 17.9085L167.147 17.9141C165.547 20.0289 163.171 20.4025 162.222 20.4025C161.37 20.4025 160.812 20.035 160.465 19.5155C160.117 18.9934 159.979 18.3144 159.979 17.6935C159.979 17.26 160.085 16.4365 160.305 15.5072C160.525 14.5785 160.858 13.5485 161.309 12.7009C161.633 12.1168 162.133 11.489 162.748 11.0077C163.362 10.5262 164.089 10.1937 164.868 10.1937C165.03 10.1937 165.452 10.2062 165.895 10.3512C166.318 10.4893 166.754 10.7461 167.005 11.2225C166.806 11.2229 166.646 11.2267 166.498 11.2614C166.328 11.3012 166.176 11.3809 165.995 11.5352C165.914 11.6026 165.803 11.7332 165.713 11.8973C165.622 12.0619 165.549 12.2646 165.549 12.4764C165.549 12.7406 165.649 12.9551 165.814 13.1031C165.979 13.2505 166.206 13.329 166.456 13.329C167.089 13.329 167.791 12.804 167.791 11.7741C167.791 10.5303 166.595 9.59209 164.843 9.59209C163.175 9.59209 161.512 10.4978 160.267 11.8468C159.022 13.196 158.191 14.9947 158.191 16.7905C158.191 17.8916 158.534 18.9446 159.205 19.7233C159.876 20.5028 160.873 21.0042 162.172 21.0042C163.899 21.0042 165.307 20.3343 166.284 19.6245C166.772 19.2695 167.152 18.9041 167.412 18.6061C167.541 18.4572 167.641 18.3246 167.708 18.218C167.742 18.1648 167.769 18.1173 167.787 18.077C167.804 18.0383 167.816 18.0008 167.816 17.9694C167.816 17.8773 167.77 17.7963 167.713 17.7396C167.657 17.6839 167.582 17.6435 167.514 17.6435C167.492 17.6435 167.47 17.6453 167.446 17.6538C167.423 17.6622 167.401 17.6758 167.376 17.6948C167.33 17.7312 167.265 17.7955 167.156 17.9043L167.151 17.9089Z" fill="black" stroke="#5F5B80" stroke-width="0.1"/>
<path d="M173.748 10.6697H175.301C175.162 11.3853 174.972 12.3949 174.758 13.529C174.265 16.1505 173.647 19.437 173.246 21.2942L173.246 21.2951C173.031 22.3878 172.831 23.3855 172.527 24.1103C172.224 24.836 171.827 25.2679 171.229 25.2679H171.228C171.192 25.2679 170.995 25.2679 170.752 25.2097C170.536 25.1579 170.286 25.061 170.081 24.8801C170.67 24.8046 170.978 24.5114 171.137 24.2227C171.304 23.9202 171.304 23.6279 171.304 23.6123C171.304 23.3481 171.204 23.1336 171.038 22.9856C170.873 22.8382 170.647 22.7597 170.397 22.7597C169.871 22.7597 169.087 23.2034 169.087 24.1892C169.087 24.7482 169.375 25.17 169.786 25.4501C170.196 25.7294 170.729 25.8695 171.229 25.8695C171.887 25.8695 172.447 25.5749 172.919 25.1187C173.39 24.663 173.775 24.0441 174.087 23.3892C174.71 22.0796 175.044 20.6139 175.183 19.9865C175.63 18.0849 176.832 11.5982 176.991 10.6697H179.091H179.092C179.217 10.6697 179.326 10.6697 179.418 10.6621C179.51 10.6545 179.59 10.6389 179.656 10.6044C179.795 10.5311 179.846 10.3856 179.846 10.1432C179.846 10.0741 179.832 10.0153 179.798 9.96852C179.763 9.92152 179.713 9.89328 179.653 9.87572C179.593 9.85835 179.521 9.8503 179.437 9.84633C179.353 9.84236 179.255 9.84236 179.142 9.84236H179.141H177.16C177.633 7.2904 177.982 5.53228 178.182 4.73761C178.329 4.1498 178.844 3.59657 179.469 3.59657C179.929 3.59657 180.39 3.77219 180.656 3.96373C180.217 4.03423 179.919 4.23369 179.729 4.47156C179.523 4.72881 179.444 5.02851 179.444 5.25215C179.444 5.51641 179.544 5.73091 179.709 5.87886C179.874 6.02626 180.101 6.10478 180.351 6.10478C180.877 6.10478 181.661 5.66103 181.661 4.67526C181.661 4.12931 181.385 3.70736 180.971 3.42379C180.558 3.14105 180.006 2.99492 179.443 2.99492C178.337 2.99492 177.263 3.81247 176.753 4.80283C176.297 5.6848 176.045 6.59139 175.47 9.84236H173.824H173.823C173.704 9.84236 173.597 9.84236 173.504 9.84956C173.411 9.85678 173.328 9.87148 173.258 9.90336C173.187 9.93601 173.132 9.9862 173.095 10.0608C173.059 10.1338 173.043 10.227 173.043 10.3438C173.043 10.4163 173.053 10.4782 173.081 10.528C173.111 10.5799 173.157 10.6124 173.216 10.6326C173.273 10.6522 173.345 10.661 173.431 10.6654C173.517 10.6697 173.622 10.6697 173.747 10.6697H173.748Z" fill="black" stroke="#5F5B80" stroke-width="0.1"/>
<path d="M187.202 2.44135L187.202 2.44137L187.203 2.43935C187.22 2.39462 187.237 2.35265 187.253 2.31319C187.275 2.26062 187.295 2.21253 187.31 2.16833C187.339 2.08763 187.357 2.01073 187.357 1.91968C187.357 1.33399 186.824 0.95 186.333 0.95C185.979 0.95 185.752 1.10494 185.605 1.29091C185.46 1.47462 185.395 1.68759 185.361 1.80534C185.361 1.80541 185.361 1.80549 185.361 1.80556L183.228 9.01127C183.16 9.21292 183.158 9.26905 183.158 9.29384C183.158 9.33703 183.165 9.37514 183.181 9.40854C183.198 9.44225 183.221 9.46823 183.25 9.48902C183.304 9.52799 183.379 9.55097 183.459 9.57495C183.757 9.70639 183.8 9.71171 183.846 9.71171C183.875 9.71171 183.927 9.71144 183.986 9.66581C184.042 9.62263 184.101 9.54243 184.161 9.39701C184.161 9.39686 184.161 9.39671 184.161 9.39656L187.202 2.44135Z" fill="black" stroke="#5F5B80" stroke-width="0.1"/>
<path d="M192.684 22.3818L192.684 22.382C193.43 23.8919 194.321 25.0559 195.061 25.8429C195.431 26.2364 195.764 26.536 196.022 26.7377C196.151 26.8385 196.262 26.9153 196.35 26.9673C196.395 26.9932 196.434 27.0134 196.467 27.0273C196.5 27.0406 196.531 27.0501 196.559 27.0501C196.616 27.0501 196.684 27.036 196.739 26.9969C196.796 26.9563 196.836 26.891 196.836 26.7994V26.7982C196.836 26.7795 196.836 26.756 196.827 26.7268C196.818 26.6978 196.801 26.6662 196.773 26.6262C196.717 26.5471 196.607 26.4252 196.393 26.2122C193.885 23.6914 192.476 19.5677 192.476 14.459C192.476 9.601 193.658 5.42768 196.568 2.48085C196.694 2.3684 196.761 2.29568 196.797 2.23921C196.815 2.20988 196.825 2.18402 196.831 2.15859C196.836 2.13466 196.836 2.11297 196.836 2.09503V2.09348C196.836 2.00195 196.796 1.93664 196.739 1.89597C196.684 1.85694 196.616 1.84282 196.559 1.84282C196.529 1.84282 196.494 1.85283 196.459 1.8675C196.422 1.88259 196.38 1.9045 196.334 1.93235C196.241 1.9881 196.127 2.06973 195.996 2.17439C195.735 2.38387 195.405 2.68811 195.048 3.06883C194.334 3.83018 193.506 4.90003 192.886 6.13426C191.596 8.67548 191.015 11.3672 191.015 14.459C191.015 16.6956 191.369 19.6887 192.684 22.3818Z" fill="black" stroke="#5F5B80" stroke-width="0.1"/>
<path d="M209.997 10.4495C209.26 10.6425 208.976 11.228 208.976 11.6988C208.976 12.015 209.103 12.2305 209.279 12.3656C209.454 12.4992 209.673 12.5515 209.858 12.5515C210.646 12.5515 211.193 11.8727 211.193 11.1721C211.193 10.6225 210.876 10.2257 210.431 9.96874C209.987 9.71248 209.411 9.59209 208.875 9.59209C208.089 9.59209 207.478 9.97727 207.038 10.4188C206.657 10.8009 206.401 11.2276 206.264 11.4917C205.963 10.613 205.441 10.1377 204.932 9.88269C204.402 9.61745 203.889 9.59209 203.659 9.59209C202.351 9.59209 201.355 10.4282 200.689 11.3241C200.356 11.7728 200.104 12.2386 199.935 12.6273C199.85 12.8217 199.786 12.9972 199.743 13.1421C199.701 13.2858 199.678 13.4032 199.678 13.4797C199.678 13.611 199.805 13.7554 200.005 13.7554C200.121 13.7554 200.197 13.7111 200.25 13.6506C200.291 13.6044 200.318 13.5478 200.339 13.5041C200.344 13.4943 200.348 13.4852 200.352 13.477L200.353 13.4773L200.355 13.4693C201.206 10.7044 202.876 10.1937 203.583 10.1937C204.131 10.1937 204.456 10.4464 204.646 10.771C204.838 11.099 204.894 11.5028 204.894 11.7992C204.894 12.3211 204.757 12.8664 204.478 13.9758C204.466 14.0227 204.454 14.0706 204.442 14.1196L204.442 14.1197L203.585 17.5559L209.997 10.4495ZM209.997 10.4495C209.498 10.1944 208.897 10.1937 208.85 10.1937C208.288 10.1937 207.797 10.4608 207.398 10.9166C206.998 11.373 206.692 12.0172 206.505 12.7645L206.504 12.7648L205.623 16.1753L205.622 16.176L205.599 16.272C205.215 17.8493 205.12 18.2385 205.12 18.772C205.12 19.2792 205.238 19.687 205.459 19.9669C205.678 20.2452 206.003 20.4025 206.431 20.4025C207.535 20.4025 208.983 19.3966 209.659 17.2022L209.66 17.1993L209.66 17.1993C209.666 17.1834 209.672 17.1675 209.678 17.1519C209.689 17.1202 209.7 17.0896 209.712 17.0622C209.729 17.0207 209.748 16.9813 209.774 16.9478C209.801 16.9136 209.835 16.886 209.879 16.8675C209.922 16.8493 209.973 16.8408 210.034 16.8408C210.209 16.8408 210.336 16.9599 210.336 17.1166C210.336 17.1931 210.313 17.3105 210.271 17.4541C210.228 17.599 210.164 17.7746 210.079 17.9689C209.91 18.3576 209.658 18.8235 209.325 19.2721C208.659 20.168 207.663 21.0042 206.355 21.0042C205.433 21.0042 204.191 20.5206 203.746 19.1051C203.211 20.0962 202.359 21.0042 201.164 21.0042C200.616 21.0042 200.04 20.8838 199.599 20.6274C199.156 20.3702 198.846 19.9733 198.846 19.4241C198.846 18.5924 199.525 18.0448 200.156 18.0448C200.406 18.0448 200.633 18.1233 200.797 18.2707C200.963 18.4187 201.063 18.6332 201.063 18.8974C201.063 19.198 200.872 19.9219 200.04 20.1463C200.531 20.402 201.073 20.4025 201.189 20.4025C201.837 20.4025 202.34 20.0691 202.731 19.5448C203.122 19.0193 203.397 18.3055 203.585 17.556L209.997 10.4495Z" fill="black" stroke="#5F5B80" stroke-width="0.1"/>
<path d="M217.701 6.51121L217.701 6.51088C216.955 5.00103 216.064 3.83696 215.324 3.04997C214.954 2.65651 214.621 2.35687 214.363 2.15519C214.234 2.05441 214.123 1.97757 214.034 1.92564C213.99 1.8997 213.951 1.8795 213.917 1.86565C213.885 1.85231 213.853 1.84282 213.826 1.84282C213.768 1.84282 213.701 1.85694 213.646 1.89597C213.589 1.93664 213.549 2.00195 213.549 2.09348C213.549 2.09388 213.549 2.09428 213.549 2.09468C213.549 2.11345 213.549 2.13696 213.558 2.16607C213.567 2.19508 213.583 2.22668 213.612 2.26669C213.668 2.34583 213.778 2.46769 213.992 2.68064C216.5 5.2014 217.909 9.32514 217.909 14.4339C217.909 19.2919 216.726 23.4652 213.817 26.4121C213.691 26.5245 213.624 26.5972 213.588 26.6537C213.57 26.683 213.559 26.7089 213.554 26.7343C213.549 26.7582 213.549 26.7799 213.549 26.7979L213.549 26.7994C213.549 26.891 213.589 26.9563 213.646 26.9969C213.701 27.036 213.768 27.0501 213.826 27.0501C213.856 27.0501 213.891 27.0401 213.926 27.0254C213.963 27.0103 214.005 26.9884 214.051 26.9606C214.144 26.9048 214.258 26.8232 214.389 26.7185C214.65 26.509 214.979 26.2048 215.337 25.8241C216.051 25.0627 216.879 23.9928 217.499 22.7586C218.788 20.1924 219.369 17.4757 219.369 14.459C219.369 12.5493 219.117 9.43047 217.701 6.51121Z" fill="black" stroke="#5F5B80" stroke-width="0.1"/>
</svg>
