<svg width="164" height="28" viewBox="0 0 164 28" fill="none" xmlns="http://www.w3.org/2000/svg">
<path d="M11.0657 3.12479L11.0658 3.12465C11.0696 3.10663 11.0745 3.08554 11.0799 3.06221C11.1024 2.9655 11.1339 2.83015 11.1339 2.71433C11.1339 2.63507 11.117 2.56828 11.0852 2.5138C11.0533 2.45909 11.0098 2.42261 10.9658 2.39896C10.883 2.3545 10.7963 2.35457 10.7715 2.35459L10.7701 2.35459C10.7637 2.35459 10.7534 2.35547 10.747 2.356L10.7457 2.35611L10.7072 2.35952C10.6752 2.36243 10.6307 2.3666 10.5778 2.37169C10.4718 2.38185 10.3314 2.39567 10.1883 2.4103C10.0452 2.42493 9.89906 2.4404 9.78166 2.45386C9.67688 2.46588 9.58729 2.47708 9.54682 2.4852C9.36757 2.49783 9.19835 2.51629 9.02925 2.53474L9.00857 2.537C8.82987 2.55649 8.65044 2.57574 8.45496 2.58857L8.45496 2.58853L8.4521 2.5888C8.31564 2.6017 8.19835 2.61342 8.10143 2.63144C8.00491 2.64937 7.91846 2.67517 7.84816 2.72203C7.69529 2.8239 7.65796 2.99616 7.65796 3.23381C7.65796 3.30896 7.67051 3.37716 7.70386 3.43435C7.73852 3.49379 7.78972 3.53129 7.84774 3.55413C7.90317 3.57596 7.96605 3.58496 8.02944 3.58926C8.09262 3.59355 8.16416 3.59355 8.23922 3.59355H8.24165C8.50796 3.59355 8.70524 3.60804 8.85124 3.63274C8.998 3.65756 9.08681 3.69173 9.14089 3.7268C9.19169 3.75975 9.21372 3.79457 9.22554 3.83113C9.23897 3.87265 9.24096 3.92103 9.24096 3.98706C9.24096 4.1301 9.19948 4.32804 9.17876 4.40146L9.17855 4.4014L9.17719 4.40783L7.90366 10.4012C7.77623 10.1229 7.59708 9.82014 7.35557 9.56165C7.01994 9.20241 6.56078 8.92602 5.95509 8.92602C4.66387 8.92602 3.34596 9.90696 2.35761 11.346C1.36603 12.7898 0.68833 14.7184 0.68833 16.6624C0.68833 19.2569 1.98091 20.8403 3.55859 20.8403C4.19446 20.8403 4.77661 20.5469 5.2725 20.153C5.69824 19.8149 6.0666 19.3978 6.35882 19.0131C6.49766 19.6719 6.79486 20.1183 7.1449 20.4053C7.53287 20.7234 7.97915 20.8403 8.3296 20.8403C9.04929 20.8403 9.60289 20.326 10.0047 19.3767L10.0047 19.3767L10.0055 19.3747C10.1843 18.9258 10.3506 18.3029 10.4717 17.7825C10.5324 17.5215 10.5822 17.2849 10.6168 17.1068C10.6341 17.0177 10.6476 16.9429 10.6569 16.8867C10.6655 16.8351 10.6722 16.7894 10.6722 16.7663C10.6722 16.5901 10.548 16.4325 10.3523 16.4325C10.2925 16.4325 10.2346 16.4422 10.1827 16.4725C10.13 16.5033 10.0944 16.5489 10.068 16.6009C10.0424 16.6513 10.0231 16.7126 10.0051 16.7811C9.98963 16.8405 9.97388 16.9104 9.95599 16.99C9.95304 17.003 9.95004 17.0164 9.94697 17.03L9.94676 17.031C9.78165 17.7982 9.59648 18.5812 9.34254 19.1716C9.21558 19.4668 9.07429 19.7068 8.91515 19.8718C8.75757 20.0351 8.58692 20.1208 8.39556 20.1208C8.25484 20.1208 8.15465 20.084 8.08066 20.0276C8.0056 19.9705 7.94969 19.8872 7.9089 19.7821C7.82582 19.5679 7.81398 19.287 7.81398 19.026V19.0258C7.81398 18.9245 7.81398 18.3871 7.96572 17.6701L11.0657 3.12479ZM7.51196 12.2598L7.50821 12.2686L7.50622 12.278L6.42926 17.3672C6.42228 17.3953 6.41577 17.4216 6.40963 17.4464C6.36684 17.6196 6.34196 17.7202 6.29928 17.8264C6.25077 17.947 6.17829 18.0766 6.02492 18.3225C5.78631 18.6811 5.42968 19.1337 5.00778 19.4956C4.58352 19.8595 4.10609 20.1208 3.62455 20.1208C3.2172 20.1208 2.8956 19.9069 2.67044 19.5003C2.44279 19.0892 2.31743 18.4849 2.31743 17.7273C2.31743 17.0242 2.48586 15.9484 2.70823 14.9073C2.93027 13.8677 3.2036 12.8742 3.4097 12.3356C3.77982 11.4357 4.21842 10.76 4.66556 10.3109C5.11409 9.8603 5.5628 9.6455 5.95509 9.6455C6.62062 9.6455 7.02918 10.1312 7.2766 10.6777C7.39931 10.9487 7.47848 11.2272 7.52692 11.4514C7.57452 11.6716 7.59111 11.8329 7.59196 11.8796C7.59178 11.8809 7.59134 11.8844 7.59032 11.8909C7.58865 11.9016 7.58614 11.9163 7.58294 11.934C7.57657 11.9692 7.56779 12.0147 7.55829 12.0612C7.54879 12.1077 7.5387 12.1546 7.52973 12.1926C7.52524 12.2117 7.52117 12.228 7.5177 12.2406C7.51382 12.2548 7.51186 12.26 7.51196 12.2598Z" fill="black" stroke="#5F5B80" stroke-width="0.2"/>
<path d="M20.6228 1.98989L20.6271 1.97578V1.97029L20.6292 1.96191C20.6324 1.95002 20.6373 1.93353 20.6434 1.91322C20.6514 1.88661 20.6612 1.85519 20.6716 1.82145C20.6771 1.80364 20.6828 1.78518 20.6886 1.76643C20.7051 1.71283 20.7219 1.65735 20.7347 1.61175C20.741 1.58901 20.7466 1.56774 20.7508 1.54987C20.754 1.53566 20.759 1.5131 20.759 1.49351C20.759 1.1355 20.5028 0.9 20.2632 0.9H20.2627C20.2022 0.899999 20.0949 0.899998 19.9819 0.994798C19.8749 1.08448 19.7741 1.24914 19.6839 1.54201L19.6838 1.54258L12.3184 25.9841L12.3141 25.9982V26.0037L12.312 26.0121C12.3088 26.024 12.3039 26.0405 12.2978 26.0608C12.2898 26.0874 12.2801 26.1188 12.2696 26.1525C12.2641 26.1704 12.2584 26.1888 12.2526 26.2076C12.2361 26.2612 12.2193 26.3167 12.2065 26.3623C12.2002 26.385 12.1946 26.4063 12.1904 26.4242C12.1872 26.4384 12.1822 26.4609 12.1822 26.4805C12.1822 26.8385 12.4383 27.074 12.678 27.074C12.754 27.074 12.8656 27.0661 12.9775 26.9681C13.0838 26.8749 13.1786 26.7105 13.2577 26.4306C13.2578 26.4303 13.2578 26.43 13.2579 26.4297L20.6228 1.98989ZM20.6257 1.97607C20.6257 1.97601 20.6258 1.97554 20.626 1.97459L20.6257 1.97607Z" fill="black" stroke="#5F5B80" stroke-width="0.2"/>
<path d="M33.0162 3.12479L33.0162 3.12465C33.02 3.10663 33.0249 3.08554 33.0304 3.06221C33.0529 2.9655 33.0843 2.83015 33.0843 2.71433C33.0843 2.63507 33.0675 2.56828 33.0357 2.5138C33.0038 2.45909 32.9603 2.42261 32.9162 2.39896C32.8334 2.3545 32.7467 2.35457 32.7219 2.35459L32.7205 2.35459C32.7142 2.35459 32.7038 2.35547 32.6974 2.356L32.6961 2.35611L32.6577 2.35952C32.6257 2.36243 32.5812 2.3666 32.5282 2.37169C32.4222 2.38185 32.2818 2.39567 32.1387 2.4103C31.9956 2.42493 31.8495 2.4404 31.7321 2.45386C31.6273 2.46588 31.5377 2.47708 31.4973 2.4852C31.318 2.49783 31.1488 2.51629 30.9797 2.53474L30.959 2.537C30.7803 2.55649 30.6009 2.57574 30.4054 2.58857L30.4054 2.58853L30.4025 2.5888C30.2661 2.6017 30.1488 2.61342 30.0519 2.63144C29.9554 2.64937 29.8689 2.67517 29.7986 2.72203C29.6457 2.8239 29.6084 2.99616 29.6084 3.23381C29.6084 3.30896 29.621 3.37716 29.6543 3.43435C29.689 3.49379 29.7402 3.53129 29.7982 3.55413C29.8536 3.57596 29.9165 3.58496 29.9799 3.58926C30.0431 3.59355 30.1146 3.59355 30.1897 3.59355H30.1921C30.4584 3.59355 30.6557 3.60804 30.8017 3.63274C30.9484 3.65756 31.0372 3.69173 31.0913 3.7268C31.1421 3.75975 31.1642 3.79457 31.176 3.83113C31.1894 3.87265 31.1914 3.92103 31.1914 3.98706C31.1914 4.1301 31.1499 4.32804 31.1292 4.40146L31.129 4.4014L31.1276 4.40783L29.8541 10.4012C29.7267 10.1229 29.5475 9.82014 29.306 9.56165C28.9704 9.20241 28.5112 8.92602 27.9055 8.92602C26.6143 8.92602 25.2964 9.90696 24.3081 11.346C23.3165 12.7898 22.6388 14.7184 22.6388 16.6624C22.6388 19.2569 23.9313 20.8403 25.509 20.8403C26.1449 20.8403 26.7271 20.5469 27.2229 20.153C27.6487 19.8149 28.017 19.3978 28.3093 19.0131C28.4481 19.6719 28.7453 20.1183 29.0953 20.4053C29.4833 20.7234 29.9296 20.8403 30.28 20.8403C30.9997 20.8403 31.5533 20.326 31.9551 19.3767L31.9552 19.3767L31.9559 19.3747C32.1347 18.9258 32.301 18.3029 32.4221 17.7825C32.4829 17.5215 32.5326 17.2849 32.5672 17.1068C32.5845 17.0177 32.5981 16.9429 32.6074 16.8867C32.6159 16.8351 32.6226 16.7894 32.6226 16.7663C32.6226 16.5901 32.4984 16.4325 32.3028 16.4325C32.2429 16.4325 32.185 16.4422 32.1331 16.4725C32.0805 16.5033 32.0449 16.5489 32.0185 16.6009C31.9929 16.6513 31.9735 16.7126 31.9556 16.7811C31.9401 16.8405 31.9243 16.9104 31.9064 16.99C31.9035 17.003 31.9005 17.0164 31.8974 17.03L31.8972 17.031C31.7321 17.7982 31.5469 18.5812 31.293 19.1716C31.166 19.4668 31.0247 19.7068 30.8656 19.8718C30.708 20.0351 30.5374 20.1208 30.346 20.1208C30.2053 20.1208 30.1051 20.084 30.0311 20.0276C29.956 19.9705 29.9001 19.8872 29.8593 19.7821C29.7763 19.5679 29.7644 19.287 29.7644 19.026V19.0258C29.7644 18.9245 29.7644 18.3871 29.9162 17.6701L33.0162 3.12479ZM29.4624 12.2598L29.4587 12.2686L29.4567 12.278L28.3797 17.3672C28.3727 17.3953 28.3662 17.4216 28.3601 17.4464C28.3173 17.6196 28.2924 17.7202 28.2497 17.8264C28.2012 17.947 28.1287 18.0766 27.9754 18.3225C27.7367 18.6811 27.3801 19.1337 26.9582 19.4956C26.534 19.8595 26.0565 20.1208 25.575 20.1208C25.1676 20.1208 24.846 19.9069 24.6209 19.5003C24.3932 19.0892 24.2679 18.4849 24.2679 17.7273C24.2679 17.0242 24.4363 15.9484 24.6587 14.9073C24.8807 13.8677 25.154 12.8742 25.3601 12.3356C25.7303 11.4357 26.1689 10.76 26.616 10.3109C27.0645 9.8603 27.5132 9.6455 27.9055 9.6455C28.5711 9.6455 28.9796 10.1312 29.227 10.6777C29.3497 10.9487 29.4289 11.2272 29.4774 11.4514C29.525 11.6716 29.5415 11.8329 29.5424 11.8796C29.5422 11.8809 29.5418 11.8844 29.5408 11.8909C29.5391 11.9016 29.5366 11.9163 29.5334 11.934C29.527 11.9692 29.5182 12.0147 29.5087 12.0612C29.4992 12.1077 29.4891 12.1546 29.4802 12.1926C29.4757 12.2117 29.4716 12.228 29.4681 12.2406C29.4643 12.2548 29.4623 12.26 29.4624 12.2598Z" fill="black" stroke="#5F5B80" stroke-width="0.2"/>
<path d="M43.2268 9.85226C42.6263 10.0914 42.3998 10.6867 42.3998 11.1558C42.3998 11.4915 42.5133 11.7277 42.6799 11.8791C42.8441 12.0283 43.0508 12.0869 43.2254 12.0869C43.5923 12.0869 43.8998 11.8985 44.1125 11.6227C44.3247 11.3477 44.4467 10.9818 44.4467 10.6103C44.4467 10.0273 44.1626 9.60214 43.7601 9.32649C43.3609 9.05308 42.8454 8.92588 42.3679 8.92588C41.6552 8.92588 41.1077 9.34035 40.7193 9.80245C40.4348 10.141 40.2294 10.5124 40.1001 10.7858C39.8295 9.95802 39.3927 9.49314 38.9589 9.23537C38.4835 8.95287 38.0232 8.92588 37.8168 8.92588C36.6414 8.92588 35.7579 9.81611 35.1761 10.7456C34.8833 11.2134 34.6619 11.6987 34.5136 12.1035C34.4394 12.306 34.3831 12.4892 34.3453 12.6409C34.308 12.7904 34.2869 12.9158 34.2869 12.9999C34.2869 13.1496 34.4107 13.3337 34.6288 13.3337C34.7536 13.3337 34.8365 13.2752 34.8905 13.2023C34.9301 13.1489 34.9565 13.0829 34.9745 13.038C34.9782 13.0286 34.9816 13.0201 34.9847 13.0129L34.9876 13.0061L34.9894 12.999C35.7292 10.1456 37.1721 9.64536 37.7508 9.64536C38.1983 9.64536 38.465 9.88739 38.6258 10.213C38.7893 10.5442 38.8381 10.9554 38.8381 11.2596C38.8381 11.796 38.7193 12.3566 38.4751 13.51C38.4651 13.5572 38.4549 13.6053 38.4445 13.6545L38.4444 13.6547L37.6969 17.213C37.533 17.9875 37.2942 18.721 36.957 19.2584C36.6202 19.7953 36.1965 20.1207 35.6621 20.1207C35.5686 20.1207 35.1652 20.1198 34.7769 19.9131C35.0819 19.7883 35.2822 19.5711 35.4087 19.344C35.561 19.0706 35.6082 18.7807 35.6082 18.6103C35.6082 18.3291 35.5186 18.0954 35.3639 17.9313C35.209 17.7671 34.9952 17.6791 34.7607 17.6791C34.1651 17.6791 33.5614 18.283 33.5614 19.1557C33.5614 19.7379 33.8392 20.1633 34.2394 20.4394C34.6363 20.7131 35.152 20.8402 35.6401 20.8402C36.202 20.8402 36.6768 20.5767 37.0661 20.1839C37.3931 19.854 37.6634 19.4296 37.8801 18.9819C38.3051 20.3551 39.3636 20.8402 40.1693 20.8402C41.3447 20.8402 42.2282 19.9499 42.81 19.0205C43.1028 18.5527 43.3241 18.0674 43.4725 17.6626C43.5467 17.4601 43.6029 17.2769 43.6408 17.1252C43.6781 16.9757 43.6991 16.8503 43.6991 16.7661C43.6991 16.59 43.5749 16.4324 43.3793 16.4324C43.3191 16.4324 43.2643 16.4422 43.2158 16.4664C43.1663 16.4911 43.1304 16.5272 43.1034 16.5683C43.0773 16.6079 43.059 16.6528 43.0437 16.6967C43.0335 16.7258 43.0234 16.7587 43.013 16.792C43.0081 16.808 43.0031 16.824 42.9981 16.8398L42.998 16.8397L42.9967 16.8449C42.7032 17.9751 42.2428 18.7968 41.7398 19.3342C41.2357 19.8726 40.6943 20.1207 40.2352 20.1207C39.8847 20.1207 39.6188 19.9692 39.4363 19.6946C39.2506 19.415 39.148 19.002 39.148 18.4804C39.148 17.9319 39.2298 17.5332 39.5667 15.8918L39.5854 15.8004L39.5857 15.7992L40.3549 12.2679L40.3551 12.2674C40.5181 11.4968 40.7832 10.8363 41.1265 10.371C41.4694 9.90614 41.8825 9.64536 42.3459 9.64536C42.3834 9.64536 42.8272 9.6465 43.2268 9.85226Z" fill="black" stroke="#5F5B80" stroke-width="0.2"/>
<path d="M48.7922 22.2328L48.7924 22.2332C49.4447 23.8008 50.2246 25.01 50.873 25.8283C51.1971 26.2374 51.4891 26.5498 51.7168 26.7608C51.8305 26.8662 51.9295 26.9476 52.0096 27.0034C52.0495 27.0312 52.0865 27.0539 52.1195 27.0701C52.1493 27.0847 52.1877 27.1 52.2266 27.1C52.2884 27.1 52.3625 27.082 52.423 27.031C52.4866 26.9773 52.5245 26.896 52.5245 26.7922L52.5245 26.7904C52.5245 26.7708 52.5245 26.7423 52.5155 26.7073C52.5064 26.672 52.4898 26.6353 52.4635 26.5914C52.4121 26.5057 52.3137 26.3767 52.1272 26.1564C49.9498 23.5581 48.7209 19.2995 48.7209 14.013C48.7209 8.98635 49.7518 4.67694 52.2795 1.63771C52.3888 1.52135 52.4514 1.44223 52.4854 1.37793C52.5243 1.30439 52.5245 1.25231 52.5245 1.20779C52.5245 1.10399 52.4866 1.02269 52.423 0.969028C52.3625 0.917978 52.2884 0.9 52.2266 0.9C52.1855 0.9 52.1449 0.915549 52.1117 0.931857C52.076 0.949405 52.0366 0.974022 51.9946 1.00388C51.9106 1.06374 51.8088 1.15021 51.6939 1.25954C51.4637 1.47858 51.1747 1.79557 50.8619 2.19123C50.2364 2.98255 49.5113 4.09403 48.9686 5.37643C47.8411 8.01419 47.3336 10.8071 47.3336 14.013C47.3336 16.3317 47.6421 19.437 48.7922 22.2328Z" fill="black" stroke="#5F5B80" stroke-width="0.2"/>
<path d="M63.8321 9.85226C63.2315 10.0914 63.0051 10.6867 63.0051 11.1558C63.0051 11.4915 63.1185 11.7277 63.2851 11.8791C63.4493 12.0283 63.656 12.0869 63.8306 12.0869C64.1975 12.0869 64.505 11.8985 64.7178 11.6227C64.9299 11.3477 65.0519 10.9818 65.0519 10.6103C65.0519 10.0273 64.7678 9.60214 64.3653 9.32649C63.9661 9.05308 63.4506 8.92588 62.9731 8.92588C62.2605 8.92588 61.7129 9.34035 61.3246 9.80245C61.04 10.141 60.8346 10.5124 60.7054 10.7858C60.4347 9.95802 59.9979 9.49314 59.5641 9.23537C59.0888 8.95287 58.6285 8.92588 58.422 8.92588C57.2466 8.92588 56.3631 9.81611 55.7813 10.7456C55.4885 11.2134 55.2671 11.6987 55.1188 12.1035C55.0446 12.306 54.9883 12.4892 54.9505 12.6409C54.9132 12.7904 54.8921 12.9158 54.8921 12.9999C54.8921 13.1496 55.0159 13.3337 55.234 13.3337C55.3588 13.3337 55.4417 13.2752 55.4957 13.2023C55.5353 13.1489 55.5617 13.0829 55.5797 13.038C55.5835 13.0286 55.5869 13.0201 55.5899 13.0129L55.5928 13.0061L55.5946 12.999C56.3345 10.1456 57.7774 9.64536 58.356 9.64536C58.8035 9.64536 59.0702 9.88739 59.231 10.213C59.3945 10.5442 59.4433 10.9554 59.4433 11.2596C59.4433 11.796 59.3246 12.3566 59.0803 13.51C59.0703 13.5572 59.0601 13.6053 59.0497 13.6545L59.0497 13.6547L58.3022 17.213C58.1383 17.9875 57.8994 18.721 57.5623 19.2584C57.2255 19.7953 56.8017 20.1207 56.2673 20.1207C56.1738 20.1207 55.7704 20.1198 55.3821 19.9131C55.6871 19.7883 55.8874 19.5711 56.0139 19.344C56.1663 19.0706 56.2134 18.7807 56.2134 18.6103C56.2134 18.3291 56.1238 18.0954 55.9691 17.9313C55.8143 17.7671 55.6004 17.6791 55.3659 17.6791C54.7703 17.6791 54.1666 18.283 54.1666 19.1557C54.1666 19.7379 54.4444 20.1633 54.8447 20.4394C55.2415 20.7131 55.7572 20.8402 56.2454 20.8402C56.8072 20.8402 57.282 20.5767 57.6713 20.1839C57.9983 19.854 58.2686 19.4296 58.4853 18.9819C58.9104 20.3551 59.9688 20.8402 60.7745 20.8402C61.9499 20.8402 62.8334 19.9499 63.4152 19.0205C63.708 18.5527 63.9294 18.0674 64.0777 17.6626C64.1519 17.4601 64.2082 17.2769 64.246 17.1252C64.2833 16.9757 64.3044 16.8503 64.3044 16.7661C64.3044 16.59 64.1802 16.4324 63.9845 16.4324C63.9243 16.4324 63.8695 16.4422 63.821 16.4664C63.7715 16.4911 63.7357 16.5272 63.7086 16.5683C63.6826 16.6079 63.6642 16.6528 63.6489 16.6967C63.6388 16.7258 63.6286 16.7587 63.6183 16.792C63.6133 16.808 63.6084 16.824 63.6034 16.8398L63.6032 16.8397L63.6019 16.8449C63.3084 17.9751 62.848 18.7968 62.345 19.3342C61.8409 19.8726 61.2995 20.1207 60.8405 20.1207C60.4899 20.1207 60.2241 19.9692 60.0416 19.6946C59.8558 19.415 59.7532 19.002 59.7532 18.4804C59.7532 17.9319 59.835 17.5332 60.1719 15.8918L60.1907 15.8004L60.1909 15.7992L60.9602 12.2679L60.9603 12.2674C61.1234 11.4968 61.3884 10.8363 61.7317 10.371C62.0746 9.90614 62.4877 9.64536 62.9511 9.64536C62.9887 9.64536 63.4324 9.6465 63.8321 9.85226Z" fill="black" stroke="#5F5B80" stroke-width="0.2"/>
<path d="M74.3861 7.34906L74.3871 7.34481C74.4305 7.17392 74.4608 7.05469 74.6352 7.05469C74.7379 7.05469 74.8551 7.10664 74.8551 7.2798C74.8551 7.50491 74.2542 9.92915 72.8177 9.92915C72.1875 9.92915 71.4985 9.4443 71.4985 8.45729C71.4985 8.23218 71.4985 8.12829 71.6891 7.55686C71.9676 6.70837 72.5832 4.73435 72.5832 3.78196C72.5832 2.96811 72.2754 2.60448 71.7477 2.60448C70.7657 2.60448 70.0768 3.36638 69.5931 4.21487L74.3861 7.34906ZM74.3861 7.34906C74.0343 8.76898 73.4187 9.4443 72.8617 9.4443C72.6272 9.4443 72.5099 9.27114 72.5099 8.87287C72.5099 8.47461 72.6272 8.09365 72.7738 7.66075L74.3861 7.34906ZM68.8651 6.92685L68.8651 6.92686L68.8655 6.92451C68.8873 6.7958 68.9347 6.56753 68.9824 6.33759L68.9827 6.33634C69.03 6.10852 69.0776 5.87921 69.0998 5.74822C69.1031 5.73348 69.1063 5.71898 69.1094 5.7047C69.2058 5.26517 69.2553 5.0399 69.3196 4.857C69.3855 4.66968 69.4672 4.52655 69.6361 4.24027L69.6361 4.24027L69.6365 4.23963C70.1187 3.39384 70.7947 2.65448 71.7477 2.65448C71.9988 2.65448 72.1914 2.74019 72.3232 2.91782C72.4569 3.09812 72.5332 3.37996 72.5332 3.78196C72.5332 4.25091 72.381 4.97675 72.1922 5.69567C72.0039 6.4128 71.7808 7.11726 71.6416 7.54111C71.5463 7.82711 71.4977 7.99859 71.4732 8.12762C71.4485 8.25778 71.4485 8.34394 71.4485 8.45648V8.45729C71.4485 9.47313 72.1611 9.97915 72.8177 9.97915C73.5667 9.97915 74.0886 9.34817 74.4194 8.71196C74.5861 8.39151 74.7072 8.06439 74.7866 7.80328C74.8263 7.67268 74.8558 7.55822 74.8753 7.46897C74.8945 7.38153 74.9051 7.31407 74.9051 7.2798C74.9051 7.18089 74.871 7.10937 74.8154 7.06368C74.7616 7.01944 74.694 7.00469 74.6352 7.00469C74.5856 7.00469 74.5427 7.01326 74.506 7.03161C74.4689 7.05013 74.4411 7.0771 74.4197 7.10911C74.3805 7.16754 74.3603 7.24708 74.34 7.32719C74.3392 7.33038 74.3384 7.33357 74.3376 7.33676L74.3375 7.33704C74.1627 8.04279 73.9232 8.5595 73.6613 8.89859C73.3989 9.2382 73.1188 9.3943 72.8617 9.3943C72.7591 9.3943 72.6884 9.35782 72.6402 9.28129C72.5891 9.20028 72.5599 9.06897 72.5599 8.87287C72.5599 8.48384 72.6744 8.1101 72.8211 7.67679L72.8212 7.6766C72.9312 7.34725 73.1478 6.68382 73.3369 5.98111C73.5255 5.28016 73.6885 4.53398 73.6885 4.04171C73.6885 3.3825 73.4949 2.88786 73.1606 2.55806C72.8266 2.22848 72.3584 2.06963 71.821 2.06963C70.6739 2.06963 69.9185 2.84449 69.4781 3.48823C69.3296 2.5941 68.6917 2.06963 67.9514 2.06963C67.3934 2.06963 67.0142 2.49173 66.777 3.03468L66.7769 3.03486C66.5996 3.4451 66.4742 3.86781 66.3932 4.19192C66.3527 4.35407 66.3232 4.49184 66.3038 4.5914C66.2941 4.64117 66.2869 4.6815 66.2821 4.71065C66.2797 4.7252 66.2779 4.73714 66.2767 4.74616C66.2756 4.75355 66.2745 4.76268 66.2745 4.76898C66.2745 4.85851 66.3044 4.9291 66.3567 4.9769C66.4083 5.02396 66.4763 5.04409 66.5443 5.04409C66.5938 5.04409 66.6393 5.03983 66.6791 5.02175C66.7209 5.00272 66.7511 4.97103 66.7751 4.9272C66.7982 4.88488 66.8169 4.82917 66.8358 4.7587C66.8544 4.68958 66.8743 4.60253 66.8989 4.49443L66.9009 4.48572L66.9009 4.48572L66.9011 4.48476C66.9891 4.06033 67.0981 3.59788 67.2604 3.24211C67.4244 2.88268 67.6321 2.65448 67.9075 2.65448C67.9926 2.65448 68.0588 2.67841 68.1115 2.71802C68.1647 2.75811 68.2068 2.8164 68.2392 2.88894C68.3046 3.03514 68.3265 3.23018 68.3265 3.41833C68.3265 3.70006 68.2654 3.99661 68.1634 4.49193C68.1549 4.53328 68.1461 4.57602 68.137 4.62025C68.1075 4.75963 67.888 5.77981 67.8296 6.02129L67.8295 6.02129L67.8292 6.02283L67.2871 8.61944C67.287 8.61958 67.287 8.61971 67.287 8.61984C67.2576 8.75013 67.2209 8.92355 67.1915 9.0732C67.1768 9.14808 67.1639 9.2173 67.1546 9.27231C67.1457 9.3253 67.1393 9.36995 67.1393 9.39236C67.1393 9.60421 67.2139 9.7524 67.3188 9.84721C67.4224 9.94081 67.552 9.97915 67.6583 9.97915C67.9485 9.97915 68.1822 9.75279 68.2894 9.5357L68.2895 9.53574L68.2906 9.53306C68.3035 9.50262 68.32 9.44212 68.3381 9.36762C68.3566 9.29148 68.3777 9.19627 68.3998 9.09329C68.4392 8.90903 68.4815 8.69879 68.5162 8.52645C68.5202 8.50627 68.5242 8.48661 68.528 8.46757C68.5281 8.46744 68.5281 8.4673 68.5281 8.46717L68.8651 6.92685Z" fill="black" stroke="#5F5B80" stroke-width="0.1"/>
<path d="M81.0921 5.76737L81.0918 5.76677C80.4394 4.19924 79.6596 2.99005 79.0112 2.17167C78.6871 1.76259 78.3951 1.45023 78.1674 1.23916C78.0537 1.1338 77.9547 1.05238 77.8746 0.996591C77.8347 0.968775 77.7977 0.946069 77.7647 0.929911C77.7349 0.915301 77.6965 0.9 77.6576 0.9C77.5958 0.9 77.5217 0.917978 77.4612 0.969028C77.3976 1.02269 77.3597 1.10399 77.3597 1.20779C77.3597 1.20838 77.3597 1.20899 77.3597 1.2096C77.3597 1.22921 77.3597 1.25768 77.3687 1.29274C77.3778 1.32798 77.3944 1.36472 77.4207 1.40857C77.4721 1.49429 77.5705 1.62325 77.757 1.84364C79.9344 4.44187 81.1633 8.70048 81.1633 13.987C81.1633 19.0136 80.1323 23.3231 77.6046 26.3623C77.4954 26.4786 77.4328 26.5578 77.3988 26.6221C77.3599 26.6956 77.3597 26.7477 77.3597 26.7922C77.3597 26.896 77.3976 26.9773 77.4612 27.031C77.5217 27.082 77.5958 27.1 77.6576 27.1C77.6987 27.1 77.7393 27.0845 77.7725 27.0681C77.8082 27.0506 77.8476 27.026 77.8895 26.9961C77.9736 26.9363 78.0754 26.8498 78.1903 26.7405C78.4205 26.5214 78.7095 26.2044 79.0222 25.8088C79.6478 25.0174 80.3729 23.9059 80.9157 22.6234C82.043 19.9599 82.5506 17.1412 82.5506 14.013C82.5506 12.0334 82.3304 8.79774 81.0921 5.76737Z" fill="black" stroke="#5F5B80" stroke-width="0.2"/>
<path d="M105.57 12.165L105.58 12.165C105.727 12.1651 105.92 12.1651 106.076 12.0986C106.16 12.0632 106.236 12.0076 106.291 11.9216C106.346 11.836 106.373 11.7285 106.373 11.5975C106.373 11.4619 106.348 11.3508 106.296 11.2621C106.244 11.1722 106.17 11.1129 106.087 11.0748C105.932 11.0039 105.738 11.004 105.581 11.004L105.57 11.004H92.6201C92.6168 11.004 92.6136 11.004 92.6103 11.004C92.4631 11.004 92.2701 11.0039 92.1137 11.0704C92.0303 11.1059 91.9537 11.1615 91.8988 11.2475C91.8443 11.333 91.8165 11.4406 91.8165 11.5715C91.8165 11.7072 91.8422 11.8183 91.8935 11.907C91.9456 11.9968 92.0197 12.0561 92.103 12.0943C92.2577 12.1651 92.4521 12.1651 92.6086 12.165C92.6124 12.165 92.6163 12.165 92.6201 12.165H105.57ZM105.57 16.9962L105.58 16.9962C105.727 16.9962 105.92 16.9963 106.076 16.9298C106.16 16.8943 106.236 16.8388 106.291 16.7527C106.346 16.6672 106.373 16.5596 106.373 16.4287C106.373 16.2931 106.348 16.1819 106.296 16.0933C106.244 16.0034 106.17 15.9441 106.087 15.9059C105.932 15.8351 105.738 15.8351 105.581 15.8352L105.57 15.8352H92.6201C92.6168 15.8352 92.6136 15.8352 92.6103 15.8352C92.4631 15.8351 92.2701 15.8351 92.1137 15.9016C92.0303 15.9371 91.9537 15.9926 91.8988 16.0787C91.8443 16.1642 91.8165 16.2717 91.8165 16.4027C91.8165 16.5383 91.8422 16.6495 91.8935 16.7381C91.9456 16.828 92.0197 16.8873 92.103 16.9254C92.2577 16.9963 92.4521 16.9963 92.6086 16.9962L92.6201 16.9962H105.57Z" fill="black" stroke="#5F5B80" stroke-width="0.2"/>
<path d="M119.588 10.6543L119.588 10.6543C119.191 11.0605 118.855 11.5841 118.612 12.0283C118.372 12.4686 118.229 12.8207 118.207 12.8943L117.482 16.3189L117.482 16.3193L116.998 18.6565L116.998 18.657C116.943 18.917 116.866 19.2745 116.797 19.5833C116.729 19.8881 116.668 20.1553 116.643 20.2268L116.64 20.2361L116.64 20.2359C116.449 20.6594 116.106 20.8402 115.801 20.8402C115.403 20.8402 115.129 20.4961 115.129 20.0908C115.129 20.066 115.134 20.0252 115.141 19.9797C115.148 19.9312 115.158 19.8692 115.171 19.7972C115.196 19.653 115.232 19.4664 115.271 19.2631C115.351 18.8566 115.45 18.3816 115.528 18.0426L115.528 18.042C115.637 17.5762 115.879 16.4091 115.966 15.9174L115.967 15.9135L115.967 15.9135L116.583 13.1097C116.607 12.981 116.633 12.8476 116.66 12.7118C116.717 12.4209 116.776 12.1191 116.827 11.8301C116.901 11.4048 116.954 11.0163 116.954 10.7402C116.954 10.3539 116.91 10.0761 116.815 9.89755C116.768 9.81046 116.711 9.74912 116.642 9.70883C116.573 9.66839 116.485 9.64536 116.373 9.64536C115.999 9.64536 115.704 9.95871 115.453 10.5243C115.205 11.0819 115.02 11.8385 114.843 12.6319L119.588 10.6543ZM119.588 10.6543L119.59 10.6519C120.148 10.0438 120.87 9.64536 121.693 9.64536C122.096 9.64536 122.361 9.82034 122.53 10.1147C122.704 10.417 122.781 10.8508 122.781 11.3635C122.781 12.0898 122.558 13.1891 122.278 14.2902C121.998 15.3881 121.664 16.4768 121.444 17.1778L121.539 17.2077L121.444 17.1774C121.44 17.1914 121.435 17.2052 121.431 17.2189C121.242 17.8139 121.132 18.1615 121.132 18.6363C121.132 19.8378 121.838 20.8402 122.969 20.8402C123.514 20.8402 123.969 20.5848 124.342 20.2118C124.713 19.8397 125.007 19.3459 125.233 18.8534C125.46 18.36 125.622 17.8627 125.727 17.4793C125.78 17.2874 125.818 17.1235 125.844 17.0022C125.856 16.9416 125.866 16.8912 125.872 16.853C125.878 16.8185 125.883 16.7858 125.883 16.7661C125.883 16.59 125.759 16.4324 125.563 16.4324C125.509 16.4324 125.453 16.4373 125.402 16.4602C125.348 16.4847 125.309 16.5248 125.279 16.5758C125.25 16.624 125.228 16.6848 125.207 16.7559C125.186 16.8279 125.163 16.918 125.136 17.0277L125.136 17.0288C124.885 18.0867 124.553 18.8651 124.185 19.3765C123.816 19.8883 123.419 20.1207 123.035 20.1207C122.926 20.1207 122.82 20.1124 122.735 20.0315C122.649 19.9494 122.563 19.7694 122.563 19.3635C122.563 18.7326 122.799 17.9672 122.931 17.6054L122.931 17.6055L122.932 17.6008C122.955 17.5263 122.979 17.4478 123.005 17.3656C123.223 16.6604 123.523 15.6864 123.78 14.7071C124.066 13.6166 124.3 12.5078 124.3 11.7532C124.3 10.959 124.104 10.2519 123.683 9.74151C123.26 9.22818 122.62 8.92588 121.759 8.92588C119.97 8.92588 118.934 10.2535 118.448 11.0045L119.588 10.6543Z" fill="black" stroke="#5F5B80" stroke-width="0.2"/>
<path d="M136.613 9.85226C136.012 10.0914 135.786 10.6867 135.786 11.1558C135.786 11.4915 135.899 11.7277 136.066 11.8791C136.23 12.0283 136.437 12.0869 136.611 12.0869C136.978 12.0869 137.286 11.8985 137.499 11.6227C137.711 11.3477 137.833 10.9818 137.833 10.6103C137.833 10.0273 137.549 9.60214 137.146 9.32649C136.747 9.05308 136.231 8.92588 135.754 8.92588C135.041 8.92588 134.494 9.34035 134.105 9.80245C133.821 10.141 133.615 10.5124 133.486 10.7858C133.216 9.95802 132.779 9.49314 132.345 9.23537C131.87 8.95287 131.409 8.92588 131.203 8.92588C130.027 8.92588 129.144 9.81611 128.562 10.7456C128.269 11.2134 128.048 11.6987 127.9 12.1035C127.825 12.306 127.769 12.4892 127.731 12.6409C127.694 12.7904 127.673 12.9158 127.673 12.9999C127.673 13.1496 127.797 13.3337 128.015 13.3337C128.14 13.3337 128.222 13.2752 128.277 13.2023C128.316 13.1489 128.342 13.0829 128.36 13.038C128.364 13.0286 128.368 13.0201 128.371 13.0129L128.374 13.0061L128.375 12.999C129.115 10.1456 130.558 9.64536 131.137 9.64536C131.584 9.64536 131.851 9.88739 132.012 10.213C132.175 10.5442 132.224 10.9554 132.224 11.2596C132.224 11.796 132.105 12.3566 131.861 13.51C131.851 13.5572 131.841 13.6053 131.83 13.6545L131.83 13.6547L131.083 17.213C130.919 17.9875 130.68 18.721 130.343 19.2584C130.006 19.7953 129.582 20.1207 129.048 20.1207C128.955 20.1207 128.551 20.1198 128.163 19.9131C128.468 19.7883 128.668 19.5711 128.795 19.344C128.947 19.0706 128.994 18.7807 128.994 18.6103C128.994 18.3291 128.905 18.0954 128.75 17.9313C128.595 17.7671 128.381 17.6791 128.147 17.6791C127.551 17.6791 126.947 18.283 126.947 19.1557C126.947 19.7379 127.225 20.1633 127.625 20.4394C128.022 20.7131 128.538 20.8402 129.026 20.8402C129.588 20.8402 130.063 20.5767 130.452 20.1839C130.779 19.854 131.049 19.4296 131.266 18.9819C131.691 20.3551 132.75 20.8402 133.555 20.8402C134.731 20.8402 135.614 19.9499 136.196 19.0205C136.489 18.5527 136.71 18.0674 136.858 17.6626C136.933 17.4601 136.989 17.2769 137.027 17.1252C137.064 16.9757 137.085 16.8503 137.085 16.7661C137.085 16.59 136.961 16.4324 136.765 16.4324C136.705 16.4324 136.65 16.4422 136.602 16.4664C136.552 16.4911 136.516 16.5272 136.489 16.5683C136.463 16.6079 136.445 16.6528 136.43 16.6967C136.42 16.7258 136.409 16.7587 136.399 16.792C136.394 16.808 136.389 16.824 136.384 16.8398L136.384 16.8397L136.383 16.8449C136.089 17.9751 135.629 18.7968 135.126 19.3342C134.622 19.8726 134.08 20.1207 133.621 20.1207C133.271 20.1207 133.005 19.9692 132.822 19.6946C132.637 19.415 132.534 19.002 132.534 18.4804C132.534 17.9319 132.616 17.5332 132.953 15.8918L132.971 15.8004L132.972 15.7992L133.741 12.2679L133.741 12.2674C133.904 11.4968 134.169 10.8363 134.512 10.371C134.855 9.90614 135.269 9.64536 135.732 9.64536C135.769 9.64536 136.213 9.6465 136.613 9.85226Z" fill="black" stroke="#5F5B80" stroke-width="0.2"/>
<path d="M147.166 7.34906L147.167 7.34481C147.21 7.17392 147.241 7.05469 147.415 7.05469C147.518 7.05469 147.635 7.10664 147.635 7.2798C147.635 7.50491 147.034 9.92915 145.598 9.92915C144.967 9.92915 144.278 9.4443 144.278 8.45729C144.278 8.23218 144.278 8.12829 144.469 7.55686C144.747 6.70837 145.363 4.73435 145.363 3.78196C145.363 2.96811 145.055 2.60448 144.528 2.60448C143.545 2.60448 142.857 3.36638 142.373 4.21487L147.166 7.34906ZM147.166 7.34906C146.814 8.76898 146.198 9.4443 145.641 9.4443C145.407 9.4443 145.29 9.27114 145.29 8.87287C145.29 8.47461 145.407 8.09365 145.554 7.66075L147.166 7.34906ZM141.645 6.92685L141.645 6.92686L141.645 6.92451C141.667 6.7958 141.714 6.56753 141.762 6.33759L141.762 6.33634C141.81 6.10852 141.857 5.87921 141.88 5.74822C141.883 5.73348 141.886 5.71898 141.889 5.7047C141.986 5.26517 142.035 5.0399 142.099 4.857C142.165 4.66968 142.247 4.52655 142.416 4.24027L142.416 4.24027L142.416 4.23963C142.898 3.39384 143.574 2.65448 144.528 2.65448C144.779 2.65448 144.971 2.74019 145.103 2.91782C145.237 3.09812 145.313 3.37996 145.313 3.78196C145.313 4.25091 145.161 4.97675 144.972 5.69567C144.784 6.4128 144.561 7.11726 144.421 7.54111C144.326 7.82711 144.278 7.99859 144.253 8.12762C144.228 8.25778 144.228 8.34394 144.228 8.45648V8.45729C144.228 9.47313 144.941 9.97915 145.598 9.97915C146.346 9.97915 146.868 9.34817 147.199 8.71196C147.366 8.39151 147.487 8.06439 147.566 7.80328C147.606 7.67268 147.636 7.55822 147.655 7.46897C147.674 7.38153 147.685 7.31407 147.685 7.2798C147.685 7.18089 147.651 7.10937 147.595 7.06368C147.541 7.01944 147.474 7.00469 147.415 7.00469C147.365 7.00469 147.322 7.01326 147.286 7.03161C147.249 7.05013 147.221 7.0771 147.199 7.10911C147.16 7.16754 147.14 7.24708 147.12 7.32719C147.119 7.33038 147.118 7.33357 147.117 7.33676L147.117 7.33704C146.942 8.04279 146.703 8.5595 146.441 8.89859C146.179 9.2382 145.899 9.3943 145.641 9.3943C145.539 9.3943 145.468 9.35782 145.42 9.28129C145.369 9.20028 145.34 9.06897 145.34 8.87287C145.34 8.48384 145.454 8.1101 145.601 7.67679L145.601 7.6766C145.711 7.34725 145.928 6.68382 146.117 5.98111C146.305 5.28016 146.468 4.53398 146.468 4.04171C146.468 3.3825 146.275 2.88786 145.94 2.55806C145.606 2.22848 145.138 2.06963 144.601 2.06963C143.454 2.06963 142.698 2.84449 142.258 3.48823C142.109 2.5941 141.471 2.06963 140.731 2.06963C140.173 2.06963 139.794 2.49173 139.557 3.03468L139.557 3.03486C139.379 3.4451 139.254 3.86781 139.173 4.19192C139.132 4.35407 139.103 4.49184 139.084 4.5914C139.074 4.64117 139.067 4.6815 139.062 4.71065C139.06 4.7252 139.058 4.73714 139.056 4.74616C139.055 4.75355 139.054 4.76268 139.054 4.76898C139.054 4.85851 139.084 4.9291 139.136 4.9769C139.188 5.02396 139.256 5.04409 139.324 5.04409C139.374 5.04409 139.419 5.03983 139.459 5.02175C139.501 5.00272 139.531 4.97103 139.555 4.9272C139.578 4.88488 139.597 4.82917 139.616 4.7587C139.634 4.68958 139.654 4.60253 139.679 4.49443L139.681 4.48572L139.681 4.48572L139.681 4.48476C139.769 4.06033 139.878 3.59788 140.04 3.24211C140.204 2.88268 140.412 2.65448 140.687 2.65448C140.772 2.65448 140.839 2.67841 140.891 2.71802C140.945 2.75811 140.987 2.8164 141.019 2.88894C141.084 3.03514 141.106 3.23018 141.106 3.41833C141.106 3.70006 141.045 3.99661 140.943 4.49193C140.935 4.53328 140.926 4.57602 140.917 4.62025C140.887 4.75963 140.668 5.77981 140.609 6.02129L140.609 6.02129L140.609 6.02283L140.067 8.61944C140.067 8.61958 140.067 8.61971 140.067 8.61984C140.037 8.75013 140.001 8.92355 139.971 9.0732C139.957 9.14808 139.944 9.2173 139.934 9.27231C139.925 9.3253 139.919 9.36995 139.919 9.39236C139.919 9.60421 139.994 9.7524 140.099 9.84721C140.202 9.94081 140.332 9.97915 140.438 9.97915C140.728 9.97915 140.962 9.75279 141.069 9.5357L141.069 9.53574L141.07 9.53306C141.083 9.50262 141.1 9.44212 141.118 9.36762C141.136 9.29148 141.158 9.19627 141.18 9.09329C141.219 8.90903 141.261 8.69879 141.296 8.52645C141.3 8.50627 141.304 8.48661 141.308 8.46757C141.308 8.46744 141.308 8.4673 141.308 8.46717L141.645 6.92685Z" fill="black" stroke="#5F5B80" stroke-width="0.1"/>
<path d="M156.551 5.74175C156.554 5.74175 156.556 5.74176 156.559 5.74176C156.654 5.74182 156.795 5.74192 156.911 5.68035C156.975 5.64665 157.031 5.59511 157.07 5.51971C157.108 5.44568 157.127 5.35412 157.127 5.24348C157.127 5.13285 157.108 5.04129 157.07 4.96726C157.031 4.89186 156.975 4.84032 156.911 4.80662C156.795 4.74505 156.654 4.74515 156.559 4.74521C156.556 4.74521 156.554 4.74521 156.551 4.74521H149.366C149.363 4.74521 149.36 4.74521 149.357 4.74521C149.263 4.74515 149.122 4.74505 149.006 4.80662C148.942 4.84032 148.886 4.89186 148.847 4.96726C148.809 5.04129 148.79 5.13285 148.79 5.24348C148.79 5.35412 148.809 5.44568 148.847 5.51971C148.886 5.59511 148.942 5.64665 149.006 5.68035C149.122 5.74192 149.263 5.74182 149.357 5.74176C149.36 5.74176 149.363 5.74175 149.366 5.74175H156.551Z" fill="black" stroke="#5F5B80" stroke-width="0.2"/>
<path d="M161.254 0.9H161.217L161.189 0.923808C160.843 1.21822 160.102 1.64016 158.545 1.64016H158.445V1.74016V2.07554V2.17554H158.545H158.546C158.882 2.17554 159.599 2.17554 160.404 1.91455V7.80019C160.404 7.9065 160.4 7.97625 160.381 8.02917C160.366 8.07371 160.337 8.11085 160.269 8.1438C160.195 8.17946 160.077 8.20844 159.887 8.22762C159.698 8.24663 159.447 8.2553 159.111 8.2553H158.637H158.537V8.3553V8.69069V8.79644L158.642 8.79053C159.052 8.7676 160.532 8.76756 161.039 8.76756C161.547 8.76756 163.012 8.7676 163.422 8.79053L163.527 8.79644V8.69069V8.3553V8.2553H163.427H162.953C162.617 8.2553 162.366 8.24663 162.177 8.22762C161.987 8.20844 161.869 8.17946 161.795 8.1438C161.726 8.11085 161.698 8.07371 161.682 8.02917C161.664 7.97625 161.66 7.9065 161.66 7.80019V1.27756L161.66 1.27181C161.66 1.21023 161.66 1.15436 161.654 1.10964C161.649 1.06296 161.635 1.00828 161.59 0.966333C161.547 0.925761 161.492 0.912676 161.443 0.906696C161.393 0.900587 161.329 0.9 161.254 0.9Z" fill="black" stroke="#5F5B80" stroke-width="0.2"/>
</svg>
