<svg width="156" height="44" viewBox="0 0 156 44" fill="none" xmlns="http://www.w3.org/2000/svg">
<path d="M15.5373 5.68581L15.5374 5.6858V5.68989C15.5374 5.99207 15.4707 6.23966 15.3321 6.42783C15.1997 6.60772 15.0679 6.7288 14.9354 6.78114C14.8099 6.83075 14.6832 6.84991 14.5561 6.83775C14.3144 6.83711 14.0968 6.74243 13.9047 6.55824C13.7082 6.36988 13.6122 6.11376 13.6122 5.79613C13.6122 5.5043 13.6865 5.26588 13.8402 5.08631C13.9804 4.92241 14.1826 4.81244 14.4419 4.75309L14.4379 4.74729C14.4073 4.71426 14.3661 4.67512 14.3139 4.62975C14.26 4.58287 14.2178 4.54858 14.187 4.52626C14.0323 4.4142 13.8632 4.3587 13.6785 4.3587C13.5439 4.3587 13.4152 4.42076 13.2916 4.55505C13.231 4.62095 13.1574 4.7343 13.0709 4.89861C12.985 5.06211 12.8878 5.27314 12.7795 5.5321C12.5636 6.04816 12.3525 6.73005 12.1464 7.57869C11.9402 8.42759 11.6851 9.62497 11.3809 11.1712C11.0769 12.7166 10.7729 14.5337 10.4688 16.6227L10.4686 16.6235C9.82756 20.5787 9.15931 24.3155 8.46388 27.8341C7.76855 31.352 7.22515 33.9029 6.83373 35.486C6.44261 37.068 6.14358 38.2023 5.93677 38.8883L5.93673 38.8884C5.51775 40.2661 5.04852 41.3039 4.5274 41.9983C4.00594 42.6932 3.42784 43.0498 2.7926 43.0498C2.3422 43.0498 1.93335 42.8595 1.56725 42.4858C1.19849 42.1094 0.994176 41.5954 0.950116 40.9491L0.95 40.9491V40.9457C0.95 40.5264 1.05454 40.2231 1.2798 40.0556C1.49269 39.8973 1.70932 39.8155 1.92889 39.8155C2.17154 39.8155 2.38998 39.9102 2.58275 40.095C2.77921 40.2834 2.87519 40.5395 2.87519 40.8571C2.87519 41.149 2.80092 41.3874 2.64725 41.567C2.50689 41.731 2.3045 41.841 2.04494 41.9003C2.22808 42.1524 2.47594 42.2769 2.7926 42.2769H2.82519C2.95638 42.2769 3.09586 42.2006 3.24356 42.0287C3.3909 41.8571 3.54062 41.5968 3.69184 41.2447C3.9942 40.5407 4.27585 39.5762 4.53628 38.35C4.79693 37.1227 5.04129 35.8895 5.26935 34.6504C5.49738 33.4116 5.72542 32.0723 5.95348 30.6327C5.986 30.3854 6.01322 30.2019 6.03515 30.0826C6.81747 25.0649 7.665 20.413 8.57778 16.1269C9.49018 11.8426 10.1534 9.05416 10.5671 7.76442C10.5672 7.76432 10.5672 7.76421 10.5672 7.76411L10.73 7.23349C10.774 7.09019 10.8668 6.82914 11.008 6.45151C11.1498 6.07215 11.2974 5.73948 11.4508 5.45375C11.6041 5.16808 11.7901 4.87685 12.0086 4.58008C12.2288 4.28111 12.4717 4.04079 12.7379 3.86006C13.0065 3.67763 13.2936 3.59147 13.5981 3.60352C14.2185 3.60376 14.691 3.81543 15.0062 4.24364C15.3161 4.66458 15.4931 5.14572 15.5373 5.68581Z" fill="black" stroke="black" stroke-width="0.1"/>
<path d="M21.8965 22.6181H21.8959L21.897 22.6106C21.975 22.1024 22.2743 21.5218 22.7872 20.8696C23.306 20.2099 23.9497 19.871 24.7161 19.8589H24.7168C25.107 19.8589 25.4644 19.9681 25.7878 20.1862C26.0831 20.3853 26.3093 20.631 26.4653 20.923C26.9179 20.22 27.4646 19.8589 28.1065 19.8589C28.5203 19.8589 28.8799 19.993 29.1826 20.261C29.4876 20.531 29.6446 20.8931 29.6557 21.342L29.6557 21.342V21.3432C29.6557 21.6928 29.5781 21.9813 29.4183 22.2046C29.2641 22.4199 29.1097 22.5602 28.9534 22.6124C28.8089 22.6608 28.6784 22.6859 28.5628 22.6859C28.3449 22.6859 28.1632 22.6169 28.0223 22.4765C27.881 22.3358 27.812 22.1511 27.812 21.9276C27.812 21.6474 27.8822 21.4078 28.0254 21.2119C28.1563 21.0327 28.3457 20.8933 28.5906 20.792C28.4776 20.6886 28.2932 20.6318 28.025 20.6318C27.8864 20.6318 27.791 20.6435 27.7343 20.6635C27.3395 20.8449 27.0434 21.2197 26.8508 21.7998C26.5252 23.1032 26.281 24.1349 26.1183 24.8952C25.955 25.6582 25.875 26.1424 25.875 26.3544C25.875 26.6773 25.9598 26.8956 26.1173 27.024C26.2831 27.1591 26.4622 27.2252 26.6561 27.2252C27.0405 27.2252 27.4251 27.0393 27.8105 26.6555C28.1947 26.2727 28.4566 25.8028 28.5957 25.2445L28.5957 25.2445L28.5961 25.2433C28.6127 25.1829 28.63 25.1336 28.6485 25.0969C28.6577 25.0785 28.6679 25.0619 28.6795 25.0482C28.6909 25.0348 28.7058 25.0217 28.725 25.0148C28.7469 25.0068 28.7817 25.0004 28.8249 24.9945C28.8696 24.9885 28.9276 24.9825 28.9986 24.9766L28.9986 24.9764H29.0028H29.068C29.1526 24.9764 29.2243 24.9884 29.2764 25.0185C29.3326 25.0511 29.3624 25.103 29.3624 25.168C29.3624 25.1752 29.3611 25.1851 29.3599 25.1939C29.3584 25.2041 29.3563 25.2174 29.3536 25.2338C29.3481 25.2667 29.3399 25.3128 29.329 25.3719L29.3291 25.3719L29.3282 25.3753C29.1522 26.0569 28.811 26.6606 28.3055 27.186C27.7972 27.7142 27.2033 27.9804 26.5257 27.9804C26.137 27.9804 25.7932 27.8852 25.4964 27.6935C25.22 27.5151 24.9867 27.2545 24.7954 26.9142C24.356 27.6051 23.8471 27.9627 23.2665 27.9627H23.1687C22.6272 27.9627 22.2288 27.8063 21.9878 27.4821C21.7543 27.168 21.6307 26.8337 21.6195 26.48L21.6194 26.48V26.4784C21.6194 26.0911 21.7255 25.7717 21.9414 25.5247C22.1562 25.2791 22.4138 25.1535 22.7124 25.1535C22.9545 25.1535 23.145 25.2178 23.2743 25.3551C23.4032 25.4918 23.4631 25.6923 23.4631 25.9472C23.4631 26.1931 23.395 26.4103 23.2578 26.5966C23.1255 26.7764 22.9948 26.9018 22.8649 26.9659C22.8048 26.9956 22.7562 27.0183 22.7195 27.0336C22.7083 27.0383 22.6979 27.0424 22.6885 27.0459C22.6933 27.0486 22.6984 27.0513 22.7037 27.0542C22.7671 27.0887 22.8525 27.1293 22.9605 27.1763C23.0626 27.2207 23.1569 27.2361 23.2442 27.2256L23.2441 27.2252H23.2502C23.614 27.2252 23.9374 26.9795 24.2163 26.4552C24.3109 26.2723 24.4346 25.8768 24.5868 25.2623C24.7389 24.6487 24.8909 24.0115 25.0429 23.3507C25.195 22.6895 25.2816 22.3015 25.3032 22.1844C25.3574 21.866 25.3839 21.6396 25.3839 21.5026C25.3839 21.1788 25.304 20.9601 25.1566 20.832C25.0023 20.6979 24.8291 20.6318 24.6354 20.6318C24.2169 20.6318 23.8216 20.8131 23.4484 21.1839C23.0756 21.5542 22.8136 22.0295 22.6633 22.6117C22.6522 22.6659 22.6391 22.711 22.6234 22.7453C22.6086 22.7774 22.5863 22.8114 22.5502 22.8245C22.5283 22.8325 22.4935 22.8389 22.4502 22.8448C22.4056 22.8508 22.3476 22.8568 22.2766 22.8628L22.2766 22.8629H22.2724H22.0442H22.0223L22.0075 22.8468C21.9388 22.7722 21.8965 22.6956 21.8965 22.6181Z" fill="black" stroke="black" stroke-width="0.1"/>
<path d="M30.6115 16.8296H30.6121C30.6121 16.8559 30.6236 16.8812 30.6368 16.9027C30.6506 16.9252 30.6703 16.9498 30.6944 16.9761L30.7093 16.9922H30.7312H30.8925C30.9601 16.9922 31.0173 16.9859 31.0614 16.9708C31.1055 16.9556 31.1449 16.9284 31.1592 16.8818L31.1614 16.8746V16.8706C31.1615 16.8705 31.1615 16.8704 31.1615 16.8703L31.1644 16.8577C31.1671 16.8462 31.1714 16.8296 31.1771 16.8079C31.1885 16.7643 31.2057 16.7009 31.2288 16.6175L31.2293 16.6154L31.2293 16.6154C31.3249 16.1998 31.4321 15.8926 31.5493 15.6904C31.6674 15.4866 31.7878 15.4023 31.9064 15.4023C31.9803 15.4023 32.0329 15.433 32.0703 15.499C32.1101 15.5692 32.1329 15.6809 32.1329 15.8405C32.1329 15.9921 32.1289 16.0831 32.1223 16.1194L32.1219 16.1215L32.1219 16.1215C32.107 16.2271 31.9542 16.9038 31.6619 18.1578C31.5159 18.7838 31.4064 19.2672 31.3333 19.6077C31.2968 19.778 31.2693 19.9128 31.2509 20.0121C31.2339 20.104 31.2239 20.1697 31.2228 20.2042C31.2137 20.2516 31.2263 20.3035 31.2504 20.3559C31.2777 20.4152 31.326 20.471 31.3909 20.5239C31.4634 20.583 31.5562 20.6103 31.6645 20.6103C31.7882 20.6103 31.8972 20.5799 31.9893 20.5171C32.0812 20.4544 32.1528 20.3617 32.2056 20.2425L32.1599 20.2223M30.6115 16.8296L37.0565 18.7951C36.9951 19.0371 36.9106 19.275 36.8031 19.5087C36.6955 19.7424 36.5189 19.9761 36.2731 20.2098C36.0273 20.4435 35.7623 20.5561 35.4781 20.5478M30.6115 16.8296L30.6127 16.822C30.6205 16.7712 30.6321 16.7039 30.6475 16.6202C30.6636 16.5329 30.7108 16.3711 30.7874 16.1379C30.8647 15.9029 30.9423 15.7045 31.0204 15.5433C31.101 15.3769 31.2328 15.2172 31.4132 15.0638C31.596 14.9083 31.7843 14.8303 31.9767 14.8391M30.6115 16.8296H30.6621C30.6698 16.7795 30.6813 16.7127 30.6967 16.6293C30.712 16.5458 30.7581 16.3872 30.8349 16.1535C30.9117 15.9198 30.9886 15.7237 31.0654 15.5651C31.1422 15.4065 31.2689 15.2521 31.4456 15.1019C31.6222 14.9517 31.7989 14.8807 31.9756 14.8891M32.1599 20.2223L32.2053 20.2432C32.217 20.2178 32.2344 20.1609 32.2571 20.0782C32.2803 19.9937 32.3102 19.8777 32.3467 19.7304C32.4198 19.4358 32.5197 19.0151 32.6464 18.4684L32.6465 18.4681L33.0252 16.7972L33.1026 16.6529C33.1026 16.6529 33.1026 16.6529 33.1026 16.6529C33.5515 15.818 34.0947 15.4148 34.7292 15.4148H34.7868C34.9418 15.4148 35.052 15.4702 35.1258 15.5778C35.2019 15.6886 35.2437 15.8612 35.2438 16.103C35.2361 16.5207 35.0961 17.1489 34.8199 17.9908C34.6816 18.4126 34.5776 18.7494 34.5082 19.0009C34.4735 19.1266 34.4472 19.2315 34.4297 19.3153C34.4123 19.3982 34.4027 19.4635 34.4027 19.5087C34.4027 19.7626 34.4875 20.0063 34.654 20.2389C34.8273 20.481 35.106 20.5976 35.4774 20.5978C35.4776 20.5978 35.4779 20.5978 35.4781 20.5978V20.5478M32.1599 20.2223C32.1983 20.1388 32.3442 19.5504 32.5977 18.4571M32.1599 20.2223C32.0601 20.4476 31.8949 20.5603 31.6645 20.5603C31.5646 20.5603 31.484 20.5353 31.4225 20.4852C31.3611 20.4351 31.3188 20.385 31.2958 20.335C31.2727 20.2849 31.2651 20.2431 31.2727 20.2098L32.5977 18.4571M35.4781 20.5478C35.1171 20.5478 34.8559 20.4351 34.6946 20.2098C34.5333 19.9844 34.4527 19.7507 34.4527 19.5087C34.4527 19.3501 34.5909 18.8493 34.8675 18.0064C35.144 17.1634 35.2861 16.5291 35.2938 16.1034C35.2938 15.611 35.1248 15.3648 34.7868 15.3648H34.7292C34.0686 15.3648 33.5118 15.7863 33.0586 16.6293L32.9779 16.7795L32.5977 18.4571M35.4781 20.5478L32.5977 18.4571M36.5931 18.596C36.6051 18.5437 36.6417 18.5078 36.691 18.4863C36.7385 18.4657 36.8001 18.4571 36.8722 18.4571C36.9511 18.4571 37.017 18.4655 37.065 18.4863C37.0895 18.497 37.1117 18.512 37.1279 18.5331C37.1446 18.5548 37.1526 18.5803 37.1526 18.6073C37.1526 18.6132 37.1516 18.6191 37.1512 18.6215L37.1512 18.6216L37.1486 18.6343C37.1466 18.6438 37.1435 18.6566 37.1397 18.6724C37.1319 18.7041 37.1203 18.7492 37.105 18.8076L36.6418 18.6073M36.5931 18.596C36.5931 18.596 36.593 18.596 36.593 18.5961L36.6418 18.6073M36.5931 18.596C36.5931 18.5959 36.5931 18.5959 36.5931 18.5959L36.6418 18.6073M36.5931 18.596C36.5019 18.9839 36.3694 19.3122 36.1964 19.5818C36.0239 19.8509 35.8343 19.9972 35.6302 20.0354L35.6221 20.0369L35.6224 20.0376C35.6077 20.0429 35.5802 20.0471 35.5357 20.0471C35.4873 20.0471 35.4549 20.0286 35.4316 19.9899C35.4059 19.9472 35.3898 19.8767 35.3898 19.7716V19.7695L35.3898 19.7695C35.3881 19.7296 35.3949 19.6668 35.412 19.5784C35.4289 19.491 35.4554 19.3815 35.4917 19.2497C35.5643 18.9861 35.6753 18.6356 35.825 18.1978C36.1248 17.3208 36.2733 16.6585 36.2655 16.2152C36.2576 15.7714 36.1236 15.4268 35.857 15.1897C35.5924 14.9545 35.2455 14.8391 34.8214 14.8391C34.2053 14.8391 33.6587 15.1144 33.1827 15.6569M36.6418 18.6073C36.5496 18.9996 36.4152 19.3334 36.2385 19.6088C36.0619 19.8843 35.8621 20.0428 35.6394 20.0846C35.6164 20.0929 35.5818 20.0971 35.5357 20.0971C35.4051 20.0971 35.3398 19.9886 35.3398 19.7716C35.3322 19.588 35.4781 19.058 35.7777 18.1816C36.0772 17.3053 36.2232 16.6501 36.2155 16.2161C36.2078 15.7821 36.0772 15.4524 35.8237 15.2271C35.5703 15.0018 35.2361 14.8891 34.8214 14.8891C34.2223 14.8891 33.6884 15.1562 33.2199 15.6903M33.1827 15.6569L33.1831 15.6565L33.2199 15.6903M33.1827 15.6569C33.1826 15.657 33.1824 15.6572 33.1823 15.6573L33.2199 15.6903M33.1827 15.6569L33.1204 15.7245M33.2199 15.6903L33.1309 15.787C33.1295 15.769 33.1258 15.748 33.1204 15.7245M33.1204 15.7245L33.0785 15.7701C33.0708 15.7219 33.0488 15.6452 33.0125 15.5401C32.9664 15.4065 32.8512 15.2647 32.6669 15.1144C32.4825 14.9642 32.2521 14.8891 31.9756 14.8891M33.1204 15.7245C33.1181 15.7145 33.1156 15.7041 33.1127 15.6932C33.1007 15.6477 33.083 15.5911 33.0598 15.5238C33.0092 15.3773 32.8856 15.2282 32.6984 15.0757C32.504 14.9172 32.2623 14.8393 31.9767 14.8391M33.0931 15.828L33.1162 15.803L33.1251 15.7932C33.1232 15.7909 33.1207 15.7883 33.1174 15.786C33.1097 15.7803 33.1009 15.778 33.0931 15.778V15.803V15.828ZM33.0931 15.828C33.0886 15.828 33.0854 15.8251 33.0835 15.8192L33.0931 15.828ZM31.9767 14.8391C31.9771 14.8391 31.9775 14.8391 31.9779 14.8391L31.9756 14.8891M31.9767 14.8391C31.9763 14.8391 31.9759 14.8391 31.9756 14.8391V14.8891" fill="black" stroke="black" stroke-width="0.1"/>
<path d="M46.4556 15.4004L46.4625 15.3967H46.4752C46.5449 15.3967 46.6062 15.4091 46.6512 15.4416C46.6991 15.4764 46.7207 15.5283 46.7207 15.5884C46.7207 15.5986 46.7183 15.6149 46.7154 15.6321C46.7122 15.6511 46.7075 15.6767 46.7012 15.7086C46.6888 15.7725 46.6701 15.8628 46.6453 15.9795C46.5957 16.2129 46.5213 16.5524 46.4221 16.9981C46.2238 17.8895 45.9264 19.2059 45.5299 20.9472C45.1333 22.6884 44.8332 24.0032 44.6295 24.8916C44.4262 25.7779 44.3183 26.243 44.3067 26.2807C44.2876 26.343 44.2819 26.4243 44.2923 26.5266L44.2926 26.5265V26.5317C44.2926 26.7761 44.3304 26.951 44.3993 27.0633C44.4652 27.1708 44.5617 27.2246 44.6958 27.2254C44.7795 27.2145 44.8777 27.168 44.9912 27.0789C45.0975 26.9676 45.2066 26.7752 45.3164 26.4957C45.4266 26.2152 45.536 25.8517 45.6444 25.4043L45.6443 25.4043L45.6448 25.4028C45.6776 25.2839 45.7082 25.1912 45.7368 25.126C45.751 25.0935 45.7656 25.0659 45.7807 25.0449C45.7936 25.027 45.8119 25.0067 45.837 24.9978C45.8566 24.9885 45.8821 24.984 45.9076 24.9812C45.9372 24.978 45.9745 24.9765 46.0189 24.9765H46.0841H46.1493C46.2339 24.9765 46.3056 24.9885 46.3577 25.0187C46.4139 25.0512 46.4437 25.1032 46.4437 25.1682C46.4437 25.2338 46.426 25.3334 46.3934 25.4634C46.2516 26.0557 46.0876 26.5377 45.9006 26.9083C45.7161 27.2738 45.5604 27.5181 45.4329 27.6315C45.3087 27.7419 45.1519 27.8389 44.9638 27.9231L44.964 27.9236L44.9564 27.9257C44.8629 27.9511 44.7272 27.9628 44.5522 27.9628C44.1747 27.9628 43.8544 27.8722 43.5944 27.688C43.3404 27.508 43.1691 27.3182 43.0881 27.117L43.088 27.117L43.0875 27.1156L43.0041 26.8888L42.9431 26.9551L42.9431 26.9551L42.9422 26.956C42.2955 27.623 41.6316 27.9628 40.9507 27.9628C40.3382 27.9628 39.7987 27.7202 39.334 27.2393C38.8648 26.7537 38.6355 25.9886 38.6355 24.9557C38.6355 24.3825 38.7455 23.7982 38.9646 23.2031C39.1831 22.6094 39.4458 22.0977 39.753 21.6684L39.753 21.6684L39.7539 21.6673C40.2671 20.991 40.7831 20.5184 41.3029 20.254C41.818 19.992 42.2876 19.859 42.7107 19.859C43.3346 19.859 43.8071 20.1144 44.1209 20.6243C44.124 20.6284 44.127 20.6322 44.1298 20.6359L44.5524 18.7823C44.8264 17.5798 44.9784 16.9242 45.0074 16.8209C45.0062 16.6752 44.9687 16.6115 44.9222 16.5899C44.8918 16.5757 44.8268 16.5602 44.7205 16.5454C44.6166 16.5309 44.4786 16.5178 44.3061 16.506H43.9656H43.9436L43.9288 16.4899C43.8955 16.4537 43.8693 16.4223 43.8511 16.3959C43.842 16.3827 43.8342 16.3698 43.8285 16.3574C43.8231 16.3457 43.8178 16.3307 43.8178 16.3144C43.8178 16.2995 43.8208 16.2626 43.8262 16.2077C43.8316 16.1514 43.8398 16.073 43.8507 15.9726L43.8502 15.9725L43.8518 15.9662C43.8794 15.852 43.9122 15.7618 43.9518 15.699C43.9911 15.6365 44.0438 15.5915 44.1122 15.5915C44.1118 15.5915 44.1126 15.5914 44.1153 15.5913C44.1181 15.5911 44.123 15.5908 44.1306 15.5902L44.188 15.5861L44.4099 15.5695C44.6055 15.5547 44.8961 15.5326 45.2817 15.5031C45.6674 15.4736 45.9591 15.45 46.157 15.4323C46.2561 15.4235 46.3313 15.4161 46.383 15.4103C46.4089 15.4074 46.4284 15.4049 46.4419 15.4028C46.4482 15.4018 46.4527 15.401 46.4556 15.4004ZM40.8026 22.5632L40.8025 22.5634C40.4889 23.4919 40.267 24.4556 40.137 25.4547V25.4549V25.4551V25.4553V25.4556V25.4558V25.456V25.4562V25.4564V25.4567V25.4569V25.4571V25.4573V25.4576V25.4578V25.458V25.4582V25.4585V25.4587V25.4589V25.4592V25.4594V25.4596V25.4599V25.4601V25.4603V25.4606V25.4608V25.461V25.4613V25.4615V25.4617V25.462V25.4622V25.4625V25.4627V25.4629V25.4632V25.4634V25.4637V25.4639V25.4642V25.4644V25.4647V25.4649V25.4652V25.4654V25.4657V25.4659V25.4662V25.4664V25.4667V25.4669V25.4672V25.4674V25.4677V25.4679V25.4682V25.4684V25.4687V25.469V25.4692V25.4695V25.4697V25.47V25.4703V25.4705V25.4708V25.471V25.4713V25.4716V25.4718V25.4721V25.4724V25.4726V25.4729V25.4732V25.4734V25.4737V25.474V25.4742V25.4745V25.4748V25.4751V25.4753V25.4756V25.4759V25.4762V25.4764V25.4767V25.477V25.4773V25.4776V25.4778V25.4781V25.4784V25.4787V25.479V25.4792V25.4795V25.4798V25.4801V25.4804V25.4807V25.481V25.4813V25.4815V25.4818V25.4821V25.4824V25.4827V25.483V25.4833V25.4836V25.4839V25.4842V25.4845V25.4848V25.4851V25.4854V25.4857V25.486V25.4863V25.4866V25.4869V25.4872V25.4875V25.4878V25.4881V25.4884V25.4887V25.489V25.4893V25.4896V25.4899V25.4902V25.4905V25.4908V25.4911V25.4915V25.4918V25.4921V25.4924V25.4927V25.493V25.4933V25.4937V25.494V25.4943V25.4946V25.4949V25.4952V25.4956V25.4959V25.4962V25.4965V25.4968V25.4972V25.4975V25.4978V25.4981V25.4985V25.4988V25.4991V25.4995V25.4998V25.5001V25.5004V25.5008V25.5011V25.5014V25.5018V25.5021V25.5024V25.5028V25.5031V25.5034V25.5038V25.5041V25.5045V25.5048V25.5051V25.5055V25.5058V25.5062V25.5065V25.5068V25.5072V25.5075V25.5079V25.5082V25.5086V25.5089V25.5093V25.5096V25.51V25.5103V25.5107V25.511V25.5114V25.5117V25.5121V25.5124V25.5128V25.5131V25.5135V25.5138V25.5142V25.5146V25.5149V25.5153V25.5156V25.516V25.5164V25.5167V25.5171V25.5174V25.5178V25.5182V25.5185V25.5189V25.5193V25.5196V25.52V25.5204V25.5207V25.5211V25.5215V25.5219V25.5222V25.5226V25.523V25.5233V25.5237V25.5241V25.5245V25.5249V25.5252V25.5256V25.526V25.5264V25.5267V25.5271V25.5275V25.5279V25.5283V25.5287V25.529V25.5294V25.5298V25.5302V25.5306V25.531V25.5314V25.5317V25.5321V25.5325V25.5329V25.5333V25.5337V25.5341V25.5345V25.5349V25.5353V25.5357V25.5361V25.5365V25.5369V25.5373V25.5377V25.5381V25.5385V25.5389V25.5393V25.5397V25.5401V25.5405V25.5409V25.5413V25.5417V25.5421V25.5425V25.5429V25.5433V25.5437V25.5441V25.5445V25.545V25.5454V25.5458V25.5462V25.5466V25.547V25.5474V25.5479V25.5483V25.5487V25.5491V25.5495V25.5499V25.5504V25.5508V25.5512V25.5516V25.5521V25.5525V25.5529V25.5533V25.5538V25.5542V25.5546V25.555V25.5555V25.5559V25.5563V25.5567V25.5572V25.5576V25.558V25.5585V25.5589V25.5593V25.5598V25.5602V25.5606V25.5611V25.5615V25.562V25.5624V25.5628V25.5633V25.5637V25.5642V25.5646V25.565V25.5655V25.5659V25.5664V25.5668V25.5673V25.5677V25.5682V25.5686V25.5691V25.5695V25.57V25.5704V25.5709V25.5713V25.5718V25.5722V25.5727V25.5731V25.5736V25.574V25.5745V25.575V25.5754V25.5759V25.5763V25.5768V25.5773V25.5777V25.5782V25.5786V25.5791V25.5796V25.58V25.5805V25.581V25.5814V25.5819V25.5824V25.5828V25.5833V25.5838V25.5843V25.5847V25.5852V25.5857V25.5862V25.5866V25.5871V25.5876V25.5881V25.5885V25.589V25.5895V25.59V25.5904V25.5909V25.5914V25.5919V25.5924V25.5929V25.5933V25.5938V25.5943V25.5948V25.5953V25.5958V25.5963V25.5968V25.5972V25.5977V25.5982V25.5987V25.5992V25.5997V25.6002V25.6007V25.6012V25.6017V25.6022V25.6027V25.6032V25.6037V25.6042V25.6047V25.6052V25.6057V25.6062V25.6067V25.6072V25.6077V25.6082V25.6087V25.6092V25.6097V25.6102V25.6107V25.6112V25.6117V25.6122V25.6128V25.6133V25.6138V25.6143V25.6148V25.6153V25.6158V25.6163V25.6169V25.6174V25.6179V25.6184V25.6189V25.6194V25.62V25.6205V25.621V25.6215V25.6221V25.6226V25.6231V25.6236V25.6242V25.6247V25.6252V25.6257V25.6263V25.6268V25.6273V25.6278V25.6284V25.6289V25.6294V25.63V25.6305V25.631V25.6316V25.6321V25.6326V25.6332V25.6337V25.6343V25.6348V25.6353V25.6359V25.6364V25.637V25.6375V25.638V25.6386V25.6391V25.6397V25.6402V25.6408V25.6413V25.6419V25.6424V25.643V25.6435V25.6441V25.6446V25.6452V25.6457V25.6463C40.137 25.7382 40.132 25.8117 40.1207 25.8642C40.1214 26.3897 40.2193 26.7365 40.3999 26.9217C40.5866 27.1133 40.8079 27.2139 41.0659 27.2254C41.6269 27.2248 42.2163 26.8176 42.8327 25.9718L42.9574 25.7855L43.8326 21.9641C43.709 21.5075 43.5484 21.1699 43.3535 20.9468C43.1582 20.7234 42.9284 20.6142 42.6618 20.6142C42.2994 20.6142 41.9477 20.7882 41.6062 21.1476C41.2647 21.5071 40.9964 21.9783 40.8026 22.5632Z" fill="black" stroke="black" stroke-width="0.1"/>
<path d="M47.4189 22.6181H47.4183L47.4195 22.6106C47.4975 22.1024 47.7968 21.5218 48.3096 20.8696C48.8285 20.2099 49.4722 19.871 50.2385 19.8589H50.2393C50.6295 19.8589 50.9869 19.9681 51.3102 20.1862C51.6055 20.3853 51.8318 20.631 51.9877 20.923C52.4404 20.22 52.9871 19.8589 53.6289 19.8589C54.0428 19.8589 54.4023 19.993 54.7051 20.261C55.01 20.531 55.167 20.8931 55.1782 21.342L55.1782 21.342V21.3432C55.1782 21.6928 55.1005 21.9813 54.9407 22.2046C54.7866 22.4199 54.6322 22.5602 54.4759 22.6124C54.3313 22.6608 54.2009 22.6859 54.0852 22.6859C53.8674 22.6859 53.6857 22.6169 53.5448 22.4765C53.4035 22.3358 53.3345 22.1511 53.3345 21.9276C53.3345 21.6474 53.4047 21.4078 53.5478 21.2119C53.6787 21.0327 53.8682 20.8933 54.113 20.792C54 20.6886 53.8156 20.6318 53.5475 20.6318C53.4088 20.6318 53.3135 20.6435 53.2567 20.6635C52.862 20.8449 52.5658 21.2197 52.3733 21.7998C52.0476 23.1032 51.8035 24.1349 51.6408 24.8952C51.4775 25.6582 51.3975 26.1424 51.3975 26.3544C51.3975 26.6773 51.4823 26.8956 51.6398 27.024C51.8055 27.1591 51.9847 27.2252 52.1786 27.2252C52.563 27.2252 52.9476 27.0393 53.3329 26.6555C53.7172 26.2727 53.979 25.8028 54.1182 25.2445L54.1182 25.2445L54.1185 25.2433C54.1352 25.1829 54.1525 25.1336 54.1709 25.0969C54.1801 25.0785 54.1904 25.0619 54.2019 25.0482C54.2133 25.0348 54.2283 25.0217 54.2475 25.0148C54.2694 25.0068 54.3042 25.0004 54.3474 24.9945C54.3921 24.9885 54.4501 24.9825 54.5211 24.9766L54.5211 24.9764H54.5252H54.5904C54.6751 24.9764 54.7468 24.9884 54.7988 25.0185C54.8551 25.0511 54.8849 25.103 54.8849 25.168C54.8849 25.1752 54.8836 25.1851 54.8823 25.1939C54.8809 25.2041 54.8788 25.2174 54.876 25.2338C54.8705 25.2667 54.8623 25.3128 54.8515 25.3719L54.8516 25.3719L54.8507 25.3753C54.6746 26.0569 54.3334 26.6606 53.8279 27.186C53.3197 27.7142 52.7258 27.9804 52.0482 27.9804C51.6594 27.9804 51.3157 27.8852 51.0188 27.6935C50.7425 27.5151 50.5091 27.2545 50.3179 26.9142C49.8784 27.6051 49.3695 27.9627 48.7889 27.9627H48.6912C48.1496 27.9627 47.7512 27.8063 47.5103 27.4821C47.2768 27.168 47.1531 26.8337 47.1419 26.48L47.1419 26.48V26.4784C47.1419 26.0911 47.2479 25.7717 47.4639 25.5247C47.6786 25.2791 47.9363 25.1535 48.2349 25.1535C48.4769 25.1535 48.6675 25.2178 48.7968 25.3551C48.9256 25.4918 48.9856 25.6923 48.9856 25.9472C48.9856 26.1931 48.9175 26.4103 48.7803 26.5966C48.6479 26.7764 48.5173 26.9018 48.3874 26.9659C48.3273 26.9956 48.2786 27.0183 48.2419 27.0336C48.2307 27.0383 48.2204 27.0424 48.211 27.0459C48.2158 27.0486 48.2208 27.0513 48.2261 27.0542C48.2895 27.0887 48.3749 27.1293 48.4829 27.1763C48.5851 27.2207 48.6793 27.2361 48.7666 27.2256L48.7666 27.2252H48.7726C49.1364 27.2252 49.4599 26.9795 49.7387 26.4552C49.8333 26.2723 49.957 25.8768 50.1093 25.2623C50.2613 24.6487 50.4134 24.0115 50.5654 23.3507C50.7175 22.6895 50.8041 22.3015 50.8256 22.1844C50.8799 21.866 50.9063 21.6396 50.9063 21.5026C50.9063 21.1788 50.8264 20.9601 50.6791 20.832C50.5248 20.6979 50.3516 20.6318 50.1578 20.6318C49.7394 20.6318 49.344 20.8131 48.9708 21.1839C48.5981 21.5542 48.336 22.0295 48.1858 22.6117C48.1747 22.6659 48.1616 22.711 48.1458 22.7453C48.1311 22.7774 48.1088 22.8114 48.0726 22.8245C48.0507 22.8325 48.0159 22.8389 47.9727 22.8448C47.928 22.8508 47.87 22.8568 47.799 22.8628L47.799 22.8629H47.7949H47.5667H47.5448L47.5299 22.8468C47.4613 22.7722 47.4189 22.6956 47.4189 22.6181Z" fill="black" stroke="black" stroke-width="0.1"/>
<path d="M61.5868 21.1931L61.598 21.187H61.6107H71.9915H72.0049L72.0165 21.1938C72.1891 21.2938 72.2859 21.4259 72.2859 21.5912C72.2859 21.7445 72.1948 21.8704 72.0341 21.9701L72.0221 21.9776L72.0079 21.9776L66.8257 21.9953H66.8255H61.6433H61.6351L61.6272 21.9927C61.5331 21.9607 61.4584 21.9113 61.4075 21.8422C61.3565 21.7729 61.3326 21.6881 61.3326 21.5912C61.3326 21.4167 61.4212 21.2831 61.5868 21.1931ZM61.6272 24.625L61.6351 24.6223H61.6433H72.0078H72.0249L72.0384 24.6328C72.1951 24.7544 72.2859 24.8853 72.2859 25.0265C72.2859 25.1126 72.2629 25.1905 72.216 25.2585C72.1694 25.326 72.101 25.3811 72.0141 25.4252L72.0034 25.4306H71.9915H61.6107H61.598L61.5868 25.4245C61.4212 25.3345 61.3326 25.2009 61.3326 25.0265C61.3326 24.9295 61.3565 24.8448 61.4075 24.7755C61.4584 24.7063 61.5331 24.6569 61.6272 24.625Z" fill="black" stroke="black" stroke-width="0.1"/>
<path d="M85.0926 10.6479H85.0921L85.0932 10.6404C85.1712 10.1322 85.4705 9.55154 85.9833 8.89939C86.5022 8.23964 87.1459 7.90075 87.9122 7.88867H87.913C88.3032 7.88867 88.6606 7.99789 88.9839 8.21596C89.2792 8.41512 89.5055 8.66074 89.6614 8.95276C90.1141 8.24974 90.6608 7.88867 91.3026 7.88867C91.7165 7.88867 92.076 8.02277 92.3788 8.2908C92.6837 8.56083 92.8407 8.92285 92.8519 9.37174L92.8519 9.37174V9.37299C92.8519 9.72256 92.7742 10.0111 92.6144 10.2343C92.4603 10.4497 92.3059 10.59 92.1496 10.6422C92.005 10.6906 91.8746 10.7156 91.7589 10.7156C91.5411 10.7156 91.3594 10.6466 91.2185 10.5063C91.0772 10.3656 91.0082 10.1809 91.0082 9.95734C91.0082 9.67718 91.0784 9.43763 91.2215 9.24168C91.3524 9.06247 91.5419 8.92305 91.7867 8.82182C91.6737 8.7184 91.4893 8.66156 91.2212 8.66156C91.0825 8.66156 90.9872 8.67324 90.9304 8.69332C90.5357 8.87468 90.2396 9.24947 90.047 9.82963C89.7214 11.133 89.4772 12.1647 89.3145 12.925C89.1512 13.6879 89.0712 14.1722 89.0712 14.3842C89.0712 14.7071 89.156 14.9254 89.3135 15.0538C89.4792 15.1888 89.6584 15.255 89.8523 15.255C90.2367 15.255 90.6213 15.069 91.0066 14.6852C91.3909 14.3025 91.6527 13.8326 91.7919 13.2743L91.7919 13.2743L91.7922 13.2731C91.8089 13.2127 91.8262 13.1634 91.8446 13.1267C91.8539 13.1083 91.8641 13.0917 91.8757 13.078C91.887 13.0646 91.902 13.0515 91.9212 13.0446C91.9431 13.0366 91.9779 13.0302 92.0211 13.0243C92.0658 13.0183 92.1238 13.0123 92.1948 13.0063L92.1948 13.0062H92.1989H92.2641C92.3488 13.0062 92.4205 13.0181 92.4725 13.0483C92.5288 13.0809 92.5586 13.1328 92.5586 13.1978C92.5586 13.205 92.5573 13.2149 92.556 13.2236C92.5546 13.2338 92.5525 13.2472 92.5497 13.2636C92.5442 13.2965 92.536 13.3425 92.5252 13.4017L92.5253 13.4017L92.5244 13.4051C92.3483 14.0866 92.0071 14.6904 91.5016 15.2157C90.9934 15.744 90.3995 16.0102 89.7219 16.0102C89.3331 16.0102 88.9894 15.915 88.6926 15.7233C88.4162 15.5448 88.1829 15.2843 87.9916 14.944C87.5522 15.6349 87.0433 15.9925 86.4626 15.9925H86.3649C85.8233 15.9925 85.4249 15.8361 85.184 15.5119C84.9505 15.1978 84.8269 14.8635 84.8156 14.5098L84.8156 14.5098V14.5082C84.8156 14.1209 84.9216 13.8015 85.1376 13.5545C85.3523 13.3089 85.61 13.1832 85.9086 13.1832C86.1506 13.1832 86.3412 13.2476 86.4705 13.3849C86.5993 13.5216 86.6593 13.7221 86.6593 13.977C86.6593 14.2229 86.5912 14.4401 86.454 14.6264C86.3216 14.8062 86.191 14.9315 86.0611 14.9957C86.001 15.0254 85.9524 15.0481 85.9156 15.0634C85.9044 15.0681 85.8941 15.0722 85.8847 15.0757C85.8895 15.0783 85.8945 15.0811 85.8998 15.084C85.9632 15.1184 86.0487 15.1591 86.1566 15.206C86.2588 15.2504 86.353 15.2659 86.4404 15.2554L86.4403 15.255H86.4463C86.8101 15.255 87.1336 15.0093 87.4124 14.485C87.507 14.3021 87.6307 13.9066 87.783 13.292C87.935 12.6785 88.0871 12.0413 88.2391 11.3804C88.3912 10.7193 88.4778 10.3313 88.4993 10.2142C88.5536 9.89582 88.5801 9.66937 88.5801 9.53236C88.5801 9.20859 88.5001 8.98986 88.3528 8.86179C88.1985 8.72764 88.0253 8.66156 87.8315 8.66156C87.4131 8.66156 87.0177 8.84292 86.6445 9.21367C86.2718 9.58401 86.0097 10.0593 85.8595 10.6415C85.8484 10.6957 85.8353 10.7408 85.8195 10.7751C85.8048 10.8072 85.7825 10.8412 85.7463 10.8543C85.7244 10.8622 85.6896 10.8687 85.6464 10.8746C85.6017 10.8806 85.5438 10.8866 85.4727 10.8925L85.4727 10.8927H85.4686H85.2404H85.2185L85.2036 10.8766C85.135 10.802 85.0926 10.7254 85.0926 10.6479Z" fill="black" stroke="black" stroke-width="0.1"/>
<path d="M93.8079 5.7446H93.8085C93.8085 5.77098 93.82 5.79626 93.8332 5.8177C93.847 5.84029 93.8667 5.86485 93.8909 5.89113L93.9057 5.90728H93.9276H94.089C94.1565 5.90728 94.2137 5.90092 94.2578 5.88579C94.3019 5.87066 94.3414 5.84344 94.3557 5.79682L94.3579 5.78966V5.78566C94.3579 5.78555 94.3579 5.78545 94.3579 5.78533L94.3608 5.77271C94.3636 5.76123 94.3678 5.74469 94.3735 5.72289C94.3849 5.67937 94.4022 5.61597 94.4252 5.53256L94.4258 5.53048L94.4257 5.53047C94.5213 5.11488 94.6285 4.80761 94.7457 4.60539C94.8638 4.40168 94.9842 4.31733 95.1028 4.31733C95.1767 4.31733 95.2294 4.34805 95.2667 4.41403C95.3065 4.48421 95.3294 4.59591 95.3294 4.75558C95.3294 4.90715 95.3253 4.99815 95.3187 5.03447L95.3183 5.03651L95.3183 5.03651C95.3034 5.14213 95.1506 5.81888 94.8583 7.07281C94.7123 7.69886 94.6028 8.18224 94.5297 8.52278C94.4932 8.69301 94.4657 8.82786 94.4474 8.92713C94.4304 9.01903 94.4203 9.08471 94.4192 9.11921C94.4101 9.16667 94.4227 9.21852 94.4468 9.2709C94.4741 9.33026 94.5224 9.38605 94.5874 9.43899C94.6598 9.49805 94.7526 9.52534 94.8609 9.52534C94.9846 9.52534 95.0937 9.49497 95.1857 9.43214C95.2776 9.36946 95.3492 9.27678 95.402 9.15758L95.3563 9.13732M93.8079 5.7446L100.253 7.71013C100.192 7.95217 100.107 8.19003 99.9995 8.42372C99.8919 8.65742 99.7153 8.89111 99.4695 9.1248C99.2237 9.3585 98.9587 9.47117 98.6745 9.46282M93.8079 5.7446L93.8091 5.73702C93.8169 5.68624 93.8285 5.61892 93.8439 5.53524C93.86 5.44792 93.9072 5.28618 93.9838 5.05295C94.0611 4.8179 94.1387 4.61955 94.2168 4.45836C94.2974 4.2919 94.4292 4.13223 94.6096 3.97886C94.7924 3.82336 94.9807 3.74538 95.1731 3.75412M93.8079 5.7446H93.8585C93.8662 5.69453 93.8777 5.62776 93.8931 5.54429C93.9084 5.46083 93.9545 5.30226 94.0313 5.06856C94.1082 4.83487 94.185 4.63874 94.2618 4.48016C94.3386 4.32158 94.4653 4.16718 94.642 4.01695C94.8186 3.86671 94.9953 3.79577 95.172 3.80412M95.3563 9.13732L95.4017 9.15822C95.4134 9.13283 95.4308 9.07592 95.4535 8.99328C95.4767 8.90871 95.5066 8.79271 95.5431 8.64546C95.6162 8.35088 95.7161 7.93015 95.8428 7.3834L95.8429 7.38316L96.2216 5.7122L96.299 5.56797C96.299 5.56796 96.299 5.56795 96.299 5.56794C96.7479 4.73308 97.2911 4.32985 97.9256 4.32985H97.9832C98.1382 4.32985 98.2484 4.38524 98.3222 4.4928C98.3983 4.60368 98.4401 4.77622 98.4402 5.01803C98.4325 5.43576 98.2925 6.06393 98.0164 6.90583C97.878 7.32762 97.774 7.66441 97.7046 7.91591C97.6699 8.04163 97.6437 8.14654 97.6261 8.23037C97.6087 8.31328 97.5991 8.37858 97.5991 8.42372C97.5991 8.67767 97.6839 8.92135 97.8504 9.1539C98.0237 9.39605 98.3024 9.51267 98.6738 9.51282C98.674 9.51282 98.6743 9.51282 98.6745 9.51282V9.46282M95.3563 9.13732C95.3947 9.05386 95.5407 8.46546 95.7941 7.37211M95.3563 9.13732C95.2565 9.36267 95.0913 9.47534 94.8609 9.47534C94.761 9.47534 94.6804 9.4503 94.6189 9.40023C94.5575 9.35015 94.5152 9.30007 94.4922 9.25C94.4692 9.19992 94.4615 9.15819 94.4692 9.1248L95.7941 7.37211M98.6745 9.46282C98.3135 9.46282 98.0523 9.35015 97.891 9.1248C97.7297 8.89946 97.6491 8.66576 97.6491 8.42372C97.6491 8.26515 97.7874 7.76438 98.0639 6.92141C98.3404 6.07845 98.4825 5.44414 98.4902 5.01849C98.4902 4.52606 98.3212 4.27985 97.9832 4.27985H97.9256C97.265 4.27985 96.7082 4.70133 96.255 5.54429L96.1743 5.69453L95.7941 7.37211M98.6745 9.46282L95.7941 7.37211M99.7895 7.51101C99.8015 7.45874 99.8381 7.42279 99.8874 7.40137C99.9349 7.38073 99.9965 7.37218 100.069 7.37218C100.148 7.37218 100.213 7.38053 100.261 7.40137C100.286 7.41203 100.308 7.42699 100.324 7.44809C100.341 7.46987 100.349 7.49533 100.349 7.52234C100.349 7.52825 100.348 7.53411 100.348 7.53656L100.348 7.53664L100.345 7.54935C100.343 7.55888 100.34 7.57165 100.336 7.58746C100.328 7.61913 100.317 7.66423 100.301 7.72264L99.8382 7.52234M99.7895 7.51101C99.7895 7.51105 99.7895 7.51109 99.7895 7.51113L99.8382 7.52234M99.7895 7.51101C99.7895 7.51098 99.7895 7.51094 99.7895 7.5109L99.8382 7.52234M99.7895 7.51101C99.6983 7.89894 99.5658 8.22722 99.3928 8.49688C99.2203 8.76592 99.0307 8.91222 98.8266 8.95046L98.8186 8.95197L98.8188 8.9526C98.8041 8.95792 98.7766 8.96213 98.7321 8.96213C98.6837 8.96213 98.6513 8.94363 98.6281 8.90497C98.6024 8.86226 98.5862 8.79175 98.5862 8.68663V8.68454L98.5862 8.68454C98.5845 8.64468 98.5913 8.58181 98.6084 8.49348C98.6253 8.40601 98.6519 8.29652 98.6881 8.1647C98.7607 7.90112 98.8717 7.55062 99.0214 7.11286C99.3212 6.23581 99.4697 5.57358 99.4619 5.13027C99.454 4.68645 99.32 4.34184 99.0534 4.10477C98.7888 3.86957 98.4419 3.75412 98.0178 3.75412C97.4017 3.75412 96.8551 4.02946 96.3791 4.57193M99.8382 7.52234C99.746 7.91461 99.6116 8.24845 99.4349 8.52388C99.2583 8.7993 99.0586 8.95788 98.8358 8.99961C98.8128 9.00796 98.7782 9.01213 98.7321 9.01213C98.6015 9.01213 98.5362 8.90363 98.5362 8.68663C98.5286 8.50301 98.6745 7.97303 98.9741 7.09668C99.2736 6.22033 99.4196 5.56516 99.4119 5.13116C99.4042 4.69716 99.2736 4.36748 99.0202 4.14214C98.7667 3.91679 98.4326 3.80412 98.0178 3.80412C97.4187 3.80412 96.8848 4.0712 96.4163 4.60535M96.3791 4.57193L96.3795 4.57149L96.4163 4.60535M96.3791 4.57193C96.379 4.57208 96.3788 4.57223 96.3787 4.57238L96.4163 4.60535M96.3791 4.57193L96.3168 4.63958M96.4163 4.60535L96.3273 4.70201C96.3259 4.68406 96.3222 4.66305 96.3168 4.63958M96.3168 4.63958L96.2749 4.68515C96.2672 4.63692 96.2452 4.56024 96.2089 4.45512C96.1628 4.32158 96.0476 4.1797 95.8633 4.02946C95.6789 3.87923 95.4485 3.80412 95.172 3.80412M96.3168 4.63958C96.3146 4.62958 96.312 4.61913 96.3091 4.60828C96.2971 4.56278 96.2794 4.50619 96.2562 4.43881C96.2056 4.29234 96.082 4.14325 95.8948 3.99071C95.7004 3.83227 95.4587 3.75433 95.1731 3.75412M96.2896 4.74306L96.3126 4.71802L96.3216 4.70829C96.3196 4.70589 96.3171 4.70336 96.3138 4.701C96.3061 4.69537 96.2973 4.69306 96.2896 4.69306V4.71802V4.74306ZM96.2896 4.74306C96.285 4.74306 96.2818 4.74011 96.2799 4.7342L96.2896 4.74306ZM95.1731 3.75412C95.1735 3.75414 95.1739 3.75415 95.1743 3.75417L95.172 3.80412M95.1731 3.75412C95.1727 3.75412 95.1724 3.75412 95.172 3.75412V3.80412" fill="black" stroke="black" stroke-width="0.1"/>
<path d="M101.312 5.91354L101.324 5.90748H101.336H104.731L104.731 4.07959L104.731 4.07928L104.743 2.20139L104.743 2.18566L104.752 2.17281C104.83 2.0625 104.916 1.98895 105.012 1.98895C105.139 1.98895 105.23 2.07143 105.288 2.20701L105.292 2.21646V2.22674V5.90748H108.676H108.689L108.701 5.91422C108.825 5.98657 108.898 6.08406 108.898 6.20786C108.898 6.33166 108.825 6.42915 108.701 6.50151L108.689 6.50825H108.676H105.292V10.189V10.2013L105.286 10.2123C105.223 10.3332 105.141 10.4143 105.035 10.4143H105.012H104.989C104.931 10.4143 104.879 10.3956 104.835 10.3586C104.793 10.3224 104.76 10.2706 104.735 10.2073L104.731 10.1985V10.189V6.50825H101.336H101.324L101.312 6.50218C101.249 6.46744 101.2 6.42346 101.168 6.37061L101.125 6.37061V6.37061V6.3706V6.3706V6.37059V6.37058V6.37057V6.37056V6.37055V6.37054V6.37053V6.37051V6.37049V6.37047V6.37046V6.37043V6.37041V6.37039V6.37037V6.37034V6.37031V6.37029V6.37026V6.37023V6.37019V6.37016V6.37013V6.37009V6.37006V6.37002V6.36998V6.36994V6.3699V6.36985V6.36981V6.36976V6.36972V6.36967V6.36962V6.36957V6.36952V6.36947V6.36941V6.36936V6.3693V6.36924V6.36918V6.36912V6.36906V6.369V6.36894V6.36887V6.3688V6.36874V6.36867V6.3686V6.36853V6.36845V6.36838V6.3683V6.36823V6.36815V6.36807V6.36799V6.36791V6.36783V6.36774V6.36766V6.36757V6.36748V6.3674V6.36731V6.36721V6.36712V6.36703V6.36693V6.36684V6.36674V6.36664V6.36654V6.36644V6.36634V6.36623V6.36613V6.36602V6.36592V6.36581V6.3657V6.36559V6.36547V6.36536V6.36524V6.36513V6.36501V6.36489V6.36477V6.36465V6.36453V6.36441V6.36428V6.36416V6.36403V6.3639V6.36377V6.36364V6.36351V6.36337V6.36324V6.3631V6.36297V6.36283V6.36269V6.36255V6.3624V6.36226V6.36212V6.36197V6.36182V6.36167V6.36152V6.36137V6.36122V6.36107V6.36091V6.36076V6.3606V6.36044V6.36028V6.36012V6.35996V6.3598V6.35963V6.35947V6.3593V6.35913V6.35896V6.35879V6.35862V6.35845V6.35827V6.3581V6.35792V6.35774V6.35756V6.35738V6.3572V6.35702V6.35683V6.35665V6.35646V6.35627V6.35608V6.35589V6.3557V6.35551V6.35531V6.35512V6.35492V6.35472V6.35452V6.35432V6.35412V6.35392V6.35371V6.35351V6.3533V6.35309V6.35288V6.35267V6.35246V6.35225V6.35203V6.35182V6.3516V6.35138V6.35116V6.35094V6.35072V6.3505V6.35028V6.35005V6.34982V6.3496V6.34937V6.34914V6.3489V6.34867V6.34844V6.3482V6.34797V6.34773V6.34749V6.34725V6.34701V6.34676V6.34652V6.34627V6.34603V6.34578V6.34553V6.34528V6.34503V6.34478V6.34452V6.34427V6.34401V6.34375V6.3435V6.34324V6.34297V6.34271V6.34245V6.34218V6.34192V6.34165V6.34138V6.34111V6.34084V6.34057V6.34029V6.34002V6.33974V6.33946V6.33918V6.3389V6.33862V6.33834V6.33806V6.33777V6.33749V6.3372V6.33691V6.33662V6.33633V6.33604V6.33574V6.33545V6.33515V6.33485V6.33456V6.33426V6.33395V6.33365V6.33335V6.33304V6.33274V6.33243V6.33212V6.33181V6.3315V6.33119V6.33087V6.33056V6.33024V6.32993V6.32961V6.32929V6.32897V6.32865V6.32832V6.328V6.32767V6.32734V6.32702V6.32669V6.32635V6.32602V6.32569V6.32536V6.32502V6.32468V6.32434V6.324V6.32366V6.32332V6.32298V6.32263V6.32229V6.32194V6.32159V6.32124V6.32089V6.32054V6.32019V6.31983V6.31948V6.31912V6.31876V6.3184V6.31804V6.31768V6.31732V6.31695V6.31659V6.31622V6.31585V6.31548V6.31511V6.31474V6.31437V6.31399V6.31362V6.31324V6.31286V6.31248V6.3121V6.31172V6.31134V6.31095V6.31057V6.31018V6.30979V6.3094V6.30901V6.30862V6.30823V6.30783V6.30744V6.30704V6.30664V6.30624V6.30584V6.30544V6.30504V6.30463V6.30423V6.30382V6.30341V6.303V6.30259V6.30218V6.30177V6.30136V6.30094V6.30052V6.30011V6.29969V6.29927V6.29884V6.29842V6.298V6.29757V6.29715V6.29672V6.29629V6.29586V6.29543V6.295V6.29456V6.29413V6.29369V6.29325V6.29281V6.29237V6.29193V6.29149V6.29104V6.2906V6.29015V6.28971V6.28926V6.28881V6.28836V6.2879V6.28745V6.28699V6.28654V6.28608V6.28562V6.28516V6.2847V6.28424V6.28377V6.28331V6.28284V6.28237V6.28191V6.28144V6.28096V6.28049V6.28002V6.27954V6.27907V6.27859V6.27811V6.27763V6.27715V6.27667V6.27618V6.2757V6.27521V6.27473V6.27424V6.27375V6.27326V6.27276V6.27227V6.27178V6.27128V6.27078V6.27028V6.26978V6.26928V6.26878V6.26828V6.26777V6.26727V6.26676V6.26625V6.26574V6.26523V6.26472V6.2642V6.26369V6.26317V6.26266V6.26214V6.26162V6.2611V6.26058V6.26005V6.25953V6.259V6.25847V6.25795V6.25742V6.25689V6.25635V6.25582V6.25529V6.25475V6.25421V6.25367V6.25314V6.25259V6.25205V6.25151V6.25097V6.25042V6.24987V6.24932V6.24877V6.24822V6.24767V6.24712V6.24656V6.24601V6.24545V6.24489V6.24433V6.24377V6.24321V6.24265V6.24208V6.24152V6.24095V6.24038V6.23981V6.23924V6.23867V6.2381V6.23752V6.23695V6.23637V6.23579V6.23522V6.23463V6.23405V6.23347V6.23289V6.2323V6.23171V6.23113V6.23054V6.22995V6.22935V6.22876V6.22817V6.22757V6.22698V6.22638V6.22578V6.22518V6.22458V6.22397V6.22337V6.22276V6.22216V6.22155V6.22094V6.22033V6.21972V6.21911V6.21849V6.21788V6.21726V6.21664V6.21602V6.2154V6.21478V6.21416V6.21354V6.21291V6.21228V6.21166V6.21103V6.2104V6.20977V6.20913V6.2085V6.20786C101.125 6.07835 101.191 5.97935 101.312 5.91354Z" fill="black" stroke="black" stroke-width="0.1"/>
<path d="M110.448 1.75105H110.666C111.022 1.73448 111.351 1.67271 111.653 1.56612C111.96 1.45785 112.169 1.35972 112.285 1.27275C112.405 1.18324 112.509 1.09407 112.599 1.0053C112.617 0.980774 112.645 0.968031 112.671 0.96096C112.7 0.953055 112.735 0.949821 112.776 0.949821C112.858 0.949821 112.934 0.979955 113.003 1.03618L113.022 1.05118V1.07494L113.022 4.81804L113.022 4.81819L113.033 8.55413C113.079 8.60236 113.115 8.62943 113.141 8.64079C113.155 8.64664 113.183 8.65419 113.228 8.66248C113.273 8.67056 113.331 8.67876 113.404 8.68705C113.547 8.70339 113.782 8.71176 114.112 8.71176H114.412H114.462V8.76176V9.33765V9.38765H114.412H114.285V9.38825L114.277 9.38705C114.201 9.37516 114.012 9.36575 113.705 9.35947C113.4 9.35322 112.983 9.35009 112.453 9.35009C111.931 9.35009 111.52 9.35322 111.219 9.35947C110.916 9.36575 110.729 9.37516 110.652 9.38705L110.652 9.38765H110.644H110.506H110.456V9.33765V8.76176V8.71176H110.506H110.806H110.807H110.808H110.809H110.81H110.811H110.812H110.813H110.814H110.815H110.816H110.817H110.817H110.818H110.819H110.82H110.821H110.822H110.823H110.824H110.825H110.826H110.827H110.828H110.829H110.83H110.831H110.832H110.833H110.834H110.835H110.836H110.837H110.838H110.839H110.84H110.841H110.842H110.843H110.844H110.845H110.846H110.847H110.848H110.849H110.85H110.851H110.852H110.853H110.854H110.854H110.855H110.856H110.857H110.858H110.859H110.86H110.861H110.862H110.863H110.864H110.865H110.866H110.867H110.868H110.869H110.87H110.871H110.872H110.873H110.874H110.875H110.876H110.877H110.877H110.878H110.879H110.88H110.881H110.882H110.883H110.884H110.885H110.886H110.887H110.888H110.889H110.89H110.891H110.892H110.893H110.894H110.895H110.895H110.896H110.897H110.898H110.899H110.9H110.901H110.902H110.903H110.904H110.905H110.906H110.907H110.908H110.909H110.91H110.91H110.911H110.912H110.913H110.914H110.915H110.916H110.917H110.918H110.919H110.92H110.921H110.922H110.923H110.923H110.924H110.925H110.926H110.927H110.928H110.929H110.93H110.931H110.932H110.933H110.934H110.935H110.935H110.936H110.937H110.938H110.939H110.94H110.941H110.942H110.943H110.944H110.945H110.946H110.946H110.947H110.948H110.949H110.95H110.951H110.952H110.953H110.954H110.955H110.956H110.956H110.957H110.958H110.959H110.96H110.961H110.962H110.963H110.964H110.965H110.965H110.966H110.967H110.968H110.969H110.97H110.971H110.972H110.973H110.974H110.974H110.975H110.976H110.977H110.978H110.979H110.98H110.981H110.982H110.982H110.983H110.984H110.985H110.986H110.987H110.988H110.989H110.99H110.99H110.991H110.992H110.993H110.994H110.995H110.996H110.997H110.998H110.998H110.999H111H111.001H111.002H111.003H111.004H111.005H111.005H111.006H111.007H111.008H111.009H111.01H111.011H111.012H111.012H111.013H111.014H111.015H111.016H111.017H111.018H111.019H111.019H111.02H111.021H111.022H111.023H111.024H111.025H111.026H111.026H111.027H111.028H111.029H111.03H111.031H111.032H111.032H111.033H111.034H111.035H111.036H111.037H111.038H111.038H111.039H111.04H111.041H111.042H111.043H111.044H111.044H111.045H111.046H111.047H111.048H111.049H111.05H111.05H111.051H111.052H111.053H111.054H111.055H111.055H111.056H111.057H111.058H111.059H111.06H111.061H111.061H111.062H111.063H111.064H111.065H111.066H111.066H111.067H111.068H111.069H111.07H111.071H111.071H111.072H111.073H111.074H111.075H111.076H111.076H111.077H111.078H111.079H111.08H111.081H111.081H111.082H111.083H111.084H111.085H111.086H111.086H111.087H111.088H111.089H111.09H111.091H111.091H111.092H111.093H111.094H111.095H111.095H111.096H111.097H111.098H111.099H111.1H111.1H111.101H111.102H111.103H111.104H111.104H111.105H111.106H111.107H111.108H111.109H111.109H111.11H111.111H111.112H111.113H111.113H111.114H111.115H111.116H111.117H111.117H111.118H111.119H111.12H111.121H111.122H111.122H111.123H111.124H111.125H111.126H111.126H111.127H111.128H111.129H111.13H111.13H111.131H111.132H111.133H111.134H111.134H111.135H111.136H111.137H111.137H111.138H111.139H111.14H111.141H111.141H111.142H111.143H111.144H111.145H111.145H111.146H111.147H111.148H111.149H111.149H111.15H111.151H111.152H111.152H111.153H111.154H111.155H111.156H111.156H111.157H111.158H111.159H111.16H111.16H111.161H111.162H111.163H111.163H111.164H111.165H111.166H111.167H111.167H111.168H111.169H111.17H111.17H111.171H111.172H111.173H111.173H111.174H111.175H111.176H111.177H111.177H111.178H111.179H111.18H111.18H111.181H111.182H111.183H111.183H111.184H111.185H111.186H111.186H111.187H111.188H111.189H111.189H111.19H111.191H111.192H111.193H111.193H111.194H111.195H111.196H111.196H111.197H111.198H111.199H111.199H111.2H111.201H111.202H111.202H111.203H111.204H111.205H111.205H111.206H111.207H111.208H111.208H111.209H111.21H111.211H111.211H111.212H111.213H111.214H111.214H111.215H111.216H111.216H111.217H111.218H111.219H111.219H111.22H111.221H111.222H111.222H111.223H111.224H111.225H111.225H111.226H111.227H111.228H111.228H111.229H111.23H111.23H111.231H111.232H111.233H111.233H111.234H111.235H111.236H111.236H111.237H111.238H111.238H111.239H111.24H111.241H111.241H111.242H111.243H111.243C111.366 8.71176 111.459 8.70759 111.526 8.6996C111.592 8.69154 111.651 8.67955 111.701 8.66393C111.728 8.65552 111.75 8.64906 111.766 8.64465C111.774 8.64246 111.781 8.64065 111.787 8.63935C111.789 8.63904 111.791 8.63866 111.793 8.63829C111.794 8.63717 111.796 8.63574 111.798 8.63393C111.807 8.62503 111.821 8.61069 111.84 8.59019C111.86 8.56878 111.878 8.55113 111.894 8.53974C111.895 8.53919 111.895 8.53863 111.896 8.53805V2.1766L111.816 2.21025L111.816 2.21026L111.815 2.21073C111.703 2.25392 111.547 2.29631 111.346 2.33825C111.144 2.38054 110.918 2.41001 110.671 2.42683L110.671 2.42694H110.667H110.448H110.398V2.37694V1.80105V1.75105H110.448Z" fill="black" stroke="black" stroke-width="0.1"/>
<path d="M81.5527 34.801H81.5533C81.5533 34.8326 81.5672 34.8644 81.5851 34.8936C81.6037 34.9239 81.6305 34.9576 81.6643 34.9943L81.6791 35.0104H81.701H81.9292C82.0238 35.0104 82.1021 35.0014 82.1614 34.9811C82.2206 34.9608 82.2691 34.9258 82.2866 34.8688L82.2888 34.8616V34.8571C82.2889 34.8565 82.2891 34.8556 82.2893 34.8545C82.2902 34.8503 82.2916 34.8442 82.2936 34.8359C82.2975 34.8195 82.3035 34.7959 82.3116 34.765C82.3278 34.7034 82.3522 34.6136 82.3848 34.4956L82.3854 34.4935L82.3853 34.4935C82.5207 33.905 82.6729 33.468 82.8402 33.1793C83.0085 32.8891 83.1842 32.7615 83.3633 32.7615C83.4753 32.7615 83.5566 32.8091 83.6131 32.9088C83.6719 33.0127 83.7044 33.175 83.7044 33.4021C83.7044 33.6159 83.6988 33.7467 83.6889 33.8003L83.6885 33.8024L83.6886 33.8024C83.6673 33.953 83.4509 34.9116 83.0375 36.6844C82.8311 37.5699 82.6762 38.2534 82.5729 38.7349C82.5213 38.9756 82.4824 39.1661 82.4565 39.3063C82.432 39.4386 82.4181 39.5304 82.417 39.5765C82.4047 39.6379 82.4206 39.7071 82.4541 39.78C82.491 39.8602 82.5568 39.9367 82.6472 40.0104C82.7452 40.0902 82.8714 40.1279 83.0211 40.1279C83.1925 40.1279 83.3425 40.0858 83.4689 39.9997C83.595 39.9136 83.694 39.7859 83.7675 39.62L83.7218 39.5998M81.5527 34.801L90.6477 37.5811C90.5608 37.9235 90.4413 38.2599 90.2892 38.5904C90.1371 38.921 89.8872 39.2515 89.5396 39.5821C89.1919 39.9126 88.8171 40.072 88.4151 40.0602M81.5527 34.801L81.5538 34.7934C81.5648 34.7219 81.5812 34.6269 81.603 34.5087C81.6254 34.3867 81.6917 34.1593 81.8002 33.8292C81.9093 33.4973 82.0187 33.2177 82.1286 32.9908C82.2411 32.7586 82.4255 32.5349 82.679 32.3193C82.9351 32.1015 83.1965 31.9942 83.4622 32.0063M81.5527 34.801H81.6033M83.7218 39.5998L83.7672 39.6207C83.7829 39.5866 83.807 39.508 83.8393 39.3906C83.872 39.2712 83.9142 39.1073 83.9659 38.8991C84.0692 38.4826 84.2105 37.8876 84.3898 37.1143L84.3898 37.1141L84.9261 34.7479L85.0369 34.5414C85.037 34.5414 85.037 34.5414 85.037 34.5414C85.6736 33.3571 86.4476 32.7792 87.3559 32.7792H87.4374C87.6624 32.7792 87.8251 32.8601 87.9339 33.0187C88.045 33.1806 88.1043 33.4297 88.1044 33.7735C88.0936 34.3677 87.8947 35.2587 87.5039 36.45C87.3083 37.0464 87.1613 37.5224 87.0632 37.8777C87.0142 38.0553 86.9772 38.2032 86.9525 38.3212C86.9279 38.4383 86.9148 38.5289 86.9148 38.5904C86.9148 38.9447 87.033 39.2852 87.2663 39.6112C87.5065 39.9467 87.8934 40.11 88.4144 40.1102C88.4146 40.1102 88.4149 40.1102 88.4151 40.1102V40.0602M83.7218 39.5998C83.5806 39.9185 83.347 40.0779 83.0211 40.0779C82.8798 40.0779 82.7657 40.0425 82.6788 39.9716C82.5919 39.9008 82.5322 39.83 82.4996 39.7591C82.467 39.6883 82.4561 39.6293 82.467 39.5821C82.467 39.4286 82.6734 38.4665 83.0862 36.6957C83.4991 34.925 83.7164 33.9629 83.7381 33.8094M83.7218 39.5998C83.7761 39.4817 83.9825 38.6495 84.3411 37.103L84.8788 34.7302L84.9929 34.5177C85.6339 33.3254 86.4216 32.7292 87.3559 32.7292H87.4374C87.9154 32.7292 88.1544 33.0775 88.1544 33.774C88.1435 34.376 87.9425 35.2732 87.5514 36.4655C87.1603 37.6578 86.9648 38.3661 86.9648 38.5904C86.9648 38.9328 87.0788 39.2633 87.307 39.5821C87.5351 39.9008 87.9045 40.0602 88.4151 40.0602M88.4151 40.0602L83.7381 33.8094M90.0124 37.3042C90.0276 37.2381 90.0737 37.1917 90.1389 37.1634C90.2023 37.1358 90.2863 37.1238 90.387 37.1238C90.4977 37.1238 90.5875 37.1356 90.6514 37.1634C90.6839 37.1775 90.7121 37.1968 90.7322 37.2231C90.7529 37.2501 90.7629 37.2816 90.7629 37.3155C90.7629 37.3219 90.7618 37.3286 90.7611 37.3322C90.7603 37.337 90.7591 37.3428 90.7577 37.3493C90.7548 37.3625 90.7506 37.3804 90.7452 37.4027C90.7342 37.4473 90.7179 37.511 90.6962 37.5936L90.0611 37.3155M90.0124 37.3042C90.0124 37.3042 90.0123 37.3043 90.0123 37.3043L90.0611 37.3155M90.0124 37.3042C90.0124 37.3041 90.0124 37.3041 90.0124 37.3041L90.0611 37.3155M90.0124 37.3042C89.883 37.8547 89.6948 38.3213 89.4486 38.7051C89.2028 39.0883 88.9305 39.3003 88.6341 39.3558L88.626 39.3574L88.6263 39.358C88.602 39.3668 88.5602 39.3727 88.4966 39.3727C88.4211 39.3727 88.3685 39.343 88.3317 39.2818C88.2924 39.2166 88.2696 39.1124 88.2696 38.9623V38.9602L88.2695 38.9602C88.2671 38.9013 88.277 38.8105 88.3013 38.6852C88.3254 38.5607 88.363 38.4053 88.4145 38.2186C88.5173 37.8452 88.6744 37.349 88.8862 36.7296C89.3101 35.4894 89.5191 34.5556 89.5081 33.9325C89.4971 33.3088 89.309 32.8275 88.9372 32.4971C88.5676 32.1685 88.0823 32.0063 87.4862 32.0063C86.6219 32.0063 85.854 32.3924 85.1839 33.1562M90.0611 37.3155C89.9307 37.8703 89.7406 38.3425 89.4907 38.7321C89.2408 39.1217 88.9583 39.346 88.6433 39.405C88.6107 39.4168 88.5618 39.4227 88.4966 39.4227C88.3119 39.4227 88.2196 39.2692 88.2196 38.9623C88.2087 38.7026 88.4151 37.953 88.8388 36.7134C89.2625 35.4739 89.469 34.5472 89.4581 33.9334C89.4472 33.3195 89.2625 32.8532 88.904 32.5345C88.5455 32.2157 88.0729 32.0563 87.4862 32.0563C86.6388 32.0563 85.8838 32.4341 85.2211 33.1896M85.1839 33.1562L85.1843 33.1558L85.2211 33.1896M85.1839 33.1562C85.1837 33.1564 85.1836 33.1565 85.1835 33.1567L85.2211 33.1896M85.1839 33.1562L85.0683 33.2818M85.2211 33.1896L85.0755 33.3478C85.0754 33.3294 85.0729 33.3072 85.0683 33.2818M83.7381 33.8094C83.749 33.7504 83.7544 33.6146 83.7544 33.4021M83.7381 33.8094L83.7544 33.4021M85.0683 33.2818L85.0245 33.3294C85.0187 33.2645 84.9864 33.1471 84.9277 32.9771C84.8625 32.7883 84.6996 32.5876 84.4388 32.3751C84.1781 32.1626 83.8522 32.0563 83.4611 32.0563M85.0683 33.2818C85.0638 33.2572 85.0574 33.2295 85.0494 33.1991C85.0327 33.1354 85.0078 33.0559 84.975 32.9608C84.9053 32.759 84.734 32.5511 84.4704 32.3363C84.1996 32.1156 83.8624 32.0066 83.4622 32.0063M85.0418 33.3844L85.0728 33.3507C85.0724 33.3502 85.072 33.3496 85.0715 33.349C85.0698 33.3467 85.0673 33.3441 85.064 33.3417C85.0568 33.3365 85.0487 33.3344 85.0418 33.3344V33.349V33.3844ZM85.0418 33.3844C85.0353 33.3844 85.0308 33.3802 85.0282 33.3719L85.0418 33.3844ZM83.4622 32.0063C83.4626 32.0064 83.463 32.0064 83.4634 32.0064L83.4611 32.0563M83.4622 32.0063C83.4618 32.0063 83.4614 32.0063 83.4611 32.0063V32.0563M83.4611 32.0563C83.2112 32.0445 82.9613 32.1449 82.7114 32.3574C82.4615 32.5699 82.2823 32.7883 82.1736 33.0126C82.065 33.2369 81.9564 33.5143 81.8477 33.8448C81.7391 34.1754 81.6739 34.3997 81.6522 34.5177C81.6304 34.6358 81.6141 34.7302 81.6033 34.801M81.6033 34.801C81.6033 34.8364 81.6359 34.8896 81.701 34.9604L81.6033 34.801ZM83.7544 33.4021C83.7544 32.9417 83.624 32.7115 83.3633 32.7115M83.7544 33.4021L83.3633 32.7115M83.3633 32.7115C82.9504 32.7115 82.6082 33.3018 82.3366 34.4823L83.3633 32.7115Z" fill="black" stroke="black" stroke-width="0.1"/>
<path d="M95.7876 35.0521L95.7764 35.0582C95.6107 35.1482 95.5221 35.2818 95.5221 35.4563V35.4572V35.4581V35.459V35.4599V35.4608V35.4617V35.4625V35.4634V35.4643V35.4652V35.4661V35.467V35.4678V35.4687V35.4696V35.4705V35.4713V35.4722V35.4731V35.4739V35.4748V35.4756V35.4765V35.4774V35.4782V35.4791V35.4799V35.4808V35.4816V35.4825V35.4833V35.4842V35.485V35.4858V35.4867V35.4875V35.4884V35.4892V35.49V35.4909V35.4917V35.4925V35.4933V35.4942V35.495V35.4958V35.4966V35.4974V35.4982V35.4991V35.4999V35.5007V35.5015V35.5023V35.5031V35.5039V35.5047V35.5055V35.5063V35.5071V35.5079V35.5087V35.5095V35.5102V35.511V35.5118V35.5126V35.5134V35.5142V35.5149V35.5157V35.5165V35.5173V35.518V35.5188V35.5196V35.5203V35.5211V35.5218V35.5226V35.5234V35.5241V35.5249V35.5256V35.5264V35.5271V35.5279V35.5286V35.5294V35.5301V35.5308V35.5316V35.5323V35.5331V35.5338V35.5345V35.5353V35.536V35.5367V35.5374V35.5382V35.5389V35.5396V35.5403V35.541V35.5417V35.5425V35.5432V35.5439V35.5446V35.5453V35.546V35.5467V35.5474V35.5481V35.5488V35.5495V35.5502V35.5509V35.5515V35.5522V35.5529V35.5536V35.5543V35.555V35.5556V35.5563V35.557V35.5577V35.5583V35.559V35.5597V35.5604V35.561V35.5617V35.5623V35.563V35.5637V35.5643V35.565V35.5656V35.5663V35.5669V35.5676V35.5682V35.5689V35.5695V35.5701V35.5708V35.5714V35.572V35.5727V35.5733V35.5739V35.5746V35.5752V35.5758V35.5764V35.5771V35.5777V35.5783V35.5789V35.5795V35.5801V35.5808V35.5814V35.582V35.5826V35.5832V35.5838V35.5844V35.585V35.5856V35.5862V35.5868V35.5873V35.5879V35.5885V35.5891V35.5897V35.5903V35.5909V35.5914V35.592V35.5926V35.5932V35.5937V35.5943V35.5949V35.5954V35.596V35.5966V35.5971V35.5977V35.5982V35.5988V35.5994V35.5999V35.6005V35.601V35.6016V35.6021V35.6026V35.6032V35.6037V35.6043V35.6048V35.6053V35.6059V35.6064V35.6069V35.6075V35.608V35.6085V35.609V35.6095V35.6101V35.6106V35.6111V35.6116V35.6121V35.6126V35.6131V35.6137V35.6142V35.6147V35.6152V35.6157V35.6162V35.6167V35.6171V35.6176V35.6181V35.6186V35.6191V35.6196V35.6201V35.6206V35.621V35.6215V35.622V35.6225V35.6229V35.6234V35.6239V35.6244V35.6248V35.6253V35.6257V35.6262V35.6267V35.6271V35.6276V35.628V35.6285V35.6289V35.6294V35.6298V35.6303V35.6307V35.6312V35.6316V35.632V35.6325V35.6329V35.6333V35.6338V35.6342V35.6346V35.6351V35.6355V35.6359V35.6363V35.6367V35.6372V35.6376V35.638V35.6384V35.6388V35.6392V35.6396V35.64V35.6404V35.6408V35.6412V35.6416V35.642V35.6424V35.6428V35.6432V35.6436V35.644V35.6444V35.6448V35.6451V35.6455V35.6459V35.6463V35.6466V35.647V35.6474V35.6478V35.6481V35.6485V35.6489V35.6492V35.6496V35.6499V35.6503V35.6507V35.651V35.6514V35.6517V35.6521V35.6524V35.6528V35.6531V35.6534V35.6538V35.6541V35.6545V35.6548V35.6551V35.6555V35.6558V35.6561V35.6564V35.6568V35.6571V35.6574V35.6577V35.658V35.6584V35.6587V35.659V35.6593V35.6596V35.6599V35.6602V35.6605V35.6608V35.6611V35.6614V35.6617V35.662V35.6623V35.6626V35.6629V35.6632V35.6634V35.6637V35.664V35.6643V35.6646V35.6648V35.6651V35.6654V35.6657V35.6659V35.6662V35.6665V35.6667V35.667V35.6673V35.6675V35.6678V35.668V35.6683V35.6685V35.6688V35.669V35.6693V35.6695V35.6698V35.67V35.6702V35.6705V35.6707V35.671V35.6712V35.6714V35.6716V35.6719V35.6721V35.6723V35.6725V35.6728V35.673V35.6732V35.6734V35.6736V35.6738V35.6741V35.6743V35.6745V35.6747V35.6749V35.6751V35.6753V35.6755V35.6757V35.6759V35.6761V35.6762V35.6764V35.6766V35.6768V35.677V35.6772V35.6774V35.6775V35.6777V35.6779V35.6781V35.6782V35.6784V35.6786V35.6787V35.6789V35.6791V35.6792V35.6794V35.6795V35.6797V35.6798V35.68V35.6801V35.6803V35.6804V35.6806V35.6807V35.6809V35.681V35.6811V35.6813V35.6814V35.6815V35.6817V35.6818V35.6819V35.6821V35.6822V35.6823V35.6824V35.6825V35.6827V35.6828V35.6829V35.683V35.6831V35.6832V35.6833V35.6834V35.6835V35.6836V35.6837V35.6838V35.6839V35.684V35.6841V35.6842V35.6843V35.6844V35.6845V35.6845V35.6846V35.6847V35.6848V35.6849V35.6849V35.685V35.6851V35.6852V35.6852V35.6853V35.6853V35.6854V35.6855V35.6855V35.6856V35.6856V35.6857V35.6857V35.6858V35.6858V35.6859V35.6859V35.686V35.686V35.6861V35.6861V35.6861V35.6862V35.6862V35.6862V35.6863V35.6863V35.6863V35.6863V35.6864V35.6864V35.6864V35.6864V35.6864V35.6864V35.6865V35.6865V35.6865V35.6865V35.6865L95.5721 35.6865L95.5868 35.6865L95.7876 35.0521ZM95.7876 35.0521H95.8003H100.623M95.7876 35.0521H100.623M100.623 35.0521L100.623 32.446L100.623 32.4457L100.639 29.7896L100.639 29.7738L100.648 29.761C100.758 29.6057 100.875 29.5097 100.999 29.5097C101.167 29.5097 101.29 29.6181 101.371 29.8055L101.375 29.815V29.8253V35.0521H106.181H106.194L106.206 35.0589C106.379 35.1589 106.475 35.291 106.475 35.4563C106.475 35.6216 106.379 35.7537 106.206 35.8537L106.194 35.8604H106.181H101.375V41.0873V41.0996L101.369 41.1106C101.28 41.28 101.169 41.3852 101.031 41.3852H100.999H100.966C100.889 41.3852 100.821 41.3605 100.763 41.3114C100.706 41.2631 100.661 41.1931 100.626 41.1056L100.623 41.0968V41.0873V35.8604H95.8003H95.7876L95.7764 35.8544C95.6934 35.8092 95.6297 35.7532 95.5868 35.6865L100.623 35.0521Z" fill="black" stroke="black" stroke-width="0.1"/>
<path d="M112.312 29.1731H112.621C113.127 29.1496 113.594 29.0619 114.023 28.9103C114.457 28.7571 114.755 28.6175 114.923 28.4924C115.093 28.3649 115.242 28.2378 115.37 28.111C115.391 28.0811 115.425 28.0645 115.461 28.0548C115.5 28.0443 115.548 28.0398 115.604 28.0398C115.715 28.0398 115.819 28.0803 115.913 28.1573L115.931 28.1723V28.1961L115.931 33.4905L115.931 33.4906L115.948 38.7831C116.016 38.8558 116.071 38.8982 116.113 38.9164C116.135 38.9257 116.176 38.9367 116.241 38.9485C116.304 38.96 116.387 38.9717 116.49 38.9834C116.693 39.0067 117.028 39.0185 117.495 39.0185H117.918H117.968V39.0685V39.8831V39.9331H117.918H117.739V39.9337L117.732 39.9325C117.621 39.9154 117.352 39.9021 116.919 39.8932C116.488 39.8844 115.898 39.8799 115.148 39.8799C114.409 39.8799 113.827 39.8844 113.401 39.8932C112.974 39.9021 112.707 39.9154 112.597 39.9325L112.597 39.9331H112.59H112.394H112.344V39.8831V39.0685V39.0185H112.394H112.818H112.819H112.82H112.822H112.823H112.825H112.826H112.827H112.829H112.83H112.832H112.833H112.834H112.836H112.837H112.839H112.84H112.841H112.843H112.844H112.846H112.847H112.848H112.85H112.851H112.852H112.854H112.855H112.857H112.858H112.859H112.861H112.862H112.863H112.865H112.866H112.868H112.869H112.87H112.872H112.873H112.874H112.876H112.877H112.879H112.88H112.881H112.883H112.884H112.885H112.887H112.888H112.89H112.891H112.892H112.894H112.895H112.896H112.898H112.899H112.9H112.902H112.903H112.904H112.906H112.907H112.908H112.91H112.911H112.913H112.914H112.915H112.917H112.918H112.919H112.921H112.922H112.923H112.925H112.926H112.927H112.929H112.93H112.931H112.933H112.934H112.935H112.937H112.938H112.939H112.941H112.942H112.943H112.945H112.946H112.947H112.949H112.95H112.951H112.953H112.954H112.955H112.957H112.958H112.959H112.961H112.962H112.963H112.965H112.966H112.967H112.969H112.97H112.971H112.972H112.974H112.975H112.976H112.978H112.979H112.98H112.982H112.983H112.984H112.986H112.987H112.988H112.99H112.991H112.992H112.993H112.995H112.996H112.997H112.999H113H113.001H113.003H113.004H113.005H113.006H113.008H113.009H113.01H113.012H113.013H113.014H113.015H113.017H113.018H113.019H113.021H113.022H113.023H113.025H113.026H113.027H113.028H113.03H113.031H113.032H113.033H113.035H113.036H113.037H113.039H113.04H113.041H113.042H113.044H113.045H113.046H113.048H113.049H113.05H113.051H113.053H113.054H113.055H113.056H113.058H113.059H113.06H113.061H113.063H113.064H113.065H113.067H113.068H113.069H113.07H113.072H113.073H113.074H113.075H113.077H113.078H113.079H113.08H113.082H113.083H113.084H113.085H113.087H113.088H113.089H113.09H113.092H113.093H113.094H113.095H113.097H113.098H113.099H113.1H113.102H113.103H113.104H113.105H113.106H113.108H113.109H113.11H113.111H113.113H113.114H113.115H113.116H113.118H113.119H113.12H113.121H113.123H113.124H113.125H113.126H113.127H113.129H113.13H113.131H113.132H113.134H113.135H113.136H113.137H113.138H113.14H113.141H113.142H113.143H113.144H113.146H113.147H113.148H113.149H113.151H113.152H113.153H113.154H113.155H113.157H113.158H113.159H113.16H113.161H113.163H113.164H113.165H113.166H113.167H113.169H113.17H113.171H113.172H113.173H113.175H113.176H113.177H113.178H113.179H113.181H113.182H113.183H113.184H113.185H113.187H113.188H113.189H113.19H113.191H113.192H113.194H113.195H113.196H113.197H113.198H113.2H113.201H113.202H113.203H113.204H113.205H113.207H113.208H113.209H113.21H113.211H113.212H113.214H113.215H113.216H113.217H113.218H113.219H113.221H113.222H113.223H113.224H113.225H113.226H113.228H113.229H113.23H113.231H113.232H113.233H113.235H113.236H113.237H113.238H113.239H113.24H113.242H113.243H113.244H113.245H113.246H113.247H113.248H113.25H113.251H113.252H113.253H113.254H113.255H113.256H113.258H113.259H113.26H113.261H113.262H113.263H113.264H113.266H113.267H113.268H113.269H113.27H113.271H113.272H113.274H113.275H113.276H113.277H113.278H113.279H113.28H113.281H113.283H113.284H113.285H113.286H113.287H113.288H113.289H113.29H113.292H113.293H113.294H113.295H113.296H113.297H113.298H113.299H113.3H113.302H113.303H113.304H113.305H113.306H113.307H113.308H113.309H113.31H113.312H113.313H113.314H113.315H113.316H113.317H113.318H113.319H113.32H113.321H113.323H113.324H113.325H113.326H113.327H113.328H113.329H113.33H113.331H113.332H113.334H113.335H113.336H113.337H113.338H113.339H113.34H113.341H113.342H113.343H113.344H113.346H113.347H113.348H113.349H113.35H113.351H113.352H113.353H113.354H113.355H113.356H113.357H113.358H113.36H113.361H113.362H113.363H113.364H113.365H113.366H113.367H113.368H113.369H113.37H113.371H113.372H113.373H113.374H113.376H113.377H113.378H113.379H113.38H113.381H113.382H113.383H113.384H113.385H113.386H113.387H113.388H113.389H113.39H113.391H113.392H113.394H113.395H113.396H113.397H113.398H113.399H113.4H113.401H113.402H113.403H113.404H113.405H113.406H113.407H113.408H113.409H113.41H113.411H113.412H113.413H113.414H113.415H113.416H113.417H113.418H113.42H113.421H113.422H113.423H113.424H113.425H113.426H113.427H113.428H113.429H113.43H113.431H113.432H113.433H113.434H113.435H113.436H113.437C113.61 39.0185 113.744 39.0126 113.838 39.0012C113.934 38.9896 114.018 38.9725 114.09 38.9499C114.129 38.9381 114.159 38.929 114.182 38.9229C114.193 38.9198 114.203 38.9173 114.211 38.9156C114.214 38.9149 114.218 38.9141 114.222 38.9134C114.225 38.9112 114.229 38.9079 114.234 38.9031C114.249 38.8898 114.27 38.869 114.296 38.8399C114.324 38.8098 114.349 38.7861 114.369 38.7713C114.373 38.7686 114.377 38.7659 114.381 38.7633V29.7232L114.238 29.7827L114.238 29.7828L114.237 29.7832C114.081 29.8437 113.861 29.9034 113.578 29.9626C113.292 30.0222 112.975 30.0638 112.626 30.0875L112.626 30.0876H112.622H112.312H112.262V30.0376V29.2231V29.1731H112.312Z" fill="black" stroke="black" stroke-width="0.1"/>
<path d="M120.787 23.8403V23.8903H120.737H79.6313H79.5813V23.8403V22.7779V22.7279H79.6313H120.737H120.787V22.7779V23.8403Z" fill="black" stroke="black" stroke-width="0.1"/>
<path d="M127.444 22.9047L127.433 22.9107C127.267 23.0008 127.178 23.1343 127.178 23.3088V23.3097V23.3106V23.3115V23.3124V23.3133V23.3142V23.3151V23.316V23.3168V23.3177V23.3186V23.3195V23.3204V23.3212V23.3221V23.323V23.3239V23.3247V23.3256V23.3265V23.3273V23.3282V23.329V23.3299V23.3308V23.3316V23.3325V23.3333V23.3342V23.335V23.3359V23.3367V23.3375V23.3384V23.3392V23.3401V23.3409V23.3417V23.3426V23.3434V23.3442V23.345V23.3459V23.3467V23.3475V23.3483V23.3492V23.35V23.3508V23.3516V23.3524V23.3532V23.354V23.3548V23.3556V23.3564V23.3572V23.358V23.3588V23.3596V23.3604V23.3612V23.362V23.3628V23.3636V23.3644V23.3651V23.3659V23.3667V23.3675V23.3682V23.369V23.3698V23.3706V23.3713V23.3721V23.3729V23.3736V23.3744V23.3751V23.3759V23.3767V23.3774V23.3782V23.3789V23.3797V23.3804V23.3812V23.3819V23.3826V23.3834V23.3841V23.3849V23.3856V23.3863V23.3871V23.3878V23.3885V23.3892V23.39V23.3907V23.3914V23.3921V23.3928V23.3936V23.3943V23.395V23.3957V23.3964V23.3971V23.3978V23.3985V23.3992V23.3999V23.4006V23.4013V23.402V23.4027V23.4034V23.4041V23.4048V23.4055V23.4061V23.4068V23.4075V23.4082V23.4089V23.4095V23.4102V23.4109V23.4116V23.4122V23.4129V23.4136V23.4142V23.4149V23.4155V23.4162V23.4169V23.4175V23.4182V23.4188V23.4195V23.4201V23.4208V23.4214V23.422V23.4227V23.4233V23.424V23.4246V23.4252V23.4259V23.4265V23.4271V23.4277V23.4284V23.429V23.4296V23.4302V23.4308V23.4315V23.4321V23.4327V23.4333V23.4339V23.4345V23.4351V23.4357V23.4363V23.4369V23.4375V23.4381V23.4387V23.4393V23.4399V23.4405V23.4411V23.4417V23.4422V23.4428V23.4434V23.444V23.4446V23.4451V23.4457V23.4463V23.4468V23.4474V23.448V23.4485V23.4491V23.4497V23.4502V23.4508V23.4513V23.4519V23.4524V23.453V23.4535V23.4541V23.4546V23.4552V23.4557V23.4563V23.4568V23.4573V23.4579V23.4584V23.4589V23.4595V23.46V23.4605V23.461V23.4616V23.4621V23.4626V23.4631V23.4636V23.4642V23.4647V23.4652V23.4657V23.4662V23.4667V23.4672V23.4677V23.4682V23.4687V23.4692V23.4697V23.4702V23.4707V23.4712V23.4716V23.4721V23.4726V23.4731V23.4736V23.4741V23.4745V23.475V23.4755V23.476V23.4764V23.4769V23.4774V23.4778V23.4783V23.4787V23.4792V23.4797V23.4801V23.4806V23.481V23.4815V23.4819V23.4824V23.4828V23.4833V23.4837V23.4841V23.4846V23.485V23.4855V23.4859V23.4863V23.4867V23.4872V23.4876V23.488V23.4884V23.4889V23.4893V23.4897V23.4901V23.4905V23.4909V23.4914V23.4918V23.4922V23.4926V23.493V23.4934V23.4938V23.4942V23.4946V23.495V23.4954V23.4957V23.4961V23.4965V23.4969V23.4973V23.4977V23.4981V23.4984V23.4988V23.4992V23.4996V23.4999V23.5003V23.5007V23.501V23.5014V23.5018V23.5021V23.5025V23.5028V23.5032V23.5035V23.5039V23.5043V23.5046V23.5049V23.5053V23.5056V23.506V23.5063V23.5067V23.507V23.5073V23.5077V23.508V23.5083V23.5086V23.509V23.5093V23.5096V23.5099V23.5103V23.5106V23.5109V23.5112V23.5115V23.5118V23.5121V23.5124V23.5127V23.513V23.5133V23.5136V23.5139V23.5142V23.5145V23.5148V23.5151V23.5154V23.5157V23.516V23.5163V23.5165V23.5168V23.5171V23.5174V23.5177V23.5179V23.5182V23.5185V23.5187V23.519V23.5193V23.5195V23.5198V23.5201V23.5203V23.5206V23.5208V23.5211V23.5213V23.5216V23.5218V23.5221V23.5223V23.5225V23.5228V23.523V23.5233V23.5235V23.5237V23.524V23.5242V23.5244V23.5246V23.5249V23.5251V23.5253V23.5255V23.5257V23.526V23.5262V23.5264V23.5266V23.5268V23.527V23.5272V23.5274V23.5276V23.5278V23.528V23.5282V23.5284V23.5286V23.5288V23.529V23.5292V23.5293V23.5295V23.5297V23.5299V23.5301V23.5302V23.5304V23.5306V23.5308V23.5309V23.5311V23.5313V23.5314V23.5316V23.5318V23.5319V23.5321V23.5322V23.5324V23.5325V23.5327V23.5328V23.533V23.5331V23.5333V23.5334V23.5335V23.5337V23.5338V23.534V23.5341V23.5342V23.5343V23.5345V23.5346V23.5347V23.5348V23.535V23.5351V23.5352V23.5353V23.5354V23.5355V23.5357V23.5358V23.5359V23.536V23.5361V23.5362V23.5363V23.5364V23.5365V23.5366V23.5367V23.5367V23.5368V23.5369V23.537V23.5371V23.5372V23.5372V23.5373V23.5374V23.5375V23.5375V23.5376V23.5377V23.5378V23.5378V23.5379V23.538V23.538V23.5381V23.5381V23.5382V23.5382V23.5383V23.5383V23.5384V23.5384V23.5385V23.5385V23.5386V23.5386V23.5386V23.5387V23.5387V23.5387V23.5388V23.5388V23.5388V23.5389V23.5389V23.5389V23.5389V23.5389V23.539V23.539V23.539V23.539V23.539V23.539V23.539V23.539L127.228 23.539L127.243 23.539L127.444 22.9047ZM127.444 22.9047H127.456H132.279M127.444 22.9047H132.279M132.279 22.9047L132.279 20.2985L132.279 20.2982L132.295 17.6421L132.295 17.6264L132.305 17.6135C132.414 17.4582 132.531 17.3622 132.655 17.3622C132.824 17.3622 132.946 17.4706 133.027 17.6581L133.031 17.6675V17.6778V22.9047H137.837H137.851L137.862 22.9114C138.035 23.0114 138.132 23.1435 138.132 23.3088C138.132 23.4741 138.035 23.6062 137.862 23.7062L137.851 23.713H137.837H133.031V28.9398V28.9522L133.025 28.9631C132.936 29.1325 132.825 29.2377 132.688 29.2377H132.655H132.622C132.546 29.2377 132.477 29.2131 132.419 29.164C132.362 29.1156 132.317 29.0457 132.283 28.9582L132.279 28.9493V28.9398V23.713H127.456H127.444L127.433 23.7069C127.349 23.6618 127.286 23.6057 127.243 23.539L132.279 22.9047Z" fill="black" stroke="black" stroke-width="0.1"/>
<path d="M150.6 15.2195H150.6C151.589 15.2195 152.38 15.5244 152.967 16.1381L152.967 16.138L152.969 16.1407C153.067 16.259 153.149 16.3596 153.214 16.4427C153.279 16.5252 153.324 16.5864 153.348 16.6246L153.349 16.6237L153.349 16.6242C153.368 16.6071 153.392 16.5839 153.42 16.5542C153.492 16.4786 153.593 16.3643 153.723 16.2111L153.723 16.2109L153.727 16.2069C153.802 16.1371 153.883 16.0554 153.969 15.9617L154.23 15.6784C154.317 15.5832 154.368 15.5219 154.387 15.4913L154.386 15.4908L154.393 15.4836L154.637 15.218L154.652 15.2018H154.674H154.772C154.851 15.2018 154.918 15.2123 154.967 15.2389C154.992 15.2526 155.014 15.2711 155.028 15.2954C155.043 15.3198 155.05 15.3472 155.05 15.3758C155.05 15.3832 155.049 15.3929 155.047 15.4011C155.046 15.4107 155.044 15.4231 155.041 15.4382C155.036 15.4684 155.027 15.5103 155.016 15.5639C154.995 15.6712 154.962 15.826 154.919 16.0282C154.832 16.4327 154.701 17.0275 154.527 17.8125L154.527 17.8133C154.332 18.6338 154.185 19.2505 154.087 19.6637C154.038 19.8703 154.002 20.0259 153.977 20.1306C153.965 20.1829 153.956 20.2225 153.95 20.2492L153.943 20.2795L153.942 20.2852V20.2897L153.939 20.2981C153.916 20.3604 153.882 20.4144 153.827 20.434C153.805 20.4422 153.767 20.4486 153.719 20.4544C153.669 20.4604 153.603 20.4664 153.521 20.4723L153.521 20.4724H153.517H153.256H153.234L153.22 20.4563C153.186 20.4196 153.159 20.386 153.14 20.3556C153.122 20.3264 153.109 20.2946 153.109 20.2631C153.109 20.2532 153.11 20.2364 153.113 20.2167C153.116 20.1955 153.12 20.1671 153.125 20.1315C153.136 20.063 153.147 19.9469 153.158 19.7817C153.168 19.6178 153.174 19.43 153.174 19.2183C153.174 18.3872 153.001 17.6639 152.659 17.0469C152.321 16.4399 151.748 16.1281 150.926 16.1164C150.648 16.1164 150.348 16.157 150.026 16.2388C149.703 16.3205 149.315 16.461 148.86 16.6611C148.411 16.8585 147.966 17.1847 147.523 17.6417C147.082 18.0984 146.688 18.6434 146.342 19.2772C145.997 19.9455 145.721 20.7263 145.515 21.6201C145.309 22.5155 145.207 23.2433 145.207 23.8046C145.207 25.14 145.616 26.09 146.425 26.668L146.425 26.6679L146.426 26.669C146.938 27.0626 147.567 27.2607 148.319 27.2607C149.292 27.2607 150.159 26.8662 150.923 26.0719C151.689 25.2745 152.195 24.4082 152.442 23.4731L152.442 23.4722C152.464 23.395 152.484 23.3331 152.501 23.2871C152.509 23.2641 152.517 23.2444 152.525 23.2283C152.532 23.2132 152.541 23.1979 152.551 23.1864C152.566 23.171 152.585 23.1625 152.601 23.1572C152.619 23.1515 152.64 23.1473 152.663 23.1441C152.71 23.1378 152.772 23.1348 152.849 23.1348C152.96 23.1348 153.051 23.1482 153.115 23.1798C153.148 23.1959 153.176 23.2176 153.196 23.2463C153.216 23.2754 153.225 23.3087 153.225 23.3442C153.225 23.4062 153.219 23.4632 153.207 23.5148L153.207 23.5148L153.207 23.5157C152.889 24.7892 152.21 25.884 151.171 26.7993C150.131 27.7149 149.012 28.1752 147.813 28.1752C146.572 28.1752 145.522 27.727 144.665 26.8317C143.807 25.9353 143.38 24.7474 143.38 23.2734C143.38 21.9064 143.746 20.5933 144.478 19.3349C145.21 18.0775 146.133 17.0799 147.248 16.3434C148.363 15.6072 149.48 15.2315 150.6 15.2195Z" fill="black" stroke="black" stroke-width="0.1"/>
</svg>
