<svg width="418" height="28" viewBox="0 0 418 28" fill="none" xmlns="http://www.w3.org/2000/svg">
<path d="M12.401 3.9358L12.401 3.93588L8.87507 17.9823L12.401 3.9358ZM12.401 3.9358C12.4061 3.91554 12.4122 3.89318 12.4188 3.86868C12.4202 3.86366 12.4216 3.85855 12.423 3.85335C12.4312 3.82309 12.44 3.7903 12.448 3.75654C12.4639 3.68952 12.4775 3.61605 12.4775 3.54746C12.4775 3.47606 12.4596 3.41884 12.4289 3.37414C12.3984 3.32974 12.3576 3.301 12.317 3.28249C12.2383 3.24661 12.1544 3.24663 12.1283 3.24663L12.1274 3.24663C12.1218 3.24663 12.0968 3.24849 12.0624 3.25114L11.9155 3.26286C11.7951 3.27267 11.6356 3.286 11.4729 3.30012C11.3103 3.31424 11.1445 3.32915 11.0114 3.3421C10.8843 3.35447 10.7835 3.36538 10.7459 3.37233C10.5416 3.38444 10.3489 3.4023 10.1548 3.42029L10.1317 3.42243C9.92846 3.44124 9.72299 3.45997 9.49895 3.47246L9.49895 3.47244L9.49773 3.47254C9.34185 3.48505 9.21172 3.49615 9.10516 3.51297C8.99897 3.52972 8.91139 3.55279 8.84256 3.59174C8.77171 3.63183 8.72251 3.68772 8.6921 3.76511C8.66253 3.84037 8.65152 3.93396 8.65152 4.04912C8.65152 4.11817 8.66527 4.17619 8.69703 4.22244C8.72908 4.26911 8.77547 4.29797 8.82945 4.31602C8.88263 4.3338 8.94567 4.34195 9.01513 4.34595C9.08456 4.34995 9.1639 4.34995 9.25057 4.34995H9.25167C9.55672 4.34995 9.78544 4.36402 9.95686 4.38864C10.1288 4.41332 10.24 4.44823 10.3122 4.48798C10.3827 4.52682 10.4154 4.56989 10.4322 4.61404C10.45 4.66082 10.452 4.71328 10.452 4.77653C10.452 4.91949 10.4037 5.11442 10.3795 5.18717L10.3794 5.18713L10.3785 5.1908L8.88814 11.1458M12.401 3.9358L8.88814 11.1458M8.88814 11.1458C8.57772 10.491 7.89549 9.59264 6.65097 9.59264C5.21725 9.59264 3.73524 10.5203 2.61416 11.9063C1.49217 13.2934 0.724414 15.1478 0.724414 17.017C0.724414 19.5201 2.19003 21.0051 3.92525 21.0051C4.62616 21.0051 5.2735 20.7303 5.83183 20.3538C6.35494 20.001 6.80242 19.5573 7.14613 19.1607C7.28813 19.8554 7.6379 20.3126 8.04779 20.5979C8.47637 20.8963 8.96814 21.0051 9.35169 21.0051C10.1274 21.0051 10.7417 20.536 11.1969 19.6229L11.1974 19.6218C11.3994 19.1914 11.5878 18.5923 11.7255 18.09C11.7945 17.8385 11.8509 17.6105 11.8902 17.4389C11.9098 17.3532 11.9251 17.2813 11.9356 17.2275C11.9409 17.2006 11.9449 17.178 11.9477 17.1602C11.9503 17.1437 11.9524 17.1281 11.9524 17.1174C11.9524 16.9611 11.8266 16.8416 11.6523 16.8416C11.5918 16.8416 11.5395 16.85 11.4945 16.8723C11.4486 16.8951 11.4147 16.9302 11.3875 16.9757C11.3609 17.0202 11.3399 17.0758 11.3197 17.1414C11.3022 17.198 11.2846 17.2648 11.2642 17.3417C11.2608 17.3543 11.2574 17.3672 11.2539 17.3804L11.2537 17.381C11.0661 18.1214 10.8547 18.8813 10.5637 19.4557C10.2715 20.0325 9.90906 20.4034 9.42671 20.4034C9.25307 20.4034 9.12386 20.3645 9.0268 20.3017C8.92973 20.2389 8.86112 20.15 8.81264 20.0438C8.71454 19.8292 8.70151 19.551 8.70151 19.2996V19.2994C8.70151 19.2007 8.70151 18.6787 8.87505 17.9824L8.88814 11.1458ZM8.48172 12.7808L8.48064 12.7802L8.47796 12.791L7.25288 17.7063C7.24488 17.7336 7.23741 17.7592 7.23036 17.7835C7.18187 17.9501 7.1527 18.0504 7.10279 18.1557C7.04573 18.2762 6.96098 18.4043 6.78618 18.6423C6.51307 18.9909 6.10387 19.4322 5.61815 19.7859C5.13157 20.1403 4.57298 20.4034 4.00027 20.4034C3.50535 20.4034 3.12064 20.1806 2.85746 19.7771C2.59275 19.3712 2.44985 18.78 2.44985 18.0454C2.44985 17.3622 2.64229 16.3201 2.89533 15.3142C3.14813 14.3093 3.45972 13.3472 3.69548 12.8243C4.11818 11.9515 4.62056 11.293 5.13614 10.8533C5.65218 10.4132 6.17874 10.1943 6.65097 10.1943C7.45057 10.1943 7.93066 10.6908 8.21353 11.2213C8.35495 11.4865 8.4459 11.7584 8.50146 11.9767C8.55735 12.1963 8.5765 12.3578 8.5765 12.4018C8.5765 12.4005 8.57649 12.4006 8.57619 12.4026C8.57588 12.4046 8.57526 12.4085 8.57405 12.4151C8.57207 12.4259 8.56915 12.4404 8.56548 12.4576C8.55817 12.492 8.54811 12.5362 8.53725 12.5813C8.52639 12.6265 8.51481 12.6721 8.50447 12.7094C8.49353 12.7488 8.48539 12.7734 8.48172 12.7808Z" fill="black" stroke="#5F5B80" stroke-width="0.1"/>
<path d="M23.272 2.83664L23.2749 2.82853V2.82414C23.2749 2.82412 23.2749 2.8241 23.2749 2.82407C23.2757 2.82113 23.277 2.81671 23.279 2.81065C23.2828 2.79863 23.2885 2.78227 23.2955 2.76259C23.3046 2.73677 23.3158 2.7062 23.3277 2.67354C23.3339 2.65635 23.3404 2.63858 23.3469 2.62062C23.3657 2.56887 23.3847 2.51574 23.399 2.47224C23.4061 2.45054 23.4123 2.43067 23.4168 2.41428C23.4206 2.40005 23.4249 2.38239 23.4249 2.36842C23.4249 2.03653 23.1491 1.84185 22.9248 1.84185L22.924 1.84185C22.8597 1.84184 22.7588 1.84184 22.6489 1.92009C22.5403 1.99737 22.4294 2.14603 22.3277 2.42663L22.3276 2.42695L13.9503 26.0301L13.9475 26.0382V26.0426C13.9474 26.0426 13.9474 26.0426 13.9474 26.0426C13.9467 26.0456 13.9453 26.05 13.9434 26.0561C13.9395 26.0681 13.9339 26.0844 13.9269 26.1041C13.9177 26.1299 13.9066 26.1605 13.8947 26.1932C13.8884 26.2103 13.8819 26.2281 13.8754 26.2461C13.8567 26.2978 13.8377 26.351 13.8234 26.3945C13.8162 26.4162 13.81 26.436 13.8056 26.4524C13.8017 26.4667 13.7974 26.4843 13.7974 26.4983C13.7974 26.8302 14.0733 27.0249 14.2975 27.0249C14.3763 27.0249 14.4832 27.0183 14.5931 26.9366C14.7014 26.856 14.8058 26.7074 14.895 26.4393C14.895 26.4391 14.8951 26.439 14.8951 26.4388L23.272 2.83664Z" fill="black" stroke="#5F5B80" stroke-width="0.1"/>
<path d="M37.3668 3.93556L37.3668 3.93564L33.8409 17.982L37.3668 3.93556ZM37.3668 3.93556C37.3719 3.9153 37.378 3.89293 37.3847 3.86844C37.386 3.86342 37.3874 3.8583 37.3888 3.8531C37.3971 3.82284 37.4058 3.79005 37.4138 3.7563C37.4298 3.68928 37.4433 3.6158 37.4433 3.54722C37.4433 3.47582 37.4254 3.4186 37.3947 3.3739C37.3642 3.32949 37.3234 3.30076 37.2828 3.28225C37.2041 3.24637 37.1202 3.24638 37.0941 3.24639L37.0932 3.24639C37.0876 3.24639 37.0626 3.24824 37.0282 3.2509L36.8813 3.26262C36.7609 3.27243 36.6014 3.28576 36.4388 3.29988C36.2761 3.31399 36.1103 3.3289 35.9772 3.34186C35.8501 3.35423 35.7493 3.36514 35.7117 3.37208C35.5075 3.3842 35.3147 3.40206 35.1206 3.42004L35.0975 3.42218C34.8943 3.441 34.6888 3.45973 34.4648 3.47221L34.4648 3.4722L34.4636 3.4723C34.3077 3.4848 34.1775 3.49591 34.071 3.51272C33.9648 3.52948 33.8772 3.55255 33.8084 3.59149C33.7375 3.63158 33.6883 3.68748 33.6579 3.76487C33.6284 3.84013 33.6173 3.93371 33.6173 4.04888C33.6173 4.11793 33.6311 4.17595 33.6629 4.2222C33.6949 4.26887 33.7413 4.29773 33.7953 4.31577C33.8484 4.33355 33.9115 4.3417 33.981 4.34571C34.0504 4.34971 34.1297 4.34971 34.2164 4.34971H34.2175C34.5225 4.34971 34.7513 4.36378 34.9227 4.38839C35.0946 4.41308 35.2058 4.44798 35.278 4.48773C35.3486 4.52658 35.3812 4.56965 35.398 4.61379C35.4159 4.66058 35.4178 4.71303 35.4178 4.77629C35.4178 4.91924 35.3695 5.11417 35.3454 5.18693L35.3452 5.18688L35.3443 5.19056L33.854 11.1456M37.3668 3.93556L33.854 11.1456M33.854 11.1456C33.5435 10.4907 32.8613 9.59239 31.6168 9.59239C30.1831 9.59239 28.7011 10.5201 27.58 11.906C26.458 13.2931 25.6902 15.1475 25.6902 17.0168C25.6902 19.5199 27.1559 21.0048 28.8911 21.0048C29.592 21.0048 30.2393 20.7301 30.7977 20.3535C31.3208 20.0008 31.7682 19.557 32.1119 19.1604C32.2539 19.8551 32.6037 20.3123 33.0136 20.5977C33.4422 20.896 33.934 21.0048 34.3175 21.0048C35.0933 21.0048 35.7076 20.5358 36.1628 19.6227L36.1633 19.6216C36.3652 19.1911 36.5537 18.592 36.6914 18.0898C36.7603 17.8383 36.8167 17.6103 36.856 17.4387C36.8756 17.3529 36.891 17.281 36.9014 17.2272C36.9067 17.2004 36.9108 17.1777 36.9136 17.16C36.9162 17.1434 36.9182 17.1279 36.9182 17.1171C36.9182 16.9608 36.7924 16.8414 36.6181 16.8414C36.5577 16.8414 36.5054 16.8497 36.4603 16.8721C36.4144 16.8949 36.3805 16.9299 36.3533 16.9755C36.3267 17.0199 36.3057 17.0755 36.2855 17.1412C36.2681 17.1978 36.2504 17.2645 36.23 17.3414C36.2266 17.3541 36.2232 17.367 36.2197 17.3802L36.2196 17.3808C36.0319 18.1212 35.8205 18.881 35.5295 19.4555C35.2373 20.0322 34.8749 20.4032 34.3925 20.4032C34.2189 20.4032 34.0897 20.3642 33.9926 20.3014C33.8955 20.2387 33.8269 20.1497 33.7785 20.0436C33.6804 19.8289 33.6673 19.5507 33.6673 19.2994V19.2992C33.6673 19.2004 33.6673 18.6785 33.8409 17.9821L33.854 11.1456ZM33.4475 12.7805L33.4465 12.78L33.4438 12.7908L32.2187 17.706C32.2107 17.7333 32.2032 17.759 32.1962 17.7832C32.1477 17.9499 32.1185 18.0501 32.0686 18.1555C32.0116 18.276 31.9268 18.4041 31.752 18.6421C31.4789 18.9906 31.0697 19.4319 30.584 19.7857C30.0974 20.1401 29.5388 20.4032 28.9661 20.4032C28.4712 20.4032 28.0865 20.1804 27.8233 19.7768C27.5586 19.3709 27.4157 18.7797 27.4157 18.0452C27.4157 17.362 27.6081 16.3198 27.8611 15.3139C28.114 14.309 28.4255 13.347 28.6613 12.824C29.084 11.9513 29.5864 11.2928 30.102 10.8531C30.618 10.4129 31.1446 10.1941 31.6168 10.1941C32.4164 10.1941 32.8965 10.6906 33.1794 11.2211C33.3208 11.4863 33.4117 11.7582 33.4673 11.9765C33.5232 12.196 33.5423 12.3575 33.5423 12.4015C33.5423 12.4003 33.5423 12.4003 33.542 12.4023C33.5417 12.4043 33.5411 12.4083 33.5399 12.4149C33.5379 12.4256 33.535 12.4401 33.5313 12.4573C33.524 12.4917 33.5139 12.536 33.5031 12.5811C33.4922 12.6262 33.4806 12.6719 33.4703 12.7091C33.4594 12.7486 33.4512 12.7732 33.4475 12.7805Z" fill="black" stroke="#5F5B80" stroke-width="0.1"/>
<path d="M49.1795 10.45C48.4478 10.6431 48.1665 11.2288 48.1665 11.6994C48.1665 12.0154 48.2921 12.2309 48.4673 12.366C48.6405 12.4997 48.8583 12.552 49.0417 12.552C49.8239 12.552 50.367 11.8729 50.367 11.1726C50.367 10.6232 50.0528 10.2264 49.6107 9.96933C49.1699 9.713 48.598 9.59258 48.0664 9.59258C47.2859 9.59258 46.68 9.9779 46.2429 10.4195C45.8652 10.8011 45.6109 11.2272 45.4754 11.4914C45.1764 10.6133 44.6589 10.1383 44.1536 9.88326C43.6277 9.61794 43.1186 9.59258 42.8901 9.59258C41.5915 9.59258 40.6032 10.4289 39.9428 11.3248C39.6121 11.7735 39.3617 12.2393 39.194 12.628C39.1101 12.8224 39.0466 12.9979 39.0041 13.1429C38.9619 13.2865 38.939 13.4038 38.939 13.4803C38.939 13.6113 39.0646 13.756 39.2641 13.756C39.3793 13.756 39.4553 13.7116 39.5081 13.6511C39.5484 13.6049 39.5752 13.5483 39.5959 13.5046C39.6005 13.4948 39.6048 13.4857 39.6089 13.4775L39.6096 13.4778L39.612 13.4698C40.4564 10.7046 42.1139 10.1942 42.8151 10.1942C43.3583 10.1942 43.6802 10.4467 43.869 10.7714C44.0598 11.0994 44.1154 11.5033 44.1154 11.7997C44.1154 12.3217 43.9794 12.8671 43.7027 13.9765C43.6909 14.0234 43.679 14.0714 43.6668 14.1203L43.6668 14.1204L42.8166 17.5567C42.6297 18.3063 42.3567 19.0203 41.9684 19.5457C41.5809 20.0701 41.0818 20.4034 40.4394 20.4034C40.3236 20.4034 39.786 20.4028 39.2994 20.1471C40.1249 19.9226 40.3144 19.1985 40.3144 18.8982C40.3144 18.6341 40.2152 18.4196 40.0509 18.2716C39.8872 18.1241 39.6621 18.0456 39.4141 18.0456C38.7875 18.0456 38.1138 18.5936 38.1138 19.425C38.1138 19.9739 38.4214 20.3709 38.8606 20.6282C39.2985 20.8847 39.8705 21.005 40.4144 21.005C41.6003 21.005 42.4451 20.0974 42.9768 19.1067C43.4182 20.5214 44.6502 21.005 45.5658 21.005C46.8643 21.005 47.8526 20.1687 48.5131 19.2728C48.8438 18.8241 49.0941 18.3583 49.2619 17.9696C49.3458 17.7752 49.4092 17.5997 49.4518 17.4547C49.494 17.3111 49.5168 17.1938 49.5168 17.1173C49.5168 16.961 49.391 16.8416 49.2168 16.8416C49.1561 16.8416 49.1052 16.85 49.0621 16.8683C49.0182 16.8868 48.985 16.9144 48.9584 16.9487C48.9325 16.9822 48.9132 17.0216 48.8962 17.0631C48.885 17.0905 48.8738 17.121 48.8622 17.1528C48.8566 17.1684 48.8508 17.1842 48.8448 17.2001L48.8447 17.2001L48.8439 17.203C48.1725 19.3977 46.7364 20.4034 45.6408 20.4034C45.2169 20.4034 44.8945 20.2462 44.6768 19.9679C44.4577 19.688 44.3404 19.2801 44.3404 18.7728C44.3404 18.2392 44.4345 17.8499 44.8158 16.2727L44.839 16.1766L44.8392 16.1759L45.7142 12.7653L45.7143 12.765C45.9006 12.0177 46.204 11.3734 46.6007 10.917C46.9968 10.4612 47.484 10.1942 48.0414 10.1942C48.0881 10.1942 48.6846 10.1949 49.1795 10.45Z" fill="black" stroke="#5F5B80" stroke-width="0.1"/>
<path d="M57.6295 27.0249H57.6795V26.9749V26.0468V25.9968H57.6295H55.2538V2.86992H57.6295H57.6795V2.81992V1.89185V1.84185H57.6295H54.2786H54.2286V1.89185V26.9749V27.0249H54.2786H57.6295Z" fill="black" stroke="#5F5B80" stroke-width="0.1"/>
<path d="M64.0303 10.671H65.5702C65.4324 11.3865 65.244 12.3963 65.0322 13.5305C64.5428 16.152 63.9293 19.4386 63.5313 21.2959L63.5311 21.2968C63.3182 22.3895 63.1191 23.3873 62.8182 24.1121C62.5169 24.838 62.1229 25.2696 61.5297 25.2696H61.5296C61.4934 25.2696 61.298 25.2696 61.0569 25.2114C60.8424 25.1597 60.5949 25.0627 60.391 24.8817C60.9754 24.8063 61.2813 24.5129 61.4391 24.2243C61.6045 23.9217 61.6047 23.6295 61.6047 23.614C61.6047 23.3498 61.5055 23.1354 61.3412 22.9874C61.1775 22.8399 60.9524 22.7613 60.7044 22.7613C60.1816 22.7613 59.4041 23.2054 59.4041 24.1909C59.4041 24.7497 59.69 25.1715 60.0978 25.4517C60.5044 25.7311 61.0336 25.8713 61.5297 25.8713C62.1838 25.8713 62.7396 25.5765 63.2076 25.1203C63.675 24.6645 64.057 24.0457 64.3662 23.3908C64.9846 22.0811 65.3168 20.6153 65.4545 19.9879C65.8976 18.0862 67.0904 11.5997 67.2484 10.671H69.3317H69.3335C69.4571 10.671 69.5651 10.671 69.6563 10.6633C69.7477 10.6557 69.8276 10.6401 69.8928 10.6056C70.0314 10.5322 70.0819 10.3867 70.0819 10.1444C70.0819 10.0754 70.0682 10.0167 70.034 9.96987C69.9996 9.92285 69.9494 9.89455 69.8898 9.87696C69.8308 9.85956 69.7588 9.85151 69.6756 9.84754C69.5924 9.84356 69.4945 9.84356 69.3827 9.84356H69.3817H67.4162C67.8859 7.29148 68.2319 5.53327 68.43 4.73855C68.5766 4.15049 69.0872 3.59756 69.7068 3.59756C70.164 3.59756 70.6206 3.77321 70.8849 3.96476C70.4492 4.03531 70.1538 4.23485 69.9646 4.47273C69.7601 4.72999 69.6818 5.02965 69.6818 5.2532C69.6818 5.51734 69.781 5.7318 69.9453 5.87981C70.109 6.02727 70.3341 6.10586 70.5821 6.10586C71.1049 6.10586 71.8824 5.66175 71.8824 4.6763C71.8824 4.1305 71.6094 3.70853 71.1981 3.42488C70.788 3.14207 70.2399 2.9959 69.6818 2.9959C68.5831 2.9959 67.5179 3.81369 67.0116 4.80398C66.5594 5.68595 66.3086 6.5925 65.7388 9.84356H64.1053H64.1038C63.9862 9.84356 63.8799 9.84356 63.7877 9.85077C63.6953 9.85799 63.6125 9.8727 63.5436 9.90463C63.4729 9.93733 63.4179 9.98758 63.3817 10.0622C63.3462 10.1351 63.3301 10.2283 63.3301 10.3451C63.3301 10.4175 63.3398 10.4793 63.3679 10.5291C63.3971 10.581 63.4427 10.6135 63.5014 10.6337C63.5583 10.6534 63.6297 10.6622 63.7152 10.6666C63.8009 10.671 63.9051 10.671 64.0291 10.671H64.0303Z" fill="black" stroke="#5F5B80" stroke-width="0.1"/>
<path d="M76.9741 22.3814L76.9742 22.3816C77.7143 23.8915 78.5987 25.0556 79.3332 25.8426C79.7003 26.2361 80.0304 26.5358 80.2867 26.7375C80.4148 26.8382 80.5251 26.9151 80.6129 26.967C80.6567 26.993 80.6957 27.0132 80.7291 27.0271C80.7612 27.0404 80.7928 27.0499 80.8201 27.0499C80.8773 27.0499 80.9447 27.0358 80.9993 26.9967C81.0561 26.9559 81.0952 26.8906 81.0952 26.7993V26.7981C81.0952 26.7793 81.0952 26.7559 81.0864 26.7268C81.0776 26.6978 81.0611 26.6662 81.0329 26.6262C80.977 26.5471 80.8678 26.4252 80.6555 26.2122C78.1673 23.6913 76.769 19.5674 76.769 14.4584C76.769 9.60019 77.9423 5.42668 80.8297 2.47976C80.9542 2.3673 81.0212 2.29457 81.0563 2.2381C81.0746 2.20877 81.0849 2.18294 81.0902 2.15755C81.0952 2.13366 81.0952 2.112 81.0952 2.09406V2.09251C81.0952 2.00115 81.0561 1.93584 80.9993 1.8951C80.9447 1.85599 80.8773 1.84185 80.8201 1.84185C80.7899 1.84185 80.7555 1.8519 80.7203 1.86658C80.6841 1.88168 80.6425 1.9036 80.5964 1.93147C80.5042 1.98723 80.3907 2.06887 80.2612 2.17355C80.0019 2.38304 79.6751 2.6873 79.3206 3.06803C78.6117 3.82942 77.7897 4.8993 77.1744 6.13355C75.8951 8.67483 75.3187 11.3666 75.3187 14.4584C75.3187 16.6951 75.6693 19.6883 76.9741 22.3814Z" fill="black" stroke="#5F5B80" stroke-width="0.1"/>
<path d="M94.156 10.45C93.4244 10.6431 93.1431 11.2288 93.1431 11.6994C93.1431 12.0154 93.2686 12.2309 93.4438 12.366C93.617 12.4997 93.8349 12.552 94.0183 12.552C94.8005 12.552 95.3436 11.8729 95.3436 11.1726C95.3436 10.6232 95.0293 10.2264 94.5873 9.96933C94.1465 9.713 93.5746 9.59258 93.043 9.59258C92.2625 9.59258 91.6566 9.9779 91.2195 10.4195C90.8418 10.8011 90.5875 11.2272 90.452 11.4914C90.153 10.6133 89.6355 10.1383 89.1301 9.88326C88.6043 9.61794 88.0951 9.59258 87.8666 9.59258C86.5681 9.59258 85.5798 10.4289 84.9194 11.3248C84.5886 11.7735 84.3383 12.2393 84.1705 12.628C84.0867 12.8224 84.0232 12.9979 83.9806 13.1429C83.9384 13.2865 83.9156 13.4038 83.9156 13.4803C83.9156 13.6113 84.0412 13.756 84.2407 13.756C84.3559 13.756 84.4319 13.7116 84.4847 13.6511C84.525 13.6049 84.5518 13.5483 84.5725 13.5046C84.5771 13.4948 84.5814 13.4857 84.5855 13.4775L84.5861 13.4778L84.5886 13.4698C85.433 10.7046 87.0904 10.1942 87.7916 10.1942C88.3349 10.1942 88.6568 10.4467 88.8456 10.7714C89.0363 11.0994 89.092 11.5033 89.092 11.7997C89.092 12.3217 88.9559 12.8671 88.6792 13.9765C88.6675 14.0234 88.6556 14.0714 88.6433 14.1203L88.6433 14.1204L87.7931 17.5567C87.6063 18.3063 87.3332 19.0203 86.9449 19.5457C86.5575 20.0701 86.0583 20.4034 85.416 20.4034C85.3001 20.4034 84.7626 20.4028 84.276 20.1471C85.1015 19.9226 85.2909 19.1985 85.2909 18.8982C85.2909 18.6341 85.1918 18.4196 85.0275 18.2716C84.8637 18.1241 84.6387 18.0456 84.3907 18.0456C83.7641 18.0456 83.0904 18.5936 83.0904 19.425C83.0904 19.9739 83.3979 20.3709 83.8372 20.6282C84.275 20.8847 84.847 21.005 85.391 21.005C86.5769 21.005 87.4217 20.0974 87.9534 19.1067C88.3948 20.5214 89.6268 21.005 90.5423 21.005C91.8409 21.005 92.8292 20.1687 93.4896 19.2728C93.8204 18.8241 94.0707 18.3583 94.2384 17.9696C94.3223 17.7752 94.3858 17.5997 94.4284 17.4547C94.4705 17.3111 94.4934 17.1938 94.4934 17.1173C94.4934 16.961 94.3676 16.8416 94.1933 16.8416C94.1326 16.8416 94.0818 16.85 94.0386 16.8683C93.9948 16.8868 93.9616 16.9144 93.935 16.9487C93.909 16.9822 93.8898 17.0216 93.8728 17.0631C93.8615 17.0905 93.8504 17.121 93.8388 17.1528C93.8331 17.1684 93.8273 17.1842 93.8214 17.2001L93.8213 17.2001L93.8204 17.203C93.1491 19.3977 91.713 20.4034 90.6174 20.4034C90.1935 20.4034 89.8711 20.2462 89.6534 19.9679C89.4343 19.688 89.317 19.2801 89.317 18.7728C89.317 18.2392 89.4111 17.8499 89.7923 16.2727L89.8156 16.1766L89.8157 16.1759L90.6908 12.7653L90.6909 12.765C90.8771 12.0177 91.1806 11.3734 91.5772 10.917C91.9733 10.4612 92.4606 10.1942 93.018 10.1942C93.0646 10.1942 93.6611 10.1949 94.156 10.45Z" fill="black" stroke="#5F5B80" stroke-width="0.1"/>
<path d="M101.801 6.51052L101.801 6.5102C101.061 5.0003 100.176 3.8362 99.442 3.04918C99.0748 2.6557 98.7447 2.35604 98.4884 2.15433C98.3604 2.05355 98.2501 1.97669 98.1623 1.92475C98.1184 1.8988 98.0794 1.87859 98.046 1.86472C98.014 1.85138 97.9824 1.84185 97.955 1.84185C97.8979 1.84185 97.8305 1.85599 97.7759 1.8951C97.719 1.93584 97.68 2.00115 97.68 2.09251C97.68 2.09291 97.68 2.09331 97.68 2.09371C97.68 2.11248 97.68 2.13594 97.6888 2.165C97.6975 2.19398 97.714 2.22556 97.7423 2.26558C97.7982 2.34472 97.9073 2.46659 98.1196 2.67955C100.608 5.20038 102.006 9.32431 102.006 14.4334C102.006 19.2916 100.833 23.4651 97.9454 26.412C97.8209 26.5245 97.754 26.5972 97.7188 26.6537C97.7005 26.683 97.6902 26.7089 97.6849 26.7342C97.68 26.7581 97.68 26.7798 97.68 26.7977L97.68 26.7993C97.68 26.8906 97.719 26.9559 97.7759 26.9967C97.8305 27.0358 97.8979 27.0499 97.955 27.0499C97.9853 27.0499 98.0196 27.0399 98.0548 27.0252C98.0911 27.0101 98.1327 26.9882 98.1787 26.9603C98.2709 26.9046 98.3844 26.8229 98.5139 26.7182C98.7732 26.5088 99.1 26.2045 99.4545 25.8238C100.163 25.0623 100.985 23.9924 101.601 22.7581C102.88 20.1919 103.456 17.4752 103.456 14.4584C103.456 12.5487 103.206 9.42984 101.801 6.51052Z" fill="black" stroke="#5F5B80" stroke-width="0.1"/>
<path d="M122.554 22.3814L122.554 22.3816C123.294 23.8915 124.179 25.0556 124.913 25.8426C125.28 26.2361 125.61 26.5358 125.867 26.7375C125.995 26.8382 126.105 26.9151 126.193 26.967C126.237 26.993 126.276 27.0132 126.309 27.0271C126.341 27.0404 126.373 27.0499 126.4 27.0499C126.457 27.0499 126.525 27.0358 126.579 26.9967C126.636 26.9559 126.675 26.8906 126.675 26.7993V26.7981C126.675 26.7793 126.675 26.7559 126.666 26.7268C126.658 26.6978 126.641 26.6662 126.613 26.6262C126.557 26.5471 126.448 26.4252 126.236 26.2122C123.747 23.6913 122.349 19.5674 122.349 14.4584C122.349 9.60019 123.522 5.42668 126.41 2.47976C126.534 2.3673 126.601 2.29457 126.636 2.2381C126.655 2.20877 126.665 2.18294 126.67 2.15755C126.675 2.13366 126.675 2.112 126.675 2.09406V2.09251C126.675 2.00115 126.636 1.93584 126.579 1.8951C126.525 1.85599 126.457 1.84185 126.4 1.84185C126.37 1.84185 126.336 1.8519 126.3 1.86658C126.264 1.88168 126.223 1.9036 126.176 1.93147C126.084 1.98723 125.971 2.06887 125.841 2.17355C125.582 2.38304 125.255 2.6873 124.901 3.06803C124.192 3.82942 123.37 4.8993 122.755 6.13355C121.475 8.67483 120.899 11.3666 120.899 14.4584C120.899 16.6951 121.249 19.6883 122.554 22.3814Z" fill="black" stroke="#5F5B80" stroke-width="0.1"/>
<path d="M139.736 10.45C139.004 10.6431 138.723 11.2288 138.723 11.6994C138.723 12.0154 138.849 12.2309 139.024 12.366C139.197 12.4997 139.415 12.552 139.598 12.552C140.381 12.552 140.924 11.8729 140.924 11.1726C140.924 10.6232 140.609 10.2264 140.167 9.96933C139.727 9.713 139.155 9.59258 138.623 9.59258C137.843 9.59258 137.237 9.9779 136.8 10.4195C136.422 10.8011 136.168 11.2272 136.032 11.4914C135.733 10.6133 135.216 10.1383 134.71 9.88326C134.184 9.61794 133.675 9.59258 133.447 9.59258C132.148 9.59258 131.16 10.4289 130.499 11.3248C130.169 11.7735 129.918 12.2393 129.751 12.628C129.667 12.8224 129.603 12.9979 129.561 13.1429C129.519 13.2865 129.496 13.4038 129.496 13.4803C129.496 13.6113 129.621 13.756 129.821 13.756C129.936 13.756 130.012 13.7116 130.065 13.6511C130.105 13.6049 130.132 13.5483 130.153 13.5046C130.157 13.4948 130.161 13.4857 130.166 13.4775L130.166 13.4778L130.169 13.4698C131.013 10.7046 132.67 10.1942 133.372 10.1942C133.915 10.1942 134.237 10.4467 134.426 10.7714C134.616 11.0994 134.672 11.5033 134.672 11.7997C134.672 12.3217 134.536 12.8671 134.259 13.9765C134.248 14.0234 134.236 14.0714 134.223 14.1203L134.223 14.1204L133.373 17.5567C133.186 18.3063 132.913 19.0203 132.525 19.5457C132.138 20.0701 131.638 20.4034 130.996 20.4034C130.88 20.4034 130.343 20.4028 129.856 20.1471C130.682 19.9226 130.871 19.1985 130.871 18.8982C130.871 18.6341 130.772 18.4196 130.608 18.2716C130.444 18.1241 130.219 18.0456 129.971 18.0456C129.344 18.0456 128.67 18.5936 128.67 19.425C128.67 19.9739 128.978 20.3709 129.417 20.6282C129.855 20.8847 130.427 21.005 130.971 21.005C132.157 21.005 133.002 20.0974 133.533 19.1067C133.975 20.5214 135.207 21.005 136.122 21.005C137.421 21.005 138.409 20.1687 139.07 19.2728C139.4 18.8241 139.651 18.3583 139.819 17.9696C139.902 17.7752 139.966 17.5997 140.008 17.4547C140.051 17.3111 140.073 17.1938 140.073 17.1173C140.073 16.961 139.948 16.8416 139.773 16.8416C139.713 16.8416 139.662 16.85 139.619 16.8683C139.575 16.8868 139.542 16.9144 139.515 16.9487C139.489 16.9822 139.47 17.0216 139.453 17.0631C139.442 17.0905 139.43 17.121 139.419 17.1528C139.413 17.1684 139.407 17.1842 139.401 17.2001L139.401 17.2001L139.4 17.203C138.729 19.3977 137.293 20.4034 136.197 20.4034C135.774 20.4034 135.451 20.2462 135.233 19.9679C135.014 19.688 134.897 19.2801 134.897 18.7728C134.897 18.2392 134.991 17.8499 135.372 16.2727L135.396 16.1766L135.396 16.1759L136.271 12.7653L136.271 12.765C136.457 12.0177 136.761 11.3734 137.157 10.917C137.553 10.4612 138.041 10.1942 138.598 10.1942C138.645 10.1942 139.241 10.1949 139.736 10.45Z" fill="black" stroke="#5F5B80" stroke-width="0.1"/>
<path d="M147.381 6.51052L147.381 6.5102C146.641 5.0003 145.757 3.8362 145.022 3.04918C144.655 2.6557 144.325 2.35604 144.069 2.15433C143.941 2.05355 143.83 1.97669 143.743 1.92475C143.699 1.8988 143.66 1.87859 143.626 1.86472C143.594 1.85138 143.563 1.84185 143.535 1.84185C143.478 1.84185 143.411 1.85599 143.356 1.8951C143.299 1.93584 143.26 2.00115 143.26 2.09251C143.26 2.09291 143.26 2.09331 143.26 2.09371C143.26 2.11248 143.26 2.13594 143.269 2.165C143.278 2.19398 143.294 2.22556 143.323 2.26558C143.378 2.34472 143.488 2.46659 143.7 2.67955C146.188 5.20038 147.586 9.32431 147.586 14.4334C147.586 19.2916 146.413 23.4651 143.526 26.412C143.401 26.5245 143.334 26.5972 143.299 26.6537C143.281 26.683 143.271 26.7089 143.265 26.7342C143.26 26.7581 143.26 26.7798 143.26 26.7977L143.26 26.7993C143.26 26.8906 143.299 26.9559 143.356 26.9967C143.411 27.0358 143.478 27.0499 143.535 27.0499C143.566 27.0499 143.6 27.0399 143.635 27.0252C143.671 27.0101 143.713 26.9882 143.759 26.9603C143.851 26.9046 143.965 26.8229 144.094 26.7182C144.354 26.5088 144.68 26.2045 145.035 25.8238C145.744 25.0623 146.566 23.9924 147.181 22.7581C148.46 20.1919 149.037 17.4752 149.037 14.4584C149.037 12.5487 148.786 9.42984 147.381 6.51052Z" fill="black" stroke="#5F5B80" stroke-width="0.1"/>
<path d="M155.383 1.89185V1.84185H155.333H151.982H151.932V1.89185V2.81992V2.86992H151.982H154.357V25.9968H151.982H151.932V26.0468V26.9749V27.0249H151.982H155.333H155.383V26.9749V1.89185Z" fill="black" stroke="#5F5B80" stroke-width="0.1"/>
<path d="M182.084 12.6272L182.089 12.6272C182.26 12.6272 182.468 12.6273 182.632 12.5678C182.717 12.5373 182.793 12.4902 182.848 12.4168C182.904 12.343 182.934 12.2473 182.934 12.1257C182.934 11.9991 182.906 11.8993 182.853 11.8221C182.8 11.7448 182.726 11.6946 182.643 11.6621C182.481 11.5992 182.273 11.5992 182.09 11.5992L182.084 11.5992H167.355L167.35 11.5992C167.178 11.5992 166.971 11.5992 166.807 11.6586C166.722 11.6891 166.646 11.7362 166.591 11.8096C166.535 11.8834 166.505 11.9792 166.505 12.1007C166.505 12.2273 166.533 12.3271 166.586 12.4044C166.638 12.4816 166.712 12.5318 166.796 12.5643C166.958 12.6273 167.166 12.6273 167.349 12.6272L167.355 12.6272H182.084ZM182.084 17.2927H182.089C182.26 17.2927 182.468 17.2927 182.632 17.2333C182.717 17.2028 182.793 17.1556 182.848 17.0822C182.904 17.0085 182.934 16.9127 182.934 16.7912C182.934 16.6646 182.906 16.5647 182.853 16.4875C182.8 16.4102 182.726 16.3601 182.643 16.3276C182.481 16.2646 182.273 16.2646 182.09 16.2646H182.084H167.355H167.35C167.178 16.2646 166.971 16.2646 166.807 16.324C166.722 16.3545 166.646 16.4017 166.591 16.4751C166.535 16.5488 166.505 16.6446 166.505 16.7661C166.505 16.8927 166.533 16.9926 166.586 17.0698C166.638 17.1471 166.712 17.1972 166.796 17.2297C166.958 17.2927 167.166 17.2927 167.349 17.2927H167.355H182.084Z" fill="black" stroke="#5F5B80" stroke-width="0.1"/>
<path d="M197.046 10.671H198.586C198.449 11.3865 198.26 12.3963 198.048 13.5305C197.559 16.152 196.945 19.4386 196.547 21.2959L196.547 21.2968C196.334 22.3895 196.135 23.3873 195.834 24.1121C195.533 24.838 195.139 25.2696 194.546 25.2696H194.546C194.51 25.2696 194.314 25.2696 194.073 25.2114C193.858 25.1597 193.611 25.0627 193.407 24.8817C193.991 24.8063 194.297 24.5129 194.455 24.2243C194.621 23.9217 194.621 23.6295 194.621 23.614C194.621 23.3498 194.522 23.1354 194.357 22.9874C194.194 22.8399 193.968 22.7613 193.721 22.7613C193.198 22.7613 192.42 23.2054 192.42 24.1909C192.42 24.7497 192.706 25.1715 193.114 25.4517C193.521 25.7311 194.05 25.8713 194.546 25.8713C195.2 25.8713 195.756 25.5765 196.224 25.1203C196.691 24.6645 197.073 24.0457 197.382 23.3908C198.001 22.0811 198.333 20.6153 198.471 19.9879C198.914 18.0862 200.107 11.5997 200.265 10.671H202.348H202.35C202.473 10.671 202.581 10.671 202.672 10.6633C202.764 10.6557 202.844 10.6401 202.909 10.6056C203.047 10.5322 203.098 10.3867 203.098 10.1444C203.098 10.0754 203.084 10.0167 203.05 9.96987C203.016 9.92285 202.965 9.89455 202.906 9.87696C202.847 9.85956 202.775 9.85151 202.692 9.84754C202.608 9.84356 202.511 9.84356 202.399 9.84356H202.398H200.432C200.902 7.29148 201.248 5.53327 201.446 4.73855C201.593 4.15049 202.103 3.59756 202.723 3.59756C203.18 3.59756 203.637 3.77321 203.901 3.96476C203.465 4.03531 203.17 4.23485 202.981 4.47273C202.776 4.72999 202.698 5.02965 202.698 5.2532C202.698 5.51734 202.797 5.7318 202.961 5.87981C203.125 6.02727 203.35 6.10586 203.598 6.10586C204.121 6.10586 204.899 5.66175 204.899 4.6763C204.899 4.1305 204.626 3.70853 204.214 3.42488C203.804 3.14207 203.256 2.9959 202.698 2.9959C201.599 2.9959 200.534 3.81369 200.028 4.80398C199.576 5.68595 199.325 6.5925 198.755 9.84356H197.121H197.12C197.002 9.84356 196.896 9.84356 196.804 9.85077C196.711 9.85799 196.629 9.8727 196.56 9.90463C196.489 9.93733 196.434 9.98758 196.398 10.0622C196.362 10.1351 196.346 10.2283 196.346 10.3451C196.346 10.4175 196.356 10.4793 196.384 10.5291C196.413 10.581 196.459 10.6135 196.517 10.6337C196.574 10.6534 196.646 10.6622 196.731 10.6666C196.817 10.671 196.921 10.671 197.045 10.671H197.046Z" fill="black" stroke="#5F5B80" stroke-width="0.1"/>
<path d="M209.99 22.3814L209.99 22.3816C210.73 23.8915 211.615 25.0556 212.349 25.8426C212.716 26.2361 213.046 26.5358 213.303 26.7375C213.431 26.8382 213.541 26.9151 213.629 26.967C213.673 26.993 213.712 27.0132 213.745 27.0271C213.777 27.0404 213.809 27.0499 213.836 27.0499C213.893 27.0499 213.961 27.0358 214.015 26.9967C214.072 26.9559 214.111 26.8906 214.111 26.7993V26.7981C214.111 26.7793 214.111 26.7559 214.102 26.7268C214.093 26.6978 214.077 26.6662 214.049 26.6262C213.993 26.5471 213.884 26.4252 213.671 26.2122C211.183 23.6913 209.785 19.5674 209.785 14.4584C209.785 9.60019 210.958 5.42668 213.846 2.47976C213.97 2.3673 214.037 2.29457 214.072 2.2381C214.09 2.20877 214.101 2.18294 214.106 2.15755C214.111 2.13366 214.111 2.112 214.111 2.09406V2.09251C214.111 2.00115 214.072 1.93584 214.015 1.8951C213.961 1.85599 213.893 1.84185 213.836 1.84185C213.806 1.84185 213.771 1.8519 213.736 1.86658C213.7 1.88168 213.658 1.9036 213.612 1.93147C213.52 1.98723 213.407 2.06887 213.277 2.17355C213.018 2.38304 212.691 2.6873 212.336 3.06803C211.628 3.82942 210.806 4.8993 210.19 6.13355C208.911 8.67483 208.335 11.3666 208.335 14.4584C208.335 16.6951 208.685 19.6883 209.99 22.3814Z" fill="black" stroke="#5F5B80" stroke-width="0.1"/>
<path d="M227.171 10.45C226.44 10.6431 226.158 11.2288 226.158 11.6994C226.158 12.0154 226.284 12.2309 226.459 12.366C226.632 12.4997 226.85 12.552 227.034 12.552C227.816 12.552 228.359 11.8729 228.359 11.1726C228.359 10.6232 228.045 10.2264 227.603 9.96933C227.162 9.713 226.59 9.59258 226.058 9.59258C225.278 9.59258 224.672 9.9779 224.235 10.4195C223.857 10.8011 223.603 11.2272 223.467 11.4914C223.168 10.6133 222.651 10.1383 222.145 9.88326C221.62 9.61794 221.111 9.59258 220.882 9.59258C219.583 9.59258 218.595 10.4289 217.935 11.3248C217.604 11.7735 217.354 12.2393 217.186 12.628C217.102 12.8224 217.039 12.9979 216.996 13.1429C216.954 13.2865 216.931 13.4038 216.931 13.4803C216.931 13.6113 217.057 13.756 217.256 13.756C217.371 13.756 217.447 13.7116 217.5 13.6511C217.54 13.6049 217.567 13.5483 217.588 13.5046C217.592 13.4948 217.597 13.4857 217.601 13.4775L217.602 13.4778L217.604 13.4698C218.448 10.7046 220.106 10.1942 220.807 10.1942C221.35 10.1942 221.672 10.4467 221.861 10.7714C222.052 11.0994 222.107 11.5033 222.107 11.7997C222.107 12.3217 221.971 12.8671 221.695 13.9765C221.683 14.0234 221.671 14.0714 221.659 14.1203L221.659 14.1204L220.808 17.5567C220.622 18.3063 220.349 19.0203 219.96 19.5457C219.573 20.0701 219.074 20.4034 218.431 20.4034C218.316 20.4034 217.778 20.4028 217.291 20.1471C218.117 19.9226 218.306 19.1985 218.306 18.8982C218.306 18.6341 218.207 18.4196 218.043 18.2716C217.879 18.1241 217.654 18.0456 217.406 18.0456C216.779 18.0456 216.106 18.5936 216.106 19.425C216.106 19.9739 216.413 20.3709 216.853 20.6282C217.29 20.8847 217.862 21.005 218.406 21.005C219.592 21.005 220.437 20.0974 220.969 19.1067C221.41 20.5214 222.642 21.005 223.558 21.005C224.856 21.005 225.845 20.1687 226.505 19.2728C226.836 18.8241 227.086 18.3583 227.254 17.9696C227.338 17.7752 227.401 17.5997 227.444 17.4547C227.486 17.3111 227.509 17.1938 227.509 17.1173C227.509 16.961 227.383 16.8416 227.209 16.8416C227.148 16.8416 227.097 16.85 227.054 16.8683C227.01 16.8868 226.977 16.9144 226.95 16.9487C226.924 16.9822 226.905 17.0216 226.888 17.0631C226.877 17.0905 226.866 17.121 226.854 17.1528C226.849 17.1684 226.843 17.1842 226.837 17.2001L226.837 17.2001L226.836 17.203C226.164 19.3977 224.728 20.4034 223.633 20.4034C223.209 20.4034 222.886 20.2462 222.669 19.9679C222.45 19.688 222.332 19.2801 222.332 18.7728C222.332 18.2392 222.426 17.8499 222.808 16.2727L222.831 16.1766L222.831 16.1759L223.706 12.7653L223.706 12.765C223.893 12.0177 224.196 11.3734 224.593 10.917C224.989 10.4612 225.476 10.1942 226.033 10.1942C226.08 10.1942 226.677 10.1949 227.171 10.45Z" fill="black" stroke="#5F5B80" stroke-width="0.1"/>
<path d="M234.816 6.51052L234.816 6.5102C234.076 5.0003 233.192 3.8362 232.457 3.04918C232.09 2.6557 231.76 2.35604 231.504 2.15433C231.376 2.05355 231.265 1.97669 231.178 1.92475C231.134 1.8988 231.095 1.87859 231.061 1.86472C231.029 1.85138 230.998 1.84185 230.97 1.84185C230.913 1.84185 230.846 1.85599 230.791 1.8951C230.734 1.93584 230.695 2.00115 230.695 2.09251C230.695 2.09291 230.695 2.09331 230.695 2.09371C230.695 2.11248 230.695 2.13594 230.704 2.165C230.713 2.19398 230.729 2.22556 230.758 2.26558C230.814 2.34472 230.923 2.46659 231.135 2.67955C233.623 5.20038 235.022 9.32431 235.022 14.4334C235.022 19.2916 233.848 23.4651 230.961 26.412C230.836 26.5245 230.769 26.5972 230.734 26.6537C230.716 26.683 230.706 26.7089 230.7 26.7342C230.695 26.7581 230.695 26.7798 230.695 26.7977L230.695 26.7993C230.695 26.8906 230.734 26.9559 230.791 26.9967C230.846 27.0358 230.913 27.0499 230.97 27.0499C231.001 27.0499 231.035 27.0399 231.07 27.0252C231.106 27.0101 231.148 26.9882 231.194 26.9603C231.286 26.9046 231.4 26.8229 231.529 26.7182C231.789 26.5088 232.115 26.2045 232.47 25.8238C233.179 25.0623 234.001 23.9924 234.616 22.7581C235.895 20.1919 236.472 17.4752 236.472 14.4584C236.472 12.5487 236.222 9.42984 234.816 6.51052Z" fill="black" stroke="#5F5B80" stroke-width="0.1"/>
<path d="M255.978 2.44127L255.978 2.44129L255.979 2.43927C255.996 2.39453 256.013 2.35255 256.029 2.3131C256.05 2.26054 256.07 2.21245 256.085 2.16826C256.114 2.08757 256.132 2.01071 256.132 1.91971C256.132 1.33434 255.603 0.95 255.115 0.95C254.764 0.95 254.538 1.10509 254.392 1.29107C254.248 1.4748 254.184 1.68778 254.15 1.80551C254.15 1.80557 254.15 1.80563 254.15 1.80568L252.033 9.01163C251.966 9.2133 251.964 9.26939 251.964 9.29412C251.964 9.33726 251.971 9.37532 251.987 9.40869C252.003 9.44237 252.027 9.46837 252.056 9.48919C252.109 9.52822 252.184 9.55122 252.263 9.57519C252.558 9.7066 252.602 9.712 252.648 9.712C252.677 9.712 252.728 9.71171 252.787 9.66599C252.842 9.62276 252.901 9.54255 252.96 9.39718C252.961 9.39702 252.961 9.39687 252.961 9.39672L255.978 2.44127Z" fill="black" stroke="#5F5B80" stroke-width="0.1"/>
<path d="M261.416 22.3814L261.417 22.3816C262.157 23.8915 263.041 25.0556 263.776 25.8426C264.143 26.2361 264.473 26.5358 264.729 26.7375C264.857 26.8382 264.967 26.9151 265.055 26.967C265.099 26.993 265.138 27.0132 265.171 27.0271C265.204 27.0404 265.235 27.0499 265.262 27.0499C265.32 27.0499 265.387 27.0358 265.442 26.9967C265.499 26.9559 265.538 26.8906 265.538 26.7993V26.7981C265.538 26.7793 265.538 26.7559 265.529 26.7268C265.52 26.6978 265.504 26.6662 265.475 26.6262C265.419 26.5471 265.31 26.4252 265.098 26.2122C262.61 23.6913 261.211 19.5674 261.211 14.4584C261.211 9.60019 262.385 5.42668 265.272 2.47976C265.397 2.3673 265.464 2.29457 265.499 2.2381C265.517 2.20877 265.527 2.18294 265.533 2.15755C265.538 2.13366 265.538 2.112 265.538 2.09406V2.09251C265.538 2.00115 265.499 1.93584 265.442 1.8951C265.387 1.85599 265.32 1.84185 265.262 1.84185C265.232 1.84185 265.198 1.8519 265.163 1.86658C265.126 1.88168 265.085 1.9036 265.039 1.93147C264.947 1.98723 264.833 2.06887 264.704 2.17355C264.444 2.38304 264.117 2.6873 263.763 3.06803C263.054 3.82942 262.232 4.8993 261.617 6.13355C260.338 8.67483 259.761 11.3666 259.761 14.4584C259.761 16.6951 260.112 19.6883 261.416 22.3814Z" fill="black" stroke="#5F5B80" stroke-width="0.1"/>
<path d="M278.598 10.45C277.867 10.6431 277.585 11.2288 277.585 11.6994C277.585 12.0154 277.711 12.2309 277.886 12.366C278.059 12.4997 278.277 12.552 278.461 12.552C279.243 12.552 279.786 11.8729 279.786 11.1726C279.786 10.6232 279.472 10.2264 279.03 9.96933C278.589 9.713 278.017 9.59258 277.485 9.59258C276.705 9.59258 276.099 9.9779 275.662 10.4195C275.284 10.8011 275.03 11.2272 274.894 11.4914C274.595 10.6133 274.078 10.1383 273.572 9.88326C273.047 9.61794 272.538 9.59258 272.309 9.59258C271.01 9.59258 270.022 10.4289 269.362 11.3248C269.031 11.7735 268.781 12.2393 268.613 12.628C268.529 12.8224 268.466 12.9979 268.423 13.1429C268.381 13.2865 268.358 13.4038 268.358 13.4803C268.358 13.6113 268.484 13.756 268.683 13.756C268.798 13.756 268.874 13.7116 268.927 13.6511C268.967 13.6049 268.994 13.5483 269.015 13.5046C269.019 13.4948 269.024 13.4857 269.028 13.4775L269.029 13.4778L269.031 13.4698C269.875 10.7046 271.533 10.1942 272.234 10.1942C272.777 10.1942 273.099 10.4467 273.288 10.7714C273.479 11.0994 273.534 11.5033 273.534 11.7997C273.534 12.3217 273.398 12.8671 273.122 13.9765C273.11 14.0234 273.098 14.0714 273.086 14.1203L273.086 14.1204L272.235 17.5567C272.049 18.3063 271.776 19.0203 271.387 19.5457C271 20.0701 270.501 20.4034 269.858 20.4034C269.743 20.4034 269.205 20.4028 268.718 20.1471C269.544 19.9226 269.733 19.1985 269.733 18.8982C269.733 18.6341 269.634 18.4196 269.47 18.2716C269.306 18.1241 269.081 18.0456 268.833 18.0456C268.206 18.0456 267.533 18.5936 267.533 19.425C267.533 19.9739 267.84 20.3709 268.28 20.6282C268.717 20.8847 269.289 21.005 269.833 21.005C271.019 21.005 271.864 20.0974 272.396 19.1067C272.837 20.5214 274.069 21.005 274.985 21.005C276.283 21.005 277.272 20.1687 277.932 19.2728C278.263 18.8241 278.513 18.3583 278.681 17.9696C278.765 17.7752 278.828 17.5997 278.871 17.4547C278.913 17.3111 278.936 17.1938 278.936 17.1173C278.936 16.961 278.81 16.8416 278.636 16.8416C278.575 16.8416 278.524 16.85 278.481 16.8683C278.437 16.8868 278.404 16.9144 278.377 16.9487C278.351 16.9822 278.332 17.0216 278.315 17.0631C278.304 17.0905 278.293 17.121 278.281 17.1528C278.276 17.1684 278.27 17.1842 278.264 17.2001L278.264 17.2001L278.263 17.203C277.591 19.3977 276.155 20.4034 275.06 20.4034C274.636 20.4034 274.313 20.2462 274.096 19.9679C273.877 19.688 273.759 19.2801 273.759 18.7728C273.759 18.2392 273.853 17.8499 274.235 16.2727L274.258 16.1766L274.258 16.1759L275.133 12.7653L275.133 12.765C275.32 12.0177 275.623 11.3734 276.02 10.917C276.416 10.4612 276.903 10.1942 277.46 10.1942C277.507 10.1942 278.104 10.1949 278.598 10.45Z" fill="black" stroke="#5F5B80" stroke-width="0.1"/>
<path d="M286.243 6.51052L286.243 6.5102C285.503 5.0003 284.619 3.8362 283.884 3.04918C283.517 2.6557 283.187 2.35604 282.931 2.15433C282.803 2.05355 282.692 1.97669 282.605 1.92475C282.561 1.8988 282.522 1.87859 282.488 1.86472C282.456 1.85138 282.425 1.84185 282.397 1.84185C282.34 1.84185 282.273 1.85599 282.218 1.8951C282.161 1.93584 282.122 2.00115 282.122 2.09251C282.122 2.09291 282.122 2.09331 282.122 2.09371C282.122 2.11248 282.122 2.13594 282.131 2.165C282.14 2.19398 282.156 2.22556 282.185 2.26558C282.241 2.34472 282.35 2.46659 282.562 2.67955C285.05 5.20038 286.449 9.32431 286.449 14.4334C286.449 19.2916 285.275 23.4651 282.388 26.412C282.263 26.5245 282.196 26.5972 282.161 26.6537C282.143 26.683 282.133 26.7089 282.127 26.7342C282.122 26.7581 282.122 26.7798 282.122 26.7977L282.122 26.7993C282.122 26.8906 282.161 26.9559 282.218 26.9967C282.273 27.0358 282.34 27.0499 282.397 27.0499C282.428 27.0499 282.462 27.0399 282.497 27.0252C282.533 27.0101 282.575 26.9882 282.621 26.9603C282.713 26.9046 282.827 26.8229 282.956 26.7182C283.216 26.5088 283.542 26.2045 283.897 25.8238C284.606 25.0623 285.428 23.9924 286.043 22.7581C287.322 20.1919 287.899 17.4752 287.899 14.4584C287.899 12.5487 287.649 9.42984 286.243 6.51052Z" fill="black" stroke="#5F5B80" stroke-width="0.1"/>
<path d="M305.903 14.96H312.755H312.76C312.932 14.96 313.139 14.96 313.304 14.9006C313.388 14.8701 313.464 14.8229 313.52 14.7495C313.575 14.6758 313.605 14.58 313.605 14.4585C313.605 14.3319 313.577 14.232 313.524 14.1548C313.472 14.0775 313.398 14.0274 313.314 13.9949C313.152 13.9319 312.944 13.9319 312.761 13.9319H312.755H305.903V7.05901V7.05399C305.903 6.88187 305.903 6.67409 305.844 6.5091C305.814 6.42446 305.767 6.34777 305.694 6.29248C305.62 6.23691 305.524 6.20635 305.403 6.20635C305.277 6.20635 305.177 6.23477 305.1 6.28763C305.023 6.34052 304.973 6.4148 304.941 6.49856C304.878 6.66093 304.878 6.86926 304.878 7.05303V7.05901V13.9319H298.026H298.021C297.85 13.9319 297.642 13.9319 297.478 13.9913C297.393 14.0218 297.317 14.069 297.262 14.1424C297.207 14.2161 297.176 14.3119 297.176 14.4334C297.176 14.56 297.204 14.6599 297.257 14.7371C297.31 14.8144 297.384 14.8645 297.467 14.897C297.629 14.96 297.837 14.96 298.02 14.96H298.026H304.878V21.8329V21.8379C304.878 22.01 304.878 22.2178 304.937 22.3828C304.968 22.4674 305.015 22.5441 305.088 22.5994C305.161 22.655 305.257 22.6856 305.378 22.6856C305.505 22.6856 305.604 22.6571 305.681 22.6043C305.758 22.5514 305.808 22.4771 305.841 22.3933C305.903 22.231 305.903 22.0226 305.903 21.8389V21.8329V14.96Z" fill="black" stroke="#5F5B80" stroke-width="0.1"/>
<path d="M337.155 22.3814L337.155 22.3816C337.895 23.8915 338.779 25.0556 339.514 25.8426C339.881 26.2361 340.211 26.5358 340.467 26.7375C340.595 26.8382 340.706 26.9151 340.794 26.967C340.837 26.993 340.876 27.0132 340.91 27.0271C340.942 27.0404 340.973 27.0499 341.001 27.0499C341.058 27.0499 341.125 27.0358 341.18 26.9967C341.237 26.9559 341.276 26.8906 341.276 26.7993V26.7981C341.276 26.7793 341.276 26.7559 341.267 26.7268C341.258 26.6978 341.242 26.6662 341.214 26.6262C341.158 26.5471 341.048 26.4252 340.836 26.2122C338.348 23.6913 336.95 19.5674 336.95 14.4584C336.95 9.60019 338.123 5.42668 341.01 2.47976C341.135 2.3673 341.202 2.29457 341.237 2.2381C341.255 2.20877 341.266 2.18294 341.271 2.15755C341.276 2.13366 341.276 2.112 341.276 2.09406V2.09251C341.276 2.00115 341.237 1.93584 341.18 1.8951C341.125 1.85599 341.058 1.84185 341.001 1.84185C340.971 1.84185 340.936 1.8519 340.901 1.86658C340.865 1.88168 340.823 1.9036 340.777 1.93147C340.685 1.98723 340.571 2.06887 340.442 2.17355C340.183 2.38304 339.856 2.6873 339.501 3.06803C338.792 3.82942 337.97 4.8993 337.355 6.13355C336.076 8.67483 335.499 11.3666 335.499 14.4584C335.499 16.6951 335.85 19.6883 337.155 22.3814Z" fill="black" stroke="#5F5B80" stroke-width="0.1"/>
<path d="M354.336 10.45C353.605 10.6431 353.323 11.2288 353.323 11.6994C353.323 12.0154 353.449 12.2309 353.624 12.366C353.797 12.4997 354.015 12.552 354.199 12.552C354.981 12.552 355.524 11.8729 355.524 11.1726C355.524 10.6232 355.21 10.2264 354.768 9.96933C354.327 9.713 353.755 9.59258 353.223 9.59258C352.443 9.59258 351.837 9.9779 351.4 10.4195C351.022 10.8011 350.768 11.2272 350.632 11.4914C350.333 10.6133 349.816 10.1383 349.311 9.88326C348.785 9.61794 348.276 9.59258 348.047 9.59258C346.749 9.59258 345.76 10.4289 345.1 11.3248C344.769 11.7735 344.519 12.2393 344.351 12.628C344.267 12.8224 344.204 12.9979 344.161 13.1429C344.119 13.2865 344.096 13.4038 344.096 13.4803C344.096 13.6113 344.222 13.756 344.421 13.756C344.536 13.756 344.612 13.7116 344.665 13.6511C344.705 13.6049 344.732 13.5483 344.753 13.5046C344.758 13.4948 344.762 13.4857 344.766 13.4775L344.767 13.4778L344.769 13.4698C345.613 10.7046 347.271 10.1942 347.972 10.1942C348.515 10.1942 348.837 10.4467 349.026 10.7714C349.217 11.0994 349.272 11.5033 349.272 11.7997C349.272 12.3217 349.136 12.8671 348.86 13.9765C348.848 14.0234 348.836 14.0714 348.824 14.1203L348.824 14.1204L347.974 17.5567C347.787 18.3063 347.514 19.0203 347.125 19.5457C346.738 20.0701 346.239 20.4034 345.596 20.4034C345.481 20.4034 344.943 20.4028 344.456 20.1471C345.282 19.9226 345.471 19.1985 345.471 18.8982C345.471 18.6341 345.372 18.4196 345.208 18.2716C345.044 18.1241 344.819 18.0456 344.571 18.0456C343.944 18.0456 343.271 18.5936 343.271 19.425C343.271 19.9739 343.578 20.3709 344.018 20.6282C344.455 20.8847 345.027 21.005 345.571 21.005C346.757 21.005 347.602 20.0974 348.134 19.1067C348.575 20.5214 349.807 21.005 350.723 21.005C352.021 21.005 353.01 20.1687 353.67 19.2728C354.001 18.8241 354.251 18.3583 354.419 17.9696C354.503 17.7752 354.566 17.5997 354.609 17.4547C354.651 17.3111 354.674 17.1938 354.674 17.1173C354.674 16.961 354.548 16.8416 354.374 16.8416C354.313 16.8416 354.262 16.85 354.219 16.8683C354.175 16.8868 354.142 16.9144 354.115 16.9487C354.089 16.9822 354.07 17.0216 354.053 17.0631C354.042 17.0905 354.031 17.121 354.019 17.1528C354.014 17.1684 354.008 17.1842 354.002 17.2001L354.002 17.2001L354.001 17.203C353.33 19.3977 351.893 20.4034 350.798 20.4034C350.374 20.4034 350.052 20.2462 349.834 19.9679C349.615 19.688 349.497 19.2801 349.497 18.7728C349.497 18.2392 349.592 17.8499 349.973 16.2727L349.996 16.1766L349.996 16.1759L350.871 12.7653L350.871 12.765C351.058 12.0177 351.361 11.3734 351.758 10.917C352.154 10.4612 352.641 10.1942 353.198 10.1942C353.245 10.1942 353.842 10.1949 354.336 10.45Z" fill="black" stroke="#5F5B80" stroke-width="0.1"/>
<path d="M361.982 6.51052L361.981 6.5102C361.241 5.0003 360.357 3.8362 359.622 3.04918C359.255 2.6557 358.925 2.35604 358.669 2.15433C358.541 2.05355 358.43 1.97669 358.343 1.92475C358.299 1.8988 358.26 1.87859 358.226 1.86472C358.194 1.85138 358.163 1.84185 358.135 1.84185C358.078 1.84185 358.011 1.85599 357.956 1.8951C357.899 1.93584 357.86 2.00115 357.86 2.09251C357.86 2.09291 357.86 2.09331 357.86 2.09371C357.86 2.11248 357.86 2.13594 357.869 2.165C357.878 2.19398 357.894 2.22556 357.923 2.26558C357.979 2.34472 358.088 2.46659 358.3 2.67955C360.788 5.20038 362.187 9.32431 362.187 14.4334C362.187 19.2916 361.013 23.4651 358.126 26.412C358.001 26.5245 357.934 26.5972 357.899 26.6537C357.881 26.683 357.871 26.7089 357.865 26.7342C357.86 26.7581 357.86 26.7798 357.86 26.7977L357.86 26.7993C357.86 26.8906 357.899 26.9559 357.956 26.9967C358.011 27.0358 358.078 27.0499 358.135 27.0499C358.166 27.0499 358.2 27.0399 358.235 27.0252C358.271 27.0101 358.313 26.9882 358.359 26.9603C358.451 26.9046 358.565 26.8229 358.694 26.7182C358.954 26.5088 359.28 26.2045 359.635 25.8238C360.344 25.0623 361.166 23.9924 361.781 22.7581C363.06 20.1919 363.637 17.4752 363.637 14.4584C363.637 12.5487 363.387 9.42984 361.982 6.51052Z" fill="black" stroke="#5F5B80" stroke-width="0.1"/>
<path d="M371.908 10.671H373.448C373.311 11.3865 373.122 12.3963 372.91 13.5305C372.421 16.152 371.807 19.4386 371.409 21.2959L371.409 21.2968C371.196 22.3895 370.997 23.3873 370.696 24.1121C370.395 24.838 370.001 25.2696 369.408 25.2696H369.408C369.372 25.2696 369.176 25.2696 368.935 25.2114C368.721 25.1597 368.473 25.0627 368.269 24.8817C368.854 24.8063 369.159 24.5129 369.317 24.2243C369.483 23.9217 369.483 23.6295 369.483 23.614C369.483 23.3498 369.384 23.1354 369.219 22.9874C369.056 22.8399 368.831 22.7613 368.583 22.7613C368.06 22.7613 367.282 23.2054 367.282 24.1909C367.282 24.7497 367.568 25.1715 367.976 25.4517C368.383 25.7311 368.912 25.8713 369.408 25.8713C370.062 25.8713 370.618 25.5765 371.086 25.1203C371.553 24.6645 371.935 24.0457 372.244 23.3908C372.863 22.0811 373.195 20.6153 373.333 19.9879C373.776 18.0862 374.969 11.5997 375.127 10.671H377.21H377.212C377.335 10.671 377.443 10.671 377.534 10.6633C377.626 10.6557 377.706 10.6401 377.771 10.6056C377.91 10.5322 377.96 10.3867 377.96 10.1444C377.96 10.0754 377.946 10.0167 377.912 9.96987C377.878 9.92285 377.828 9.89455 377.768 9.87696C377.709 9.85956 377.637 9.85151 377.554 9.84754C377.471 9.84356 377.373 9.84356 377.261 9.84356H377.26H375.294C375.764 7.29148 376.11 5.53327 376.308 4.73855C376.455 4.15049 376.965 3.59756 377.585 3.59756C378.042 3.59756 378.499 3.77321 378.763 3.96476C378.327 4.03531 378.032 4.23485 377.843 4.47273C377.638 4.72999 377.56 5.02965 377.56 5.2532C377.56 5.51734 377.659 5.7318 377.823 5.87981C377.987 6.02727 378.212 6.10586 378.46 6.10586C378.983 6.10586 379.761 5.66175 379.761 4.6763C379.761 4.1305 379.488 3.70853 379.076 3.42488C378.666 3.14207 378.118 2.9959 377.56 2.9959C376.461 2.9959 375.396 3.81369 374.89 4.80398C374.438 5.68595 374.187 6.5925 373.617 9.84356H371.984H371.982C371.864 9.84356 371.758 9.84356 371.666 9.85077C371.573 9.85799 371.491 9.8727 371.422 9.90463C371.351 9.93733 371.296 9.98758 371.26 10.0622C371.224 10.1351 371.208 10.2283 371.208 10.3451C371.208 10.4175 371.218 10.4793 371.246 10.5291C371.275 10.581 371.321 10.6135 371.38 10.6337C371.436 10.6534 371.508 10.6622 371.593 10.6666C371.679 10.671 371.783 10.671 371.907 10.671H371.908Z" fill="black" stroke="#5F5B80" stroke-width="0.1"/>
<path d="M385.26 2.44127L385.26 2.44129L385.261 2.43927C385.278 2.39453 385.295 2.35255 385.311 2.3131C385.333 2.26054 385.352 2.21245 385.368 2.16826C385.396 2.08757 385.414 2.01071 385.414 1.91971C385.414 1.33434 384.885 0.95 384.397 0.95C384.046 0.95 383.82 1.10509 383.674 1.29107C383.53 1.4748 383.466 1.68778 383.432 1.80551C383.432 1.80557 383.432 1.80563 383.432 1.80568L381.315 9.01163C381.248 9.2133 381.246 9.26939 381.246 9.29412C381.246 9.33726 381.254 9.37532 381.27 9.40869C381.286 9.44237 381.309 9.46837 381.338 9.48919C381.391 9.52822 381.466 9.55122 381.546 9.57519C381.841 9.7066 381.884 9.712 381.93 9.712C381.959 9.712 382.01 9.71171 382.069 9.66599C382.125 9.62276 382.183 9.54255 382.243 9.39718C382.243 9.39702 382.243 9.39687 382.243 9.39672L385.26 2.44127Z" fill="black" stroke="#5F5B80" stroke-width="0.1"/>
<path d="M390.699 22.3814L390.699 22.3816C391.439 23.8915 392.324 25.0556 393.058 25.8426C393.425 26.2361 393.756 26.5358 394.012 26.7375C394.14 26.8382 394.25 26.9151 394.338 26.967C394.382 26.993 394.421 27.0132 394.454 27.0271C394.486 27.0404 394.518 27.0499 394.545 27.0499C394.602 27.0499 394.67 27.0358 394.724 26.9967C394.781 26.9559 394.82 26.8906 394.82 26.7993V26.7981C394.82 26.7793 394.82 26.7559 394.811 26.7268C394.803 26.6978 394.786 26.6662 394.758 26.6262C394.702 26.5471 394.593 26.4252 394.381 26.2122C391.892 23.6913 390.494 19.5674 390.494 14.4584C390.494 9.60019 391.667 5.42668 394.555 2.47976C394.679 2.3673 394.746 2.29457 394.781 2.2381C394.8 2.20877 394.81 2.18294 394.815 2.15755C394.82 2.13366 394.82 2.112 394.82 2.09406V2.09251C394.82 2.00115 394.781 1.93584 394.724 1.8951C394.67 1.85599 394.602 1.84185 394.545 1.84185C394.515 1.84185 394.481 1.8519 394.445 1.86658C394.409 1.88168 394.368 1.9036 394.322 1.93147C394.229 1.98723 394.116 2.06887 393.986 2.17355C393.727 2.38304 393.4 2.6873 393.046 3.06803C392.337 3.82942 391.515 4.8993 390.9 6.13355C389.62 8.67483 389.044 11.3666 389.044 14.4584C389.044 16.6951 389.394 19.6883 390.699 22.3814Z" fill="black" stroke="#5F5B80" stroke-width="0.1"/>
<path d="M407.881 10.45C407.149 10.6431 406.868 11.2288 406.868 11.6994C406.868 12.0154 406.993 12.2309 407.169 12.366C407.342 12.4997 407.56 12.552 407.743 12.552C408.525 12.552 409.068 11.8729 409.068 11.1726C409.068 10.6232 408.754 10.2264 408.312 9.96933C407.871 9.713 407.299 9.59258 406.768 9.59258C405.987 9.59258 405.381 9.9779 404.944 10.4195C404.567 10.8011 404.312 11.2272 404.177 11.4914C403.878 10.6133 403.36 10.1383 402.855 9.88326C402.329 9.61794 401.82 9.59258 401.591 9.59258C400.293 9.59258 399.305 10.4289 398.644 11.3248C398.313 11.7735 398.063 12.2393 397.895 12.628C397.812 12.8224 397.748 12.9979 397.705 13.1429C397.663 13.2865 397.64 13.4038 397.64 13.4803C397.64 13.6113 397.766 13.756 397.966 13.756C398.081 13.756 398.157 13.7116 398.21 13.6511C398.25 13.6049 398.277 13.5483 398.297 13.5046C398.302 13.4948 398.306 13.4857 398.31 13.4775L398.311 13.4778L398.313 13.4698C399.158 10.7046 400.815 10.1942 401.516 10.1942C402.06 10.1942 402.382 10.4467 402.57 10.7714C402.761 11.0994 402.817 11.5033 402.817 11.7997C402.817 12.3217 402.681 12.8671 402.404 13.9765C402.392 14.0234 402.38 14.0714 402.368 14.1203L402.368 14.1204L401.518 17.5567C401.331 18.3063 401.058 19.0203 400.67 19.5457C400.282 20.0701 399.783 20.4034 399.141 20.4034C399.025 20.4034 398.487 20.4028 398.001 20.1471C398.826 19.9226 399.016 19.1985 399.016 18.8982C399.016 18.6341 398.917 18.4196 398.752 18.2716C398.589 18.1241 398.364 18.0456 398.116 18.0456C397.489 18.0456 396.815 18.5936 396.815 19.425C396.815 19.9739 397.123 20.3709 397.562 20.6282C398 20.8847 398.572 21.005 399.116 21.005C400.302 21.005 401.147 20.0974 401.678 19.1067C402.12 20.5214 403.352 21.005 404.267 21.005C405.566 21.005 406.554 20.1687 407.214 19.2728C407.545 18.8241 407.796 18.3583 407.963 17.9696C408.047 17.7752 408.111 17.5997 408.153 17.4547C408.195 17.3111 408.218 17.1938 408.218 17.1173C408.218 16.961 408.092 16.8416 407.918 16.8416C407.857 16.8416 407.807 16.85 407.763 16.8683C407.72 16.8868 407.686 16.9144 407.66 16.9487C407.634 16.9822 407.615 17.0216 407.598 17.0631C407.586 17.0905 407.575 17.121 407.564 17.1528C407.558 17.1684 407.552 17.1842 407.546 17.2001L407.546 17.2001L407.545 17.203C406.874 19.3977 405.438 20.4034 404.342 20.4034C403.918 20.4034 403.596 20.2462 403.378 19.9679C403.159 19.688 403.042 19.2801 403.042 18.7728C403.042 18.2392 403.136 17.8499 403.517 16.2727L403.54 16.1766L403.541 16.1759L404.416 12.7653L404.416 12.765C404.602 12.0177 404.905 11.3734 405.302 10.917C405.698 10.4612 406.185 10.1942 406.743 10.1942C406.789 10.1942 407.386 10.1949 407.881 10.45Z" fill="black" stroke="#5F5B80" stroke-width="0.1"/>
<path d="M415.525 6.51052L415.525 6.5102C414.785 5.0003 413.901 3.8362 413.166 3.04918C412.799 2.6557 412.469 2.35604 412.213 2.15433C412.085 2.05355 411.974 1.97669 411.886 1.92475C411.843 1.8988 411.804 1.87859 411.77 1.86472C411.738 1.85138 411.706 1.84185 411.679 1.84185C411.622 1.84185 411.555 1.85599 411.5 1.8951C411.443 1.93584 411.404 2.00115 411.404 2.09251C411.404 2.09291 411.404 2.09331 411.404 2.09371C411.404 2.11248 411.404 2.13594 411.413 2.165C411.422 2.19398 411.438 2.22556 411.466 2.26558C411.522 2.34472 411.631 2.46659 411.844 2.67955C414.332 5.20038 415.73 9.32431 415.73 14.4334C415.73 19.2916 414.557 23.4651 411.67 26.412C411.545 26.5245 411.478 26.5972 411.443 26.6537C411.425 26.683 411.414 26.7089 411.409 26.7342C411.404 26.7581 411.404 26.7798 411.404 26.7977L411.404 26.7993C411.404 26.8906 411.443 26.9559 411.5 26.9967C411.555 27.0358 411.622 27.0499 411.679 27.0499C411.709 27.0499 411.744 27.0399 411.779 27.0252C411.815 27.0101 411.857 26.9882 411.903 26.9603C411.995 26.9046 412.109 26.8229 412.238 26.7182C412.497 26.5088 412.824 26.2045 413.179 25.8238C413.888 25.0623 414.71 23.9924 415.325 22.7581C416.604 20.1919 417.181 17.4752 417.181 14.4584C417.181 12.5487 416.93 9.42984 415.525 6.51052Z" fill="black" stroke="#5F5B80" stroke-width="0.1"/>
<path d="M114.338 18.3649L114.338 18.3648L114.337 18.3671C113.371 19.689 112.39 20.1525 111.677 20.1525C111.302 20.1525 110.938 19.9965 110.667 19.6303C110.394 19.2626 110.212 18.6788 110.212 17.8196C110.212 17.1611 110.388 16.1312 110.631 15.1224C110.873 14.1142 111.18 13.1337 111.439 12.5737C111.78 11.8761 112.214 11.2799 112.685 10.8587C113.156 10.437 113.66 10.1942 114.14 10.1942C114.895 10.1942 115.349 10.6891 115.617 11.2142C115.751 11.4764 115.837 11.7438 115.89 11.9552C115.941 12.1594 115.959 12.3074 115.961 12.347L115.891 12.6921L114.778 17.5072C114.778 17.5072 114.778 17.5072 114.778 17.5072C114.731 17.7076 114.696 17.8279 114.637 17.9443C114.578 18.0613 114.492 18.1768 114.338 18.3649ZM112.541 24.2562L112.541 24.2567C112.061 24.7649 111.601 25.0173 111.198 25.1432C110.794 25.2693 110.446 25.2695 110.186 25.2695C109.534 25.2695 108.987 25.2271 108.448 25.0662C109.116 24.7915 109.289 24.1352 109.289 23.8646C109.289 23.4405 108.987 23.012 108.433 23.012C107.837 23.012 107.2 23.5369 107.2 24.3914C107.2 24.6567 107.262 24.8847 107.391 25.0765C107.52 25.2681 107.712 25.42 107.966 25.5373C108.47 25.771 109.225 25.8711 110.233 25.8711C113.313 25.8711 114.918 23.7709 115.231 22.396C115.231 22.396 115.231 22.3959 115.231 22.3958L117.859 11.159C117.859 11.159 117.859 11.159 117.859 11.159C117.93 10.8574 117.931 10.8025 117.931 10.7462C117.931 10.3689 117.65 10.0692 117.266 10.0692C116.965 10.0692 116.726 10.2029 116.554 10.424C116.413 10.6062 116.318 10.8467 116.27 11.12C115.932 10.4154 115.269 9.59258 114.14 9.59258C112.828 9.59258 111.436 10.4642 110.375 11.7968C109.312 13.1308 108.573 14.9349 108.573 16.8163C108.573 18.1302 108.949 19.1146 109.521 19.7713C110.092 20.4281 110.858 20.7542 111.63 20.7542C112.271 20.7542 112.873 20.4853 113.366 20.1563C113.771 19.8856 114.106 19.5723 114.331 19.3286L113.855 21.3948L113.855 21.3953L113.842 21.446C113.683 22.1107 113.567 22.594 113.39 23.0176C113.209 23.45 112.964 23.8211 112.541 24.2562Z" fill="black" stroke="#5F5B80" stroke-width="0.1"/>
<path d="M247.338 18.3649L247.338 18.3648L247.337 18.3671C246.371 19.689 245.39 20.1525 244.677 20.1525C244.302 20.1525 243.938 19.9965 243.667 19.6303C243.394 19.2626 243.212 18.6788 243.212 17.8196C243.212 17.1611 243.388 16.1312 243.631 15.1224C243.873 14.1142 244.18 13.1337 244.439 12.5737C244.78 11.8761 245.214 11.2799 245.685 10.8587C246.156 10.437 246.66 10.1942 247.14 10.1942C247.895 10.1942 248.349 10.6891 248.617 11.2142C248.751 11.4764 248.837 11.7438 248.89 11.9552C248.941 12.1594 248.959 12.3074 248.961 12.347L248.891 12.6921L247.778 17.5072C247.778 17.5072 247.778 17.5072 247.778 17.5072C247.731 17.7076 247.696 17.8279 247.637 17.9443C247.578 18.0613 247.492 18.1768 247.338 18.3649ZM245.541 24.2562L245.541 24.2567C245.061 24.7649 244.601 25.0173 244.198 25.1432C243.794 25.2693 243.446 25.2695 243.186 25.2695C242.534 25.2695 241.987 25.2271 241.448 25.0662C242.116 24.7915 242.289 24.1352 242.289 23.8646C242.289 23.4405 241.987 23.012 241.433 23.012C240.837 23.012 240.2 23.5369 240.2 24.3914C240.2 24.6567 240.262 24.8847 240.391 25.0765C240.52 25.2681 240.712 25.42 240.966 25.5373C241.47 25.771 242.225 25.8711 243.233 25.8711C246.313 25.8711 247.918 23.7709 248.231 22.396C248.231 22.396 248.231 22.3959 248.231 22.3958L250.859 11.159C250.859 11.159 250.859 11.159 250.859 11.159C250.93 10.8574 250.931 10.8025 250.931 10.7462C250.931 10.3689 250.65 10.0692 250.266 10.0692C249.965 10.0692 249.726 10.2029 249.554 10.424C249.413 10.6062 249.318 10.8467 249.27 11.12C248.932 10.4154 248.269 9.59258 247.14 9.59258C245.828 9.59258 244.436 10.4642 243.375 11.7968C242.312 13.1308 241.573 14.9349 241.573 16.8163C241.573 18.1302 241.949 19.1146 242.521 19.7713C243.092 20.4281 243.858 20.7542 244.63 20.7542C245.271 20.7542 245.873 20.4853 246.366 20.1563C246.771 19.8856 247.106 19.5723 247.331 19.3286L246.855 21.3948L246.855 21.3953L246.842 21.446C246.683 22.1107 246.567 22.594 246.39 23.0176C246.209 23.45 245.964 23.8211 245.541 24.2562Z" fill="black" stroke="#5F5B80" stroke-width="0.1"/>
<path d="M328.338 18.3649L328.338 18.3648L328.337 18.3671C327.371 19.689 326.39 20.1525 325.677 20.1525C325.302 20.1525 324.938 19.9965 324.667 19.6303C324.394 19.2626 324.212 18.6788 324.212 17.8196C324.212 17.1611 324.388 16.1312 324.631 15.1224C324.873 14.1142 325.18 13.1337 325.439 12.5737C325.78 11.8761 326.214 11.2799 326.685 10.8587C327.156 10.437 327.66 10.1942 328.14 10.1942C328.895 10.1942 329.349 10.6891 329.617 11.2142C329.751 11.4764 329.837 11.7438 329.89 11.9552C329.941 12.1594 329.959 12.3074 329.961 12.347L329.891 12.6921L328.778 17.5072C328.778 17.5072 328.778 17.5072 328.778 17.5072C328.731 17.7076 328.696 17.8279 328.637 17.9443C328.578 18.0613 328.492 18.1768 328.338 18.3649ZM326.541 24.2562L326.541 24.2567C326.061 24.7649 325.601 25.0173 325.198 25.1432C324.794 25.2693 324.446 25.2695 324.186 25.2695C323.534 25.2695 322.987 25.2271 322.448 25.0662C323.116 24.7915 323.289 24.1352 323.289 23.8646C323.289 23.4405 322.987 23.012 322.433 23.012C321.837 23.012 321.2 23.5369 321.2 24.3914C321.2 24.6567 321.262 24.8847 321.391 25.0765C321.52 25.2681 321.712 25.42 321.966 25.5373C322.47 25.771 323.225 25.8711 324.233 25.8711C327.313 25.8711 328.918 23.7709 329.231 22.396C329.231 22.396 329.231 22.3959 329.231 22.3958L331.859 11.159C331.859 11.159 331.859 11.159 331.859 11.159C331.93 10.8574 331.931 10.8025 331.931 10.7462C331.931 10.3689 331.65 10.0692 331.266 10.0692C330.965 10.0692 330.726 10.2029 330.554 10.424C330.413 10.6062 330.318 10.8467 330.27 11.12C329.932 10.4154 329.269 9.59258 328.14 9.59258C326.828 9.59258 325.436 10.4642 324.375 11.7968C323.312 13.1308 322.573 14.9349 322.573 16.8163C322.573 18.1302 322.949 19.1146 323.521 19.7713C324.092 20.4281 324.858 20.7542 325.63 20.7542C326.271 20.7542 326.873 20.4853 327.366 20.1563C327.771 19.8856 328.106 19.5723 328.331 19.3286L327.855 21.3948L327.855 21.3953L327.842 21.446C327.683 22.1107 327.567 22.594 327.39 23.0176C327.209 23.45 326.964 23.8211 326.541 24.2562Z" fill="black" stroke="#5F5B80" stroke-width="0.1"/>
</svg>
