<svg width="108" height="100" viewBox="0 0 108 100" fill="none" xmlns="http://www.w3.org/2000/svg">
<path d="M20.6235 72.1708C15.9885 67.6125 13.5 62.5 13.5 54.2125C13.5 39.6292 24.5565 26.5583 40.635 20.0958L44.6535 25.8375C29.646 33.3542 26.712 43.1083 25.542 49.2583C27.9585 48.1 31.122 47.6958 34.2225 47.9625C42.3405 48.6583 48.7395 54.8292 48.7395 62.5C48.7395 66.3677 47.0801 70.0771 44.1264 72.812C41.1727 75.5469 37.1667 77.0833 32.9895 77.0833C28.161 77.0833 23.544 75.0417 20.6235 72.1708V72.1708ZM65.6235 72.1708C60.9885 67.6125 58.5 62.5 58.5 54.2125C58.5 39.6292 69.5565 26.5583 85.635 20.0958L89.6535 25.8375C74.646 33.3542 71.712 43.1083 70.542 49.2583C72.9585 48.1 76.122 47.6958 79.2225 47.9625C87.3405 48.6583 93.7395 54.8292 93.7395 62.5C93.7395 66.3677 92.0801 70.0771 89.1264 72.812C86.1727 75.5469 82.1667 77.0833 77.9895 77.0833C73.161 77.0833 68.544 75.0417 65.6235 72.1708V72.1708Z" fill="white"/>
</svg>
