<svg width="459" height="26" viewBox="0 0 459 26" fill="none" xmlns="http://www.w3.org/2000/svg">
<path d="M11.4057 5.07083L11.4057 5.07075C11.4102 5.05335 11.4156 5.03415 11.4216 5.01301C11.4228 5.00865 11.4241 5.0042 11.4254 4.99966C11.4327 4.9735 11.4406 4.94505 11.4478 4.91575C11.4621 4.85764 11.4744 4.79339 11.4744 4.73312C11.4744 4.66987 11.4579 4.6188 11.4295 4.57883C11.4014 4.53926 11.3639 4.51391 11.3271 4.49769C11.2559 4.46634 11.1803 4.46635 11.1568 4.46636L11.156 4.46636C11.1507 4.46636 11.1281 4.46798 11.0975 4.47026L10.9661 4.4804C10.8584 4.48887 10.7157 4.50039 10.5702 4.51259C10.4247 4.52479 10.2763 4.53768 10.1572 4.54888C10.0439 4.55953 9.95369 4.56895 9.9196 4.575C9.73693 4.58547 9.56454 4.6009 9.39095 4.61644L9.37026 4.61829C9.18848 4.63455 9.00472 4.65073 8.80438 4.66151L8.80437 4.6615L8.8032 4.66159C8.66378 4.6724 8.54722 4.682 8.45174 4.69656C8.35664 4.71105 8.27771 4.73107 8.21543 4.76511C8.15112 4.80026 8.10599 4.84958 8.0781 4.91817C8.05108 4.98459 8.04121 5.0667 8.04121 5.16663C8.04121 5.22746 8.05377 5.27937 8.08331 5.32092C8.11303 5.36272 8.15571 5.38813 8.20447 5.40388C8.25253 5.4194 8.30932 5.42646 8.37155 5.42993C8.43377 5.43339 8.50483 5.43339 8.5823 5.43339H8.58336C8.85616 5.43339 9.06059 5.44554 9.2137 5.46679C9.3673 5.4881 9.4663 5.51818 9.5302 5.55217C9.59249 5.58531 9.62046 5.62155 9.63474 5.65777C9.65006 5.69663 9.65188 5.7405 9.65188 5.79523C9.65188 5.91748 9.60899 6.08497 9.58749 6.14745L9.58735 6.14741L9.58637 6.15118L8.25666 11.2837C7.97548 10.7174 7.36439 9.95034 6.25682 9.95034C4.97277 9.95034 3.64574 10.7529 2.64201 11.9516C1.63749 13.1512 0.949756 14.7554 0.949756 16.373C0.949756 18.5405 2.26398 19.8261 3.81844 19.8261C5.02864 19.8261 6.06229 18.9432 6.69691 18.2376C6.82579 18.8342 7.13838 19.2276 7.50404 19.4735C7.8884 19.732 8.32917 19.8261 8.67284 19.8261C9.36858 19.8261 9.9198 19.4195 10.3279 18.6286L10.3285 18.6275C10.5095 18.2549 10.6782 17.7366 10.8014 17.3025C10.8631 17.085 10.9136 16.8879 10.9488 16.7395C10.9663 16.6653 10.9801 16.6031 10.9895 16.5565C10.9942 16.5332 10.9979 16.5135 11.0004 16.4981C11.0027 16.4839 11.0046 16.4698 11.0046 16.4597C11.0046 16.3189 10.8877 16.2146 10.7309 16.2146C10.6766 16.2146 10.6291 16.2219 10.588 16.2416C10.546 16.2617 10.5148 16.2929 10.4899 16.3332C10.4656 16.3724 10.4466 16.4211 10.4285 16.4781C10.4128 16.5271 10.3969 16.585 10.3787 16.6515C10.3757 16.6624 10.3727 16.6735 10.3695 16.6849L10.3694 16.6855C10.2015 17.3254 10.0125 17.9812 9.75268 18.4767C9.4919 18.974 9.16915 19.2926 8.73995 19.2926C8.58511 19.2926 8.47032 19.2591 8.3844 19.2054C8.29857 19.1518 8.23799 19.0759 8.19513 18.9853C8.10821 18.8015 8.09647 18.5628 8.09647 18.3455V18.3454C8.09647 18.2603 8.09647 17.81 8.25148 17.2092L11.4057 5.07083ZM7.89018 12.7086L7.88904 12.708L7.8862 12.719L6.79031 16.9664C6.78316 16.99 6.7765 17.0121 6.7702 17.033C6.72679 17.1771 6.70089 17.2631 6.65654 17.3535C6.60585 17.4569 6.53044 17.5671 6.37409 17.7727C6.13005 18.0736 5.76441 18.4545 5.33044 18.7598C4.89567 19.0657 4.39683 19.2926 3.88555 19.2926C3.4439 19.2926 3.10136 19.1006 2.86719 18.7538C2.63148 18.4046 2.50384 17.8955 2.50384 17.2617C2.50384 16.6724 2.67575 15.7727 2.9021 14.9035C3.12819 14.0354 3.40676 13.2046 3.61738 12.7533C4.37476 11.2427 5.41287 10.4839 6.25682 10.4839C6.97032 10.4839 7.39821 10.9116 7.65036 11.3684C7.7765 11.5969 7.85766 11.8313 7.90724 12.0194C7.95717 12.209 7.9741 12.3477 7.9741 12.3847C7.9741 12.3834 7.97413 12.3829 7.974 12.3836C7.97383 12.3845 7.97335 12.3879 7.97205 12.3947C7.9703 12.4039 7.9677 12.4163 7.96443 12.4312C7.95791 12.4608 7.94893 12.4989 7.93923 12.5379C7.92952 12.5768 7.91919 12.6162 7.90998 12.6483C7.90013 12.6825 7.89304 12.703 7.89018 12.7086Z" fill="black" stroke="#5F5B80" stroke-width="0.1"/>
<path d="M21.1302 4.12174L21.1333 4.11339V4.10927C21.134 4.10692 21.135 4.10356 21.1365 4.09905C21.1399 4.08878 21.1449 4.07474 21.1512 4.05775C21.1594 4.03547 21.1693 4.00912 21.1799 3.98092C21.1856 3.96606 21.1914 3.95068 21.1972 3.93511C21.214 3.89039 21.231 3.84437 21.2439 3.80667C21.2503 3.78786 21.2558 3.77053 21.2599 3.75616C21.2633 3.74403 21.2675 3.72771 21.2675 3.71433C21.2675 3.42177 21.0163 3.25249 20.8148 3.25249L20.8139 3.25249C20.7563 3.25249 20.6651 3.25249 20.5656 3.3209C20.4671 3.3886 20.3672 3.51843 20.2759 3.76179L20.2757 3.76211L12.7816 24.1591L12.7786 24.1674V24.1715C12.7779 24.1739 12.7768 24.1772 12.7753 24.1817C12.7719 24.192 12.7669 24.206 12.7607 24.223C12.7525 24.2453 12.7425 24.2717 12.7319 24.2999C12.7263 24.3147 12.7205 24.3301 12.7146 24.3457C12.6979 24.3904 12.6808 24.4364 12.668 24.4741C12.6616 24.4929 12.656 24.5103 12.652 24.5246C12.6486 24.5368 12.6443 24.5531 12.6443 24.5665C12.6443 24.859 12.8955 25.0283 13.097 25.0283C13.1676 25.0283 13.2644 25.0227 13.3639 24.9512C13.4621 24.8806 13.5562 24.7507 13.6363 24.5182C13.6363 24.518 13.6364 24.5179 13.6364 24.5177L21.1302 4.12174ZM21.1325 4.11226C21.1325 4.11223 21.1326 4.11197 21.1327 4.11145L21.1325 4.11226ZM12.7793 24.1685C12.7793 24.1685 12.7793 24.1687 12.7792 24.1692L12.7793 24.1685Z" fill="black" stroke="#5F5B80" stroke-width="0.1"/>
<path d="M33.7402 5.07083L33.7402 5.07075C33.7447 5.05335 33.7501 5.03415 33.7561 5.01301C33.7573 5.00865 33.7586 5.0042 33.7598 4.99966C33.7672 4.9735 33.7751 4.94505 33.7823 4.91575C33.7966 4.85764 33.8089 4.79339 33.8089 4.73312C33.8089 4.66987 33.7924 4.6188 33.764 4.57883C33.7358 4.53926 33.6984 4.51391 33.6616 4.49769C33.5904 4.46634 33.5147 4.46635 33.4913 4.46636L33.4904 4.46636C33.4852 4.46636 33.4626 4.46798 33.432 4.47026L33.3006 4.4804C33.1928 4.48887 33.0501 4.50039 32.9046 4.51259C32.7592 4.52479 32.6108 4.53768 32.4917 4.54888C32.3784 4.55953 32.2882 4.56895 32.2541 4.575C32.0714 4.58547 31.899 4.6009 31.7254 4.61644L31.7047 4.61829C31.5229 4.63455 31.3392 4.65073 31.1388 4.66151L31.1388 4.6615L31.1377 4.66159C30.9983 4.6724 30.8817 4.682 30.7862 4.69656C30.6911 4.71105 30.6122 4.73107 30.5499 4.76511C30.4856 4.80026 30.4405 4.84958 30.4126 4.91817C30.3856 4.98459 30.3757 5.0667 30.3757 5.16663C30.3757 5.22746 30.3882 5.27937 30.4178 5.32092C30.4475 5.36272 30.4902 5.38813 30.5389 5.40388C30.587 5.4194 30.6438 5.42646 30.706 5.42993C30.7682 5.43339 30.8393 5.43339 30.9168 5.43339H30.9178C31.1906 5.43339 31.3951 5.44554 31.5482 5.46679C31.7018 5.4881 31.8008 5.51818 31.8647 5.55217C31.927 5.58531 31.9549 5.62155 31.9692 5.65777C31.9845 5.69663 31.9864 5.7405 31.9864 5.79523C31.9864 5.91748 31.9435 6.08497 31.922 6.14745L31.9218 6.14741L31.9208 6.15118L30.5911 11.2837C30.3099 10.7174 29.6989 9.95034 28.5913 9.95034C27.3072 9.95034 25.9802 10.7529 24.9765 11.9516C23.972 13.1512 23.2842 14.7554 23.2842 16.373C23.2842 18.5405 24.5984 19.8261 26.1529 19.8261C27.3631 19.8261 28.3968 18.9432 29.0314 18.2376C29.1603 18.8342 29.4729 19.2276 29.8385 19.4735C30.2229 19.732 30.6636 19.8261 31.0073 19.8261C31.703 19.8261 32.2543 19.4195 32.6624 18.6286L32.663 18.6275C32.8439 18.2549 33.0127 17.7366 33.1359 17.3025C33.1976 17.085 33.2481 16.8879 33.2832 16.7395C33.3008 16.6653 33.3146 16.6031 33.324 16.5565C33.3287 16.5332 33.3323 16.5135 33.3349 16.4981C33.3372 16.4839 33.3391 16.4698 33.3391 16.4597C33.3391 16.3189 33.2221 16.2146 33.0654 16.2146C33.011 16.2146 32.9636 16.2219 32.9225 16.2416C32.8804 16.2617 32.8493 16.2929 32.8244 16.3332C32.8001 16.3724 32.7811 16.4211 32.763 16.4781C32.7473 16.5271 32.7314 16.585 32.7132 16.6515C32.7102 16.6624 32.7071 16.6735 32.704 16.6849L32.7039 16.6855C32.536 17.3254 32.347 17.9812 32.0872 18.4767C31.8264 18.974 31.5036 19.2926 31.0744 19.2926C30.9196 19.2926 30.8048 19.2591 30.7189 19.2054C30.633 19.1518 30.5725 19.0759 30.5296 18.9853C30.4427 18.8015 30.4309 18.5628 30.4309 18.3455V18.3454C30.4309 18.2603 30.4309 17.81 30.5859 17.2092L33.7402 5.07083ZM30.2247 12.7086L30.2235 12.708L30.2207 12.719L29.1248 16.9664C29.1176 16.99 29.111 17.0121 29.1047 17.033C29.0613 17.1771 29.0354 17.2631 28.991 17.3535C28.9403 17.4569 28.8649 17.5671 28.7086 17.7727C28.4645 18.0736 28.0989 18.4545 27.6649 18.7598C27.2301 19.0657 26.7313 19.2926 26.22 19.2926C25.7784 19.2926 25.4358 19.1006 25.2017 18.7538C24.966 18.4046 24.8383 17.8955 24.8383 17.2617C24.8383 16.6724 25.0102 15.7727 25.2366 14.9035C25.4627 14.0354 25.7412 13.2046 25.9518 12.7533C26.7092 11.2427 27.7473 10.4839 28.5913 10.4839C29.3048 10.4839 29.7327 10.9116 29.9848 11.3684C30.111 11.5969 30.1921 11.8313 30.2417 12.0194C30.2916 12.209 30.3086 12.3477 30.3086 12.3847C30.3086 12.3834 30.3086 12.3829 30.3085 12.3836C30.3083 12.3845 30.3078 12.3879 30.3065 12.3947C30.3048 12.4039 30.3022 12.4163 30.2989 12.4312C30.2924 12.4608 30.2834 12.4989 30.2737 12.5379C30.264 12.5768 30.2537 12.6162 30.2444 12.6483C30.2346 12.6825 30.2275 12.703 30.2247 12.7086Z" fill="black" stroke="#5F5B80" stroke-width="0.1"/>
<path d="M44.2824 10.6962C43.6392 10.8682 43.3897 11.3711 43.3897 11.7779C43.3897 12.0537 43.5034 12.242 43.6615 12.3599C43.8175 12.4762 44.0134 12.5215 44.1779 12.5215C44.8795 12.5215 45.3688 11.9326 45.3688 11.3227C45.3688 10.844 45.0852 10.4992 44.689 10.2766C44.2938 10.0546 43.7815 9.95049 43.3055 9.95049C42.606 9.95049 42.0629 10.2841 41.6711 10.6665C41.3374 10.9921 41.1113 11.3551 40.9886 11.5846C40.7197 10.8307 40.2578 10.4219 39.8068 10.2021C39.3356 9.97241 38.8794 9.95049 38.6748 9.95049C37.5115 9.95049 36.626 10.6744 36.0345 11.4495C35.7383 11.8377 35.514 12.2408 35.3638 12.5771C35.2886 12.7453 35.2317 12.8973 35.1935 13.0229C35.1557 13.1472 35.135 13.2496 35.135 13.3169C35.135 13.4358 35.2517 13.562 35.4311 13.562C35.5351 13.562 35.6044 13.5232 35.6527 13.4696C35.6895 13.4289 35.714 13.3788 35.7325 13.3411C35.7366 13.3328 35.7404 13.325 35.744 13.3181L35.7446 13.3185L35.7472 13.3103C36.5015 10.924 37.9818 10.484 38.6077 10.484C39.0925 10.484 39.3787 10.7015 39.5464 10.98C39.716 11.2619 39.7657 11.6093 39.7657 11.8646C39.7657 12.3146 39.6443 12.7849 39.3964 13.7448C39.386 13.785 39.3754 13.826 39.3646 13.868L39.3646 13.8681L38.604 16.8376C38.437 17.4848 38.1931 18.1007 37.8465 18.5537C37.5009 19.0055 37.0557 19.2928 36.4825 19.2928C36.3801 19.2928 35.9109 19.2923 35.4811 19.0801C36.2073 18.8802 36.3759 18.2594 36.3759 17.9989C36.3759 17.7682 36.2862 17.5808 36.1378 17.4518C35.9902 17.3233 35.7877 17.2552 35.5653 17.2552C35.0036 17.2552 34.3968 17.7301 34.3968 18.4541C34.3968 18.9324 34.6743 19.2773 35.0681 19.5001C35.4607 19.7222 35.9731 19.8263 36.4601 19.8263C37.5191 19.8263 38.2746 19.0463 38.7512 18.1928C39.1504 19.4107 40.2515 19.8263 41.0684 19.8263C42.2318 19.8263 43.1172 19.1024 43.7088 18.3272C44.005 17.9391 44.2292 17.536 44.3795 17.1996C44.4546 17.0315 44.5115 16.8794 44.5497 16.7538C44.5875 16.6296 44.6082 16.5272 44.6082 16.4599C44.6082 16.319 44.4913 16.2148 44.3345 16.2148C44.2233 16.2148 44.151 16.2456 44.0998 16.3094C44.076 16.339 44.0585 16.3737 44.0431 16.4098C44.033 16.4337 44.023 16.4603 44.0126 16.4879C44.0075 16.5013 44.0024 16.5149 43.9971 16.5285L43.997 16.5285L43.9961 16.5315C43.3963 18.4255 42.1136 19.2928 41.1356 19.2928C40.7572 19.2928 40.4702 19.1572 40.2768 18.9184C40.0822 18.6781 39.9776 18.3276 39.9776 17.8905C39.9776 17.4304 40.0615 17.0951 40.403 15.73L40.4233 15.649L40.4235 15.6483L41.2063 12.7011L41.2063 12.7008C41.5404 11.4061 42.2902 10.484 43.2831 10.484C43.3244 10.484 43.8441 10.4846 44.2824 10.6962Z" fill="black" stroke="#5F5B80" stroke-width="0.1"/>
<path d="M51.8604 25.0283H51.9104V24.9783V24.1763V24.1263H51.8604H49.7405V4.15449H51.8604H51.9104V4.10449V3.30249V3.25249H51.8604H48.8628H48.8128V3.30249V24.9783V25.0283H48.8628H51.8604Z" fill="black" stroke="#5F5B80" stroke-width="0.1"/>
<path d="M60.2948 5.83854L60.2506 5.8151C59.8457 6.57799 59.6212 7.36208 59.1121 10.1671H57.6551H57.6536C57.5485 10.1671 57.4532 10.1671 57.3706 10.1733C57.2878 10.1795 57.2132 10.1923 57.1509 10.2202C57.0869 10.2488 57.0365 10.2931 57.0032 10.3592C56.9708 10.4237 56.9563 10.5056 56.9563 10.6072C56.9563 10.6704 56.965 10.7256 56.9911 10.7703C57.0183 10.8169 57.0605 10.8456 57.1135 10.8633C57.165 10.8804 57.2294 10.8881 57.3058 10.8919C57.3826 10.8957 57.4759 10.8957 57.5868 10.8957H57.5879H58.9587C58.8356 11.5136 58.6676 12.3828 58.4791 13.3586C58.0413 15.6239 57.4925 18.4639 57.1365 20.0687L57.1365 20.0687L57.1363 20.0697C56.9458 21.0142 56.7677 21.8755 56.499 22.5011C56.2301 23.1269 55.8791 23.4977 55.3509 23.4977H55.3508C55.3186 23.4977 55.1441 23.4977 54.9288 23.4475C54.7415 23.4039 54.5267 23.323 54.3476 23.1741C54.8618 23.1059 55.1332 22.8541 55.2742 22.605C55.4231 22.3419 55.4233 22.0878 55.4233 22.0737C55.4233 21.8431 55.3335 21.6557 55.1852 21.5266C55.0376 21.3982 54.8351 21.3301 54.6127 21.3301C54.1443 21.3301 53.4441 21.7148 53.4441 22.5723C53.4441 23.0587 53.7019 23.4251 54.0677 23.6679C54.4324 23.91 54.9066 24.0312 55.3509 24.0312C56.5239 24.0312 57.3415 23.0126 57.8929 21.8843C58.4465 20.7517 58.7439 19.4844 58.867 18.9421C59.2626 17.3021 60.3259 11.7176 60.471 10.8957H62.3305H62.3322C62.4427 10.8957 62.5394 10.8957 62.6211 10.8891C62.703 10.8824 62.7751 10.8689 62.8342 10.8387C62.8954 10.8074 62.94 10.7596 62.9682 10.6909C62.9955 10.6242 63.0069 10.5395 63.0069 10.4338C63.0069 10.3731 62.9943 10.3204 62.9625 10.2783C62.9306 10.2362 62.8845 10.2114 62.8308 10.1961C62.7775 10.1809 62.7128 10.1739 62.6383 10.1705C62.5637 10.1671 62.4761 10.1671 62.3762 10.1671H62.3752H60.6236C61.043 7.96608 61.3519 6.44993 61.5288 5.76433C61.6592 5.25908 62.1138 4.78308 62.666 4.78308C63.0661 4.78308 63.4654 4.92861 63.7029 5.08952C63.3213 5.15284 63.0609 5.32378 62.8931 5.52769C62.7091 5.75129 62.6384 6.01199 62.6384 6.20703C62.6384 6.4377 62.7282 6.62506 62.8765 6.75413C63.0241 6.88257 63.2266 6.95066 63.449 6.95066C63.9174 6.95066 64.6175 6.56599 64.6175 5.70849C64.6175 5.23346 64.3715 4.86685 64.0024 4.62102C63.6346 4.37598 63.1434 4.24956 62.6437 4.24956C61.6592 4.24956 60.7046 4.95734 60.2506 5.81515L60.2948 5.83854ZM60.2948 5.83854C60.7422 4.99319 61.6817 4.29956 62.6437 4.29956C63.628 4.29956 64.5675 4.79811 64.5675 5.70849C64.5675 6.53217 63.8964 6.90066 63.449 6.90066C63.024 6.90066 62.6884 6.64055 62.6884 6.20703C62.6884 5.84841 62.9427 5.24341 63.7605 5.13135L59.1539 10.2171C59.6684 7.37753 59.8921 6.5972 60.2948 5.83854Z" fill="black" stroke="#5F5B80" stroke-width="0.1"/>
<path d="M69.162 21.0124L69.1621 21.0126C69.8245 22.3181 70.6162 23.3246 71.2735 24.0051C71.6022 24.3453 71.8977 24.6045 72.1272 24.779C72.2419 24.8662 72.3408 24.9327 72.4196 24.9778C72.4589 25.0003 72.494 25.0178 72.5241 25.0299C72.553 25.0415 72.5818 25.05 72.607 25.05C72.6586 25.05 72.7198 25.0377 72.7697 25.0032C72.8219 24.967 72.8583 24.9085 72.8583 24.8266V24.8254C72.8583 24.8091 72.8583 24.7878 72.8501 24.7615C72.8419 24.7353 72.8267 24.7073 72.8012 24.6724C72.7508 24.6035 72.6528 24.4979 72.4629 24.3139C70.2387 22.1371 68.9882 18.5756 68.9882 14.1621C68.9882 9.96524 70.0374 6.36096 72.6186 3.81603C72.7299 3.71893 72.7904 3.65561 72.8224 3.60596C72.8391 3.58003 72.8488 3.55686 72.8537 3.53382C72.8583 3.51232 72.8583 3.49283 72.8583 3.4774V3.4759C72.8583 3.39401 72.8219 3.33549 72.7697 3.29931C72.7198 3.26479 72.6586 3.25249 72.607 3.25249C72.5793 3.25249 72.548 3.26139 72.5163 3.27415C72.4836 3.28731 72.4462 3.30637 72.4048 3.33053C72.3221 3.37887 72.2204 3.44957 72.1044 3.54012C71.8722 3.72134 71.5796 3.98447 71.2623 4.31365C70.6279 4.97192 69.8921 5.89698 69.3413 6.96434C68.1962 9.16163 67.6802 11.489 67.6802 14.1621C67.6802 16.0957 67.994 18.6836 69.162 21.0124Z" fill="black" stroke="#5F5B80" stroke-width="0.1"/>
<path d="M84.5182 10.6962C83.875 10.8682 83.6256 11.3711 83.6256 11.7779C83.6256 12.0537 83.7392 12.242 83.8973 12.3599C84.0534 12.4762 84.2492 12.5215 84.4138 12.5215C85.1154 12.5215 85.6047 11.9326 85.6047 11.3227C85.6047 10.844 85.321 10.4992 84.9248 10.2766C84.5296 10.0546 84.0173 9.95049 83.5413 9.95049C82.8418 9.95049 82.2987 10.2841 81.9069 10.6665C81.5733 10.9921 81.3471 11.3551 81.2244 11.5846C80.9556 10.8307 80.4936 10.4219 80.0427 10.2021C79.5714 9.97241 79.1153 9.95049 78.9106 9.95049C77.7473 9.95049 76.8619 10.6744 76.2703 11.4495C75.9741 11.8377 75.7499 12.2408 75.5996 12.5771C75.5244 12.7453 75.4676 12.8973 75.4294 13.0229C75.3916 13.1472 75.3708 13.2496 75.3708 13.3169C75.3708 13.4358 75.4876 13.562 75.6669 13.562C75.7709 13.562 75.8402 13.5232 75.8886 13.4696C75.9253 13.4289 75.9499 13.3788 75.9684 13.3411C75.9725 13.3328 75.9762 13.325 75.9798 13.3181L75.9804 13.3185L75.983 13.3103C76.7374 10.924 78.2176 10.484 78.8435 10.484C79.3283 10.484 79.6146 10.7015 79.7822 10.98C79.9519 11.2619 80.0015 11.6093 80.0015 11.8646C80.0015 12.3146 79.8801 12.7849 79.6323 13.7448C79.6219 13.785 79.6113 13.826 79.6005 13.868L79.6004 13.8681L78.8399 16.8376C78.6729 17.4848 78.4289 18.1007 78.0824 18.5537C77.7368 19.0055 77.2916 19.2928 76.7183 19.2928C76.616 19.2928 76.1467 19.2923 75.7169 19.0801C76.4432 18.8802 76.6117 18.2594 76.6117 17.9989C76.6117 17.7682 76.522 17.5808 76.3737 17.4518C76.226 17.3233 76.0236 17.2552 75.8011 17.2552C75.2394 17.2552 74.6326 17.7301 74.6326 18.4541C74.6326 18.9324 74.9102 19.2773 75.3039 19.5001C75.6965 19.7222 76.209 19.8263 76.696 19.8263C77.7549 19.8263 78.5104 19.0463 78.987 18.1928C79.3863 19.4107 80.4873 19.8263 81.3043 19.8263C82.4676 19.8263 83.353 19.1024 83.9446 18.3272C84.2408 17.9391 84.465 17.536 84.6153 17.1996C84.6905 17.0315 84.7474 16.8794 84.7856 16.7538C84.8233 16.6296 84.8441 16.5272 84.8441 16.4599C84.8441 16.319 84.7271 16.2148 84.5704 16.2148C84.4592 16.2148 84.3868 16.2456 84.3356 16.3094C84.3118 16.339 84.2943 16.3737 84.279 16.4098C84.2689 16.4337 84.2588 16.4603 84.2484 16.4879C84.2433 16.5013 84.2382 16.5149 84.2329 16.5285L84.2328 16.5285L84.2319 16.5315C83.6322 18.4255 82.3495 19.2928 81.3714 19.2928C80.993 19.2928 80.7061 19.1572 80.5126 18.9184C80.318 18.6781 80.2134 18.3276 80.2134 17.8905C80.2134 17.4304 80.2973 17.0951 80.6389 15.73L80.6591 15.649L80.6593 15.6483L81.4421 12.7011L81.4422 12.7008C81.7762 11.4061 82.526 10.484 83.519 10.484C83.5602 10.484 84.08 10.4846 84.5182 10.6962Z" fill="black" stroke="#5F5B80" stroke-width="0.1"/>
<path d="M91.3805 7.29022L91.3804 7.28989C90.7179 5.98437 89.9263 4.97785 89.2689 4.29735C88.9403 3.95713 88.6448 3.69797 88.4152 3.52347C88.3006 3.43629 88.2017 3.36973 88.1229 3.3247C88.0836 3.30221 88.0484 3.28464 88.0183 3.27255C87.9895 3.26096 87.9606 3.25249 87.9355 3.25249C87.8839 3.25249 87.8227 3.26479 87.7728 3.29931C87.7205 3.33549 87.6841 3.39401 87.6841 3.4759C87.6841 3.47628 87.6841 3.47667 87.6841 3.47706C87.6841 3.49334 87.6841 3.51467 87.6924 3.54097C87.7006 3.56713 87.7158 3.59516 87.7413 3.63004C87.7917 3.69895 87.8897 3.8046 88.0796 3.98859C90.3038 6.16537 91.5542 9.72687 91.5542 14.1404C91.5542 18.3372 90.5051 21.9415 87.9238 24.4864C87.8125 24.5835 87.7521 24.6469 87.7201 24.6965C87.7033 24.7224 87.6937 24.7456 87.6887 24.7687C87.6841 24.7902 87.6841 24.8096 87.6841 24.8251L87.6841 24.8266C87.6841 24.9085 87.7205 24.967 87.7728 25.0032C87.8227 25.0377 87.8839 25.05 87.9355 25.05C87.9632 25.05 87.9945 25.0411 88.0262 25.0283C88.0589 25.0152 88.0963 24.9961 88.1376 24.9719C88.2204 24.9236 88.3221 24.8529 88.4381 24.7624C88.6703 24.5811 88.9629 24.318 89.2801 23.9888C89.9146 23.3305 90.6504 22.4054 91.2013 21.338C92.3462 19.1192 92.8622 16.7702 92.8622 14.1621C92.8622 12.5112 92.6382 9.8145 91.3805 7.29022Z" fill="black" stroke="#5F5B80" stroke-width="0.1"/>
<path d="M104.666 4.12174L104.669 4.11339V4.10927C104.67 4.10692 104.671 4.10356 104.673 4.09905C104.676 4.08878 104.681 4.07474 104.687 4.05775C104.696 4.03547 104.705 4.00912 104.716 3.98092C104.722 3.96606 104.727 3.95068 104.733 3.93511C104.75 3.89039 104.767 3.84437 104.78 3.80667C104.786 3.78786 104.792 3.77053 104.796 3.75616C104.799 3.74403 104.804 3.72771 104.804 3.71433C104.804 3.42177 104.552 3.25249 104.351 3.25249L104.35 3.25249C104.292 3.25249 104.201 3.25249 104.102 3.3209C104.003 3.3886 103.903 3.51843 103.812 3.76179L103.812 3.76211L96.3178 24.1591L96.3147 24.1674V24.1715C96.314 24.1739 96.313 24.1772 96.3115 24.1817C96.3081 24.192 96.303 24.206 96.2968 24.223C96.2886 24.2453 96.2787 24.2717 96.268 24.2999C96.2624 24.3147 96.2566 24.3301 96.2508 24.3457C96.234 24.3904 96.217 24.4364 96.2041 24.4741C96.1977 24.4929 96.1921 24.5103 96.1881 24.5246C96.1847 24.5368 96.1805 24.5531 96.1805 24.5665C96.1805 24.859 96.4317 25.0283 96.6331 25.0283C96.7037 25.0283 96.8005 25.0227 96.9 24.9512C96.9982 24.8806 97.0923 24.7507 97.1724 24.5182C97.1725 24.518 97.1725 24.5179 97.1726 24.5177L104.666 4.12174ZM104.669 4.11226C104.669 4.11223 104.669 4.11197 104.669 4.11145L104.669 4.11226ZM96.3155 24.1685C96.3155 24.1685 96.3154 24.1687 96.3153 24.1692L96.3155 24.1685Z" fill="black" stroke="#5F5B80" stroke-width="0.1"/>
<path d="M113.073 17.532L113.073 17.532L113.071 17.5342C112.16 18.6752 111.233 19.076 110.56 19.076C110.204 19.076 109.861 18.9407 109.606 18.6258C109.35 18.3097 109.178 17.8075 109.178 17.0668C109.178 16.4992 109.344 15.6102 109.573 14.7385C109.802 13.8676 110.092 13.0211 110.336 12.5379C110.657 11.936 111.067 11.4215 111.511 11.0579C111.956 10.694 112.432 10.484 112.886 10.484C113.6 10.484 114.028 10.9119 114.28 11.3634C114.406 11.5892 114.487 11.8196 114.537 12.0017C114.584 12.176 114.602 12.3021 114.603 12.3366L114.538 12.6334L113.487 16.7942C113.487 16.7942 113.487 16.7943 113.487 16.7943C113.442 16.9673 113.41 17.0702 113.354 17.1699C113.299 17.2701 113.218 17.3694 113.073 17.532ZM111.376 22.6228L111.375 22.6233C110.472 23.4979 109.639 23.4979 109.151 23.4979H109.15C108.543 23.4979 108.032 23.4623 107.53 23.3278C108.144 23.0856 108.306 22.5263 108.306 22.2907C108.306 21.9168 108.015 21.547 107.495 21.547C106.934 21.547 106.326 21.9996 106.326 22.7459C106.326 22.9772 106.386 23.1762 106.509 23.3434C106.632 23.5101 106.814 23.6416 107.053 23.7429C107.53 23.9449 108.243 24.0314 109.195 24.0314C112.103 24.0314 113.622 22.2173 113.919 21.024C113.919 21.024 113.919 21.0239 113.919 21.0239L116.402 11.3135C116.469 11.0527 116.471 11.0042 116.471 10.9542C116.471 10.6204 116.2 10.3623 115.839 10.3623C115.556 10.3623 115.329 10.4775 115.166 10.6699C115.033 10.8267 114.944 11.0332 114.897 11.2675C114.577 10.6576 113.949 9.95049 112.886 9.95049C111.648 9.95049 110.332 10.7034 109.328 11.8562C108.323 13.0098 107.624 14.5709 107.624 16.1998C107.624 17.3376 107.98 18.1906 108.521 18.7595C109.063 19.3281 109.786 19.6095 110.515 19.6095C111.12 19.6095 111.689 19.3773 112.155 19.0928C112.534 18.8612 112.847 18.5936 113.061 18.3838L112.614 20.1537L112.614 20.1542L112.603 20.1974C112.452 20.7723 112.342 21.1892 112.175 21.5546C112.005 21.9271 111.774 22.2471 111.376 22.6228Z" fill="black" stroke="#5F5B80" stroke-width="0.1"/>
<path d="M120.89 21.0124L120.89 21.0126C121.553 22.3181 122.344 23.3246 123.002 24.0051C123.33 24.3453 123.626 24.6045 123.855 24.779C123.97 24.8662 124.069 24.9327 124.148 24.9778C124.187 25.0003 124.222 25.0178 124.252 25.0299C124.281 25.0415 124.31 25.05 124.335 25.05C124.387 25.05 124.448 25.0377 124.498 25.0032C124.55 24.967 124.586 24.9085 124.586 24.8266V24.8254C124.586 24.8091 124.586 24.7878 124.578 24.7615C124.57 24.7353 124.555 24.7073 124.529 24.6724C124.479 24.6035 124.381 24.4979 124.191 24.3139C121.967 22.1371 120.716 18.5756 120.716 14.1621C120.716 9.96524 121.765 6.36096 124.347 3.81603C124.458 3.71893 124.518 3.65561 124.55 3.60596C124.567 3.58003 124.577 3.55686 124.582 3.53382C124.586 3.51232 124.586 3.49283 124.586 3.4774V3.4759C124.586 3.39401 124.55 3.33549 124.498 3.29931C124.448 3.26479 124.387 3.25249 124.335 3.25249C124.307 3.25249 124.276 3.26139 124.244 3.27415C124.212 3.28731 124.174 3.30637 124.133 3.33053C124.05 3.37887 123.948 3.44957 123.832 3.54012C123.6 3.72134 123.308 3.98447 122.99 4.31365C122.356 4.97192 121.62 5.89698 121.069 6.96434C119.924 9.16163 119.408 11.489 119.408 14.1621C119.408 16.0957 119.722 18.6836 120.89 21.0124Z" fill="black" stroke="#5F5B80" stroke-width="0.1"/>
<path d="M136.245 10.6962C135.602 10.8682 135.353 11.3711 135.353 11.7779C135.353 12.0537 135.466 12.242 135.624 12.3599C135.78 12.4762 135.976 12.5215 136.141 12.5215C136.842 12.5215 137.332 11.9326 137.332 11.3227C137.332 10.844 137.048 10.4992 136.652 10.2766C136.257 10.0546 135.744 9.95049 135.268 9.95049C134.569 9.95049 134.026 10.2841 133.634 10.6665C133.3 10.9921 133.074 11.3551 132.951 11.5846C132.683 10.8307 132.221 10.4219 131.77 10.2021C131.298 9.97241 130.842 9.95049 130.638 9.95049C129.474 9.95049 128.589 10.6744 127.997 11.4495C127.701 11.8377 127.477 12.2408 127.327 12.5771C127.251 12.7453 127.195 12.8973 127.156 13.0229C127.119 13.1472 127.098 13.2496 127.098 13.3169C127.098 13.4358 127.215 13.562 127.394 13.562C127.498 13.562 127.567 13.5232 127.616 13.4696C127.652 13.4289 127.677 13.3788 127.695 13.3411C127.7 13.3328 127.703 13.325 127.707 13.3181L127.708 13.3185L127.71 13.3103C128.464 10.924 129.945 10.484 130.571 10.484C131.055 10.484 131.342 10.7015 131.509 10.98C131.679 11.2619 131.729 11.6093 131.729 11.8646C131.729 12.3146 131.607 12.7849 131.359 13.7448C131.349 13.785 131.338 13.826 131.328 13.868L131.327 13.8681L130.567 16.8376C130.4 17.4848 130.156 18.1007 129.809 18.5537C129.464 19.0055 129.019 19.2928 128.445 19.2928C128.343 19.2928 127.874 19.2923 127.444 19.0801C128.17 18.8802 128.339 18.2594 128.339 17.9989C128.339 17.7682 128.249 17.5808 128.101 17.4518C127.953 17.3233 127.751 17.2552 127.528 17.2552C126.966 17.2552 126.36 17.7301 126.36 18.4541C126.36 18.9324 126.637 19.2773 127.031 19.5001C127.424 19.7222 127.936 19.8263 128.423 19.8263C129.482 19.8263 130.237 19.0463 130.714 18.1928C131.113 19.4107 132.214 19.8263 133.031 19.8263C134.195 19.8263 135.08 19.1024 135.672 18.3272C135.968 17.9391 136.192 17.536 136.342 17.1996C136.418 17.0315 136.474 16.8794 136.513 16.7538C136.55 16.6296 136.571 16.5272 136.571 16.4599C136.571 16.319 136.454 16.2148 136.297 16.2148C136.186 16.2148 136.114 16.2456 136.063 16.3094C136.039 16.339 136.021 16.3737 136.006 16.4098C135.996 16.4337 135.986 16.4603 135.975 16.4879C135.97 16.5013 135.965 16.5149 135.96 16.5285L135.96 16.5285L135.959 16.5315C135.359 18.4255 134.077 19.2928 133.098 19.2928C132.72 19.2928 132.433 19.1572 132.24 18.9184C132.045 18.6781 131.94 18.3276 131.94 17.8905C131.94 17.4304 132.024 17.0951 132.366 15.73L132.386 15.649L132.386 15.6483L133.169 12.7011L133.169 12.7008C133.503 11.4061 134.253 10.484 135.246 10.484C135.287 10.484 135.807 10.4846 136.245 10.6962Z" fill="black" stroke="#5F5B80" stroke-width="0.1"/>
<path d="M143.108 7.29022L143.108 7.28989C142.446 5.98437 141.654 4.97785 140.997 4.29735C140.668 3.95713 140.373 3.69797 140.143 3.52347C140.028 3.43629 139.929 3.36973 139.851 3.3247C139.811 3.30221 139.776 3.28464 139.746 3.27255C139.717 3.26096 139.688 3.25249 139.663 3.25249C139.612 3.25249 139.55 3.26479 139.501 3.29931C139.448 3.33549 139.412 3.39401 139.412 3.4759C139.412 3.47628 139.412 3.47667 139.412 3.47706C139.412 3.49334 139.412 3.51467 139.42 3.54097C139.428 3.56713 139.444 3.59516 139.469 3.63004C139.519 3.69895 139.617 3.8046 139.807 3.98859C142.032 6.16537 143.282 9.72687 143.282 14.1404C143.282 18.3372 142.233 21.9415 139.652 24.4864C139.54 24.5835 139.48 24.6469 139.448 24.6965C139.431 24.7224 139.421 24.7456 139.417 24.7687C139.412 24.7902 139.412 24.8096 139.412 24.8251L139.412 24.8266C139.412 24.9085 139.448 24.967 139.501 25.0032C139.55 25.0377 139.612 25.05 139.663 25.05C139.691 25.05 139.722 25.0411 139.754 25.0283C139.787 25.0152 139.824 24.9961 139.865 24.9719C139.948 24.9236 140.05 24.8529 140.166 24.7624C140.398 24.5811 140.691 24.318 141.008 23.9888C141.642 23.3305 142.378 22.4054 142.929 21.338C144.074 19.1192 144.59 16.7702 144.59 14.1621C144.59 12.5112 144.366 9.8145 143.108 7.29022Z" fill="black" stroke="#5F5B80" stroke-width="0.1"/>
<path d="M150.267 3.30249V3.25249H150.217H147.219H147.169V3.30249V4.10449V4.15449H147.219H149.339V24.1263H147.219H147.169V24.1763V24.9783V25.0283H147.219H150.217H150.267V24.9783V3.30249Z" fill="black" stroke="#5F5B80" stroke-width="0.1"/>
<path d="M174.148 12.5864L174.153 12.5864C174.306 12.5864 174.492 12.5864 174.64 12.5348C174.716 12.5083 174.785 12.4671 174.836 12.4025C174.886 12.3373 174.914 12.2528 174.914 12.1462C174.914 12.0354 174.888 11.9475 174.84 11.8793C174.792 11.8112 174.725 11.7673 174.65 11.739C174.504 11.6844 174.318 11.6844 174.154 11.6844L174.148 11.6844H160.972L160.967 11.6844C160.814 11.6844 160.628 11.6844 160.48 11.7359C160.404 11.7624 160.335 11.8036 160.284 11.8683C160.234 11.9335 160.206 12.018 160.206 12.1245C160.206 12.2353 160.232 12.3233 160.28 12.3915C160.328 12.4596 160.395 12.5034 160.471 12.5317C160.616 12.5864 160.803 12.5864 160.966 12.5864L160.972 12.5864H174.148ZM174.148 16.6181H174.153C174.306 16.6181 174.492 16.6181 174.64 16.5665C174.716 16.54 174.785 16.4988 174.836 16.4342C174.886 16.369 174.914 16.2845 174.914 16.1779C174.914 16.0671 174.888 15.9792 174.84 15.911C174.792 15.8429 174.725 15.799 174.65 15.7708C174.504 15.7161 174.318 15.7161 174.154 15.7161H174.148H160.972H160.967C160.814 15.7161 160.628 15.7161 160.48 15.7676C160.404 15.7941 160.335 15.8353 160.284 15.9C160.234 15.9652 160.206 16.0497 160.206 16.1562C160.206 16.267 160.232 16.355 160.28 16.4232C160.328 16.4913 160.395 16.5351 160.471 16.5634C160.616 16.6181 160.803 16.6181 160.966 16.6181H160.972H174.148Z" fill="black" stroke="#5F5B80" stroke-width="0.1"/>
<path d="M189.397 17.532L189.397 17.532L189.395 17.5342C188.484 18.6752 187.557 19.076 186.884 19.076C186.528 19.076 186.185 18.9407 185.93 18.6258C185.674 18.3097 185.502 17.8075 185.502 17.0668C185.502 16.4992 185.668 15.6102 185.897 14.7385C186.126 13.8676 186.416 13.0211 186.66 12.5379C186.981 11.936 187.391 11.4215 187.835 11.0579C188.28 10.694 188.756 10.484 189.21 10.484C189.924 10.484 190.352 10.9119 190.604 11.3634C190.73 11.5892 190.811 11.8196 190.861 12.0017C190.908 12.176 190.926 12.3021 190.927 12.3366L190.862 12.6334L189.811 16.7942C189.811 16.7942 189.811 16.7943 189.811 16.7943C189.766 16.9673 189.734 17.0702 189.678 17.1699C189.623 17.2701 189.542 17.3694 189.397 17.532ZM187.7 22.6228L187.699 22.6233C186.796 23.4979 185.963 23.4979 185.475 23.4979H185.474C184.867 23.4979 184.356 23.4623 183.854 23.3278C184.468 23.0856 184.63 22.5263 184.63 22.2907C184.63 21.9168 184.339 21.547 183.819 21.547C183.258 21.547 182.65 21.9996 182.65 22.7459C182.65 22.9772 182.71 23.1762 182.833 23.3434C182.956 23.5101 183.138 23.6416 183.377 23.7429C183.854 23.9449 184.567 24.0314 185.519 24.0314C188.427 24.0314 189.946 22.2173 190.243 21.024C190.243 21.024 190.243 21.0239 190.243 21.0239L192.726 11.3135C192.793 11.0527 192.795 11.0042 192.795 10.9542C192.795 10.6204 192.524 10.3623 192.163 10.3623C191.88 10.3623 191.653 10.4775 191.49 10.6699C191.357 10.8267 191.268 11.0332 191.221 11.2675C190.901 10.6576 190.273 9.95049 189.21 9.95049C187.972 9.95049 186.656 10.7034 185.652 11.8562C184.647 13.0098 183.948 14.5709 183.948 16.1998C183.948 17.3376 184.304 18.1906 184.845 18.7595C185.387 19.3281 186.11 19.6095 186.839 19.6095C187.444 19.6095 188.013 19.3773 188.479 19.0928C188.858 18.8612 189.171 18.5936 189.385 18.3838L188.938 20.1537L188.938 20.1542L188.927 20.1974C188.776 20.7723 188.666 21.1892 188.499 21.5546C188.329 21.9271 188.098 22.2471 187.7 22.6228Z" fill="black" stroke="#5F5B80" stroke-width="0.1"/>
<path d="M197.214 21.0124L197.214 21.0126C197.877 22.3181 198.668 23.3246 199.326 24.0051C199.654 24.3453 199.95 24.6045 200.179 24.779C200.294 24.8662 200.393 24.9327 200.472 24.9778C200.511 25.0003 200.546 25.0178 200.576 25.0299C200.605 25.0415 200.634 25.05 200.659 25.05C200.711 25.05 200.772 25.0377 200.822 25.0032C200.874 24.967 200.91 24.9085 200.91 24.8266V24.8254C200.91 24.8091 200.91 24.7878 200.902 24.7615C200.894 24.7353 200.879 24.7073 200.853 24.6724C200.803 24.6035 200.705 24.4979 200.515 24.3139C198.291 22.1371 197.04 18.5756 197.04 14.1621C197.04 9.96524 198.089 6.36096 200.671 3.81603C200.782 3.71893 200.842 3.65561 200.874 3.60596C200.891 3.58003 200.901 3.55686 200.906 3.53382C200.91 3.51232 200.91 3.49283 200.91 3.4774V3.4759C200.91 3.39401 200.874 3.33549 200.822 3.29931C200.772 3.26479 200.711 3.25249 200.659 3.25249C200.631 3.25249 200.6 3.26139 200.568 3.27415C200.536 3.28731 200.498 3.30637 200.457 3.33053C200.374 3.37887 200.272 3.44957 200.156 3.54012C199.924 3.72134 199.632 3.98447 199.314 4.31365C198.68 4.97192 197.944 5.89698 197.393 6.96434C196.248 9.16163 195.732 11.489 195.732 14.1621C195.732 16.0957 196.046 18.6836 197.214 21.0124Z" fill="black" stroke="#5F5B80" stroke-width="0.1"/>
<path d="M212.57 10.6962C211.927 10.8682 211.677 11.3711 211.677 11.7779C211.677 12.0537 211.791 12.242 211.949 12.3599C212.105 12.4762 212.301 12.5215 212.466 12.5215C213.167 12.5215 213.656 11.9326 213.656 11.3227C213.656 10.844 213.373 10.4992 212.977 10.2766C212.581 10.0546 212.069 9.95049 211.593 9.95049C210.894 9.95049 210.35 10.2841 209.959 10.6665C209.625 10.9921 209.399 11.3551 209.276 11.5846C209.007 10.8307 208.545 10.4219 208.094 10.2021C207.623 9.97241 207.167 9.95049 206.962 9.95049C205.799 9.95049 204.914 10.6744 204.322 11.4495C204.026 11.8377 203.802 12.2408 203.651 12.5771C203.576 12.7453 203.519 12.8973 203.481 13.0229C203.443 13.1472 203.423 13.2496 203.423 13.3169C203.423 13.4358 203.539 13.562 203.719 13.562C203.823 13.562 203.892 13.5232 203.94 13.4696C203.977 13.4289 204.002 13.3788 204.02 13.3411C204.024 13.3328 204.028 13.325 204.032 13.3181L204.032 13.3185L204.035 13.3103C204.789 10.924 206.269 10.484 206.895 10.484C207.38 10.484 207.666 10.7015 207.834 10.98C208.004 11.2619 208.053 11.6093 208.053 11.8646C208.053 12.3146 207.932 12.7849 207.684 13.7448C207.674 13.785 207.663 13.826 207.652 13.868L207.652 13.8681L206.892 16.8376C206.725 17.4848 206.481 18.1007 206.134 18.5537C205.789 19.0055 205.343 19.2928 204.77 19.2928C204.668 19.2928 204.198 19.2923 203.769 19.0801C204.495 18.8802 204.663 18.2594 204.663 17.9989C204.663 17.7682 204.574 17.5808 204.425 17.4518C204.278 17.3233 204.075 17.2552 203.853 17.2552C203.291 17.2552 202.684 17.7301 202.684 18.4541C202.684 18.9324 202.962 19.2773 203.356 19.5001C203.748 19.7222 204.261 19.8263 204.748 19.8263C205.807 19.8263 206.562 19.0463 207.039 18.1928C207.438 19.4107 208.539 19.8263 209.356 19.8263C210.519 19.8263 211.405 19.1024 211.996 18.3272C212.293 17.9391 212.517 17.536 212.667 17.1996C212.742 17.0315 212.799 16.8794 212.837 16.7538C212.875 16.6296 212.896 16.5272 212.896 16.4599C212.896 16.319 212.779 16.2148 212.622 16.2148C212.511 16.2148 212.439 16.2456 212.387 16.3094C212.364 16.339 212.346 16.3737 212.331 16.4098C212.321 16.4337 212.311 16.4603 212.3 16.4879C212.295 16.5013 212.29 16.5149 212.285 16.5285L212.285 16.5285L212.284 16.5315C211.684 18.4255 210.401 19.2928 209.423 19.2928C209.045 19.2928 208.758 19.1572 208.564 18.9184C208.37 18.6781 208.265 18.3276 208.265 17.8905C208.265 17.4304 208.349 17.0951 208.691 15.73L208.711 15.649L208.711 15.6483L209.494 12.7011L209.494 12.7008C209.828 11.4061 210.578 10.484 211.571 10.484C211.612 10.484 212.132 10.4846 212.57 10.6962Z" fill="black" stroke="#5F5B80" stroke-width="0.1"/>
<path d="M219.432 7.29022L219.432 7.28989C218.769 5.98437 217.978 4.97785 217.32 4.29735C216.992 3.95713 216.696 3.69797 216.467 3.52347C216.352 3.43629 216.253 3.36973 216.174 3.3247C216.135 3.30221 216.1 3.28464 216.07 3.27255C216.041 3.26096 216.012 3.25249 215.987 3.25249C215.935 3.25249 215.874 3.26479 215.824 3.29931C215.772 3.33549 215.736 3.39401 215.736 3.4759C215.736 3.47628 215.736 3.47667 215.736 3.47706C215.736 3.49334 215.736 3.51467 215.744 3.54097C215.752 3.56713 215.767 3.59516 215.793 3.63004C215.843 3.69895 215.941 3.8046 216.131 3.98859C218.355 6.16537 219.606 9.72687 219.606 14.1404C219.606 18.3372 218.557 21.9415 215.975 24.4864C215.864 24.5835 215.804 24.6469 215.772 24.6965C215.755 24.7224 215.745 24.7456 215.74 24.7687C215.736 24.7902 215.736 24.8096 215.736 24.8251L215.736 24.8266C215.736 24.9085 215.772 24.967 215.824 25.0032C215.874 25.0377 215.935 25.05 215.987 25.05C216.015 25.05 216.046 25.0411 216.078 25.0283C216.11 25.0152 216.148 24.9961 216.189 24.9719C216.272 24.9236 216.374 24.8529 216.49 24.7624C216.722 24.5811 217.014 24.318 217.332 23.9888C217.966 23.3305 218.702 22.4054 219.253 21.338C220.398 19.1192 220.914 16.7702 220.914 14.1621C220.914 12.5112 220.69 9.8145 219.432 7.29022Z" fill="black" stroke="#5F5B80" stroke-width="0.1"/>
<path d="M231.016 5.83854L230.972 5.8151C230.567 6.57799 230.342 7.36208 229.833 10.1671H228.376H228.375C228.269 10.1671 228.174 10.1671 228.092 10.1733C228.009 10.1795 227.934 10.1923 227.872 10.2202C227.808 10.2488 227.757 10.2931 227.724 10.3592C227.692 10.4237 227.677 10.5056 227.677 10.6072C227.677 10.6704 227.686 10.7256 227.712 10.7703C227.739 10.8169 227.781 10.8456 227.834 10.8633C227.886 10.8804 227.95 10.8881 228.027 10.8919C228.104 10.8957 228.197 10.8957 228.308 10.8957H228.309H229.68C229.557 11.5136 229.389 12.3828 229.2 13.3586C228.762 15.6239 228.213 18.4639 227.857 20.0687L227.857 20.0687L227.857 20.0697C227.667 21.0142 227.489 21.8755 227.22 22.5011C226.951 23.1269 226.6 23.4977 226.072 23.4977H226.072C226.04 23.4977 225.865 23.4977 225.65 23.4475C225.462 23.4039 225.248 23.323 225.069 23.1741C225.583 23.1059 225.854 22.8541 225.995 22.605C226.144 22.3419 226.144 22.0878 226.144 22.0737C226.144 21.8431 226.054 21.6557 225.906 21.5266C225.759 21.3982 225.556 21.3301 225.334 21.3301C224.865 21.3301 224.165 21.7148 224.165 22.5723C224.165 23.0587 224.423 23.4251 224.789 23.6679C225.153 23.91 225.628 24.0312 226.072 24.0312C227.245 24.0312 228.062 23.0126 228.614 21.8843C229.167 20.7517 229.465 19.4844 229.588 18.9421C229.984 17.3021 231.047 11.7176 231.192 10.8957H233.051H233.053C233.164 10.8957 233.26 10.8957 233.342 10.8891C233.424 10.8824 233.496 10.8689 233.555 10.8387C233.616 10.8074 233.661 10.7596 233.689 10.6909C233.716 10.6242 233.728 10.5395 233.728 10.4338C233.728 10.3731 233.715 10.3204 233.683 10.2783C233.652 10.2362 233.605 10.2114 233.552 10.1961C233.498 10.1809 233.434 10.1739 233.359 10.1705C233.285 10.1671 233.197 10.1671 233.097 10.1671H233.096H231.345C231.764 7.96608 232.073 6.44993 232.25 5.76433C232.38 5.25908 232.835 4.78308 233.387 4.78308C233.787 4.78308 234.186 4.92861 234.424 5.08952C234.042 5.15284 233.782 5.32378 233.614 5.52769C233.43 5.75129 233.359 6.01199 233.359 6.20703C233.359 6.4377 233.449 6.62506 233.597 6.75413C233.745 6.88257 233.948 6.95066 234.17 6.95066C234.638 6.95066 235.338 6.56599 235.338 5.70849C235.338 5.23346 235.092 4.86685 234.723 4.62102C234.356 4.37598 233.864 4.24956 233.365 4.24956C232.38 4.24956 231.426 4.95734 230.972 5.81515L231.016 5.83854ZM231.016 5.83854C231.463 4.99319 232.403 4.29956 233.365 4.29956C234.349 4.29956 235.288 4.79811 235.288 5.70849C235.288 6.53217 234.617 6.90066 234.17 6.90066C233.745 6.90066 233.409 6.64055 233.409 6.20703C233.409 5.84841 233.664 5.24341 234.481 5.13135L229.875 10.2171C230.389 7.37753 230.613 6.5972 231.016 5.83854Z" fill="black" stroke="#5F5B80" stroke-width="0.1"/>
<path d="M240.257 3.78052L240.257 3.78054L240.258 3.77848C240.273 3.74021 240.288 3.70404 240.303 3.66994C240.322 3.62428 240.34 3.58234 240.354 3.54407C240.379 3.47381 240.396 3.40642 240.396 3.32652C240.396 2.81462 239.918 2.48174 239.481 2.48174C239.166 2.48174 238.962 2.61631 238.83 2.77842C238.701 2.93831 238.643 3.12354 238.613 3.22546C238.613 3.22554 238.613 3.22561 238.613 3.22568L236.719 9.45259C236.659 9.62701 236.657 9.67647 236.657 9.69921C236.657 9.73746 236.663 9.77163 236.678 9.80175C236.693 9.83214 236.715 9.85536 236.741 9.87375C236.79 9.90799 236.858 9.92805 236.928 9.94867C237.192 10.0621 237.232 10.0671 237.274 10.0671C237.299 10.0671 237.346 10.0669 237.4 10.0264C237.451 9.98821 237.504 9.91773 237.558 9.79149L240.257 3.78052Z" fill="black" stroke="#5F5B80" stroke-width="0.1"/>
<path d="M245.114 21.0124L245.114 21.0126C245.776 22.3181 246.568 23.3246 247.225 24.0051C247.554 24.3453 247.849 24.6045 248.079 24.779C248.194 24.8662 248.292 24.9327 248.371 24.9778C248.411 25.0003 248.446 25.0178 248.476 25.0299C248.505 25.0415 248.533 25.05 248.559 25.05C248.61 25.05 248.671 25.0377 248.721 25.0032C248.774 24.967 248.81 24.9085 248.81 24.8266V24.8254C248.81 24.8091 248.81 24.7878 248.802 24.7615C248.794 24.7353 248.778 24.7073 248.753 24.6724C248.702 24.6035 248.604 24.4979 248.415 24.3139C246.19 22.1371 244.94 18.5756 244.94 14.1621C244.94 9.96524 245.989 6.36096 248.57 3.81603C248.682 3.71893 248.742 3.65561 248.774 3.60596C248.791 3.58003 248.8 3.55686 248.805 3.53382C248.81 3.51232 248.81 3.49283 248.81 3.4774V3.4759C248.81 3.39401 248.774 3.33549 248.721 3.29931C248.671 3.26479 248.61 3.25249 248.559 3.25249C248.531 3.25249 248.5 3.26139 248.468 3.27415C248.435 3.28731 248.398 3.30637 248.356 3.33053C248.274 3.37887 248.172 3.44957 248.056 3.54012C247.824 3.72134 247.531 3.98447 247.214 4.31365C246.58 4.97192 245.844 5.89698 245.293 6.96434C244.148 9.16163 243.632 11.489 243.632 14.1621C243.632 16.0957 243.946 18.6836 245.114 21.0124Z" fill="black" stroke="#5F5B80" stroke-width="0.1"/>
<path d="M260.47 10.6962C259.826 10.8682 259.577 11.3711 259.577 11.7779C259.577 12.0537 259.691 12.242 259.849 12.3599C260.005 12.4762 260.201 12.5215 260.365 12.5215C261.067 12.5215 261.556 11.9326 261.556 11.3227C261.556 10.844 261.272 10.4992 260.876 10.2766C260.481 10.0546 259.969 9.95049 259.493 9.95049C258.793 9.95049 258.25 10.2841 257.858 10.6665C257.525 10.9921 257.299 11.3551 257.176 11.5846C256.907 10.8307 256.445 10.4219 255.994 10.2021C255.523 9.97241 255.067 9.95049 254.862 9.95049C253.699 9.95049 252.813 10.6744 252.222 11.4495C251.926 11.8377 251.701 12.2408 251.551 12.5771C251.476 12.7453 251.419 12.8973 251.381 13.0229C251.343 13.1472 251.322 13.2496 251.322 13.3169C251.322 13.4358 251.439 13.562 251.618 13.562C251.722 13.562 251.792 13.5232 251.84 13.4696C251.877 13.4289 251.901 13.3788 251.92 13.3411C251.924 13.3328 251.928 13.325 251.931 13.3181L251.932 13.3185L251.934 13.3103C252.689 10.924 254.169 10.484 254.795 10.484C255.28 10.484 255.566 10.7015 255.734 10.98C255.903 11.2619 255.953 11.6093 255.953 11.8646C255.953 12.3146 255.832 12.7849 255.584 13.7448C255.573 13.785 255.563 13.826 255.552 13.868L255.552 13.8681L254.791 16.8376C254.624 17.4848 254.38 18.1007 254.034 18.5537C253.688 19.0055 253.243 19.2928 252.67 19.2928C252.567 19.2928 252.098 19.2923 251.668 19.0801C252.395 18.8802 252.563 18.2594 252.563 17.9989C252.563 17.7682 252.473 17.5808 252.325 17.4518C252.177 17.3233 251.975 17.2552 251.753 17.2552C251.191 17.2552 250.584 17.7301 250.584 18.4541C250.584 18.9324 250.862 19.2773 251.255 19.5001C251.648 19.7222 252.16 19.8263 252.647 19.8263C253.706 19.8263 254.462 19.0463 254.938 18.1928C255.338 19.4107 256.439 19.8263 257.256 19.8263C258.419 19.8263 259.304 19.1024 259.896 18.3272C260.192 17.9391 260.416 17.536 260.567 17.1996C260.642 17.0315 260.699 16.8794 260.737 16.7538C260.775 16.6296 260.796 16.5272 260.796 16.4599C260.796 16.319 260.679 16.2148 260.522 16.2148C260.411 16.2148 260.338 16.2456 260.287 16.3094C260.263 16.339 260.246 16.3737 260.23 16.4098C260.22 16.4337 260.21 16.4603 260.2 16.4879C260.195 16.5013 260.19 16.5149 260.184 16.5285L260.184 16.5285L260.183 16.5315C259.584 18.4255 258.301 19.2928 257.323 19.2928C256.944 19.2928 256.657 19.1572 256.464 18.9184C256.269 18.6781 256.165 18.3276 256.165 17.8905C256.165 17.4304 256.249 17.0951 256.59 15.73L256.611 15.649L256.611 15.6483L257.394 12.7011L257.394 12.7008C257.728 11.4061 258.477 10.484 259.47 10.484C259.512 10.484 260.031 10.4846 260.47 10.6962Z" fill="black" stroke="#5F5B80" stroke-width="0.1"/>
<path d="M267.332 7.29022L267.332 7.28989C266.669 5.98437 265.877 4.97785 265.22 4.29735C264.891 3.95713 264.596 3.69797 264.366 3.52347C264.252 3.43629 264.153 3.36973 264.074 3.3247C264.035 3.30221 264 3.28464 263.97 3.27255C263.941 3.26096 263.912 3.25249 263.887 3.25249C263.835 3.25249 263.774 3.26479 263.724 3.29931C263.672 3.33549 263.635 3.39401 263.635 3.4759C263.635 3.47628 263.635 3.47667 263.635 3.47706C263.635 3.49334 263.635 3.51467 263.644 3.54097C263.652 3.56713 263.667 3.59516 263.692 3.63004C263.743 3.69895 263.841 3.8046 264.031 3.98859C266.255 6.16537 267.505 9.72687 267.505 14.1404C267.505 18.3372 266.456 21.9415 263.875 24.4864C263.764 24.5835 263.703 24.6469 263.671 24.6965C263.655 24.7224 263.645 24.7456 263.64 24.7687C263.635 24.7902 263.635 24.8096 263.635 24.8251L263.635 24.8266C263.635 24.9085 263.672 24.967 263.724 25.0032C263.774 25.0377 263.835 25.05 263.887 25.05C263.914 25.05 263.946 25.0411 263.977 25.0283C264.01 25.0152 264.047 24.9961 264.089 24.9719C264.172 24.9236 264.273 24.8529 264.389 24.7624C264.621 24.5811 264.914 24.318 265.231 23.9888C265.866 23.3305 266.602 22.4054 267.152 21.338C268.297 19.1192 268.813 16.7702 268.813 14.1621C268.813 12.5112 268.589 9.8145 267.332 7.29022Z" fill="black" stroke="#5F5B80" stroke-width="0.1"/>
<path d="M290.687 14.6241L290.693 14.6241C290.879 14.6241 291.082 14.6241 291.238 14.5668C291.319 14.5373 291.391 14.4915 291.442 14.4203C291.493 14.349 291.52 14.2568 291.52 14.1405C291.52 14.0243 291.493 13.9321 291.442 13.8608C291.391 13.7896 291.319 13.7438 291.238 13.7143C291.082 13.657 290.879 13.657 290.693 13.657L290.687 13.657H278.584L278.578 13.657C278.393 13.657 278.19 13.657 278.033 13.7143C277.952 13.7438 277.881 13.7896 277.83 13.8608C277.779 13.9321 277.752 14.0243 277.752 14.1405C277.752 14.2568 277.779 14.349 277.83 14.4203C277.881 14.4915 277.952 14.5373 278.033 14.5668C278.19 14.6241 278.393 14.6241 278.578 14.6241L278.584 14.6241H290.687Z" fill="black" stroke="#5F5B80" stroke-width="0.1"/>
<path d="M306.256 5.83854L306.212 5.8151C305.807 6.57799 305.583 7.36208 305.074 10.1671H303.617H303.615C303.51 10.1671 303.415 10.1671 303.332 10.1733C303.249 10.1795 303.175 10.1923 303.113 10.2202C303.049 10.2488 302.998 10.2931 302.965 10.3592C302.932 10.4237 302.918 10.5056 302.918 10.6072C302.918 10.6704 302.927 10.7256 302.953 10.7703C302.98 10.8169 303.022 10.8456 303.075 10.8633C303.127 10.8804 303.191 10.8881 303.268 10.8919C303.344 10.8957 303.438 10.8957 303.548 10.8957H303.55H304.92C304.797 11.5136 304.629 12.3828 304.441 13.3586C304.003 15.6239 303.454 18.4639 303.098 20.0687L303.098 20.0687L303.098 20.0697C302.907 21.0142 302.729 21.8755 302.461 22.5011C302.192 23.1269 301.841 23.4977 301.313 23.4977H301.313C301.28 23.4977 301.106 23.4977 300.89 23.4475C300.703 23.4039 300.488 23.323 300.309 23.1741C300.823 23.1059 301.095 22.8541 301.236 22.605C301.385 22.3419 301.385 22.0878 301.385 22.0737C301.385 21.8431 301.295 21.6557 301.147 21.5266C300.999 21.3982 300.797 21.3301 300.574 21.3301C300.106 21.3301 299.406 21.7148 299.406 22.5723C299.406 23.0587 299.664 23.4251 300.029 23.6679C300.394 23.91 300.868 24.0312 301.313 24.0312C302.486 24.0312 303.303 23.0126 303.855 21.8843C304.408 20.7517 304.706 19.4844 304.829 18.9421C305.224 17.3021 306.288 11.7176 306.433 10.8957H308.292H308.294C308.404 10.8957 308.501 10.8957 308.583 10.8891C308.665 10.8824 308.737 10.8689 308.796 10.8387C308.857 10.8074 308.902 10.7596 308.93 10.6909C308.957 10.6242 308.969 10.5395 308.969 10.4338C308.969 10.3731 308.956 10.3204 308.924 10.2783C308.892 10.2362 308.846 10.2114 308.792 10.1961C308.739 10.1809 308.674 10.1739 308.6 10.1705C308.525 10.1671 308.438 10.1671 308.338 10.1671H308.337H306.585C307.005 7.96608 307.314 6.44993 307.49 5.76433C307.621 5.25908 308.075 4.78308 308.628 4.78308C309.028 4.78308 309.427 4.92861 309.665 5.08952C309.283 5.15284 309.023 5.32378 308.855 5.52769C308.671 5.75129 308.6 6.01199 308.6 6.20703C308.6 6.4377 308.69 6.62506 308.838 6.75413C308.986 6.88257 309.188 6.95066 309.411 6.95066C309.879 6.95066 310.579 6.56599 310.579 5.70849C310.579 5.23346 310.333 4.86685 309.964 4.62102C309.596 4.37598 309.105 4.24956 308.605 4.24956C307.621 4.24956 306.666 4.95734 306.212 5.81515L306.256 5.83854ZM306.256 5.83854C306.704 4.99319 307.643 4.29956 308.605 4.29956C309.59 4.29956 310.529 4.79811 310.529 5.70849C310.529 6.53217 309.858 6.90066 309.411 6.90066C308.986 6.90066 308.65 6.64055 308.65 6.20703C308.65 5.84841 308.904 5.24341 309.722 5.13135L305.116 10.2171C305.63 7.37753 305.854 6.5972 306.256 5.83854Z" fill="black" stroke="#5F5B80" stroke-width="0.1"/>
<path d="M315.124 21.0124L315.124 21.0126C315.787 22.3181 316.579 23.3246 317.236 24.0051C317.565 24.3453 317.86 24.6045 318.09 24.779C318.204 24.8662 318.303 24.9327 318.382 24.9778C318.421 25.0003 318.456 25.0178 318.487 25.0299C318.515 25.0415 318.544 25.05 318.569 25.05C318.621 25.05 318.682 25.0377 318.732 25.0032C318.784 24.967 318.821 24.9085 318.821 24.8266V24.8254C318.821 24.8091 318.821 24.7878 318.813 24.7615C318.804 24.7353 318.789 24.7073 318.764 24.6724C318.713 24.6035 318.615 24.4979 318.425 24.3139C316.201 22.1371 314.951 18.5756 314.951 14.1621C314.951 9.96524 316 6.36096 318.581 3.81603C318.692 3.71893 318.753 3.65561 318.785 3.60596C318.802 3.58003 318.811 3.55686 318.816 3.53382C318.821 3.51232 318.821 3.49283 318.821 3.4774V3.4759C318.821 3.39401 318.784 3.33549 318.732 3.29931C318.682 3.26479 318.621 3.25249 318.569 3.25249C318.542 3.25249 318.51 3.26139 318.479 3.27415C318.446 3.28731 318.409 3.30637 318.367 3.33053C318.284 3.37887 318.183 3.44957 318.067 3.54012C317.835 3.72134 317.542 3.98447 317.225 4.31365C316.59 4.97192 315.854 5.89698 315.304 6.96434C314.159 9.16163 313.643 11.489 313.643 14.1621C313.643 16.0957 313.956 18.6836 315.124 21.0124Z" fill="black" stroke="#5F5B80" stroke-width="0.1"/>
<path d="M330.481 10.6962C329.837 10.8682 329.588 11.3711 329.588 11.7779C329.588 12.0537 329.702 12.242 329.86 12.3599C330.016 12.4762 330.212 12.5215 330.376 12.5215C331.078 12.5215 331.567 11.9326 331.567 11.3227C331.567 10.844 331.283 10.4992 330.887 10.2766C330.492 10.0546 329.98 9.95049 329.504 9.95049C328.804 9.95049 328.261 10.2841 327.869 10.6665C327.536 10.9921 327.31 11.3551 327.187 11.5846C326.918 10.8307 326.456 10.4219 326.005 10.2021C325.534 9.97241 325.078 9.95049 324.873 9.95049C323.71 9.95049 322.824 10.6744 322.233 11.4495C321.936 11.8377 321.712 12.2408 321.562 12.5771C321.487 12.7453 321.43 12.8973 321.392 13.0229C321.354 13.1472 321.333 13.2496 321.333 13.3169C321.333 13.4358 321.45 13.562 321.629 13.562C321.733 13.562 321.803 13.5232 321.851 13.4696C321.888 13.4289 321.912 13.3788 321.931 13.3411C321.935 13.3328 321.939 13.325 321.942 13.3181L321.943 13.3185L321.945 13.3103C322.7 10.924 324.18 10.484 324.806 10.484C325.291 10.484 325.577 10.7015 325.745 10.98C325.914 11.2619 325.964 11.6093 325.964 11.8646C325.964 12.3146 325.843 12.7849 325.595 13.7448C325.584 13.785 325.574 13.826 325.563 13.868L325.563 13.8681L324.802 16.8376C324.635 17.4848 324.391 18.1007 324.045 18.5537C323.699 19.0055 323.254 19.2928 322.681 19.2928C322.578 19.2928 322.109 19.2923 321.679 19.0801C322.406 18.8802 322.574 18.2594 322.574 17.9989C322.574 17.7682 322.484 17.5808 322.336 17.4518C322.188 17.3233 321.986 17.2552 321.764 17.2552C321.202 17.2552 320.595 17.7301 320.595 18.4541C320.595 18.9324 320.873 19.2773 321.266 19.5001C321.659 19.7222 322.171 19.8263 322.658 19.8263C323.717 19.8263 324.473 19.0463 324.949 18.1928C325.349 19.4107 326.45 19.8263 327.267 19.8263C328.43 19.8263 329.315 19.1024 329.907 18.3272C330.203 17.9391 330.427 17.536 330.578 17.1996C330.653 17.0315 330.71 16.8794 330.748 16.7538C330.786 16.6296 330.806 16.5272 330.806 16.4599C330.806 16.319 330.69 16.2148 330.533 16.2148C330.422 16.2148 330.349 16.2456 330.298 16.3094C330.274 16.339 330.257 16.3737 330.241 16.4098C330.231 16.4337 330.221 16.4603 330.211 16.4879C330.206 16.5013 330.201 16.5149 330.195 16.5285L330.195 16.5285L330.194 16.5315C329.595 18.4255 328.312 19.2928 327.334 19.2928C326.955 19.2928 326.668 19.1572 326.475 18.9184C326.28 18.6781 326.176 18.3276 326.176 17.8905C326.176 17.4304 326.26 17.0951 326.601 15.73L326.622 15.649L326.622 15.6483L327.404 12.7011L327.405 12.7008C327.739 11.4061 328.488 10.484 329.481 10.484C329.523 10.484 330.042 10.4846 330.481 10.6962Z" fill="black" stroke="#5F5B80" stroke-width="0.1"/>
<path d="M337.343 7.29022L337.343 7.28989C336.68 5.98437 335.888 4.97785 335.231 4.29735C334.902 3.95713 334.607 3.69797 334.377 3.52347C334.263 3.43629 334.164 3.36973 334.085 3.3247C334.046 3.30221 334.011 3.28464 333.98 3.27255C333.952 3.26096 333.923 3.25249 333.898 3.25249C333.846 3.25249 333.785 3.26479 333.735 3.29931C333.683 3.33549 333.646 3.39401 333.646 3.4759C333.646 3.47628 333.646 3.47667 333.646 3.47706C333.646 3.49334 333.646 3.51467 333.655 3.54097C333.663 3.56713 333.678 3.59516 333.703 3.63004C333.754 3.69895 333.852 3.8046 334.042 3.98859C336.266 6.16537 337.516 9.72687 337.516 14.1404C337.516 18.3372 336.467 21.9415 333.886 24.4864C333.775 24.5835 333.714 24.6469 333.682 24.6965C333.666 24.7224 333.656 24.7456 333.651 24.7687C333.646 24.7902 333.646 24.8096 333.646 24.8251L333.646 24.8266C333.646 24.9085 333.683 24.967 333.735 25.0032C333.785 25.0377 333.846 25.05 333.898 25.05C333.925 25.05 333.957 25.0411 333.988 25.0283C334.021 25.0152 334.058 24.9961 334.1 24.9719C334.183 24.9236 334.284 24.8529 334.4 24.7624C334.632 24.5811 334.925 24.318 335.242 23.9888C335.877 23.3305 336.613 22.4054 337.163 21.338C338.308 19.1192 338.824 16.7702 338.824 14.1621C338.824 12.5112 338.6 9.8145 337.343 7.29022Z" fill="black" stroke="#5F5B80" stroke-width="0.1"/>
<path d="M348.083 17.532L348.083 17.532L348.082 17.5342C347.171 18.6752 346.244 19.076 345.57 19.076C345.215 19.076 344.872 18.9407 344.617 18.6258C344.361 18.3097 344.189 17.8075 344.189 17.0668C344.189 16.4992 344.355 15.6102 344.584 14.7385C344.813 13.8676 345.103 13.0211 345.346 12.5379C345.668 11.936 346.078 11.4215 346.522 11.0579C346.967 10.694 347.443 10.484 347.897 10.484C348.611 10.484 349.039 10.9119 349.291 11.3634C349.417 11.5892 349.498 11.8196 349.548 12.0017C349.595 12.176 349.612 12.3021 349.614 12.3366L349.549 12.6334L348.497 16.7942C348.497 16.7942 348.497 16.7943 348.497 16.7943C348.453 16.9673 348.42 17.0702 348.365 17.1699C348.309 17.2701 348.229 17.3694 348.083 17.532ZM346.386 22.6228L346.386 22.6233C345.483 23.4979 344.65 23.4979 344.162 23.4979H344.161C343.554 23.4979 343.042 23.4623 342.54 23.3278C343.155 23.0856 343.316 22.5263 343.316 22.2907C343.316 21.9168 343.026 21.547 342.506 21.547C341.945 21.547 341.337 21.9996 341.337 22.7459C341.337 22.9772 341.397 23.1762 341.52 23.3434C341.642 23.5101 341.825 23.6416 342.064 23.7429C342.541 23.9449 343.254 24.0314 344.206 24.0314C347.114 24.0314 348.633 22.2173 348.93 21.024C348.93 21.024 348.93 21.0239 348.93 21.0239L351.413 11.3135C351.48 11.0527 351.482 11.0042 351.482 10.9542C351.482 10.6204 351.21 10.3623 350.85 10.3623C350.566 10.3623 350.34 10.4775 350.177 10.6699C350.044 10.8267 349.955 11.0332 349.908 11.2675C349.587 10.6576 348.96 9.95049 347.897 9.95049C346.659 9.95049 345.343 10.7034 344.339 11.8562C343.334 13.0098 342.635 14.5709 342.635 16.1998C342.635 17.3376 342.991 18.1906 343.532 18.7595C344.073 19.3281 344.797 19.6095 345.526 19.6095C346.131 19.6095 346.699 19.3773 347.165 19.0928C347.544 18.8612 347.858 18.5936 348.071 18.3838L347.625 20.1537L347.625 20.1542L347.613 20.1974C347.463 20.7723 347.353 21.1892 347.186 21.5546C347.016 21.9271 346.785 22.2471 346.386 22.6228Z" fill="black" stroke="#5F5B80" stroke-width="0.1"/>
<path d="M356.273 3.78052L356.273 3.78054L356.274 3.77848C356.289 3.74021 356.305 3.70404 356.319 3.66994C356.338 3.62428 356.356 3.58234 356.37 3.54407C356.395 3.47381 356.412 3.40642 356.412 3.32652C356.412 2.81462 355.934 2.48174 355.497 2.48174C355.182 2.48174 354.978 2.61631 354.847 2.77842C354.717 2.93831 354.659 3.12354 354.629 3.22546C354.629 3.22554 354.629 3.22561 354.629 3.22568L352.735 9.45259C352.675 9.62701 352.673 9.67647 352.673 9.69921C352.673 9.73746 352.679 9.77163 352.694 9.80175C352.709 9.83214 352.731 9.85536 352.757 9.87375C352.806 9.90799 352.874 9.92805 352.945 9.94867C353.208 10.0621 353.248 10.0671 353.29 10.0671C353.316 10.0671 353.362 10.0669 353.417 10.0264C353.468 9.98821 353.52 9.91773 353.574 9.79149L356.273 3.78052Z" fill="black" stroke="#5F5B80" stroke-width="0.1"/>
<path d="M361.13 21.0124L361.13 21.0126C361.792 22.3181 362.584 23.3246 363.241 24.0051C363.57 24.3453 363.865 24.6045 364.095 24.779C364.21 24.8662 364.309 24.9327 364.387 24.9778C364.427 25.0003 364.462 25.0178 364.492 25.0299C364.521 25.0415 364.55 25.05 364.575 25.05C364.626 25.05 364.688 25.0377 364.737 25.0032C364.79 24.967 364.826 24.9085 364.826 24.8266V24.8254C364.826 24.8091 364.826 24.7878 364.818 24.7615C364.81 24.7353 364.794 24.7073 364.769 24.6724C364.719 24.6035 364.621 24.4979 364.431 24.3139C362.206 22.1371 360.956 18.5756 360.956 14.1621C360.956 9.96524 362.005 6.36096 364.586 3.81603C364.698 3.71893 364.758 3.65561 364.79 3.60596C364.807 3.58003 364.817 3.55686 364.821 3.53382C364.826 3.51232 364.826 3.49283 364.826 3.4774V3.4759C364.826 3.39401 364.79 3.33549 364.737 3.29931C364.688 3.26479 364.626 3.25249 364.575 3.25249C364.547 3.25249 364.516 3.26139 364.484 3.27415C364.451 3.28731 364.414 3.30637 364.373 3.33053C364.29 3.37887 364.188 3.44957 364.072 3.54012C363.84 3.72134 363.547 3.98447 363.23 4.31365C362.596 4.97192 361.86 5.89698 361.309 6.96434C360.164 9.16163 359.648 11.489 359.648 14.1621C359.648 16.0957 359.962 18.6836 361.13 21.0124Z" fill="black" stroke="#5F5B80" stroke-width="0.1"/>
<path d="M376.486 10.6962C375.843 10.8682 375.593 11.3711 375.593 11.7779C375.593 12.0537 375.707 12.242 375.865 12.3599C376.021 12.4762 376.217 12.5215 376.382 12.5215C377.083 12.5215 377.572 11.9326 377.572 11.3227C377.572 10.844 377.289 10.4992 376.893 10.2766C376.497 10.0546 375.985 9.95049 375.509 9.95049C374.81 9.95049 374.266 10.2841 373.875 10.6665C373.541 10.9921 373.315 11.3551 373.192 11.5846C372.923 10.8307 372.461 10.4219 372.01 10.2021C371.539 9.97241 371.083 9.95049 370.878 9.95049C369.715 9.95049 368.83 10.6744 368.238 11.4495C367.942 11.8377 367.718 12.2408 367.567 12.5771C367.492 12.7453 367.435 12.8973 367.397 13.0229C367.359 13.1472 367.339 13.2496 367.339 13.3169C367.339 13.4358 367.455 13.562 367.635 13.562C367.739 13.562 367.808 13.5232 367.856 13.4696C367.893 13.4289 367.918 13.3788 367.936 13.3411C367.94 13.3328 367.944 13.325 367.948 13.3181L367.948 13.3185L367.951 13.3103C368.705 10.924 370.185 10.484 370.811 10.484C371.296 10.484 371.582 10.7015 371.75 10.98C371.92 11.2619 371.969 11.6093 371.969 11.8646C371.969 12.3146 371.848 12.7849 371.6 13.7448C371.59 13.785 371.579 13.826 371.568 13.868L371.568 13.8681L370.808 16.8376C370.641 17.4848 370.397 18.1007 370.05 18.5537C369.705 19.0055 369.259 19.2928 368.686 19.2928C368.584 19.2928 368.114 19.2923 367.685 19.0801C368.411 18.8802 368.58 18.2594 368.58 17.9989C368.58 17.7682 368.49 17.5808 368.341 17.4518C368.194 17.3233 367.991 17.2552 367.769 17.2552C367.207 17.2552 366.6 17.7301 366.6 18.4541C366.6 18.9324 366.878 19.2773 367.272 19.5001C367.664 19.7222 368.177 19.8263 368.664 19.8263C369.723 19.8263 370.478 19.0463 370.955 18.1928C371.354 19.4107 372.455 19.8263 373.272 19.8263C374.435 19.8263 375.321 19.1024 375.912 18.3272C376.209 17.9391 376.433 17.536 376.583 17.1996C376.658 17.0315 376.715 16.8794 376.753 16.7538C376.791 16.6296 376.812 16.5272 376.812 16.4599C376.812 16.319 376.695 16.2148 376.538 16.2148C376.427 16.2148 376.355 16.2456 376.303 16.3094C376.28 16.339 376.262 16.3737 376.247 16.4098C376.237 16.4337 376.227 16.4603 376.216 16.4879C376.211 16.5013 376.206 16.5149 376.201 16.5285L376.201 16.5285L376.2 16.5315C375.6 18.4255 374.317 19.2928 373.339 19.2928C372.961 19.2928 372.674 19.1572 372.48 18.9184C372.286 18.6781 372.181 18.3276 372.181 17.8905C372.181 17.4304 372.265 17.0951 372.607 15.73L372.627 15.649L372.627 15.6483L373.41 12.7011L373.41 12.7008C373.744 11.4061 374.494 10.484 375.487 10.484C375.528 10.484 376.048 10.4846 376.486 10.6962Z" fill="black" stroke="#5F5B80" stroke-width="0.1"/>
<path d="M383.348 7.29022L383.348 7.28989C382.686 5.98437 381.894 4.97785 381.237 4.29735C380.908 3.95713 380.613 3.69797 380.383 3.52347C380.268 3.43629 380.169 3.36973 380.091 3.3247C380.051 3.30221 380.016 3.28464 379.986 3.27255C379.957 3.26096 379.928 3.25249 379.903 3.25249C379.852 3.25249 379.79 3.26479 379.741 3.29931C379.688 3.33549 379.652 3.39401 379.652 3.4759C379.652 3.47628 379.652 3.47667 379.652 3.47706C379.652 3.49334 379.652 3.51467 379.66 3.54097C379.668 3.56713 379.684 3.59516 379.709 3.63004C379.759 3.69895 379.857 3.8046 380.047 3.98859C382.272 6.16537 383.522 9.72687 383.522 14.1404C383.522 18.3372 382.473 21.9415 379.892 24.4864C379.78 24.5835 379.72 24.6469 379.688 24.6965C379.671 24.7224 379.661 24.7456 379.657 24.7687C379.652 24.7902 379.652 24.8096 379.652 24.8251L379.652 24.8266C379.652 24.9085 379.688 24.967 379.741 25.0032C379.79 25.0377 379.852 25.05 379.903 25.05C379.931 25.05 379.962 25.0411 379.994 25.0283C380.027 25.0152 380.064 24.9961 380.105 24.9719C380.188 24.9236 380.29 24.8529 380.406 24.7624C380.638 24.5811 380.931 24.318 381.248 23.9888C381.882 23.3305 382.618 22.4054 383.169 21.338C384.314 19.1192 384.83 16.7702 384.83 14.1621C384.83 12.5112 384.606 9.8145 383.348 7.29022Z" fill="black" stroke="#5F5B80" stroke-width="0.1"/>
<path d="M396.634 4.12174L396.637 4.11339V4.10927C396.637 4.10692 396.638 4.10356 396.64 4.09905C396.643 4.08878 396.648 4.07474 396.655 4.05775C396.663 4.03547 396.673 4.00912 396.683 3.98092C396.689 3.96606 396.695 3.95068 396.701 3.93511C396.717 3.89039 396.734 3.84437 396.747 3.80667C396.754 3.78786 396.759 3.77053 396.763 3.75616C396.767 3.74403 396.771 3.72771 396.771 3.71433C396.771 3.42177 396.52 3.25249 396.318 3.25249L396.317 3.25249C396.26 3.25249 396.169 3.25249 396.069 3.3209C395.971 3.3886 395.871 3.51843 395.779 3.76179L395.779 3.76211L388.285 24.1591L388.282 24.1674V24.1715C388.281 24.1739 388.28 24.1772 388.279 24.1817C388.275 24.192 388.27 24.206 388.264 24.223C388.256 24.2453 388.246 24.2717 388.235 24.2999C388.23 24.3147 388.224 24.3301 388.218 24.3457C388.201 24.3904 388.184 24.4364 388.171 24.4741C388.165 24.4929 388.159 24.5103 388.155 24.5246C388.152 24.5368 388.148 24.5531 388.148 24.5665C388.148 24.859 388.399 25.0283 388.6 25.0283C388.671 25.0283 388.768 25.0227 388.867 24.9512C388.966 24.8806 389.06 24.7507 389.14 24.5182C389.14 24.518 389.14 24.5179 389.14 24.5177L396.634 4.12174ZM396.636 4.11226C396.636 4.11223 396.636 4.11197 396.636 4.11145L396.636 4.11226ZM388.283 24.1685C388.283 24.1685 388.283 24.1687 388.283 24.1692L388.283 24.1685Z" fill="black" stroke="#5F5B80" stroke-width="0.1"/>
<path d="M403.535 25.0283H403.585V24.9783V24.1763V24.1263H403.535H401.415V4.15449H403.535H403.585V4.10449V3.30249V3.25249H403.535H400.537H400.487V3.30249V24.9783V25.0283H400.537H403.535Z" fill="black" stroke="#5F5B80" stroke-width="0.1"/>
<path d="M411.126 17.532L411.126 17.532L411.124 17.5342C410.213 18.6752 409.286 19.076 408.613 19.076C408.257 19.076 407.914 18.9407 407.659 18.6258C407.403 18.3097 407.231 17.8075 407.231 17.0668C407.231 16.4992 407.397 15.6102 407.626 14.7385C407.855 13.8676 408.145 13.0211 408.389 12.5379C408.71 11.936 409.12 11.4215 409.564 11.0579C410.009 10.694 410.485 10.484 410.939 10.484C411.653 10.484 412.081 10.9119 412.333 11.3634C412.459 11.5892 412.54 11.8196 412.59 12.0017C412.637 12.176 412.655 12.3021 412.656 12.3366L412.591 12.6334L411.54 16.7942C411.54 16.7942 411.54 16.7943 411.54 16.7943C411.495 16.9673 411.463 17.0702 411.407 17.1699C411.352 17.2701 411.271 17.3694 411.126 17.532ZM409.429 22.6228L409.428 22.6233C408.525 23.4979 407.692 23.4979 407.204 23.4979H407.203C406.596 23.4979 406.085 23.4623 405.583 23.3278C406.197 23.0856 406.359 22.5263 406.359 22.2907C406.359 21.9168 406.068 21.547 405.548 21.547C404.987 21.547 404.379 21.9996 404.379 22.7459C404.379 22.9772 404.439 23.1762 404.562 23.3434C404.685 23.5101 404.867 23.6416 405.106 23.7429C405.583 23.9449 406.296 24.0314 407.248 24.0314C410.156 24.0314 411.675 22.2173 411.972 21.024C411.972 21.024 411.972 21.0239 411.972 21.0239L414.455 11.3135C414.522 11.0527 414.524 11.0042 414.524 10.9542C414.524 10.6204 414.253 10.3623 413.892 10.3623C413.609 10.3623 413.382 10.4775 413.219 10.6699C413.086 10.8267 412.997 11.0332 412.95 11.2675C412.63 10.6576 412.002 9.95049 410.939 9.95049C409.701 9.95049 408.385 10.7034 407.381 11.8562C406.376 13.0098 405.677 14.5709 405.677 16.1998C405.677 17.3376 406.033 18.1906 406.574 18.7595C407.116 19.3281 407.839 19.6095 408.568 19.6095C409.173 19.6095 409.742 19.3773 410.208 19.0928C410.587 18.8612 410.9 18.5936 411.114 18.3838L410.667 20.1537L410.667 20.1542L410.656 20.1974C410.505 20.7723 410.395 21.1892 410.228 21.5546C410.058 21.9271 409.827 22.2471 409.429 22.6228Z" fill="black" stroke="#5F5B80" stroke-width="0.1"/>
<path d="M418.942 21.0124L418.942 21.0126C419.604 22.3181 420.396 23.3246 421.053 24.0051C421.382 24.3453 421.677 24.6045 421.907 24.779C422.022 24.8662 422.121 24.9327 422.199 24.9778C422.239 25.0003 422.274 25.0178 422.304 25.0299C422.333 25.0415 422.362 25.05 422.387 25.05C422.438 25.05 422.5 25.0377 422.549 25.0032C422.602 24.967 422.638 24.9085 422.638 24.8266V24.8254C422.638 24.8091 422.638 24.7878 422.63 24.7615C422.622 24.7353 422.606 24.7073 422.581 24.6724C422.531 24.6035 422.433 24.4979 422.243 24.3139C420.018 22.1371 418.768 18.5756 418.768 14.1621C418.768 9.96524 419.817 6.36096 422.398 3.81603C422.51 3.71893 422.57 3.65561 422.602 3.60596C422.619 3.58003 422.629 3.55686 422.634 3.53382C422.638 3.51232 422.638 3.49283 422.638 3.4774V3.4759C422.638 3.39401 422.602 3.33549 422.549 3.29931C422.5 3.26479 422.438 3.25249 422.387 3.25249C422.359 3.25249 422.328 3.26139 422.296 3.27415C422.263 3.28731 422.226 3.30637 422.185 3.33053C422.102 3.37887 422 3.44957 421.884 3.54012C421.652 3.72134 421.359 3.98447 421.042 4.31365C420.408 4.97192 419.672 5.89698 419.121 6.96434C417.976 9.16163 417.46 11.489 417.46 14.1621C417.46 16.0957 417.774 18.6836 418.942 21.0124Z" fill="black" stroke="#5F5B80" stroke-width="0.1"/>
<path d="M434.298 10.6962C433.655 10.8682 433.406 11.3711 433.406 11.7779C433.406 12.0537 433.519 12.242 433.678 12.3599C433.834 12.4762 434.029 12.5215 434.194 12.5215C434.896 12.5215 435.385 11.9326 435.385 11.3227C435.385 10.844 435.101 10.4992 434.705 10.2766C434.31 10.0546 433.798 9.95049 433.322 9.95049C432.622 9.95049 432.079 10.2841 431.687 10.6665C431.354 10.9921 431.127 11.3551 431.005 11.5846C430.736 10.8307 430.274 10.4219 429.823 10.2021C429.352 9.97241 428.896 9.95049 428.691 9.95049C427.528 9.95049 426.642 10.6744 426.051 11.4495C425.754 11.8377 425.53 12.2408 425.38 12.5771C425.305 12.7453 425.248 12.8973 425.21 13.0229C425.172 13.1472 425.151 13.2496 425.151 13.3169C425.151 13.4358 425.268 13.562 425.447 13.562C425.551 13.562 425.62 13.5232 425.669 13.4696C425.706 13.4289 425.73 13.3788 425.749 13.3411C425.753 13.3328 425.757 13.325 425.76 13.3181L425.761 13.3185L425.763 13.3103C426.518 10.924 427.998 10.484 428.624 10.484C429.109 10.484 429.395 10.7015 429.562 10.98C429.732 11.2619 429.782 11.6093 429.782 11.8646C429.782 12.3146 429.66 12.7849 429.413 13.7448C429.402 13.785 429.392 13.826 429.381 13.868L429.381 13.8681L428.62 16.8376C428.453 17.4848 428.209 18.1007 427.863 18.5537C427.517 19.0055 427.072 19.2928 426.499 19.2928C426.396 19.2928 425.927 19.2923 425.497 19.0801C426.223 18.8802 426.392 18.2594 426.392 17.9989C426.392 17.7682 426.302 17.5808 426.154 17.4518C426.006 17.3233 425.804 17.2552 425.581 17.2552C425.02 17.2552 424.413 17.7301 424.413 18.4541C424.413 18.9324 424.69 19.2773 425.084 19.5001C425.477 19.7222 425.989 19.8263 426.476 19.8263C427.535 19.8263 428.291 19.0463 428.767 18.1928C429.167 19.4107 430.268 19.8263 431.085 19.8263C432.248 19.8263 433.133 19.1024 433.725 18.3272C434.021 17.9391 434.245 17.536 434.396 17.1996C434.471 17.0315 434.528 16.8794 434.566 16.7538C434.604 16.6296 434.624 16.5272 434.624 16.4599C434.624 16.319 434.507 16.2148 434.351 16.2148C434.239 16.2148 434.167 16.2456 434.116 16.3094C434.092 16.339 434.075 16.3737 434.059 16.4098C434.049 16.4337 434.039 16.4603 434.029 16.4879C434.024 16.5013 434.018 16.5149 434.013 16.5285L434.013 16.5285L434.012 16.5315C433.412 18.4255 432.13 19.2928 431.152 19.2928C430.773 19.2928 430.486 19.1572 430.293 18.9184C430.098 18.6781 429.994 18.3276 429.994 17.8905C429.994 17.4304 430.078 17.0951 430.419 15.73L430.439 15.649L430.44 15.6483L431.222 12.7011L431.222 12.7008C431.557 11.4061 432.306 10.484 433.299 10.484C433.341 10.484 433.86 10.4846 434.298 10.6962Z" fill="black" stroke="#5F5B80" stroke-width="0.1"/>
<path d="M441.16 7.29022L441.16 7.28989C440.497 5.98437 439.706 4.97785 439.048 4.29735C438.72 3.95713 438.424 3.69797 438.195 3.52347C438.08 3.43629 437.981 3.36973 437.902 3.3247C437.863 3.30221 437.828 3.28464 437.798 3.27255C437.769 3.26096 437.74 3.25249 437.715 3.25249C437.663 3.25249 437.602 3.26479 437.552 3.29931C437.5 3.33549 437.464 3.39401 437.464 3.4759C437.464 3.47628 437.464 3.47667 437.464 3.47706C437.464 3.49334 437.464 3.51467 437.472 3.54097C437.48 3.56713 437.495 3.59516 437.521 3.63004C437.571 3.69895 437.669 3.8046 437.859 3.98859C440.083 6.16537 441.334 9.72687 441.334 14.1404C441.334 18.3372 440.285 21.9415 437.703 24.4864C437.592 24.5835 437.532 24.6469 437.5 24.6965C437.483 24.7224 437.473 24.7456 437.468 24.7687C437.464 24.7902 437.464 24.8096 437.464 24.8251L437.464 24.8266C437.464 24.9085 437.5 24.967 437.552 25.0032C437.602 25.0377 437.663 25.05 437.715 25.05C437.743 25.05 437.774 25.0411 437.806 25.0283C437.838 25.0152 437.876 24.9961 437.917 24.9719C438 24.9236 438.102 24.8529 438.218 24.7624C438.45 24.5811 438.742 24.318 439.06 23.9888C439.694 23.3305 440.43 22.4054 440.981 21.338C442.126 19.1192 442.642 16.7702 442.642 14.1621C442.642 12.5112 442.418 9.8145 441.16 7.29022Z" fill="black" stroke="#5F5B80" stroke-width="0.1"/>
<path d="M448.319 3.30249V3.25249H448.269H445.271H445.221V3.30249V4.10449V4.15449H445.271H447.391V24.1263H445.271H445.221V24.1763V24.9783V25.0283H445.271H448.269H448.319V24.9783V3.30249Z" fill="black" stroke="#5F5B80" stroke-width="0.1"/>
<path d="M455.124 7.69932L455.124 7.69932L455.125 7.69871C455.243 7.5917 455.457 7.41945 455.674 7.24748C455.713 7.21645 455.752 7.18543 455.791 7.15484C455.965 7.01674 456.129 6.88728 456.227 6.80391L456.227 6.80392L456.228 6.8031C457.15 5.98192 458.049 5.17294 458.049 3.83231C458.049 2.07595 456.526 0.95 454.644 0.95C452.829 0.95 451.626 2.28474 451.626 3.6011C451.626 3.9715 451.78 4.18963 451.965 4.31291C452.148 4.43399 452.356 4.46033 452.466 4.46033C452.633 4.46033 452.838 4.40301 453.003 4.27247C453.169 4.14059 453.292 3.93495 453.292 3.64445C453.292 3.44795 453.243 3.29684 453.164 3.18169C453.085 3.06682 452.978 2.99114 452.867 2.94135C452.694 2.86346 452.508 2.84727 452.393 2.8439C452.83 1.8657 453.779 1.52687 454.48 1.52687C455.158 1.52687 455.669 1.80532 456.012 2.23077C456.356 2.65744 456.533 3.23461 456.533 3.83231C456.533 4.57001 456.266 5.21021 455.778 5.8857C455.289 6.56268 454.58 7.27128 453.699 8.14645L453.699 8.14656L451.821 10.0241C451.732 10.1028 451.677 10.1578 451.651 10.2444C451.626 10.3239 451.626 10.4282 451.626 10.598L451.626 10.6096V10.6596H451.676H457.567H457.609L457.616 10.6179L458.049 8.03121L458.058 7.97296H457.999H457.537H457.494L457.488 8.01532C457.465 8.15953 457.425 8.41096 457.367 8.66022C457.31 8.90974 457.237 9.14861 457.154 9.2783C457.153 9.27917 457.15 9.28132 457.144 9.28431C457.134 9.28893 457.12 9.29393 457.102 9.29903C457.065 9.3092 457.015 9.31833 456.955 9.32633C456.835 9.3423 456.679 9.35306 456.517 9.36027C456.194 9.37466 455.852 9.37467 455.733 9.37467H453.211L455.124 7.69932Z" fill="black" stroke="#5F5B80" stroke-width="0.1"/>
</svg>
