<svg width="600" height="176" viewBox="0 0 600 176" fill="none" xmlns="http://www.w3.org/2000/svg">
<path d="M8.27531 28.9286C8.27531 28.811 7.7311 28.7325 6.64266 28.6933C6.18438 28.6933 5.8884 28.6835 5.75473 28.6639C5.62106 28.6443 5.55423 28.5463 5.55423 28.3698C5.55423 28.3502 5.57333 28.2424 5.61152 28.0463C5.63061 27.9875 5.64971 27.9189 5.6688 27.8405C5.6879 27.762 5.69744 27.713 5.69744 27.6934C5.69744 27.6738 5.71654 27.6248 5.75473 27.5464C5.79292 27.468 5.81202 27.4386 5.81202 27.4582C5.81202 27.4778 5.85021 27.4582 5.92659 27.3993C6.00297 27.3405 6.05071 27.3209 6.0698 27.3405C6.0889 27.3601 6.16528 27.3601 6.29895 27.3405C6.43261 27.3209 6.54719 27.3111 6.64266 27.3111C6.75723 27.3111 7.04366 27.3111 7.50195 27.3111C7.96024 27.3111 8.38988 27.3209 8.79088 27.3405C10.2994 27.3405 11.1683 27.3405 11.3974 27.3405C11.6265 27.3405 11.7793 27.3895 11.8557 27.4876C11.8748 27.566 12.228 30.3304 12.9155 35.7809L13.9466 43.9859L14.6054 42.8978C15.0637 42.192 15.6747 41.2117 16.4386 39.9569C17.2024 38.7021 18.0426 37.3297 18.9591 35.8397C22.3008 30.3696 23.9907 27.615 24.0289 27.5758C24.048 27.5562 24.0767 27.5268 24.1149 27.4876C24.1531 27.4484 24.1912 27.4189 24.2294 27.3993L24.4013 27.3405H27.151C27.4756 27.3405 27.8575 27.3405 28.2967 27.3405C28.7359 27.3405 29.0128 27.3307 29.1274 27.3111C29.7766 27.3111 30.1012 27.4189 30.1012 27.6346C30.1012 27.7326 30.0726 27.8993 30.0153 28.1346C29.958 28.3698 29.9294 28.4973 29.9294 28.5169C29.853 28.6345 29.4997 28.6933 28.8696 28.6933C28.1058 28.7129 27.6189 28.7423 27.4088 28.7816C27.1988 28.8208 27.0269 28.9286 26.8932 29.1051C26.8359 29.2031 26.1485 31.9773 24.8309 37.4278C23.5134 42.8782 22.845 45.6328 22.8259 45.6916C22.8259 45.7701 22.8355 45.8191 22.8546 45.8387C22.8737 45.8583 22.9405 45.8975 23.0551 45.9563C23.1696 46.0151 23.332 46.0347 23.542 46.0151C23.7521 45.9955 24.0671 46.0151 24.4872 46.074H25.3752C25.4897 46.2504 25.547 46.3582 25.547 46.3974C25.547 46.7111 25.4802 47.0052 25.3465 47.2797C25.251 47.3777 25.0983 47.4268 24.8882 47.4268C24.7928 47.4268 24.4013 47.417 23.7139 47.3973C23.0264 47.3777 22.1481 47.3679 21.0787 47.3679C19.9139 47.3679 19.0355 47.3679 18.4436 47.3679C17.8516 47.3679 17.5174 47.3777 17.4411 47.3973C17.1164 47.3973 16.9541 47.2993 16.9541 47.1033C16.9541 47.064 16.9732 46.9268 17.0114 46.6915C17.0878 46.3778 17.1642 46.2014 17.2406 46.1622C17.3169 46.123 17.5365 46.0936 17.8993 46.074C18.4149 46.074 18.9878 46.0445 19.6179 45.9857C19.8853 45.9269 20.0667 45.8093 20.1621 45.6328C20.2003 45.5544 20.5631 44.1232 21.2506 41.3391C21.938 38.5551 22.6159 35.7809 23.2842 33.0164C23.9526 30.252 24.2867 28.8698 24.2867 28.8698L18.73 37.9571C14.9873 44.0742 13.0682 47.1817 12.9728 47.2797C12.9346 47.2993 12.8964 47.3189 12.8582 47.3385C12.7627 47.3973 12.6099 47.4268 12.3999 47.4268C12.1135 47.4268 11.9416 47.3581 11.8843 47.2209C11.8461 47.1425 11.4547 44.1036 10.71 38.1042L9.59289 29.0756L7.64517 37.016C6.36578 42.2312 5.72609 44.927 5.72609 45.1035C5.84066 45.7505 6.52809 46.074 7.78838 46.074H8.07481C8.18938 46.172 8.25622 46.2602 8.27531 46.3386C8.29441 46.4171 8.26576 46.5935 8.18938 46.868C8.113 47.1817 8.03662 47.3581 7.96024 47.3973C7.88386 47.417 7.77883 47.4268 7.64517 47.4268C7.60698 47.4268 7.4924 47.4268 7.30145 47.4268C7.1105 47.4268 6.78588 47.417 6.32759 47.3973C5.8693 47.3777 5.25825 47.3679 4.49444 47.3679C3.92158 47.3679 3.32963 47.3777 2.71858 47.3973C2.10753 47.417 1.75426 47.4268 1.65879 47.4268C1.37236 47.4268 1.19095 47.4072 1.11457 47.3679C1.03819 47.3287 1 47.2405 1 47.1033C1 47.064 1.02864 46.9268 1.08593 46.6915C1.14321 46.4563 1.19095 46.3092 1.22914 46.2504C1.26733 46.1328 1.47738 46.074 1.85929 46.074C3.19596 46.074 4.0457 45.6818 4.40851 44.8976C4.48489 44.78 5.14368 42.1528 6.38488 37.016C7.62607 31.8793 8.25622 29.1835 8.27531 28.9286Z" fill="" stroke="" stroke-width="0.2"/>
<path d="M39.6611 37.2241C39.6611 36.9692 39.7948 36.7732 40.0621 36.6359H58.3077C58.5941 36.7928 58.7373 36.9888 58.7373 37.2241C58.7373 37.4398 58.6037 37.626 58.3363 37.7829L49.2279 37.8123H40.1194C39.8139 37.7142 39.6611 37.5182 39.6611 37.2241ZM39.6611 42.9294C39.6611 42.6353 39.8139 42.4393 40.1194 42.3412H58.3363C58.6037 42.5373 58.7373 42.7333 58.7373 42.9294C58.7373 43.1843 58.5941 43.3803 58.3077 43.5176H40.0621C39.7948 43.3803 39.6611 43.1843 39.6611 42.9294Z" fill="" stroke="" stroke-width="0.2"/>
<path d="M71.5649 70.9001C71.9086 71.4098 72.3956 71.6647 73.0257 71.6647H73.083C73.6177 71.6647 74.1523 71.0765 74.687 69.9002C75.2217 68.7238 75.7182 67.1161 76.1764 65.0771C76.6347 63.0381 77.0644 60.9893 77.4654 58.9307C77.8664 56.872 78.2674 54.6468 78.6684 52.2549C78.7257 51.8431 78.7734 51.5392 78.8116 51.3432C80.1865 43.0107 81.6759 35.286 83.2799 28.169C84.8839 21.0521 86.0487 16.4251 86.7743 14.2881C86.8889 13.9351 86.9844 13.6411 87.0608 13.4058C87.1372 13.1705 87.2995 12.7392 87.5477 12.1118C87.7959 11.4844 88.0537 10.9354 88.3211 10.4649C88.5884 9.99436 88.913 9.51402 89.2949 9.02387C89.6768 8.53372 90.0969 8.1416 90.5552 7.84751C91.0135 7.55343 91.5004 7.41618 92.016 7.43579C93.0853 7.43579 93.8873 7.77889 94.422 8.4651C94.9567 9.15131 95.2622 9.93554 95.3386 10.8178C95.3386 11.308 95.224 11.7001 94.9949 11.9942C94.7657 12.2882 94.5461 12.4745 94.3361 12.5529C94.126 12.6314 93.916 12.6608 93.7059 12.6412C93.3049 12.6412 92.9421 12.4941 92.6175 12.2C92.2929 11.9059 92.1306 11.504 92.1306 10.9943C92.1306 10.0532 92.6366 9.49441 93.6487 9.31796L93.5627 9.20032C93.5054 9.1415 93.4291 9.07288 93.3336 8.99446C93.2381 8.91603 93.1617 8.85722 93.1044 8.81801C92.818 8.62195 92.5029 8.52392 92.1592 8.52392C91.8919 8.52392 91.6436 8.64156 91.4145 8.87682C91.1854 9.11209 90.8798 9.66106 90.4979 10.5237C90.116 11.3864 89.7437 12.5235 89.3809 13.9351C89.018 15.3468 88.5693 17.3368 88.0346 19.9051C87.5 22.4735 86.9653 25.4928 86.4306 28.9631C85.304 35.531 84.1296 41.7363 82.9075 47.5789C81.6854 53.4214 80.7307 57.6563 80.0432 60.2835C79.3558 62.9107 78.8307 64.7928 78.4679 65.93C76.9975 70.4981 75.1835 72.7822 73.0257 72.7822C72.2619 72.7822 71.5649 72.4783 70.9348 71.8706C70.3046 71.2628 69.9514 70.4295 69.875 69.3708C69.875 68.6846 70.0564 68.2141 70.4192 67.9592C70.782 67.7043 71.1448 67.5769 71.5076 67.5769C71.9086 67.5769 72.2715 67.7239 72.5961 68.018C72.9207 68.3121 73.083 68.714 73.083 69.2238C73.083 70.1648 72.577 70.7236 71.5649 70.9001Z" fill="" stroke="" stroke-width="0.2"/>
<path d="M100.47 1.97411C100.47 1.83549 100.497 1.67609 100.551 1.49589C100.605 1.31569 100.686 1.22559 100.794 1.22559C100.808 1.22559 101.294 1.19094 102.252 1.12163C103.211 1.05232 103.703 1.01074 103.73 0.99688C103.892 0.99688 103.973 1.05926 103.973 1.18401C103.973 1.30876 103.744 2.29985 103.285 4.15727C103.177 4.62856 103.062 5.1137 102.941 5.61271C102.819 6.11172 102.718 6.48598 102.637 6.73549L102.556 7.13053C102.556 7.17212 102.596 7.15133 102.677 7.06816C103.339 6.5137 104.021 6.23648 104.723 6.23648C105.56 6.23648 106.235 6.55529 106.748 7.19291C107.261 7.83053 107.524 8.63449 107.537 9.60479C107.537 11.1434 107.004 12.5365 105.938 13.784C104.871 15.0315 103.724 15.6553 102.495 15.6553C101.82 15.6553 101.206 15.3919 100.652 14.8652C100.099 14.3384 99.8153 13.486 99.8018 12.3078V12.1206C99.8018 11.8295 99.8558 11.4276 99.9638 10.9147C100.072 10.4018 100.403 9.03647 100.956 6.81865C101.631 4.08796 101.969 2.63945 101.969 2.47311C101.969 2.30678 101.712 2.20975 101.199 2.18203C101.132 2.18203 101.078 2.18203 101.037 2.18203H100.936C100.801 2.18203 100.713 2.18203 100.673 2.18203C100.632 2.18203 100.585 2.16123 100.531 2.11965C100.477 2.07807 100.457 2.02955 100.47 1.97411ZM105.796 8.66915V8.54439C105.796 7.51865 105.384 7.00578 104.561 7.00578C104.331 7.00578 104.095 7.06123 103.852 7.17212C103.609 7.28301 103.386 7.42855 103.184 7.60875C102.981 7.78895 102.806 7.95529 102.657 8.10776C102.509 8.26023 102.387 8.41271 102.293 8.56519L102.171 8.73152L101.746 10.5196C101.449 11.7117 101.3 12.5573 101.3 13.0563C101.3 13.7216 101.462 14.2206 101.786 14.5533C102.002 14.7751 102.272 14.886 102.596 14.886C103.042 14.886 103.494 14.6642 103.953 14.2206C104.291 13.9018 104.561 13.5137 104.763 13.0563C104.966 12.5988 105.188 11.8711 105.431 10.8731C105.674 9.87508 105.796 9.14043 105.796 8.66915Z" fill="" stroke="" stroke-width="0.2"/>
<path d="M84.8906 70.5277C84.8906 69.1277 85.4036 67.797 86.4297 66.5357C87.4557 65.2743 88.61 64.6366 89.8925 64.6228C90.581 64.6228 91.1886 64.9624 91.7151 65.6416C91.9311 65.2258 92.2416 65.0178 92.6466 65.0178C92.8221 65.0178 92.9774 65.0733 93.1124 65.1842C93.2474 65.2951 93.3149 65.4337 93.3149 65.6C93.3149 65.7802 93.0651 66.8891 92.5656 68.9267C92.0661 70.9644 91.8096 72.1149 91.7961 72.3782C91.7961 72.7248 91.8433 72.9535 91.9378 73.0644C92.0323 73.1752 92.1741 73.2376 92.3631 73.2515C92.4846 73.2376 92.6196 73.1752 92.7681 73.0644C93.0516 72.7871 93.3284 72.1218 93.5984 71.0683C93.6794 70.7911 93.7469 70.6455 93.8009 70.6317C93.8279 70.6178 93.8954 70.6109 94.0034 70.6109H94.0844C94.3409 70.6109 94.4691 70.6733 94.4691 70.798C94.4691 70.8812 94.4354 71.0683 94.3679 71.3594C94.3004 71.6505 94.1654 72.0248 93.9629 72.4822C93.7604 72.9396 93.5444 73.2861 93.3149 73.5218C93.1394 73.702 92.9234 73.8475 92.6668 73.9584C92.5588 73.9861 92.3968 74 92.1808 74C91.7218 74 91.3371 73.896 91.0265 73.6881C90.716 73.4802 90.5135 73.2653 90.419 73.0436L90.2975 72.7317C90.284 72.7178 90.257 72.7248 90.2165 72.7525C90.1895 72.7802 90.1625 72.8079 90.1355 72.8356C89.339 73.6119 88.529 74 87.7055 74C86.9629 74 86.3082 73.7228 85.7411 73.1683C85.1741 72.6139 84.8906 71.7337 84.8906 70.5277ZM91.3303 66.9723C91.3303 66.8891 91.2966 66.7366 91.2291 66.5149C91.1616 66.2931 91.0063 66.0505 90.7633 65.7871C90.5203 65.5238 90.2098 65.3852 89.8318 65.3713C89.3593 65.3713 88.907 65.5862 88.475 66.0159C88.043 66.4456 87.7055 67.0069 87.4624 67.7C87.0709 68.7951 86.7942 69.9317 86.6322 71.1099C86.6322 71.1515 86.6322 71.2277 86.6322 71.3386C86.6322 71.4495 86.6254 71.5327 86.6119 71.5881C86.6119 72.2119 86.7334 72.6416 86.9764 72.8772C87.2194 73.1129 87.5097 73.2376 87.8472 73.2515C88.3602 73.2515 88.8665 73.0228 89.366 72.5653C89.8655 72.1079 90.1625 71.7545 90.257 71.505C90.284 71.4495 90.4663 70.7079 90.8038 69.2802C91.1413 67.8525 91.3168 67.0832 91.3303 66.9723Z" fill="" stroke="" stroke-width="0.2"/>
<path d="M118.646 38.0476C118.646 37.2437 118.808 36.5183 119.132 35.8713C119.457 35.2243 119.858 34.7244 120.335 34.3715C120.813 34.0186 121.281 33.7441 121.739 33.548C122.197 33.352 122.598 33.2539 122.942 33.2539C122.98 33.2539 123.057 33.2539 123.171 33.2539C123.286 33.2539 123.381 33.2441 123.458 33.2245C124.202 33.2245 124.899 33.3716 125.548 33.6657C126.198 33.9598 127.124 34.4989 128.327 35.2832L129.759 36.2242C130.886 36.9104 131.936 37.2536 132.91 37.2536C133.979 37.2536 134.896 36.9693 135.659 36.4007C136.423 35.8321 136.853 35.0577 136.948 34.0774C136.948 33.8617 136.987 33.6657 137.063 33.4892C137.139 33.3128 137.235 33.2245 137.349 33.2245C137.617 33.2245 137.75 33.5284 137.75 34.1362C137.75 35.4302 137.302 36.5477 136.404 37.4888C135.507 38.4299 134.361 38.9102 132.967 38.9299C132.184 38.9299 131.353 38.724 130.475 38.3123C129.597 37.9005 128.833 37.4398 128.184 36.9301C127.534 36.4203 126.771 35.9596 125.892 35.5478C125.014 35.1361 124.212 34.9204 123.486 34.9008C122.34 34.9008 121.395 35.2243 120.651 35.8713C119.906 36.5183 119.505 37.2536 119.448 38.077C119.409 38.6456 119.276 38.9299 119.047 38.9299C118.779 38.9299 118.646 38.6358 118.646 38.0476ZM118.646 44.9293C118.646 44.1254 118.808 43.4 119.132 42.753C119.457 42.106 119.858 41.6061 120.335 41.2532C120.813 40.9002 121.281 40.6258 121.739 40.4297C122.197 40.2336 122.598 40.1356 122.942 40.1356C122.98 40.1356 123.057 40.1356 123.171 40.1356C123.286 40.1356 123.381 40.1258 123.458 40.1062C124.202 40.1062 124.899 40.2533 125.548 40.5473C126.198 40.8414 127.124 41.3806 128.327 42.1648L129.759 43.1059C130.886 43.7921 131.936 44.1352 132.91 44.1352C133.979 44.1352 134.896 43.8509 135.659 43.2824C136.423 42.7138 136.853 41.9394 136.948 40.9591C136.948 40.3905 137.082 40.1062 137.349 40.1062C137.617 40.1062 137.75 40.4199 137.75 41.0473C137.75 42.3021 137.302 43.4098 136.404 44.3705C135.507 45.3312 134.361 45.8115 132.967 45.8115C132.184 45.8115 131.353 45.6057 130.475 45.1939C129.597 44.7822 128.833 44.3215 128.184 43.8117C127.534 43.302 126.771 42.8412 125.892 42.4295C125.014 42.0178 124.212 41.8021 123.486 41.7825C122.34 41.7825 121.395 42.106 120.651 42.753C119.906 43.4 119.505 44.1352 119.448 44.9587C119.39 45.5272 119.257 45.8115 119.047 45.8115C118.779 45.8115 118.646 45.5174 118.646 44.9293Z" fill="" stroke="" stroke-width="0.2"/>
<path d="M155.589 28.9306C155.589 28.8129 155.045 28.7345 153.956 28.6953C153.498 28.6953 153.202 28.6855 153.068 28.6659C152.935 28.6463 152.868 28.5482 152.868 28.3718C152.868 28.3522 152.887 28.2443 152.925 28.0483C152.944 27.9895 152.963 27.9208 152.982 27.8424C153.001 27.764 153.011 27.715 153.011 27.6954C153.011 27.6758 153.03 27.6268 153.068 27.5483C153.106 27.4699 153.125 27.4405 153.125 27.4601C153.125 27.4797 153.164 27.4601 153.24 27.4013C153.316 27.3425 153.364 27.3229 153.383 27.3425C153.402 27.3621 153.479 27.3621 153.612 27.3425C153.746 27.3229 153.861 27.3131 153.956 27.3131C154.071 27.3131 154.357 27.3131 154.815 27.3131C155.274 27.3131 155.703 27.3229 156.104 27.3425C157.613 27.3425 158.482 27.3425 158.711 27.3425C158.94 27.3425 159.093 27.3915 159.169 27.4895C159.188 27.5679 159.542 30.3324 160.229 35.7828L161.26 43.9879L161.919 42.8998C162.377 42.1939 162.988 41.2136 163.752 39.9589C164.516 38.7041 165.356 37.3317 166.273 35.8416C169.614 30.3716 171.304 27.617 171.342 27.5777C171.362 27.5581 171.39 27.5287 171.428 27.4895C171.467 27.4503 171.505 27.4209 171.543 27.4013L171.715 27.3425H174.464C174.789 27.3425 175.171 27.3425 175.61 27.3425C176.049 27.3425 176.326 27.3327 176.441 27.3131C177.09 27.3131 177.415 27.4209 177.415 27.6366C177.415 27.7346 177.386 27.9012 177.329 28.1365C177.272 28.3718 177.243 28.4992 177.243 28.5188C177.166 28.6365 176.813 28.6953 176.183 28.6953C175.419 28.7149 174.932 28.7443 174.722 28.7835C174.512 28.8227 174.34 28.9306 174.207 29.107C174.149 29.205 173.462 31.9793 172.144 37.4297C170.827 42.8801 170.159 45.6348 170.139 45.6936C170.139 45.772 170.149 45.821 170.168 45.8406C170.187 45.8602 170.254 45.8995 170.369 45.9583C170.483 46.0171 170.645 46.0367 170.855 46.0171C171.066 45.9975 171.381 46.0171 171.801 46.0759H172.689C172.803 46.2524 172.86 46.3602 172.86 46.3994C172.86 46.7131 172.794 47.0072 172.66 47.2817C172.565 47.3797 172.412 47.4287 172.202 47.4287C172.106 47.4287 171.715 47.4189 171.027 47.3993C170.34 47.3797 169.462 47.3699 168.392 47.3699C167.227 47.3699 166.349 47.3699 165.757 47.3699C165.165 47.3699 164.831 47.3797 164.755 47.3993C164.43 47.3993 164.268 47.3013 164.268 47.1052C164.268 47.066 164.287 46.9288 164.325 46.6935C164.401 46.3798 164.478 46.2033 164.554 46.1641C164.63 46.1249 164.85 46.0955 165.213 46.0759C165.728 46.0759 166.301 46.0465 166.931 45.9877C167.199 45.9289 167.38 45.8112 167.476 45.6348C167.514 45.5563 167.877 44.1251 168.564 41.3411C169.251 38.557 169.929 35.7828 170.598 33.0184C171.266 30.254 171.6 28.8717 171.6 28.8717L166.043 37.9591C162.301 44.0761 160.382 47.1836 160.286 47.2817C160.248 47.3013 160.21 47.3209 160.172 47.3405C160.076 47.3993 159.923 47.4287 159.713 47.4287C159.427 47.4287 159.255 47.3601 159.198 47.2228C159.16 47.1444 158.768 44.1055 158.023 38.1061L156.906 29.0776L154.959 37.018C153.679 42.2331 153.04 44.929 153.04 45.1054C153.154 45.7524 153.842 46.0759 155.102 46.0759H155.388C155.503 46.1739 155.57 46.2622 155.589 46.3406C155.608 46.419 155.579 46.5955 155.503 46.8699C155.426 47.1836 155.35 47.3601 155.274 47.3993C155.197 47.4189 155.092 47.4287 154.959 47.4287C154.92 47.4287 154.806 47.4287 154.615 47.4287C154.424 47.4287 154.099 47.4189 153.641 47.3993C153.183 47.3797 152.572 47.3699 151.808 47.3699C151.235 47.3699 150.643 47.3797 150.032 47.3993C149.421 47.4189 149.068 47.4287 148.972 47.4287C148.686 47.4287 148.504 47.4091 148.428 47.3699C148.352 47.3307 148.313 47.2425 148.313 47.1052C148.313 47.066 148.342 46.9288 148.399 46.6935C148.457 46.4582 148.504 46.3112 148.543 46.2524C148.581 46.1347 148.791 46.0759 149.173 46.0759C150.509 46.0759 151.359 45.6838 151.722 44.8996C151.798 44.7819 152.457 42.1547 153.698 37.018C154.94 31.8812 155.57 29.1854 155.589 28.9306Z" fill="" stroke="" stroke-width="0.2"/>
<path d="M175.521 45.8743C175.534 45.7911 175.554 45.6802 175.581 45.5416C175.608 45.403 175.689 45.1396 175.824 44.7515C175.959 44.3634 176.094 44.0377 176.229 43.7743C176.364 43.5109 176.587 43.2545 176.898 43.005C177.208 42.7555 177.519 42.6377 177.829 42.6515C178.315 42.6515 178.72 42.7763 179.044 43.0258C179.368 43.2753 179.571 43.5109 179.652 43.7327C179.733 43.9545 179.773 44.1 179.773 44.1693C179.773 44.1971 179.78 44.2109 179.793 44.2109L180.016 43.9822C180.84 43.0951 181.778 42.6515 182.831 42.6515C183.56 42.6515 184.147 42.8386 184.593 43.2129C185.038 43.5872 185.268 44.1347 185.281 44.8555C185.295 45.5763 185.038 46.6644 184.512 48.1198C183.985 49.5753 183.729 50.4555 183.742 50.7604C183.742 51.1208 183.857 51.301 184.087 51.301C184.168 51.301 184.228 51.2941 184.269 51.2802C184.66 51.2109 185.011 50.9475 185.322 50.4901C185.632 50.0327 185.869 49.4782 186.031 48.8268C186.058 48.7159 186.193 48.6604 186.436 48.6604C186.706 48.6604 186.841 48.7159 186.841 48.8268C186.841 48.8406 186.814 48.9446 186.76 49.1386C186.652 49.5406 186.503 49.9357 186.314 50.3238C186.125 50.7119 185.815 51.1 185.383 51.4881C184.951 51.8763 184.485 52.0634 183.985 52.0495C183.351 52.0495 182.892 51.8624 182.608 51.4881C182.325 51.1139 182.183 50.7258 182.183 50.3238C182.183 50.0604 182.426 49.2287 182.912 47.8287C183.398 46.4287 183.648 45.3753 183.661 44.6683C183.661 43.8505 183.364 43.4416 182.77 43.4416H182.669C181.508 43.4416 180.529 44.1416 179.733 45.5416L179.591 45.7911L178.923 48.5772C178.477 50.3931 178.221 51.3703 178.153 51.5089C177.978 51.8832 177.687 52.0703 177.282 52.0703C177.107 52.0703 176.965 52.0287 176.857 51.9456C176.749 51.8624 176.675 51.7792 176.634 51.6961C176.594 51.6129 176.58 51.5436 176.594 51.4881C176.594 51.3079 176.85 50.1782 177.363 48.099C177.876 46.0198 178.146 44.8901 178.173 44.7099C178.187 44.6406 178.194 44.4812 178.194 44.2317C178.194 43.6911 178.032 43.4208 177.708 43.4208C177.195 43.4208 176.769 44.1139 176.432 45.5C176.351 45.7773 176.31 45.9228 176.31 45.9367C176.283 46.0198 176.155 46.0614 175.926 46.0614H175.642C175.561 45.9782 175.521 45.9159 175.521 45.8743Z" fill="" stroke="" stroke-width="0.2"/>
<path d="M198.237 37.2241C198.237 36.9692 198.371 36.7732 198.638 36.6359H216.884C217.17 36.7928 217.314 36.9888 217.314 37.2241C217.314 37.4398 217.18 37.626 216.913 37.7829L207.804 37.8123H198.696C198.39 37.7142 198.237 37.5182 198.237 37.2241ZM198.237 42.9294C198.237 42.6353 198.39 42.4393 198.696 42.3412H216.913C217.18 42.5373 217.314 42.7333 217.314 42.9294C217.314 43.1843 217.17 43.3803 216.884 43.5176H198.638C198.371 43.3803 198.237 43.1843 198.237 42.9294Z" fill="" stroke="" stroke-width="0.2"/>
<path d="M229.026 47.4268L228.94 47.3679C228.882 47.3483 228.835 47.3189 228.797 47.2797C228.758 47.2405 228.711 47.1817 228.653 47.1033C228.596 47.0248 228.567 46.9366 228.567 46.8386C228.567 46.7602 228.596 46.6621 228.653 46.5445C228.711 46.4073 230.458 43.0742 233.895 36.5455C237.332 30.0167 239.079 26.7131 239.137 26.6347C239.137 26.6151 239.156 26.5857 239.194 26.5465C239.232 26.5073 239.289 26.4681 239.366 26.4288C239.442 26.3896 239.519 26.37 239.595 26.37C239.729 26.37 239.834 26.4092 239.91 26.4877C239.986 26.5269 241.791 29.8991 245.324 36.6043L250.594 46.6327V46.8386C250.594 47.0935 250.46 47.2895 250.193 47.4268H229.026ZM244.35 37.2219L239.595 28.2228C239.576 28.2228 237.991 31.2225 234.84 37.2219C231.689 43.2213 230.114 46.2308 230.114 46.2504H249.076C249.076 46.2112 247.5 43.2017 244.35 37.2219Z" fill="" stroke="" stroke-width="0.2"/>
<path d="M253.828 38.9313C253.961 38.1078 254.477 37.1569 255.374 36.0786C256.272 35.0003 257.379 34.4513 258.697 34.4317C259.365 34.4317 259.976 34.6082 260.53 34.9611C261.084 35.314 261.495 35.7551 261.762 36.2845C262.564 35.0493 263.528 34.4317 264.655 34.4317C265.361 34.4317 265.972 34.6474 266.488 35.0787C267.004 35.51 267.271 36.0884 267.29 36.8138C267.29 37.3824 267.156 37.8431 266.889 38.196C266.622 38.5489 266.364 38.7646 266.116 38.843C265.867 38.9215 265.648 38.9607 265.457 38.9607C265.094 38.9607 264.798 38.8528 264.569 38.6372C264.34 38.4215 264.225 38.1372 264.225 37.7843C264.225 36.8824 264.703 36.2649 265.657 35.9316C265.447 35.6767 265.065 35.5492 264.512 35.5492C264.263 35.5492 264.082 35.5688 263.967 35.6081C263.242 35.9218 262.707 36.5687 262.363 37.549C261.218 41.8819 260.645 44.4111 260.645 45.1365C260.645 45.6855 260.798 46.0776 261.103 46.3129C261.409 46.5481 261.743 46.6658 262.106 46.6658C262.812 46.6658 263.509 46.3423 264.197 45.6953C264.884 45.0483 265.352 44.2543 265.6 43.3132C265.657 43.1171 265.715 43.0093 265.772 42.9897C265.829 42.9701 265.982 42.9505 266.23 42.9309H266.345C266.631 42.9309 266.774 43.0093 266.774 43.1661C266.774 43.1857 266.755 43.2936 266.717 43.4896C266.412 44.6072 265.82 45.5973 264.941 46.4599C264.063 47.3226 263.041 47.7539 261.876 47.7539C260.54 47.7539 259.528 47.1363 258.84 45.9011C258.057 47.1167 257.16 47.7245 256.148 47.7245H255.976C255.04 47.7245 254.372 47.4696 253.971 46.9599C253.57 46.4501 253.36 45.911 253.341 45.3424C253.341 44.715 253.522 44.2052 253.885 43.8131C254.248 43.421 254.677 43.2249 255.174 43.2249C255.995 43.2249 256.406 43.6367 256.406 44.4601C256.406 44.8522 256.291 45.1953 256.062 45.4894C255.833 45.7835 255.613 45.9796 255.403 46.0776C255.193 46.1756 255.069 46.2246 255.031 46.2246L254.945 46.2541C254.945 46.2737 255.002 46.3129 255.117 46.3717C255.231 46.4305 255.384 46.4991 255.575 46.5776C255.766 46.656 255.947 46.6854 256.119 46.6658C256.807 46.6658 257.399 46.2246 257.895 45.3424C258.067 45.0287 258.287 44.3621 258.554 43.3426C258.821 42.3231 259.089 41.2644 259.356 40.1664C259.623 39.0685 259.776 38.4215 259.814 38.2254C259.91 37.6961 259.957 37.3138 259.957 37.0785C259.957 36.5295 259.814 36.1374 259.528 35.9021C259.241 35.6669 258.917 35.5492 258.554 35.5492C257.79 35.5492 257.074 35.8629 256.406 36.4903C255.737 37.1177 255.269 37.9216 255.002 38.9018C254.964 39.0783 254.916 39.1763 254.859 39.1959C254.802 39.2155 254.649 39.2351 254.401 39.2548H254C253.885 39.1371 253.828 39.0293 253.828 38.9313Z" fill="" stroke="" stroke-width="0.2"/>
<path d="M272.103 54.7812V25.3724H276.027V26.5488H273.248V53.6049H276.027V54.7812H272.103Z" fill="" stroke="" stroke-width="0.2"/>
<path d="M280.066 52.1905C280.104 52.1905 280.162 52.2101 280.238 52.2493C280.314 52.2885 280.419 52.3179 280.553 52.3375C280.687 52.3571 280.801 52.367 280.897 52.367C281.145 52.367 281.374 52.2395 281.584 51.9846C281.794 51.7298 281.947 51.4455 282.043 51.1318C282.234 50.6024 282.558 49.1026 283.016 46.6322C283.475 44.1619 283.914 41.8092 284.334 39.5741C284.754 37.339 284.964 36.2117 284.964 36.1921V36.1039H283.618C282.72 36.1039 282.243 36.0843 282.186 36.045C282.109 35.9862 282.071 35.8882 282.071 35.751L282.272 34.9275C282.31 34.8295 282.386 34.7805 282.501 34.7805C282.615 34.7805 283.064 34.7707 283.847 34.7511C284.764 34.7511 285.222 34.7413 285.222 34.7216C285.222 34.6824 285.308 34.1923 285.48 33.2512C285.652 32.3101 285.766 31.7416 285.823 31.5455C286.53 28.3105 287.924 26.693 290.005 26.693C290.712 26.7322 291.294 26.9479 291.753 27.34C292.211 27.7321 292.44 28.2517 292.44 28.8987C292.44 29.6045 292.239 30.1143 291.838 30.428C291.437 30.7417 291.036 30.9083 290.635 30.9279C289.795 30.9279 289.375 30.5162 289.375 29.6927C289.375 29.3202 289.48 28.9967 289.69 28.7222C289.9 28.4478 290.129 28.2419 290.378 28.1047L290.635 27.9576C290.33 27.84 290.044 27.7812 289.776 27.7812C289.547 27.7812 289.327 27.8792 289.117 28.0753C288.907 28.2713 288.764 28.5458 288.688 28.8987C288.554 29.4673 288.401 30.2319 288.229 31.1926C288.058 32.1533 287.905 32.9669 287.771 33.6335C287.638 34.3001 287.571 34.653 287.571 34.6922C287.571 34.7315 288.096 34.7511 289.146 34.7511C290.005 34.7511 290.502 34.7609 290.635 34.7805C290.769 34.8001 290.874 34.8589 290.951 34.9569C290.97 35.0353 290.951 35.202 290.893 35.4569C290.836 35.7117 290.788 35.8686 290.75 35.9274C290.712 36.0254 290.626 36.0745 290.492 36.0745C290.359 36.0745 289.843 36.0843 288.946 36.1039H287.342L286.683 39.6917C285.766 44.554 285.126 47.5929 284.764 48.8085C284.248 50.475 283.58 51.7102 282.759 52.514C282.052 53.1414 281.355 53.4551 280.668 53.4551C280.057 53.4551 279.503 53.2688 279.006 52.8963C278.51 52.5238 278.262 51.9944 278.262 51.3082C278.262 50.5828 278.462 50.0535 278.863 49.7202C279.264 49.3869 279.665 49.2202 280.066 49.2202C280.906 49.2202 281.327 49.6319 281.327 50.4554C281.327 50.8279 281.221 51.1514 281.011 51.4259C280.801 51.7004 280.572 51.9062 280.324 52.0435L280.066 52.1905Z" fill="" stroke="" stroke-width="0.2"/>
<path d="M295.131 40.0768C295.131 38.724 295.226 37.4398 295.417 36.2243C295.608 35.0087 295.828 33.9598 296.076 33.0775C296.324 32.1953 296.678 31.3326 297.136 30.4895C297.594 29.6465 297.957 28.9897 298.224 28.5192C298.492 28.0486 298.893 27.5389 299.427 26.9899C299.962 26.4409 300.277 26.1076 300.373 25.99C300.468 25.8724 300.707 25.6665 301.089 25.3724H301.461H301.576C301.843 25.3724 301.977 25.4606 301.977 25.6371C301.977 25.6959 301.814 25.9018 301.49 26.2547C301.165 26.6076 300.774 27.1271 300.315 27.8133C299.857 28.4995 299.389 29.3426 298.912 30.3425C298.434 31.3424 298.033 32.6952 297.709 34.4009C297.384 36.1066 297.222 37.9986 297.222 40.0768C297.222 42.1551 297.384 44.0372 297.709 45.7233C298.033 47.4094 298.425 48.772 298.883 49.8112C299.341 50.8503 299.809 51.6933 300.287 52.3403C300.764 52.9873 301.165 53.5069 301.49 53.899C301.814 54.2911 301.977 54.497 301.977 54.5166C301.977 54.693 301.833 54.7812 301.547 54.7812H301.461H301.089L300.287 54.0754C298.492 52.4089 297.184 50.3307 296.363 47.8408C295.541 45.3508 295.131 42.7628 295.131 40.0768Z" fill="" stroke="" stroke-width="0.2"/>
<path d="M305.071 38.9332C305.205 38.1098 305.72 37.1589 306.618 36.0806C307.515 35.0022 308.623 34.4533 309.94 34.4337C310.609 34.4337 311.22 34.6101 311.773 34.963C312.327 35.3159 312.738 35.7571 313.005 36.2864C313.807 35.0512 314.771 34.4337 315.898 34.4337C316.604 34.4337 317.216 34.6493 317.731 35.0807C318.247 35.512 318.514 36.0904 318.533 36.8158C318.533 37.3843 318.399 37.8451 318.132 38.198C317.865 38.5509 317.607 38.7666 317.359 38.845C317.111 38.9234 316.891 38.9626 316.7 38.9626C316.337 38.9626 316.041 38.8548 315.812 38.6391C315.583 38.4235 315.468 38.1392 315.468 37.7863C315.468 36.8844 315.946 36.2668 316.9 35.9335C316.69 35.6786 316.309 35.5512 315.755 35.5512C315.506 35.5512 315.325 35.5708 315.211 35.61C314.485 35.9237 313.95 36.5707 313.607 37.551C312.461 41.8839 311.888 44.4131 311.888 45.1385C311.888 45.6874 312.041 46.0796 312.346 46.3148C312.652 46.5501 312.986 46.6677 313.349 46.6677C314.055 46.6677 314.752 46.3442 315.44 45.6972C316.127 45.0502 316.595 44.2562 316.843 43.3151C316.9 43.1191 316.958 43.0112 317.015 42.9916C317.072 42.972 317.225 42.9524 317.473 42.9328H317.588C317.874 42.9328 318.018 43.0112 318.018 43.1681C318.018 43.1877 317.998 43.2955 317.96 43.4916C317.655 44.6091 317.063 45.5992 316.184 46.4619C315.306 47.3245 314.284 47.7559 313.12 47.7559C311.783 47.7559 310.771 47.1383 310.083 45.9031C309.301 47.1187 308.403 47.7265 307.391 47.7265H307.219C306.283 47.7265 305.615 47.4716 305.214 46.9618C304.813 46.4521 304.603 45.9129 304.584 45.3443C304.584 44.7169 304.765 44.2072 305.128 43.8151C305.491 43.423 305.921 43.2269 306.417 43.2269C307.238 43.2269 307.649 43.6386 307.649 44.4621C307.649 44.8542 307.534 45.1973 307.305 45.4914C307.076 45.7855 306.856 45.9815 306.646 46.0796C306.436 46.1776 306.312 46.2266 306.274 46.2266L306.188 46.256C306.188 46.2756 306.245 46.3148 306.36 46.3736C306.474 46.4325 306.627 46.5011 306.818 46.5795C307.009 46.6579 307.19 46.6873 307.362 46.6677C308.05 46.6677 308.642 46.2266 309.138 45.3443C309.31 45.0306 309.53 44.364 309.797 43.3445C310.064 42.325 310.332 41.2663 310.599 40.1684C310.866 39.0704 311.019 38.4235 311.057 38.2274C311.153 37.698 311.201 37.3157 311.201 37.0805C311.201 36.5315 311.057 36.1394 310.771 35.9041C310.484 35.6688 310.16 35.5512 309.797 35.5512C309.033 35.5512 308.317 35.8649 307.649 36.4923C306.98 37.1197 306.513 37.9235 306.245 38.9038C306.207 39.0803 306.159 39.1783 306.102 39.1979C306.045 39.2175 305.892 39.2371 305.644 39.2567H305.243C305.128 39.1391 305.071 39.0312 305.071 38.9332Z" fill="" stroke="" stroke-width="0.2"/>
<path d="M324.278 39.8259L324.015 39.9299C323.826 39.9992 323.556 40.0685 323.205 40.1378C322.854 40.2071 322.462 40.2556 322.03 40.2834H321.646V39.3269H322.03C322.665 39.2992 323.252 39.1953 323.792 39.0151C324.332 38.8349 324.71 38.6685 324.926 38.516C325.142 38.3636 325.331 38.2111 325.493 38.0586C325.52 38.017 325.601 37.9962 325.736 37.9962C325.858 37.9962 325.972 38.0378 326.08 38.121V44.3378L326.101 50.5754C326.195 50.6725 326.276 50.7348 326.344 50.7626C326.411 50.7903 326.573 50.818 326.83 50.8457C327.086 50.8735 327.505 50.8873 328.085 50.8873H328.612V51.8438H328.389C328.105 51.8022 327.032 51.7814 325.169 51.7814C323.333 51.7814 322.273 51.8022 321.99 51.8438H321.747V50.8873H322.273C322.57 50.8873 322.827 50.8873 323.043 50.8873C323.259 50.8873 323.428 50.8804 323.549 50.8665C323.671 50.8527 323.779 50.8319 323.873 50.8041C323.968 50.7764 324.022 50.7626 324.035 50.7626C324.049 50.7626 324.089 50.7279 324.157 50.6586C324.224 50.5893 324.265 50.5616 324.278 50.5754V39.8259Z" fill="" stroke="" stroke-width="0.2"/>
<g clip-path="url(#clip0_1770_2225)">
<path d="M301.787 31.6689V30.7125H332.045V31.6689H301.787Z" fill=""/>
</g>
<path d="M333.244 25.4018L333.358 25.3724C333.454 25.3724 333.549 25.3724 333.645 25.3724H333.989L334.791 26.0782C336.585 27.7447 337.894 29.8229 338.715 32.3129C339.536 34.8028 339.946 37.3908 339.946 40.0768C339.946 41.41 339.851 42.6942 339.66 43.9294C339.469 45.1646 339.249 46.2135 339.001 47.0761C338.753 47.9388 338.4 48.8015 337.941 49.6641C337.483 50.5268 337.12 51.1836 336.853 51.6345C336.585 52.0854 336.194 52.5854 335.678 53.1344C335.163 53.6833 334.857 54.0068 334.762 54.1048C334.666 54.2029 334.447 54.3891 334.103 54.6636C334.046 54.7224 334.008 54.7616 333.989 54.7812H333.645C333.492 54.7812 333.387 54.7812 333.33 54.7812C333.272 54.7812 333.225 54.7518 333.187 54.693C333.148 54.6342 333.12 54.546 333.101 54.4283C333.12 54.4087 333.225 54.2813 333.416 54.046C336.375 50.8895 337.855 46.2331 337.855 40.0768C337.855 33.9206 336.375 29.2642 333.416 26.1076C333.225 25.8724 333.12 25.7449 333.101 25.7253C333.101 25.5685 333.148 25.4606 333.244 25.4018Z" fill="" stroke="" stroke-width="0.2"/>
<path d="M350.637 40.4614C350.637 40.4614 350.637 40.3339 350.637 40.079C350.637 39.8242 350.77 39.6281 351.038 39.4909H359.602V35.0795L359.631 30.6682C359.822 30.4133 360.003 30.2859 360.175 30.2859C360.423 30.2859 360.614 30.4329 360.748 30.727V39.4909H369.283C369.57 39.6477 369.713 39.8438 369.713 40.079C369.713 40.3143 369.57 40.5104 369.283 40.6672H360.748V49.431C360.595 49.7055 360.423 49.8428 360.232 49.8428H360.175H360.118C359.888 49.8428 359.717 49.7055 359.602 49.431V40.6672H351.038C350.77 40.53 350.637 40.3339 350.637 40.079V40.4614Z" fill="" stroke="" stroke-width="0.2"/>
<path d="M381.06 52.1905C381.099 52.1905 381.156 52.2101 381.232 52.2493C381.309 52.2885 381.414 52.3179 381.547 52.3375C381.681 52.3571 381.796 52.367 381.891 52.367C382.139 52.367 382.368 52.2395 382.578 51.9846C382.788 51.7298 382.941 51.4455 383.037 51.1318C383.228 50.6024 383.552 49.1026 384.011 46.6322C384.469 44.1619 384.908 41.8092 385.328 39.5741C385.748 37.339 385.958 36.2117 385.958 36.1921V36.1039H384.612C383.715 36.1039 383.237 36.0843 383.18 36.045C383.104 35.9862 383.065 35.8882 383.065 35.751L383.266 34.9275C383.304 34.8295 383.38 34.7805 383.495 34.7805C383.61 34.7805 384.058 34.7707 384.841 34.7511C385.758 34.7511 386.216 34.7413 386.216 34.7216C386.216 34.6824 386.302 34.1923 386.474 33.2512C386.646 32.3101 386.76 31.7416 386.818 31.5455C387.524 28.3105 388.918 26.693 390.999 26.693C391.706 26.7322 392.288 26.9479 392.747 27.34C393.205 27.7321 393.434 28.2517 393.434 28.8987C393.434 29.6045 393.234 30.1143 392.833 30.428C392.432 30.7417 392.031 30.9083 391.63 30.9279C390.789 30.9279 390.369 30.5162 390.369 29.6927C390.369 29.3202 390.474 28.9967 390.684 28.7222C390.894 28.4478 391.124 28.2419 391.372 28.1047L391.63 27.9576C391.324 27.84 391.038 27.7812 390.77 27.7812C390.541 27.7812 390.322 27.8792 390.112 28.0753C389.901 28.2713 389.758 28.5458 389.682 28.8987C389.548 29.4673 389.395 30.2319 389.224 31.1926C389.052 32.1533 388.899 32.9669 388.765 33.6335C388.632 34.3001 388.565 34.653 388.565 34.6922C388.565 34.7315 389.09 34.7511 390.14 34.7511C390.999 34.7511 391.496 34.7609 391.63 34.7805C391.763 34.8001 391.868 34.8589 391.945 34.9569C391.964 35.0353 391.945 35.202 391.887 35.4569C391.83 35.7117 391.782 35.8686 391.744 35.9274C391.706 36.0254 391.62 36.0745 391.486 36.0745C391.353 36.0745 390.837 36.0843 389.94 36.1039H388.336L387.677 39.6917C386.76 44.554 386.121 47.5929 385.758 48.8085C385.242 50.475 384.574 51.7102 383.753 52.514C383.046 53.1414 382.349 53.4551 381.662 53.4551C381.051 53.4551 380.497 53.2688 380.001 52.8963C379.504 52.5238 379.256 51.9944 379.256 51.3082C379.256 50.5828 379.456 50.0535 379.857 49.7202C380.258 49.3869 380.659 49.2202 381.06 49.2202C381.901 49.2202 382.321 49.6319 382.321 50.4554C382.321 50.8279 382.216 51.1514 382.006 51.4259C381.796 51.7004 381.566 51.9062 381.318 52.0435L381.06 52.1905Z" fill="" stroke="" stroke-width="0.2"/>
<path d="M396.126 40.0768C396.126 38.724 396.221 37.4398 396.412 36.2243C396.603 35.0087 396.823 33.9598 397.071 33.0775C397.319 32.1953 397.673 31.3326 398.131 30.4895C398.589 29.6465 398.952 28.9897 399.219 28.5192C399.487 28.0486 399.888 27.5389 400.422 26.9899C400.957 26.4409 401.272 26.1076 401.368 25.99C401.463 25.8724 401.702 25.6665 402.084 25.3724H402.456H402.571C402.838 25.3724 402.972 25.4606 402.972 25.6371C402.972 25.6959 402.809 25.9018 402.485 26.2547C402.16 26.6076 401.769 27.1271 401.31 27.8133C400.852 28.4995 400.384 29.3426 399.907 30.3425C399.429 31.3424 399.028 32.6952 398.704 34.4009C398.379 36.1066 398.217 37.9986 398.217 40.0768C398.217 42.1551 398.379 44.0372 398.704 45.7233C399.028 47.4094 399.42 48.772 399.878 49.8112C400.336 50.8503 400.804 51.6933 401.282 52.3403C401.759 52.9873 402.16 53.5069 402.485 53.899C402.809 54.2911 402.972 54.497 402.972 54.5166C402.972 54.693 402.828 54.7812 402.542 54.7812H402.456H402.084L401.282 54.0754C399.487 52.4089 398.179 50.3307 397.358 47.8408C396.537 45.3508 396.126 42.7628 396.126 40.0768Z" fill="" stroke="" stroke-width="0.2"/>
<path d="M406.065 38.9332C406.199 38.1098 406.714 37.1589 407.612 36.0806C408.509 35.0022 409.617 34.4533 410.934 34.4337C411.603 34.4337 412.214 34.6101 412.768 34.963C413.321 35.3159 413.732 35.7571 413.999 36.2864C414.801 35.0512 415.765 34.4337 416.892 34.4337C417.599 34.4337 418.21 34.6493 418.725 35.0807C419.241 35.512 419.508 36.0904 419.527 36.8158C419.527 37.3843 419.394 37.8451 419.126 38.198C418.859 38.5509 418.601 38.7666 418.353 38.845C418.105 38.9234 417.885 38.9626 417.694 38.9626C417.331 38.9626 417.035 38.8548 416.806 38.6391C416.577 38.4235 416.462 38.1392 416.462 37.7863C416.462 36.8844 416.94 36.2668 417.895 35.9335C417.685 35.6786 417.303 35.5512 416.749 35.5512C416.501 35.5512 416.319 35.5708 416.205 35.61C415.479 35.9237 414.944 36.5707 414.601 37.551C413.455 41.8839 412.882 44.4131 412.882 45.1385C412.882 45.6874 413.035 46.0796 413.34 46.3148C413.646 46.5501 413.98 46.6677 414.343 46.6677C415.049 46.6677 415.746 46.3442 416.434 45.6972C417.121 45.0502 417.589 44.2562 417.837 43.3151C417.895 43.1191 417.952 43.0112 418.009 42.9916C418.066 42.972 418.219 42.9524 418.467 42.9328H418.582C418.868 42.9328 419.012 43.0112 419.012 43.1681C419.012 43.1877 418.993 43.2955 418.954 43.4916C418.649 44.6091 418.057 45.5992 417.179 46.4619C416.3 47.3245 415.279 47.7559 414.114 47.7559C412.777 47.7559 411.765 47.1383 411.078 45.9031C410.295 47.1187 409.397 47.7265 408.385 47.7265H408.213C407.278 47.7265 406.609 47.4716 406.208 46.9618C405.807 46.4521 405.597 45.9129 405.578 45.3443C405.578 44.7169 405.76 44.2072 406.122 43.8151C406.485 43.423 406.915 43.2269 407.411 43.2269C408.232 43.2269 408.643 43.6386 408.643 44.4621C408.643 44.8542 408.528 45.1973 408.299 45.4914C408.07 45.7855 407.85 45.9815 407.64 46.0796C407.43 46.1776 407.306 46.2266 407.268 46.2266L407.182 46.256C407.182 46.2756 407.239 46.3148 407.354 46.3736C407.469 46.4325 407.621 46.5011 407.812 46.5795C408.003 46.6579 408.185 46.6873 408.356 46.6677C409.044 46.6677 409.636 46.2266 410.132 45.3443C410.304 45.0306 410.524 44.364 410.791 43.3445C411.058 42.325 411.326 41.2663 411.593 40.1684C411.86 39.0704 412.013 38.4235 412.051 38.2274C412.147 37.698 412.195 37.3157 412.195 37.0805C412.195 36.5315 412.051 36.1394 411.765 35.9041C411.479 35.6688 411.154 35.5512 410.791 35.5512C410.027 35.5512 409.311 35.8649 408.643 36.4923C407.975 37.1197 407.507 37.9235 407.239 38.9038C407.201 39.0803 407.153 39.1783 407.096 39.1979C407.039 39.2175 406.886 39.2371 406.638 39.2567H406.237C406.122 39.1391 406.065 39.0312 406.065 38.9332Z" fill="" stroke="" stroke-width="0.2"/>
<path d="M423.164 42.924C422.799 42.924 422.509 42.7992 422.293 42.5497C422.077 42.3002 421.969 41.9952 421.969 41.6349C421.969 40.6507 422.327 39.7982 423.042 39.0774C423.758 38.3566 424.649 37.9962 425.715 37.9962C426.944 37.9962 427.97 38.3844 428.793 39.1606C429.617 39.9368 430.035 40.9418 430.049 42.1754C430.049 42.7715 429.914 43.3398 429.644 43.8804C429.374 44.421 429.05 44.8923 428.672 45.2943C428.294 45.6962 427.754 46.2091 427.052 46.8329C426.566 47.2626 425.891 47.9002 425.027 48.7457L423.832 49.9101L425.371 49.9309C427.49 49.9309 428.618 49.8962 428.753 49.8269C428.847 49.7992 429.009 49.1824 429.239 47.9764V47.9141H430.049V47.9764C430.035 48.018 429.947 48.6487 429.785 49.8685C429.623 51.0883 429.522 51.7259 429.482 51.7814V51.8438H421.969V51.4487V51.1992C421.969 51.1022 422.009 50.9982 422.09 50.8873C422.171 50.7764 422.374 50.5339 422.698 50.1596C423.089 49.716 423.427 49.3279 423.71 48.9952C423.832 48.8566 424.061 48.6002 424.399 48.2259C424.736 47.8517 424.966 47.5952 425.087 47.4566C425.209 47.318 425.405 47.0893 425.675 46.7705C425.945 46.4517 426.134 46.216 426.242 46.0636C426.35 45.9111 426.505 45.7032 426.707 45.4398C426.91 45.1764 427.052 44.9547 427.133 44.7745C427.214 44.5943 427.315 44.3933 427.436 44.1715C427.558 43.9497 427.646 43.7279 427.7 43.5061C427.754 43.2844 427.801 43.0764 427.841 42.8824C427.882 42.6883 427.902 42.4596 427.902 42.1962C427.902 41.323 427.673 40.5675 427.214 39.9299C426.755 39.2923 426.1 38.9735 425.249 38.9735C424.804 38.9735 424.412 39.0913 424.075 39.3269C423.737 39.5626 423.501 39.7913 423.366 40.0131C423.231 40.2349 423.164 40.3665 423.164 40.4081C423.164 40.422 423.197 40.4289 423.265 40.4289C423.508 40.4289 423.758 40.5259 424.014 40.72C424.271 40.9141 424.399 41.2329 424.399 41.6764C424.399 42.023 424.291 42.3141 424.075 42.5497C423.859 42.7853 423.555 42.9101 423.164 42.924Z" fill="" stroke="" stroke-width="0.2"/>
<g clip-path="url(#clip1_1770_2225)">
<path d="M403.448 31.6689V30.7125H433.706V31.6689H403.448Z" fill=""/>
</g>
<path d="M434.237 25.4018L434.352 25.3724C434.447 25.3724 434.542 25.3724 434.638 25.3724H434.982L435.784 26.0782C437.579 27.7447 438.887 29.8229 439.708 32.3129C440.529 34.8028 440.939 37.3908 440.939 40.0768C440.939 41.41 440.844 42.6942 440.653 43.9294C440.462 45.1646 440.242 46.2135 439.994 47.0761C439.746 47.9388 439.393 48.8015 438.934 49.6641C438.476 50.5268 438.113 51.1836 437.846 51.6345C437.579 52.0854 437.187 52.5854 436.672 53.1344C436.156 53.6833 435.851 54.0068 435.755 54.1048C435.66 54.2029 435.44 54.3891 435.096 54.6636C435.039 54.7224 435.001 54.7616 434.982 54.7812H434.638C434.485 54.7812 434.38 54.7812 434.323 54.7812C434.266 54.7812 434.218 54.7518 434.18 54.693C434.141 54.6342 434.113 54.546 434.094 54.4283C434.113 54.4087 434.218 54.2813 434.409 54.046C437.369 50.8895 438.848 46.2331 438.848 40.0768C438.848 33.9206 437.369 29.2642 434.409 26.1076C434.218 25.8724 434.113 25.7449 434.094 25.7253C434.094 25.5685 434.141 25.4606 434.237 25.4018Z" fill="" stroke="" stroke-width="0.2"/>
<path d="M445.261 40.4614C445.261 40.4614 445.261 40.3339 445.261 40.079C445.261 39.8242 445.394 39.6281 445.662 39.4909H454.226V35.0795L454.255 30.6682C454.446 30.4133 454.627 30.2859 454.799 30.2859C455.047 30.2859 455.238 30.4329 455.372 30.727V39.4909H463.907C464.194 39.6477 464.337 39.8438 464.337 40.079C464.337 40.3143 464.194 40.5104 463.907 40.6672H455.372V49.431C455.219 49.7055 455.047 49.8428 454.856 49.8428H454.799H454.742C454.512 49.8428 454.341 49.7055 454.226 49.431V40.6672H445.662C445.394 40.53 445.261 40.3339 445.261 40.079V40.4614Z" fill="" stroke="" stroke-width="0.2"/>
<path d="M468.179 45.6622C468.179 45.1917 468.341 44.78 468.666 44.4271C468.99 44.0742 469.401 43.8977 469.897 43.8977C470.356 43.8977 470.757 44.0545 471.1 44.3682C471.444 44.6819 471.625 45.1035 471.645 45.6328C471.645 46.123 471.482 46.5445 471.158 46.8974C470.833 47.2503 470.422 47.4268 469.926 47.4268C469.429 47.4268 469.019 47.2601 468.694 46.9268C468.37 46.5935 468.198 46.172 468.179 45.6622Z" fill="" stroke="" stroke-width="0.2"/>
<path d="M480.916 45.6622C480.916 45.1917 481.078 44.78 481.403 44.4271C481.728 44.0742 482.138 43.8977 482.635 43.8977C483.093 43.8977 483.494 44.0545 483.838 44.3682C484.181 44.6819 484.363 45.1035 484.382 45.6328C484.382 46.123 484.22 46.5445 483.895 46.8974C483.57 47.2503 483.16 47.4268 482.663 47.4268C482.167 47.4268 481.756 47.2601 481.432 46.9268C481.107 46.5935 480.935 46.172 480.916 45.6622Z" fill="" stroke="" stroke-width="0.2"/>
<path d="M493.653 45.6622C493.653 45.1917 493.816 44.78 494.14 44.4271C494.465 44.0742 494.875 43.8977 495.372 43.8977C495.83 43.8977 496.231 44.0545 496.575 44.3682C496.919 44.6819 497.1 45.1035 497.119 45.6328C497.119 46.123 496.957 46.5445 496.632 46.8974C496.308 47.2503 495.897 47.4268 495.401 47.4268C494.904 47.4268 494.494 47.2601 494.169 46.9268C493.844 46.5935 493.672 46.172 493.653 45.6622Z" fill="" stroke="" stroke-width="0.2"/>
<path d="M505.759 40.4614C505.759 40.4614 505.759 40.3339 505.759 40.079C505.759 39.8242 505.892 39.6281 506.16 39.4909H514.724V35.0795L514.753 30.6682C514.944 30.4133 515.125 30.2859 515.297 30.2859C515.545 30.2859 515.736 30.4329 515.87 30.727V39.4909H524.405C524.692 39.6477 524.835 39.8438 524.835 40.079C524.835 40.3143 524.692 40.5104 524.405 40.6672H515.87V49.431C515.717 49.7055 515.545 49.8428 515.354 49.8428H515.297H515.24C515.01 49.8428 514.839 49.7055 514.724 49.431V40.6672H506.16C505.892 40.53 505.759 40.3339 505.759 40.079V40.4614Z" fill="" stroke="" stroke-width="0.2"/>
<path d="M529.816 52.1905C529.854 52.1905 529.912 52.2101 529.988 52.2493C530.064 52.2885 530.169 52.3179 530.303 52.3375C530.437 52.3571 530.551 52.367 530.647 52.367C530.895 52.367 531.124 52.2395 531.334 51.9846C531.544 51.7298 531.697 51.4455 531.793 51.1318C531.984 50.6024 532.308 49.1026 532.766 46.6322C533.225 44.1619 533.664 41.8092 534.084 39.5741C534.504 37.339 534.714 36.2117 534.714 36.1921V36.1039H533.368C532.47 36.1039 531.993 36.0843 531.936 36.045C531.859 35.9862 531.821 35.8882 531.821 35.751L532.022 34.9275C532.06 34.8295 532.136 34.7805 532.251 34.7805C532.365 34.7805 532.814 34.7707 533.597 34.7511C534.514 34.7511 534.972 34.7413 534.972 34.7216C534.972 34.6824 535.058 34.1923 535.23 33.2512C535.402 32.3101 535.516 31.7416 535.573 31.5455C536.28 28.3105 537.674 26.693 539.755 26.693C540.462 26.7322 541.044 26.9479 541.503 27.34C541.961 27.7321 542.19 28.2517 542.19 28.8987C542.19 29.6045 541.989 30.1143 541.588 30.428C541.187 30.7417 540.786 30.9083 540.385 30.9279C539.545 30.9279 539.125 30.5162 539.125 29.6927C539.125 29.3202 539.23 28.9967 539.44 28.7222C539.65 28.4478 539.879 28.2419 540.128 28.1047L540.385 27.9576C540.08 27.84 539.794 27.7812 539.526 27.7812C539.297 27.7812 539.077 27.8792 538.867 28.0753C538.657 28.2713 538.514 28.5458 538.438 28.8987C538.304 29.4673 538.151 30.2319 537.979 31.1926C537.808 32.1533 537.655 32.9669 537.521 33.6335C537.388 34.3001 537.321 34.653 537.321 34.6922C537.321 34.7315 537.846 34.7511 538.896 34.7511C539.755 34.7511 540.252 34.7609 540.385 34.7805C540.519 34.8001 540.624 34.8589 540.701 34.9569C540.72 35.0353 540.701 35.202 540.643 35.4569C540.586 35.7117 540.538 35.8686 540.5 35.9274C540.462 36.0254 540.376 36.0745 540.242 36.0745C540.109 36.0745 539.593 36.0843 538.696 36.1039H537.092L536.433 39.6917C535.516 44.554 534.876 47.5929 534.514 48.8085C533.998 50.475 533.33 51.7102 532.509 52.514C531.802 53.1414 531.105 53.4551 530.418 53.4551C529.807 53.4551 529.253 53.2688 528.756 52.8963C528.26 52.5238 528.012 51.9944 528.012 51.3082C528.012 50.5828 528.212 50.0535 528.613 49.7202C529.014 49.3869 529.415 49.2202 529.816 49.2202C530.656 49.2202 531.077 49.6319 531.077 50.4554C531.077 50.8279 530.971 51.1514 530.761 51.4259C530.551 51.7004 530.322 51.9062 530.074 52.0435L529.816 52.1905Z" fill="" stroke="" stroke-width="0.2"/>
<path d="M544.884 40.0768C544.884 38.724 544.979 37.4398 545.17 36.2243C545.361 35.0087 545.581 33.9598 545.829 33.0775C546.077 32.1953 546.431 31.3326 546.889 30.4895C547.347 29.6465 547.71 28.9897 547.977 28.5192C548.245 28.0486 548.646 27.5389 549.18 26.9899C549.715 26.4409 550.03 26.1076 550.125 25.99C550.221 25.8724 550.46 25.6665 550.842 25.3724H551.214H551.328C551.596 25.3724 551.729 25.4606 551.729 25.6371C551.729 25.6959 551.567 25.9018 551.243 26.2547C550.918 26.6076 550.526 27.1271 550.068 27.8133C549.61 28.4995 549.142 29.3426 548.665 30.3425C548.187 31.3424 547.786 32.6952 547.462 34.4009C547.137 36.1066 546.975 37.9986 546.975 40.0768C546.975 42.1551 547.137 44.0372 547.462 45.7233C547.786 47.4094 548.178 48.772 548.636 49.8112C549.094 50.8503 549.562 51.6933 550.04 52.3403C550.517 52.9873 550.918 53.5069 551.243 53.899C551.567 54.2911 551.729 54.497 551.729 54.5166C551.729 54.693 551.586 54.7812 551.3 54.7812H551.214H550.842L550.04 54.0754C548.245 52.4089 546.937 50.3307 546.115 47.8408C545.294 45.3508 544.884 42.7628 544.884 40.0768Z" fill="" stroke="" stroke-width="0.2"/>
<path d="M554.826 38.9293C554.959 38.1059 555.475 37.155 556.373 36.0766C557.27 34.9983 558.378 34.4494 559.695 34.4298C560.363 34.4298 560.974 34.6062 561.528 34.9591C562.082 35.312 562.493 35.7531 562.76 36.2825C563.562 35.0473 564.526 34.4298 565.653 34.4298C566.359 34.4298 566.97 34.6454 567.486 35.0767C568.002 35.5081 568.269 36.0864 568.288 36.8119C568.288 37.3804 568.154 37.8412 567.887 38.1941C567.62 38.547 567.362 38.7627 567.114 38.8411C566.865 38.9195 566.646 38.9587 566.455 38.9587C566.092 38.9587 565.796 38.8509 565.567 38.6352C565.338 38.4195 565.223 38.1353 565.223 37.7824C565.223 36.8805 565.701 36.2629 566.655 35.9296C566.445 35.6747 566.063 35.5473 565.51 35.5473C565.261 35.5473 565.08 35.5669 564.965 35.6061C564.24 35.9198 563.705 36.5668 563.361 37.5471C562.216 41.88 561.643 44.4091 561.643 45.1346C561.643 45.6835 561.796 46.0756 562.101 46.3109C562.407 46.5462 562.741 46.6638 563.104 46.6638C563.81 46.6638 564.507 46.3403 565.195 45.6933C565.882 45.0463 566.35 44.2523 566.598 43.3112C566.655 43.1152 566.713 43.0073 566.77 42.9877C566.827 42.9681 566.98 42.9485 567.228 42.9289H567.343C567.629 42.9289 567.772 43.0073 567.772 43.1642C567.772 43.1838 567.753 43.2916 567.715 43.4877C567.41 44.6052 566.818 45.5953 565.939 46.458C565.061 47.3206 564.039 47.752 562.874 47.752C561.538 47.752 560.526 47.1344 559.838 45.8992C559.055 47.1148 558.158 47.7225 557.146 47.7225H556.974C556.038 47.7225 555.37 47.4677 554.969 46.9579C554.568 46.4482 554.358 45.909 554.339 45.3404C554.339 44.713 554.52 44.2033 554.883 43.8112C555.246 43.4191 555.676 43.223 556.172 43.223C556.993 43.223 557.404 43.6347 557.404 44.4582C557.404 44.8503 557.289 45.1934 557.06 45.4875C556.831 45.7816 556.611 45.9776 556.401 46.0756C556.191 46.1737 556.067 46.2227 556.029 46.2227L555.943 46.2521C555.943 46.2717 556 46.3109 556.115 46.3697C556.229 46.4286 556.382 46.4972 556.573 46.5756C556.764 46.654 556.945 46.6834 557.117 46.6638C557.805 46.6638 558.397 46.2227 558.893 45.3404C559.065 45.0267 559.285 44.3601 559.552 43.3406C559.819 42.3211 560.087 41.2624 560.354 40.1645C560.621 39.0665 560.774 38.4195 560.812 38.2235C560.908 37.6941 560.955 37.3118 560.955 37.0765C560.955 36.5276 560.812 36.1355 560.526 35.9002C560.239 35.6649 559.915 35.5473 559.552 35.5473C558.788 35.5473 558.072 35.861 557.404 36.4884C556.735 37.1158 556.267 37.9196 556 38.8999C555.962 39.0763 555.914 39.1744 555.857 39.194C555.8 39.2136 555.647 39.2332 555.399 39.2528H554.998C554.883 39.1352 554.826 39.0273 554.826 38.9293Z" fill="" stroke="" stroke-width="0.2"/>
<path d="M570.145 45.8743C570.158 45.7911 570.178 45.6802 570.205 45.5416C570.232 45.403 570.313 45.1396 570.448 44.7515C570.583 44.3634 570.718 44.0377 570.853 43.7743C570.988 43.5109 571.211 43.2545 571.522 43.005C571.832 42.7555 572.143 42.6377 572.453 42.6515C572.939 42.6515 573.344 42.7763 573.668 43.0258C573.992 43.2753 574.195 43.5109 574.276 43.7327C574.357 43.9545 574.397 44.1 574.397 44.1693C574.397 44.1971 574.404 44.2109 574.417 44.2109L574.64 43.9822C575.464 43.0951 576.402 42.6515 577.455 42.6515C578.184 42.6515 578.771 42.8386 579.217 43.2129C579.662 43.5872 579.892 44.1347 579.905 44.8555C579.919 45.5763 579.662 46.6644 579.136 48.1198C578.609 49.5753 578.353 50.4555 578.366 50.7604C578.366 51.1208 578.481 51.301 578.711 51.301C578.792 51.301 578.852 51.2941 578.893 51.2802C579.284 51.2109 579.635 50.9475 579.946 50.4901C580.256 50.0327 580.493 49.4782 580.655 48.8268C580.682 48.7159 580.817 48.6604 581.06 48.6604C581.33 48.6604 581.465 48.7159 581.465 48.8268C581.465 48.8406 581.438 48.9446 581.384 49.1386C581.276 49.5406 581.127 49.9357 580.938 50.3238C580.749 50.7119 580.439 51.1 580.007 51.4881C579.575 51.8763 579.109 52.0634 578.609 52.0495C577.975 52.0495 577.516 51.8624 577.232 51.4881C576.949 51.1139 576.807 50.7258 576.807 50.3238C576.807 50.0604 577.05 49.2287 577.536 47.8287C578.022 46.4287 578.272 45.3753 578.285 44.6683C578.285 43.8505 577.988 43.4416 577.394 43.4416H577.293C576.132 43.4416 575.153 44.1416 574.357 45.5416L574.215 45.7911L573.547 48.5772C573.101 50.3931 572.845 51.3703 572.777 51.5089C572.602 51.8832 572.311 52.0703 571.906 52.0703C571.731 52.0703 571.589 52.0287 571.481 51.9456C571.373 51.8624 571.299 51.7792 571.258 51.6961C571.218 51.6129 571.204 51.5436 571.218 51.4881C571.218 51.3079 571.474 50.1782 571.987 48.099C572.5 46.0198 572.77 44.8901 572.797 44.7099C572.811 44.6406 572.818 44.4812 572.818 44.2317C572.818 43.6911 572.656 43.4208 572.332 43.4208C571.819 43.4208 571.393 44.1139 571.056 45.5C570.975 45.7773 570.934 45.9228 570.934 45.9367C570.907 46.0198 570.779 46.0614 570.55 46.0614H570.266C570.185 45.9782 570.145 45.9159 570.145 45.8743Z" fill="" stroke="" stroke-width="0.2"/>
<g clip-path="url(#clip2_1770_2225)">
<path d="M552.861 31.666V30.7096H585.312V31.666H552.861Z" fill=""/>
</g>
<path d="M585.023 25.4018L585.138 25.3724C585.233 25.3724 585.329 25.3724 585.424 25.3724H585.768L586.57 26.0782C588.365 27.7447 589.673 29.8229 590.494 32.3129C591.315 34.8028 591.726 37.3908 591.726 40.0768C591.726 41.41 591.63 42.6942 591.439 43.9294C591.248 45.1646 591.029 46.2135 590.78 47.0761C590.532 47.9388 590.179 48.8015 589.721 49.6641C589.262 50.5268 588.899 51.1836 588.632 51.6345C588.365 52.0854 587.973 52.5854 587.458 53.1344C586.942 53.6833 586.637 54.0068 586.541 54.1048C586.446 54.2029 586.226 54.3891 585.882 54.6636C585.825 54.7224 585.787 54.7616 585.768 54.7812H585.424C585.271 54.7812 585.166 54.7812 585.109 54.7812C585.052 54.7812 585.004 54.7518 584.966 54.693C584.928 54.6342 584.899 54.546 584.88 54.4283C584.899 54.4087 585.004 54.2813 585.195 54.046C588.155 50.8895 589.635 46.2331 589.635 40.0768C589.635 33.9206 588.155 29.2642 585.195 26.1076C585.004 25.8724 584.899 25.7449 584.88 25.7253C584.88 25.5685 584.928 25.4606 585.023 25.4018Z" fill="" stroke="" stroke-width="0.2"/>
<path d="M595.076 26.5488V25.3724H599V54.7812H595.076V53.6049H597.855V26.5488H595.076Z" fill="" stroke="" stroke-width="0.2"/>
<path d="M16.8494 142.499C16.8494 142.065 17.0403 141.663 17.4221 141.291C17.8039 140.919 18.2259 140.723 18.688 140.703C19.0498 140.703 19.3813 140.888 19.6827 141.26C19.9842 141.632 20.1449 142.22 20.165 143.025C20.165 143.624 19.9741 144.81 19.5923 146.586C19.2909 147.742 19.0196 148.691 18.7785 149.434C18.5373 150.177 18.1857 151.013 17.7235 151.942C17.2613 152.871 16.7087 153.573 16.0657 154.048C15.4227 154.522 14.6993 154.76 13.8955 154.76C13.0113 154.76 12.2276 154.595 11.5444 154.264C10.8612 153.934 10.3689 153.49 10.0674 152.933C10.0473 152.954 10.0172 152.995 9.97701 153.057C9.15312 154.192 8.14839 154.76 6.9628 154.76C6.44034 154.76 5.93798 154.698 5.4557 154.574C4.97343 154.45 4.50121 154.254 4.03903 153.986C3.57685 153.717 3.2051 153.315 2.92378 152.778C2.64245 152.241 2.50179 151.591 2.50179 150.828C2.50179 149.713 2.8434 148.206 3.52662 146.307C4.20983 144.408 4.56149 143.2 4.58159 142.684C4.58159 142.664 4.58159 142.643 4.58159 142.622C4.58159 142.437 4.58159 142.313 4.58159 142.251C4.58159 142.189 4.5414 142.117 4.46102 142.034C4.38064 141.952 4.27012 141.91 4.12946 141.91H4.00889C3.54671 141.91 3.12472 142.106 2.74292 142.499C2.36112 142.891 2.0597 143.314 1.83866 143.768C1.61762 144.222 1.44682 144.656 1.32625 145.068C1.20568 145.481 1.1253 145.708 1.08511 145.75C1.04492 145.791 0.884166 145.812 0.60284 145.812H0.180852C0.060284 145.688 0 145.595 0 145.533C0 145.409 0.0803787 145.12 0.241136 144.666C0.401893 144.212 0.632982 143.685 0.934402 143.087C1.23582 142.488 1.67791 141.952 2.26065 141.477C2.8434 141.002 3.49647 140.765 4.21988 140.765C5.08395 140.765 5.74708 141.023 6.20925 141.539C6.67143 142.055 6.90252 142.653 6.90252 143.335C6.90252 143.706 6.57096 144.821 5.90783 146.679C5.24471 148.536 4.91315 149.971 4.91315 150.982C4.91315 151.932 5.12414 152.603 5.54613 152.995C5.96812 153.387 6.50063 153.594 7.14366 153.614C8.00773 153.614 8.77133 152.985 9.43445 151.725L9.58516 151.447V150.735C9.58516 150.673 9.58516 150.58 9.58516 150.456C9.58516 150.332 9.59521 150.25 9.6153 150.208C9.6354 150.167 9.64544 150.095 9.64544 149.992C9.64544 149.888 9.65549 149.795 9.67559 149.713C9.69568 149.63 9.72582 149.496 9.76601 149.31C9.8062 149.125 9.83634 148.949 9.85644 148.784C9.87653 148.619 9.93682 148.371 10.0373 148.041C10.1378 147.711 10.2181 147.38 10.2784 147.05C10.3387 146.72 10.4492 146.276 10.61 145.719C11.1927 143.366 11.5243 142.096 11.6047 141.91C11.8659 141.353 12.2979 141.074 12.9008 141.074C13.2826 141.074 13.5438 141.177 13.6845 141.384C13.8251 141.59 13.9055 141.786 13.9256 141.972C13.9256 142.241 13.6342 143.562 13.0515 145.935C12.4687 148.309 12.1472 149.672 12.0869 150.022C12.0468 150.25 12.0267 150.611 12.0267 151.106V151.323C12.0267 151.633 12.0568 151.932 12.1171 152.221C12.1774 152.51 12.3683 152.809 12.6898 153.119C13.0113 153.428 13.4634 153.594 14.0462 153.614C15.4729 153.614 16.6082 152.355 17.4522 149.837C17.6331 149.362 17.834 148.691 18.0551 147.824C18.2761 146.957 18.3967 146.338 18.4168 145.966C18.4168 145.285 18.2862 144.748 18.0249 144.356C17.7637 143.964 17.5025 143.634 17.2412 143.366C16.98 143.097 16.8494 142.808 16.8494 142.499Z" fill=""/>
<path d="M25.0781 133.272C25.0982 133.272 25.8217 133.22 27.2484 133.117C28.6751 133.014 29.4085 132.952 29.4487 132.931C29.6899 132.931 29.8104 133.024 29.8104 133.21C29.8104 133.437 29.4487 134.995 28.7253 137.885C27.9617 140.94 27.5799 142.499 27.5799 142.56C27.5799 142.602 27.6503 142.55 27.7909 142.406C29.0167 141.291 30.3229 140.734 31.7094 140.734C32.7945 140.734 33.6686 141.012 34.3317 141.57C34.9949 142.127 35.3365 142.942 35.3566 144.016C35.3566 145.068 34.9748 146.699 34.2112 148.908C33.4476 151.116 33.0658 152.438 33.0658 152.871C33.0859 153.16 33.1361 153.356 33.2165 153.459C33.2969 153.563 33.4476 153.614 33.6686 153.614C34.2313 153.614 34.7537 153.305 35.236 152.685C35.7183 152.066 36.1101 151.22 36.4115 150.146C36.4718 149.919 36.5321 149.785 36.5924 149.744C36.6527 149.703 36.8134 149.682 37.0747 149.682C37.4766 149.682 37.6775 149.764 37.6775 149.93C37.6775 149.95 37.6373 150.105 37.5569 150.394C37.2354 151.612 36.723 152.613 36.0197 153.397C35.3365 154.285 34.5226 154.729 33.5782 154.729H33.4275C32.483 154.729 31.7998 154.45 31.3778 153.893C30.9558 153.335 30.7448 152.747 30.7448 152.128C30.7448 151.798 31.1065 150.58 31.83 148.474C32.5534 146.369 32.9251 144.79 32.9452 143.737C32.9452 142.519 32.5031 141.91 31.619 141.91H31.4683C29.8004 141.91 28.3536 142.922 27.1278 144.945L26.9168 145.347L25.892 149.527C25.249 152.211 24.8772 153.676 24.7767 153.924C24.5155 154.481 24.0734 154.76 23.4505 154.76C23.1692 154.76 22.928 154.667 22.7271 154.481C22.5261 154.295 22.4156 154.11 22.3955 153.924C22.3955 153.635 23.129 150.497 24.5959 144.511L26.8264 135.346C26.8264 135.078 26.7561 134.913 26.6154 134.851C26.4747 134.789 26.0829 134.737 25.4399 134.696H24.8069C24.6863 134.572 24.626 134.49 24.626 134.448C24.626 134.407 24.6461 134.211 24.6863 133.86C24.7868 133.468 24.9174 133.272 25.0781 133.272Z" fill=""/>
<path d="M39.4854 149.217C39.4854 148.041 39.6763 146.967 40.058 145.997C40.4398 145.027 40.9322 144.222 41.535 143.582C42.1378 142.942 42.811 142.406 43.5545 141.972C44.298 141.539 45.0013 141.219 45.6645 141.012C46.3276 140.806 46.9606 140.713 47.5634 140.734H47.6538C48.5581 140.734 49.3418 140.961 50.0049 141.415C50.668 141.869 50.9996 142.54 50.9996 143.427C50.9996 145.285 49.8843 146.503 47.6538 147.081C46.6692 147.349 45.3229 147.494 43.6148 147.514C42.8713 147.514 42.4895 147.535 42.4694 147.576C42.4694 147.618 42.4091 147.979 42.2886 148.66C42.168 149.341 42.0977 149.94 42.0776 150.456C42.0776 151.426 42.2886 152.19 42.7105 152.747C43.1325 153.305 43.7655 153.594 44.6095 153.614C45.4535 153.635 46.3879 153.439 47.4127 153.026C48.4375 152.613 49.3619 151.932 50.1858 150.982C50.3666 150.776 50.4872 150.673 50.5475 150.673C50.6278 150.673 50.7585 150.766 50.9393 150.951C51.1202 151.137 51.2206 151.282 51.2407 151.385C51.2608 151.488 51.1704 151.653 50.9695 151.88C50.7685 152.107 50.4671 152.386 50.0652 152.716C49.6633 153.046 49.2011 153.366 48.6787 153.676C48.1562 153.986 47.5232 154.244 46.7797 154.45C46.0362 154.657 45.2726 154.76 44.4889 154.76C42.9014 154.76 41.6757 154.213 40.8116 153.119C39.9475 152.025 39.5054 150.724 39.4854 149.217ZM49.5528 143.489C49.4322 142.416 48.749 141.879 47.5031 141.879C46.84 141.879 46.2271 142.024 45.6645 142.313C45.1018 142.602 44.6497 142.953 44.3081 143.365C43.9665 143.778 43.6751 144.201 43.434 144.635C43.1928 145.068 43.0321 145.44 42.9517 145.75C42.8713 146.059 42.8211 146.255 42.801 146.338C42.801 146.359 43.0019 146.369 43.4038 146.369C45.6745 146.369 47.262 146.121 48.1663 145.626C49.0705 145.13 49.5327 144.418 49.5528 143.489Z" fill=""/>
<path d="M52.9893 145.533C53.0094 145.471 53.0294 145.388 53.0495 145.285C53.0696 145.182 53.1199 144.955 53.2003 144.604C53.2806 144.253 53.3811 143.933 53.5017 143.644C53.6222 143.355 53.773 143.015 53.9538 142.622C54.1347 142.23 54.3356 141.921 54.5566 141.694C54.7777 141.466 55.0389 141.239 55.3403 141.012C55.6418 140.785 55.9733 140.692 56.335 140.734C56.9178 140.734 57.4302 140.858 57.8723 141.105C58.3143 141.353 58.6258 141.58 58.8067 141.786C58.9875 141.993 59.098 142.199 59.1382 142.406C59.1784 142.53 59.2086 142.591 59.2287 142.591C59.2487 142.591 59.3291 142.519 59.4698 142.375C60.4343 141.301 61.5496 140.765 62.8156 140.765H62.906C63.8705 140.765 64.5939 141.188 65.0762 142.034C65.237 142.426 65.3173 142.808 65.3173 143.18C65.3173 143.799 65.1867 144.294 64.9255 144.666C64.6643 145.037 64.403 145.275 64.1418 145.378C63.8806 145.481 63.6294 145.523 63.3883 145.502C62.9864 145.502 62.6648 145.388 62.4237 145.161C62.1826 144.934 62.062 144.635 62.062 144.263C62.062 143.273 62.6247 142.612 63.75 142.282C63.3079 142.013 62.9462 141.879 62.6648 141.879C61.5395 141.879 60.5047 142.643 59.5602 144.171C59.3593 144.501 59.2086 144.841 59.1081 145.192C59.0076 145.543 58.666 146.916 58.0833 149.31C57.4 152.2 57.0082 153.738 56.9077 153.924C56.6465 154.481 56.2145 154.76 55.6116 154.76C55.3504 154.76 55.1394 154.698 54.9786 154.574C54.8179 154.45 54.7074 154.326 54.6471 154.202C54.5868 154.079 54.5667 153.975 54.5868 153.893C54.5868 153.624 54.9887 151.849 55.7925 148.567C56.5963 145.285 56.9981 143.458 56.9981 143.087C56.9981 142.282 56.7369 141.879 56.2145 141.879C55.7925 141.879 55.4308 142.168 55.1293 142.746C54.8279 143.324 54.5868 143.954 54.4059 144.635C54.2251 145.316 54.1146 145.688 54.0744 145.75C54.0342 145.791 53.8734 145.812 53.5921 145.812H53.1701C53.0495 145.688 52.9893 145.595 52.9893 145.533Z" fill=""/>
<path d="M67.126 149.217C67.126 148.041 67.3169 146.967 67.6987 145.997C68.0805 145.027 68.5728 144.222 69.1756 143.582C69.7785 142.942 70.4516 142.406 71.1951 141.972C71.9387 141.539 72.642 141.219 73.3051 141.012C73.9682 140.806 74.6012 140.713 75.204 140.734H75.2945C76.1987 140.734 76.9824 140.961 77.6455 141.415C78.3087 141.869 78.6402 142.54 78.6402 143.427C78.6402 145.285 77.525 146.503 75.2945 147.081C74.3098 147.349 72.9635 147.494 71.2554 147.514C70.5119 147.514 70.1301 147.535 70.11 147.576C70.11 147.618 70.0498 147.979 69.9292 148.66C69.8086 149.341 69.7383 149.94 69.7182 150.456C69.7182 151.426 69.9292 152.19 70.3512 152.747C70.7732 153.305 71.4061 153.594 72.2501 153.614C73.0941 153.635 74.0285 153.439 75.0533 153.026C76.0782 152.613 77.0025 151.932 77.8264 150.982C78.0072 150.776 78.1278 150.673 78.1881 150.673C78.2685 150.673 78.3991 150.766 78.5799 150.951C78.7608 151.137 78.8613 151.282 78.8814 151.385C78.9015 151.488 78.811 151.653 78.6101 151.88C78.4091 152.107 78.1077 152.386 77.7058 152.716C77.3039 153.046 76.8418 153.366 76.3193 153.676C75.7968 153.986 75.1638 154.244 74.4203 154.45C73.6768 154.657 72.9132 154.76 72.1296 154.76C70.5421 154.76 69.3163 154.213 68.4522 153.119C67.5882 152.025 67.1461 150.724 67.126 149.217ZM77.1934 143.489C77.0728 142.416 76.3896 141.879 75.1438 141.879C74.4806 141.879 73.8677 142.024 73.3051 142.313C72.7424 142.602 72.2903 142.953 71.9487 143.365C71.6071 143.778 71.3157 144.201 71.0746 144.635C70.8334 145.068 70.6727 145.44 70.5923 145.75C70.5119 146.059 70.4617 146.255 70.4416 146.338C70.4416 146.359 70.6425 146.369 71.0444 146.369C73.3151 146.369 74.9026 146.121 75.8069 145.626C76.7111 145.13 77.1733 144.418 77.1934 143.489Z" fill=""/>
<path d="M82.3486 153.334C82.3486 153.334 82.3486 153.076 82.3486 152.56C82.3486 152.044 82.5094 151.601 82.8309 151.229C83.1524 150.857 83.5845 150.672 84.127 150.672C84.6897 150.672 85.192 150.93 85.6341 151.446C86.0762 151.962 86.3073 152.87 86.3274 154.17C86.3274 154.893 86.237 155.595 86.0561 156.276C85.8752 156.957 85.6643 157.545 85.4231 158.041C85.182 158.536 84.9208 158.959 84.6394 159.31C84.3581 159.661 84.117 159.94 83.916 160.146C83.7151 160.353 83.5845 160.446 83.5242 160.425C83.4438 160.425 83.3132 160.332 83.1323 160.146C82.9515 159.96 82.861 159.826 82.861 159.744C82.861 159.661 82.9716 159.496 83.1926 159.248C83.4137 159.001 83.6648 158.691 83.9462 158.319C84.2275 157.948 84.4887 157.432 84.7299 156.771C84.971 156.111 85.1317 155.357 85.2121 154.511V154.139L85.182 154.17C85.1418 154.191 85.0916 154.212 85.0313 154.232C84.971 154.253 84.9107 154.284 84.8504 154.325C84.7901 154.367 84.6997 154.387 84.5791 154.387C84.4586 154.387 84.338 154.398 84.2174 154.418C83.6749 154.418 83.2328 154.243 82.8912 153.892L82.3486 153.334Z" fill=""/>
<path d="M95.661 154.419L95.5706 154.357C95.5103 154.336 95.46 154.305 95.4198 154.264C95.3797 154.223 95.3294 154.161 95.2691 154.078C95.2089 153.996 95.1787 153.903 95.1787 153.8C95.1787 153.717 95.2089 153.614 95.2691 153.49C95.3294 153.346 97.1681 149.836 100.785 142.963C104.402 136.089 106.241 132.611 106.301 132.528C106.301 132.508 106.321 132.477 106.361 132.435C106.402 132.394 106.462 132.353 106.542 132.312C106.623 132.27 106.703 132.25 106.783 132.25C106.924 132.25 107.035 132.291 107.115 132.374C107.195 132.415 109.094 135.965 112.812 143.025L118.358 153.583V153.8C118.358 154.068 118.217 154.274 117.936 154.419H95.661ZM111.787 143.675L106.783 134.2C106.763 134.2 105.095 137.359 101.78 143.675C98.4642 149.991 96.8064 153.16 96.8064 153.18H116.76C116.76 153.139 115.103 149.971 111.787 143.675Z" fill=""/>
<path d="M121.765 145.471C121.906 144.604 122.449 143.603 123.393 142.468C124.337 141.332 125.503 140.754 126.889 140.734C127.593 140.734 128.236 140.919 128.819 141.291C129.401 141.663 129.833 142.127 130.115 142.684C130.959 141.384 131.973 140.734 133.159 140.734C133.903 140.734 134.546 140.961 135.088 141.415C135.631 141.869 135.912 142.478 135.932 143.242C135.932 143.84 135.791 144.325 135.51 144.697C135.229 145.068 134.957 145.296 134.696 145.378C134.435 145.461 134.204 145.502 134.003 145.502C133.621 145.502 133.31 145.388 133.069 145.161C132.827 144.934 132.707 144.635 132.707 144.263C132.707 143.314 133.209 142.664 134.214 142.313C133.993 142.044 133.591 141.91 133.008 141.91C132.747 141.91 132.556 141.931 132.436 141.972C131.672 142.302 131.109 142.984 130.748 144.016C129.542 148.578 128.939 151.24 128.939 152.004C128.939 152.582 129.1 152.995 129.421 153.243C129.743 153.49 130.095 153.614 130.476 153.614C131.22 153.614 131.953 153.274 132.677 152.592C133.4 151.911 133.892 151.075 134.154 150.084C134.214 149.878 134.274 149.764 134.335 149.744C134.395 149.723 134.556 149.703 134.817 149.682H134.937C135.239 149.682 135.39 149.764 135.39 149.93C135.39 149.95 135.369 150.064 135.329 150.27C135.008 151.447 134.385 152.489 133.46 153.397C132.536 154.306 131.461 154.76 130.235 154.76C128.829 154.76 127.764 154.11 127.04 152.809C126.216 154.089 125.272 154.729 124.207 154.729H124.026C123.041 154.729 122.338 154.46 121.916 153.924C121.494 153.387 121.273 152.819 121.253 152.221C121.253 151.56 121.444 151.024 121.826 150.611C122.207 150.198 122.66 149.992 123.182 149.992C124.046 149.992 124.478 150.425 124.478 151.292C124.478 151.705 124.358 152.066 124.116 152.376C123.875 152.685 123.644 152.892 123.423 152.995C123.202 153.098 123.071 153.15 123.031 153.15L122.941 153.181C122.941 153.201 123.001 153.243 123.122 153.305C123.242 153.366 123.403 153.439 123.604 153.521C123.805 153.604 123.996 153.635 124.177 153.614C124.9 153.614 125.523 153.15 126.046 152.221C126.226 151.891 126.457 151.189 126.739 150.115C127.02 149.042 127.301 147.927 127.583 146.771C127.864 145.615 128.025 144.934 128.065 144.728C128.165 144.171 128.216 143.768 128.216 143.52C128.216 142.942 128.065 142.53 127.764 142.282C127.462 142.034 127.121 141.91 126.739 141.91C125.935 141.91 125.181 142.241 124.478 142.901C123.775 143.562 123.282 144.408 123.001 145.44C122.961 145.626 122.911 145.729 122.85 145.75C122.79 145.77 122.629 145.791 122.368 145.812H121.946C121.826 145.688 121.765 145.574 121.765 145.471Z" fill=""/>
<path d="M147.497 143.674C147.497 143.405 147.638 143.199 147.919 143.055H167.12C167.421 143.22 167.572 143.426 167.572 143.674C167.572 143.901 167.431 144.097 167.15 144.262L157.565 144.293H147.979C147.658 144.19 147.497 143.983 147.497 143.674ZM147.497 149.681C147.497 149.371 147.658 149.165 147.979 149.061H167.15C167.431 149.268 167.572 149.474 167.572 149.681C167.572 149.949 167.421 150.155 167.12 150.3H147.919C147.638 150.155 147.497 149.949 147.497 149.681Z" fill=""/>
<path d="M186.463 113.456C186.463 113.249 186.504 113.012 186.584 112.744C186.664 112.475 186.785 112.341 186.946 112.341C186.966 112.341 187.689 112.289 189.116 112.186C190.543 112.083 191.276 112.021 191.316 112C191.557 112 191.678 112.093 191.678 112.279C191.678 112.465 191.336 113.941 190.653 116.707C190.492 117.409 190.322 118.131 190.141 118.874C189.96 119.617 189.809 120.175 189.689 120.546L189.568 121.134C189.568 121.196 189.628 121.165 189.749 121.042C190.734 120.216 191.748 119.803 192.793 119.803C194.039 119.803 195.044 120.278 195.807 121.227C196.571 122.177 196.963 123.374 196.983 124.819C196.983 127.11 196.189 129.185 194.602 131.042C193.014 132.9 191.306 133.829 189.478 133.829C188.473 133.829 187.559 133.437 186.735 132.653C185.911 131.868 185.489 130.599 185.469 128.844V128.565C185.469 128.132 185.549 127.533 185.71 126.77C185.871 126.006 186.363 123.973 187.187 120.67C188.192 116.604 188.694 114.446 188.694 114.199C188.694 113.951 188.312 113.807 187.549 113.765C187.448 113.765 187.368 113.765 187.307 113.765H187.157C186.956 113.765 186.825 113.765 186.765 113.765C186.705 113.765 186.634 113.734 186.554 113.672C186.473 113.61 186.443 113.538 186.463 113.456ZM194.391 123.426V123.24C194.391 121.712 193.778 120.949 192.552 120.949C192.211 120.949 191.859 121.031 191.497 121.196C191.135 121.361 190.804 121.578 190.502 121.847C190.201 122.115 189.94 122.363 189.719 122.59C189.498 122.817 189.317 123.044 189.176 123.271L188.995 123.519L188.362 126.181C187.92 127.957 187.699 129.216 187.699 129.959C187.699 130.95 187.94 131.693 188.423 132.188C188.744 132.518 189.146 132.683 189.628 132.683C190.291 132.683 190.965 132.353 191.648 131.693C192.15 131.218 192.552 130.64 192.854 129.959C193.155 129.278 193.487 128.194 193.848 126.708C194.21 125.221 194.391 124.127 194.391 123.426Z" fill=""/>
<path d="M206.424 126.151C206.424 126.151 206.424 126.017 206.424 125.749C206.424 125.481 206.564 125.274 206.846 125.13H224.358C224.66 125.295 224.81 125.501 224.81 125.749C224.81 125.997 224.66 126.203 224.358 126.368H206.846C206.564 126.224 206.424 126.017 206.424 125.749V126.151Z" fill=""/>
<path d="M235.035 128.628C235.035 126.543 235.799 124.562 237.326 122.683C238.853 120.805 240.571 119.855 242.48 119.835C243.505 119.835 244.409 120.34 245.193 121.352C245.515 120.733 245.977 120.423 246.58 120.423C246.841 120.423 247.072 120.506 247.273 120.671C247.474 120.836 247.574 121.042 247.574 121.29C247.574 121.558 247.202 123.21 246.459 126.244C245.715 129.278 245.334 130.992 245.314 131.384C245.314 131.9 245.384 132.24 245.525 132.406C245.665 132.571 245.876 132.664 246.158 132.684C246.338 132.664 246.539 132.571 246.76 132.406C247.182 131.993 247.594 131.002 247.996 129.433C248.117 129.02 248.217 128.804 248.298 128.783C248.338 128.762 248.438 128.752 248.599 128.752H248.72C249.101 128.752 249.292 128.845 249.292 129.031C249.292 129.154 249.242 129.433 249.142 129.867C249.041 130.3 248.84 130.857 248.539 131.539C248.237 132.22 247.916 132.736 247.574 133.087C247.313 133.355 246.991 133.572 246.61 133.737C246.449 133.778 246.208 133.799 245.886 133.799C245.203 133.799 244.63 133.644 244.168 133.334C243.706 133.025 243.405 132.705 243.264 132.375L243.083 131.91C243.063 131.889 243.023 131.9 242.963 131.941C242.922 131.982 242.882 132.024 242.842 132.065C241.656 133.221 240.451 133.799 239.225 133.799C238.12 133.799 237.145 133.386 236.301 132.56C235.457 131.735 235.035 130.424 235.035 128.628ZM244.62 123.333C244.62 123.21 244.57 122.983 244.47 122.652C244.369 122.322 244.138 121.961 243.776 121.569C243.415 121.176 242.952 120.97 242.39 120.949C241.686 120.949 241.013 121.269 240.37 121.909C239.727 122.549 239.225 123.385 238.863 124.417C238.28 126.048 237.869 127.74 237.627 129.495C237.627 129.557 237.627 129.67 237.627 129.836C237.627 130.001 237.617 130.125 237.597 130.207C237.597 131.136 237.778 131.776 238.14 132.127C238.501 132.478 238.934 132.664 239.436 132.684C240.199 132.684 240.953 132.344 241.697 131.662C242.44 130.981 242.882 130.455 243.023 130.083C243.063 130.001 243.334 128.896 243.837 126.77C244.339 124.644 244.6 123.499 244.62 123.333Z" fill=""/>
<path d="M208.715 166.773C208.735 166.649 208.765 166.484 208.805 166.278C208.845 166.071 208.966 165.679 209.167 165.101C209.368 164.523 209.569 164.038 209.77 163.646C209.971 163.254 210.302 162.872 210.765 162.5C211.227 162.129 211.689 161.953 212.151 161.974C212.874 161.974 213.477 162.16 213.96 162.531C214.442 162.903 214.743 163.254 214.864 163.584C214.984 163.914 215.045 164.131 215.045 164.234C215.045 164.275 215.055 164.296 215.075 164.296L215.406 163.956C216.632 162.634 218.029 161.974 219.596 161.974C220.681 161.974 221.555 162.253 222.218 162.81C222.882 163.367 223.223 164.183 223.243 165.256C223.263 166.329 222.882 167.95 222.098 170.117C221.314 172.284 220.932 173.595 220.953 174.049C220.953 174.586 221.123 174.854 221.465 174.854C221.585 174.854 221.676 174.844 221.736 174.823C222.319 174.72 222.841 174.328 223.304 173.647C223.766 172.966 224.117 172.14 224.359 171.17C224.399 171.005 224.6 170.922 224.961 170.922C225.363 170.922 225.564 171.005 225.564 171.17C225.564 171.19 225.524 171.345 225.444 171.634C225.283 172.233 225.062 172.821 224.781 173.399C224.499 173.977 224.037 174.555 223.394 175.133C222.751 175.711 222.058 175.99 221.314 175.969C220.37 175.969 219.687 175.69 219.265 175.133C218.843 174.576 218.632 173.998 218.632 173.399C218.632 173.007 218.993 171.768 219.717 169.684C220.44 167.599 220.812 166.03 220.832 164.977C220.832 163.759 220.39 163.15 219.506 163.15H219.355C217.627 163.15 216.17 164.193 214.984 166.278L214.773 166.649L213.779 170.798C213.116 173.502 212.734 174.958 212.633 175.164C212.372 175.721 211.94 176 211.337 176C211.076 176 210.865 175.938 210.704 175.814C210.543 175.69 210.433 175.567 210.373 175.443C210.312 175.319 210.292 175.216 210.312 175.133C210.312 174.865 210.694 173.182 211.458 170.086C212.221 166.99 212.623 165.308 212.663 165.039C212.684 164.936 212.694 164.699 212.694 164.327C212.694 163.522 212.452 163.12 211.97 163.12C211.207 163.12 210.574 164.152 210.071 166.216C209.951 166.629 209.89 166.845 209.89 166.866C209.85 166.99 209.659 167.052 209.318 167.052H208.896C208.775 166.928 208.715 166.835 208.715 166.773Z" fill=""/>
<path d="M252.999 147.607H181.249V145.75H252.999V147.607Z" fill=""/>
<defs>
<clipPath id="clip0_1770_2225">
<rect width="27.9377" height="5.11484" fill="white" transform="matrix(1 0 0 -1 302.988 33.748)"/>
</clipPath>
<clipPath id="clip1_1770_2225">
<rect width="27.9377" height="5.11484" fill="white" transform="matrix(1 0 0 -1 404.649 33.748)"/>
</clipPath>
<clipPath id="clip2_1770_2225">
<rect width="29.9627" height="5.11484" fill="white" transform="matrix(1 0 0 -1 554.149 33.7451)"/>
</clipPath>
</defs>
</svg>
