<svg width="393" height="92" viewBox="0 0 393 92" fill="none" xmlns="http://www.w3.org/2000/svg">
<path d="M1 84.4831C1 84.1467 1.12374 83.8524 1.37123 83.6002C1.61872 83.3479 1.93173 83.2218 2.31024 83.2218C2.65964 83.2218 2.96536 83.3339 3.22741 83.5581C3.48946 83.7824 3.62776 84.0837 3.64232 84.4621C3.64232 84.8124 3.51857 85.1137 3.27108 85.366C3.02359 85.6183 2.71059 85.7444 2.33208 85.7444C1.95356 85.7444 1.64056 85.6253 1.39307 85.387C1.14558 85.1488 1.01456 84.8475 1 84.4831Z" fill="" stroke="#5F5B80" stroke-width="0.2"/>
<path d="M10.7107 84.4831C10.7107 84.1467 10.8344 83.8524 11.0819 83.6002C11.3294 83.3479 11.6424 83.2218 12.0209 83.2218C12.3703 83.2218 12.6761 83.3339 12.9381 83.5581C13.2001 83.7824 13.3385 84.0837 13.353 84.4621C13.353 84.8124 13.2293 85.1137 12.9818 85.366C12.7343 85.6183 12.4213 85.7444 12.0428 85.7444C11.6643 85.7444 11.3513 85.6253 11.1038 85.387C10.8563 85.1488 10.7253 84.8475 10.7107 84.4831Z" fill="" stroke="#5F5B80" stroke-width="0.2"/>
<path d="M20.4199 84.4831C20.4199 84.1467 20.5437 83.8524 20.7912 83.6002C21.0386 83.3479 21.3516 83.2218 21.7302 83.2218C22.0796 83.2218 22.3853 83.3339 22.6473 83.5581C22.9094 83.7824 23.0477 84.0837 23.0622 84.4621C23.0622 84.8124 22.9385 85.1137 22.691 85.366C22.4435 85.6183 22.1305 85.7444 21.752 85.7444C21.3735 85.7444 21.0605 85.6253 20.813 85.387C20.5655 85.1488 20.4345 84.8475 20.4199 84.4831Z" fill="" stroke="#5F5B80" stroke-width="0.2"/>
<path d="M29.6499 80.7626C29.6499 80.7626 29.6499 80.6715 29.6499 80.4893C29.6499 80.3071 29.7518 80.1669 29.9556 80.0688H36.485V76.9156L36.5068 73.7623C36.6524 73.5801 36.7907 73.489 36.9217 73.489C37.111 73.489 37.2566 73.5941 37.3585 73.8043V80.0688H43.866C44.0844 80.1809 44.1936 80.3211 44.1936 80.4893C44.1936 80.6574 44.0844 80.7976 43.866 80.9097H37.3585V87.1742C37.242 87.3704 37.111 87.4685 36.9654 87.4685H36.9217H36.8781C36.7034 87.4685 36.5723 87.3704 36.485 87.1742V80.9097H29.9556C29.7518 80.8116 29.6499 80.6715 29.6499 80.4893V80.7626Z" fill="" stroke="#5F5B80" stroke-width="0.2"/>
<path d="M47.7987 76.726C47.4056 76.726 47.0926 76.5999 46.8597 76.3476C46.6267 76.0954 46.5103 75.7871 46.5103 75.4227C46.5103 74.4277 46.896 73.5658 47.6676 72.837C48.4392 72.1082 49.4001 71.7439 50.5502 71.7439C51.875 71.7439 52.9814 72.1363 53.8694 72.9211C54.7575 73.7059 55.2088 74.722 55.2233 75.9692C55.2233 76.5719 55.0778 77.1465 54.7866 77.693C54.4954 78.2396 54.146 78.7161 53.7384 79.1225C53.3308 79.5289 52.7485 80.0475 51.9914 80.6781C51.4673 81.1126 50.7394 81.7573 49.8077 82.6121L48.5193 83.7894L50.1789 83.8104C52.4646 83.8104 53.6802 83.7753 53.8258 83.7053C53.9277 83.6772 54.1024 83.0536 54.3499 81.8343V81.7713H55.2233V81.8343C55.2088 81.8764 55.1142 82.514 54.9395 83.7473C54.7648 84.9806 54.6556 85.6253 54.6119 85.6813V85.7444H46.5103V85.345V85.0927C46.5103 84.9946 46.5539 84.8895 46.6413 84.7774C46.7286 84.6653 46.947 84.42 47.2964 84.0416C47.7186 83.5932 48.0825 83.2007 48.3883 82.8644C48.5193 82.7243 48.7668 82.465 49.1307 82.0866C49.4947 81.7082 49.7422 81.4489 49.8732 81.3088C50.0042 81.1686 50.2153 80.9374 50.5065 80.6151C50.7976 80.2927 51.0015 80.0545 51.1179 79.9003C51.2344 79.7462 51.4018 79.5359 51.6202 79.2697C51.8386 79.0034 51.9914 78.7792 52.0788 78.597C52.1661 78.4148 52.2753 78.2116 52.4063 77.9873C52.5374 77.7631 52.632 77.5389 52.6902 77.3146C52.7485 77.0904 52.7994 76.8802 52.8431 76.684C52.8868 76.4878 52.9086 76.2565 52.9086 75.9903C52.9086 75.1074 52.6611 74.3436 52.1661 73.6989C51.6711 73.0542 50.9651 72.7319 50.0479 72.7319C49.5675 72.7319 49.1453 72.851 48.7813 73.0893C48.4174 73.3275 48.1626 73.5587 48.017 73.783C47.8714 74.0072 47.7987 74.1404 47.7987 74.1824C47.7987 74.1964 47.8351 74.2034 47.9078 74.2034C48.1699 74.2034 48.4392 74.3015 48.7158 74.4977C48.9924 74.6939 49.1307 75.0163 49.1307 75.4647C49.1307 75.8151 49.0143 76.1094 48.7813 76.3476C48.5484 76.5859 48.2208 76.712 47.7987 76.726Z" fill="" stroke="#5F5B80" stroke-width="0.2"/>
<path d="M58.9129 89.1493C58.942 89.1493 58.9857 89.1633 59.0439 89.1913C59.1021 89.2194 59.1822 89.2404 59.2841 89.2544C59.386 89.2684 59.4734 89.2754 59.5461 89.2754C59.7354 89.2754 59.9101 89.1843 60.0702 89.0021C60.2304 88.8199 60.3468 88.6167 60.4196 88.3925C60.5652 88.0141 60.8127 86.942 61.1621 85.1762C61.5115 83.4103 61.8463 81.7286 62.1666 80.1309C62.4869 78.5333 62.647 77.7274 62.647 77.7134V77.6504H61.6207C60.9365 77.6504 60.5725 77.6363 60.5288 77.6083C60.4706 77.5663 60.4415 77.4962 60.4415 77.3981L60.5943 76.8095C60.6235 76.7394 60.6817 76.7044 60.769 76.7044C60.8564 76.7044 61.1985 76.6974 61.7954 76.6834C62.4942 76.6834 62.8436 76.6764 62.8436 76.6623C62.8436 76.6343 62.9091 76.2839 63.0401 75.6112C63.1711 74.9386 63.2585 74.5321 63.3022 74.392C63.8408 72.0796 64.9036 70.9234 66.4904 70.9234C67.0291 70.9514 67.4731 71.1056 67.8225 71.3859C68.1719 71.6662 68.3466 72.0375 68.3466 72.5C68.3466 73.0045 68.1937 73.3689 67.888 73.5932C67.5823 73.8174 67.2766 73.9365 66.9708 73.9505C66.3303 73.9505 66.01 73.6562 66.01 73.0676C66.01 72.8013 66.0901 72.5701 66.2502 72.3739C66.4103 72.1777 66.585 72.0305 66.7743 71.9324L66.9708 71.8273C66.7379 71.7432 66.5195 71.7012 66.3157 71.7012C66.141 71.7012 65.9736 71.7713 65.8135 71.9114C65.6533 72.0516 65.5441 72.2478 65.4859 72.5C65.384 72.9064 65.2675 73.453 65.1365 74.1397C65.0055 74.8264 64.889 75.408 64.7871 75.8845C64.6852 76.361 64.6342 76.6133 64.6342 76.6413C64.6342 76.6693 65.0346 76.6834 65.8353 76.6834C66.4904 76.6834 66.8689 76.6904 66.9708 76.7044C67.0727 76.7184 67.1528 76.7604 67.211 76.8305C67.2256 76.8866 67.211 77.0057 67.1674 77.1879C67.1237 77.3701 67.0873 77.4822 67.0582 77.5242C67.0291 77.5943 66.9636 77.6293 66.8616 77.6293C66.7597 77.6293 66.3667 77.6363 65.6824 77.6504H64.4595L63.9573 80.215C63.2585 83.6906 62.7708 85.8629 62.4942 86.7318C62.1011 87.923 61.5916 88.8059 60.9656 89.3805C60.4269 89.829 59.8955 90.0532 59.3714 90.0532C58.9056 90.0532 58.4834 89.9201 58.1049 89.6538C57.7264 89.3875 57.5371 89.0091 57.5371 88.5186C57.5371 88.0001 57.69 87.6217 57.9957 87.3835C58.3014 87.1452 58.6071 87.0261 58.9129 87.0261C59.5534 87.0261 59.8737 87.3204 59.8737 87.909C59.8737 88.1753 59.7936 88.4065 59.6335 88.6027C59.4734 88.7989 59.2987 88.9461 59.1094 89.0442L58.9129 89.1493Z" fill="" stroke="#5F5B80" stroke-width="0.2"/>
<path d="M70.4006 80.4889C70.4006 79.5219 70.4734 78.6039 70.619 77.735C70.7646 76.8661 70.932 76.1163 71.1213 75.4857C71.3105 74.855 71.5799 74.2384 71.9292 73.6357C72.2786 73.0331 72.5553 72.5636 72.7591 72.2273C72.9629 71.8909 73.2686 71.5266 73.6762 71.1342C74.0839 70.7417 74.3241 70.5035 74.3969 70.4194C74.4697 70.3353 74.6516 70.1882 74.9428 69.978H75.2267H75.314C75.5178 69.978 75.6198 70.041 75.6198 70.1672C75.6198 70.2092 75.496 70.3563 75.2485 70.6086C75.001 70.8609 74.7026 71.2323 74.3532 71.7228C74.0038 72.2133 73.6471 72.8159 73.2832 73.5306C72.9192 74.2454 72.6135 75.2124 72.366 76.4316C72.1185 77.6509 71.9948 79.0033 71.9948 80.4889C71.9948 81.9744 72.1185 83.3198 72.366 84.525C72.6135 85.7303 72.9119 86.7043 73.2613 87.4471C73.6107 88.1898 73.9674 88.7925 74.3314 89.2549C74.6953 89.7174 75.001 90.0888 75.2485 90.3691C75.496 90.6494 75.6198 90.7965 75.6198 90.8106C75.6198 90.9367 75.5106 90.9998 75.2922 90.9998H75.2267H74.9428L74.3314 90.4952C72.9629 89.304 71.9656 87.8185 71.3396 86.0386C70.7136 84.2588 70.4006 82.4088 70.4006 80.4889Z" fill="" stroke="#5F5B80" stroke-width="0.2"/>
<path d="M77.9755 79.6695C78.0774 79.0809 78.4705 78.4012 79.1547 77.6304C79.8389 76.8596 80.6833 76.4672 81.6878 76.4532C82.1974 76.4532 82.6632 76.5793 83.0854 76.8316C83.5076 77.0839 83.8206 77.3992 84.0244 77.7776C84.6359 76.8947 85.3711 76.4532 86.23 76.4532C86.7686 76.4532 87.2345 76.6074 87.6276 76.9157C88.0207 77.224 88.2245 77.6374 88.239 78.156C88.239 78.5624 88.1371 78.8917 87.9333 79.144C87.7295 79.3963 87.533 79.5504 87.3437 79.6065C87.1544 79.6625 86.987 79.6906 86.8414 79.6906C86.5648 79.6906 86.3392 79.6135 86.1645 79.4593C85.9898 79.3052 85.9024 79.1019 85.9024 78.8497C85.9024 78.205 86.2664 77.7636 86.9943 77.5253C86.8342 77.3431 86.543 77.252 86.1208 77.252C85.9315 77.252 85.7932 77.266 85.7059 77.2941C85.1527 77.5183 84.7451 77.9808 84.483 78.6815C83.6095 81.7787 83.1728 83.5866 83.1728 84.1051C83.1728 84.4975 83.2892 84.7778 83.5222 84.946C83.7551 85.1142 84.0099 85.1983 84.2865 85.1983C84.8251 85.1983 85.3565 84.967 85.8806 84.5045C86.4047 84.0421 86.7614 83.4745 86.9506 82.8018C86.9943 82.6616 87.038 82.5846 87.0816 82.5705C87.1253 82.5565 87.2418 82.5425 87.431 82.5285H87.5184C87.7368 82.5285 87.846 82.5846 87.846 82.6967C87.846 82.7107 87.8314 82.7878 87.8023 82.9279C87.5693 83.7267 87.118 84.4345 86.4484 85.0511C85.7787 85.6678 84.9998 85.9761 84.1118 85.9761C83.0927 85.9761 82.3211 85.5346 81.797 84.6517C81.2001 85.5206 80.5159 85.9551 79.7443 85.9551H79.6133C78.8999 85.9551 78.3904 85.7729 78.0847 85.4085C77.7789 85.0441 77.6188 84.6587 77.6042 84.2523C77.6042 83.8038 77.7426 83.4394 78.0192 83.1592C78.2958 82.8789 78.6233 82.7387 79.0018 82.7387C79.6278 82.7387 79.9408 83.033 79.9408 83.6216C79.9408 83.9019 79.8535 84.1472 79.6788 84.3574C79.5041 84.5676 79.3367 84.7078 79.1765 84.7778C79.0164 84.8479 78.9218 84.8829 78.8927 84.8829L78.8271 84.904C78.8271 84.918 78.8708 84.946 78.9582 84.988C79.0455 85.0301 79.162 85.0791 79.3076 85.1352C79.4531 85.1913 79.5914 85.2123 79.7225 85.1983C80.2466 85.1983 80.6979 84.8829 81.0764 84.2523C81.2074 84.0281 81.3748 83.5516 81.5786 82.8228C81.7825 82.094 81.9863 81.3373 82.1901 80.5524C82.3939 79.7676 82.5104 79.3052 82.5395 79.165C82.6123 78.7866 82.6487 78.5133 82.6487 78.3452C82.6487 77.9528 82.5395 77.6725 82.3211 77.5043C82.1027 77.3361 81.8552 77.252 81.5786 77.252C80.9963 77.252 80.4504 77.4763 79.9408 77.9247C79.4313 78.3732 79.0746 78.9478 78.8708 79.6485C78.8417 79.7746 78.8053 79.8447 78.7616 79.8587C78.718 79.8727 78.6015 79.8868 78.4122 79.9008H78.1065C78.0192 79.8167 77.9755 79.7396 77.9755 79.6695Z" fill="" stroke="#5F5B80" stroke-width="0.2"/>
<path d="M89.6553 84.6328C89.6656 84.5733 89.681 84.4941 89.7016 84.395C89.7222 84.2959 89.7839 84.1076 89.8869 83.8302C89.9898 83.5528 90.0927 83.3199 90.1956 83.1317C90.2986 82.9434 90.4684 82.7601 90.7051 82.5818C90.9419 82.4034 91.1786 82.3192 91.4153 82.3291C91.7859 82.3291 92.0946 82.4183 92.3417 82.5966C92.5887 82.775 92.7431 82.9434 92.8048 83.1019C92.8666 83.2605 92.8975 83.3645 92.8975 83.4141C92.8975 83.4339 92.9026 83.4438 92.9129 83.4438L93.0827 83.2803C93.7106 82.6462 94.4259 82.3291 95.2287 82.3291C95.7846 82.3291 96.2323 82.4629 96.5719 82.7304C96.9116 82.9979 97.0866 83.3893 97.0969 83.9045C97.1072 84.4197 96.9116 85.1975 96.5102 86.2379C96.1088 87.2783 95.9132 87.9075 95.9235 88.1254C95.9235 88.3831 96.011 88.5119 96.186 88.5119C96.2477 88.5119 96.294 88.5069 96.3249 88.497C96.6234 88.4475 96.891 88.2592 97.1277 87.9322C97.3645 87.6053 97.5446 87.2089 97.6681 86.7432C97.6887 86.664 97.7916 86.6243 97.9769 86.6243C98.1827 86.6243 98.2857 86.664 98.2857 86.7432C98.2857 86.7531 98.2651 86.8275 98.2239 86.9662C98.1416 87.2535 98.0284 87.5359 97.8843 87.8133C97.7402 88.0908 97.5034 88.3682 97.1741 88.6456C96.8447 88.9231 96.4896 89.0568 96.1088 89.0469C95.625 89.0469 95.2751 88.9131 95.0589 88.6456C94.8428 88.3781 94.7347 88.1007 94.7347 87.8133C94.7347 87.6251 94.92 87.0306 95.2905 86.0298C95.661 85.0291 95.8515 84.2761 95.8617 83.7707C95.8617 83.1862 95.6353 82.8939 95.1824 82.8939H95.1052C94.2201 82.8939 93.4739 83.3942 92.8666 84.395L92.7585 84.5733L92.249 86.5649C91.9094 87.8629 91.7138 88.5614 91.6623 88.6605C91.5285 88.928 91.3072 89.0618 90.9985 89.0618C90.8647 89.0618 90.7566 89.032 90.6742 88.9726C90.5919 88.9131 90.5353 88.8537 90.5044 88.7942C90.4735 88.7348 90.4632 88.6853 90.4735 88.6456C90.4735 88.5168 90.6691 87.7093 91.0602 86.223C91.4513 84.7368 91.6572 83.9293 91.6778 83.8005C91.6881 83.7509 91.6932 83.637 91.6932 83.4586C91.6932 83.0722 91.5697 82.879 91.3227 82.879C90.9316 82.879 90.6073 83.3744 90.35 84.3652C90.2883 84.5634 90.2574 84.6674 90.2574 84.6774C90.2368 84.7368 90.139 84.7665 89.9641 84.7665H89.7479C89.6862 84.7071 89.6553 84.6625 89.6553 84.6328Z" fill="" stroke="#5F5B80" stroke-width="0.2"/>
<path d="M99.8911 85.3757C99.8911 85.3757 99.8911 85.3113 99.8911 85.1825C99.8911 85.0537 99.9632 84.9546 100.107 84.8852H109.077C109.232 84.9645 109.309 85.0636 109.309 85.1825C109.309 85.3014 109.232 85.4005 109.077 85.4797H100.107C99.9632 85.4104 99.8911 85.3113 99.8911 85.1825V85.3757Z" fill="" stroke="#5F5B80" stroke-width="0.2"/>
<path d="M112.289 82.522C112.011 82.522 111.789 82.4328 111.625 82.2545C111.46 82.0761 111.378 81.8581 111.378 81.6005C111.378 80.897 111.65 80.2877 112.196 79.7724C112.741 79.2572 113.421 78.9996 114.234 78.9996C115.171 78.9996 115.953 79.277 116.581 79.8319C117.208 80.3867 117.528 81.1051 117.538 81.9869C117.538 82.413 117.435 82.8192 117.229 83.2056C117.023 83.5921 116.776 83.9289 116.488 84.2163C116.2 84.5036 115.788 84.8702 115.253 85.3161C114.882 85.6233 114.368 86.079 113.709 86.6834L112.798 87.5157L113.971 87.5306C115.587 87.5306 116.447 87.5058 116.55 87.4563C116.622 87.4365 116.745 86.9956 116.92 86.1335V86.089H117.538V86.1335C117.528 86.1633 117.461 86.6141 117.337 87.486C117.214 88.3579 117.136 88.8137 117.106 88.8534V88.8979H111.378V88.6156V88.4372C111.378 88.3679 111.409 88.2935 111.47 88.2143C111.532 88.135 111.686 87.9616 111.933 87.6941C112.232 87.377 112.489 87.0996 112.705 86.8618C112.798 86.7627 112.973 86.5794 113.23 86.3119C113.488 86.0444 113.663 85.8611 113.755 85.762C113.848 85.6629 113.997 85.4994 114.203 85.2715C114.409 85.0436 114.553 84.8752 114.635 84.7662C114.718 84.6572 114.836 84.5086 114.99 84.3203C115.145 84.1321 115.253 83.9735 115.315 83.8447C115.376 83.7159 115.454 83.5723 115.546 83.4137C115.639 83.2552 115.706 83.0967 115.747 82.9381C115.788 82.7796 115.824 82.631 115.855 82.4922C115.886 82.3535 115.901 82.19 115.901 82.0018C115.901 81.3776 115.726 80.8376 115.376 80.3818C115.026 79.926 114.527 79.6981 113.879 79.6981C113.539 79.6981 113.241 79.7823 112.983 79.9508C112.726 80.1192 112.546 80.2827 112.443 80.4412C112.34 80.5998 112.289 80.6939 112.289 80.7236C112.289 80.7335 112.314 80.7385 112.366 80.7385C112.551 80.7385 112.741 80.8078 112.937 80.9466C113.133 81.0853 113.23 81.3132 113.23 81.6302C113.23 81.8779 113.148 82.086 112.983 82.2545C112.819 82.4229 112.587 82.5121 112.289 82.522Z" fill="" stroke="#5F5B80" stroke-width="0.2"/>
<path d="M120.732 69.999L120.819 69.978C120.892 69.978 120.965 69.978 121.037 69.978H121.3L121.911 70.4825C123.279 71.6737 124.277 73.1593 124.903 74.9391C125.529 76.7189 125.842 78.5689 125.842 80.4889C125.842 81.4418 125.769 82.3598 125.623 83.2427C125.478 84.1256 125.31 84.8754 125.121 85.492C124.932 86.1087 124.662 86.7253 124.313 87.342C123.964 87.9586 123.687 88.4281 123.483 88.7504C123.279 89.0728 122.981 89.4301 122.588 89.8225C122.195 90.2149 121.962 90.4462 121.889 90.5163C121.816 90.5863 121.649 90.7195 121.387 90.9157C121.343 90.9577 121.314 90.9857 121.3 90.9998H121.037C120.921 90.9998 120.841 90.9998 120.797 90.9998C120.754 90.9998 120.717 90.9787 120.688 90.9367C120.659 90.8946 120.637 90.8316 120.623 90.7475C120.637 90.7335 120.717 90.6424 120.863 90.4742C123.119 88.2179 124.248 84.8894 124.248 80.4889C124.248 76.0883 123.119 72.7598 120.863 70.5035C120.717 70.3353 120.637 70.2442 120.623 70.2302C120.623 70.1181 120.659 70.041 120.732 69.999Z" fill="" stroke="#5F5B80" stroke-width="0.2"/>
<path d="M133.993 80.7626C133.993 80.7626 133.993 80.6715 133.993 80.4893C133.993 80.3071 134.095 80.1669 134.299 80.0688H140.828V76.9156L140.85 73.7623C140.995 73.5801 141.134 73.489 141.265 73.489C141.454 73.489 141.6 73.5941 141.701 73.8043V80.0688H148.209C148.427 80.1809 148.537 80.3211 148.537 80.4893C148.537 80.6574 148.427 80.7976 148.209 80.9097H141.701V87.1742C141.585 87.3704 141.454 87.4685 141.308 87.4685H141.265H141.221C141.046 87.4685 140.915 87.3704 140.828 87.1742V80.9097H134.299C134.095 80.8116 133.993 80.6715 133.993 80.4893V80.7626Z" fill="" stroke="#5F5B80" stroke-width="0.2"/>
<path d="M164.703 85.7444C164.441 85.7023 163.502 85.6813 161.886 85.6813C160.197 85.6813 159.222 85.7023 158.96 85.7444H158.763V84.7774H159.44C159.732 84.7774 159.928 84.7774 160.03 84.7774C160.132 84.7774 160.256 84.7634 160.401 84.7353C160.547 84.7073 160.649 84.6723 160.707 84.6302C160.765 84.5882 160.816 84.5321 160.86 84.4621C160.874 84.434 160.882 84.0556 160.882 83.3269V82.2758H155.226V81.3088L158.523 76.4527C160.751 73.2014 161.879 71.5687 161.908 71.5547C161.937 71.5266 162.09 71.5126 162.367 71.5126H162.76L162.891 71.6388V81.3088H164.9V82.2758H162.891V83.3479C162.891 83.9225 162.891 84.2588 162.891 84.3569C162.891 84.455 162.934 84.5391 163.022 84.6092C163.138 84.7073 163.553 84.7634 164.266 84.7774H164.9V85.7444H164.703ZM161.013 81.3088V74.2875L156.23 81.2878L158.611 81.3088H161.013Z" fill="" stroke="#5F5B80" stroke-width="0.2"/>
<path d="M168.107 89.1493C168.136 89.1493 168.18 89.1633 168.238 89.1913C168.296 89.2194 168.376 89.2404 168.478 89.2544C168.58 89.2684 168.667 89.2754 168.74 89.2754C168.929 89.2754 169.104 89.1843 169.264 89.0021C169.424 88.8199 169.541 88.6167 169.614 88.3925C169.759 88.0141 170.007 86.942 170.356 85.1762C170.706 83.4103 171.04 81.7286 171.361 80.1309C171.681 78.5333 171.841 77.7274 171.841 77.7134V77.6504H170.815C170.131 77.6504 169.767 77.6363 169.723 77.6083C169.665 77.5663 169.636 77.4962 169.636 77.3981L169.788 76.8095C169.818 76.7394 169.876 76.7044 169.963 76.7044C170.05 76.7044 170.393 76.6974 170.989 76.6834C171.688 76.6834 172.038 76.6764 172.038 76.6623C172.038 76.6343 172.103 76.2839 172.234 75.6112C172.365 74.9386 172.453 74.5321 172.496 74.392C173.035 72.0796 174.098 70.9234 175.685 70.9234C176.223 70.9514 176.667 71.1056 177.017 71.3859C177.366 71.6662 177.541 72.0375 177.541 72.5C177.541 73.0045 177.388 73.3689 177.082 73.5932C176.776 73.8174 176.471 73.9365 176.165 73.9505C175.524 73.9505 175.204 73.6562 175.204 73.0676C175.204 72.8013 175.284 72.5701 175.444 72.3739C175.604 72.1777 175.779 72.0305 175.968 71.9324L176.165 71.8273C175.932 71.7432 175.714 71.7012 175.51 71.7012C175.335 71.7012 175.168 71.7713 175.008 71.9114C174.847 72.0516 174.738 72.2478 174.68 72.5C174.578 72.9064 174.462 73.453 174.331 74.1397C174.2 74.8264 174.083 75.408 173.981 75.8845C173.879 76.361 173.828 76.6133 173.828 76.6413C173.828 76.6693 174.229 76.6834 175.029 76.6834C175.685 76.6834 176.063 76.6904 176.165 76.7044C176.267 76.7184 176.347 76.7604 176.405 76.8305C176.42 76.8866 176.405 77.0057 176.361 77.1879C176.318 77.3701 176.281 77.4822 176.252 77.5242C176.223 77.5943 176.158 77.6293 176.056 77.6293C175.954 77.6293 175.561 77.6363 174.877 77.6504H173.654L173.151 80.215C172.453 83.6906 171.965 85.8629 171.688 86.7318C171.295 87.923 170.786 88.8059 170.16 89.3805C169.621 89.829 169.09 90.0532 168.566 90.0532C168.1 90.0532 167.677 89.9201 167.299 89.6538C166.92 89.3875 166.731 89.0091 166.731 88.5186C166.731 88.0001 166.884 87.6217 167.19 87.3835C167.496 87.1452 167.801 87.0261 168.107 87.0261C168.748 87.0261 169.068 87.3204 169.068 87.909C169.068 88.1753 168.988 88.4065 168.828 88.6027C168.667 88.7989 168.493 88.9461 168.303 89.0442L168.107 89.1493Z" fill="" stroke="#5F5B80" stroke-width="0.2"/>
<path d="M179.595 80.4889C179.595 79.5219 179.668 78.6039 179.814 77.735C179.959 76.8661 180.127 76.1163 180.316 75.4857C180.505 74.855 180.774 74.2384 181.124 73.6357C181.473 73.0331 181.75 72.5636 181.954 72.2273C182.157 71.8909 182.463 71.5266 182.871 71.1342C183.278 70.7417 183.519 70.5035 183.591 70.4194C183.664 70.3353 183.846 70.1882 184.137 69.978H184.421H184.509C184.712 69.978 184.814 70.041 184.814 70.1672C184.814 70.2092 184.691 70.3563 184.443 70.6086C184.196 70.8609 183.897 71.2323 183.548 71.7228C183.198 72.2133 182.842 72.8159 182.478 73.5306C182.114 74.2454 181.808 75.2124 181.561 76.4316C181.313 77.6509 181.189 79.0033 181.189 80.4889C181.189 81.9744 181.313 83.3198 181.561 84.525C181.808 85.7303 182.107 86.7043 182.456 87.4471C182.805 88.1898 183.162 88.7925 183.526 89.2549C183.89 89.7174 184.196 90.0888 184.443 90.3691C184.691 90.6494 184.814 90.7965 184.814 90.8106C184.814 90.9367 184.705 90.9998 184.487 90.9998H184.421H184.137L183.526 90.4952C182.157 89.304 181.16 87.8185 180.534 86.0386C179.908 84.2588 179.595 82.4088 179.595 80.4889Z" fill="" stroke="#5F5B80" stroke-width="0.2"/>
<path d="M187.171 79.6695C187.273 79.0809 187.666 78.4012 188.35 77.6304C189.035 76.8596 189.879 76.4672 190.884 76.4532C191.393 76.4532 191.859 76.5793 192.281 76.8316C192.703 77.0839 193.016 77.3992 193.22 77.7776C193.832 76.8947 194.567 76.4532 195.426 76.4532C195.964 76.4532 196.43 76.6074 196.823 76.9157C197.216 77.224 197.42 77.6374 197.435 78.156C197.435 78.5624 197.333 78.8917 197.129 79.144C196.925 79.3963 196.729 79.5504 196.539 79.6065C196.35 79.6625 196.183 79.6906 196.037 79.6906C195.761 79.6906 195.535 79.6135 195.36 79.4593C195.186 79.3052 195.098 79.1019 195.098 78.8497C195.098 78.205 195.462 77.7636 196.19 77.5253C196.03 77.3431 195.739 77.252 195.317 77.252C195.127 77.252 194.989 77.266 194.902 77.2941C194.348 77.5183 193.941 77.9808 193.679 78.6815C192.805 81.7787 192.369 83.5866 192.369 84.1051C192.369 84.4975 192.485 84.7778 192.718 84.946C192.951 85.1142 193.206 85.1983 193.482 85.1983C194.021 85.1983 194.552 84.967 195.076 84.5045C195.6 84.0421 195.957 83.4745 196.146 82.8018C196.19 82.6616 196.234 82.5846 196.277 82.5705C196.321 82.5565 196.438 82.5425 196.627 82.5285H196.714C196.933 82.5285 197.042 82.5846 197.042 82.6967C197.042 82.7107 197.027 82.7878 196.998 82.9279C196.765 83.7267 196.314 84.4345 195.644 85.0511C194.974 85.6678 194.196 85.9761 193.308 85.9761C192.288 85.9761 191.517 85.5346 190.993 84.6517C190.396 85.5206 189.712 85.9551 188.94 85.9551H188.809C188.096 85.9551 187.586 85.7729 187.28 85.4085C186.975 85.0441 186.815 84.6587 186.8 84.2523C186.8 83.8038 186.938 83.4394 187.215 83.1592C187.492 82.8789 187.819 82.7387 188.198 82.7387C188.824 82.7387 189.137 83.033 189.137 83.6216C189.137 83.9019 189.049 84.1472 188.875 84.3574C188.7 84.5676 188.532 84.7078 188.372 84.7778C188.212 84.8479 188.118 84.8829 188.088 84.8829L188.023 84.904C188.023 84.918 188.067 84.946 188.154 84.988C188.241 85.0301 188.358 85.0791 188.503 85.1352C188.649 85.1913 188.787 85.2123 188.918 85.1983C189.442 85.1983 189.894 84.8829 190.272 84.2523C190.403 84.0281 190.571 83.5516 190.774 82.8228C190.978 82.094 191.182 81.3373 191.386 80.5524C191.59 79.7676 191.706 79.3052 191.735 79.165C191.808 78.7866 191.844 78.5133 191.844 78.3452C191.844 77.9528 191.735 77.6725 191.517 77.5043C191.299 77.3361 191.051 77.252 190.774 77.252C190.192 77.252 189.646 77.4763 189.137 77.9247C188.627 78.3732 188.27 78.9478 188.067 79.6485C188.037 79.7746 188.001 79.8447 187.957 79.8587C187.914 79.8727 187.797 79.8868 187.608 79.9008H187.302C187.215 79.8167 187.171 79.7396 187.171 79.6695Z" fill="" stroke="#5F5B80" stroke-width="0.2"/>
<path d="M198.852 84.6328C198.862 84.5733 198.878 84.4941 198.898 84.395C198.919 84.2959 198.981 84.1076 199.084 83.8302C199.187 83.5528 199.289 83.3199 199.392 83.1317C199.495 82.9434 199.665 82.7601 199.902 82.5818C200.139 82.4034 200.375 82.3192 200.612 82.3291C200.983 82.3291 201.291 82.4183 201.538 82.5966C201.785 82.775 201.94 82.9434 202.002 83.1019C202.063 83.2605 202.094 83.3645 202.094 83.4141C202.094 83.4339 202.099 83.4438 202.11 83.4438L202.28 83.2803C202.907 82.6462 203.623 82.3291 204.426 82.3291C204.981 82.3291 205.429 82.4629 205.769 82.7304C206.108 82.9979 206.283 83.3893 206.294 83.9045C206.304 84.4197 206.108 85.1975 205.707 86.2379C205.306 87.2783 205.11 87.9075 205.12 88.1254C205.12 88.3831 205.208 88.5119 205.383 88.5119C205.445 88.5119 205.491 88.5069 205.522 88.497C205.82 88.4475 206.088 88.2592 206.325 87.9322C206.561 87.6053 206.741 87.2089 206.865 86.7432C206.885 86.664 206.988 86.6243 207.174 86.6243C207.38 86.6243 207.482 86.664 207.482 86.7432C207.482 86.7531 207.462 86.8275 207.421 86.9662C207.338 87.2535 207.225 87.5359 207.081 87.8133C206.937 88.0908 206.7 88.3682 206.371 88.6456C206.041 88.9231 205.686 89.0568 205.306 89.0469C204.822 89.0469 204.472 88.9131 204.256 88.6456C204.04 88.3781 203.931 88.1007 203.931 87.8133C203.931 87.6251 204.117 87.0306 204.487 86.0298C204.858 85.0291 205.048 84.2761 205.059 83.7707C205.059 83.1862 204.832 82.8939 204.379 82.8939H204.302C203.417 82.8939 202.671 83.3942 202.063 84.395L201.955 84.5733L201.446 86.5649C201.106 87.8629 200.911 88.5614 200.859 88.6605C200.725 88.928 200.504 89.0618 200.195 89.0618C200.061 89.0618 199.953 89.032 199.871 88.9726C199.789 88.9131 199.732 88.8537 199.701 88.7942C199.67 88.7348 199.66 88.6853 199.67 88.6456C199.67 88.5168 199.866 87.7093 200.257 86.223C200.648 84.7368 200.854 83.9293 200.875 83.8005C200.885 83.7509 200.89 83.637 200.89 83.4586C200.89 83.0722 200.766 82.879 200.519 82.879C200.128 82.879 199.804 83.3744 199.547 84.3652C199.485 84.5634 199.454 84.6674 199.454 84.6774C199.434 84.7368 199.336 84.7665 199.161 84.7665H198.945C198.883 84.7071 198.852 84.6625 198.852 84.6328Z" fill="" stroke="#5F5B80" stroke-width="0.2"/>
<path d="M209.087 85.3757C209.087 85.3757 209.087 85.3113 209.087 85.1825C209.087 85.0537 209.159 84.9546 209.303 84.8852H218.273C218.428 84.9645 218.505 85.0636 218.505 85.1825C218.505 85.3014 218.428 85.4005 218.273 85.4797H209.303C209.159 85.4104 209.087 85.3113 209.087 85.1825V85.3757Z" fill="" stroke="#5F5B80" stroke-width="0.2"/>
<path d="M223.091 80.3075L222.89 80.3818C222.746 80.4313 222.54 80.4809 222.273 80.5304C222.005 80.58 221.706 80.6146 221.377 80.6344H221.084V79.9508H221.377C221.861 79.931 222.309 79.8566 222.72 79.7278C223.132 79.599 223.42 79.4801 223.585 79.3711C223.75 79.2622 223.894 79.1532 224.017 79.0442C224.038 79.0144 224.099 78.9996 224.202 78.9996C224.295 78.9996 224.383 79.0293 224.465 79.0888V83.5326L224.48 87.9913C224.552 88.0607 224.614 88.1053 224.666 88.1251C224.717 88.1449 224.841 88.1647 225.036 88.1846C225.232 88.2044 225.551 88.2143 225.993 88.2143H226.395V88.8979H226.225C226.009 88.8682 225.191 88.8534 223.77 88.8534C222.37 88.8534 221.562 88.8682 221.346 88.8979H221.161V88.2143H221.562C221.789 88.2143 221.984 88.2143 222.149 88.2143C222.314 88.2143 222.442 88.2093 222.535 88.1994C222.628 88.1895 222.71 88.1746 222.782 88.1548C222.854 88.135 222.895 88.1251 222.906 88.1251C222.916 88.1251 222.947 88.1003 222.998 88.0508C223.05 88.0013 223.081 87.9814 223.091 87.9913V80.3075Z" fill="" stroke="#5F5B80" stroke-width="0.2"/>
<path d="M234.696 80.7626C234.696 80.7626 234.696 80.6715 234.696 80.4893C234.696 80.3071 234.797 80.1669 235.001 80.0688H241.531V76.9156L241.552 73.7623C241.698 73.5801 241.836 73.489 241.967 73.489C242.157 73.489 242.302 73.5941 242.404 73.8043V80.0688H248.912C249.13 80.1809 249.239 80.3211 249.239 80.4893C249.239 80.6574 249.13 80.7976 248.912 80.9097H242.404V87.1742C242.288 87.3704 242.157 87.4685 242.011 87.4685H241.967H241.924C241.749 87.4685 241.618 87.3704 241.531 87.1742V80.9097H235.001C234.797 80.8116 234.696 80.6715 234.696 80.4893V80.7626Z" fill="" stroke="#5F5B80" stroke-width="0.2"/>
<path d="M257.889 89.1493C257.919 89.1493 257.962 89.1633 258.02 89.1913C258.079 89.2194 258.159 89.2404 258.261 89.2544C258.363 89.2684 258.45 89.2754 258.523 89.2754C258.712 89.2754 258.887 89.1843 259.047 89.0021C259.207 88.8199 259.323 88.6167 259.396 88.3925C259.542 88.0141 259.789 86.942 260.139 85.1762C260.488 83.4103 260.823 81.7286 261.143 80.1309C261.463 78.5333 261.624 77.7274 261.624 77.7134V77.6504H260.597C259.913 77.6504 259.549 77.6363 259.505 77.6083C259.447 77.5663 259.418 77.4962 259.418 77.3981L259.571 76.8095C259.6 76.7394 259.658 76.7044 259.746 76.7044C259.833 76.7044 260.175 76.6974 260.772 76.6834C261.471 76.6834 261.82 76.6764 261.82 76.6623C261.82 76.6343 261.886 76.2839 262.017 75.6112C262.148 74.9386 262.235 74.5321 262.279 74.392C262.817 72.0796 263.88 70.9234 265.467 70.9234C266.006 70.9514 266.45 71.1056 266.799 71.3859C267.148 71.6662 267.323 72.0375 267.323 72.5C267.323 73.0045 267.17 73.3689 266.865 73.5932C266.559 73.8174 266.253 73.9365 265.947 73.9505C265.307 73.9505 264.987 73.6562 264.987 73.0676C264.987 72.8013 265.067 72.5701 265.227 72.3739C265.387 72.1777 265.562 72.0305 265.751 71.9324L265.947 71.8273C265.714 71.7432 265.496 71.7012 265.292 71.7012C265.118 71.7012 264.95 71.7713 264.79 71.9114C264.63 72.0516 264.521 72.2478 264.462 72.5C264.361 72.9064 264.244 73.453 264.113 74.1397C263.982 74.8264 263.866 75.408 263.764 75.8845C263.662 76.361 263.611 76.6133 263.611 76.6413C263.611 76.6693 264.011 76.6834 264.812 76.6834C265.467 76.6834 265.845 76.6904 265.947 76.7044C266.049 76.7184 266.129 76.7604 266.188 76.8305C266.202 76.8866 266.188 77.0057 266.144 77.1879C266.1 77.3701 266.064 77.4822 266.035 77.5242C266.006 77.5943 265.94 77.6293 265.838 77.6293C265.736 77.6293 265.343 77.6363 264.659 77.6504H263.436L262.934 80.215C262.235 83.6906 261.747 85.8629 261.471 86.7318C261.078 87.923 260.568 88.8059 259.942 89.3805C259.403 89.829 258.872 90.0532 258.348 90.0532C257.882 90.0532 257.46 89.9201 257.081 89.6538C256.703 89.3875 256.514 89.0091 256.514 88.5186C256.514 88.0001 256.667 87.6217 256.972 87.3835C257.278 87.1452 257.584 87.0261 257.889 87.0261C258.53 87.0261 258.85 87.3204 258.85 87.909C258.85 88.1753 258.77 88.4065 258.61 88.6027C258.45 88.7989 258.275 88.9461 258.086 89.0442L257.889 89.1493Z" fill="" stroke="#5F5B80" stroke-width="0.2"/>
<path d="M269.378 80.4889C269.378 79.5219 269.45 78.6039 269.596 77.735C269.742 76.8661 269.909 76.1163 270.098 75.4857C270.288 74.855 270.557 74.2384 270.906 73.6357C271.256 73.0331 271.532 72.5636 271.736 72.2273C271.94 71.8909 272.246 71.5266 272.653 71.1342C273.061 70.7417 273.301 70.5035 273.374 70.4194C273.447 70.3353 273.629 70.1882 273.92 69.978H274.204H274.291C274.495 69.978 274.597 70.041 274.597 70.1672C274.597 70.2092 274.473 70.3563 274.226 70.6086C273.978 70.8609 273.68 71.2323 273.33 71.7228C272.981 72.2133 272.624 72.8159 272.26 73.5306C271.896 74.2454 271.591 75.2124 271.343 76.4316C271.096 77.6509 270.972 79.0033 270.972 80.4889C270.972 81.9744 271.096 83.3198 271.343 84.525C271.591 85.7303 271.889 86.7043 272.238 87.4471C272.588 88.1898 272.944 88.7925 273.308 89.2549C273.672 89.7174 273.978 90.0888 274.226 90.3691C274.473 90.6494 274.597 90.7965 274.597 90.8106C274.597 90.9367 274.488 90.9998 274.269 90.9998H274.204H273.92L273.308 90.4952C271.94 89.304 270.943 87.8185 270.317 86.0386C269.691 84.2588 269.378 82.4088 269.378 80.4889Z" fill="" stroke="#5F5B80" stroke-width="0.2"/>
<path d="M276.955 79.6693C277.057 79.0807 277.45 78.401 278.134 77.6302C278.818 76.8594 279.663 76.467 280.667 76.453C281.177 76.453 281.642 76.5791 282.065 76.8313C282.487 77.0836 282.8 77.3989 283.004 77.7773C283.615 76.8944 284.35 76.453 285.209 76.453C285.748 76.453 286.214 76.6071 286.607 76.9154C287 77.2238 287.204 77.6372 287.218 78.1557C287.218 78.5621 287.116 78.8915 286.913 79.1437C286.709 79.396 286.512 79.5502 286.323 79.6062C286.134 79.6623 285.966 79.6903 285.821 79.6903C285.544 79.6903 285.318 79.6132 285.144 79.4591C284.969 79.3049 284.882 79.1017 284.882 78.8494C284.882 78.2048 285.246 77.7633 285.974 77.5251C285.813 77.3429 285.522 77.2518 285.1 77.2518C284.911 77.2518 284.772 77.2658 284.685 77.2938C284.132 77.5181 283.724 77.9805 283.462 78.6813C282.589 81.7785 282.152 83.5864 282.152 84.1049C282.152 84.4973 282.268 84.7776 282.501 84.9458C282.734 85.1139 282.989 85.198 283.266 85.198C283.804 85.198 284.336 84.9668 284.86 84.5043C285.384 84.0418 285.741 83.4742 285.93 82.8015C285.974 82.6614 286.017 82.5843 286.061 82.5703C286.105 82.5563 286.221 82.5423 286.41 82.5283H286.498C286.716 82.5283 286.825 82.5843 286.825 82.6964C286.825 82.7104 286.811 82.7875 286.782 82.9277C286.549 83.7265 286.097 84.4342 285.428 85.0509C284.758 85.6675 283.979 85.9758 283.091 85.9758C282.072 85.9758 281.3 85.5344 280.776 84.6515C280.179 85.5204 279.495 85.9548 278.724 85.9548H278.593C277.879 85.9548 277.37 85.7726 277.064 85.4082C276.758 85.0439 276.598 84.6585 276.583 84.252C276.583 83.8036 276.722 83.4392 276.998 83.1589C277.275 82.8786 277.603 82.7385 277.981 82.7385C278.607 82.7385 278.92 83.0328 278.92 83.6214C278.92 83.9017 278.833 84.1469 278.658 84.3572C278.483 84.5674 278.316 84.7075 278.156 84.7776C277.996 84.8477 277.901 84.8827 277.872 84.8827L277.806 84.9037C277.806 84.9177 277.85 84.9458 277.937 84.9878C278.025 85.0298 278.141 85.0789 278.287 85.135C278.432 85.191 278.571 85.212 278.702 85.198C279.226 85.198 279.677 84.8827 280.056 84.252C280.187 84.0278 280.354 83.5513 280.558 82.8226C280.762 82.0938 280.966 81.337 281.169 80.5522C281.373 79.7674 281.49 79.3049 281.519 79.1648C281.592 78.7864 281.628 78.5131 281.628 78.3449C281.628 77.9525 281.519 77.6722 281.3 77.504C281.082 77.3359 280.834 77.2518 280.558 77.2518C279.976 77.2518 279.43 77.476 278.92 77.9245C278.411 78.3729 278.054 78.9475 277.85 79.6483C277.821 79.7744 277.785 79.8445 277.741 79.8585C277.697 79.8725 277.581 79.8865 277.391 79.9005H277.086C276.998 79.8164 276.955 79.7394 276.955 79.6693Z" fill="" stroke="#5F5B80" stroke-width="0.2"/>
<path d="M288.634 84.6325C288.644 84.5731 288.66 84.4938 288.68 84.3947C288.701 84.2956 288.763 84.1074 288.866 83.83C288.969 83.5525 289.071 83.3197 289.174 83.1314C289.277 82.9432 289.447 82.7599 289.684 82.5815C289.921 82.4032 290.157 82.3189 290.394 82.3289C290.765 82.3289 291.073 82.418 291.32 82.5964C291.567 82.7747 291.722 82.9432 291.784 83.1017C291.845 83.2602 291.876 83.3643 291.876 83.4138C291.876 83.4336 291.881 83.4435 291.892 83.4435L292.061 83.28C292.689 82.6459 293.405 82.3289 294.208 82.3289C294.763 82.3289 295.211 82.4626 295.551 82.7301C295.89 82.9977 296.065 83.389 296.076 83.9043C296.086 84.4195 295.89 85.1973 295.489 86.2377C295.088 87.278 294.892 87.9072 294.902 88.1252C294.902 88.3828 294.99 88.5116 295.165 88.5116C295.226 88.5116 295.273 88.5067 295.304 88.4968C295.602 88.4472 295.87 88.259 296.107 87.932C296.343 87.605 296.523 87.2087 296.647 86.743C296.667 86.6637 296.77 86.6241 296.956 86.6241C297.162 86.6241 297.264 86.6637 297.264 86.743C297.264 86.7529 297.244 86.8272 297.203 86.9659C297.12 87.2533 297.007 87.5356 296.863 87.8131C296.719 88.0905 296.482 88.3679 296.153 88.6454C295.823 88.9228 295.468 89.0566 295.088 89.0467C294.604 89.0467 294.254 88.9129 294.038 88.6454C293.822 88.3779 293.713 88.1004 293.713 87.8131C293.713 87.6248 293.899 87.0303 294.269 86.0296C294.64 85.0289 294.83 84.2758 294.841 83.7705C294.841 83.1859 294.614 82.8936 294.161 82.8936H294.084C293.199 82.8936 292.453 83.394 291.845 84.3947L291.737 84.5731L291.228 86.5646C290.888 87.8626 290.693 88.5612 290.641 88.6602C290.507 88.9278 290.286 89.0615 289.977 89.0615C289.843 89.0615 289.735 89.0318 289.653 88.9723C289.571 88.9129 289.514 88.8534 289.483 88.794C289.452 88.7346 289.442 88.685 289.452 88.6454C289.452 88.5166 289.648 87.709 290.039 86.2228C290.43 84.7366 290.636 83.929 290.657 83.8002C290.667 83.7507 290.672 83.6367 290.672 83.4584C290.672 83.072 290.548 82.8788 290.301 82.8788C289.91 82.8788 289.586 83.3742 289.329 84.365C289.267 84.5632 289.236 84.6672 289.236 84.6771C289.216 84.7366 289.118 84.7663 288.943 84.7663H288.727C288.665 84.7068 288.634 84.6622 288.634 84.6325Z" fill="" stroke="#5F5B80" stroke-width="0.2"/>
<path d="M299.975 69.999L300.062 69.978C300.135 69.978 300.208 69.978 300.281 69.978H300.543L301.154 70.4825C302.523 71.6737 303.52 73.1593 304.146 74.9391C304.772 76.7189 305.085 78.5689 305.085 80.4889C305.085 81.4418 305.012 82.3598 304.866 83.2427C304.721 84.1256 304.553 84.8754 304.364 85.492C304.175 86.1087 303.906 86.7253 303.556 87.342C303.207 87.9586 302.93 88.4281 302.726 88.7504C302.523 89.0728 302.224 89.4301 301.831 89.8225C301.438 90.2149 301.205 90.4462 301.132 90.5163C301.059 90.5863 300.892 90.7195 300.63 90.9157C300.586 90.9577 300.557 90.9857 300.543 90.9998H300.281C300.164 90.9998 300.084 90.9998 300.04 90.9998C299.997 90.9998 299.96 90.9787 299.931 90.9367C299.902 90.8946 299.88 90.8316 299.866 90.7475C299.88 90.7335 299.96 90.6424 300.106 90.4742C302.362 88.2179 303.491 84.8894 303.491 80.4889C303.491 76.0883 302.362 72.7598 300.106 70.5035C299.96 70.3353 299.88 70.2442 299.866 70.2302C299.866 70.1181 299.902 70.041 299.975 69.999Z" fill="" stroke="#5F5B80" stroke-width="0.2"/>
<path d="M307.64 70.8188V69.978H310.632V90.9998H307.64V90.1589H309.758V70.8188H307.64Z" fill="" stroke="#5F5B80" stroke-width="0.2"/>
<path d="M2.13848 50.0653C2.37003 50.4231 2.69807 50.602 3.12258 50.602H3.16118C3.52137 50.602 3.88157 50.1892 4.24176 49.3635C4.60196 48.5377 4.93643 47.4093 5.24517 45.978C5.55391 44.5468 5.84335 43.1087 6.1135 41.6636C6.38364 40.2186 6.65379 38.6567 6.92394 36.9777C6.96253 36.6887 6.99469 36.4754 7.02042 36.3378C7.94664 30.4889 8.95004 25.0667 10.0306 20.0711C11.1112 15.0755 11.8959 11.8277 12.3848 10.3277C12.462 10.0799 12.5263 9.87352 12.5777 9.70837C12.6292 9.54323 12.7385 9.24047 12.9058 8.80009C13.073 8.3597 13.2467 7.97437 13.4268 7.64408C13.6069 7.31379 13.8255 6.97663 14.0828 6.63258C14.3401 6.28853 14.6231 6.01329 14.9319 5.80686C15.2406 5.60043 15.5686 5.5041 15.916 5.51786C16.6364 5.51786 17.1767 5.75869 17.5369 6.24036C17.897 6.72203 18.1029 7.27251 18.1543 7.8918C18.1543 8.23584 18.0771 8.51109 17.9228 8.71751C17.7684 8.92394 17.6205 9.05468 17.479 9.10973C17.3375 9.16478 17.196 9.18542 17.0544 9.17166C16.7843 9.17166 16.5399 9.06844 16.3212 8.86201C16.1025 8.65559 15.9932 8.37347 15.9932 8.01566C15.9932 7.35508 16.3341 6.96286 17.0159 6.839L16.958 6.75644C16.9194 6.71515 16.8679 6.66698 16.8036 6.61193C16.7393 6.55688 16.6878 6.5156 16.6492 6.48808C16.4563 6.35046 16.244 6.28165 16.0125 6.28165C15.8324 6.28165 15.6651 6.36422 15.5108 6.52936C15.3564 6.6945 15.1506 7.07984 14.8933 7.68537C14.636 8.29089 14.3851 9.08909 14.1407 10.0799C13.8963 11.0708 13.594 12.4676 13.2338 14.2705C12.8736 16.0733 12.5134 18.1926 12.1532 20.6285C11.3942 25.2387 10.6031 29.5944 9.77978 33.6955C8.95647 37.7965 8.31326 40.7691 7.85016 42.6132C7.38705 44.4573 7.03328 45.7785 6.78886 46.5767C5.79832 49.7832 4.57623 51.3865 3.12258 51.3865C2.60802 51.3865 2.13848 51.1732 1.71396 50.7465C1.28944 50.3199 1.05146 49.735 1 48.9919C1 48.5102 1.12221 48.1799 1.36663 48.001C1.61105 47.8221 1.85547 47.7327 2.09988 47.7327C2.37003 47.7327 2.61445 47.8359 2.83314 48.0423C3.05183 48.2487 3.16118 48.5309 3.16118 48.8887C3.16118 49.5493 2.82028 49.9415 2.13848 50.0653Z" fill="" stroke="#5F5B80" stroke-width="0.2"/>
<path d="M21.6138 1.68584C21.6138 1.58855 21.632 1.47665 21.6683 1.35017C21.7047 1.22368 21.7593 1.16044 21.8321 1.16044C21.8411 1.16044 22.1686 1.13611 22.8143 1.08747C23.46 1.03882 23.792 1.00963 23.8102 0.999899C23.9193 0.999899 23.9739 1.04368 23.9739 1.13125C23.9739 1.21882 23.8193 1.91449 23.5101 3.21827C23.4373 3.54908 23.36 3.88962 23.2781 4.23989C23.1963 4.59016 23.1281 4.85286 23.0735 5.028L23.0189 5.30529C23.0189 5.33448 23.0462 5.31989 23.1008 5.26151C23.5465 4.87232 24.0057 4.67773 24.4787 4.67773C25.0426 4.67773 25.4973 4.90151 25.8429 5.34908C26.1885 5.79664 26.3659 6.36097 26.375 7.04205C26.375 8.12204 26.0157 9.09988 25.2972 9.97555C24.5787 10.8512 23.8057 11.2891 22.978 11.2891C22.5233 11.2891 22.1094 11.1042 21.7366 10.7345C21.3637 10.3647 21.1727 9.76636 21.1636 8.93934V8.80799C21.1636 8.60366 21.2 8.3215 21.2727 7.9615C21.3455 7.6015 21.5683 6.64313 21.9412 5.08638C22.3959 3.16962 22.6233 2.15287 22.6233 2.03611C22.6233 1.91936 22.4505 1.85125 22.1049 1.83179C22.0594 1.83179 22.023 1.83179 21.9958 1.83179H21.9275C21.8366 1.83179 21.7775 1.83179 21.7502 1.83179C21.7229 1.83179 21.6911 1.81719 21.6547 1.788C21.6183 1.75882 21.6047 1.72476 21.6138 1.68584ZM25.2017 6.38529V6.29772C25.2017 5.57773 24.9243 5.21773 24.3695 5.21773C24.2149 5.21773 24.0558 5.25664 23.8921 5.33448C23.7283 5.41232 23.5783 5.51448 23.4419 5.64097C23.3054 5.76745 23.1872 5.88421 23.0872 5.99124C22.9871 6.09826 22.9053 6.20529 22.8416 6.31232L22.7597 6.42907L22.4732 7.68421C22.2732 8.52096 22.1731 9.11447 22.1731 9.46474C22.1731 9.93177 22.2823 10.282 22.5005 10.5156C22.6461 10.6712 22.8279 10.7491 23.0462 10.7491C23.3464 10.7491 23.651 10.5934 23.9603 10.282C24.1876 10.0583 24.3695 9.78582 24.506 9.46474C24.6424 9.14366 24.7925 8.63285 24.9562 7.93231C25.1199 7.23178 25.2017 6.7161 25.2017 6.38529Z" fill="" stroke="#5F5B80" stroke-width="0.2"/>
<path d="M11.114 49.8032C11.114 48.8205 11.4596 47.8864 12.1508 47.001C12.8421 46.1156 13.6197 45.6681 14.4837 45.6583C14.9475 45.6583 15.3568 45.8967 15.7115 46.3735C15.857 46.0816 16.0662 45.9356 16.3391 45.9356C16.4573 45.9356 16.5619 45.9745 16.6528 46.0524C16.7438 46.1302 16.7893 46.2275 16.7893 46.3443C16.7893 46.4708 16.621 47.2491 16.2845 48.6794C15.948 50.1097 15.7752 50.9172 15.7661 51.1021C15.7661 51.3453 15.7979 51.5059 15.8616 51.5837C15.9252 51.6616 16.0207 51.7053 16.1481 51.7151C16.2299 51.7053 16.3209 51.6616 16.4209 51.5837C16.6119 51.3891 16.7984 50.9221 16.9803 50.1826C17.0348 49.9881 17.0803 49.8859 17.1167 49.8762C17.1349 49.8664 17.1803 49.8616 17.2531 49.8616H17.3077C17.4805 49.8616 17.5669 49.9053 17.5669 49.9929C17.5669 50.0513 17.5441 50.1826 17.4987 50.387C17.4532 50.5913 17.3622 50.854 17.2258 51.1751C17.0894 51.4962 16.9439 51.7394 16.7893 51.9048C16.671 52.0313 16.5255 52.1335 16.3527 52.2113C16.2799 52.2307 16.1708 52.2405 16.0253 52.2405C15.7161 52.2405 15.4569 52.1675 15.2477 52.0216C15.0385 51.8756 14.9021 51.7248 14.8384 51.5691L14.7565 51.3502C14.7474 51.3405 14.7293 51.3453 14.702 51.3648C14.6838 51.3843 14.6656 51.4037 14.6474 51.4232C14.1108 51.968 13.5651 52.2405 13.0103 52.2405C12.5101 52.2405 12.069 52.0459 11.687 51.6567C11.305 51.2675 11.114 50.6497 11.114 49.8032ZM15.4523 47.3075C15.4523 47.2491 15.4296 47.1421 15.3841 46.9864C15.3386 46.8308 15.234 46.6605 15.0703 46.4756C14.9066 46.2908 14.6974 46.1935 14.4428 46.1837C14.1244 46.1837 13.8198 46.3345 13.5287 46.6362C13.2377 46.9378 13.0103 47.3318 12.8466 47.8183C12.5828 48.587 12.3964 49.3848 12.2873 50.2118C12.2873 50.241 12.2873 50.2945 12.2873 50.3724C12.2873 50.4502 12.2827 50.5086 12.2736 50.5475C12.2736 50.9853 12.3555 51.287 12.5192 51.4524C12.6829 51.6178 12.8784 51.7053 13.1058 51.7151C13.4514 51.7151 13.7925 51.5545 14.129 51.2335C14.4655 50.9124 14.6656 50.6643 14.7293 50.4891C14.7474 50.4502 14.8702 49.9297 15.0976 48.9275C15.325 47.9254 15.4432 47.3854 15.4523 47.3075Z" fill="" stroke="#5F5B80" stroke-width="0.2"/>
<path d="M32.9281 36.9341C32.9538 36.9341 32.9924 36.9479 33.0438 36.9754C33.0953 37.0029 33.1661 37.0236 33.2561 37.0373C33.3461 37.0511 33.4233 37.058 33.4877 37.058C33.6549 37.058 33.8093 36.9685 33.9508 36.7896C34.0923 36.6107 34.1952 36.4112 34.2595 36.191C34.3881 35.8194 34.6068 34.7666 34.9156 33.0326C35.2243 31.2986 35.5202 29.6472 35.8032 28.0783C36.0862 26.5094 36.2277 25.7181 36.2277 25.7044V25.6424H35.3208C34.7162 25.6424 34.3946 25.6287 34.356 25.6012C34.3045 25.5599 34.2788 25.4911 34.2788 25.3947L34.4139 24.8167C34.4396 24.7479 34.4911 24.7135 34.5682 24.7135C34.6454 24.7135 34.9477 24.7066 35.4752 24.6929C36.0926 24.6929 36.4014 24.686 36.4014 24.6722C36.4014 24.6447 36.4593 24.3006 36.575 23.6401C36.6908 22.9795 36.768 22.5804 36.8066 22.4428C37.2826 20.1721 38.2217 19.0367 39.6238 19.0367C40.0998 19.0642 40.4922 19.2156 40.8009 19.4908C41.1097 19.7661 41.264 20.1308 41.264 20.5849C41.264 21.0804 41.129 21.4382 40.8588 21.6584C40.5887 21.8785 40.3185 21.9955 40.0484 22.0093C39.4823 22.0093 39.1993 21.7203 39.1993 21.1423C39.1993 20.8808 39.2701 20.6537 39.4116 20.4611C39.5531 20.2684 39.7075 20.1239 39.8747 20.0276L40.0484 19.9243C39.8425 19.8418 39.6496 19.8005 39.4695 19.8005C39.3151 19.8005 39.1672 19.8693 39.0257 20.0069C38.8842 20.1445 38.7877 20.3372 38.7362 20.5849C38.6462 20.984 38.5433 21.5207 38.4275 22.1951C38.3117 22.8694 38.2088 23.4405 38.1187 23.9084C38.0287 24.3763 37.9837 24.6241 37.9837 24.6516C37.9837 24.6791 38.3374 24.6929 39.045 24.6929C39.6238 24.6929 39.9583 24.6997 40.0484 24.7135C40.1384 24.7273 40.2092 24.7686 40.2606 24.8374C40.2735 24.8924 40.2606 25.0094 40.222 25.1883C40.1834 25.3672 40.1513 25.4773 40.1256 25.5186C40.0998 25.5874 40.0419 25.6218 39.9519 25.6218C39.8618 25.6218 39.5145 25.6287 38.9099 25.6424H37.8293L37.3855 28.1609C36.768 31.5738 36.3371 33.707 36.0926 34.5602C35.7453 35.73 35.2951 36.597 34.7419 37.1612C34.2659 37.6016 33.7964 37.8218 33.3333 37.8218C32.9216 37.8218 32.5486 37.691 32.2141 37.4296C31.8796 37.1681 31.7124 36.7965 31.7124 36.3148C31.7124 35.8056 31.8475 35.4341 32.1176 35.2001C32.3878 34.9662 32.6579 34.8492 32.9281 34.8492C33.4941 34.8492 33.7771 35.1382 33.7771 35.7162C33.7771 35.9777 33.7063 36.2047 33.5648 36.3974C33.4233 36.5901 33.269 36.7346 33.1017 36.8309L32.9281 36.9341Z" fill="" stroke="#5F5B80" stroke-width="0.2"/>
<path d="M43.0769 28.4312C43.0769 27.4816 43.1412 26.5802 43.2699 25.727C43.3985 24.8737 43.5464 24.1375 43.7137 23.5182C43.8809 22.8989 44.1189 22.2934 44.4276 21.7016C44.7364 21.1099 44.9808 20.6488 45.1609 20.3185C45.341 19.9883 45.6111 19.6304 45.9713 19.2451C46.3315 18.8598 46.5438 18.6258 46.6081 18.5432C46.6724 18.4607 46.8332 18.3162 47.0905 18.1097H47.3414H47.4186C47.5986 18.1097 47.6887 18.1717 47.6887 18.2955C47.6887 18.3368 47.5794 18.4813 47.3607 18.729C47.142 18.9768 46.8783 19.3414 46.5695 19.8231C46.2608 20.3048 45.9456 20.8965 45.624 21.5984C45.3024 22.3003 45.0323 23.2498 44.8136 24.4471C44.5949 25.6444 44.4855 26.9724 44.4855 28.4312C44.4855 29.89 44.5949 31.2111 44.8136 32.3947C45.0323 33.5782 45.296 34.5346 45.6047 35.264C45.9134 35.9934 46.2286 36.5852 46.5502 37.0393C46.8718 37.4935 47.142 37.8582 47.3607 38.1334C47.5794 38.4086 47.6887 38.5531 47.6887 38.5669C47.6887 38.6908 47.5922 38.7527 47.3993 38.7527H47.3414H47.0905L46.5502 38.2573C45.341 37.0875 44.4598 35.6287 43.9066 33.881C43.3535 32.1332 43.0769 30.3166 43.0769 28.4312Z" fill="" stroke="#5F5B80" stroke-width="0.2"/>
<path d="M49.7726 27.6255C49.8627 27.0475 50.21 26.38 50.8146 25.6231C51.4192 24.8662 52.1653 24.4809 53.053 24.4671C53.5032 24.4671 53.9149 24.591 54.2879 24.8387C54.661 25.0864 54.9376 25.396 55.1177 25.7676C55.658 24.9006 56.3076 24.4671 57.0666 24.4671C57.5426 24.4671 57.9542 24.6185 58.3015 24.9212C58.6489 25.224 58.829 25.63 58.8418 26.1392C58.8418 26.5383 58.7518 26.8617 58.5717 27.1094C58.3916 27.3571 58.2179 27.5085 58.0507 27.5635C57.8835 27.6186 57.7355 27.6461 57.6069 27.6461C57.3625 27.6461 57.1631 27.5704 57.0087 27.419C56.8543 27.2677 56.7771 27.0681 56.7771 26.8204C56.7771 26.1874 57.0987 25.7538 57.742 25.5199C57.6004 25.341 57.3432 25.2515 56.9701 25.2515C56.8029 25.2515 56.6807 25.2653 56.6035 25.2928C56.1146 25.513 55.7544 25.9672 55.5229 26.6553C54.751 29.6967 54.3651 31.4719 54.3651 31.9811C54.3651 32.3665 54.468 32.6417 54.6739 32.8069C54.8797 32.972 55.1048 33.0546 55.3492 33.0546C55.8252 33.0546 56.2947 32.8275 56.7578 32.3734C57.221 31.9192 57.5361 31.3618 57.7034 30.7013C57.742 30.5637 57.7805 30.488 57.8191 30.4742C57.8577 30.4604 57.9606 30.4467 58.1279 30.4329H58.2051C58.398 30.4329 58.4945 30.488 58.4945 30.5981C58.4945 30.6118 58.4816 30.6875 58.4559 30.8251C58.2501 31.6096 57.8513 32.3045 57.2595 32.9101C56.6678 33.5156 55.9796 33.8184 55.1949 33.8184C54.2944 33.8184 53.6126 33.3849 53.1495 32.5179C52.622 33.3711 52.0174 33.7977 51.3356 33.7977H51.2198C50.5895 33.7977 50.1392 33.6188 49.8691 33.261C49.5989 32.9032 49.4574 32.5247 49.4446 32.1256C49.4446 31.6853 49.5668 31.3274 49.8112 31.0522C50.0556 30.777 50.3451 30.6393 50.6795 30.6393C51.2327 30.6393 51.5093 30.9283 51.5093 31.5063C51.5093 31.7816 51.4321 32.0224 51.2777 32.2289C51.1234 32.4353 50.9754 32.5729 50.8339 32.6417C50.6924 32.7105 50.6088 32.7449 50.5831 32.7449L50.5252 32.7656C50.5252 32.7793 50.5638 32.8069 50.6409 32.8481C50.7181 32.8894 50.821 32.9376 50.9497 32.9926C51.0783 33.0477 51.2005 33.0683 51.3163 33.0546C51.7794 33.0546 52.1782 32.7449 52.5127 32.1256C52.6285 31.9054 52.7764 31.4375 52.9565 30.7219C53.1366 30.0063 53.3167 29.2631 53.4968 28.4925C53.6769 27.7218 53.7798 27.2677 53.8055 27.13C53.8698 26.7585 53.902 26.4901 53.902 26.325C53.902 25.9396 53.8055 25.6644 53.6126 25.4993C53.4196 25.3341 53.2009 25.2515 52.9565 25.2515C52.4419 25.2515 51.9595 25.4717 51.5093 25.9121C51.059 26.3525 50.7439 26.9167 50.5638 27.6048C50.538 27.7287 50.5059 27.7975 50.4673 27.8113C50.4287 27.825 50.3258 27.8388 50.1585 27.8525H49.8884C49.8112 27.77 49.7726 27.6943 49.7726 27.6255Z" fill="" stroke="#5F5B80" stroke-width="0.2"/>
<path d="M60.9622 18.1304L61.0394 18.1097C61.1037 18.1097 61.168 18.1097 61.2324 18.1097H61.4639L62.0042 18.6052C63.2134 19.7749 64.0946 21.2337 64.6478 22.9815C65.2009 24.7292 65.4775 26.5458 65.4775 28.4312C65.4775 29.367 65.4132 30.2684 65.2846 31.1354C65.1559 32.0024 65.008 32.7387 64.8407 33.3442C64.6735 33.9498 64.4355 34.5553 64.1268 35.1608C63.818 35.7663 63.5736 36.2274 63.3935 36.5439C63.2134 36.8604 62.9497 37.2113 62.6024 37.5967C62.255 37.982 62.0492 38.2091 61.9849 38.2779C61.9206 38.3467 61.7726 38.4774 61.5411 38.6701C61.5025 38.7114 61.4768 38.7389 61.4639 38.7527H61.2324C61.1294 38.7527 61.0587 38.7527 61.0201 38.7527C60.9815 38.7527 60.9493 38.732 60.9236 38.6908C60.8979 38.6495 60.8786 38.5875 60.8657 38.505C60.8786 38.4912 60.9493 38.4018 61.078 38.2366C63.0719 36.0209 64.0689 32.7525 64.0689 28.4312C64.0689 24.11 63.0719 20.8415 61.078 18.6258C60.9493 18.4607 60.8786 18.3712 60.8657 18.3575C60.8657 18.2474 60.8979 18.1717 60.9622 18.1304Z" fill="" stroke="#5F5B80" stroke-width="0.2"/>
<path d="M74.3751 19.4908C74.388 19.4908 74.8511 19.4564 75.7644 19.3876C76.6778 19.3188 77.1473 19.2775 77.1731 19.2638C77.3274 19.2638 77.4046 19.3188 77.4046 19.4289C77.4046 19.5252 76.9351 21.6033 75.996 25.6631C75.0569 29.7228 74.5745 31.794 74.5488 31.8766C74.523 31.9592 74.5166 32.0624 74.5295 32.1862C74.5295 32.7642 74.7096 33.0532 75.0698 33.0532C75.1855 33.0395 75.3142 32.9775 75.4557 32.8675C75.7258 32.5922 75.9896 31.9316 76.2468 30.8857C76.324 30.6105 76.3883 30.466 76.4398 30.4522C76.4655 30.4385 76.5298 30.4316 76.6328 30.4316H76.7099H76.7871C76.9801 30.4316 77.0766 30.4866 77.0766 30.5967C77.0766 30.6655 77.0573 30.7756 77.0187 30.927C76.8514 31.6151 76.6585 32.1725 76.4398 32.5991C76.2211 33.0257 76.041 33.301 75.8995 33.4248C75.758 33.5487 75.5779 33.6588 75.3592 33.7551C75.2563 33.7826 75.1019 33.7964 74.8961 33.7964C74.4587 33.7964 74.0921 33.6932 73.7962 33.4867C73.5003 33.2803 73.3074 33.067 73.2173 32.8468L73.1016 32.5372C73.0887 32.5234 73.063 32.5303 73.0244 32.5578C72.9986 32.5853 72.9729 32.6129 72.9472 32.6404C72.1882 33.4111 71.4163 33.7964 70.6316 33.7964C69.9241 33.7964 69.3002 33.5211 68.7599 32.9707C68.2196 32.4202 67.9495 31.5463 67.9495 30.349C67.9495 29.6884 68.0781 29.0141 68.3354 28.326C68.5927 27.6379 68.9014 27.0461 69.2616 26.5507C69.8662 25.7663 70.4708 25.2227 71.0754 24.9199C71.6801 24.6172 72.2268 24.4658 72.7156 24.4658C73.436 24.4658 73.9763 24.7548 74.3365 25.3328C74.4008 25.4154 74.433 25.4429 74.433 25.4154C74.4459 25.3603 74.6195 24.6103 74.954 23.1653C75.2885 21.7203 75.4686 20.9565 75.4943 20.8739C75.4943 20.695 75.4493 20.5849 75.3592 20.5436C75.2692 20.5023 75.0183 20.4679 74.6067 20.4404H74.2014C74.1243 20.3578 74.0857 20.3028 74.0857 20.2753C74.0857 20.2477 74.0985 20.117 74.1243 19.883C74.1886 19.6216 74.2722 19.4908 74.3751 19.4908ZM74.105 26.8604C73.8091 25.7732 73.3267 25.2296 72.6577 25.2296C72.2075 25.2296 71.7765 25.4429 71.3649 25.8695C70.9532 26.2961 70.6316 26.8535 70.4001 27.5416C70.027 28.6288 69.7633 29.7573 69.6089 30.927C69.6089 30.9683 69.6089 31.044 69.6089 31.1541C69.6089 31.2642 69.6025 31.3468 69.5896 31.4018C69.5896 32.0211 69.7054 32.4477 69.937 32.6817C70.1685 32.9156 70.4451 33.0395 70.7667 33.0532C71.4614 33.0532 72.1753 32.5578 72.9086 31.5669L73.063 31.3399L74.105 26.8604Z" fill="" stroke="#5F5B80" stroke-width="0.2"/>
<path d="M78.35 27.6255C78.4401 27.0475 78.7874 26.38 79.392 25.6231C79.9966 24.8662 80.7427 24.4809 81.6304 24.4671C82.0806 24.4671 82.4923 24.591 82.8653 24.8387C83.2384 25.0864 83.515 25.396 83.6951 25.7676C84.2354 24.9006 84.885 24.4671 85.644 24.4671C86.1199 24.4671 86.5316 24.6185 86.8789 24.9212C87.2263 25.224 87.4064 25.63 87.4192 26.1392C87.4192 26.5383 87.3292 26.8617 87.1491 27.1094C86.969 27.3571 86.7953 27.5085 86.6281 27.5635C86.4608 27.6186 86.3129 27.6461 86.1843 27.6461C85.9399 27.6461 85.7405 27.5704 85.5861 27.419C85.4317 27.2677 85.3545 27.0681 85.3545 26.8204C85.3545 26.1874 85.6761 25.7538 86.3193 25.5199C86.1778 25.341 85.9206 25.2515 85.5475 25.2515C85.3803 25.2515 85.2581 25.2653 85.1809 25.2928C84.692 25.513 84.3318 25.9672 84.1003 26.6553C83.3284 29.6967 82.9425 31.4719 82.9425 31.9811C82.9425 32.3665 83.0454 32.6417 83.2512 32.8069C83.4571 32.972 83.6822 33.0546 83.9266 33.0546C84.4026 33.0546 84.8721 32.8275 85.3352 32.3734C85.7983 31.9192 86.1135 31.3618 86.2808 30.7013C86.3193 30.5637 86.3579 30.488 86.3965 30.4742C86.4351 30.4604 86.538 30.4467 86.7053 30.4329H86.7825C86.9754 30.4329 87.0719 30.488 87.0719 30.5981C87.0719 30.6118 87.059 30.6875 87.0333 30.8251C86.8275 31.6096 86.4287 32.3045 85.8369 32.9101C85.2452 33.5156 84.557 33.8184 83.7722 33.8184C82.8718 33.8184 82.19 33.3849 81.7268 32.5179C81.1994 33.3711 80.5948 33.7977 79.913 33.7977H79.7972C79.1669 33.7977 78.7166 33.6188 78.4465 33.261C78.1763 32.9032 78.0348 32.5247 78.022 32.1256C78.022 31.6853 78.1442 31.3274 78.3886 31.0522C78.633 30.777 78.9225 30.6393 79.2569 30.6393C79.8101 30.6393 80.0867 30.9283 80.0867 31.5063C80.0867 31.7816 80.0095 32.0224 79.8551 32.2289C79.7007 32.4353 79.5528 32.5729 79.4113 32.6417C79.2698 32.7105 79.1862 32.7449 79.1604 32.7449L79.1026 32.7656C79.1026 32.7793 79.1412 32.8069 79.2183 32.8481C79.2955 32.8894 79.3984 32.9376 79.5271 32.9926C79.6557 33.0477 79.7779 33.0683 79.8937 33.0546C80.3568 33.0546 80.7556 32.7449 81.0901 32.1256C81.2058 31.9054 81.3538 31.4375 81.5339 30.7219C81.714 30.0063 81.8941 29.2631 82.0742 28.4925C82.2543 27.7218 82.3572 27.2677 82.3829 27.13C82.4472 26.7585 82.4794 26.4901 82.4794 26.325C82.4794 25.9396 82.3829 25.6644 82.19 25.4993C81.997 25.3341 81.7783 25.2515 81.5339 25.2515C81.0193 25.2515 80.5369 25.4717 80.0867 25.9121C79.6364 26.3525 79.3213 26.9167 79.1412 27.6048C79.1154 27.7287 79.0833 27.7975 79.0447 27.8113C79.0061 27.825 78.9032 27.8388 78.7359 27.8525H78.4658C78.3886 27.77 78.35 27.6943 78.35 27.6255Z" fill="" stroke="#5F5B80" stroke-width="0.2"/>
<path d="M94.8042 27.0053C94.8042 26.4411 94.9135 25.9319 95.1322 25.4778C95.3509 25.0236 95.6211 24.6727 95.9427 24.425C96.2643 24.1773 96.5795 23.9846 96.8882 23.847C97.1969 23.7094 97.4671 23.6405 97.6986 23.6405C97.7244 23.6405 97.7758 23.6405 97.853 23.6405C97.9302 23.6405 97.9945 23.6337 98.046 23.6199C98.5477 23.6199 99.0172 23.7231 99.4546 23.9295C99.892 24.136 100.516 24.5144 101.326 25.0649L102.291 25.7255C103.05 26.2071 103.758 26.448 104.414 26.448C105.134 26.448 105.752 26.2484 106.266 25.8493C106.781 25.4502 107.07 24.9066 107.134 24.2185C107.134 24.0672 107.16 23.9295 107.212 23.8057C107.263 23.6818 107.327 23.6199 107.405 23.6199C107.585 23.6199 107.675 23.8332 107.675 24.2598C107.675 25.1681 107.372 25.9526 106.768 26.6131C106.163 27.2737 105.391 27.6109 104.452 27.6246C103.925 27.6246 103.365 27.4801 102.774 27.1911C102.182 26.9021 101.667 26.5787 101.23 26.2209C100.792 25.8631 100.278 25.5397 99.6861 25.2507C99.0944 24.9617 98.5541 24.8103 98.0653 24.7965C97.2934 24.7965 96.6566 25.0236 96.1549 25.4778C95.6532 25.9319 95.3831 26.448 95.3445 27.026C95.3188 27.4251 95.2287 27.6246 95.0743 27.6246C94.8942 27.6246 94.8042 27.4182 94.8042 27.0053ZM94.8042 31.8358C94.8042 31.2715 94.9135 30.7624 95.1322 30.3082C95.3509 29.8541 95.6211 29.5031 95.9427 29.2554C96.2643 29.0077 96.5795 28.815 96.8882 28.6774C97.1969 28.5398 97.4671 28.471 97.6986 28.471C97.7244 28.471 97.7758 28.471 97.853 28.471C97.9302 28.471 97.9945 28.4641 98.046 28.4503C98.5477 28.4503 99.0172 28.5536 99.4546 28.76C99.892 28.9664 100.516 29.3449 101.326 29.8954L102.291 30.5559C103.05 31.0376 103.758 31.2784 104.414 31.2784C105.134 31.2784 105.752 31.0789 106.266 30.6798C106.781 30.2807 107.07 29.7371 107.134 29.049C107.134 28.6499 107.225 28.4503 107.405 28.4503C107.585 28.4503 107.675 28.6705 107.675 29.1109C107.675 29.9917 107.372 30.7692 106.768 31.4436C106.163 32.1179 105.391 32.4551 104.452 32.4551C103.925 32.4551 103.365 32.3106 102.774 32.0216C102.182 31.7326 101.667 31.4092 101.23 31.0514C100.792 30.6935 100.278 30.3701 99.6861 30.0811C99.0944 29.7921 98.5541 29.6408 98.0653 29.627C97.2934 29.627 96.6566 29.8541 96.1549 30.3082C95.6532 30.7624 95.3831 31.2784 95.3445 31.8564C95.3059 32.2555 95.2159 32.4551 95.0743 32.4551C94.8942 32.4551 94.8042 32.2486 94.8042 31.8358Z" fill="" stroke="#5F5B80" stroke-width="0.2"/>
<path d="M119.811 19.635L119.753 19.5937C119.715 19.58 119.683 19.5593 119.657 19.5318C119.631 19.5043 119.599 19.463 119.56 19.4079C119.522 19.3529 119.502 19.291 119.502 19.2222C119.502 19.1671 119.522 19.0983 119.56 19.0157C119.599 18.9194 120.776 16.5799 123.092 11.9971C125.407 7.41439 126.584 5.0955 126.623 5.04045C126.623 5.02669 126.636 5.00605 126.661 4.97852C126.687 4.951 126.726 4.92347 126.777 4.89595C126.829 4.86843 126.88 4.85466 126.931 4.85466C127.022 4.85466 127.092 4.88219 127.144 4.93723C127.195 4.96476 128.411 7.33182 130.791 12.0384L134.341 19.0777V19.2222C134.341 19.4011 134.251 19.5387 134.071 19.635H119.811ZM130.135 12.4719L126.931 6.15517C126.919 6.15517 125.851 8.26075 123.728 12.4719C121.606 16.6831 120.544 18.7955 120.544 18.8093H133.319C133.319 18.7818 132.257 16.6693 130.135 12.4719Z" fill="" stroke="#5F5B80" stroke-width="0.2"/>
<path d="M136.522 13.6692C136.612 13.0912 136.96 12.4237 137.564 11.6668C138.169 10.9099 138.915 10.5246 139.803 10.5108C140.253 10.5108 140.665 10.6347 141.038 10.8824C141.411 11.1301 141.687 11.4397 141.867 11.8113C142.408 10.9443 143.057 10.5108 143.816 10.5108C144.292 10.5108 144.704 10.6622 145.051 10.965C145.399 11.2677 145.579 11.6737 145.592 12.1829C145.592 12.582 145.502 12.9054 145.321 13.1531C145.141 13.4008 144.968 13.5522 144.8 13.6072C144.633 13.6623 144.485 13.6898 144.357 13.6898C144.112 13.6898 143.913 13.6141 143.758 13.4627C143.604 13.3114 143.527 13.1118 143.527 12.8641C143.527 12.2311 143.848 11.7976 144.492 11.5636C144.35 11.3847 144.093 11.2952 143.72 11.2952C143.553 11.2952 143.43 11.309 143.353 11.3365C142.864 11.5567 142.504 12.0109 142.273 12.699C141.501 15.7404 141.115 17.5156 141.115 18.0248C141.115 18.4102 141.218 18.6854 141.424 18.8506C141.629 19.0157 141.855 19.0983 142.099 19.0983C142.575 19.0983 143.044 18.8712 143.508 18.4171C143.971 17.9629 144.286 17.4056 144.453 16.745C144.492 16.6074 144.53 16.5317 144.569 16.5179C144.607 16.5041 144.71 16.4904 144.878 16.4766H144.955C145.148 16.4766 145.244 16.5317 145.244 16.6418C145.244 16.6555 145.231 16.7312 145.206 16.8688C145 17.6533 144.601 18.3482 144.009 18.9538C143.418 19.5593 142.729 19.8621 141.945 19.8621C141.044 19.8621 140.362 19.4286 139.899 18.5616C139.372 19.4148 138.767 19.8414 138.085 19.8414H137.97C137.339 19.8414 136.889 19.6625 136.619 19.3047C136.349 18.9469 136.207 18.5684 136.194 18.1693C136.194 17.729 136.317 17.3711 136.561 17.0959C136.805 16.8207 137.095 16.683 137.429 16.683C137.982 16.683 138.259 16.972 138.259 17.5501C138.259 17.8253 138.182 18.0661 138.027 18.2726C137.873 18.479 137.725 18.6166 137.584 18.6854C137.442 18.7542 137.359 18.7886 137.333 18.7886L137.275 18.8093C137.275 18.823 137.314 18.8506 137.391 18.8918C137.468 18.9331 137.571 18.9813 137.699 19.0363C137.828 19.0914 137.95 19.112 138.066 19.0983C138.529 19.0983 138.928 18.7886 139.262 18.1693C139.378 17.9491 139.526 17.4812 139.706 16.7656C139.886 16.05 140.066 15.3069 140.247 14.5362C140.427 13.7655 140.53 13.3114 140.555 13.1737C140.62 12.8022 140.652 12.5338 140.652 12.3687C140.652 11.9833 140.555 11.7081 140.362 11.543C140.169 11.3778 139.951 11.2952 139.706 11.2952C139.192 11.2952 138.709 11.5154 138.259 11.9558C137.809 12.3962 137.494 12.9604 137.314 13.6485C137.288 13.7724 137.256 13.8412 137.217 13.855C137.178 13.8687 137.076 13.8825 136.908 13.8962H136.638C136.561 13.8137 136.522 13.738 136.522 13.6692Z" fill="" stroke="#5F5B80" stroke-width="0.2"/>
<path d="M130.085 38.1937C129.738 38.1937 129.468 38.0768 129.275 37.8428C129.082 37.6089 128.979 37.3061 128.966 36.9345C128.966 36.1776 129.275 35.5033 129.892 34.9115C130.51 34.3197 131.256 34.0239 132.131 34.0239C132.581 34.0239 132.864 34.0307 132.98 34.0445C133.932 34.2097 134.658 34.5743 135.16 35.1386C135.662 35.7028 135.919 36.3152 135.932 36.9758C135.932 37.6914 135.713 38.3864 135.276 39.0607C134.839 39.7351 134.234 40.2236 133.462 40.5264L133.404 40.5677C133.404 40.5814 133.462 40.6021 133.578 40.6296C133.694 40.6571 133.88 40.7191 134.137 40.8154C134.395 40.9117 134.639 41.0562 134.871 41.2489C135.926 41.9783 136.453 42.9416 136.453 44.1389C136.453 45.2261 136.054 46.1757 135.257 46.9876C134.459 47.7996 133.449 48.2056 132.227 48.2056C131.198 48.2056 130.31 47.9097 129.564 47.3179C128.818 46.7262 128.445 45.9761 128.445 45.0678C128.445 44.6825 128.561 44.3729 128.792 44.1389C129.024 43.905 129.313 43.7811 129.661 43.7673C130.021 43.7673 130.317 43.8912 130.548 44.1389C130.78 44.3866 130.896 44.6963 130.896 45.0678C130.896 45.2192 130.876 45.3568 130.838 45.4807C130.799 45.6046 130.754 45.7147 130.703 45.811C130.651 45.9073 130.581 45.9899 130.49 46.0587C130.4 46.1275 130.323 46.1826 130.259 46.2238C130.195 46.2651 130.13 46.2927 130.066 46.3064C130.002 46.3202 129.95 46.3408 129.912 46.3683L129.834 46.389C130.49 47.0083 131.288 47.3179 132.227 47.3179C132.935 47.3179 133.469 46.9532 133.829 46.2238C134.047 45.7697 134.157 45.0747 134.157 44.1389V43.726C134.157 42.4187 133.745 41.5448 132.922 41.1044C132.729 41.0218 132.336 40.9737 131.745 40.9599L130.934 40.9393L130.876 40.898C130.851 40.8567 130.838 40.7466 130.838 40.5677C130.838 40.32 130.889 40.1961 130.992 40.1961C131.352 40.1961 131.725 40.1617 132.111 40.0929C132.549 40.0241 132.948 39.7351 133.308 39.2259C133.668 38.7167 133.848 37.946 133.848 36.9139V36.7487C133.848 35.9643 133.623 35.4207 133.173 35.1179C132.89 34.9253 132.587 34.8289 132.266 34.8289C131.854 34.8289 131.475 34.9046 131.127 35.056C130.78 35.2074 130.535 35.3657 130.394 35.5308C130.252 35.6959 130.182 35.7785 130.182 35.7785H130.24C130.278 35.7923 130.33 35.806 130.394 35.8198C130.458 35.8336 130.523 35.868 130.587 35.923C130.651 35.9781 130.728 36.0262 130.819 36.0675C130.909 36.1088 130.973 36.1845 131.011 36.2946C131.05 36.4047 131.102 36.5079 131.166 36.6042C131.23 36.7006 131.249 36.8382 131.224 37.0171C131.224 37.3199 131.134 37.5882 130.954 37.8222C130.773 38.0561 130.484 38.18 130.085 38.1937Z" fill="" stroke="#5F5B80" stroke-width="0.2"/>
<path d="M148.484 29.0491H116.433V27.8105H148.484V29.0491Z" fill="" stroke="#5F5B80" stroke-width="0.2"/>
<path d="M153.08 38.7527V18.1097H155.724V18.9355H153.852V37.927H155.724V38.7527H153.08Z" fill="" stroke="#5F5B80" stroke-width="0.2"/>
<path d="M158.444 36.9341C158.47 36.9341 158.508 36.9479 158.56 36.9754C158.611 37.0029 158.682 37.0236 158.772 37.0373C158.862 37.0511 158.939 37.058 159.004 37.058C159.171 37.058 159.325 36.9685 159.467 36.7896C159.608 36.6107 159.711 36.4112 159.776 36.191C159.904 35.8194 160.123 34.7666 160.432 33.0326C160.74 31.2986 161.036 29.6472 161.319 28.0783C161.602 26.5094 161.744 25.7181 161.744 25.7044V25.6424H160.837C160.232 25.6424 159.911 25.6287 159.872 25.6012C159.821 25.5599 159.795 25.4911 159.795 25.3947L159.93 24.8167C159.956 24.7479 160.007 24.7135 160.084 24.7135C160.162 24.7135 160.464 24.7066 160.991 24.6929C161.609 24.6929 161.917 24.686 161.917 24.6722C161.917 24.6447 161.975 24.3006 162.091 23.6401C162.207 22.9795 162.284 22.5804 162.323 22.4428C162.799 20.1721 163.738 19.0367 165.14 19.0367C165.616 19.0642 166.008 19.2156 166.317 19.4908C166.626 19.7661 166.78 20.1308 166.78 20.5849C166.78 21.0804 166.645 21.4382 166.375 21.6584C166.105 21.8785 165.835 21.9955 165.564 22.0093C164.998 22.0093 164.715 21.7203 164.715 21.1423C164.715 20.8808 164.786 20.6537 164.928 20.4611C165.069 20.2684 165.224 20.1239 165.391 20.0276L165.564 19.9243C165.359 19.8418 165.166 19.8005 164.986 19.8005C164.831 19.8005 164.683 19.8693 164.542 20.0069C164.4 20.1445 164.304 20.3372 164.252 20.5849C164.162 20.984 164.059 21.5207 163.944 22.1951C163.828 22.8694 163.725 23.4405 163.635 23.9084C163.545 24.3763 163.5 24.6241 163.5 24.6516C163.5 24.6791 163.854 24.6929 164.561 24.6929C165.14 24.6929 165.474 24.6997 165.564 24.7135C165.655 24.7273 165.725 24.7686 165.777 24.8374C165.79 24.8924 165.777 25.0094 165.738 25.1883C165.7 25.3672 165.667 25.4773 165.642 25.5186C165.616 25.5874 165.558 25.6218 165.468 25.6218C165.378 25.6218 165.031 25.6287 164.426 25.6424H163.345L162.902 28.1609C162.284 31.5738 161.853 33.707 161.609 34.5602C161.261 35.73 160.811 36.597 160.258 37.1612C159.782 37.6016 159.313 37.8218 158.849 37.8218C158.438 37.8218 158.065 37.691 157.73 37.4296C157.396 37.1681 157.229 36.7965 157.229 36.3148C157.229 35.8056 157.364 35.4341 157.634 35.2001C157.904 34.9662 158.174 34.8492 158.444 34.8492C159.01 34.8492 159.293 35.1382 159.293 35.7162C159.293 35.9777 159.222 36.2047 159.081 36.3974C158.939 36.5901 158.785 36.7346 158.618 36.8309L158.444 36.9341Z" fill="" stroke="#5F5B80" stroke-width="0.2"/>
<path d="M168.593 28.4312C168.593 27.4816 168.658 26.5802 168.786 25.727C168.915 24.8737 169.063 24.1375 169.23 23.5182C169.397 22.8989 169.635 22.2934 169.944 21.7016C170.253 21.1099 170.497 20.6488 170.677 20.3185C170.857 19.9883 171.127 19.6304 171.488 19.2451C171.848 18.8598 172.06 18.6258 172.124 18.5432C172.189 18.4607 172.35 18.3162 172.607 18.1097H172.858H172.935C173.115 18.1097 173.205 18.1717 173.205 18.2955C173.205 18.3368 173.096 18.4813 172.877 18.729C172.658 18.9768 172.395 19.3414 172.086 19.8231C171.777 20.3048 171.462 20.8965 171.14 21.5984C170.819 22.3003 170.549 23.2498 170.33 24.4471C170.111 25.6444 170.002 26.9724 170.002 28.4312C170.002 29.89 170.111 31.2111 170.33 32.3947C170.549 33.5782 170.812 34.5346 171.121 35.264C171.43 35.9934 171.745 36.5852 172.067 37.0393C172.388 37.4935 172.658 37.8582 172.877 38.1334C173.096 38.4086 173.205 38.5531 173.205 38.5669C173.205 38.6908 173.109 38.7527 172.916 38.7527H172.858H172.607L172.067 38.2573C170.857 37.0875 169.976 35.6287 169.423 33.881C168.87 32.1332 168.593 30.3166 168.593 28.4312Z" fill="" stroke="#5F5B80" stroke-width="0.2"/>
<path d="M175.288 27.626C175.378 27.048 175.726 26.3805 176.33 25.6236C176.935 24.8667 177.681 24.4814 178.569 24.4676C179.019 24.4676 179.43 24.5915 179.804 24.8392C180.177 25.0869 180.453 25.3965 180.633 25.7681C181.174 24.9011 181.823 24.4676 182.582 24.4676C183.058 24.4676 183.47 24.619 183.817 24.9217C184.164 25.2245 184.345 25.6305 184.357 26.1397C184.357 26.5388 184.267 26.8622 184.087 27.1099C183.907 27.3576 183.734 27.509 183.566 27.564C183.399 27.6191 183.251 27.6466 183.123 27.6466C182.878 27.6466 182.679 27.5709 182.524 27.4195C182.37 27.2682 182.293 27.0686 182.293 26.8209C182.293 26.1878 182.614 25.7543 183.258 25.5204C183.116 25.3415 182.859 25.252 182.486 25.252C182.318 25.252 182.196 25.2658 182.119 25.2933C181.63 25.5135 181.27 25.9676 181.039 26.6557C180.267 29.6971 179.881 31.4724 179.881 31.9816C179.881 32.367 179.984 32.6422 180.189 32.8073C180.395 32.9725 180.62 33.0551 180.865 33.0551C181.341 33.0551 181.81 32.828 182.273 32.3738C182.737 31.9197 183.052 31.3623 183.219 30.7018C183.258 30.5641 183.296 30.4885 183.335 30.4747C183.373 30.4609 183.476 30.4472 183.643 30.4334H183.721C183.914 30.4334 184.01 30.4885 184.01 30.5985C184.01 30.6123 183.997 30.688 183.972 30.8256C183.766 31.6101 183.367 32.305 182.775 32.9106C182.183 33.5161 181.495 33.8188 180.71 33.8188C179.81 33.8188 179.128 33.3853 178.665 32.5183C178.138 33.3716 177.533 33.7982 176.851 33.7982H176.735C176.105 33.7982 175.655 33.6193 175.385 33.2615C175.115 32.9037 174.973 32.5252 174.96 32.1261C174.96 31.6857 175.082 31.3279 175.327 31.0527C175.571 30.7775 175.861 30.6398 176.195 30.6398C176.748 30.6398 177.025 30.9288 177.025 31.5068C177.025 31.7821 176.948 32.0229 176.793 32.2293C176.639 32.4358 176.491 32.5734 176.35 32.6422C176.208 32.711 176.124 32.7454 176.099 32.7454L176.041 32.7661C176.041 32.7798 176.079 32.8073 176.157 32.8486C176.234 32.8899 176.337 32.9381 176.465 32.9931C176.594 33.0482 176.716 33.0688 176.832 33.0551C177.295 33.0551 177.694 32.7454 178.028 32.1261C178.144 31.9059 178.292 31.438 178.472 30.7224C178.652 30.0068 178.832 29.2636 179.012 28.493C179.193 27.7223 179.295 27.2682 179.321 27.1305C179.385 26.759 179.418 26.4906 179.418 26.3255C179.418 25.9401 179.321 25.6649 179.128 25.4997C178.935 25.3346 178.717 25.252 178.472 25.252C177.958 25.252 177.475 25.4722 177.025 25.9126C176.575 26.353 176.259 26.9172 176.079 27.6053C176.054 27.7292 176.021 27.798 175.983 27.8118C175.944 27.8255 175.841 27.8393 175.674 27.853H175.404C175.327 27.7705 175.288 27.6948 175.288 27.626Z" fill="" stroke="#5F5B80" stroke-width="0.2"/>
<path d="M186.632 28.1494C187.141 27.3613 187.837 26.9672 188.719 26.9672C189.155 26.9672 189.592 27.0937 190.029 27.3467C190.465 27.5997 190.82 28.0472 191.093 28.6894C191.429 29.497 191.597 30.6062 191.597 32.017C191.597 33.5251 191.402 34.678 191.011 35.4759C190.829 35.8845 190.579 36.2105 190.261 36.4537C189.942 36.697 189.665 36.8478 189.428 36.9061C189.192 36.9645 188.96 36.9986 188.733 37.0083C188.496 37.0083 188.26 36.9791 188.023 36.9207C187.787 36.8624 187.509 36.7067 187.191 36.4537C186.873 36.2007 186.623 35.8748 186.441 35.4759C186.05 34.678 185.854 33.5251 185.854 32.017C185.854 30.324 186.113 29.0348 186.632 28.1494ZM189.701 27.9743C189.428 27.6629 189.105 27.5072 188.733 27.5072C188.351 27.5072 188.023 27.6629 187.75 27.9743C187.523 28.2272 187.373 28.5775 187.3 29.0251C187.227 29.4726 187.191 30.4067 187.191 31.8272C187.191 33.3645 187.227 34.3764 187.3 34.8629C187.373 35.3494 187.537 35.7337 187.791 36.0159C188.046 36.3078 188.36 36.4537 188.733 36.4537C189.096 36.4537 189.406 36.3078 189.66 36.0159C189.924 35.724 190.088 35.3153 190.151 34.7899C190.215 34.2645 190.251 33.277 190.261 31.8272C190.261 30.4164 190.224 29.4872 190.151 29.0397C190.079 28.5921 189.929 28.237 189.701 27.9743Z" fill="" stroke="#5F5B80" stroke-width="0.2"/>
<path d="M194.266 18.1304L194.343 18.1097C194.407 18.1097 194.472 18.1097 194.536 18.1097H194.768L195.308 18.6052C196.517 19.7749 197.398 21.2337 197.951 22.9815C198.505 24.7292 198.781 26.5458 198.781 28.4312C198.781 29.367 198.717 30.2684 198.588 31.1354C198.46 32.0024 198.312 32.7387 198.144 33.3442C197.977 33.9498 197.739 34.5553 197.43 35.1608C197.122 35.7663 196.877 36.2274 196.697 36.5439C196.517 36.8604 196.253 37.2113 195.906 37.5967C195.559 37.982 195.353 38.2091 195.289 38.2779C195.224 38.3467 195.076 38.4774 194.845 38.6701C194.806 38.7114 194.78 38.7389 194.768 38.7527H194.536C194.433 38.7527 194.362 38.7527 194.324 38.7527C194.285 38.7527 194.253 38.732 194.227 38.6908C194.202 38.6495 194.182 38.5875 194.169 38.505C194.182 38.4912 194.253 38.4018 194.382 38.2366C196.376 36.0209 197.373 32.7525 197.373 28.4312C197.373 24.11 196.376 20.8415 194.382 18.6258C194.253 18.4607 194.182 18.3712 194.169 18.3575C194.169 18.2474 194.202 18.1717 194.266 18.1304Z" fill="" stroke="#5F5B80" stroke-width="0.2"/>
<path d="M205.981 28.6981C205.981 28.6981 205.981 28.6087 205.981 28.4297C205.981 28.2508 206.071 28.1132 206.251 28.0169H212.02V24.9204L212.04 21.824C212.168 21.6451 212.291 21.5556 212.406 21.5556C212.574 21.5556 212.702 21.6589 212.792 21.8653V28.0169H218.543C218.736 28.127 218.832 28.2646 218.832 28.4297C218.832 28.5949 218.736 28.7325 218.543 28.8426H212.792V34.9942C212.689 35.1869 212.574 35.2832 212.445 35.2832H212.406H212.368C212.213 35.2832 212.098 35.1869 212.02 34.9942V28.8426H206.251C206.071 28.7463 205.981 28.6087 205.981 28.4297V28.6981Z" fill="" stroke="#5F5B80" stroke-width="0.2"/>
<path d="M233.119 33.5906C232.888 33.5493 232.058 33.5286 230.63 33.5286C229.138 33.5286 228.276 33.5493 228.044 33.5906H227.871V32.641H228.469C228.726 32.641 228.9 32.641 228.99 32.641C229.08 32.641 229.189 32.6272 229.318 32.5997C229.446 32.5722 229.537 32.5378 229.588 32.4965C229.639 32.4552 229.684 32.4002 229.723 32.3314C229.736 32.3038 229.742 31.9323 229.742 31.2166V30.1845H224.745V29.2349L227.658 24.4664C229.627 21.2736 230.624 19.6704 230.649 19.6566C230.675 19.6291 230.81 19.6153 231.054 19.6153H231.402L231.518 19.7392V29.2349H233.293V30.1845H231.518V31.2373C231.518 31.8015 231.518 32.1318 231.518 32.2281C231.518 32.3245 231.556 32.407 231.633 32.4759C231.736 32.5722 232.103 32.6272 232.733 32.641H233.293V33.5906H233.119ZM229.858 29.2349V22.3402L225.632 29.2143L227.736 29.2349H229.858Z" fill="" stroke="#5F5B80" stroke-width="0.2"/>
<path d="M236.128 36.9341C236.153 36.9341 236.192 36.9479 236.244 36.9754C236.295 37.0029 236.366 37.0236 236.456 37.0373C236.546 37.0511 236.623 37.058 236.687 37.058C236.855 37.058 237.009 36.9685 237.15 36.7896C237.292 36.6107 237.395 36.4112 237.459 36.191C237.588 35.8194 237.807 34.7666 238.115 33.0326C238.424 31.2986 238.72 29.6472 239.003 28.0783C239.286 26.5094 239.427 25.7181 239.427 25.7044V25.6424H238.521C237.916 25.6424 237.594 25.6287 237.556 25.6012C237.504 25.5599 237.479 25.4911 237.479 25.3947L237.614 24.8167C237.639 24.7479 237.691 24.7135 237.768 24.7135C237.845 24.7135 238.147 24.7066 238.675 24.6929C239.292 24.6929 239.601 24.686 239.601 24.6722C239.601 24.6447 239.659 24.3006 239.775 23.6401C239.891 22.9795 239.968 22.5804 240.006 22.4428C240.482 20.1721 241.421 19.0367 242.824 19.0367C243.3 19.0642 243.692 19.2156 244.001 19.4908C244.309 19.7661 244.464 20.1308 244.464 20.5849C244.464 21.0804 244.329 21.4382 244.059 21.6584C243.788 21.8785 243.518 21.9955 243.248 22.0093C242.682 22.0093 242.399 21.7203 242.399 21.1423C242.399 20.8808 242.47 20.6537 242.611 20.4611C242.753 20.2684 242.907 20.1239 243.074 20.0276L243.248 19.9243C243.042 19.8418 242.849 19.8005 242.669 19.8005C242.515 19.8005 242.367 19.8693 242.225 20.0069C242.084 20.1445 241.987 20.3372 241.936 20.5849C241.846 20.984 241.743 21.5207 241.627 22.1951C241.511 22.8694 241.409 23.4405 241.318 23.9084C241.228 24.3763 241.183 24.6241 241.183 24.6516C241.183 24.6791 241.537 24.6929 242.245 24.6929C242.824 24.6929 243.158 24.6997 243.248 24.7135C243.338 24.7273 243.409 24.7686 243.46 24.8374C243.473 24.8924 243.46 25.0094 243.422 25.1883C243.383 25.3672 243.351 25.4773 243.325 25.5186C243.3 25.5874 243.242 25.6218 243.152 25.6218C243.062 25.6218 242.714 25.6287 242.11 25.6424H241.029L240.585 28.1609C239.968 31.5738 239.537 33.707 239.292 34.5602C238.945 35.73 238.495 36.597 237.942 37.1612C237.466 37.6016 236.996 37.8218 236.533 37.8218C236.121 37.8218 235.748 37.691 235.414 37.4296C235.079 37.1681 234.912 36.7965 234.912 36.3148C234.912 35.8056 235.047 35.4341 235.317 35.2001C235.587 34.9662 235.858 34.8492 236.128 34.8492C236.694 34.8492 236.977 35.1382 236.977 35.7162C236.977 35.9777 236.906 36.2047 236.765 36.3974C236.623 36.5901 236.469 36.7346 236.301 36.8309L236.128 36.9341Z" fill="" stroke="#5F5B80" stroke-width="0.2"/>
<path d="M246.279 28.4312C246.279 27.4816 246.343 26.5802 246.472 25.727C246.6 24.8737 246.748 24.1375 246.915 23.5182C247.083 22.8989 247.321 22.2934 247.629 21.7016C247.938 21.1099 248.182 20.6488 248.363 20.3185C248.543 19.9883 248.813 19.6304 249.173 19.2451C249.533 18.8598 249.745 18.6258 249.81 18.5432C249.874 18.4607 250.035 18.3162 250.292 18.1097H250.543H250.62C250.8 18.1097 250.89 18.1717 250.89 18.2955C250.89 18.3368 250.781 18.4813 250.562 18.729C250.344 18.9768 250.08 19.3414 249.771 19.8231C249.462 20.3048 249.147 20.8965 248.826 21.5984C248.504 22.3003 248.234 23.2498 248.015 24.4471C247.797 25.6444 247.687 26.9724 247.687 28.4312C247.687 29.89 247.797 31.2111 248.015 32.3947C248.234 33.5782 248.498 34.5346 248.806 35.264C249.115 35.9934 249.43 36.5852 249.752 37.0393C250.073 37.4935 250.344 37.8582 250.562 38.1334C250.781 38.4086 250.89 38.5531 250.89 38.5669C250.89 38.6908 250.794 38.7527 250.601 38.7527H250.543H250.292L249.752 38.2573C248.543 37.0875 247.661 35.6287 247.108 33.881C246.555 32.1332 246.279 30.3166 246.279 28.4312Z" fill="" stroke="#5F5B80" stroke-width="0.2"/>
<path d="M252.976 27.6235C253.066 27.0455 253.413 26.3781 254.018 25.6212C254.622 24.8642 255.368 24.4789 256.256 24.4652C256.706 24.4652 257.118 24.589 257.491 24.8367C257.864 25.0844 258.141 25.3941 258.321 25.7657C258.861 24.8987 259.511 24.4652 260.27 24.4652C260.746 24.4652 261.157 24.6165 261.505 24.9193C261.852 25.2221 262.032 25.628 262.045 26.1372C262.045 26.5363 261.955 26.8597 261.775 27.1074C261.595 27.3552 261.421 27.5065 261.254 27.5616C261.087 27.6166 260.939 27.6442 260.81 27.6442C260.566 27.6442 260.366 27.5685 260.212 27.4171C260.057 27.2657 259.98 27.0662 259.98 26.8184C259.98 26.1854 260.302 25.7519 260.945 25.5179C260.804 25.339 260.546 25.2496 260.173 25.2496C260.006 25.2496 259.884 25.2633 259.807 25.2909C259.318 25.5111 258.958 25.9652 258.726 26.6533C257.954 29.6947 257.568 31.47 257.568 31.9792C257.568 32.3645 257.671 32.6398 257.877 32.8049C258.083 32.97 258.308 33.0526 258.552 33.0526C259.028 33.0526 259.498 32.8255 259.961 32.3714C260.424 31.9173 260.739 31.3599 260.906 30.6993C260.945 30.5617 260.984 30.486 261.022 30.4722C261.061 30.4585 261.164 30.4447 261.331 30.431H261.408C261.601 30.431 261.698 30.486 261.698 30.5961C261.698 30.6099 261.685 30.6856 261.659 30.8232C261.453 31.6076 261.054 32.3026 260.463 32.9081C259.871 33.5136 259.183 33.8164 258.398 33.8164C257.497 33.8164 256.816 33.3829 256.353 32.5159C255.825 33.3691 255.221 33.7958 254.539 33.7958H254.423C253.793 33.7958 253.342 33.6169 253.072 33.259C252.802 32.9012 252.661 32.5228 252.648 32.1237C252.648 31.6833 252.77 31.3255 253.014 31.0503C253.259 30.775 253.548 30.6374 253.883 30.6374C254.436 30.6374 254.712 30.9264 254.712 31.5044C254.712 31.7796 254.635 32.0205 254.481 32.2269C254.326 32.4333 254.179 32.5709 254.037 32.6398C253.896 32.7086 253.812 32.743 253.786 32.743L253.728 32.7636C253.728 32.7774 253.767 32.8049 253.844 32.8462C253.921 32.8875 254.024 32.9356 254.153 32.9907C254.281 33.0457 254.404 33.0664 254.519 33.0526C254.983 33.0526 255.381 32.743 255.716 32.1237C255.832 31.9035 255.98 31.4356 256.16 30.72C256.34 30.0043 256.52 29.2612 256.7 28.4905C256.88 27.7199 256.983 27.2657 257.009 27.1281C257.073 26.7565 257.105 26.4882 257.105 26.323C257.105 25.9377 257.009 25.6624 256.816 25.4973C256.623 25.3322 256.404 25.2496 256.16 25.2496C255.645 25.2496 255.163 25.4698 254.712 25.9102C254.262 26.3505 253.947 26.9148 253.767 27.6029C253.741 27.7267 253.709 27.7955 253.67 27.8093C253.632 27.8231 253.529 27.8368 253.362 27.8506H253.092C253.014 27.768 252.976 27.6923 252.976 27.6235Z" fill="" stroke="#5F5B80" stroke-width="0.2"/>
<path d="M265.917 28.2506L265.739 28.3236C265.612 28.3722 265.43 28.4209 265.194 28.4695C264.957 28.5182 264.693 28.5522 264.402 28.5717H264.143V27.9004H264.402C264.83 27.8809 265.225 27.8079 265.589 27.6814C265.953 27.5549 266.208 27.4382 266.353 27.3312C266.499 27.2241 266.626 27.1171 266.735 27.0101C266.753 26.9809 266.808 26.9663 266.899 26.9663C266.981 26.9663 267.058 26.9955 267.131 27.0539V31.4176L267.144 35.796C267.208 35.8641 267.263 35.9079 267.308 35.9274C267.354 35.9468 267.463 35.9663 267.636 35.9857C267.808 36.0052 268.09 36.0149 268.481 36.0149H268.836V36.6863H268.686C268.495 36.6571 267.772 36.6425 266.517 36.6425C265.28 36.6425 264.566 36.6571 264.375 36.6863H264.211V36.0149H264.566C264.766 36.0149 264.939 36.0149 265.084 36.0149C265.23 36.0149 265.344 36.0101 265.425 36.0003C265.507 35.9906 265.58 35.976 265.644 35.9566C265.707 35.9371 265.744 35.9274 265.753 35.9274C265.762 35.9274 265.789 35.903 265.835 35.8544C265.88 35.8057 265.907 35.7863 265.917 35.796V28.2506Z" fill="" stroke="#5F5B80" stroke-width="0.2"/>
<path d="M271.952 18.1304L272.029 18.1097C272.093 18.1097 272.158 18.1097 272.222 18.1097H272.454L272.994 18.6052C274.203 19.7749 275.084 21.2337 275.638 22.9815C276.191 24.7292 276.467 26.5458 276.467 28.4312C276.467 29.367 276.403 30.2684 276.274 31.1354C276.146 32.0024 275.998 32.7387 275.83 33.3442C275.663 33.9498 275.425 34.5553 275.117 35.1608C274.808 35.7663 274.563 36.2274 274.383 36.5439C274.203 36.8604 273.939 37.2113 273.592 37.5967C273.245 37.982 273.039 38.2091 272.975 38.2779C272.91 38.3467 272.762 38.4774 272.531 38.6701C272.492 38.7114 272.467 38.7389 272.454 38.7527H272.222C272.119 38.7527 272.048 38.7527 272.01 38.7527C271.971 38.7527 271.939 38.732 271.913 38.6908C271.888 38.6495 271.868 38.5875 271.855 38.505C271.868 38.4912 271.939 38.4018 272.068 38.2366C274.062 36.0209 275.059 32.7525 275.059 28.4312C275.059 24.11 274.062 20.8415 272.068 18.6258C271.939 18.4607 271.868 18.3712 271.855 18.3575C271.855 18.2474 271.888 18.1717 271.952 18.1304Z" fill="" stroke="#5F5B80" stroke-width="0.2"/>
<path d="M283.667 28.6981C283.667 28.6981 283.667 28.6087 283.667 28.4297C283.667 28.2508 283.757 28.1132 283.937 28.0169H289.706V24.9204L289.726 21.824C289.854 21.6451 289.977 21.5556 290.092 21.5556C290.26 21.5556 290.388 21.6589 290.478 21.8653V28.0169H296.229C296.422 28.127 296.518 28.2646 296.518 28.4297C296.518 28.5949 296.422 28.7325 296.229 28.8426H290.478V34.9942C290.375 35.1869 290.26 35.2832 290.131 35.2832H290.092H290.054C289.899 35.2832 289.784 35.1869 289.706 34.9942V28.8426H283.937C283.757 28.7463 283.667 28.6087 283.667 28.4297V28.6981Z" fill="" stroke="#5F5B80" stroke-width="0.2"/>
<path d="M303.992 24.7348C303.644 24.7348 303.368 24.6109 303.162 24.3632C302.956 24.1155 302.853 23.8127 302.853 23.4549C302.853 22.4778 303.194 21.6314 303.876 20.9158C304.558 20.2002 305.407 19.8424 306.423 19.8424C307.594 19.8424 308.571 20.2277 309.356 20.9984C310.141 21.7691 310.54 22.7668 310.552 23.9916C310.552 24.5834 310.424 25.1476 310.167 25.6843C309.909 26.221 309.601 26.689 309.24 27.088C308.88 27.4871 308.366 27.9963 307.697 28.6156C307.234 29.0422 306.59 29.6753 305.767 30.5148L304.629 31.6708L306.095 31.6914C308.115 31.6914 309.189 31.657 309.318 31.5882C309.408 31.5607 309.562 30.9483 309.781 29.751V29.6891H310.552V29.751C310.54 29.7923 310.456 30.4184 310.302 31.6295C310.147 32.8405 310.051 33.4736 310.012 33.5286V33.5906H302.853V33.1984V32.9506C302.853 32.8543 302.892 32.7511 302.969 32.641C303.046 32.5309 303.239 32.2901 303.548 31.9185C303.921 31.4781 304.243 31.0928 304.513 30.7625C304.629 30.6249 304.847 30.3703 305.169 29.9987C305.49 29.6271 305.709 29.3725 305.825 29.2349C305.941 29.0973 306.127 28.8702 306.384 28.5537C306.642 28.2372 306.822 28.0032 306.925 27.8518C307.028 27.7005 307.176 27.494 307.369 27.2326C307.562 26.9711 307.697 26.7509 307.774 26.572C307.851 26.3931 307.947 26.1935 308.063 25.9733C308.179 25.7531 308.263 25.5329 308.314 25.3128C308.366 25.0926 308.411 24.8861 308.449 24.6935C308.488 24.5008 308.507 24.2737 308.507 24.0123C308.507 23.1452 308.288 22.3952 307.851 21.7622C307.414 21.1291 306.79 20.8126 305.979 20.8126C305.555 20.8126 305.182 20.9296 304.86 21.1635C304.538 21.3975 304.313 21.6246 304.185 21.8447C304.056 22.0649 303.992 22.1957 303.992 22.237C303.992 22.2507 304.024 22.2576 304.088 22.2576C304.32 22.2576 304.558 22.3539 304.802 22.5466C305.047 22.7393 305.169 23.0558 305.169 23.4962C305.169 23.8402 305.066 24.1292 304.86 24.3632C304.654 24.5971 304.365 24.721 303.992 24.7348Z" fill="" stroke="#5F5B80" stroke-width="0.2"/>
<path d="M313.814 36.9341C313.84 36.9341 313.878 36.9479 313.93 36.9754C313.981 37.0029 314.052 37.0236 314.142 37.0373C314.232 37.0511 314.309 37.058 314.373 37.058C314.541 37.058 314.695 36.9685 314.837 36.7896C314.978 36.6107 315.081 36.4112 315.145 36.191C315.274 35.8194 315.493 34.7666 315.801 33.0326C316.11 31.2986 316.406 29.6472 316.689 28.0783C316.972 26.5094 317.113 25.7181 317.113 25.7044V25.6424H316.207C315.602 25.6424 315.28 25.6287 315.242 25.6012C315.19 25.5599 315.165 25.4911 315.165 25.3947L315.3 24.8167C315.325 24.7479 315.377 24.7135 315.454 24.7135C315.531 24.7135 315.833 24.7066 316.361 24.6929C316.978 24.6929 317.287 24.686 317.287 24.6722C317.287 24.6447 317.345 24.3006 317.461 23.6401C317.577 22.9795 317.654 22.5804 317.692 22.4428C318.168 20.1721 319.107 19.0367 320.51 19.0367C320.986 19.0642 321.378 19.2156 321.687 19.4908C321.995 19.7661 322.15 20.1308 322.15 20.5849C322.15 21.0804 322.015 21.4382 321.745 21.6584C321.474 21.8785 321.204 21.9955 320.934 22.0093C320.368 22.0093 320.085 21.7203 320.085 21.1423C320.085 20.8808 320.156 20.6537 320.297 20.4611C320.439 20.2684 320.593 20.1239 320.76 20.0276L320.934 19.9243C320.728 19.8418 320.535 19.8005 320.355 19.8005C320.201 19.8005 320.053 19.8693 319.911 20.0069C319.77 20.1445 319.673 20.3372 319.622 20.5849C319.532 20.984 319.429 21.5207 319.313 22.1951C319.197 22.8694 319.095 23.4405 319.004 23.9084C318.914 24.3763 318.869 24.6241 318.869 24.6516C318.869 24.6791 319.223 24.6929 319.931 24.6929C320.51 24.6929 320.844 24.6997 320.934 24.7135C321.024 24.7273 321.095 24.7686 321.146 24.8374C321.159 24.8924 321.146 25.0094 321.108 25.1883C321.069 25.3672 321.037 25.4773 321.011 25.5186C320.986 25.5874 320.928 25.6218 320.838 25.6218C320.748 25.6218 320.4 25.6287 319.796 25.6424H318.715L318.271 28.1609C317.654 31.5738 317.223 33.707 316.978 34.5602C316.631 35.73 316.181 36.597 315.628 37.1612C315.152 37.6016 314.682 37.8218 314.219 37.8218C313.807 37.8218 313.434 37.691 313.1 37.4296C312.765 37.1681 312.598 36.7965 312.598 36.3148C312.598 35.8056 312.733 35.4341 313.003 35.2001C313.274 34.9662 313.544 34.8492 313.814 34.8492C314.38 34.8492 314.663 35.1382 314.663 35.7162C314.663 35.9777 314.592 36.2047 314.451 36.3974C314.309 36.5901 314.155 36.7346 313.987 36.8309L313.814 36.9341Z" fill="" stroke="#5F5B80" stroke-width="0.2"/>
<path d="M323.965 28.4312C323.965 27.4816 324.03 26.5802 324.158 25.727C324.287 24.8737 324.435 24.1375 324.602 23.5182C324.769 22.8989 325.007 22.2934 325.316 21.7016C325.625 21.1099 325.869 20.6488 326.049 20.3185C326.229 19.9883 326.5 19.6304 326.86 19.2451C327.22 18.8598 327.432 18.6258 327.497 18.5432C327.561 18.4607 327.722 18.3162 327.979 18.1097H328.23H328.307C328.487 18.1097 328.577 18.1717 328.577 18.2955C328.577 18.3368 328.468 18.4813 328.249 18.729C328.03 18.9768 327.767 19.3414 327.458 19.8231C327.149 20.3048 326.834 20.8965 326.512 21.5984C326.191 22.3003 325.921 23.2498 325.702 24.4471C325.483 25.6444 325.374 26.9724 325.374 28.4312C325.374 29.89 325.483 31.2111 325.702 32.3947C325.921 33.5782 326.184 34.5346 326.493 35.264C326.802 35.9934 327.117 36.5852 327.439 37.0393C327.76 37.4935 328.03 37.8582 328.249 38.1334C328.468 38.4086 328.577 38.5531 328.577 38.5669C328.577 38.6908 328.481 38.7527 328.288 38.7527H328.23H327.979L327.439 38.2573C326.229 37.0875 325.348 35.6287 324.795 33.881C324.242 32.1332 323.965 30.3166 323.965 28.4312Z" fill="" stroke="#5F5B80" stroke-width="0.2"/>
<path d="M330.662 27.6235C330.752 27.0455 331.099 26.3781 331.704 25.6212C332.308 24.8642 333.055 24.4789 333.942 24.4652C334.392 24.4652 334.804 24.589 335.177 24.8367C335.55 25.0844 335.827 25.3941 336.007 25.7657C336.547 24.8987 337.197 24.4652 337.956 24.4652C338.432 24.4652 338.843 24.6165 339.191 24.9193C339.538 25.2221 339.718 25.628 339.731 26.1372C339.731 26.5363 339.641 26.8597 339.461 27.1074C339.281 27.3552 339.107 27.5065 338.94 27.5616C338.773 27.6166 338.625 27.6442 338.496 27.6442C338.252 27.6442 338.052 27.5685 337.898 27.4171C337.743 27.2657 337.666 27.0662 337.666 26.8184C337.666 26.1854 337.988 25.7519 338.631 25.5179C338.49 25.339 338.232 25.2496 337.859 25.2496C337.692 25.2496 337.57 25.2633 337.493 25.2909C337.004 25.5111 336.644 25.9652 336.412 26.6533C335.64 29.6947 335.254 31.47 335.254 31.9792C335.254 32.3645 335.357 32.6398 335.563 32.8049C335.769 32.97 335.994 33.0526 336.238 33.0526C336.714 33.0526 337.184 32.8255 337.647 32.3714C338.11 31.9173 338.425 31.3599 338.593 30.6993C338.631 30.5617 338.67 30.486 338.708 30.4722C338.747 30.4585 338.85 30.4447 339.017 30.431H339.094C339.287 30.431 339.384 30.486 339.384 30.5961C339.384 30.6099 339.371 30.6856 339.345 30.8232C339.139 31.6076 338.74 32.3026 338.149 32.9081C337.557 33.5136 336.869 33.8164 336.084 33.8164C335.184 33.8164 334.502 33.3829 334.039 32.5159C333.511 33.3691 332.907 33.7958 332.225 33.7958H332.109C331.479 33.7958 331.028 33.6169 330.758 33.259C330.488 32.9012 330.347 32.5228 330.334 32.1237C330.334 31.6833 330.456 31.3255 330.7 31.0503C330.945 30.775 331.234 30.6374 331.569 30.6374C332.122 30.6374 332.398 30.9264 332.398 31.5044C332.398 31.7796 332.321 32.0205 332.167 32.2269C332.013 32.4333 331.865 32.5709 331.723 32.6398C331.582 32.7086 331.498 32.743 331.472 32.743L331.414 32.7636C331.414 32.7774 331.453 32.8049 331.53 32.8462C331.607 32.8875 331.71 32.9356 331.839 32.9907C331.967 33.0457 332.09 33.0664 332.205 33.0526C332.669 33.0526 333.067 32.743 333.402 32.1237C333.518 31.9035 333.666 31.4356 333.846 30.72C334.026 30.0043 334.206 29.2612 334.386 28.4905C334.566 27.7199 334.669 27.2657 334.695 27.1281C334.759 26.7565 334.791 26.4882 334.791 26.323C334.791 25.9377 334.695 25.6624 334.502 25.4973C334.309 25.3322 334.09 25.2496 333.846 25.2496C333.331 25.2496 332.849 25.4698 332.398 25.9102C331.948 26.3505 331.633 26.9148 331.453 27.6029C331.427 27.7267 331.395 27.7955 331.356 27.8093C331.318 27.8231 331.215 27.8368 331.048 27.8506H330.778C330.7 27.768 330.662 27.6923 330.662 27.6235Z" fill="" stroke="#5F5B80" stroke-width="0.2"/>
<path d="M342.181 30.4252C341.936 30.4252 341.74 30.3376 341.595 30.1625C341.449 29.9874 341.376 29.7733 341.376 29.5203C341.376 28.8295 341.617 28.2312 342.1 27.7252C342.582 27.2193 343.182 26.9663 343.9 26.9663C344.728 26.9663 345.419 27.2387 345.974 27.7836C346.529 28.3285 346.811 29.0339 346.82 29.8998C346.82 30.3182 346.729 30.7171 346.547 31.0966C346.365 31.476 346.147 31.8068 345.892 32.089C345.637 32.3712 345.274 32.7312 344.801 33.169C344.473 33.4706 344.019 33.9182 343.436 34.5117L342.632 35.329L343.668 35.3436C345.096 35.3436 345.856 35.3193 345.947 35.2706C346.01 35.2511 346.119 34.8182 346.274 33.9717V33.9279H346.82V33.9717C346.811 34.0009 346.752 34.4436 346.642 35.2998C346.533 36.156 346.465 36.6036 346.438 36.6425V36.6863H341.376V36.409V36.2338C341.376 36.1657 341.404 36.0928 341.458 36.0149C341.513 35.9371 341.649 35.7668 341.868 35.5041C342.131 35.1928 342.359 34.9203 342.55 34.6868C342.632 34.5895 342.786 34.4095 343.014 34.1468C343.241 33.8841 343.396 33.7041 343.477 33.6068C343.559 33.5095 343.691 33.349 343.873 33.1252C344.055 32.9014 344.182 32.736 344.255 32.629C344.328 32.522 344.432 32.376 344.569 32.1912C344.705 32.0063 344.801 31.8506 344.855 31.7241C344.91 31.5976 344.978 31.4566 345.06 31.3009C345.142 31.1452 345.201 30.9895 345.237 30.8339C345.274 30.6782 345.305 30.5322 345.333 30.396C345.36 30.2598 345.374 30.0993 345.374 29.9144C345.374 29.3014 345.219 28.7712 344.91 28.3236C344.601 27.876 344.16 27.6522 343.587 27.6522C343.286 27.6522 343.023 27.7349 342.795 27.9004C342.568 28.0658 342.409 28.2263 342.318 28.382C342.227 28.5377 342.181 28.6301 342.181 28.6593C342.181 28.669 342.204 28.6739 342.25 28.6739C342.413 28.6739 342.582 28.742 342.754 28.8782C342.927 29.0144 343.014 29.2382 343.014 29.5495C343.014 29.7928 342.941 29.9971 342.795 30.1625C342.65 30.3279 342.445 30.4155 342.181 30.4252Z" fill="" stroke="#5F5B80" stroke-width="0.2"/>
<path d="M349.636 18.1304L349.713 18.1097C349.777 18.1097 349.842 18.1097 349.906 18.1097H350.137L350.678 18.6052C351.887 19.7749 352.768 21.2337 353.321 22.9815C353.875 24.7292 354.151 26.5458 354.151 28.4312C354.151 29.367 354.087 30.2684 353.958 31.1354C353.829 32.0024 353.682 32.7387 353.514 33.3442C353.347 33.9498 353.109 34.5553 352.8 35.1608C352.492 35.7663 352.247 36.2274 352.067 36.5439C351.887 36.8604 351.623 37.2113 351.276 37.5967C350.929 37.982 350.723 38.2091 350.658 38.2779C350.594 38.3467 350.446 38.4774 350.215 38.6701C350.176 38.7114 350.15 38.7389 350.137 38.7527H349.906C349.803 38.7527 349.732 38.7527 349.694 38.7527C349.655 38.7527 349.623 38.732 349.597 38.6908C349.571 38.6495 349.552 38.5875 349.539 38.505C349.552 38.4912 349.623 38.4018 349.752 38.2366C351.746 36.0209 352.742 32.7525 352.742 28.4312C352.742 24.11 351.746 20.8415 349.752 18.6258C349.623 18.4607 349.552 18.3712 349.539 18.3575C349.539 18.2474 349.571 18.1717 349.636 18.1304Z" fill="" stroke="#5F5B80" stroke-width="0.2"/>
<path d="M357.068 28.6981C357.068 28.6981 357.068 28.6087 357.068 28.4297C357.068 28.2508 357.158 28.1132 357.338 28.0169H363.108V24.9204L363.127 21.824C363.256 21.6451 363.378 21.5556 363.494 21.5556C363.661 21.5556 363.789 21.6589 363.879 21.8653V28.0169H369.63C369.823 28.127 369.919 28.2646 369.919 28.4297C369.919 28.5949 369.823 28.7325 369.63 28.8426H363.879V34.9942C363.777 35.1869 363.661 35.2832 363.532 35.2832H363.494H363.455C363.301 35.2832 363.185 35.1869 363.108 34.9942V28.8426H357.338C357.158 28.7463 357.068 28.6087 357.068 28.4297V28.6981Z" fill="" stroke="#5F5B80" stroke-width="0.2"/>
<path d="M372.506 32.352C372.506 32.0217 372.615 31.7327 372.834 31.485C373.053 31.2373 373.329 31.1134 373.664 31.1134C373.973 31.1134 374.243 31.2235 374.474 31.4437C374.706 31.6639 374.828 31.9598 374.841 32.3314C374.841 32.6754 374.732 32.9713 374.513 33.219C374.294 33.4667 374.018 33.5906 373.683 33.5906C373.349 33.5906 373.072 33.4736 372.853 33.2396C372.635 33.0057 372.519 32.7098 372.506 32.352Z" fill="" stroke="#5F5B80" stroke-width="0.2"/>
<path d="M381.084 32.352C381.084 32.0217 381.193 31.7327 381.412 31.485C381.631 31.2373 381.907 31.1134 382.242 31.1134C382.55 31.1134 382.821 31.2235 383.052 31.4437C383.284 31.6639 383.406 31.9598 383.419 32.3314C383.419 32.6754 383.309 32.9713 383.091 33.219C382.872 33.4667 382.596 33.5906 382.261 33.5906C381.927 33.5906 381.65 33.4736 381.431 33.2396C381.213 33.0057 381.097 32.7098 381.084 32.352Z" fill="" stroke="#5F5B80" stroke-width="0.2"/>
<path d="M389.665 32.352C389.665 32.0217 389.774 31.7327 389.993 31.485C390.212 31.2373 390.488 31.1134 390.823 31.1134C391.132 31.1134 391.402 31.2235 391.633 31.4437C391.865 31.6639 391.987 31.9598 392 32.3314C392 32.6754 391.891 32.9713 391.672 33.219C391.453 33.4667 391.177 33.5906 390.842 33.5906C390.508 33.5906 390.231 33.4736 390.012 33.2396C389.794 33.0057 389.678 32.7098 389.665 32.352Z" fill="" stroke="#5F5B80" stroke-width="0.2"/>
</svg>
