<svg width="188" height="188" viewBox="0 0 188 188" fill="none" xmlns="http://www.w3.org/2000/svg">
<path fill-rule="evenodd" clip-rule="evenodd" d="M89.6898 35.3781L119.61 61.5948L97.8624 86.4149L67.9421 60.1981L89.6898 35.3781ZM89.9053 38.3092L116.676 61.7662L97.6469 83.4838L70.876 60.0267L89.9053 38.3092Z" fill="white" fill-opacity="0.6"/>
<path fill-rule="evenodd" clip-rule="evenodd" d="M89.2588 29.5159L56.6371 66.746L99.1556 104.001L131.777 66.7713L89.2588 29.5159ZM128.843 66.9427L89.4743 32.447L59.5711 66.5746L98.9401 101.07L128.843 66.9427Z" fill="white" fill-opacity="0.6"/>
<path fill-rule="evenodd" clip-rule="evenodd" d="M88.8277 23.6537L143.944 71.9477L100.449 121.588L45.3322 73.2939L88.8277 23.6537ZM89.0432 26.5848L141.01 72.1192L100.233 118.657L48.2662 73.1224L89.0432 26.5848Z" fill="white" fill-opacity="0.6"/>
<path fill-rule="evenodd" clip-rule="evenodd" d="M88.3967 17.7916L34.0273 79.8417L100.167 137.795L154.536 75.7444L88.3967 17.7916ZM151.602 75.9158L88.6122 20.7227L36.9613 79.6703L99.9516 134.863L151.602 75.9158Z" fill="white" fill-opacity="0.6"/>
<path fill-rule="evenodd" clip-rule="evenodd" d="M87.9656 11.9294L165.129 79.541L99.8855 154.001L22.7224 86.3896L87.9656 11.9294ZM88.1811 14.8605L162.195 79.7124L99.67 151.07L25.6564 86.2182L88.1811 14.8605Z" fill="white" fill-opacity="0.6"/>
<path fill-rule="evenodd" clip-rule="evenodd" d="M87.5346 6.06724L11.4174 92.9375L99.6039 170.208L175.721 83.3376L87.5346 6.06724ZM172.787 83.5091L87.7501 8.99833L14.3514 92.766L99.3884 167.277L172.787 83.5091Z" fill="white" fill-opacity="0.6"/>
<path fill-rule="evenodd" clip-rule="evenodd" d="M87.1035 0.205078L0.112529 99.4853L100.897 187.794L187.888 88.5141L87.1035 0.205078ZM184.954 88.6855L87.319 3.13616L3.04652 99.3139L100.682 184.863L184.954 88.6855Z" fill="white" fill-opacity="0.6"/>
</svg>
