<svg width="336" height="26" viewBox="0 0 336 26" fill="none" xmlns="http://www.w3.org/2000/svg">
<path d="M11.8764 3.72365L11.8764 3.72348C11.8811 3.70541 11.8866 3.68546 11.893 3.66282C11.8943 3.65817 11.8956 3.6534 11.897 3.64852C11.9048 3.6205 11.9133 3.5895 11.9211 3.5574C11.9365 3.49423 11.9506 3.42135 11.9506 3.35141C11.9506 3.27561 11.9309 3.21146 11.8946 3.15996C11.8588 3.10919 11.8116 3.07733 11.7669 3.05744C11.6822 3.0198 11.5938 3.01986 11.5679 3.01987L11.5664 3.01987C11.5585 3.01987 11.5317 3.02187 11.501 3.02418L11.3617 3.03502C11.2476 3.04408 11.0964 3.05639 10.9423 3.06943C10.7883 3.08247 10.631 3.09625 10.5048 3.10823C10.3894 3.11918 10.2933 3.12919 10.2523 3.13616C10.0592 3.14739 9.87685 3.16385 9.69413 3.18036L9.672 3.18235C9.47956 3.19972 9.28583 3.21694 9.07471 3.2284L9.07471 3.22838L9.07234 3.22856C8.92515 3.24007 8.79994 3.25045 8.6968 3.26632C8.59441 3.28207 8.50426 3.30446 8.43098 3.34488C8.35364 3.38755 8.29842 3.44843 8.26481 3.53181C8.23293 3.6109 8.22241 3.70555 8.22241 3.81448C8.22241 3.88549 8.23693 3.95128 8.27544 4.00593C8.31436 4.06117 8.3694 4.09319 8.42757 4.11215C8.4843 4.13064 8.54924 4.13846 8.61649 4.14224C8.68368 4.14602 8.76001 4.14602 8.84129 4.14602H8.84335C9.13092 4.14602 9.3449 4.15896 9.50396 4.18123C9.66401 4.20363 9.76252 4.23472 9.82312 4.26726C9.88048 4.29805 9.90172 4.32876 9.91232 4.3559C9.92498 4.38831 9.9273 4.42697 9.9273 4.48593C9.9273 4.60939 9.88357 4.78287 9.86161 4.84728L9.86133 4.84718L9.8594 4.85468L8.48262 10.2175C8.15862 9.61967 7.50848 8.87772 6.38073 8.87772C5.00224 8.87772 3.58551 9.74602 2.51809 11.0324C1.44903 12.3208 0.716162 14.0445 0.716162 15.7849C0.716162 18.1194 2.12221 19.52 3.79972 19.52C4.47667 19.52 5.09948 19.2613 5.63354 18.9102C6.10022 18.6034 6.50323 18.2234 6.82104 17.8748C6.97082 18.4747 7.29568 18.8782 7.67428 19.1352C8.09024 19.4174 8.56648 19.52 8.93806 19.52C9.69816 19.52 10.295 19.0697 10.732 18.2152L10.732 18.2152L10.7331 18.213C10.9264 17.8113 11.1059 17.2545 11.2365 16.7902C11.302 16.5573 11.3556 16.346 11.393 16.1868C11.4116 16.1073 11.4263 16.0403 11.4364 15.9899C11.4414 15.9647 11.4454 15.9431 11.4482 15.9258C11.4506 15.911 11.4533 15.8924 11.4533 15.8775C11.4533 15.6976 11.3045 15.5691 11.1165 15.5691C11.0551 15.5691 10.997 15.5773 10.9446 15.6026C10.8903 15.6288 10.8512 15.6691 10.8211 15.7181C10.7924 15.7649 10.771 15.8214 10.7515 15.8832C10.7346 15.9365 10.7175 15.9994 10.6982 16.0703C10.6951 16.0819 10.6918 16.0938 10.6885 16.1059L10.6882 16.107C10.5104 16.791 10.3115 17.4867 10.0392 18.0107C9.7649 18.5386 9.43525 18.8569 9.0091 18.8569C8.85228 18.8569 8.73998 18.8227 8.65803 18.771C8.57622 18.7194 8.51749 18.646 8.47511 18.5556C8.38799 18.3697 8.37505 18.1244 8.37505 17.8918V17.8915C8.37505 17.8021 8.37505 17.3256 8.53769 16.6895L11.8764 3.72365ZM8.06757 11.8496L8.06254 11.8595L8.05977 11.8703L6.90002 16.4064C6.89254 16.4312 6.88557 16.4546 6.87901 16.4765C6.83284 16.6311 6.80659 16.719 6.7614 16.812C6.70998 16.9179 6.6328 17.0322 6.46755 17.2516C6.2111 17.5705 5.82732 17.9738 5.37272 18.2965C4.91649 18.6204 4.39808 18.8569 3.87075 18.8569C3.41962 18.8569 3.07154 18.6602 2.83208 18.3022C2.58953 17.9396 2.4553 17.406 2.4553 16.7342C2.4553 16.1109 2.63595 15.1546 2.87539 14.2267C3.11432 13.3008 3.40824 12.4168 3.62943 11.9383C4.42829 10.3308 5.51471 9.54079 6.38073 9.54079C7.11221 9.54079 7.55208 9.98175 7.81437 10.4612C7.94562 10.7012 8.0303 10.9478 8.0821 11.1461C8.13233 11.3385 8.14986 11.4784 8.15128 11.5196C8.15102 11.5212 8.15062 11.5235 8.15001 11.5267C8.14827 11.536 8.14562 11.5488 8.1422 11.5644C8.1354 11.5956 8.12599 11.6359 8.11581 11.6772C8.10561 11.7185 8.09482 11.76 8.08527 11.7935C8.08048 11.8104 8.07619 11.8245 8.0726 11.8354C8.06988 11.8436 8.06823 11.8478 8.06764 11.8493C8.06736 11.85 8.06733 11.8501 8.06757 11.8496Z" fill="" stroke="#5F5B80" stroke-width="0.2"/>
<path d="M22.1689 2.71413L22.1749 2.69756V2.69204L22.176 2.68853C22.1794 2.67829 22.1845 2.66385 22.1911 2.6458C22.1997 2.62217 22.2101 2.59433 22.2213 2.56434C22.2273 2.54842 22.2335 2.5319 22.2397 2.51508C22.2575 2.4673 22.2757 2.41757 22.2896 2.37656C22.2965 2.35614 22.3027 2.33672 22.3073 2.3202C22.3106 2.30811 22.317 2.28472 22.317 2.26316C22.317 1.92122 22.0262 1.72324 21.7908 1.72324L21.7892 1.72324C21.7264 1.72324 21.6174 1.72323 21.5 1.80476C21.3847 1.88473 21.2745 2.03335 21.1761 2.29776L21.1759 2.29841L13.2434 24.0859L13.2374 24.1025V24.108L13.2363 24.1115C13.2329 24.1217 13.2278 24.1362 13.2212 24.1542C13.2126 24.1779 13.2022 24.2057 13.191 24.2357C13.1851 24.2516 13.1789 24.2681 13.1726 24.285C13.1549 24.3327 13.1366 24.3825 13.1228 24.4235C13.1159 24.4439 13.1097 24.4633 13.1051 24.4798C13.1017 24.4919 13.0953 24.5153 13.0953 24.5369C13.0953 24.8788 13.3862 25.0768 13.6215 25.0768C13.6996 25.0768 13.8144 25.0706 13.9318 24.9854C14.0466 24.9021 14.1504 24.7536 14.2368 24.5007C14.2369 24.5003 14.237 24.5 14.2371 24.4997L22.1689 2.71413ZM22.173 2.69817L22.1731 2.69798C22.1726 2.70029 22.1724 2.70066 22.173 2.69817ZM13.2393 24.1019L13.2392 24.1021C13.2397 24.0997 13.24 24.0994 13.2393 24.1019Z" fill="" stroke="#5F5B80" stroke-width="0.2"/>
<path d="M35.5165 3.72365L35.5166 3.72348C35.5212 3.70541 35.5268 3.68546 35.5331 3.66282C35.5344 3.65817 35.5357 3.6534 35.5371 3.64852C35.5449 3.6205 35.5534 3.5895 35.5612 3.5574C35.5766 3.49423 35.5907 3.42135 35.5907 3.35141C35.5907 3.27561 35.571 3.21146 35.5347 3.15996C35.499 3.10919 35.4518 3.07733 35.407 3.05744C35.3223 3.0198 35.2339 3.01986 35.208 3.01987L35.2066 3.01987C35.1987 3.01987 35.1718 3.02187 35.1412 3.02418L35.0018 3.03502C34.8877 3.04408 34.7366 3.05639 34.5825 3.06943C34.4284 3.08247 34.2712 3.09625 34.1449 3.10823C34.0296 3.11918 33.9334 3.12919 33.8924 3.13616C33.6993 3.14739 33.517 3.16385 33.3343 3.18036L33.3121 3.18235C33.1197 3.19972 32.926 3.21694 32.7148 3.2284L32.7148 3.22838L32.7125 3.22856C32.5653 3.24007 32.4401 3.25045 32.3369 3.26632C32.2345 3.28207 32.1444 3.30446 32.0711 3.34488C31.9938 3.38755 31.9386 3.44843 31.9049 3.53181C31.8731 3.6109 31.8625 3.70555 31.8625 3.81448C31.8625 3.88549 31.8771 3.95128 31.9156 4.00593C31.9545 4.06117 32.0095 4.09319 32.0677 4.11215C32.1244 4.13064 32.1894 4.13846 32.2566 4.14224C32.3238 4.14602 32.4001 4.14602 32.4814 4.14602H32.4835C32.7711 4.14602 32.985 4.15896 33.1441 4.18123C33.3041 4.20363 33.4027 4.23472 33.4633 4.26726C33.5206 4.29805 33.5419 4.32876 33.5525 4.3559C33.5651 4.38831 33.5674 4.42697 33.5674 4.48593C33.5674 4.60939 33.5237 4.78287 33.5017 4.84728L33.5015 4.84718L33.4995 4.85468L32.1228 10.2175C31.7988 9.61967 31.1486 8.87772 30.0209 8.87772C28.6424 8.87772 27.2256 9.74602 26.1582 11.0324C25.0892 12.3208 24.3563 14.0445 24.3563 15.7849C24.3563 18.1194 25.7623 19.52 27.4399 19.52C28.1168 19.52 28.7396 19.2613 29.2737 18.9102C29.7404 18.6034 30.1434 18.2234 30.4612 17.8748C30.611 18.4747 30.9358 18.8782 31.3144 19.1352C31.7304 19.4174 32.2066 19.52 32.5782 19.52C33.3383 19.52 33.9352 19.0697 34.3721 18.2152L34.3721 18.2152L34.3732 18.213C34.5666 17.8113 34.746 17.2545 34.8766 16.7902C34.9421 16.5573 34.9958 16.346 35.0331 16.1868C35.0518 16.1073 35.0664 16.0403 35.0765 15.9899C35.0816 15.9647 35.0856 15.9431 35.0884 15.9258C35.0908 15.911 35.0935 15.8924 35.0935 15.8775C35.0935 15.6976 34.9447 15.5691 34.7567 15.5691C34.6952 15.5691 34.6371 15.5773 34.5848 15.6026C34.5305 15.6288 34.4913 15.6691 34.4613 15.7181C34.4326 15.7649 34.4111 15.8214 34.3916 15.8832C34.3747 15.9365 34.3576 15.9994 34.3384 16.0703C34.3352 16.0819 34.332 16.0938 34.3287 16.1059L34.3284 16.107C34.1505 16.791 33.9516 17.4867 33.6793 18.0107C33.405 18.5386 33.0754 18.8569 32.6492 18.8569C32.4924 18.8569 32.3801 18.8227 32.2982 18.771C32.2164 18.7194 32.1576 18.646 32.1152 18.5556C32.0281 18.3697 32.0152 18.1244 32.0152 17.8918V17.8915C32.0152 17.8021 32.0152 17.3256 32.1778 16.6895L35.5165 3.72365ZM31.7077 11.8496L31.7027 11.8595L31.6999 11.8703L30.5402 16.4064C30.5327 16.4312 30.5257 16.4546 30.5191 16.4765C30.473 16.6311 30.4467 16.719 30.4015 16.812C30.3501 16.9179 30.2729 17.0322 30.1077 17.2516C29.8512 17.5705 29.4675 17.9738 29.0129 18.2965C28.5566 18.6204 28.0382 18.8569 27.5109 18.8569C27.0598 18.8569 26.7117 18.6602 26.4722 18.3022C26.2297 17.9396 26.0954 17.406 26.0954 16.7342C26.0954 16.1109 26.2761 15.1546 26.5155 14.2267C26.7545 13.3008 27.0484 12.4168 27.2696 11.9383C28.0684 10.3308 29.1548 9.54079 30.0209 9.54079C30.7523 9.54079 31.1922 9.98175 31.4545 10.4612C31.5858 10.7012 31.6704 10.9478 31.7222 11.1461C31.7725 11.3385 31.79 11.4784 31.7914 11.5196C31.7912 11.5212 31.7908 11.5235 31.7901 11.5267C31.7884 11.536 31.7858 11.5488 31.7823 11.5644C31.7755 11.5956 31.7661 11.6359 31.7559 11.6772C31.7457 11.7185 31.735 11.76 31.7254 11.7935C31.7206 11.8104 31.7163 11.8245 31.7127 11.8354C31.71 11.8436 31.7084 11.8478 31.7078 11.8493C31.7075 11.85 31.7075 11.8501 31.7077 11.8496Z" fill="" stroke="#5F5B80" stroke-width="0.2"/>
<path d="M46.4986 9.71305C45.8835 9.93085 45.6389 10.4496 45.6389 10.8761C45.6389 11.185 45.7659 11.4 45.9452 11.5349C46.1204 11.6666 46.3384 11.717 46.5203 11.717C47.2924 11.717 47.828 11.0635 47.828 10.3899C47.828 9.85703 47.514 9.4754 47.0847 9.23206C46.6575 8.98991 46.1066 8.87754 45.5969 8.87754C44.8399 8.87754 44.2538 9.24211 43.8336 9.65589C43.5174 9.96733 43.2916 10.31 43.1527 10.5566C42.8597 9.80119 42.3826 9.38142 41.9145 9.15118C41.4063 8.90121 40.9151 8.87754 40.6953 8.87754C39.4424 8.87754 38.4929 9.66426 37.8629 10.4975C37.5469 10.9153 37.3078 11.349 37.1475 11.7111C37.0673 11.8922 37.0064 12.0564 36.9653 12.1927C36.925 12.3263 36.9014 12.441 36.9014 12.52C36.9014 12.6763 37.0497 12.8284 37.2618 12.8284C37.3859 12.8284 37.4719 12.7809 37.5317 12.7141C37.5756 12.6651 37.6052 12.6038 37.6245 12.5639C37.6284 12.5557 37.6319 12.5485 37.635 12.5424L37.6389 12.5349L37.6414 12.5268C38.4342 9.99591 39.9839 9.54061 40.6243 9.54061C41.1195 9.54061 41.4077 9.76319 41.5773 10.0475C41.751 10.3386 41.8029 10.7004 41.8029 10.9687C41.8029 11.4435 41.6759 11.9402 41.4118 12.9722C41.4014 13.013 41.3907 13.0547 41.3798 13.0973L41.3798 13.0974L40.5747 16.2693C40.3987 16.9579 40.1424 17.6091 39.7809 18.0859C39.4213 18.5604 38.9627 18.8567 38.3748 18.8567C38.2754 18.8567 37.856 18.8559 37.4441 18.6839C38.1414 18.4315 38.309 17.7976 38.309 17.5212C38.309 17.2622 38.2088 17.0491 38.0412 16.9019C37.875 16.756 37.649 16.6803 37.4039 16.6803C36.7851 16.6803 36.12 17.2067 36.12 18.0074C36.12 18.5394 36.4271 18.9213 36.8541 19.1651C37.2787 19.4075 37.8298 19.5198 38.3511 19.5198C39.4599 19.5198 40.2555 18.7234 40.7656 17.8422C41.2221 19.0908 42.3726 19.5198 43.229 19.5198C44.4819 19.5198 45.4313 18.7331 46.0614 17.8999C46.3774 17.482 46.6165 17.0483 46.7768 16.6862C46.857 16.5051 46.9179 16.3409 46.959 16.2046C46.9992 16.071 47.0229 15.9563 47.0229 15.8773C47.0229 15.6974 46.8741 15.5689 46.6861 15.5689C46.5581 15.5689 46.4661 15.6055 46.4006 15.6877C46.3715 15.7243 46.3511 15.7659 46.3342 15.8059C46.3231 15.8323 46.3119 15.8623 46.3007 15.8923C46.2954 15.9064 46.2901 15.9205 46.2849 15.9341L46.2847 15.934L46.2829 15.94C45.6518 17.951 44.3078 18.8567 43.3 18.8567C42.9121 18.8567 42.6227 18.7172 42.4279 18.4745C42.2306 18.2287 42.1213 17.8658 42.1213 17.4054C42.1213 16.9197 42.2086 16.5676 42.5731 15.0977L42.5918 15.0222L43.4204 11.874L43.4206 11.8734C43.7729 10.4952 44.5567 9.54061 45.5732 9.54061C45.6135 9.54061 46.073 9.54163 46.4986 9.71305Z" fill="" stroke="#5F5B80" stroke-width="0.2"/>
<path d="M54.6525 25.0768H54.7525V24.9768V24.1201V24.0201H54.6525H52.4556V2.77992H54.6525H54.7525V2.67992V1.82324V1.72324H54.6525H51.4795H51.3795V1.82324V24.9768V25.0768H51.4795H54.6525Z" fill="" stroke="#5F5B80" stroke-width="0.2"/>
<path d="M62.1077 9.9808H60.7139H60.7115C60.595 9.9808 60.4953 9.9808 60.4129 9.9767C60.331 9.97262 60.2575 9.96422 60.1966 9.94375C60.1324 9.92218 60.0771 9.88539 60.0413 9.82343C60.0077 9.76535 59.9982 9.6969 59.9982 9.62611C59.9982 9.51384 60.0139 9.41839 60.0528 9.34054C60.0932 9.2595 60.1549 9.20495 60.2317 9.1703C60.3052 9.13714 60.3906 9.12298 60.4802 9.11615C60.5695 9.10935 60.6718 9.10935 60.782 9.10935H60.7849H62.2878C62.8215 6.14542 63.0599 5.3045 63.4905 4.48588C63.977 3.55817 65.0015 2.78843 66.0653 2.78843C66.6016 2.78843 67.1313 2.92521 67.53 3.19326C67.9312 3.46293 68.2017 3.86792 68.2017 4.39341C68.2017 5.3401 67.4342 5.76685 66.9178 5.76685C66.6727 5.76685 66.4467 5.69112 66.2805 5.54519C66.1129 5.39803 66.0127 5.18497 66.0127 4.92594C66.0127 4.70779 66.0906 4.41878 66.2927 4.17103C66.46 3.96592 66.7095 3.79251 67.062 3.7097C66.8146 3.56897 66.4523 3.4515 66.089 3.4515C65.5328 3.4515 65.0655 3.9382 64.9309 4.46449C64.7456 5.18939 64.4225 6.78775 63.9838 9.10935H65.7812H65.7831C65.8881 9.10935 65.9818 9.10935 66.0618 9.11307C66.1417 9.11679 66.2147 9.12442 66.2765 9.14218C66.3393 9.16025 66.3987 9.19116 66.4406 9.24703C66.4824 9.30273 66.4968 9.37002 66.4968 9.44088C66.4968 9.55627 66.4847 9.65365 66.4525 9.73288C66.4186 9.81616 66.3639 9.87591 66.2888 9.91467C66.2179 9.95126 66.1341 9.96636 66.0453 9.97359C65.9569 9.9808 65.8529 9.9808 65.7372 9.9808H65.7338H63.8052C63.6277 10.9825 62.5271 16.8098 62.1136 18.5396M62.1077 9.9808L62.0162 18.5171M62.1077 9.9808C61.9783 10.6375 61.8048 11.5437 61.6107 12.5575C61.1473 14.977 60.5667 18.0091 60.19 19.7227L60.19 19.7227L60.1896 19.7246C59.9877 20.7351 59.8 21.6499 59.5178 22.3127C59.2352 22.9765 58.8754 23.3488 58.346 23.3488H58.3458C58.313 23.3488 58.1326 23.3488 57.9101 23.2964C57.7451 23.2576 57.5616 23.1912 57.3986 23.0783M62.1077 9.9808L57.2608 23.0997M62.1136 18.5396C62.1136 18.5399 62.1135 18.5401 62.1135 18.5403L62.0162 18.5171M62.1136 18.5396C62.1137 18.5394 62.1137 18.5392 62.1138 18.539L62.0162 18.5171M62.1136 18.5396C61.9832 19.1192 61.6675 20.4773 61.0791 21.6922C60.7849 22.2998 60.4197 22.8774 59.9707 23.3042C59.5204 23.7321 58.9819 24.0119 58.346 24.0119C57.8678 24.0119 57.3563 23.8804 56.9613 23.6158C56.564 23.3496 56.2806 22.9449 56.2806 22.4069C56.2806 21.4602 57.0481 21.0334 57.5646 21.0334C57.8096 21.0334 58.0356 21.1092 58.2018 21.2551C58.3694 21.4022 58.4697 21.6153 58.4697 21.8743C58.4697 21.8922 58.4693 22.1731 58.3059 22.4645C58.16 22.7246 57.8889 22.984 57.3986 23.0783M62.0162 18.5171C61.7558 19.6748 60.7612 23.9118 58.346 23.9118C57.4225 23.9118 56.3806 23.4025 56.3806 22.4069C56.3806 21.527 57.091 21.1334 57.5646 21.1334C58.0145 21.1334 58.3697 21.4113 58.3697 21.8743C58.3697 21.8966 58.3696 22.8418 57.2919 22.9948C57.3261 23.0251 57.3618 23.0529 57.3986 23.0783M57.3986 23.0783C57.3544 23.0868 57.3085 23.094 57.2608 23.0997M57.2608 23.0997C57.2267 23.0717 57.1936 23.0415 57.162 23.0089L57.2608 23.0997ZM63.9649 9.20935H63.8632C63.8695 9.17587 63.8758 9.14253 63.8821 9.10935L63.9649 9.20935Z" fill="" stroke="#5F5B80" stroke-width="0.2"/>
<path d="M72.9235 20.761L72.9237 20.7615C73.6272 22.1606 74.468 23.2395 75.1666 23.9693C75.5159 24.3342 75.8304 24.6127 76.0756 24.8007C76.198 24.8946 76.3044 24.967 76.3901 25.0165C76.4329 25.0412 76.4721 25.061 76.5067 25.075C76.5387 25.088 76.5762 25.0999 76.6122 25.0999C76.6734 25.0999 76.7486 25.0854 76.8116 25.0414C76.8792 24.9941 76.9253 24.9175 76.9253 24.8147L76.9253 24.8129C76.9253 24.795 76.9254 24.7664 76.9145 24.7315C76.9038 24.697 76.8846 24.6624 76.856 24.6229C76.8001 24.5457 76.6936 24.4303 76.4929 24.234C74.1504 21.9205 72.8289 18.1301 72.8289 13.4232C72.8289 8.94771 73.9374 5.11211 76.6569 2.40566C76.7742 2.30228 76.8424 2.23117 76.88 2.17231C76.9002 2.14065 76.9129 2.11077 76.9194 2.07996C76.9254 2.05211 76.9253 2.02705 76.9253 2.01074L76.9253 2.00847C76.9253 1.90569 76.8792 1.82905 76.8116 1.78178C76.7486 1.73782 76.6734 1.72324 76.6122 1.72324C76.5737 1.72324 76.5338 1.73545 76.4983 1.74987C76.4609 1.76509 76.4191 1.78666 76.3741 1.81317C76.2841 1.86625 76.1746 1.94315 76.0509 2.04061C75.803 2.23583 75.4917 2.51845 75.1547 2.87133C74.4808 3.57692 73.699 4.56862 73.1135 5.7136C71.8977 8.0681 71.3502 10.5616 71.3502 13.4232C71.3502 15.4926 71.6828 18.2649 72.9235 20.761Z" fill="" stroke="#5F5B80" stroke-width="0.2"/>
<path d="M89.0874 9.71305C88.4724 9.93085 88.2278 10.4496 88.2278 10.8761C88.2278 11.185 88.3547 11.4 88.5341 11.5349C88.7093 11.6666 88.9273 11.717 89.1092 11.717C89.8813 11.717 90.4168 11.0635 90.4168 10.3899C90.4168 9.85703 90.1028 9.4754 89.6735 9.23206C89.2464 8.98991 88.6955 8.87754 88.1857 8.87754C87.4288 8.87754 86.8426 9.24211 86.4225 9.65589C86.1063 9.96733 85.8804 10.31 85.7415 10.5566C85.4486 9.80119 84.9715 9.38142 84.5034 9.15118C83.9952 8.90121 83.5039 8.87754 83.2842 8.87754C82.0313 8.87754 81.0818 9.66426 80.4517 10.4975C80.1357 10.9153 79.8967 11.349 79.7363 11.7111C79.6562 11.8922 79.5952 12.0564 79.5542 12.1927C79.5139 12.3263 79.4902 12.441 79.4902 12.52C79.4902 12.6763 79.6385 12.8284 79.8507 12.8284C79.9748 12.8284 80.0608 12.7809 80.1206 12.7141C80.1644 12.6651 80.194 12.6038 80.2133 12.5639C80.2173 12.5557 80.2208 12.5485 80.2239 12.5424L80.2278 12.5349L80.2303 12.5268C81.0231 9.99591 82.5728 9.54061 83.2131 9.54061C83.7084 9.54061 83.9965 9.76319 84.1662 10.0475C84.3398 10.3386 84.3918 10.7004 84.3918 10.9687C84.3918 11.4435 84.2647 11.9402 84.0007 12.9722C83.9902 13.013 83.9796 13.0547 83.9687 13.0973L83.9687 13.0974L83.1636 16.2693C82.9875 16.9579 82.7313 17.6091 82.3698 18.0859C82.0101 18.5604 81.5516 18.8567 80.9636 18.8567C80.8643 18.8567 80.4449 18.8559 80.0329 18.6839C80.7303 18.4315 80.8979 17.7976 80.8979 17.5212C80.8979 17.2622 80.7976 17.0491 80.63 16.9019C80.4638 16.756 80.2378 16.6803 79.9928 16.6803C79.3739 16.6803 78.7088 17.2067 78.7088 18.0074C78.7088 18.5394 79.016 18.9213 79.443 19.1651C79.8675 19.4075 80.4186 19.5198 80.9399 19.5198C82.0488 19.5198 82.8444 18.7234 83.3545 17.8422C83.811 19.0908 84.9615 19.5198 85.8178 19.5198C87.0707 19.5198 88.0202 18.7331 88.6503 17.8999C88.9663 17.482 89.2053 17.0483 89.3657 16.6862C89.4458 16.5051 89.5068 16.3409 89.5478 16.2046C89.5881 16.071 89.6118 15.9563 89.6118 15.8773C89.6118 15.6974 89.463 15.5689 89.275 15.5689C89.147 15.5689 89.0549 15.6055 88.9895 15.6877C88.9604 15.7243 88.9399 15.7659 88.9231 15.8059C88.912 15.8323 88.9007 15.8623 88.8895 15.8923C88.8843 15.9064 88.879 15.9205 88.8738 15.9341L88.8736 15.934L88.8717 15.94C88.2407 17.951 86.8967 18.8567 85.8889 18.8567C85.501 18.8567 85.2115 18.7172 85.0167 18.4745C84.8194 18.2287 84.7102 17.8658 84.7102 17.4054C84.7102 16.9197 84.7975 16.5676 85.162 15.0977L85.1807 15.0222L86.0092 11.874L86.0094 11.8734C86.3618 10.4952 87.1455 9.54061 88.162 9.54061C88.2024 9.54061 88.6619 9.54163 89.0874 9.71305Z" fill="" stroke="#5F5B80" stroke-width="0.2"/>
<path d="M96.526 6.06238L96.5257 6.06173C95.8222 4.6626 94.9814 3.58373 94.2828 2.85389C93.9335 2.48902 93.6189 2.21054 93.3738 2.02247C93.2514 1.92856 93.145 1.85617 93.0592 1.80671C93.0165 1.78203 92.9772 1.76215 92.9427 1.74814C92.9106 1.73515 92.8732 1.72324 92.8371 1.72324C92.7759 1.72324 92.7007 1.73782 92.6378 1.78178C92.5701 1.82905 92.524 1.90569 92.524 2.00847C92.524 2.00906 92.524 2.00967 92.524 2.01029C92.524 2.02815 92.524 2.0568 92.5348 2.09166C92.5455 2.12622 92.5648 2.16079 92.5934 2.20027C92.6493 2.27749 92.7557 2.39288 92.9565 2.58917C95.2989 4.90268 96.6205 8.69314 96.6205 13.4C96.6205 17.8755 95.512 21.7111 92.7924 24.4175C92.6751 24.5209 92.607 24.592 92.5694 24.6509C92.5491 24.6825 92.5365 24.7124 92.5299 24.7432C92.524 24.7711 92.524 24.7961 92.524 24.8124L92.524 24.8147C92.524 24.9175 92.5701 24.9941 92.6378 25.0414C92.7007 25.0854 92.7759 25.0999 92.8371 25.0999C92.8757 25.0999 92.9156 25.0877 92.9511 25.0733C92.9885 25.0581 93.0303 25.0365 93.0752 25.01C93.1653 24.9569 93.2747 24.88 93.3985 24.7826C93.6463 24.5874 93.9576 24.3047 94.2947 23.9519C94.9686 23.2462 95.7504 22.2544 96.3359 21.1094C97.5516 18.732 98.0992 16.2155 98.0992 13.4232C98.0992 11.6565 97.8617 8.76786 96.526 6.06238Z" fill="" stroke="#5F5B80" stroke-width="0.2"/>
<path d="M115.727 13.94H122.626H122.634C122.806 13.94 123.022 13.9401 123.196 13.8829C123.286 13.8532 123.373 13.8056 123.437 13.7278C123.503 13.6486 123.537 13.5469 123.537 13.4233C123.537 13.2964 123.506 13.1916 123.444 13.109C123.382 13.027 123.298 12.9761 123.207 12.9441C123.036 12.8833 122.819 12.8833 122.636 12.8833L122.626 12.8833H115.727V6.59297L115.727 6.58343C115.727 6.42794 115.727 6.22682 115.663 6.06427C115.629 5.97818 115.575 5.89785 115.491 5.83984C115.407 5.7818 115.3 5.75205 115.17 5.75205C115.037 5.75205 114.926 5.77944 114.839 5.83417C114.751 5.88937 114.693 5.96719 114.657 6.05318C114.589 6.21392 114.589 6.41632 114.589 6.58176L114.589 6.59297V12.8833H107.69L107.681 12.8833C107.51 12.8833 107.294 12.8833 107.12 12.9404C107.029 12.9702 106.942 13.0178 106.878 13.0955C106.813 13.1748 106.778 13.2765 106.778 13.4001C106.778 13.527 106.81 13.6318 106.872 13.7144C106.933 13.7964 107.018 13.8473 107.108 13.8793C107.28 13.9401 107.497 13.94 107.68 13.94H107.69H114.589V20.2304L114.589 20.2399C114.589 20.3954 114.589 20.5965 114.653 20.7591C114.687 20.8452 114.74 20.9255 114.824 20.9835C114.909 21.0416 115.015 21.0713 115.145 21.0713C115.279 21.0713 115.389 21.0439 115.477 20.9892C115.565 20.934 115.622 20.8562 115.659 20.7702C115.727 20.6094 115.727 20.407 115.727 20.2416L115.727 20.2304V13.94Z" fill="" stroke="#5F5B80" stroke-width="0.2"/>
<path d="M136.374 16.9918L136.373 16.9917L136.37 16.9961C135.411 18.2076 134.443 18.6252 133.749 18.6252C133.386 18.6252 133.037 18.4862 132.776 18.1619C132.514 17.8353 132.334 17.3104 132.334 16.5256C132.334 15.9254 132.508 14.9806 132.751 14.0502C132.993 13.1213 133.298 12.221 133.554 11.7091C133.892 11.0708 134.322 10.5265 134.787 10.1429C135.252 9.75831 135.745 9.54061 136.212 9.54061C136.943 9.54061 137.383 9.98172 137.646 10.4557C137.777 10.6928 137.861 10.9352 137.913 11.1272C137.939 11.223 137.957 11.3057 137.968 11.368C137.973 11.3992 137.977 11.425 137.979 11.4445C137.98 11.4543 137.981 11.4622 137.982 11.4682L137.982 11.4696L137.914 11.7794L136.801 16.223C136.801 16.2231 136.801 16.2232 136.801 16.2233C136.754 16.4076 136.721 16.5126 136.666 16.6134C136.609 16.7155 136.528 16.8181 136.374 16.9918ZM134.58 22.4267L134.58 22.4267L134.579 22.4277C134.105 22.8908 133.652 23.1197 133.257 23.2338C132.86 23.3482 132.517 23.3485 132.257 23.3485C131.669 23.3485 131.168 23.3164 130.683 23.2011C131.254 22.9115 131.41 22.3536 131.41 22.1056C131.41 21.6818 131.083 21.2647 130.505 21.2647C129.887 21.2647 129.221 21.7667 129.221 22.5918C129.221 22.8472 129.287 23.0697 129.423 23.2574C129.559 23.4441 129.76 23.5891 130.019 23.6996C130.533 23.9193 131.296 24.0116 132.305 24.0116C135.405 24.0116 137.031 22.0592 137.351 20.7638C137.351 20.7637 137.351 20.7636 137.351 20.7634L139.979 10.3915C140.05 10.1123 140.053 10.0558 140.053 9.99629C140.053 9.61228 139.743 9.31746 139.337 9.31746C139.023 9.31746 138.77 9.44706 138.589 9.66284C138.466 9.80935 138.377 9.99338 138.322 10.1999C137.963 9.56767 137.299 8.87754 136.212 8.87754C134.882 8.87754 133.477 9.69204 132.409 10.9295C131.34 12.1688 130.594 13.8468 130.594 15.5995C130.594 16.8246 130.974 17.7478 131.557 18.3655C132.139 18.9827 132.918 19.2883 133.702 19.2883C134.354 19.2883 134.965 19.0357 135.462 18.7293C135.802 18.52 136.092 18.2835 136.311 18.0791L135.878 19.8114L135.878 19.8123L135.867 19.8551C135.706 20.4718 135.591 20.9137 135.416 21.3003C135.239 21.6918 134.998 22.0288 134.58 22.4267Z" fill="" stroke="#5F5B80" stroke-width="0.2"/>
<path d="M144.641 20.761L144.641 20.7615C145.344 22.1606 146.185 23.2395 146.884 23.9693C147.233 24.3342 147.548 24.6127 147.793 24.8007C147.915 24.8946 148.022 24.967 148.107 25.0165C148.15 25.0412 148.189 25.061 148.224 25.075C148.256 25.088 148.293 25.0999 148.33 25.0999C148.391 25.0999 148.466 25.0854 148.529 25.0414C148.597 24.9941 148.643 24.9175 148.643 24.8147L148.643 24.8129C148.643 24.795 148.643 24.7664 148.632 24.7315C148.621 24.697 148.602 24.6624 148.573 24.6229C148.517 24.5457 148.411 24.4303 148.21 24.234C145.868 21.9205 144.546 18.1301 144.546 13.4232C144.546 8.94771 145.655 5.11211 148.374 2.40566C148.492 2.30228 148.56 2.23117 148.597 2.17231C148.618 2.14065 148.63 2.11077 148.637 2.07996C148.643 2.05211 148.643 2.02705 148.643 2.01074L148.643 2.00847C148.643 1.90569 148.597 1.82905 148.529 1.78178C148.466 1.73782 148.391 1.72324 148.33 1.72324C148.291 1.72324 148.251 1.73545 148.216 1.74987C148.178 1.76509 148.136 1.78666 148.091 1.81317C148.001 1.86625 147.892 1.94315 147.768 2.04061C147.52 2.23583 147.209 2.51845 146.872 2.87133C146.198 3.57692 145.416 4.56862 144.831 5.7136C143.615 8.0681 143.067 10.5616 143.067 13.4232C143.067 15.4926 143.4 18.2649 144.641 20.761Z" fill="" stroke="#5F5B80" stroke-width="0.2"/>
<path d="M160.805 9.71305C160.19 9.93085 159.945 10.4496 159.945 10.8761C159.945 11.185 160.072 11.4 160.251 11.5349C160.427 11.6666 160.645 11.717 160.826 11.717C161.599 11.717 162.134 11.0635 162.134 10.3899C162.134 9.85703 161.82 9.4754 161.391 9.23206C160.964 8.98991 160.413 8.87754 159.903 8.87754C159.146 8.87754 158.56 9.24211 158.14 9.65589C157.824 9.96733 157.598 10.31 157.459 10.5566C157.166 9.80119 156.689 9.38142 156.221 9.15118C155.712 8.90121 155.221 8.87754 155.001 8.87754C153.749 8.87754 152.799 9.66426 152.169 10.4975C151.853 10.9153 151.614 11.349 151.454 11.7111C151.373 11.8922 151.313 12.0564 151.271 12.1927C151.231 12.3263 151.208 12.441 151.208 12.52C151.208 12.6763 151.356 12.8284 151.568 12.8284C151.692 12.8284 151.778 12.7809 151.838 12.7141C151.882 12.6651 151.911 12.6038 151.931 12.5639C151.935 12.5557 151.938 12.5485 151.941 12.5424L151.945 12.5349L151.948 12.5268C152.74 9.99591 154.29 9.54061 154.93 9.54061C155.426 9.54061 155.714 9.76319 155.883 10.0475C156.057 10.3386 156.109 10.7004 156.109 10.9687C156.109 11.4435 155.982 11.9402 155.718 12.9722C155.708 13.013 155.697 13.0547 155.686 13.0973L155.686 13.0974L154.881 16.2693C154.705 16.9579 154.449 17.6091 154.087 18.0859C153.727 18.5604 153.269 18.8567 152.681 18.8567C152.582 18.8567 152.162 18.8559 151.75 18.6839C152.448 18.4315 152.615 17.7976 152.615 17.5212C152.615 17.2622 152.515 17.0491 152.347 16.9019C152.181 16.756 151.955 16.6803 151.71 16.6803C151.091 16.6803 150.426 17.2067 150.426 18.0074C150.426 18.5394 150.733 18.9213 151.16 19.1651C151.585 19.4075 152.136 19.5198 152.657 19.5198C153.766 19.5198 154.562 18.7234 155.072 17.8422C155.528 19.0908 156.679 19.5198 157.535 19.5198C158.788 19.5198 159.737 18.7331 160.368 17.8999C160.684 17.482 160.923 17.0483 161.083 16.6862C161.163 16.5051 161.224 16.3409 161.265 16.2046C161.305 16.071 161.329 15.9563 161.329 15.8773C161.329 15.6974 161.18 15.5689 160.992 15.5689C160.864 15.5689 160.772 15.6055 160.707 15.6877C160.678 15.7243 160.657 15.7659 160.64 15.8059C160.629 15.8323 160.618 15.8623 160.607 15.8923C160.602 15.9064 160.596 15.9205 160.591 15.9341L160.591 15.934L160.589 15.94C159.958 17.951 158.614 18.8567 157.606 18.8567C157.218 18.8567 156.929 18.7172 156.734 18.4745C156.537 18.2287 156.427 17.8658 156.427 17.4054C156.427 16.9197 156.515 16.5676 156.879 15.0977L156.898 15.0222L157.727 11.874L157.727 11.8734C158.079 10.4952 158.863 9.54061 159.879 9.54061C159.92 9.54061 160.379 9.54163 160.805 9.71305Z" fill="" stroke="#5F5B80" stroke-width="0.2"/>
<path d="M168.243 6.06238L168.243 6.06173C167.539 4.6626 166.699 3.58373 166 2.85389C165.651 2.48902 165.336 2.21054 165.091 2.02247C164.969 1.92856 164.862 1.85617 164.777 1.80671C164.734 1.78203 164.695 1.76215 164.66 1.74814C164.628 1.73515 164.59 1.72324 164.554 1.72324C164.493 1.72324 164.418 1.73782 164.355 1.78178C164.287 1.82905 164.241 1.90569 164.241 2.00847C164.241 2.00906 164.241 2.00967 164.241 2.01029C164.241 2.02815 164.241 2.0568 164.252 2.09166C164.263 2.12622 164.282 2.16079 164.311 2.20027C164.367 2.27749 164.473 2.39288 164.674 2.58917C167.016 4.90268 168.338 8.69314 168.338 13.4C168.338 17.8755 167.229 21.7111 164.51 24.4175C164.392 24.5209 164.324 24.592 164.287 24.6509C164.266 24.6825 164.254 24.7124 164.247 24.7432C164.241 24.7711 164.241 24.7961 164.241 24.8124L164.241 24.8147C164.241 24.9175 164.287 24.9941 164.355 25.0414C164.418 25.0854 164.493 25.0999 164.554 25.0999C164.593 25.0999 164.633 25.0877 164.668 25.0733C164.706 25.0581 164.748 25.0365 164.793 25.01C164.883 24.9569 164.992 24.88 165.116 24.7826C165.364 24.5874 165.675 24.3047 166.012 23.9519C166.686 23.2462 167.468 22.2544 168.053 21.1094C169.269 18.732 169.816 16.2155 169.816 13.4232C169.816 11.6565 169.579 8.76786 168.243 6.06238Z" fill="" stroke="#5F5B80" stroke-width="0.2"/>
<path d="M175.825 1.82324V1.72324H175.725H172.552H172.452V1.82324V2.67992V2.77992H172.552H174.749V24.0201H172.552H172.452V24.1201V24.9768V25.0768H172.552H175.725H175.825V24.9768V1.82324Z" fill="" stroke="#5F5B80" stroke-width="0.2"/>
<path d="M201.056 11.7868L201.065 11.7868C201.225 11.7868 201.428 11.7868 201.593 11.729C201.679 11.6986 201.761 11.6502 201.821 11.572C201.882 11.4928 201.914 11.392 201.914 11.27C201.914 11.1445 201.885 11.0407 201.827 10.9583C201.77 10.876 201.69 10.8242 201.604 10.7916C201.441 10.73 201.237 10.73 201.067 10.7301L201.056 10.7301H187.109C187.106 10.7301 187.103 10.7301 187.1 10.7301C186.941 10.7301 186.737 10.73 186.573 10.7878C186.487 10.8182 186.404 10.8666 186.344 10.9449C186.283 11.0241 186.252 11.1248 186.252 11.2468C186.252 11.3723 186.28 11.4761 186.338 11.5585C186.396 11.6408 186.476 11.6926 186.562 11.7253C186.724 11.7868 186.929 11.7868 187.099 11.7868C187.102 11.7868 187.106 11.7868 187.109 11.7868H201.056ZM201.056 16.0933L201.065 16.0933C201.225 16.0933 201.428 16.0934 201.593 16.0356C201.679 16.0052 201.761 15.9568 201.821 15.8785C201.882 15.7993 201.914 15.6986 201.914 15.5766C201.914 15.4511 201.885 15.3473 201.827 15.2649C201.77 15.1826 201.69 15.1308 201.604 15.0981C201.441 15.0366 201.237 15.0366 201.067 15.0366L201.056 15.0366H187.109L187.1 15.0366C186.941 15.0366 186.737 15.0366 186.573 15.0944C186.487 15.1248 186.404 15.1732 186.344 15.2514C186.283 15.3306 186.252 15.4314 186.252 15.5534C186.252 15.6789 186.28 15.7827 186.338 15.8651C186.396 15.9474 186.476 15.9992 186.562 16.0318C186.724 16.0934 186.929 16.0933 187.099 16.0933L187.109 16.0933H201.056Z" fill="" stroke="#5F5B80" stroke-width="0.2"/>
<path d="M216.618 9.9808H215.225H215.222C215.106 9.9808 215.006 9.9808 214.924 9.9767C214.842 9.97262 214.768 9.96422 214.707 9.94375C214.643 9.92218 214.588 9.88539 214.552 9.82343C214.518 9.76535 214.509 9.6969 214.509 9.62611C214.509 9.51384 214.525 9.41839 214.564 9.34054C214.604 9.2595 214.666 9.20495 214.742 9.1703C214.816 9.13714 214.901 9.12298 214.991 9.11615C215.08 9.10935 215.183 9.10935 215.293 9.10935H215.296H216.799C217.332 6.14542 217.571 5.3045 218.001 4.48588C218.488 3.55817 219.512 2.78843 220.576 2.78843C221.112 2.78843 221.642 2.92521 222.041 3.19326C222.442 3.46293 222.712 3.86792 222.712 4.39341C222.712 5.3401 221.945 5.76685 221.429 5.76685C221.183 5.76685 220.957 5.69112 220.791 5.54519C220.624 5.39803 220.523 5.18497 220.523 4.92594C220.523 4.70779 220.601 4.41878 220.803 4.17103C220.971 3.96592 221.22 3.79251 221.573 3.7097C221.325 3.56897 220.963 3.4515 220.6 3.4515C220.044 3.4515 219.576 3.9382 219.442 4.46449C219.256 5.18939 218.933 6.78775 218.495 9.10935H220.292H220.294C220.399 9.10935 220.493 9.10935 220.573 9.11307C220.652 9.11679 220.725 9.12442 220.787 9.14218C220.85 9.16025 220.909 9.19116 220.951 9.24703C220.993 9.30273 221.008 9.37002 221.008 9.44088C221.008 9.55627 220.995 9.65365 220.963 9.73288C220.929 9.81616 220.875 9.87591 220.8 9.91467C220.729 9.95126 220.645 9.96636 220.556 9.97359C220.468 9.9808 220.364 9.9808 220.248 9.9808H220.245H218.316C218.138 10.9825 217.038 16.8098 216.624 18.5396M216.618 9.9808L216.527 18.5171M216.618 9.9808C216.489 10.6375 216.316 11.5437 216.121 12.5575C215.658 14.977 215.077 18.0091 214.701 19.7227L214.701 19.7227L214.7 19.7246C214.498 20.7351 214.311 21.6499 214.029 22.3127C213.746 22.9765 213.386 23.3488 212.857 23.3488H212.857C212.824 23.3488 212.643 23.3488 212.421 23.2964C212.256 23.2576 212.072 23.1912 211.909 23.0783M216.618 9.9808L211.772 23.0997M216.624 18.5396C216.624 18.5399 216.624 18.5401 216.624 18.5403L216.527 18.5171M216.624 18.5396C216.624 18.5394 216.624 18.5392 216.625 18.539L216.527 18.5171M216.624 18.5396C216.494 19.1192 216.178 20.4773 215.59 21.6922C215.296 22.2998 214.93 22.8774 214.481 23.3042C214.031 23.7321 213.493 24.0119 212.857 24.0119C212.379 24.0119 211.867 23.8804 211.472 23.6158C211.075 23.3496 210.791 22.9449 210.791 22.4069C210.791 21.4602 211.559 21.0334 212.075 21.0334C212.32 21.0334 212.546 21.1092 212.713 21.2551C212.88 21.4022 212.98 21.6153 212.98 21.8743C212.98 21.8922 212.98 22.1731 212.817 22.4645C212.671 22.7246 212.4 22.984 211.909 23.0783M216.527 18.5171C216.266 19.6748 215.272 23.9118 212.857 23.9118C211.933 23.9118 210.891 23.4025 210.891 22.4069C210.891 21.527 211.602 21.1334 212.075 21.1334C212.525 21.1334 212.88 21.4113 212.88 21.8743C212.88 21.8966 212.88 22.8418 211.803 22.9948C211.837 23.0251 211.873 23.0529 211.909 23.0783M211.909 23.0783C211.865 23.0868 211.819 23.094 211.772 23.0997M211.772 23.0997C211.737 23.0717 211.704 23.0415 211.673 23.0089L211.772 23.0997ZM218.476 9.20935H218.374C218.38 9.17587 218.387 9.14253 218.393 9.10935L218.476 9.20935Z" fill="" stroke="#5F5B80" stroke-width="0.2"/>
<path d="M227.915 2.35269L227.915 2.35273L227.917 2.34864C227.932 2.31013 227.948 2.27211 227.963 2.23567C227.984 2.1855 228.004 2.13833 228.018 2.09695C228.047 2.01876 228.066 1.9413 228.066 1.84897C228.066 1.2703 227.532 0.9 227.05 0.9C226.701 0.9 226.472 1.05166 226.325 1.2345C226.182 1.41287 226.118 1.61833 226.086 1.72789C226.086 1.72803 226.086 1.72817 226.086 1.7283L224.082 8.37858C224.018 8.56585 224.014 8.62427 224.014 8.65611C224.014 8.7022 224.022 8.74601 224.041 8.78597C224.061 8.82649 224.09 8.85698 224.123 8.88038C224.182 8.92189 224.26 8.94525 224.332 8.96641C224.607 9.08547 224.658 9.09569 224.714 9.09569C224.745 9.09569 224.807 9.09522 224.877 9.04268C224.94 8.99476 225 8.911 225.058 8.77304L227.915 2.35269Z" fill="" stroke="#5F5B80" stroke-width="0.2"/>
<path d="M232.97 20.761L232.971 20.7615C233.674 22.1606 234.515 23.2395 235.213 23.9693C235.563 24.3342 235.877 24.6127 236.122 24.8007C236.245 24.8946 236.351 24.967 236.437 25.0165C236.48 25.0412 236.519 25.061 236.554 25.075C236.586 25.088 236.623 25.0999 236.659 25.0999C236.72 25.0999 236.795 25.0854 236.858 25.0414C236.926 24.9941 236.972 24.9175 236.972 24.8147L236.972 24.8129C236.972 24.795 236.972 24.7664 236.961 24.7315C236.951 24.697 236.931 24.6624 236.903 24.6229C236.847 24.5457 236.74 24.4303 236.54 24.234C234.197 21.9205 232.876 18.1301 232.876 13.4232C232.876 8.94771 233.984 5.11211 236.704 2.40566C236.821 2.30228 236.889 2.23117 236.927 2.17231C236.947 2.14065 236.96 2.11077 236.966 2.07996C236.972 2.05211 236.972 2.02705 236.972 2.01074L236.972 2.00847C236.972 1.90569 236.926 1.82905 236.858 1.78178C236.795 1.73782 236.72 1.72324 236.659 1.72324C236.621 1.72324 236.581 1.73545 236.545 1.74987C236.508 1.76509 236.466 1.78666 236.421 1.81317C236.331 1.86625 236.221 1.94315 236.098 2.04061C235.85 2.23583 235.539 2.51845 235.202 2.87133C234.528 3.57692 233.746 4.56862 233.16 5.7136C231.945 8.0681 231.397 10.5616 231.397 13.4232C231.397 15.4926 231.73 18.2649 232.97 20.761Z" fill="" stroke="#5F5B80" stroke-width="0.2"/>
<path d="M249.135 9.71305C248.52 9.93085 248.275 10.4496 248.275 10.8761C248.275 11.185 248.402 11.4 248.581 11.5349C248.756 11.6666 248.974 11.717 249.156 11.717C249.928 11.717 250.464 11.0635 250.464 10.3899C250.464 9.85703 250.15 9.4754 249.721 9.23206C249.293 8.98991 248.743 8.87754 248.233 8.87754C247.476 8.87754 246.89 9.24211 246.47 9.65589C246.153 9.96733 245.928 10.31 245.789 10.5566C245.496 9.80119 245.019 9.38142 244.55 9.15118C244.042 8.90121 243.551 8.87754 243.331 8.87754C242.078 8.87754 241.129 9.66426 240.499 10.4975C240.183 10.9153 239.944 11.349 239.783 11.7111C239.703 11.8922 239.642 12.0564 239.601 12.1927C239.561 12.3263 239.537 12.441 239.537 12.52C239.537 12.6763 239.686 12.8284 239.898 12.8284C240.022 12.8284 240.108 12.7809 240.168 12.7141C240.212 12.6651 240.241 12.6038 240.26 12.5639C240.264 12.5557 240.268 12.5485 240.271 12.5424L240.275 12.5349L240.277 12.5268C241.07 9.99591 242.62 9.54061 243.26 9.54061C243.756 9.54061 244.044 9.76319 244.213 10.0475C244.387 10.3386 244.439 10.7004 244.439 10.9687C244.439 11.4435 244.312 11.9402 244.048 12.9722C244.037 13.013 244.027 13.0547 244.016 13.0973L244.016 13.0974L243.211 16.2693C243.035 16.9579 242.778 17.6091 242.417 18.0859C242.057 18.5604 241.599 18.8567 241.011 18.8567C240.911 18.8567 240.492 18.8559 240.08 18.6839C240.777 18.4315 240.945 17.7976 240.945 17.5212C240.945 17.2622 240.845 17.0491 240.677 16.9019C240.511 16.756 240.285 16.6803 240.04 16.6803C239.421 16.6803 238.756 17.2067 238.756 18.0074C238.756 18.5394 239.063 18.9213 239.49 19.1651C239.915 19.4075 240.466 19.5198 240.987 19.5198C242.096 19.5198 242.892 18.7234 243.402 17.8422C243.858 19.0908 245.009 19.5198 245.865 19.5198C247.118 19.5198 248.067 18.7331 248.697 17.8999C249.013 17.482 249.252 17.0483 249.413 16.6862C249.493 16.5051 249.554 16.3409 249.595 16.2046C249.635 16.071 249.659 15.9563 249.659 15.8773C249.659 15.6974 249.51 15.5689 249.322 15.5689C249.194 15.5689 249.102 15.6055 249.037 15.6877C249.008 15.7243 248.987 15.7659 248.97 15.8059C248.959 15.8323 248.948 15.8623 248.937 15.8923C248.931 15.9064 248.926 15.9205 248.921 15.9341L248.921 15.934L248.919 15.94C248.288 17.951 246.944 18.8567 245.936 18.8567C245.548 18.8567 245.259 18.7172 245.064 18.4745C244.867 18.2287 244.757 17.8658 244.757 17.4054C244.757 16.9197 244.845 16.5676 245.209 15.0977L245.228 15.0222L246.056 11.874L246.057 11.8734C246.409 10.4952 247.193 9.54061 248.209 9.54061C248.249 9.54061 248.709 9.54163 249.135 9.71305Z" fill="" stroke="#5F5B80" stroke-width="0.2"/>
<path d="M256.573 6.06238L256.572 6.06173C255.869 4.6626 255.028 3.58373 254.329 2.85389C253.98 2.48902 253.666 2.21054 253.42 2.02247C253.298 1.92856 253.192 1.85617 253.106 1.80671C253.063 1.78203 253.024 1.76215 252.989 1.74814C252.957 1.73515 252.92 1.72324 252.884 1.72324C252.823 1.72324 252.747 1.73782 252.684 1.78178C252.617 1.82905 252.571 1.90569 252.571 2.00847C252.571 2.00906 252.571 2.00967 252.571 2.01029C252.571 2.02815 252.571 2.0568 252.581 2.09166C252.592 2.12622 252.611 2.16079 252.64 2.20027C252.696 2.27749 252.802 2.39288 253.003 2.58917C255.346 4.90268 256.667 8.69314 256.667 13.4C256.667 17.8755 255.559 21.7111 252.839 24.4175C252.722 24.5209 252.654 24.592 252.616 24.6509C252.596 24.6825 252.583 24.7124 252.577 24.7432C252.571 24.7711 252.571 24.7961 252.571 24.8124L252.571 24.8147C252.571 24.9175 252.617 24.9941 252.684 25.0414C252.747 25.0854 252.823 25.0999 252.884 25.0999C252.922 25.0999 252.962 25.0877 252.998 25.0733C253.035 25.0581 253.077 25.0365 253.122 25.01C253.212 24.9569 253.321 24.88 253.445 24.7826C253.693 24.5874 254.004 24.3047 254.341 23.9519C255.015 23.2462 255.797 22.2544 256.383 21.1094C257.598 18.732 258.146 16.2155 258.146 13.4232C258.146 11.6565 257.908 8.76786 256.573 6.06238Z" fill="" stroke="#5F5B80" stroke-width="0.2"/>
<path d="M275.195 13.94H281.63H281.639C281.799 13.94 282.002 13.9401 282.167 13.8823C282.253 13.8519 282.335 13.8035 282.395 13.7252C282.456 13.646 282.488 13.5453 282.488 13.4233C282.488 13.2978 282.459 13.194 282.401 13.1116C282.344 13.0293 282.264 12.9775 282.178 12.9448C282.015 12.8833 281.811 12.8833 281.641 12.8833L281.63 12.8833H275.195V6.59297L275.195 6.58378C275.195 6.42804 275.195 6.22799 275.135 6.0664C275.104 5.98121 275.054 5.90052 274.974 5.84171C274.894 5.7825 274.792 5.75205 274.669 5.75205C274.541 5.75205 274.436 5.77997 274.353 5.83586C274.269 5.89195 274.216 5.97028 274.182 6.05541C274.119 6.21516 274.119 6.41641 274.119 6.58214L274.119 6.59297V12.8833H267.683L267.674 12.8833C267.515 12.8833 267.311 12.8833 267.147 12.9411C267.061 12.9715 266.978 13.0199 266.918 13.0981C266.857 13.1773 266.826 13.2781 266.826 13.4001C266.826 13.5256 266.854 13.6294 266.912 13.7118C266.97 13.7941 267.05 13.8459 267.136 13.8785C267.298 13.9401 267.503 13.9401 267.673 13.94L267.683 13.94H274.119V20.2304L274.119 20.2396C274.119 20.3953 274.119 20.5954 274.178 20.757C274.209 20.8422 274.259 20.9228 274.339 20.9817C274.42 21.0409 274.521 21.0713 274.645 21.0713C274.772 21.0713 274.877 21.0434 274.961 20.9875C275.044 20.9314 275.098 20.8531 275.132 20.768C275.195 20.6082 275.195 20.407 275.195 20.2412L275.195 20.2304V13.94Z" fill="" stroke="#5F5B80" stroke-width="0.2"/>
<path d="M296.421 16.9918L296.421 16.9917L296.417 16.9961C295.459 18.2076 294.49 18.6252 293.796 18.6252C293.433 18.6252 293.084 18.4862 292.823 18.1619C292.561 17.8353 292.381 17.3104 292.381 16.5256C292.381 15.9254 292.555 14.9806 292.798 14.0502C293.04 13.1213 293.345 12.221 293.601 11.7091C293.939 11.0708 294.369 10.5265 294.834 10.1429C295.299 9.75831 295.792 9.54061 296.259 9.54061C296.99 9.54061 297.43 9.98172 297.693 10.4557C297.824 10.6928 297.909 10.9352 297.96 11.1272C297.986 11.223 298.004 11.3057 298.015 11.368C298.02 11.3992 298.024 11.425 298.026 11.4445C298.027 11.4543 298.028 11.4622 298.029 11.4682L298.029 11.4696L297.961 11.7794L296.849 16.223C296.849 16.2231 296.849 16.2232 296.848 16.2233C296.801 16.4076 296.768 16.5126 296.713 16.6134C296.657 16.7155 296.575 16.8181 296.421 16.9918ZM294.627 22.4267L294.627 22.4267L294.626 22.4277C294.152 22.8908 293.699 23.1197 293.304 23.2338C292.907 23.3482 292.564 23.3485 292.304 23.3485C291.716 23.3485 291.215 23.3164 290.73 23.2011C291.301 22.9115 291.457 22.3536 291.457 22.1056C291.457 21.6818 291.13 21.2647 290.552 21.2647C289.935 21.2647 289.268 21.7667 289.268 22.5918C289.268 22.8472 289.334 23.0697 289.47 23.2574C289.606 23.4441 289.807 23.5891 290.066 23.6996C290.58 23.9193 291.343 24.0116 292.352 24.0116C295.452 24.0116 297.079 22.0592 297.398 20.7638C297.398 20.7637 297.398 20.7636 297.398 20.7634L300.026 10.3915C300.097 10.1123 300.1 10.0558 300.1 9.99629C300.1 9.61228 299.79 9.31746 299.384 9.31746C299.07 9.31746 298.817 9.44706 298.636 9.66284C298.513 9.80935 298.424 9.99338 298.369 10.1999C298.01 9.56767 297.346 8.87754 296.259 8.87754C294.929 8.87754 293.525 9.69204 292.457 10.9295C291.387 12.1688 290.642 13.8468 290.642 15.5995C290.642 16.8246 291.021 17.7478 291.604 18.3655C292.186 18.9827 292.965 19.2883 293.749 19.2883C294.402 19.2883 295.012 19.0357 295.509 18.7293C295.849 18.52 296.139 18.2835 296.358 18.0791L295.925 19.8114L295.925 19.8123L295.914 19.8551C295.753 20.4718 295.638 20.9137 295.463 21.3003C295.286 21.6918 295.046 22.0288 294.627 22.4267Z" fill="" stroke="#5F5B80" stroke-width="0.2"/>
<path d="M305.168 2.35269L305.168 2.35273L305.17 2.34864C305.185 2.31013 305.201 2.27211 305.216 2.23567C305.237 2.1855 305.257 2.13833 305.272 2.09695C305.3 2.01876 305.319 1.9413 305.319 1.84897C305.319 1.2703 304.785 0.9 304.303 0.9C303.954 0.9 303.725 1.05166 303.578 1.2345C303.435 1.41287 303.371 1.61833 303.339 1.72789C303.339 1.72803 303.339 1.72817 303.339 1.7283L301.335 8.37858C301.271 8.56585 301.267 8.62427 301.267 8.65611C301.267 8.7022 301.275 8.74601 301.295 8.78597C301.315 8.82649 301.343 8.85698 301.376 8.88038C301.435 8.92189 301.513 8.94525 301.586 8.96641C301.86 9.08547 301.911 9.09569 301.967 9.09569C301.998 9.09569 302.06 9.09522 302.13 9.04268C302.193 8.99476 302.253 8.911 302.311 8.77304L305.168 2.35269Z" fill="" stroke="#5F5B80" stroke-width="0.2"/>
<path d="M310.224 20.761L310.224 20.7615C310.927 22.1606 311.768 23.2395 312.467 23.9693C312.816 24.3342 313.13 24.6127 313.376 24.8007C313.498 24.8946 313.604 24.967 313.69 25.0165C313.733 25.0412 313.772 25.061 313.807 25.075C313.839 25.088 313.876 25.0999 313.912 25.0999C313.973 25.0999 314.049 25.0854 314.112 25.0414C314.179 24.9941 314.225 24.9175 314.225 24.8147L314.225 24.8129C314.225 24.795 314.225 24.7664 314.215 24.7315C314.204 24.697 314.185 24.6624 314.156 24.6229C314.1 24.5457 313.994 24.4303 313.793 24.234C311.45 21.9205 310.129 18.1301 310.129 13.4232C310.129 8.94771 311.237 5.11211 313.957 2.40566C314.074 2.30228 314.142 2.23117 314.18 2.17231C314.2 2.14065 314.213 2.11077 314.219 2.07996C314.225 2.05211 314.225 2.02705 314.225 2.01074L314.225 2.00847C314.225 1.90569 314.179 1.82905 314.112 1.78178C314.049 1.73782 313.973 1.72324 313.912 1.72324C313.874 1.72324 313.834 1.73545 313.798 1.74987C313.761 1.76509 313.719 1.78666 313.674 1.81317C313.584 1.86625 313.475 1.94315 313.351 2.04061C313.103 2.23583 312.792 2.51845 312.455 2.87133C311.781 3.57692 310.999 4.56862 310.414 5.7136C309.198 8.0681 308.65 10.5616 308.65 13.4232C308.65 15.4926 308.983 18.2649 310.224 20.761Z" fill="" stroke="#5F5B80" stroke-width="0.2"/>
<path d="M326.388 9.71305C325.773 9.93085 325.528 10.4496 325.528 10.8761C325.528 11.185 325.655 11.4 325.835 11.5349C326.01 11.6666 326.228 11.717 326.41 11.717C327.182 11.717 327.717 11.0635 327.717 10.3899C327.717 9.85703 327.403 9.4754 326.974 9.23206C326.547 8.98991 325.996 8.87754 325.486 8.87754C324.729 8.87754 324.143 9.24211 323.723 9.65589C323.407 9.96733 323.181 10.31 323.042 10.5566C322.749 9.80119 322.272 9.38142 321.804 9.15118C321.296 8.90121 320.804 8.87754 320.585 8.87754C319.332 8.87754 318.382 9.66426 317.752 10.4975C317.436 10.9153 317.197 11.349 317.037 11.7111C316.957 11.8922 316.896 12.0564 316.855 12.1927C316.814 12.3263 316.791 12.441 316.791 12.52C316.791 12.6763 316.939 12.8284 317.151 12.8284C317.275 12.8284 317.361 12.7809 317.421 12.7141C317.465 12.6651 317.495 12.6038 317.514 12.5639C317.518 12.5557 317.521 12.5485 317.524 12.5424L317.528 12.5349L317.531 12.5268C318.324 9.99591 319.873 9.54061 320.514 9.54061C321.009 9.54061 321.297 9.76319 321.467 10.0475C321.64 10.3386 321.692 10.7004 321.692 10.9687C321.692 11.4435 321.565 11.9402 321.301 12.9722C321.291 13.013 321.28 13.0547 321.269 13.0973L321.269 13.0974L320.464 16.2693C320.288 16.9579 320.032 17.6091 319.67 18.0859C319.311 18.5604 318.852 18.8567 318.264 18.8567C318.165 18.8567 317.745 18.8559 317.333 18.6839C318.031 18.4315 318.198 17.7976 318.198 17.5212C318.198 17.2622 318.098 17.0491 317.931 16.9019C317.764 16.756 317.538 16.6803 317.293 16.6803C316.674 16.6803 316.009 17.2067 316.009 18.0074C316.009 18.5394 316.316 18.9213 316.744 19.1651C317.168 19.4075 317.719 19.5198 318.24 19.5198C319.349 19.5198 320.145 18.7234 320.655 17.8422C321.112 19.0908 322.262 19.5198 323.118 19.5198C324.371 19.5198 325.321 18.7331 325.951 17.8999C326.267 17.482 326.506 17.0483 326.666 16.6862C326.746 16.5051 326.807 16.3409 326.848 16.2046C326.889 16.071 326.912 15.9563 326.912 15.8773C326.912 15.6974 326.763 15.5689 326.575 15.5689C326.448 15.5689 326.355 15.6055 326.29 15.6877C326.261 15.7243 326.24 15.7659 326.224 15.8059C326.213 15.8323 326.201 15.8623 326.19 15.8923C326.185 15.9064 326.18 15.9205 326.174 15.9341L326.174 15.934L326.172 15.94C325.541 17.951 324.197 18.8567 323.189 18.8567C322.802 18.8567 322.512 18.7172 322.317 18.4745C322.12 18.2287 322.011 17.8658 322.011 17.4054C322.011 16.9197 322.098 16.5676 322.462 15.0977L322.481 15.0222L323.31 11.874L323.31 11.8734C323.662 10.4952 324.446 9.54061 325.463 9.54061C325.503 9.54061 325.962 9.54163 326.388 9.71305Z" fill="" stroke="#5F5B80" stroke-width="0.2"/>
<path d="M333.826 6.06238L333.825 6.06173C333.122 4.6626 332.281 3.58373 331.583 2.85389C331.233 2.48902 330.919 2.21054 330.674 2.02247C330.551 1.92856 330.445 1.85617 330.359 1.80671C330.316 1.78203 330.277 1.76215 330.242 1.74814C330.21 1.73515 330.173 1.72324 330.137 1.72324C330.076 1.72324 330.001 1.73782 329.938 1.78178C329.87 1.82905 329.824 1.90569 329.824 2.00847C329.824 2.00906 329.824 2.00967 329.824 2.01029C329.824 2.02815 329.824 2.0568 329.835 2.09166C329.845 2.12622 329.865 2.16079 329.893 2.20027C329.949 2.27749 330.056 2.39288 330.256 2.58917C332.599 4.90268 333.92 8.69314 333.92 13.4C333.92 17.8755 332.812 21.7111 330.092 24.4175C329.975 24.5209 329.907 24.592 329.869 24.6509C329.849 24.6825 329.836 24.7124 329.83 24.7432C329.824 24.7711 329.824 24.7961 329.824 24.8124L329.824 24.8147C329.824 24.9175 329.87 24.9941 329.938 25.0414C330.001 25.0854 330.076 25.0999 330.137 25.0999C330.175 25.0999 330.215 25.0877 330.251 25.0733C330.288 25.0581 330.33 25.0365 330.375 25.01C330.465 24.9569 330.575 24.88 330.698 24.7826C330.946 24.5874 331.257 24.3047 331.594 23.9519C332.268 23.2462 333.05 22.2544 333.636 21.1094C334.851 18.732 335.399 16.2155 335.399 13.4232C335.399 11.6565 335.162 8.76786 333.826 6.06238Z" fill="" stroke="#5F5B80" stroke-width="0.2"/>
</svg>
