<svg width="471" height="116" viewBox="0 0 471 116" fill="none" xmlns="http://www.w3.org/2000/svg">
<path d="M8.74725 23.4356C9.13952 23.4356 9.29642 23.4356 9.29642 23.0623C9.29642 22.8659 9.13952 22.8659 8.78648 22.8659H7.1978C7.57045 20.8424 7.84504 19.4476 8.00195 18.8189C8.11963 18.3474 8.53151 17.8956 9.04145 17.8956C9.45333 17.8956 9.86521 18.0724 10.0613 18.2492C9.29642 18.3278 9.06107 18.8975 9.06107 19.2315C9.06107 19.6244 9.35526 19.8601 9.72792 19.8601C10.1202 19.8601 10.7086 19.5262 10.7086 18.7796C10.7086 17.9545 9.88482 17.5027 9.02184 17.5027C8.17847 17.5027 7.35471 18.1313 6.96244 18.8975C6.6094 19.5851 6.41327 20.2923 5.96216 22.8659H4.64807C4.27542 22.8659 4.07929 22.8659 4.07929 23.2195C4.07929 23.4356 4.19697 23.4356 4.58923 23.4356H5.84448C5.49144 25.2626 4.6873 29.7025 4.23619 31.8045C3.90277 33.5137 3.60857 34.9478 2.6279 34.9478C2.56906 34.9478 2.00028 34.9478 1.64724 34.5745C2.64752 34.4959 2.64752 33.6315 2.64752 33.6119C2.64752 33.219 2.35332 32.9832 1.98066 32.9832C1.5884 32.9832 1 33.3172 1 34.0637C1 34.9085 1.86298 35.3407 2.6279 35.3407C4.62846 35.3407 5.45222 31.7456 5.66797 30.7633C6.021 29.2506 6.98206 24.0249 7.08012 23.4356H8.74725Z" fill="black" stroke="black" stroke-width="0.2"/>
<path d="M17.9346 36.1065C17.9346 36.0476 17.9346 36.0083 17.6012 35.6743C15.6399 33.6901 14.5415 30.4486 14.5415 26.441C14.5415 22.6298 15.4634 19.349 17.7385 17.0308C17.9346 16.854 17.9346 16.8147 17.9346 16.7558C17.9346 16.6379 17.8366 16.5986 17.7581 16.5986C17.5031 16.5986 15.8949 18.0131 14.9338 19.9383C13.9335 21.9225 13.4824 24.0246 13.4824 26.441C13.4824 28.1894 13.757 30.5272 14.7769 32.6293C15.9341 34.9867 17.5424 36.2636 17.7581 36.2636C17.8366 36.2636 17.9346 36.2244 17.9346 36.1065Z" fill="black" stroke="black" stroke-width="0.2"/>
<path d="M28.3249 23.317C27.6973 23.4349 27.4619 23.9064 27.4619 24.2796C27.4619 24.7511 27.8346 24.9083 28.1092 24.9083C28.6976 24.9083 29.1095 24.3975 29.1095 23.8671C29.1095 23.042 28.168 22.6687 27.3443 22.6687C26.1478 22.6687 25.481 23.8474 25.3045 24.2207C24.8534 22.7473 23.6373 22.6687 23.2843 22.6687C21.2837 22.6687 20.2246 25.2422 20.2246 25.6744C20.2246 25.753 20.3031 25.8513 20.4404 25.8513C20.5973 25.8513 20.6365 25.7334 20.6757 25.6548C21.3426 23.4742 22.6567 23.0616 23.2255 23.0616C24.1081 23.0616 24.2846 23.8867 24.2846 24.3582C24.2846 24.7904 24.1669 25.2422 23.9315 26.1852L23.2647 28.8766C22.9705 30.0554 22.4017 31.1359 21.3622 31.1359C21.2641 31.1359 20.7738 31.1359 20.3619 30.8805C21.068 30.7429 21.2249 30.1536 21.2249 29.9178C21.2249 29.5249 20.9307 29.2892 20.5581 29.2892C20.0873 29.2892 19.5774 29.7017 19.5774 30.3304C19.5774 31.1555 20.4992 31.5288 21.3426 31.5288C22.284 31.5288 22.9509 30.7822 23.3628 29.9768C23.6766 31.1359 24.6572 31.5288 25.3829 31.5288C27.3835 31.5288 28.4426 28.9552 28.4426 28.523C28.4426 28.4248 28.3641 28.3462 28.2465 28.3462C28.07 28.3462 28.0503 28.4444 27.9915 28.6016C27.4619 30.3304 26.3244 31.1359 25.4418 31.1359C24.7553 31.1359 24.3827 30.6251 24.3827 29.8196C24.3827 29.3874 24.4611 29.0731 24.7749 27.7765L25.4614 25.1047C25.7556 23.926 26.4224 23.0616 27.3246 23.0616C27.3639 23.0616 27.913 23.0616 28.3249 23.317Z" fill="black" stroke="black" stroke-width="0.2"/>
<path d="M35.473 26.441C35.473 24.9479 35.2768 22.5119 34.1785 20.233C33.0213 17.8756 31.413 16.5986 31.1973 16.5986C31.1188 16.5986 31.0208 16.6379 31.0208 16.7558C31.0208 16.8147 31.0208 16.854 31.3542 17.188C33.3155 19.1722 34.4139 22.4137 34.4139 26.4213C34.4139 30.2325 33.492 33.5133 31.2169 35.8314C31.0208 36.0083 31.0208 36.0476 31.0208 36.1065C31.0208 36.2244 31.1188 36.2636 31.1973 36.2636C31.4522 36.2636 33.0605 34.8492 34.0216 32.9239C35.0219 30.9201 35.473 28.7984 35.473 26.441Z" fill="black" stroke="black" stroke-width="0.2"/>
<path d="M56.0969 24.9671C56.3714 24.9671 56.7245 24.9671 56.7245 24.6135C56.7245 24.2402 56.3911 24.2402 56.0969 24.2402H44.5446C44.27 24.2402 43.917 24.2402 43.917 24.5939C43.917 24.9671 44.2504 24.9671 44.5446 24.9671H56.0969ZM56.0969 28.6212C56.3714 28.6212 56.7245 28.6212 56.7245 28.2675C56.7245 27.8943 56.3911 27.8943 56.0969 27.8943H44.5446C44.27 27.8943 43.917 27.8943 43.917 28.2479C43.917 28.6212 44.2504 28.6212 44.5446 28.6212H56.0969Z" fill="black" stroke="black" stroke-width="0.2"/>
<path d="M77.5225 3.18718C76.751 2.2573 76.6464 2.15253 76.1888 1.81201C75.5873 1.35362 74.7897 1 73.9267 1C72.3315 1 71.2332 2.40137 71.2332 3.9599C71.2332 5.49224 72.3184 6.90671 73.8744 6.90671C74.9466 6.90671 76.2019 6.34354 77.2871 4.71952C78.0586 5.6494 78.1632 5.75418 78.6208 6.0947C79.2223 6.55309 80.0199 6.90671 80.8829 6.90671C82.4781 6.90671 83.5765 5.50534 83.5765 3.9468C83.5765 2.41447 82.4912 1 80.9352 1C79.863 1 78.6078 1.56317 77.5225 3.18718ZM77.9148 3.67177C78.4116 2.84666 79.4838 1.49768 81.0267 1.49768C82.4258 1.49768 83.2103 2.76808 83.2103 3.9468C83.2103 5.21721 82.2428 6.19947 81.0921 6.19947C79.9415 6.19947 79.17 5.2434 77.9148 3.67177ZM76.8949 4.23494C76.398 5.06004 75.3258 6.40902 73.7829 6.40902C72.3838 6.40902 71.5993 5.13862 71.5993 3.9599C71.5993 2.6895 72.5669 1.70723 73.7175 1.70723C74.8682 1.70723 75.6396 2.66331 76.8949 4.23494Z" fill="black" stroke="black" stroke-width="0.2"/>
<path d="M88.0732 40.1727L90.4464 33.8862H89.956C89.1911 35.9293 87.1121 37.2652 84.8566 37.8545C84.4447 37.9528 82.5226 38.4636 78.7568 38.4636H66.93L76.9132 26.7353C77.0505 26.5781 77.0897 26.5192 77.0897 26.4209C77.0897 26.3817 77.0897 26.3227 76.9524 26.1263L67.8126 13.6122H78.5607C81.1889 13.6122 82.9737 13.8872 83.1502 13.9265C84.2093 14.0837 85.9157 14.4176 87.4651 15.3999C87.9555 15.7142 89.2892 16.5983 89.956 18.1895H90.4464L88.0732 12.6692H64.8902C64.4391 12.6692 64.4195 12.6888 64.3607 12.8067C64.3411 12.8656 64.3411 13.2389 64.3411 13.455L74.7165 27.6782L64.5568 39.603C64.3607 39.8387 64.3607 39.937 64.3607 39.9566C64.3607 40.1727 64.5372 40.1727 64.8902 40.1727H88.0732Z" fill="black" stroke="black" stroke-width="0.2"/>
<path d="M66.9326 51.7765C66.9718 51.5801 67.1025 51.0824 67.1418 50.8859C67.3248 50.1787 67.3248 50.1656 67.6256 49.7334C68.0571 49.0917 68.6716 48.5154 69.5477 48.5154C70.0184 48.5154 70.293 48.7904 70.293 49.406C70.293 50.1263 69.7438 51.6194 69.4954 52.2611C69.3254 52.6933 69.3254 52.7719 69.3254 52.9422C69.3254 53.6887 69.9399 54.0554 70.5022 54.0554C71.7836 54.0554 72.3197 52.2218 72.3197 52.0516C72.3197 51.9206 72.2151 51.8813 72.1235 51.8813C71.9666 51.8813 71.9405 51.973 71.9013 52.1039C71.5874 53.1779 71.0383 53.6887 70.5414 53.6887C70.3322 53.6887 70.2276 53.5577 70.2276 53.2565C70.2276 52.9552 70.3322 52.6671 70.463 52.3397C70.6591 51.842 71.2344 50.3359 71.2344 49.6024C71.2344 48.6202 70.5545 48.1487 69.613 48.1487C68.5539 48.1487 67.874 48.7904 67.4948 49.2881C67.4033 48.5678 66.828 48.1487 66.1611 48.1487C65.6904 48.1487 65.3635 48.4499 65.1543 48.8559C64.8405 49.4715 64.7097 50.1263 64.7097 50.1525C64.7097 50.2704 64.8012 50.3228 64.9059 50.3228C65.0758 50.3228 65.0889 50.2704 65.1804 49.9299C65.3373 49.2881 65.5727 48.5154 66.1219 48.5154C66.4618 48.5154 66.5403 48.8428 66.5403 49.1309C66.5403 49.3667 66.4749 49.6155 66.3703 50.0477C66.3442 50.1525 66.148 50.9252 66.0957 51.1086L65.6119 53.0731C65.5596 53.2696 65.4812 53.597 65.4812 53.6494C65.4812 53.9506 65.7296 54.0554 65.8996 54.0554C66.135 54.0554 66.3311 53.8982 66.4226 53.7411C66.4618 53.6625 66.5664 53.2172 66.6318 52.9422L66.9326 51.7765Z" fill="black" stroke="black" stroke-width="0.2"/>
<path d="M82.3053 49.5634C82.5014 49.5634 82.763 49.5634 82.763 49.2622C82.763 48.9609 82.4491 48.9609 82.253 48.9609H74.0285C73.8324 48.9609 73.5186 48.9609 73.5186 49.2622C73.5186 49.5634 73.7801 49.5634 73.9762 49.5634H82.3053ZM82.253 52.3399C82.4491 52.3399 82.763 52.3399 82.763 52.0387C82.763 51.7375 82.5014 51.7375 82.3053 51.7375H73.9762C73.7801 51.7375 73.5186 51.7375 73.5186 52.0387C73.5186 52.3399 73.8324 52.3399 74.0285 52.3399H82.253Z" fill="black" stroke="black" stroke-width="0.2"/>
<path d="M89.9462 49.7471C89.9462 48.3457 89.8024 47.4944 89.3709 46.6562C88.7956 45.5037 87.7365 45.2156 87.0173 45.2156C85.3698 45.2156 84.7683 46.4467 84.5852 46.8134C84.1145 47.7695 84.0884 49.0661 84.0884 49.7471C84.0884 50.6115 84.1276 51.9343 84.7552 52.982C85.3567 53.9512 86.3243 54.2001 87.0173 54.2001C87.6449 54.2001 88.7694 54.0036 89.4232 52.707C89.907 51.764 89.9462 50.5984 89.9462 49.7471ZM87.0173 53.8333C86.5727 53.8333 85.6705 53.6238 85.3959 52.2486C85.2521 51.5021 85.2521 50.271 85.2521 49.5899C85.2521 48.6863 85.2521 47.7695 85.3959 47.0491C85.6705 45.7133 86.6904 45.5823 87.0173 45.5823C87.4619 45.5823 88.3641 45.8049 88.6256 46.9968C88.7825 47.7171 88.7825 48.6994 88.7825 49.5899C88.7825 50.3627 88.7825 51.5414 88.6256 52.2748C88.351 53.65 87.4488 53.8333 87.0173 53.8333Z" fill="black" stroke="black" stroke-width="0.2"/>
<path d="M105.551 10.1453C105.943 10.1453 106.1 10.1453 106.1 9.77204C106.1 9.57559 105.943 9.57559 105.59 9.57559H104.001C104.374 7.55211 104.649 6.15729 104.805 5.52864C104.923 5.05715 105.335 4.60531 105.845 4.60531C106.257 4.60531 106.669 4.78212 106.865 4.95893C106.1 5.03751 105.865 5.60722 105.865 5.94119C105.865 6.3341 106.159 6.56985 106.531 6.56985C106.924 6.56985 107.512 6.23588 107.512 5.48935C107.512 4.66425 106.688 4.2124 105.825 4.2124C104.982 4.2124 104.158 4.84105 103.766 5.60722C103.413 6.29481 103.217 7.00205 102.766 9.57559H101.452C101.079 9.57559 100.883 9.57559 100.883 9.92921C100.883 10.1453 101 10.1453 101.393 10.1453H102.648C102.295 11.9723 101.491 16.4122 101.04 18.5142C100.706 20.2234 100.412 21.6575 99.4314 21.6575C99.3725 21.6575 98.8037 21.6575 98.4507 21.2842C99.451 21.2056 99.451 20.3413 99.451 20.3216C99.451 19.9287 99.1568 19.693 98.7841 19.693C98.3919 19.693 97.8035 20.0269 97.8035 20.7734C97.8035 21.6182 98.6665 22.0504 99.4314 22.0504C101.432 22.0504 102.256 18.4553 102.471 17.473C102.824 15.9603 103.786 10.7347 103.884 10.1453H105.551Z" fill="black" stroke="black" stroke-width="0.2"/>
<path d="M112.718 14.1872C112.822 14.1872 112.979 14.1872 112.979 14.0301C112.979 13.9777 112.966 13.9646 112.796 13.7943C111.005 12.1048 110.56 9.66881 110.56 7.63879C110.56 3.86688 112.116 2.09879 112.783 1.49634C112.966 1.32608 112.979 1.31298 112.979 1.24749C112.979 1.18201 112.927 1.09033 112.796 1.09033C112.587 1.09033 111.933 1.75828 111.829 1.87615C110.077 3.70971 109.71 6.06716 109.71 7.63879C109.71 10.5725 110.94 12.9299 112.718 14.1872Z" fill="black" stroke="black" stroke-width="0.2"/>
<path d="M116.382 8.7653C116.421 8.56884 116.552 8.07116 116.591 7.8747C116.774 7.16747 116.774 7.15437 117.075 6.72218C117.506 6.08043 118.121 5.50416 118.997 5.50416C119.467 5.50416 119.742 5.7792 119.742 6.39475C119.742 7.11508 119.193 8.60813 118.944 9.24988C118.774 9.68208 118.774 9.76066 118.774 9.93092C118.774 10.6774 119.389 11.0442 119.951 11.0442C121.233 11.0442 121.769 9.21059 121.769 9.04033C121.769 8.90936 121.664 8.87007 121.573 8.87007C121.416 8.87007 121.389 8.96175 121.35 9.09272C121.036 10.1667 120.487 10.6774 119.99 10.6774C119.781 10.6774 119.677 10.5465 119.677 10.2452C119.677 9.94402 119.781 9.65588 119.912 9.32846C120.108 8.83078 120.683 7.32463 120.683 6.59121C120.683 5.60894 120.003 5.13745 119.062 5.13745C118.003 5.13745 117.323 5.7792 116.944 6.27688C116.852 5.55655 116.277 5.13745 115.61 5.13745C115.139 5.13745 114.812 5.43868 114.603 5.84468C114.289 6.46024 114.159 7.11508 114.159 7.14128C114.159 7.25915 114.25 7.31154 114.355 7.31154C114.525 7.31154 114.538 7.25915 114.629 6.91863C114.786 6.27688 115.022 5.50416 115.571 5.50416C115.911 5.50416 115.989 5.83159 115.989 6.11972C115.989 6.35546 115.924 6.6043 115.819 7.0365C115.793 7.14128 115.597 7.91399 115.545 8.09735L115.061 10.0619C115.009 10.2583 114.93 10.5858 114.93 10.6382C114.93 10.9394 115.179 11.0442 115.349 11.0442C115.584 11.0442 115.78 10.887 115.872 10.7298C115.911 10.6513 116.015 10.206 116.081 9.93092L116.382 8.7653Z" fill="black" stroke="black" stroke-width="0.2"/>
<path d="M126.237 7.63879C126.237 6.39458 126.028 4.90153 125.217 3.3561C124.576 2.15118 123.386 1.09033 123.151 1.09033C123.02 1.09033 122.981 1.18201 122.981 1.24749C122.981 1.29988 122.981 1.32608 123.138 1.48324C124.968 3.22513 125.387 5.62186 125.387 7.63879C125.387 11.3976 123.831 13.1788 123.164 13.7812C122.994 13.9515 122.981 13.9646 122.981 14.0301C122.981 14.0956 123.02 14.1872 123.151 14.1872C123.36 14.1872 124.014 13.5193 124.119 13.4014C125.871 11.5679 126.237 9.21042 126.237 7.63879Z" fill="black" stroke="black" stroke-width="0.2"/>
<path d="M134.79 22.8162C134.79 22.7573 134.79 22.718 134.457 22.384C132.495 20.3998 131.397 17.1583 131.397 13.1507C131.397 9.33948 132.319 6.0587 134.594 3.74055C134.79 3.56374 134.79 3.52445 134.79 3.46551C134.79 3.34764 134.692 3.30835 134.614 3.30835C134.359 3.30835 132.75 4.72282 131.789 6.64806C130.789 8.63224 130.338 10.7343 130.338 13.1507C130.338 14.8991 130.612 17.2369 131.632 19.339C132.79 21.6964 134.398 22.9734 134.614 22.9734C134.692 22.9734 134.79 22.9341 134.79 22.8162Z" fill="black" stroke="black" stroke-width="0.2"/>
<path d="M141.788 15.7047C141.69 16.0387 141.69 16.078 141.415 16.4512C140.984 17.0013 140.121 17.8461 139.199 17.8461C138.395 17.8461 137.944 17.1192 137.944 15.9601C137.944 14.8796 138.552 12.6793 138.924 11.8542C139.591 10.479 140.513 9.77181 141.278 9.77181C142.573 9.77181 142.828 11.3827 142.828 11.5399C142.828 11.5595 142.769 11.8149 142.749 11.8542L141.788 15.7047ZM143.043 10.6755C142.828 10.1647 142.298 9.37891 141.278 9.37891C139.062 9.37891 136.669 12.2471 136.669 15.1546C136.669 17.0995 137.807 18.239 139.14 18.239C140.219 18.239 141.141 17.3942 141.69 16.7459C141.886 17.905 142.808 18.239 143.396 18.239C143.985 18.239 144.455 17.8854 144.808 17.1781C145.122 16.5102 145.397 15.3118 145.397 15.2332C145.397 15.135 145.318 15.0564 145.201 15.0564C145.024 15.0564 145.005 15.1546 144.926 15.4493C144.632 16.6084 144.259 17.8461 143.455 17.8461C142.886 17.8461 142.847 17.3353 142.847 16.9424C142.847 16.4905 142.906 16.2744 143.082 15.5083C143.22 15.0171 143.318 14.5849 143.475 14.0152C144.2 11.0684 144.377 10.3612 144.377 10.2433C144.377 9.96827 144.161 9.75217 143.867 9.75217C143.239 9.75217 143.082 10.4398 143.043 10.6755Z" fill="black" stroke="black" stroke-width="0.2"/>
<path d="M151.497 13.1507C151.497 11.6576 151.301 9.22161 150.202 6.94274C149.045 4.5853 147.437 3.30835 147.221 3.30835C147.143 3.30835 147.045 3.34764 147.045 3.46551C147.045 3.52445 147.045 3.56374 147.378 3.89771C149.339 5.88189 150.438 9.12338 150.438 13.131C150.438 16.9422 149.516 20.223 147.241 22.5412C147.045 22.718 147.045 22.7573 147.045 22.8162C147.045 22.9341 147.143 22.9734 147.221 22.9734C147.476 22.9734 149.084 21.5589 150.046 19.6337C151.046 17.6298 151.497 15.5081 151.497 13.1507Z" fill="black" stroke="black" stroke-width="0.2"/>
<path d="M153.434 26.0281H96.803V26.8139H153.434V26.0281Z" fill="black" stroke="black" stroke-width="0.2"/>
<path d="M120.76 39.052C120.799 38.9342 121.29 37.9519 122.015 37.3233C122.525 36.8518 123.192 36.5374 123.957 36.5374C124.742 36.5374 125.016 37.1268 125.016 37.9126C125.016 39.0324 124.212 41.272 123.82 42.3328C123.643 42.8043 123.545 43.0597 123.545 43.4133C123.545 44.2974 124.153 45.0046 125.095 45.0046C126.919 45.0046 127.605 42.1167 127.605 41.9989C127.605 41.9006 127.527 41.822 127.409 41.822C127.232 41.822 127.213 41.881 127.115 42.215C126.664 43.8259 125.918 44.6117 125.153 44.6117C124.957 44.6117 124.643 44.592 124.643 43.9634C124.643 43.4723 124.859 42.8829 124.977 42.6079C125.369 41.5274 126.193 39.3271 126.193 38.2073C126.193 37.0286 125.506 36.1445 124.016 36.1445C122.27 36.1445 121.348 37.3822 120.995 37.8733C120.937 36.7535 120.132 36.1445 119.269 36.1445C118.642 36.1445 118.21 36.5178 117.877 37.1857C117.524 37.893 117.249 39.0717 117.249 39.1503C117.249 39.2289 117.328 39.3271 117.465 39.3271C117.622 39.3271 117.642 39.3074 117.759 38.8556C118.073 37.6572 118.426 36.5374 119.211 36.5374C119.662 36.5374 119.819 36.8518 119.819 37.4411C119.819 37.8733 119.622 38.6395 119.485 39.2485L118.936 41.3702C118.858 41.7435 118.642 42.6275 118.544 42.9811C118.406 43.4919 118.191 44.4152 118.191 44.5135C118.191 44.7885 118.406 45.0046 118.701 45.0046C118.936 45.0046 119.211 44.8867 119.368 44.592C119.407 44.4938 119.583 43.8062 119.681 43.4133L120.113 41.6452L120.76 39.052Z" fill="black" stroke="black" stroke-width="0.2"/>
<path d="M131.792 31.6848C131.792 31.0562 131.262 30.7615 130.851 30.7615C130.439 30.7615 129.831 31.0365 129.889 31.8616L130.596 40.8592C130.615 41.1932 130.654 41.2717 130.831 41.2717C131.027 41.2717 131.066 41.2128 131.086 40.8592L131.792 31.6848ZM131.792 43.8453C131.792 43.3345 131.36 42.9023 130.851 42.9023C130.301 42.9023 129.889 43.3345 129.889 43.8649C129.889 44.3757 130.321 44.8079 130.831 44.8079C131.38 44.8079 131.792 44.3757 131.792 43.8453Z" fill="black" stroke="black" stroke-width="0.2"/>
<path d="M161.77 36.1065C161.77 36.0476 161.77 36.0083 161.436 35.6743C159.475 33.6901 158.377 30.4486 158.377 26.441C158.377 22.6298 159.298 19.349 161.573 17.0308C161.77 16.854 161.77 16.8147 161.77 16.7558C161.77 16.6379 161.672 16.5986 161.593 16.5986C161.338 16.5986 159.73 18.0131 158.769 19.9383C157.768 21.9225 157.317 24.0246 157.317 26.441C157.317 28.1894 157.592 30.5272 158.612 32.6293C159.769 34.9867 161.377 36.2636 161.593 36.2636C161.672 36.2636 161.77 36.2244 161.77 36.1065Z" fill="black" stroke="black" stroke-width="0.2"/>
<path d="M172.161 23.317C171.533 23.4349 171.298 23.9064 171.298 24.2796C171.298 24.7511 171.67 24.9083 171.945 24.9083C172.533 24.9083 172.945 24.3975 172.945 23.8671C172.945 23.042 172.004 22.6687 171.18 22.6687C169.984 22.6687 169.317 23.8474 169.14 24.2207C168.689 22.7473 167.473 22.6687 167.12 22.6687C165.119 22.6687 164.06 25.2422 164.06 25.6744C164.06 25.753 164.139 25.8513 164.276 25.8513C164.433 25.8513 164.472 25.7334 164.511 25.6548C165.178 23.4742 166.492 23.0616 167.061 23.0616C167.944 23.0616 168.12 23.8867 168.12 24.3582C168.12 24.7904 168.003 25.2422 167.767 26.1852L167.1 28.8766C166.806 30.0554 166.237 31.1359 165.198 31.1359C165.1 31.1359 164.609 31.1359 164.198 30.8805C164.904 30.7429 165.061 30.1536 165.061 29.9178C165.061 29.5249 164.766 29.2892 164.394 29.2892C163.923 29.2892 163.413 29.7017 163.413 30.3304C163.413 31.1555 164.335 31.5288 165.178 31.5288C166.12 31.5288 166.787 30.7822 167.198 29.9768C167.512 31.1359 168.493 31.5288 169.219 31.5288C171.219 31.5288 172.278 28.9552 172.278 28.523C172.278 28.4248 172.2 28.3462 172.082 28.3462C171.906 28.3462 171.886 28.4444 171.827 28.6016C171.298 30.3304 170.16 31.1359 169.277 31.1359C168.591 31.1359 168.218 30.6251 168.218 29.8196C168.218 29.3874 168.297 29.0731 168.611 27.7765L169.297 25.1047C169.591 23.926 170.258 23.0616 171.16 23.0616C171.2 23.0616 171.749 23.0616 172.161 23.317Z" fill="black" stroke="black" stroke-width="0.2"/>
<path d="M191.061 26.8139C191.394 26.8139 191.747 26.8139 191.747 26.421C191.747 26.0281 191.394 26.0281 191.061 26.0281H180.45C180.116 26.0281 179.763 26.0281 179.763 26.421C179.763 26.8139 180.116 26.8139 180.45 26.8139H191.061Z" fill="black" stroke="black" stroke-width="0.2"/>
<path d="M203.653 28.9945C203.554 29.3285 203.554 29.3678 203.28 29.741C202.848 30.2911 201.985 31.1359 201.064 31.1359C200.259 31.1359 199.808 30.409 199.808 29.2499C199.808 28.1694 200.416 25.9691 200.789 25.144C201.456 23.7688 202.378 23.0616 203.143 23.0616C204.437 23.0616 204.692 24.6725 204.692 24.8297C204.692 24.8493 204.633 25.1047 204.614 25.144L203.653 28.9945ZM204.908 23.9653C204.692 23.4545 204.162 22.6687 203.143 22.6687C200.926 22.6687 198.533 25.5369 198.533 28.4444C198.533 30.3893 199.671 31.5288 201.005 31.5288C202.083 31.5288 203.005 30.684 203.554 30.0357C203.751 31.1948 204.672 31.5288 205.261 31.5288C205.849 31.5288 206.32 31.1751 206.673 30.4679C206.987 29.8 207.261 28.6016 207.261 28.523C207.261 28.4248 207.183 28.3462 207.065 28.3462C206.889 28.3462 206.869 28.4444 206.791 28.7391C206.496 29.8982 206.124 31.1359 205.32 31.1359C204.751 31.1359 204.712 30.6251 204.712 30.2322C204.712 29.7803 204.77 29.5642 204.947 28.7981C205.084 28.3069 205.182 27.8747 205.339 27.305C206.065 24.3582 206.241 23.651 206.241 23.5331C206.241 23.2581 206.026 23.042 205.732 23.042C205.104 23.042 204.947 23.7296 204.908 23.9653Z" fill="black" stroke="black" stroke-width="0.2"/>
<path d="M213.361 26.441C213.361 24.9479 213.165 22.5119 212.066 20.233C210.909 17.8756 209.301 16.5986 209.085 16.5986C209.007 16.5986 208.908 16.6379 208.908 16.7558C208.908 16.8147 208.908 16.854 209.242 17.188C211.203 19.1722 212.302 22.4137 212.302 26.4213C212.302 30.2325 211.38 33.5133 209.105 35.8314C208.908 36.0083 208.908 36.0476 208.908 36.1065C208.908 36.2244 209.007 36.2636 209.085 36.2636C209.34 36.2636 210.948 34.8492 211.909 32.9239C212.91 30.9201 213.361 28.7984 213.361 26.441Z" fill="black" stroke="black" stroke-width="0.2"/>
<path d="M217.914 21.0734C217.953 20.8769 218.083 20.3793 218.123 20.1828C218.306 19.4756 218.306 19.4625 218.607 19.0303C219.038 18.3885 219.653 17.8123 220.529 17.8123C220.999 17.8123 221.274 18.0873 221.274 18.7029C221.274 19.4232 220.725 20.9162 220.476 21.558C220.306 21.9902 220.306 22.0688 220.306 22.239C220.306 22.9855 220.921 23.3523 221.483 23.3523C222.765 23.3523 223.301 21.5187 223.301 21.3484C223.301 21.2175 223.196 21.1782 223.105 21.1782C222.948 21.1782 222.921 21.2699 222.882 21.4008C222.568 22.4748 222.019 22.9855 221.522 22.9855C221.313 22.9855 221.209 22.8546 221.209 22.5534C221.209 22.2521 221.313 21.964 221.444 21.6366C221.64 21.1389 222.215 19.6327 222.215 18.8993C222.215 17.917 221.535 17.4456 220.594 17.4456C219.535 17.4456 218.855 18.0873 218.476 18.585C218.384 17.8647 217.809 17.4456 217.142 17.4456C216.671 17.4456 216.344 17.7468 216.135 18.1528C215.821 18.7683 215.691 19.4232 215.691 19.4494C215.691 19.5673 215.782 19.6196 215.887 19.6196C216.057 19.6196 216.07 19.5673 216.161 19.2267C216.318 18.585 216.554 17.8123 217.103 17.8123C217.443 17.8123 217.521 18.1397 217.521 18.4278C217.521 18.6636 217.456 18.9124 217.351 19.3446C217.325 19.4494 217.129 20.2221 217.077 20.4055L216.593 22.37C216.541 22.5664 216.462 22.8939 216.462 22.9463C216.462 23.2475 216.711 23.3523 216.881 23.3523C217.116 23.3523 217.312 23.1951 217.404 23.0379C217.443 22.9594 217.547 22.5141 217.613 22.239L217.914 21.0734Z" fill="black" stroke="black" stroke-width="0.2"/>
<path d="M12.3639 95.1068C12.6201 95.1068 12.9495 95.1068 12.9495 94.7594C12.9495 94.3928 12.6384 94.3928 12.3639 94.3928H1.58558C1.32939 94.3928 1 94.3928 1 94.7401C1 95.1068 1.31109 95.1068 1.58558 95.1068H12.3639ZM12.3639 98.6958C12.6201 98.6958 12.9495 98.6958 12.9495 98.3485C12.9495 97.9818 12.6384 97.9818 12.3639 97.9818H1.58558C1.32939 97.9818 1 97.9818 1 98.3292C1 98.6958 1.31109 98.6958 1.58558 98.6958H12.3639Z" fill="black" stroke="black" stroke-width="0.2"/>
<path d="M27.1931 93.6025C27.5591 93.6025 27.7055 93.6025 27.7055 93.2359C27.7055 93.0429 27.5591 93.0429 27.2297 93.0429H25.7474C26.0951 91.0554 26.3513 89.6854 26.4977 89.068C26.6075 88.6049 26.9918 88.1611 27.4676 88.1611C27.8519 88.1611 28.2362 88.3347 28.4192 88.5084C27.7055 88.5856 27.4859 89.1451 27.4859 89.4732C27.4859 89.8591 27.7604 90.0906 28.1081 90.0906C28.4741 90.0906 29.023 89.7626 29.023 89.0294C29.023 88.219 28.2545 87.7751 27.4493 87.7751C26.6624 87.7751 25.8938 88.3926 25.5279 89.1451C25.1985 89.8205 25.0155 90.5152 24.5946 93.0429H23.3685C23.0208 93.0429 22.8378 93.0429 22.8378 93.3902C22.8378 93.6025 22.9476 93.6025 23.3136 93.6025H24.4848C24.1554 95.397 23.4051 99.7579 22.9842 101.823C22.6732 103.501 22.3987 104.91 21.4837 104.91C21.4288 104.91 20.8981 104.91 20.5687 104.543C21.502 104.466 21.502 103.617 21.502 103.598C21.502 103.212 21.2275 102.98 20.8798 102.98C20.5138 102.98 19.9648 103.308 19.9648 104.042C19.9648 104.871 20.77 105.296 21.4837 105.296C23.3502 105.296 24.1188 101.765 24.3201 100.8C24.6495 99.314 25.5462 94.1814 25.6377 93.6025H27.1931Z" fill="black" stroke="black" stroke-width="0.2"/>
<path d="M35.7643 106.047C35.7643 105.99 35.7643 105.951 35.4532 105.623C33.6233 103.674 32.5985 100.49 32.5985 96.5539C32.5985 92.8105 33.4586 89.5881 35.5813 87.3112C35.7643 87.1376 35.7643 87.099 35.7643 87.0411C35.7643 86.9253 35.6728 86.8867 35.5996 86.8867C35.3617 86.8867 33.8612 88.276 32.9645 90.167C32.0312 92.1159 31.6104 94.1805 31.6104 96.5539C31.6104 98.2713 31.8665 100.567 32.8181 102.632C33.8978 104.948 35.3983 106.202 35.5996 106.202C35.6728 106.202 35.7643 106.163 35.7643 106.047Z" fill="black" stroke="black" stroke-width="0.2"/>
<path d="M42.2932 99.0624C42.2017 99.3904 42.2017 99.429 41.9455 99.7956C41.543 100.336 40.7378 101.166 39.8777 101.166C39.1274 101.166 38.7065 100.452 38.7065 99.3132C38.7065 98.252 39.2738 96.0908 39.6215 95.2804C40.2437 93.9297 41.1038 93.235 41.8174 93.235C43.0252 93.235 43.2631 94.8173 43.2631 94.9717C43.2631 94.991 43.2082 95.2418 43.1899 95.2804L42.2932 99.0624ZM43.4644 94.1226C43.2631 93.621 42.769 92.8491 41.8174 92.8491C39.7496 92.8491 37.5171 95.6663 37.5171 98.5221C37.5171 100.432 38.5785 101.552 39.8228 101.552C40.8293 101.552 41.6893 100.722 42.2017 100.085C42.3847 101.224 43.2448 101.552 43.7938 101.552C44.3428 101.552 44.7819 101.204 45.1113 100.51C45.4041 99.8535 45.6603 98.6765 45.6603 98.5993C45.6603 98.5028 45.5871 98.4256 45.4773 98.4256C45.3126 98.4256 45.2943 98.5221 45.2211 98.8115C44.9466 99.95 44.599 101.166 43.8487 101.166C43.318 101.166 43.2814 100.664 43.2814 100.278C43.2814 99.8342 43.3363 99.622 43.501 98.8694C43.6291 98.387 43.7206 97.9625 43.867 97.4029C44.5441 94.5086 44.7087 93.8139 44.7087 93.6981C44.7087 93.428 44.5075 93.2157 44.233 93.2157C43.6474 93.2157 43.501 93.8911 43.4644 94.1226Z" fill="black" stroke="black" stroke-width="0.2"/>
<path d="M51.3512 96.5539C51.3512 95.0874 51.1682 92.6948 50.1435 90.4564C49.0638 88.1409 47.5633 86.8867 47.362 86.8867C47.2888 86.8867 47.1973 86.9253 47.1973 87.0411C47.1973 87.099 47.1973 87.1376 47.5084 87.4656C49.3383 89.4145 50.3631 92.5983 50.3631 96.5346C50.3631 100.278 49.503 103.5 47.3803 105.777C47.1973 105.951 47.1973 105.99 47.1973 106.047C47.1973 106.163 47.2888 106.202 47.362 106.202C47.5999 106.202 49.1004 104.813 49.9971 102.922C50.9303 100.953 51.3512 98.8694 51.3512 96.5539Z" fill="black" stroke="black" stroke-width="0.2"/>
<path d="M64.5269 96.9017H69.5775C69.8337 96.9017 70.1631 96.9017 70.1631 96.5544C70.1631 96.1877 69.852 96.1877 69.5775 96.1877H64.5269V90.8621C64.5269 90.592 64.5269 90.2446 64.1975 90.2446C63.8498 90.2446 63.8498 90.5727 63.8498 90.8621V96.1877H58.7992C58.543 96.1877 58.2136 96.1877 58.2136 96.5351C58.2136 96.9017 58.5247 96.9017 58.7992 96.9017H63.8498V102.227C63.8498 102.497 63.8498 102.845 64.1792 102.845C64.5269 102.845 64.5269 102.517 64.5269 102.227V96.9017Z" fill="black" stroke="black" stroke-width="0.2"/>
<path d="M83.3896 93.6025C83.7556 93.6025 83.902 93.6025 83.902 93.2359C83.902 93.0429 83.7556 93.0429 83.4262 93.0429H81.944C82.2917 91.0554 82.5479 89.6854 82.6943 89.068C82.8041 88.6049 83.1883 88.1611 83.6641 88.1611C84.0484 88.1611 84.4327 88.3347 84.6157 88.5084C83.902 88.5856 83.6824 89.1451 83.6824 89.4732C83.6824 89.8591 83.9569 90.0906 84.3046 90.0906C84.6706 90.0906 85.2196 89.7626 85.2196 89.0294C85.2196 88.219 84.451 87.7751 83.6458 87.7751C82.859 87.7751 82.0904 88.3926 81.7244 89.1451C81.395 89.8205 81.212 90.5152 80.7911 93.0429H79.5651C79.2174 93.0429 79.0344 93.0429 79.0344 93.3902C79.0344 93.6025 79.1442 93.6025 79.5102 93.6025H80.6813C80.3519 95.397 79.6017 99.7579 79.1808 101.823C78.8697 103.501 78.5952 104.91 77.6802 104.91C77.6253 104.91 77.0946 104.91 76.7653 104.543C77.6985 104.466 77.6985 103.617 77.6985 103.598C77.6985 103.212 77.424 102.98 77.0763 102.98C76.7104 102.98 76.1614 103.308 76.1614 104.042C76.1614 104.871 76.9665 105.296 77.6802 105.296C79.5468 105.296 80.3153 101.765 80.5166 100.8C80.846 99.314 81.7427 94.1814 81.8342 93.6025H83.3896Z" fill="black" stroke="black" stroke-width="0.2"/>
<path d="M89.2467 87.2939C89.3077 87.1266 89.3565 87.0366 89.3565 86.908C89.3565 86.4834 88.9905 86.2004 88.6489 86.2004C88.1609 86.2004 88.0267 86.6507 87.9779 86.8308L86.4286 92.3751C86.3798 92.5295 86.3798 92.5681 86.3798 92.5809C86.3798 92.6967 86.453 92.7224 86.575 92.761C86.7945 92.8639 86.8189 92.8639 86.8433 92.8639C86.8799 92.8639 86.9531 92.8639 87.0385 92.6452L89.2467 87.2939Z" fill="black" stroke="black" stroke-width="0.2"/>
<path d="M96.2397 106.047C96.2397 105.99 96.2397 105.951 95.9286 105.623C94.0986 103.674 93.0739 100.49 93.0739 96.5539C93.0739 92.8105 93.9339 89.5881 96.0567 87.3112C96.2397 87.1376 96.2397 87.099 96.2397 87.0411C96.2397 86.9253 96.1482 86.8867 96.075 86.8867C95.8371 86.8867 94.3365 88.276 93.4398 90.167C92.5066 92.1159 92.0857 94.1805 92.0857 96.5539C92.0857 98.2713 92.3419 100.567 93.2935 102.632C94.3731 104.948 95.8737 106.202 96.075 106.202C96.1482 106.202 96.2397 106.163 96.2397 106.047Z" fill="black" stroke="black" stroke-width="0.2"/>
<path d="M102.768 99.0624C102.677 99.3904 102.677 99.429 102.421 99.7956C102.018 100.336 101.213 101.166 100.353 101.166C99.6025 101.166 99.1816 100.452 99.1816 99.3132C99.1816 98.252 99.7489 96.0908 100.097 95.2804C100.719 93.9297 101.579 93.235 102.293 93.235C103.5 93.235 103.738 94.8173 103.738 94.9717C103.738 94.991 103.683 95.2418 103.665 95.2804L102.768 99.0624ZM103.939 94.1226C103.738 93.621 103.244 92.8491 102.293 92.8491C100.225 92.8491 97.9922 95.6663 97.9922 98.5221C97.9922 100.432 99.0536 101.552 100.298 101.552C101.304 101.552 102.164 100.722 102.677 100.085C102.86 101.224 103.72 101.552 104.269 101.552C104.818 101.552 105.257 101.204 105.586 100.51C105.879 99.8535 106.135 98.6765 106.135 98.5993C106.135 98.5028 106.062 98.4256 105.952 98.4256C105.788 98.4256 105.769 98.5221 105.696 98.8115C105.422 99.95 105.074 101.166 104.324 101.166C103.793 101.166 103.756 100.664 103.756 100.278C103.756 99.8342 103.811 99.622 103.976 98.8694C104.104 98.387 104.196 97.9625 104.342 97.4029C105.019 94.5086 105.184 93.8139 105.184 93.6981C105.184 93.428 104.983 93.2157 104.708 93.2157C104.122 93.2157 103.976 93.8911 103.939 94.1226Z" fill="black" stroke="black" stroke-width="0.2"/>
<path d="M111.827 96.5539C111.827 95.0874 111.644 92.6948 110.619 90.4564C109.539 88.1409 108.039 86.8867 107.838 86.8867C107.764 86.8867 107.673 86.9253 107.673 87.0411C107.673 87.099 107.673 87.1376 107.984 87.4656C109.814 89.4145 110.839 92.5983 110.839 96.5346C110.839 100.278 109.979 103.5 107.856 105.777C107.673 105.951 107.673 105.99 107.673 106.047C107.673 106.163 107.764 106.202 107.838 106.202C108.075 106.202 109.576 104.813 110.473 102.922C111.406 100.953 111.827 98.8694 111.827 96.5539Z" fill="black" stroke="black" stroke-width="0.2"/>
<path d="M119.582 106.047C119.582 105.99 119.582 105.951 119.271 105.623C117.441 103.674 116.416 100.49 116.416 96.5539C116.416 92.8105 117.276 89.5881 119.399 87.3112C119.582 87.1376 119.582 87.099 119.582 87.0411C119.582 86.9253 119.49 86.8867 119.417 86.8867C119.179 86.8867 117.679 88.276 116.782 90.167C115.849 92.1159 115.428 94.1805 115.428 96.5539C115.428 98.2713 115.684 100.567 116.635 102.632C117.715 104.948 119.216 106.202 119.417 106.202C119.49 106.202 119.582 106.163 119.582 106.047Z" fill="black" stroke="black" stroke-width="0.2"/>
<path d="M129.276 93.4859C128.691 93.6017 128.471 94.0648 128.471 94.4314C128.471 94.8945 128.819 95.0488 129.075 95.0488C129.624 95.0488 130.008 94.5472 130.008 94.0262C130.008 93.2157 129.13 92.8491 128.361 92.8491C127.245 92.8491 126.623 94.0069 126.458 94.3735C126.037 92.9263 124.903 92.8491 124.573 92.8491C122.707 92.8491 121.719 95.3769 121.719 95.8014C121.719 95.8786 121.792 95.975 121.92 95.975C122.066 95.975 122.103 95.8593 122.14 95.7821C122.762 93.6403 123.988 93.235 124.519 93.235C125.342 93.235 125.507 94.0455 125.507 94.5086C125.507 94.9331 125.397 95.3769 125.177 96.3031L124.555 98.9466C124.281 100.104 123.75 101.166 122.78 101.166C122.689 101.166 122.231 101.166 121.847 100.915C122.506 100.78 122.652 100.201 122.652 99.9693C122.652 99.5834 122.378 99.3518 122.03 99.3518C121.591 99.3518 121.115 99.757 121.115 100.374C121.115 101.185 121.975 101.552 122.762 101.552C123.64 101.552 124.262 100.818 124.647 100.027C124.939 101.166 125.854 101.552 126.531 101.552C128.398 101.552 129.386 99.0238 129.386 98.5993C129.386 98.5028 129.313 98.4256 129.203 98.4256C129.039 98.4256 129.02 98.5221 128.965 98.6765C128.471 100.374 127.41 101.166 126.586 101.166C125.946 101.166 125.598 100.664 125.598 99.8728C125.598 99.4483 125.671 99.1396 125.964 97.866L126.605 95.2418C126.879 94.0841 127.501 93.235 128.343 93.235C128.38 93.235 128.892 93.235 129.276 93.4859Z" fill="black" stroke="black" stroke-width="0.2"/>
<path d="M146.911 96.9203C147.222 96.9203 147.551 96.9203 147.551 96.5344C147.551 96.1484 147.222 96.1484 146.911 96.1484H137.011C136.7 96.1484 136.37 96.1484 136.37 96.5344C136.37 96.9203 136.7 96.9203 137.011 96.9203H146.911Z" fill="black" stroke="black" stroke-width="0.2"/>
<path d="M158.658 99.0624C158.567 99.3904 158.567 99.429 158.311 99.7956C157.908 100.336 157.103 101.166 156.243 101.166C155.493 101.166 155.072 100.452 155.072 99.3132C155.072 98.252 155.639 96.0908 155.987 95.2804C156.609 93.9297 157.469 93.235 158.183 93.235C159.39 93.235 159.628 94.8173 159.628 94.9717C159.628 94.991 159.573 95.2418 159.555 95.2804L158.658 99.0624ZM159.83 94.1226C159.628 93.621 159.134 92.8491 158.183 92.8491C156.115 92.8491 153.882 95.6663 153.882 98.5221C153.882 100.432 154.944 101.552 156.188 101.552C157.195 101.552 158.055 100.722 158.567 100.085C158.75 101.224 159.61 101.552 160.159 101.552C160.708 101.552 161.147 101.204 161.477 100.51C161.769 99.8535 162.026 98.6765 162.026 98.5993C162.026 98.5028 161.952 98.4256 161.843 98.4256C161.678 98.4256 161.66 98.5221 161.586 98.8115C161.312 99.95 160.964 101.166 160.214 101.166C159.683 101.166 159.647 100.664 159.647 100.278C159.647 99.8342 159.702 99.622 159.866 98.8694C159.994 98.387 160.086 97.9625 160.232 97.4029C160.909 94.5086 161.074 93.8139 161.074 93.6981C161.074 93.428 160.873 93.2157 160.598 93.2157C160.013 93.2157 159.866 93.8911 159.83 94.1226Z" fill="black" stroke="black" stroke-width="0.2"/>
<path d="M167.717 96.5539C167.717 95.0874 167.534 92.6948 166.509 90.4564C165.429 88.1409 163.929 86.8867 163.727 86.8867C163.654 86.8867 163.563 86.9253 163.563 87.0411C163.563 87.099 163.563 87.1376 163.874 87.4656C165.704 89.4145 166.729 92.5983 166.729 96.5346C166.729 100.278 165.868 103.5 163.746 105.777C163.563 105.951 163.563 105.99 163.563 106.047C163.563 106.163 163.654 106.202 163.727 106.202C163.965 106.202 165.466 104.813 166.363 102.922C167.296 100.953 167.717 98.8694 167.717 96.5539Z" fill="black" stroke="black" stroke-width="0.2"/>
<path d="M180.893 96.9017H185.943C186.199 96.9017 186.529 96.9017 186.529 96.5544C186.529 96.1877 186.218 96.1877 185.943 96.1877H180.893V90.8621C180.893 90.592 180.893 90.2446 180.563 90.2446C180.216 90.2446 180.216 90.5727 180.216 90.8621V96.1877H175.165C174.909 96.1877 174.579 96.1877 174.579 96.5351C174.579 96.9017 174.89 96.9017 175.165 96.9017H180.216V102.227C180.216 102.497 180.216 102.845 180.545 102.845C180.893 102.845 180.893 102.517 180.893 102.227V96.9017Z" fill="black" stroke="black" stroke-width="0.2"/>
<path d="M201.585 80.5483C201.951 80.5483 202.097 80.5483 202.097 80.1817C202.097 79.9887 201.951 79.9887 201.622 79.9887H200.139C200.487 78.0012 200.743 76.6312 200.89 76.0138C200.999 75.5507 201.384 75.1069 201.859 75.1069C202.244 75.1069 202.628 75.2805 202.811 75.4542C202.097 75.5314 201.878 76.091 201.878 76.419C201.878 76.8049 202.152 77.0364 202.5 77.0364C202.866 77.0364 203.415 76.7084 203.415 75.9752C203.415 75.1648 202.646 74.7209 201.841 74.7209C201.054 74.7209 200.286 75.3384 199.92 76.091C199.59 76.7663 199.407 77.461 198.986 79.9887H197.76C197.413 79.9887 197.23 79.9887 197.23 80.336C197.23 80.5483 197.339 80.5483 197.705 80.5483H198.877C198.547 82.3428 197.797 86.7037 197.376 88.7683C197.065 90.447 196.791 91.8556 195.876 91.8556C195.821 91.8556 195.29 91.8556 194.961 91.489C195.894 91.4118 195.894 90.5628 195.894 90.5435C195.894 90.1576 195.619 89.9261 195.272 89.9261C194.906 89.9261 194.357 90.2541 194.357 90.9873C194.357 91.817 195.162 92.2416 195.876 92.2416C197.742 92.2416 198.511 88.7104 198.712 87.7456C199.041 86.2598 199.938 81.1272 200.029 80.5483H201.585Z" fill="black" stroke="black" stroke-width="0.2"/>
<path d="M207.441 75.2055C207.502 75.0383 207.551 74.9482 207.551 74.8196C207.551 74.3951 207.185 74.1121 206.844 74.1121C206.356 74.1121 206.222 74.5623 206.173 74.7424L204.623 80.2867C204.575 80.4411 204.575 80.4797 204.575 80.4925C204.575 80.6083 204.648 80.634 204.77 80.6726C204.989 80.7756 205.014 80.7756 205.038 80.7756C205.075 80.7756 205.148 80.7756 205.233 80.5569L207.441 75.2055Z" fill="black" stroke="black" stroke-width="0.2"/>
<path d="M210.958 75.2055C211.019 75.0383 211.068 74.9482 211.068 74.8196C211.068 74.3951 210.702 74.1121 210.36 74.1121C209.872 74.1121 209.738 74.5623 209.689 74.7424L208.14 80.2867C208.091 80.4411 208.091 80.4797 208.091 80.4925C208.091 80.6083 208.164 80.634 208.286 80.6726C208.506 80.7756 208.53 80.7756 208.554 80.7756C208.591 80.7756 208.664 80.7756 208.75 80.5569L210.958 75.2055Z" fill="black" stroke="black" stroke-width="0.2"/>
<path d="M217.95 92.994C217.95 92.9361 217.95 92.8975 217.639 92.5695C215.809 90.6206 214.785 87.4368 214.785 83.5005C214.785 79.7571 215.645 76.5347 217.767 74.2578C217.95 74.0841 217.95 74.0455 217.95 73.9876C217.95 73.8718 217.859 73.8333 217.786 73.8333C217.548 73.8333 216.047 75.2226 215.151 77.1135C214.217 79.0624 213.796 81.1271 213.796 83.5005C213.796 85.2178 214.053 87.514 215.004 89.5786C216.084 91.8941 217.584 93.1484 217.786 93.1484C217.859 93.1484 217.95 93.1098 217.95 92.994Z" fill="black" stroke="black" stroke-width="0.2"/>
<path d="M224.48 86.0087C224.388 86.3367 224.388 86.3753 224.132 86.7419C223.73 87.2822 222.924 88.1119 222.064 88.1119C221.314 88.1119 220.893 87.398 220.893 86.2595C220.893 85.1982 221.46 83.0371 221.808 82.2267C222.43 80.876 223.29 80.1813 224.004 80.1813C225.212 80.1813 225.45 81.7636 225.45 81.9179C225.45 81.9372 225.395 82.1881 225.377 82.2267L224.48 86.0087ZM225.651 81.0689C225.45 80.5672 224.956 79.7954 224.004 79.7954C221.936 79.7954 219.704 82.6126 219.704 85.4684C219.704 87.3787 220.765 88.4978 222.009 88.4978C223.016 88.4978 223.876 87.6681 224.388 87.0313C224.571 88.1698 225.431 88.4978 225.98 88.4978C226.529 88.4978 226.969 88.1505 227.298 87.4559C227.591 86.7998 227.847 85.6227 227.847 85.5456C227.847 85.4491 227.774 85.3719 227.664 85.3719C227.499 85.3719 227.481 85.4684 227.408 85.7578C227.133 86.8963 226.786 88.1119 226.035 88.1119C225.505 88.1119 225.468 87.6102 225.468 87.2243C225.468 86.7805 225.523 86.5682 225.688 85.8157C225.816 85.3333 225.907 84.9088 226.054 84.3492C226.731 81.4549 226.895 80.7602 226.895 80.6444C226.895 80.3743 226.694 80.162 226.42 80.162C225.834 80.162 225.688 80.8374 225.651 81.0689Z" fill="black" stroke="black" stroke-width="0.2"/>
<path d="M233.538 83.5005C233.538 82.034 233.355 79.6413 232.33 77.403C231.25 75.0875 229.75 73.8333 229.548 73.8333C229.475 73.8333 229.384 73.8718 229.384 73.9876C229.384 74.0455 229.384 74.0841 229.695 74.4121C231.525 76.361 232.55 79.5448 232.55 83.4812C232.55 87.2246 231.69 90.447 229.567 92.7239C229.384 92.8975 229.384 92.9361 229.384 92.994C229.384 93.1098 229.475 93.1484 229.548 93.1484C229.786 93.1484 231.287 91.7591 232.184 89.8681C233.117 87.8999 233.538 85.816 233.538 83.5005Z" fill="black" stroke="black" stroke-width="0.2"/>
<path d="M235.345 96.1484H193.423V96.9202H235.345V96.1484Z" fill="black" stroke="black" stroke-width="0.2"/>
<path d="M215.469 111.353H215.066C215.011 111.681 214.865 112.742 214.682 113.051C214.554 113.225 213.511 113.225 212.962 113.225H209.576C210.07 112.781 211.186 111.546 211.662 111.083C214.444 108.381 215.469 107.378 215.469 105.468C215.469 103.249 213.803 101.763 211.681 101.763C209.558 101.763 208.313 103.673 208.313 105.333C208.313 106.317 209.119 106.317 209.174 106.317C209.558 106.317 210.034 106.027 210.034 105.41C210.034 104.87 209.686 104.503 209.174 104.503C209.009 104.503 208.972 104.503 208.917 104.522C209.265 103.21 210.253 102.323 211.443 102.323C212.998 102.323 213.95 103.693 213.95 105.468C213.95 107.108 213.053 108.536 212.01 109.771L208.313 114.132V114.595H214.993L215.469 111.353Z" fill="black" stroke="black" stroke-width="0.2"/>
<path d="M219.742 101.705C219.742 101.088 219.248 100.799 218.864 100.799C218.48 100.799 217.912 101.069 217.967 101.879L218.626 110.717C218.644 111.045 218.681 111.122 218.846 111.122C219.029 111.122 219.065 111.064 219.084 110.717L219.742 101.705ZM219.742 113.65C219.742 113.148 219.34 112.723 218.864 112.723C218.352 112.723 217.967 113.148 217.967 113.669C217.967 114.171 218.37 114.595 218.846 114.595C219.358 114.595 219.742 114.171 219.742 113.65Z" fill="black" stroke="black" stroke-width="0.2"/>
<path d="M243.122 106.047C243.122 105.99 243.122 105.951 242.811 105.623C240.981 103.674 239.957 100.49 239.957 96.5539C239.957 92.8105 240.817 89.5881 242.939 87.3112C243.122 87.1376 243.122 87.099 243.122 87.0411C243.122 86.9253 243.031 86.8867 242.958 86.8867C242.72 86.8867 241.219 88.276 240.323 90.167C239.389 92.1159 238.969 94.1805 238.969 96.5539C238.969 98.2713 239.225 100.567 240.176 102.632C241.256 104.948 242.756 106.202 242.958 106.202C243.031 106.202 243.122 106.163 243.122 106.047Z" fill="black" stroke="black" stroke-width="0.2"/>
<path d="M252.817 93.4859C252.232 93.6017 252.012 94.0648 252.012 94.4314C252.012 94.8945 252.36 95.0488 252.616 95.0488C253.165 95.0488 253.549 94.5472 253.549 94.0262C253.549 93.2157 252.671 92.8491 251.902 92.8491C250.786 92.8491 250.164 94.0069 249.999 94.3735C249.578 92.9263 248.444 92.8491 248.114 92.8491C246.248 92.8491 245.26 95.3769 245.26 95.8014C245.26 95.8786 245.333 95.975 245.461 95.975C245.607 95.975 245.644 95.8593 245.681 95.7821C246.303 93.6403 247.529 93.235 248.06 93.235C248.883 93.235 249.048 94.0455 249.048 94.5086C249.048 94.9331 248.938 95.3769 248.718 96.3031L248.096 98.9466C247.822 100.104 247.291 101.166 246.321 101.166C246.23 101.166 245.772 101.166 245.388 100.915C246.047 100.78 246.193 100.201 246.193 99.9693C246.193 99.5834 245.919 99.3518 245.571 99.3518C245.132 99.3518 244.656 99.757 244.656 100.374C244.656 101.185 245.516 101.552 246.303 101.552C247.181 101.552 247.803 100.818 248.188 100.027C248.48 101.166 249.395 101.552 250.073 101.552C251.939 101.552 252.927 99.0238 252.927 98.5993C252.927 98.5028 252.854 98.4256 252.744 98.4256C252.58 98.4256 252.561 98.5221 252.506 98.6765C252.012 100.374 250.951 101.166 250.127 101.166C249.487 101.166 249.139 100.664 249.139 99.8728C249.139 99.4483 249.212 99.1396 249.505 97.866L250.146 95.2418C250.42 94.0841 251.042 93.235 251.884 93.235C251.921 93.235 252.433 93.235 252.817 93.4859Z" fill="black" stroke="black" stroke-width="0.2"/>
<path d="M270.451 96.9203C270.762 96.9203 271.092 96.9203 271.092 96.5344C271.092 96.1484 270.762 96.1484 270.451 96.1484H260.551C260.24 96.1484 259.911 96.1484 259.911 96.5344C259.911 96.9203 260.24 96.9203 260.551 96.9203H270.451Z" fill="black" stroke="black" stroke-width="0.2"/>
<path d="M282.2 99.0624C282.108 99.3904 282.108 99.429 281.852 99.7956C281.45 100.336 280.644 101.166 279.784 101.166C279.034 101.166 278.613 100.452 278.613 99.3132C278.613 98.252 279.18 96.0908 279.528 95.2804C280.15 93.9297 281.01 93.235 281.724 93.235C282.932 93.235 283.17 94.8173 283.17 94.9717C283.17 94.991 283.115 95.2418 283.097 95.2804L282.2 99.0624ZM283.371 94.1226C283.17 93.621 282.676 92.8491 281.724 92.8491C279.656 92.8491 277.424 95.6663 277.424 98.5221C277.424 100.432 278.485 101.552 279.729 101.552C280.736 101.552 281.596 100.722 282.108 100.085C282.291 101.224 283.151 101.552 283.7 101.552C284.249 101.552 284.689 101.204 285.018 100.51C285.311 99.8535 285.567 98.6765 285.567 98.5993C285.567 98.5028 285.494 98.4256 285.384 98.4256C285.219 98.4256 285.201 98.5221 285.128 98.8115C284.853 99.95 284.506 101.166 283.755 101.166C283.225 101.166 283.188 100.664 283.188 100.278C283.188 99.8342 283.243 99.622 283.408 98.8694C283.536 98.387 283.627 97.9625 283.774 97.4029C284.451 94.5086 284.615 93.8139 284.615 93.6981C284.615 93.428 284.414 93.2157 284.14 93.2157C283.554 93.2157 283.408 93.8911 283.371 94.1226Z" fill="black" stroke="black" stroke-width="0.2"/>
<path d="M291.258 96.5539C291.258 95.0874 291.075 92.6948 290.05 90.4564C288.971 88.1409 287.47 86.8867 287.269 86.8867C287.196 86.8867 287.104 86.9253 287.104 87.0411C287.104 87.099 287.104 87.1376 287.415 87.4656C289.245 89.4145 290.27 92.5983 290.27 96.5346C290.27 100.278 289.41 103.5 287.287 105.777C287.104 105.951 287.104 105.99 287.104 106.047C287.104 106.163 287.196 106.202 287.269 106.202C287.507 106.202 289.007 104.813 289.904 102.922C290.837 100.953 291.258 98.8694 291.258 96.5539Z" fill="black" stroke="black" stroke-width="0.2"/>
<path d="M296.506 90.7674C296.701 90.5744 297.214 90.1499 297.409 89.9698C298.165 89.2366 298.885 88.5291 298.885 87.3585C298.885 85.8277 297.665 84.8372 296.14 84.8372C294.676 84.8372 293.712 86.0078 293.712 87.1527C293.712 87.783 294.188 87.873 294.359 87.873C294.615 87.873 294.993 87.6801 294.993 87.1912C294.993 86.5223 294.383 86.5223 294.237 86.5223C294.591 85.5833 295.408 85.2617 296.006 85.2617C297.14 85.2617 297.726 86.2779 297.726 87.3585C297.726 88.6963 296.835 89.674 295.396 91.2305L293.859 92.9028C293.712 93.0443 293.712 93.07 293.712 93.3916H298.531L298.885 91.089H298.507C298.47 91.3463 298.373 91.9895 298.226 92.2339C298.153 92.3368 297.226 92.3368 297.031 92.3368H294.859L296.506 90.7674Z" fill="black" stroke="black" stroke-width="0.2"/>
<path d="M311.677 96.9017H316.727C316.984 96.9017 317.313 96.9017 317.313 96.5544C317.313 96.1877 317.002 96.1877 316.727 96.1877H311.677V90.8621C311.677 90.592 311.677 90.2446 311.347 90.2446C311 90.2446 311 90.5727 311 90.8621V96.1877H305.949C305.693 96.1877 305.364 96.1877 305.364 96.5351C305.364 96.9017 305.675 96.9017 305.949 96.9017H311V102.227C311 102.497 311 102.845 311.329 102.845C311.677 102.845 311.677 102.517 311.677 102.227V96.9017Z" fill="black" stroke="black" stroke-width="0.2"/>
<path d="M332.369 80.5483C332.735 80.5483 332.881 80.5483 332.881 80.1817C332.881 79.9887 332.735 79.9887 332.406 79.9887H330.923C331.271 78.0012 331.527 76.6312 331.674 76.0138C331.783 75.5507 332.168 75.1069 332.643 75.1069C333.028 75.1069 333.412 75.2805 333.595 75.4542C332.881 75.5314 332.662 76.091 332.662 76.419C332.662 76.8049 332.936 77.0364 333.284 77.0364C333.65 77.0364 334.199 76.7084 334.199 75.9752C334.199 75.1648 333.43 74.7209 332.625 74.7209C331.838 74.7209 331.07 75.3384 330.704 76.091C330.374 76.7663 330.191 77.461 329.77 79.9887H328.544C328.197 79.9887 328.014 79.9887 328.014 80.336C328.014 80.5483 328.124 80.5483 328.49 80.5483H329.661C329.331 82.3428 328.581 86.7037 328.16 88.7683C327.849 90.447 327.575 91.8556 326.66 91.8556C326.605 91.8556 326.074 91.8556 325.745 91.489C326.678 91.4118 326.678 90.5628 326.678 90.5435C326.678 90.1576 326.403 89.9261 326.056 89.9261C325.69 89.9261 325.141 90.2541 325.141 90.9873C325.141 91.817 325.946 92.2416 326.66 92.2416C328.526 92.2416 329.295 88.7104 329.496 87.7456C329.825 86.2598 330.722 81.1272 330.814 80.5483H332.369Z" fill="black" stroke="black" stroke-width="0.2"/>
<path d="M338.227 75.2055C338.288 75.0383 338.336 74.9482 338.336 74.8196C338.336 74.3951 337.97 74.1121 337.629 74.1121C337.141 74.1121 337.007 74.5623 336.958 74.7424L335.408 80.2867C335.36 80.4411 335.36 80.4797 335.36 80.4925C335.36 80.6083 335.433 80.634 335.555 80.6726C335.774 80.7756 335.799 80.7756 335.823 80.7756C335.86 80.7756 335.933 80.7756 336.018 80.5569L338.227 75.2055Z" fill="black" stroke="black" stroke-width="0.2"/>
<path d="M341.742 75.2055C341.803 75.0383 341.851 74.9482 341.851 74.8196C341.851 74.3951 341.485 74.1121 341.144 74.1121C340.656 74.1121 340.522 74.5623 340.473 74.7424L338.924 80.2867C338.875 80.4411 338.875 80.4797 338.875 80.4925C338.875 80.6083 338.948 80.634 339.07 80.6726C339.29 80.7756 339.314 80.7756 339.338 80.7756C339.375 80.7756 339.448 80.7756 339.534 80.5569L341.742 75.2055Z" fill="black" stroke="black" stroke-width="0.2"/>
<path d="M345.258 75.2055C345.319 75.0383 345.367 74.9482 345.367 74.8196C345.367 74.3951 345.001 74.1121 344.66 74.1121C344.172 74.1121 344.038 74.5623 343.989 74.7424L342.439 80.2867C342.391 80.4411 342.391 80.4797 342.391 80.4925C342.391 80.6083 342.464 80.634 342.586 80.6726C342.805 80.7756 342.83 80.7756 342.854 80.7756C342.891 80.7756 342.964 80.7756 343.049 80.5569L345.258 75.2055Z" fill="black" stroke="black" stroke-width="0.2"/>
<path d="M352.251 92.994C352.251 92.9361 352.251 92.8975 351.939 92.5695C350.109 90.6206 349.085 87.4368 349.085 83.5005C349.085 79.7571 349.945 76.5347 352.068 74.2578C352.251 74.0841 352.251 74.0455 352.251 73.9876C352.251 73.8718 352.159 73.8333 352.086 73.8333C351.848 73.8333 350.347 75.2226 349.451 77.1135C348.517 79.0624 348.097 81.1271 348.097 83.5005C348.097 85.2178 348.353 87.514 349.304 89.5786C350.384 91.8941 351.885 93.1484 352.086 93.1484C352.159 93.1484 352.251 93.1098 352.251 92.994Z" fill="black" stroke="black" stroke-width="0.2"/>
<path d="M358.78 86.0087C358.688 86.3367 358.688 86.3753 358.432 86.7419C358.03 87.2822 357.224 88.1119 356.364 88.1119C355.614 88.1119 355.193 87.398 355.193 86.2595C355.193 85.1982 355.76 83.0371 356.108 82.2267C356.73 80.876 357.59 80.1813 358.304 80.1813C359.512 80.1813 359.75 81.7636 359.75 81.9179C359.75 81.9372 359.695 82.1881 359.676 82.2267L358.78 86.0087ZM359.951 81.0689C359.75 80.5672 359.256 79.7954 358.304 79.7954C356.236 79.7954 354.004 82.6126 354.004 85.4684C354.004 87.3787 355.065 88.4978 356.309 88.4978C357.316 88.4978 358.176 87.6681 358.688 87.0313C358.871 88.1698 359.731 88.4978 360.28 88.4978C360.829 88.4978 361.269 88.1505 361.598 87.4559C361.891 86.7998 362.147 85.6227 362.147 85.5456C362.147 85.4491 362.074 85.3719 361.964 85.3719C361.799 85.3719 361.781 85.4684 361.708 85.7578C361.433 86.8963 361.086 88.1119 360.335 88.1119C359.805 88.1119 359.768 87.6102 359.768 87.2243C359.768 86.7805 359.823 86.5682 359.988 85.8157C360.116 85.3333 360.207 84.9088 360.354 84.3492C361.031 81.4549 361.195 80.7602 361.195 80.6444C361.195 80.3743 360.994 80.162 360.72 80.162C360.134 80.162 359.988 80.8374 359.951 81.0689Z" fill="black" stroke="black" stroke-width="0.2"/>
<path d="M367.838 83.5005C367.838 82.034 367.655 79.6413 366.63 77.403C365.551 75.0875 364.05 73.8333 363.849 73.8333C363.776 73.8333 363.684 73.8718 363.684 73.9876C363.684 74.0455 363.684 74.0841 363.995 74.4121C365.825 76.361 366.85 79.5448 366.85 83.4812C366.85 87.2246 365.99 90.447 363.867 92.7239C363.684 92.8975 363.684 92.9361 363.684 92.994C363.684 93.1098 363.776 93.1484 363.849 93.1484C364.087 93.1484 365.587 91.7591 366.484 89.8681C367.417 87.8999 367.838 85.816 367.838 83.5005Z" fill="black" stroke="black" stroke-width="0.2"/>
<path d="M369.645 96.1484H324.208V96.9202H369.645V96.1484Z" fill="black" stroke="black" stroke-width="0.2"/>
<path d="M343.325 107.667C343.014 107.687 342.941 107.706 342.941 107.88C342.941 108.073 343.033 108.073 343.362 108.073H344.204C345.759 108.073 346.455 109.423 346.455 111.276C346.455 113.804 345.21 114.479 344.313 114.479C343.435 114.479 341.935 114.035 341.404 112.762C341.989 112.858 342.52 112.511 342.52 111.816C342.52 111.256 342.136 110.871 341.623 110.871C341.184 110.871 340.708 111.141 340.708 111.874C340.708 113.591 342.337 115 344.368 115C346.546 115 348.156 113.244 348.156 111.295C348.156 109.52 346.802 108.131 345.045 107.803C346.637 107.32 347.662 105.912 347.662 104.406C347.662 102.882 346.162 101.763 344.387 101.763C342.557 101.763 341.203 102.94 341.203 104.349C341.203 105.12 341.77 105.275 342.044 105.275C342.429 105.275 342.868 104.985 342.868 104.406C342.868 103.789 342.429 103.519 342.026 103.519C341.916 103.519 341.88 103.519 341.825 103.538C342.52 102.226 344.24 102.226 344.332 102.226C344.936 102.226 346.125 102.515 346.125 104.406C346.125 104.773 346.07 105.854 345.54 106.683C344.991 107.532 344.368 107.59 343.874 107.61L343.325 107.667Z" fill="black" stroke="black" stroke-width="0.2"/>
<path d="M352.285 101.705C352.285 101.088 351.791 100.799 351.406 100.799C351.022 100.799 350.455 101.069 350.51 101.879L351.168 110.717C351.187 111.045 351.223 111.122 351.388 111.122C351.571 111.122 351.608 111.064 351.626 110.717L352.285 101.705ZM352.285 113.65C352.285 113.148 351.882 112.723 351.406 112.723C350.894 112.723 350.51 113.148 350.51 113.669C350.51 114.171 350.912 114.595 351.388 114.595C351.9 114.595 352.285 114.171 352.285 113.65Z" fill="black" stroke="black" stroke-width="0.2"/>
<path d="M377.423 106.047C377.423 105.99 377.423 105.951 377.112 105.623C375.282 103.674 374.257 100.49 374.257 96.5539C374.257 92.8105 375.117 89.5881 377.24 87.3112C377.423 87.1376 377.423 87.099 377.423 87.0411C377.423 86.9253 377.331 86.8867 377.258 86.8867C377.02 86.8867 375.52 88.276 374.623 90.167C373.69 92.1159 373.269 94.1805 373.269 96.5539C373.269 98.2713 373.525 100.567 374.477 102.632C375.556 104.948 377.057 106.202 377.258 106.202C377.331 106.202 377.423 106.163 377.423 106.047Z" fill="black" stroke="black" stroke-width="0.2"/>
<path d="M387.118 93.4859C386.532 93.6017 386.313 94.0648 386.313 94.4314C386.313 94.8945 386.66 95.0488 386.917 95.0488C387.466 95.0488 387.85 94.5472 387.85 94.0262C387.85 93.2157 386.972 92.8491 386.203 92.8491C385.087 92.8491 384.465 94.0069 384.3 94.3735C383.879 92.9263 382.744 92.8491 382.415 92.8491C380.548 92.8491 379.56 95.3769 379.56 95.8014C379.56 95.8786 379.633 95.975 379.762 95.975C379.908 95.975 379.945 95.8593 379.981 95.7821C380.603 93.6403 381.829 93.235 382.36 93.235C383.184 93.235 383.348 94.0455 383.348 94.5086C383.348 94.9331 383.238 95.3769 383.019 96.3031L382.397 98.9466C382.122 100.104 381.592 101.166 380.622 101.166C380.53 101.166 380.073 101.166 379.688 100.915C380.347 100.78 380.494 100.201 380.494 99.9693C380.494 99.5834 380.219 99.3518 379.871 99.3518C379.432 99.3518 378.956 99.757 378.956 100.374C378.956 101.185 379.816 101.552 380.603 101.552C381.482 101.552 382.104 100.818 382.488 100.027C382.781 101.166 383.696 101.552 384.373 101.552C386.24 101.552 387.228 99.0238 387.228 98.5993C387.228 98.5028 387.155 98.4256 387.045 98.4256C386.88 98.4256 386.862 98.5221 386.807 98.6765C386.313 100.374 385.251 101.166 384.428 101.166C383.787 101.166 383.44 100.664 383.44 99.8728C383.44 99.4483 383.513 99.1396 383.806 97.866L384.446 95.2418C384.721 94.0841 385.343 93.235 386.185 93.235C386.221 93.235 386.734 93.235 387.118 93.4859Z" fill="black" stroke="black" stroke-width="0.2"/>
<path d="M404.751 96.9203C405.062 96.9203 405.392 96.9203 405.392 96.5344C405.392 96.1484 405.062 96.1484 404.751 96.1484H394.851C394.54 96.1484 394.211 96.1484 394.211 96.5344C394.211 96.9203 394.54 96.9203 394.851 96.9203H404.751Z" fill="black" stroke="black" stroke-width="0.2"/>
<path d="M416.5 99.0624C416.409 99.3904 416.409 99.429 416.153 99.7956C415.75 100.336 414.945 101.166 414.085 101.166C413.334 101.166 412.914 100.452 412.914 99.3132C412.914 98.252 413.481 96.0908 413.829 95.2804C414.451 93.9297 415.311 93.235 416.024 93.235C417.232 93.235 417.47 94.8173 417.47 94.9717C417.47 94.991 417.415 95.2418 417.397 95.2804L416.5 99.0624ZM417.671 94.1226C417.47 93.621 416.976 92.8491 416.024 92.8491C413.957 92.8491 411.724 95.6663 411.724 98.5221C411.724 100.432 412.785 101.552 414.03 101.552C415.036 101.552 415.896 100.722 416.409 100.085C416.592 101.224 417.452 101.552 418.001 101.552C418.55 101.552 418.989 101.204 419.318 100.51C419.611 99.8535 419.867 98.6765 419.867 98.5993C419.867 98.5028 419.794 98.4256 419.684 98.4256C419.52 98.4256 419.501 98.5221 419.428 98.8115C419.154 99.95 418.806 101.166 418.056 101.166C417.525 101.166 417.488 100.664 417.488 100.278C417.488 99.8342 417.543 99.622 417.708 98.8694C417.836 98.387 417.928 97.9625 418.074 97.4029C418.751 94.5086 418.916 93.8139 418.916 93.6981C418.916 93.428 418.714 93.2157 418.44 93.2157C417.854 93.2157 417.708 93.8911 417.671 94.1226Z" fill="black" stroke="black" stroke-width="0.2"/>
<path d="M425.559 96.5539C425.559 95.0874 425.376 92.6948 424.351 90.4564C423.271 88.1409 421.771 86.8867 421.569 86.8867C421.496 86.8867 421.405 86.9253 421.405 87.0411C421.405 87.099 421.405 87.1376 421.716 87.4656C423.546 89.4145 424.57 92.5983 424.57 96.5346C424.57 100.278 423.71 103.5 421.588 105.777C421.405 105.951 421.405 105.99 421.405 106.047C421.405 106.163 421.496 106.202 421.569 106.202C421.807 106.202 423.308 104.813 424.204 102.922C425.138 100.953 425.559 98.8694 425.559 96.5539Z" fill="black" stroke="black" stroke-width="0.2"/>
<path d="M430.453 89.0951C431.417 89.0951 432.027 89.8412 432.027 91.1919C432.027 92.7999 431.16 93.2759 430.514 93.2759C429.843 93.2759 428.928 93.0186 428.501 92.3368C428.94 92.3368 429.245 92.0409 429.245 91.6164C429.245 91.2048 428.964 90.9089 428.574 90.9089C428.245 90.9089 427.903 91.1276 427.903 91.6422C427.903 92.8642 429.147 93.6618 430.538 93.6618C432.161 93.6618 433.295 92.4783 433.295 91.1919C433.295 90.1242 432.49 89.1466 431.246 88.8636C432.21 88.5034 432.929 87.6286 432.929 86.5995C432.929 85.5704 431.831 84.8372 430.563 84.8372C429.257 84.8372 428.269 85.5833 428.269 86.5609C428.269 87.0369 428.574 87.2427 428.891 87.2427C429.269 87.2427 429.513 86.9597 429.513 86.5866C429.513 86.1107 429.123 85.9306 428.855 85.9177C429.367 85.2102 430.306 85.1716 430.526 85.1716C430.843 85.1716 431.77 85.2745 431.77 86.5995C431.77 87.5 431.417 88.0403 431.246 88.2461C430.88 88.6449 430.599 88.6706 429.855 88.7221C429.623 88.7349 429.526 88.7478 429.526 88.915C429.526 89.0951 429.635 89.0951 429.843 89.0951H430.453Z" fill="black" stroke="black" stroke-width="0.2"/>
<path d="M445.977 96.9017H451.028C451.284 96.9017 451.613 96.9017 451.613 96.5544C451.613 96.1877 451.302 96.1877 451.028 96.1877H445.977V90.8621C445.977 90.592 445.977 90.2446 445.648 90.2446C445.3 90.2446 445.3 90.5727 445.3 90.8621V96.1877H440.25C439.993 96.1877 439.664 96.1877 439.664 96.5351C439.664 96.9017 439.975 96.9017 440.25 96.9017H445.3V102.227C445.3 102.497 445.3 102.845 445.63 102.845C445.977 102.845 445.977 102.517 445.977 102.227V96.9017Z" fill="black" stroke="black" stroke-width="0.2"/>
<path d="M460.046 100.433C460.046 99.8732 459.606 99.4873 459.167 99.4873C458.636 99.4873 458.271 99.9504 458.271 100.414C458.271 100.973 458.71 101.359 459.149 101.359C459.68 101.359 460.046 100.896 460.046 100.433Z" fill="black" stroke="black" stroke-width="0.2"/>
<path d="M465.023 100.433C465.023 99.8732 464.584 99.4873 464.144 99.4873C463.614 99.4873 463.248 99.9504 463.248 100.414C463.248 100.973 463.687 101.359 464.126 101.359C464.657 101.359 465.023 100.896 465.023 100.433Z" fill="black" stroke="black" stroke-width="0.2"/>
<path d="M470 100.433C470 99.8732 469.561 99.4873 469.122 99.4873C468.591 99.4873 468.225 99.9504 468.225 100.414C468.225 100.973 468.664 101.359 469.103 101.359C469.634 101.359 470 100.896 470 100.433Z" fill="black" stroke="black" stroke-width="0.2"/>
</svg>
