<svg width="694" height="186" viewBox="0 0 694 186" fill="none" xmlns="http://www.w3.org/2000/svg">
<path d="M12.4309 37.2292C13.0097 37.2292 13.2412 37.2292 13.2412 36.6269C13.2412 36.3099 13.0097 36.3099 12.4888 36.3099H10.1447C10.6946 33.0448 11.0997 30.7941 11.3312 29.7797C11.5049 29.0189 12.1126 28.2898 12.865 28.2898C13.4727 28.2898 14.0804 28.5751 14.3698 28.8604C13.2412 28.9872 12.8939 29.9065 12.8939 30.4454C12.8939 31.0794 13.328 31.4598 13.8779 31.4598C14.4566 31.4598 15.3248 30.9209 15.3248 29.7163C15.3248 28.3849 14.1094 27.6558 12.8361 27.6558C11.5917 27.6558 10.3762 28.6702 9.79746 29.9065C9.27656 31.016 8.98717 32.1572 8.32157 36.3099H6.38266C5.83282 36.3099 5.54343 36.3099 5.54343 36.8805C5.54343 37.2292 5.71706 37.2292 6.29584 37.2292H8.14794C7.62703 40.1773 6.44053 47.3415 5.77494 50.7334C5.28297 53.4913 4.84889 55.8055 3.40194 55.8055C3.31512 55.8055 2.47589 55.8055 1.95499 55.2032C3.43088 55.0763 3.43088 53.6815 3.43088 53.6498C3.43088 53.0158 2.99679 52.6354 2.44695 52.6354C1.86817 52.6354 1 53.1743 1 54.3789C1 55.7421 2.27332 56.4395 3.40194 56.4395C6.35372 56.4395 7.56916 50.6383 7.88749 49.0533C8.40839 46.6124 9.8264 38.1802 9.9711 37.2292H12.4309Z" fill="" stroke="" stroke-width="0.5"/>
<path d="M25.9866 57.6755C25.9866 57.5804 25.9866 57.517 25.4947 56.9781C22.6008 53.7764 20.9802 48.5458 20.9802 42.079C20.9802 35.9292 22.3403 30.6353 25.6972 26.8947C25.9866 26.6094 25.9866 26.546 25.9866 26.4509C25.9866 26.2607 25.8419 26.1973 25.7262 26.1973C25.35 26.1973 22.977 28.4797 21.559 31.5863C20.0831 34.788 19.4175 38.1799 19.4175 42.079C19.4175 44.9003 19.8226 48.6726 21.3275 52.0645C23.0349 55.8686 25.4079 57.9291 25.7262 57.9291C25.8419 57.9291 25.9866 57.8657 25.9866 57.6755Z" fill="" stroke="" stroke-width="0.5"/>
<path d="M41.3174 37.0383C40.3914 37.2285 40.0441 37.9893 40.0441 38.5916C40.0441 39.3524 40.594 39.606 40.9991 39.606C41.8673 39.606 42.475 38.7818 42.475 37.9259C42.475 36.5945 41.0859 35.9922 39.8705 35.9922C38.1052 35.9922 37.1213 37.8942 36.8608 38.4965C36.1952 36.119 34.401 35.9922 33.8801 35.9922C30.9283 35.9922 29.3656 40.1449 29.3656 40.8423C29.3656 40.9691 29.4814 41.1276 29.684 41.1276C29.9155 41.1276 29.9734 40.9374 30.0312 40.8106C31.0152 37.2919 32.9541 36.6262 33.7933 36.6262C35.0956 36.6262 35.356 37.9576 35.356 38.7184C35.356 39.4158 35.1824 40.1449 34.8351 41.6665L33.8512 46.0094C33.4171 47.9114 32.5779 49.6549 31.0441 49.6549C30.8994 49.6549 30.1759 49.6549 29.5682 49.2428C30.61 49.0209 30.8415 48.0699 30.8415 47.6895C30.8415 47.0555 30.4074 46.6751 29.8576 46.6751C29.1631 46.6751 28.4106 47.3408 28.4106 48.3552C28.4106 49.6866 29.7708 50.2889 31.0152 50.2889C32.4042 50.2889 33.3882 49.0843 33.9959 47.7846C34.4589 49.6549 35.9058 50.2889 36.9766 50.2889C39.9284 50.2889 41.4911 46.1362 41.4911 45.4388C41.4911 45.2803 41.3753 45.1535 41.2017 45.1535C40.9412 45.1535 40.9123 45.312 40.8255 45.5656C40.0441 48.3552 38.3657 49.6549 37.0634 49.6549C36.0505 49.6549 35.5007 48.8307 35.5007 47.531C35.5007 46.8336 35.6165 46.3264 36.0795 44.2342L37.0923 39.923C37.5264 38.021 38.5104 36.6262 39.8416 36.6262C39.8994 36.6262 40.7097 36.6262 41.3174 37.0383Z" fill="" stroke="" stroke-width="0.5"/>
<path d="M51.8641 42.079C51.8641 39.6698 51.5747 35.739 49.9541 32.0618C48.2467 28.2578 45.8737 26.1973 45.5554 26.1973C45.4396 26.1973 45.2949 26.2607 45.2949 26.4509C45.2949 26.546 45.2949 26.6094 45.7869 27.1483C48.6808 30.35 50.3014 35.5805 50.3014 42.0473C50.3014 48.1971 48.9412 53.4911 45.5843 57.2317C45.2949 57.517 45.2949 57.5804 45.2949 57.6755C45.2949 57.8657 45.4396 57.9291 45.5554 57.9291C45.9316 57.9291 48.3046 55.6467 49.7226 52.5401C51.1985 49.3066 51.8641 45.883 51.8641 42.079Z" fill="" stroke="" stroke-width="0.5"/>
<path d="M82.2944 39.7007C82.6995 39.7007 83.2204 39.7007 83.2204 39.1301C83.2204 38.5278 82.7285 38.5278 82.2944 38.5278H65.2493C64.8441 38.5278 64.3232 38.5278 64.3232 39.0984C64.3232 39.7007 64.8152 39.7007 65.2493 39.7007H82.2944ZM82.2944 45.597C82.6995 45.597 83.2204 45.597 83.2204 45.0264C83.2204 44.4241 82.7285 44.4241 82.2944 44.4241H65.2493C64.8441 44.4241 64.3232 44.4241 64.3232 44.9947C64.3232 45.597 64.8152 45.597 65.2493 45.597H82.2944Z" fill="" stroke="" stroke-width="0.5"/>
<path d="M113.907 4.55613C112.769 3.05566 112.615 2.88659 111.939 2.33713C111.052 1.59746 109.875 1.02686 108.602 1.02686C106.248 1.02686 104.627 3.28813 104.627 5.803C104.627 8.27561 106.229 10.558 108.525 10.558C110.107 10.558 111.959 9.64928 113.56 7.02874C114.698 8.52921 114.853 8.69828 115.528 9.24775C116.415 9.98742 117.592 10.558 118.865 10.558C121.219 10.558 122.84 8.29674 122.84 5.78187C122.84 3.30926 121.238 1.02686 118.943 1.02686C117.361 1.02686 115.509 1.93559 113.907 4.55613ZM114.486 5.33807C115.219 4.00666 116.801 1.82992 119.078 1.82992C121.142 1.82992 122.3 3.87986 122.3 5.78187C122.3 7.83181 120.872 9.41681 119.174 9.41681C117.476 9.41681 116.338 7.87408 114.486 5.33807ZM112.981 6.2468C112.248 7.57821 110.666 9.75495 108.39 9.75495C106.325 9.75495 105.168 7.70501 105.168 5.803C105.168 3.75306 106.595 2.16806 108.293 2.16806C109.991 2.16806 111.129 3.7108 112.981 6.2468Z" fill="" stroke="" stroke-width="0.5"/>
<path d="M129.475 64.2366L132.976 54.0926H132.253C131.124 57.3894 128.057 59.545 124.729 60.496C124.121 60.6545 121.285 61.4787 115.729 61.4787H98.2784L113.008 42.5537C113.211 42.3001 113.269 42.205 113.269 42.0465C113.269 41.9831 113.269 41.888 113.066 41.571L99.5807 21.378H115.439C119.317 21.378 121.951 21.8219 122.211 21.8853C123.774 22.1389 126.291 22.6778 128.578 24.2628C129.301 24.77 131.269 26.1965 132.253 28.7642H132.976L129.475 19.8564H95.2688C94.6032 19.8564 94.5743 19.8881 94.4874 20.0783C94.4585 20.1734 94.4585 20.7757 94.4585 21.1244L109.767 44.0753L94.7768 63.3173C94.4874 63.6977 94.4874 63.8562 94.4874 63.8879C94.4874 64.2366 94.7479 64.2366 95.2688 64.2366H129.475Z" fill="" stroke="" stroke-width="0.5"/>
<path d="M98.2822 82.9609C98.3401 82.6439 98.533 81.8408 98.5909 81.5238C98.861 80.3826 98.861 80.3615 99.3047 79.6641C99.9414 78.6285 100.848 77.6987 102.141 77.6987C102.835 77.6987 103.24 78.1425 103.24 79.1357C103.24 80.2981 102.43 82.7073 102.064 83.7428C101.813 84.4402 101.813 84.567 101.813 84.8418C101.813 86.0464 102.72 86.6381 103.549 86.6381C105.44 86.6381 106.231 83.6794 106.231 83.4047C106.231 83.1934 106.076 83.13 105.941 83.13C105.71 83.13 105.671 83.2779 105.613 83.4892C105.15 85.2222 104.34 86.0464 103.607 86.0464C103.298 86.0464 103.144 85.835 103.144 85.349C103.144 84.8629 103.298 84.398 103.491 83.8696C103.781 83.0666 104.629 80.6362 104.629 79.4527C104.629 77.8677 103.626 77.1069 102.237 77.1069C100.674 77.1069 99.6713 78.1425 99.1118 78.9455C98.9767 77.7832 98.1279 77.1069 97.1439 77.1069C96.4494 77.1069 95.9671 77.593 95.6584 78.2481C95.1954 79.2414 95.0024 80.2981 95.0024 80.3403C95.0024 80.5305 95.1375 80.6151 95.2918 80.6151C95.5426 80.6151 95.5619 80.5305 95.697 79.9811C95.9285 78.9455 96.2758 77.6987 97.0861 77.6987C97.5877 77.6987 97.7034 78.227 97.7034 78.6919C97.7034 79.0723 97.607 79.4739 97.4526 80.1713C97.414 80.3403 97.1246 81.5872 97.0475 81.8831L96.3336 85.0531C96.2565 85.3701 96.1407 85.8984 96.1407 85.983C96.1407 86.469 96.5073 86.6381 96.7581 86.6381C97.1053 86.6381 97.3947 86.3845 97.5298 86.1309C97.5877 86.0041 97.742 85.2856 97.8385 84.8418L98.2822 82.9609Z" fill="" stroke="" stroke-width="0.5"/>
<path d="M120.964 79.3896C121.254 79.3896 121.639 79.3896 121.639 78.9035C121.639 78.4175 121.176 78.4175 120.887 78.4175H108.752C108.463 78.4175 108 78.4175 108 78.9035C108 79.3896 108.385 79.3896 108.675 79.3896H120.964ZM120.887 83.8699C121.176 83.8699 121.639 83.8699 121.639 83.3838C121.639 82.8978 121.254 82.8978 120.964 82.8978H108.675C108.385 82.8978 108 82.8978 108 83.3838C108 83.8699 108.463 83.8699 108.752 83.8699H120.887Z" fill="" stroke="" stroke-width="0.5"/>
<path d="M132.238 79.6862C132.238 77.4249 132.026 76.0512 131.389 74.6987C130.541 72.839 128.978 72.374 127.917 72.374C125.486 72.374 124.598 74.3606 124.328 74.9523C123.634 76.495 123.595 78.5872 123.595 79.6862C123.595 81.081 123.653 83.2155 124.579 84.9061C125.467 86.47 126.894 86.8715 127.917 86.8715C128.843 86.8715 130.502 86.5545 131.467 84.4623C132.18 82.9407 132.238 81.0599 132.238 79.6862ZM127.917 86.2798C127.261 86.2798 125.93 85.9417 125.524 83.7227C125.312 82.5181 125.312 80.5315 125.312 79.4326C125.312 77.9744 125.312 76.495 125.524 75.3327C125.93 73.1771 127.434 72.9658 127.917 72.9658C128.573 72.9658 129.904 73.325 130.29 75.2482C130.521 76.4105 130.521 77.9955 130.521 79.4326C130.521 80.6795 130.521 82.5815 130.29 83.7649C129.885 85.9839 128.553 86.2798 127.917 86.2798Z" fill="" stroke="" stroke-width="0.5"/>
<path d="M155.262 15.7839C155.841 15.7839 156.073 15.7839 156.073 15.1816C156.073 14.8646 155.841 14.8646 155.32 14.8646H152.976C153.526 11.5995 153.931 9.34876 154.163 8.33436C154.336 7.57355 154.944 6.84445 155.697 6.84445C156.304 6.84445 156.912 7.12975 157.201 7.41505C156.073 7.54185 155.725 8.46116 155.725 9.00006C155.725 9.63406 156.16 10.0145 156.709 10.0145C157.288 10.0145 158.156 9.47556 158.156 8.27096C158.156 6.93955 156.941 6.21045 155.668 6.21045C154.423 6.21045 153.208 7.22485 152.629 8.46116C152.108 9.57066 151.819 10.7119 151.153 14.8646H149.214C148.664 14.8646 148.375 14.8646 148.375 15.4352C148.375 15.7839 148.549 15.7839 149.127 15.7839H150.979C150.459 18.732 149.272 25.8962 148.606 29.2881C148.115 32.046 147.68 34.3601 146.233 34.3601C146.147 34.3601 145.307 34.3601 144.787 33.7578C146.262 33.631 146.262 32.2362 146.262 32.2045C146.262 31.5705 145.828 31.1901 145.278 31.1901C144.7 31.1901 143.832 31.729 143.832 32.9336C143.832 34.2967 145.105 34.9941 146.233 34.9941C149.185 34.9941 150.401 29.193 150.719 27.608C151.24 25.1671 152.658 16.7349 152.803 15.7839H155.262Z" fill="" stroke="" stroke-width="0.5"/>
<path d="M165.837 22.3058C165.992 22.3058 166.223 22.3058 166.223 22.0522C166.223 21.9676 166.204 21.9465 165.953 21.6718C163.31 18.9456 162.654 15.0147 162.654 11.7391C162.654 5.65264 164.95 2.79964 165.934 1.8275C166.204 1.55276 166.223 1.53163 166.223 1.42596C166.223 1.32029 166.146 1.17236 165.953 1.17236C165.644 1.17236 164.68 2.25017 164.525 2.44037C161.94 5.39904 161.4 9.20306 161.4 11.7391C161.4 16.4729 163.213 20.277 165.837 22.3058Z" fill="" stroke="" stroke-width="0.5"/>
<path d="M171.243 13.5571C171.301 13.2401 171.494 12.437 171.552 12.12C171.822 10.9788 171.822 10.9577 172.266 10.2603C172.902 9.22473 173.809 8.29486 175.102 8.29486C175.796 8.29486 176.201 8.73866 176.201 9.73193C176.201 10.8943 175.391 13.3035 175.024 14.339C174.774 15.0364 174.774 15.1632 174.774 15.4379C174.774 16.6426 175.68 17.2343 176.51 17.2343C178.401 17.2343 179.192 14.2756 179.192 14.0009C179.192 13.7895 179.037 13.7261 178.902 13.7261C178.671 13.7261 178.632 13.8741 178.574 14.0854C178.111 15.8183 177.301 16.6426 176.568 16.6426C176.259 16.6426 176.105 16.4312 176.105 15.9451C176.105 15.4591 176.259 14.9941 176.452 14.4658C176.742 13.6627 177.59 11.2324 177.59 10.0489C177.59 8.46393 176.587 7.70312 175.198 7.70312C173.635 7.70312 172.632 8.73866 172.073 9.54173C171.938 8.37939 171.089 7.70312 170.105 7.70312C169.41 7.70312 168.928 8.18919 168.619 8.84433C168.156 9.8376 167.963 10.8943 167.963 10.9365C167.963 11.1267 168.098 11.2113 168.253 11.2113C168.504 11.2113 168.523 11.1267 168.658 10.5773C168.889 9.54173 169.237 8.29486 170.047 8.29486C170.549 8.29486 170.664 8.82319 170.664 9.28813C170.664 9.66853 170.568 10.0701 170.414 10.7675C170.375 10.9365 170.086 12.1834 170.008 12.4793L169.295 15.6493C169.217 15.9663 169.102 16.4946 169.102 16.5792C169.102 17.0652 169.468 17.2343 169.719 17.2343C170.066 17.2343 170.356 16.9807 170.491 16.7271C170.549 16.6003 170.703 15.8817 170.799 15.4379L171.243 13.5571Z" fill="" stroke="" stroke-width="0.5"/>
<path d="M185.784 11.7391C185.784 9.73139 185.476 7.32218 184.28 4.82844C183.334 2.88417 181.579 1.17236 181.231 1.17236C181.038 1.17236 180.98 1.3203 180.98 1.42596C180.98 1.5105 180.98 1.55276 181.212 1.80636C183.913 4.61711 184.53 8.48452 184.53 11.7391C184.53 17.8043 182.234 20.6785 181.251 21.6506C181 21.9254 180.98 21.9465 180.98 22.0522C180.98 22.1578 181.038 22.3058 181.231 22.3058C181.54 22.3058 182.505 21.228 182.659 21.0378C185.244 18.0791 185.784 14.2751 185.784 11.7391Z" fill="" stroke="" stroke-width="0.5"/>
<path d="M198.405 36.2302C198.405 36.1351 198.405 36.0717 197.913 35.5327C195.019 32.331 193.398 27.1005 193.398 20.6337C193.398 14.4839 194.758 9.18997 198.115 5.44936C198.405 5.16405 198.405 5.10065 198.405 5.00555C198.405 4.81535 198.26 4.75195 198.144 4.75195C197.768 4.75195 195.395 7.03436 193.977 10.141C192.501 13.3427 191.835 16.7346 191.835 20.6337C191.835 23.455 192.241 27.2273 193.745 30.6192C195.453 34.4232 197.826 36.4838 198.144 36.4838C198.26 36.4838 198.405 36.4204 198.405 36.2302Z" fill="" stroke="" stroke-width="0.5"/>
<path d="M208.73 24.7543C208.585 25.2932 208.585 25.3566 208.18 25.9589C207.543 26.8465 206.27 28.2096 204.91 28.2096C203.723 28.2096 203.058 27.0367 203.058 25.1664C203.058 23.4229 203.955 19.8725 204.505 18.5411C205.489 16.3221 206.849 15.1809 207.977 15.1809C209.887 15.1809 210.264 17.7803 210.264 18.0339C210.264 18.0656 210.177 18.4777 210.148 18.5411L208.73 24.7543ZM210.582 16.6391C210.264 15.8149 209.482 14.5469 207.977 14.5469C204.707 14.5469 201.177 19.1751 201.177 23.8667C201.177 27.005 202.855 28.8436 204.823 28.8436C206.415 28.8436 207.775 27.4805 208.585 26.4344C208.875 28.3047 210.235 28.8436 211.103 28.8436C211.971 28.8436 212.666 28.273 213.186 27.1318C213.649 26.054 214.055 24.1203 214.055 23.9935C214.055 23.835 213.939 23.7082 213.765 23.7082C213.505 23.7082 213.476 23.8667 213.36 24.3422C212.926 26.2125 212.376 28.2096 211.19 28.2096C210.35 28.2096 210.293 27.3854 210.293 26.7514C210.293 26.0223 210.379 25.6736 210.64 24.4373C210.842 23.6448 210.987 22.9474 211.219 22.0281C212.289 17.2731 212.55 16.1319 212.55 15.9417C212.55 15.4979 212.231 15.1492 211.797 15.1492C210.871 15.1492 210.64 16.2587 210.582 16.6391Z" fill="" stroke="" stroke-width="0.5"/>
<path d="M223.055 20.6337C223.055 18.2245 222.766 14.2937 221.145 10.6165C219.438 6.81246 217.065 4.75195 216.746 4.75195C216.631 4.75195 216.486 4.81535 216.486 5.00555C216.486 5.10065 216.486 5.16405 216.978 5.70296C219.872 8.90467 221.492 14.1352 221.492 20.602C221.492 26.7518 220.132 32.0457 216.775 35.7864C216.486 36.0717 216.486 36.1351 216.486 36.2302C216.486 36.4204 216.631 36.4838 216.746 36.4838C217.122 36.4838 219.495 34.2013 220.914 31.0947C222.389 27.8613 223.055 24.4377 223.055 20.6337Z" fill="" stroke="" stroke-width="0.5"/>
<path d="M225.913 41.4126H142.355V42.6806H225.913V41.4126Z" fill="" stroke="" stroke-width="0.5"/>
<path d="M177.704 62.4279C177.761 62.2377 178.485 60.6527 179.556 59.6383C180.308 58.8775 181.292 58.3703 182.421 58.3703C183.578 58.3703 183.983 59.3213 183.983 60.5893C183.983 62.3962 182.797 66.0101 182.218 67.7219C181.958 68.4827 181.813 68.8948 181.813 69.4654C181.813 70.8919 182.71 72.0331 184.099 72.0331C186.79 72.0331 187.803 67.3732 187.803 67.183C187.803 67.0245 187.687 66.8977 187.514 66.8977C187.253 66.8977 187.224 66.9928 187.08 67.5317C186.414 70.1311 185.314 71.3991 184.186 71.3991C183.896 71.3991 183.433 71.3674 183.433 70.353C183.433 69.5605 183.752 68.6095 183.925 68.1657C184.504 66.4222 185.72 62.8717 185.72 61.0648C185.72 59.1628 184.707 57.7363 182.507 57.7363C179.932 57.7363 178.572 59.7334 178.051 60.5259C177.964 58.719 176.777 57.7363 175.504 57.7363C174.578 57.7363 173.941 58.3386 173.449 59.4164C172.929 60.5576 172.523 62.4596 172.523 62.5864C172.523 62.7132 172.639 62.8717 172.842 62.8717C173.073 62.8717 173.102 62.84 173.276 62.1109C173.739 60.1772 174.26 58.3703 175.417 58.3703C176.083 58.3703 176.314 58.8775 176.314 59.8285C176.314 60.5259 176.025 61.7622 175.822 62.7449L175.012 66.1686C174.896 66.7709 174.578 68.1974 174.433 68.768C174.231 69.5922 173.913 71.0821 173.913 71.2406C173.913 71.6844 174.231 72.0331 174.665 72.0331C175.012 72.0331 175.417 71.8429 175.649 71.3674C175.707 71.2089 175.967 70.0994 176.112 69.4654L176.749 66.6124L177.704 62.4279Z" fill="" stroke="" stroke-width="0.5"/>
<path d="M193.981 50.5402C193.981 49.5258 193.2 49.0503 192.592 49.0503C191.984 49.0503 191.087 49.4941 191.174 50.8255L192.216 65.3441C192.245 65.883 192.302 66.0098 192.563 66.0098C192.852 66.0098 192.91 65.9147 192.939 65.3441L193.981 50.5402ZM193.981 70.1626C193.981 69.3384 193.344 68.641 192.592 68.641C191.782 68.641 191.174 69.3384 191.174 70.1943C191.174 71.0185 191.81 71.7159 192.563 71.7159C193.373 71.7159 193.981 71.0185 193.981 70.1626Z" fill="" stroke="" stroke-width="0.5"/>
<path d="M238.212 57.6755C238.212 57.5804 238.212 57.517 237.72 56.9781C234.826 53.7764 233.206 48.5458 233.206 42.079C233.206 35.9292 234.566 30.6353 237.923 26.8947C238.212 26.6094 238.212 26.546 238.212 26.4509C238.212 26.2607 238.068 26.1973 237.952 26.1973C237.576 26.1973 235.203 28.4797 233.785 31.5863C232.309 34.788 231.643 38.1799 231.643 42.079C231.643 44.9003 232.048 48.6726 233.553 52.0645C235.26 55.8686 237.633 57.9291 237.952 57.9291C238.068 57.9291 238.212 57.8657 238.212 57.6755Z" fill="" stroke="" stroke-width="0.5"/>
<path d="M253.544 37.0383C252.618 37.2285 252.271 37.9893 252.271 38.5916C252.271 39.3524 252.821 39.606 253.226 39.606C254.094 39.606 254.702 38.7818 254.702 37.9259C254.702 36.5945 253.312 35.9922 252.097 35.9922C250.332 35.9922 249.348 37.8942 249.087 38.4965C248.422 36.119 246.628 35.9922 246.107 35.9922C243.155 35.9922 241.592 40.1449 241.592 40.8423C241.592 40.9691 241.708 41.1276 241.911 41.1276C242.142 41.1276 242.2 40.9374 242.258 40.8106C243.242 37.2919 245.181 36.6262 246.02 36.6262C247.322 36.6262 247.583 37.9576 247.583 38.7184C247.583 39.4158 247.409 40.1449 247.062 41.6665L246.078 46.0094C245.644 47.9114 244.804 49.6549 243.271 49.6549C243.126 49.6549 242.402 49.6549 241.795 49.2428C242.837 49.0209 243.068 48.0699 243.068 47.6895C243.068 47.0555 242.634 46.6751 242.084 46.6751C241.39 46.6751 240.637 47.3408 240.637 48.3552C240.637 49.6866 241.997 50.2889 243.242 50.2889C244.631 50.2889 245.615 49.0843 246.222 47.7846C246.685 49.6549 248.132 50.2889 249.203 50.2889C252.155 50.2889 253.718 46.1362 253.718 45.4388C253.718 45.2803 253.602 45.1535 253.428 45.1535C253.168 45.1535 253.139 45.312 253.052 45.5656C252.271 48.3552 250.592 49.6549 249.29 49.6549C248.277 49.6549 247.727 48.8307 247.727 47.531C247.727 46.8336 247.843 46.3264 248.306 44.2342L249.319 39.923C249.753 38.021 250.737 36.6262 252.068 36.6262C252.126 36.6262 252.936 36.6262 253.544 37.0383Z" fill="" stroke="" stroke-width="0.5"/>
<path d="M281.431 42.6806C281.923 42.6806 282.443 42.6806 282.443 42.0466C282.443 41.4126 281.923 41.4126 281.431 41.4126H265.775C265.283 41.4126 264.762 41.4126 264.762 42.0466C264.762 42.6806 265.283 42.6806 265.775 42.6806H281.431Z" fill="" stroke="" stroke-width="0.5"/>
<path d="M300.01 46.1996C299.865 46.7385 299.865 46.8019 299.46 47.4042C298.823 48.2918 297.55 49.6549 296.19 49.6549C295.003 49.6549 294.338 48.482 294.338 46.6117C294.338 44.8682 295.235 41.3178 295.785 39.9864C296.768 37.7674 298.129 36.6262 299.257 36.6262C301.167 36.6262 301.543 39.2256 301.543 39.4792C301.543 39.5109 301.457 39.923 301.428 39.9864L300.01 46.1996ZM301.862 38.0844C301.543 37.2602 300.762 35.9922 299.257 35.9922C295.987 35.9922 292.457 40.6204 292.457 45.312C292.457 48.4503 294.135 50.2889 296.103 50.2889C297.695 50.2889 299.055 48.9258 299.865 47.8797C300.154 49.75 301.514 50.2889 302.383 50.2889C303.251 50.2889 303.945 49.7183 304.466 48.5771C304.929 47.4993 305.334 45.5656 305.334 45.4388C305.334 45.2803 305.219 45.1535 305.045 45.1535C304.785 45.1535 304.756 45.312 304.64 45.7875C304.206 47.6578 303.656 49.6549 302.469 49.6549C301.63 49.6549 301.572 48.8307 301.572 48.1967C301.572 47.4676 301.659 47.1189 301.92 45.8826C302.122 45.0901 302.267 44.3927 302.498 43.4734C303.569 38.7184 303.83 37.5772 303.83 37.387C303.83 36.9432 303.511 36.5945 303.077 36.5945C302.151 36.5945 301.92 37.704 301.862 38.0844Z" fill="" stroke="" stroke-width="0.5"/>
<path d="M314.334 42.079C314.334 39.6698 314.044 35.739 312.424 32.0618C310.716 28.2578 308.343 26.1973 308.025 26.1973C307.909 26.1973 307.765 26.2607 307.765 26.4509C307.765 26.546 307.765 26.6094 308.257 27.1483C311.151 30.35 312.771 35.5805 312.771 42.0473C312.771 48.1971 311.411 53.4911 308.054 57.2317C307.765 57.517 307.765 57.5804 307.765 57.6755C307.765 57.8657 307.909 57.9291 308.025 57.9291C308.401 57.9291 310.774 55.6467 312.192 52.5401C313.668 49.3066 314.334 45.883 314.334 42.079Z" fill="" stroke="" stroke-width="0.5"/>
<path d="M321.051 33.4179C321.109 33.1009 321.302 32.2978 321.36 31.9808C321.63 30.8396 321.63 30.8185 322.074 30.1211C322.71 29.0856 323.617 28.1557 324.91 28.1557C325.604 28.1557 326.009 28.5995 326.009 29.5928C326.009 30.7551 325.199 33.1643 324.833 34.1999C324.582 34.8973 324.582 35.0241 324.582 35.2988C324.582 36.5034 325.489 37.0951 326.318 37.0951C328.209 37.0951 329 34.1364 329 33.8617C329 33.6504 328.845 33.587 328.71 33.587C328.479 33.587 328.44 33.7349 328.382 33.9462C327.919 35.6792 327.109 36.5034 326.376 36.5034C326.067 36.5034 325.913 36.2921 325.913 35.806C325.913 35.3199 326.067 34.855 326.26 34.3267C326.55 33.5236 327.399 31.0932 327.399 29.9098C327.399 28.3248 326.395 27.564 325.006 27.564C323.444 27.564 322.44 28.5995 321.881 29.4026C321.746 28.2402 320.897 27.564 319.913 27.564C319.218 27.564 318.736 28.05 318.427 28.7052C317.964 29.6984 317.771 30.7551 317.771 30.7974C317.771 30.9876 317.907 31.0721 318.061 31.0721C318.312 31.0721 318.331 30.9876 318.466 30.4381C318.698 29.4026 319.045 28.1557 319.855 28.1557C320.357 28.1557 320.472 28.684 320.472 29.149C320.472 29.5294 320.376 29.9309 320.222 30.6283C320.183 30.7974 319.894 32.0442 319.817 32.3401L319.103 35.5101C319.026 35.8271 318.91 36.3555 318.91 36.44C318.91 36.9261 319.276 37.0951 319.527 37.0951C319.874 37.0951 320.164 36.8415 320.299 36.5879C320.357 36.4611 320.511 35.7426 320.608 35.2988L321.051 33.4179Z" fill="" stroke="" stroke-width="0.5"/>
<path d="M17.7672 152.88C18.1452 152.88 18.6312 152.88 18.6312 152.32C18.6312 151.728 18.1722 151.728 17.7672 151.728H1.86401C1.48601 151.728 1 151.728 1 152.288C1 152.88 1.45901 152.88 1.86401 152.88H17.7672ZM17.7672 158.671C18.1452 158.671 18.6312 158.671 18.6312 158.111C18.6312 157.519 18.1722 157.519 17.7672 157.519H1.86401C1.48601 157.519 1 157.519 1 158.08C1 158.671 1.45901 158.671 1.86401 158.671H17.7672Z" fill="" stroke="" stroke-width="0.5"/>
<path d="M39.6476 150.452C40.1876 150.452 40.4036 150.452 40.4036 149.86C40.4036 149.549 40.1876 149.549 39.7016 149.549H37.5145C38.0275 146.342 38.4055 144.131 38.6216 143.135C38.7836 142.388 39.3506 141.672 40.0526 141.672C40.6196 141.672 41.1866 141.952 41.4566 142.232C40.4036 142.357 40.0796 143.259 40.0796 143.789C40.0796 144.412 40.4846 144.785 40.9976 144.785C41.5376 144.785 42.3476 144.256 42.3476 143.073C42.3476 141.765 41.2136 141.049 40.0256 141.049C38.8646 141.049 37.7305 142.045 37.1905 143.259C36.7045 144.349 36.4345 145.47 35.8135 149.549H34.0045C33.4915 149.549 33.2215 149.549 33.2215 150.109C33.2215 150.452 33.3835 150.452 33.9235 150.452H35.6515C35.1655 153.348 34.0585 160.384 33.4375 163.716C32.9785 166.425 32.5735 168.698 31.2235 168.698C31.1425 168.698 30.3594 168.698 29.8734 168.106C31.2505 167.982 31.2505 166.612 31.2505 166.58C31.2505 165.958 30.8454 165.584 30.3324 165.584C29.7924 165.584 28.9824 166.113 28.9824 167.297C28.9824 168.635 30.1704 169.32 31.2235 169.32C33.9775 169.32 35.1115 163.622 35.4085 162.066C35.8945 159.668 37.2175 151.386 37.3525 150.452H39.6476Z" fill="" stroke="" stroke-width="0.5"/>
<path d="M52.2941 170.534C52.2941 170.44 52.2941 170.378 51.8351 169.849C49.1351 166.704 47.6231 161.567 47.6231 155.215C47.6231 149.174 48.8921 143.975 52.0241 140.301C52.2941 140.02 52.2941 139.958 52.2941 139.865C52.2941 139.678 52.1591 139.616 52.0511 139.616C51.7001 139.616 49.4861 141.858 48.1631 144.909C46.786 148.054 46.165 151.385 46.165 155.215C46.165 157.986 46.543 161.691 47.9471 165.023C49.5401 168.759 51.7541 170.783 52.0511 170.783C52.1591 170.783 52.2941 170.721 52.2941 170.534Z" fill="" stroke="" stroke-width="0.5"/>
<path d="M61.9275 159.263C61.7925 159.792 61.7925 159.854 61.4145 160.446C60.8205 161.318 59.6324 162.656 58.3634 162.656C57.2564 162.656 56.6354 161.504 56.6354 159.667C56.6354 157.955 57.4724 154.468 57.9854 153.16C58.9034 150.98 60.1724 149.86 61.2255 149.86C63.0075 149.86 63.3585 152.413 63.3585 152.662C63.3585 152.693 63.2775 153.098 63.2505 153.16L61.9275 159.263ZM63.6555 151.292C63.3585 150.482 62.6295 149.237 61.2255 149.237C58.1744 149.237 54.8804 153.783 54.8804 158.391C54.8804 161.473 56.4464 163.279 58.2824 163.279C59.7674 163.279 61.0365 161.94 61.7925 160.913C62.0625 162.75 63.3315 163.279 64.1415 163.279C64.9515 163.279 65.5995 162.719 66.0855 161.598C66.5175 160.539 66.8955 158.64 66.8955 158.515C66.8955 158.36 66.7875 158.235 66.6255 158.235C66.3825 158.235 66.3555 158.391 66.2475 158.858C65.8425 160.695 65.3295 162.656 64.2225 162.656C63.4395 162.656 63.3855 161.847 63.3855 161.224C63.3855 160.508 63.4665 160.166 63.7095 158.951C63.8985 158.173 64.0335 157.488 64.2495 156.585C65.2485 151.915 65.4915 150.794 65.4915 150.607C65.4915 150.171 65.1945 149.828 64.7895 149.828C63.9255 149.828 63.7095 150.918 63.6555 151.292Z" fill="" stroke="" stroke-width="0.5"/>
<path d="M75.2922 155.215C75.2922 152.849 75.0222 148.988 73.5101 145.376C71.9171 141.64 69.7031 139.616 69.4061 139.616C69.2981 139.616 69.1631 139.678 69.1631 139.865C69.1631 139.958 69.1631 140.02 69.6221 140.55C72.3221 143.695 73.8341 148.832 73.8341 155.184C73.8341 161.224 72.5651 166.424 69.4331 170.098C69.1631 170.378 69.1631 170.44 69.1631 170.534C69.1631 170.721 69.2981 170.783 69.4061 170.783C69.7571 170.783 71.9711 168.541 73.2941 165.49C74.6712 162.314 75.2922 158.951 75.2922 155.215Z" fill="" stroke="" stroke-width="0.5"/>
<path d="M94.7326 155.776H102.185C102.563 155.776 103.049 155.776 103.049 155.215C103.049 154.624 102.59 154.624 102.185 154.624H94.7326V146.03C94.7326 145.594 94.7326 145.034 94.2466 145.034C93.7336 145.034 93.7336 145.563 93.7336 146.03V154.624H86.2815C85.9035 154.624 85.4175 154.624 85.4175 155.184C85.4175 155.776 85.8765 155.776 86.2815 155.776H93.7336V164.369C93.7336 164.805 93.7336 165.366 94.2196 165.366C94.7326 165.366 94.7326 164.836 94.7326 164.369V155.776Z" fill="" stroke="" stroke-width="0.5"/>
<path d="M122.564 150.452C123.104 150.452 123.32 150.452 123.32 149.86C123.32 149.549 123.104 149.549 122.618 149.549H120.431C120.944 146.342 121.322 144.131 121.538 143.135C121.7 142.388 122.267 141.672 122.969 141.672C123.536 141.672 124.103 141.952 124.373 142.232C123.32 142.357 122.996 143.259 122.996 143.789C122.996 144.412 123.401 144.785 123.914 144.785C124.454 144.785 125.264 144.256 125.264 143.073C125.264 141.765 124.13 141.049 122.942 141.049C121.781 141.049 120.647 142.045 120.107 143.259C119.621 144.349 119.351 145.47 118.73 149.549H116.921C116.408 149.549 116.138 149.549 116.138 150.109C116.138 150.452 116.3 150.452 116.84 150.452H118.568C118.082 153.348 116.975 160.384 116.354 163.716C115.895 166.425 115.49 168.698 114.14 168.698C114.059 168.698 113.276 168.698 112.79 168.106C114.167 167.982 114.167 166.612 114.167 166.58C114.167 165.958 113.762 165.584 113.249 165.584C112.709 165.584 111.899 166.113 111.899 167.297C111.899 168.635 113.087 169.32 114.14 169.32C116.894 169.32 118.028 163.622 118.325 162.066C118.811 159.668 120.134 151.386 120.269 150.452H122.564Z" fill="" stroke="" stroke-width="0.5"/>
<path d="M131.206 140.273C131.296 140.003 131.368 139.858 131.368 139.65C131.368 138.965 130.828 138.508 130.324 138.508C129.604 138.508 129.406 139.235 129.334 139.525L127.048 148.472C126.976 148.721 126.976 148.783 126.976 148.804C126.976 148.991 127.084 149.032 127.264 149.095C127.588 149.261 127.624 149.261 127.66 149.261C127.714 149.261 127.822 149.261 127.948 148.908L131.206 140.273Z" fill="" stroke="" stroke-width="0.5"/>
<path d="M141.524 170.534C141.524 170.44 141.524 170.378 141.065 169.849C138.365 166.704 136.853 161.567 136.853 155.215C136.853 149.174 138.122 143.975 141.254 140.301C141.524 140.02 141.524 139.958 141.524 139.865C141.524 139.678 141.389 139.616 141.281 139.616C140.93 139.616 138.716 141.858 137.393 144.909C136.016 148.054 135.395 151.385 135.395 155.215C135.395 157.986 135.773 161.691 137.177 165.023C138.77 168.759 140.984 170.783 141.281 170.783C141.389 170.783 141.524 170.721 141.524 170.534Z" fill="" stroke="" stroke-width="0.5"/>
<path d="M151.157 159.263C151.022 159.792 151.022 159.854 150.644 160.446C150.05 161.318 148.862 162.656 147.593 162.656C146.486 162.656 145.865 161.504 145.865 159.667C145.865 157.955 146.702 154.468 147.215 153.16C148.133 150.98 149.402 149.86 150.455 149.86C152.237 149.86 152.588 152.413 152.588 152.662C152.588 152.693 152.507 153.098 152.48 153.16L151.157 159.263ZM152.885 151.292C152.588 150.482 151.859 149.237 150.455 149.237C147.404 149.237 144.11 153.783 144.11 158.391C144.11 161.473 145.676 163.279 147.512 163.279C148.997 163.279 150.266 161.94 151.022 160.913C151.292 162.75 152.561 163.279 153.371 163.279C154.181 163.279 154.829 162.719 155.315 161.598C155.747 160.539 156.125 158.64 156.125 158.515C156.125 158.36 156.017 158.235 155.855 158.235C155.612 158.235 155.585 158.391 155.477 158.858C155.072 160.695 154.559 162.656 153.452 162.656C152.669 162.656 152.615 161.847 152.615 161.224C152.615 160.508 152.696 160.166 152.939 158.951C153.128 158.173 153.263 157.488 153.479 156.585C154.478 151.915 154.721 150.794 154.721 150.607C154.721 150.171 154.424 149.828 154.019 149.828C153.155 149.828 152.939 150.918 152.885 151.292Z" fill="" stroke="" stroke-width="0.5"/>
<path d="M164.523 155.215C164.523 152.849 164.253 148.988 162.741 145.376C161.148 141.64 158.934 139.616 158.637 139.616C158.529 139.616 158.394 139.678 158.394 139.865C158.394 139.958 158.394 140.02 158.853 140.55C161.553 143.695 163.065 148.832 163.065 155.184C163.065 161.224 161.796 166.424 158.664 170.098C158.394 170.378 158.394 170.44 158.394 170.534C158.394 170.721 158.529 170.783 158.637 170.783C158.988 170.783 161.202 168.541 162.525 165.49C163.902 162.314 164.523 158.951 164.523 155.215Z" fill="" stroke="" stroke-width="0.5"/>
<path d="M175.965 170.534C175.965 170.44 175.965 170.378 175.506 169.849C172.806 166.704 171.294 161.567 171.294 155.215C171.294 149.174 172.563 143.975 175.695 140.301C175.965 140.02 175.965 139.958 175.965 139.865C175.965 139.678 175.83 139.616 175.722 139.616C175.371 139.616 173.157 141.858 171.834 144.909C170.457 148.054 169.836 151.385 169.836 155.215C169.836 157.986 170.214 161.691 171.618 165.023C173.211 168.759 175.425 170.783 175.722 170.783C175.83 170.783 175.965 170.721 175.965 170.534Z" fill="" stroke="" stroke-width="0.5"/>
<path d="M190.269 150.264C189.405 150.451 189.081 151.198 189.081 151.79C189.081 152.537 189.594 152.786 189.972 152.786C190.782 152.786 191.349 151.977 191.349 151.136C191.349 149.828 190.053 149.237 188.919 149.237C187.272 149.237 186.354 151.105 186.111 151.697C185.49 149.361 183.816 149.237 183.33 149.237C180.576 149.237 179.118 153.316 179.118 154.001C179.118 154.125 179.226 154.281 179.415 154.281C179.631 154.281 179.685 154.094 179.739 153.969C180.657 150.513 182.466 149.86 183.249 149.86C184.464 149.86 184.707 151.167 184.707 151.915C184.707 152.6 184.545 153.316 184.221 154.81L183.303 159.076C182.898 160.944 182.115 162.656 180.684 162.656C180.549 162.656 179.874 162.656 179.307 162.252C180.279 162.034 180.495 161.1 180.495 160.726C180.495 160.103 180.09 159.73 179.577 159.73C178.929 159.73 178.227 160.384 178.227 161.38C178.227 162.688 179.496 163.279 180.657 163.279C181.953 163.279 182.871 162.096 183.438 160.819C183.87 162.656 185.22 163.279 186.219 163.279C188.973 163.279 190.431 159.2 190.431 158.515C190.431 158.36 190.323 158.235 190.161 158.235C189.918 158.235 189.891 158.391 189.81 158.64C189.081 161.38 187.515 162.656 186.3 162.656C185.355 162.656 184.842 161.847 184.842 160.57C184.842 159.885 184.95 159.387 185.382 157.332L186.327 153.098C186.732 151.23 187.65 149.86 188.892 149.86C188.946 149.86 189.702 149.86 190.269 150.264Z" fill="" stroke="" stroke-width="0.5"/>
<path d="M216.288 155.806C216.747 155.806 217.233 155.806 217.233 155.183C217.233 154.561 216.747 154.561 216.288 154.561H201.681C201.222 154.561 200.736 154.561 200.736 155.183C200.736 155.806 201.222 155.806 201.681 155.806H216.288Z" fill="" stroke="" stroke-width="0.5"/>
<path d="M233.622 159.263C233.487 159.792 233.487 159.854 233.109 160.446C232.515 161.318 231.327 162.656 230.058 162.656C228.951 162.656 228.33 161.504 228.33 159.667C228.33 157.955 229.167 154.468 229.68 153.16C230.598 150.98 231.867 149.86 232.92 149.86C234.702 149.86 235.053 152.413 235.053 152.662C235.053 152.693 234.972 153.098 234.945 153.16L233.622 159.263ZM235.35 151.292C235.053 150.482 234.324 149.237 232.92 149.237C229.869 149.237 226.575 153.783 226.575 158.391C226.575 161.473 228.141 163.279 229.977 163.279C231.462 163.279 232.731 161.94 233.487 160.913C233.757 162.75 235.026 163.279 235.836 163.279C236.646 163.279 237.294 162.719 237.78 161.598C238.212 160.539 238.59 158.64 238.59 158.515C238.59 158.36 238.482 158.235 238.32 158.235C238.077 158.235 238.05 158.391 237.942 158.858C237.537 160.695 237.024 162.656 235.917 162.656C235.134 162.656 235.08 161.847 235.08 161.224C235.08 160.508 235.161 160.166 235.404 158.951C235.593 158.173 235.728 157.488 235.944 156.585C236.943 151.915 237.186 150.794 237.186 150.607C237.186 150.171 236.889 149.828 236.484 149.828C235.62 149.828 235.404 150.918 235.35 151.292Z" fill="" stroke="" stroke-width="0.5"/>
<path d="M246.987 155.215C246.987 152.849 246.717 148.988 245.205 145.376C243.612 141.64 241.398 139.616 241.101 139.616C240.993 139.616 240.858 139.678 240.858 139.865C240.858 139.958 240.858 140.02 241.317 140.55C244.017 143.695 245.529 148.832 245.529 155.184C245.529 161.224 244.26 166.424 241.128 170.098C240.858 170.378 240.858 170.44 240.858 170.534C240.858 170.721 240.993 170.783 241.101 170.783C241.452 170.783 243.666 168.541 244.989 165.49C246.366 162.314 246.987 158.951 246.987 155.215Z" fill="" stroke="" stroke-width="0.5"/>
<path d="M266.428 155.776H273.88C274.258 155.776 274.744 155.776 274.744 155.215C274.744 154.624 274.285 154.624 273.88 154.624H266.428V146.03C266.428 145.594 266.428 145.034 265.942 145.034C265.429 145.034 265.429 145.563 265.429 146.03V154.624H257.977C257.599 154.624 257.113 154.624 257.113 155.184C257.113 155.776 257.572 155.776 257.977 155.776H265.429V164.369C265.429 164.805 265.429 165.366 265.915 165.366C266.428 165.366 266.428 164.836 266.428 164.369V155.776Z" fill="" stroke="" stroke-width="0.5"/>
<path d="M296.959 129.388C297.499 129.388 297.715 129.388 297.715 128.796C297.715 128.485 297.499 128.485 297.013 128.485H294.826C295.339 125.278 295.717 123.067 295.933 122.071C296.095 121.324 296.662 120.608 297.364 120.608C297.931 120.608 298.498 120.888 298.768 121.168C297.715 121.293 297.391 122.196 297.391 122.725C297.391 123.348 297.796 123.721 298.309 123.721C298.849 123.721 299.659 123.192 299.659 122.009C299.659 120.701 298.525 119.985 297.337 119.985C296.176 119.985 295.042 120.981 294.502 122.196C294.016 123.285 293.746 124.406 293.125 128.485H291.316C290.803 128.485 290.533 128.485 290.533 129.045C290.533 129.388 290.695 129.388 291.235 129.388H292.963C292.477 132.284 291.37 139.32 290.749 142.652C290.29 145.361 289.885 147.634 288.535 147.634C288.454 147.634 287.671 147.634 287.185 147.042C288.562 146.918 288.562 145.548 288.562 145.516C288.562 144.894 288.157 144.52 287.644 144.52C287.104 144.52 286.294 145.049 286.294 146.233C286.294 147.571 287.482 148.256 288.535 148.256C291.289 148.256 292.423 142.559 292.72 141.002C293.206 138.604 294.529 130.322 294.664 129.388H296.959Z" fill="" stroke="" stroke-width="0.5"/>
<path d="M305.6 120.767C305.69 120.497 305.762 120.352 305.762 120.144C305.762 119.459 305.222 119.002 304.718 119.002C303.998 119.002 303.8 119.729 303.728 120.02L301.442 128.966C301.37 129.215 301.37 129.277 301.37 129.298C301.37 129.485 301.478 129.526 301.658 129.589C301.982 129.755 302.018 129.755 302.054 129.755C302.108 129.755 302.216 129.755 302.342 129.402L305.6 120.767Z" fill="" stroke="" stroke-width="0.5"/>
<path d="M310.788 120.767C310.878 120.497 310.95 120.352 310.95 120.144C310.95 119.459 310.41 119.002 309.906 119.002C309.186 119.002 308.988 119.729 308.916 120.02L306.63 128.966C306.558 129.215 306.558 129.277 306.558 129.298C306.558 129.485 306.666 129.526 306.846 129.589C307.17 129.755 307.206 129.755 307.242 129.755C307.296 129.755 307.404 129.755 307.53 129.402L310.788 120.767Z" fill="" stroke="" stroke-width="0.5"/>
<path d="M321.106 149.47C321.106 149.377 321.106 149.315 320.647 148.785C317.947 145.641 316.435 140.503 316.435 134.151C316.435 128.111 317.704 122.911 320.836 119.237C321.106 118.957 321.106 118.895 321.106 118.801C321.106 118.615 320.971 118.552 320.863 118.552C320.512 118.552 318.298 120.794 316.975 123.845C315.598 126.99 314.977 130.322 314.977 134.151C314.977 136.923 315.355 140.628 316.759 143.959C318.352 147.696 320.566 149.719 320.863 149.719C320.971 149.719 321.106 149.657 321.106 149.47Z" fill="" stroke="" stroke-width="0.5"/>
<path d="M330.74 138.199C330.605 138.728 330.605 138.79 330.227 139.382C329.633 140.254 328.445 141.592 327.176 141.592C326.069 141.592 325.448 140.44 325.448 138.603C325.448 136.891 326.285 133.404 326.798 132.096C327.716 129.916 328.985 128.796 330.038 128.796C331.82 128.796 332.171 131.349 332.171 131.598C332.171 131.629 332.09 132.034 332.063 132.096L330.74 138.199ZM332.468 130.228C332.171 129.418 331.442 128.173 330.038 128.173C326.987 128.173 323.693 132.719 323.693 137.327C323.693 140.409 325.259 142.215 327.095 142.215C328.58 142.215 329.849 140.876 330.605 139.849C330.875 141.686 332.144 142.215 332.954 142.215C333.764 142.215 334.412 141.655 334.898 140.534C335.33 139.475 335.708 137.576 335.708 137.451C335.708 137.296 335.6 137.171 335.438 137.171C335.195 137.171 335.168 137.327 335.06 137.794C334.655 139.631 334.142 141.592 333.035 141.592C332.252 141.592 332.198 140.783 332.198 140.16C332.198 139.444 332.279 139.102 332.522 137.887C332.711 137.109 332.846 136.424 333.062 135.521C334.061 130.851 334.304 129.73 334.304 129.543C334.304 129.107 334.007 128.764 333.602 128.764C332.738 128.764 332.522 129.854 332.468 130.228Z" fill="" stroke="" stroke-width="0.5"/>
<path d="M344.105 134.151C344.105 131.785 343.835 127.924 342.323 124.312C340.73 120.576 338.516 118.552 338.219 118.552C338.111 118.552 337.976 118.615 337.976 118.801C337.976 118.895 337.976 118.957 338.435 119.486C341.135 122.631 342.647 127.769 342.647 134.12C342.647 140.161 341.378 145.36 338.246 149.034C337.976 149.315 337.976 149.377 337.976 149.47C337.976 149.657 338.111 149.719 338.219 149.719C338.57 149.719 340.784 147.478 342.107 144.426C343.484 141.25 344.105 137.888 344.105 134.151Z" fill="" stroke="" stroke-width="0.5"/>
<path d="M346.772 154.561H284.917V155.806H346.772V154.561Z" fill="" stroke="" stroke-width="0.5"/>
<path d="M317.444 179.095H316.85C316.769 179.624 316.553 181.337 316.283 181.835C316.094 182.115 314.555 182.115 313.745 182.115H308.75C309.479 181.399 311.126 179.406 311.828 178.659C315.932 174.3 317.444 172.681 317.444 169.598C317.444 166.018 314.987 163.62 311.855 163.62C308.723 163.62 306.887 166.703 306.887 169.38C306.887 170.968 308.075 170.968 308.156 170.968C308.723 170.968 309.425 170.501 309.425 169.505C309.425 168.633 308.912 168.041 308.156 168.041C307.913 168.041 307.859 168.041 307.778 168.073C308.291 165.955 309.749 164.523 311.504 164.523C313.799 164.523 315.203 166.734 315.203 169.598C315.203 172.245 313.88 174.549 312.341 176.542L306.887 183.578V184.326H316.742L317.444 179.095Z" fill="" stroke="" stroke-width="0.5"/>
<path d="M323.75 163.527C323.75 162.531 323.021 162.064 322.454 162.064C321.887 162.064 321.05 162.5 321.131 163.808L322.103 178.068C322.13 178.597 322.184 178.722 322.427 178.722C322.697 178.722 322.751 178.628 322.778 178.068L323.75 163.527ZM323.75 182.801C323.75 181.991 323.156 181.306 322.454 181.306C321.698 181.306 321.131 181.991 321.131 182.832C321.131 183.641 321.725 184.326 322.427 184.326C323.183 184.326 323.75 183.641 323.75 182.801Z" fill="" stroke="" stroke-width="0.5"/>
<path d="M358.247 170.534C358.247 170.44 358.247 170.378 357.788 169.849C355.088 166.704 353.576 161.567 353.576 155.215C353.576 149.174 354.845 143.975 357.977 140.301C358.247 140.02 358.247 139.958 358.247 139.865C358.247 139.678 358.112 139.616 358.004 139.616C357.653 139.616 355.439 141.858 354.116 144.909C352.739 148.054 352.118 151.385 352.118 155.215C352.118 157.986 352.496 161.691 353.9 165.023C355.493 168.759 357.707 170.783 358.004 170.783C358.112 170.783 358.247 170.721 358.247 170.534Z" fill="" stroke="" stroke-width="0.5"/>
<path d="M372.551 150.264C371.687 150.451 371.363 151.198 371.363 151.79C371.363 152.537 371.876 152.786 372.254 152.786C373.064 152.786 373.631 151.977 373.631 151.136C373.631 149.828 372.335 149.237 371.201 149.237C369.554 149.237 368.636 151.105 368.393 151.697C367.772 149.361 366.098 149.237 365.612 149.237C362.858 149.237 361.4 153.316 361.4 154.001C361.4 154.125 361.508 154.281 361.697 154.281C361.913 154.281 361.967 154.094 362.021 153.969C362.939 150.513 364.748 149.86 365.531 149.86C366.746 149.86 366.989 151.167 366.989 151.915C366.989 152.6 366.827 153.316 366.503 154.81L365.585 159.076C365.18 160.944 364.397 162.656 362.966 162.656C362.831 162.656 362.156 162.656 361.589 162.252C362.561 162.034 362.777 161.1 362.777 160.726C362.777 160.103 362.372 159.73 361.859 159.73C361.211 159.73 360.509 160.384 360.509 161.38C360.509 162.688 361.778 163.279 362.939 163.279C364.235 163.279 365.153 162.096 365.72 160.819C366.152 162.656 367.502 163.279 368.501 163.279C371.255 163.279 372.713 159.2 372.713 158.515C372.713 158.36 372.605 158.235 372.443 158.235C372.2 158.235 372.173 158.391 372.092 158.64C371.363 161.38 369.797 162.656 368.582 162.656C367.637 162.656 367.124 161.847 367.124 160.57C367.124 159.885 367.232 159.387 367.664 157.332L368.609 153.098C369.014 151.23 369.932 149.86 371.174 149.86C371.228 149.86 371.984 149.86 372.551 150.264Z" fill="" stroke="" stroke-width="0.5"/>
<path d="M398.57 155.806C399.029 155.806 399.515 155.806 399.515 155.183C399.515 154.561 399.029 154.561 398.57 154.561H383.963C383.504 154.561 383.018 154.561 383.018 155.183C383.018 155.806 383.504 155.806 383.963 155.806H398.57Z" fill="" stroke="" stroke-width="0.5"/>
<path d="M415.905 159.263C415.77 159.792 415.77 159.854 415.392 160.446C414.798 161.318 413.609 162.656 412.34 162.656C411.233 162.656 410.612 161.504 410.612 159.667C410.612 157.955 411.449 154.468 411.962 153.16C412.88 150.98 414.149 149.86 415.203 149.86C416.985 149.86 417.336 152.413 417.336 152.662C417.336 152.693 417.255 153.098 417.228 153.16L415.905 159.263ZM417.633 151.292C417.336 150.482 416.607 149.237 415.203 149.237C412.151 149.237 408.857 153.783 408.857 158.391C408.857 161.473 410.423 163.279 412.259 163.279C413.744 163.279 415.014 161.94 415.77 160.913C416.04 162.75 417.309 163.279 418.119 163.279C418.929 163.279 419.577 162.719 420.063 161.598C420.495 160.539 420.873 158.64 420.873 158.515C420.873 158.36 420.765 158.235 420.603 158.235C420.36 158.235 420.333 158.391 420.225 158.858C419.82 160.695 419.307 162.656 418.2 162.656C417.417 162.656 417.363 161.847 417.363 161.224C417.363 160.508 417.444 160.166 417.687 158.951C417.876 158.173 418.011 157.488 418.227 156.585C419.226 151.915 419.469 150.794 419.469 150.607C419.469 150.171 419.172 149.828 418.767 149.828C417.903 149.828 417.687 150.918 417.633 151.292Z" fill="" stroke="" stroke-width="0.5"/>
<path d="M429.27 155.215C429.27 152.849 429 148.988 427.488 145.376C425.895 141.64 423.681 139.616 423.384 139.616C423.276 139.616 423.141 139.678 423.141 139.865C423.141 139.958 423.141 140.02 423.6 140.55C426.3 143.695 427.812 148.832 427.812 155.184C427.812 161.224 426.543 166.424 423.411 170.098C423.141 170.378 423.141 170.44 423.141 170.534C423.141 170.721 423.276 170.783 423.384 170.783C423.735 170.783 425.949 168.541 427.272 165.49C428.649 162.314 429.27 158.951 429.27 155.215Z" fill="" stroke="" stroke-width="0.5"/>
<path d="M437.013 145.878C437.301 145.566 438.057 144.881 438.345 144.591C439.461 143.408 440.523 142.266 440.523 140.377C440.523 137.907 438.723 136.309 436.473 136.309C434.313 136.309 432.891 138.198 432.891 140.045C432.891 141.062 433.593 141.207 433.845 141.207C434.223 141.207 434.781 140.896 434.781 140.107C434.781 139.028 433.881 139.028 433.665 139.028C434.187 137.513 435.393 136.994 436.275 136.994C437.949 136.994 438.813 138.633 438.813 140.377C438.813 142.536 437.499 144.113 435.375 146.625L433.107 149.323C432.891 149.552 432.891 149.593 432.891 150.112H440.001L440.523 146.397H439.965C439.911 146.812 439.767 147.85 439.551 148.244C439.443 148.41 438.075 148.41 437.787 148.41H434.583L437.013 145.878Z" fill="" stroke="" stroke-width="0.5"/>
<path d="M459.397 155.776H466.849C467.227 155.776 467.713 155.776 467.713 155.215C467.713 154.624 467.254 154.624 466.849 154.624H459.397V146.03C459.397 145.594 459.397 145.034 458.911 145.034C458.398 145.034 458.398 145.563 458.398 146.03V154.624H450.946C450.568 154.624 450.082 154.624 450.082 155.184C450.082 155.776 450.541 155.776 450.946 155.776H458.398V164.369C458.398 164.805 458.398 165.366 458.884 165.366C459.397 165.366 459.397 164.836 459.397 164.369V155.776Z" fill="" stroke="" stroke-width="0.5"/>
<path d="M489.928 129.388C490.468 129.388 490.684 129.388 490.684 128.796C490.684 128.485 490.468 128.485 489.982 128.485H487.795C488.308 125.278 488.686 123.067 488.902 122.071C489.064 121.324 489.631 120.608 490.333 120.608C490.9 120.608 491.467 120.888 491.737 121.168C490.684 121.293 490.36 122.196 490.36 122.725C490.36 123.348 490.765 123.721 491.278 123.721C491.818 123.721 492.628 123.192 492.628 122.009C492.628 120.701 491.494 119.985 490.306 119.985C489.145 119.985 488.011 120.981 487.471 122.196C486.985 123.285 486.715 124.406 486.094 128.485H484.285C483.772 128.485 483.502 128.485 483.502 129.045C483.502 129.388 483.664 129.388 484.204 129.388H485.932C485.446 132.284 484.339 139.32 483.718 142.652C483.259 145.361 482.854 147.634 481.504 147.634C481.423 147.634 480.64 147.634 480.154 147.042C481.531 146.918 481.531 145.548 481.531 145.516C481.531 144.894 481.126 144.52 480.613 144.52C480.073 144.52 479.263 145.049 479.263 146.233C479.263 147.571 480.451 148.256 481.504 148.256C484.258 148.256 485.392 142.559 485.689 141.002C486.175 138.604 487.498 130.322 487.633 129.388H489.928Z" fill="" stroke="" stroke-width="0.5"/>
<path d="M498.571 120.767C498.661 120.497 498.733 120.352 498.733 120.144C498.733 119.459 498.193 119.002 497.689 119.002C496.969 119.002 496.771 119.729 496.699 120.02L494.413 128.966C494.341 129.215 494.341 129.277 494.341 129.298C494.341 129.485 494.449 129.526 494.629 129.589C494.953 129.755 494.989 129.755 495.025 129.755C495.079 129.755 495.187 129.755 495.313 129.402L498.571 120.767Z" fill="" stroke="" stroke-width="0.5"/>
<path d="M503.757 120.767C503.847 120.497 503.919 120.352 503.919 120.144C503.919 119.459 503.379 119.002 502.875 119.002C502.155 119.002 501.957 119.729 501.885 120.02L499.599 128.966C499.527 129.215 499.527 129.277 499.527 129.298C499.527 129.485 499.635 129.526 499.815 129.589C500.139 129.755 500.175 129.755 500.211 129.755C500.265 129.755 500.373 129.755 500.499 129.402L503.757 120.767Z" fill="" stroke="" stroke-width="0.5"/>
<path d="M508.945 120.767C509.035 120.497 509.107 120.352 509.107 120.144C509.107 119.459 508.567 119.002 508.063 119.002C507.343 119.002 507.145 119.729 507.073 120.02L504.787 128.966C504.715 129.215 504.715 129.277 504.715 129.298C504.715 129.485 504.823 129.526 505.003 129.589C505.327 129.755 505.363 129.755 505.399 129.755C505.453 129.755 505.561 129.755 505.687 129.402L508.945 120.767Z" fill="" stroke="" stroke-width="0.5"/>
<path d="M519.263 149.47C519.263 149.377 519.263 149.315 518.804 148.785C516.104 145.641 514.592 140.503 514.592 134.151C514.592 128.111 515.861 122.911 518.993 119.237C519.263 118.957 519.263 118.895 519.263 118.801C519.263 118.615 519.128 118.552 519.02 118.552C518.669 118.552 516.455 120.794 515.132 123.845C513.755 126.99 513.134 130.322 513.134 134.151C513.134 136.923 513.512 140.628 514.916 143.959C516.509 147.696 518.723 149.719 519.02 149.719C519.128 149.719 519.263 149.657 519.263 149.47Z" fill="" stroke="" stroke-width="0.5"/>
<path d="M528.897 138.199C528.762 138.728 528.762 138.79 528.384 139.382C527.79 140.254 526.602 141.592 525.333 141.592C524.226 141.592 523.605 140.44 523.605 138.603C523.605 136.891 524.442 133.404 524.955 132.096C525.873 129.916 527.142 128.796 528.195 128.796C529.977 128.796 530.328 131.349 530.328 131.598C530.328 131.629 530.247 132.034 530.22 132.096L528.897 138.199ZM530.625 130.228C530.328 129.418 529.599 128.173 528.195 128.173C525.144 128.173 521.85 132.719 521.85 137.327C521.85 140.409 523.416 142.215 525.252 142.215C526.737 142.215 528.006 140.876 528.762 139.849C529.032 141.686 530.301 142.215 531.111 142.215C531.921 142.215 532.569 141.655 533.055 140.534C533.487 139.475 533.865 137.576 533.865 137.451C533.865 137.296 533.757 137.171 533.595 137.171C533.352 137.171 533.325 137.327 533.217 137.794C532.812 139.631 532.299 141.592 531.192 141.592C530.409 141.592 530.355 140.783 530.355 140.16C530.355 139.444 530.436 139.102 530.679 137.887C530.868 137.109 531.003 136.424 531.219 135.521C532.218 130.851 532.461 129.73 532.461 129.543C532.461 129.107 532.164 128.764 531.759 128.764C530.895 128.764 530.679 129.854 530.625 130.228Z" fill="" stroke="" stroke-width="0.5"/>
<path d="M542.262 134.151C542.262 131.785 541.992 127.924 540.48 124.312C538.887 120.576 536.673 118.552 536.376 118.552C536.268 118.552 536.133 118.615 536.133 118.801C536.133 118.895 536.133 118.957 536.592 119.486C539.292 122.631 540.804 127.769 540.804 134.12C540.804 140.161 539.535 145.36 536.403 149.034C536.133 149.315 536.133 149.377 536.133 149.47C536.133 149.657 536.268 149.719 536.376 149.719C536.727 149.719 538.941 147.478 540.264 144.426C541.641 141.25 542.262 137.888 542.262 134.151Z" fill="" stroke="" stroke-width="0.5"/>
<path d="M544.929 154.561H477.886V155.806H544.929V154.561Z" fill="" stroke="" stroke-width="0.5"/>
<path d="M506.094 173.148C505.635 173.179 505.527 173.21 505.527 173.49C505.527 173.802 505.662 173.802 506.148 173.802H507.39C509.685 173.802 510.711 175.981 510.711 178.97C510.711 183.049 508.875 184.139 507.552 184.139C506.256 184.139 504.042 183.423 503.259 181.368C504.123 181.523 504.906 180.963 504.906 179.842C504.906 178.939 504.339 178.316 503.583 178.316C502.935 178.316 502.233 178.752 502.233 179.935C502.233 182.707 504.636 184.979 507.633 184.979C510.846 184.979 513.222 182.146 513.222 179.001C513.222 176.137 511.224 173.895 508.632 173.366C510.981 172.587 512.493 170.314 512.493 167.886C512.493 165.426 510.279 163.62 507.66 163.62C504.96 163.62 502.962 165.519 502.962 167.792C502.962 169.038 503.799 169.287 504.204 169.287C504.771 169.287 505.419 168.82 505.419 167.886C505.419 166.889 504.771 166.453 504.177 166.453C504.015 166.453 503.961 166.453 503.88 166.485C504.906 164.367 507.444 164.367 507.579 164.367C508.47 164.367 510.225 164.834 510.225 167.886C510.225 168.477 510.144 170.221 509.361 171.56C508.551 172.93 507.633 173.023 506.904 173.054L506.094 173.148Z" fill="" stroke="" stroke-width="0.5"/>
<path d="M519.313 163.527C519.313 162.531 518.584 162.064 518.017 162.064C517.45 162.064 516.613 162.5 516.694 163.808L517.666 178.068C517.693 178.597 517.747 178.722 517.99 178.722C518.26 178.722 518.314 178.628 518.341 178.068L519.313 163.527ZM519.313 182.801C519.313 181.991 518.719 181.306 518.017 181.306C517.261 181.306 516.694 181.991 516.694 182.832C516.694 183.641 517.288 184.326 517.99 184.326C518.746 184.326 519.313 183.641 519.313 182.801Z" fill="" stroke="" stroke-width="0.5"/>
<path d="M556.404 170.534C556.404 170.44 556.404 170.378 555.945 169.849C553.245 166.704 551.733 161.567 551.733 155.215C551.733 149.174 553.002 143.975 556.134 140.301C556.404 140.02 556.404 139.958 556.404 139.865C556.404 139.678 556.269 139.616 556.161 139.616C555.81 139.616 553.596 141.858 552.273 144.909C550.896 148.054 550.275 151.385 550.275 155.215C550.275 157.986 550.653 161.691 552.057 165.023C553.65 168.759 555.864 170.783 556.161 170.783C556.269 170.783 556.404 170.721 556.404 170.534Z" fill="" stroke="" stroke-width="0.5"/>
<path d="M570.709 150.264C569.845 150.451 569.521 151.198 569.521 151.79C569.521 152.537 570.034 152.786 570.412 152.786C571.222 152.786 571.789 151.977 571.789 151.136C571.789 149.828 570.493 149.237 569.359 149.237C567.712 149.237 566.794 151.105 566.551 151.697C565.93 149.361 564.256 149.237 563.77 149.237C561.016 149.237 559.558 153.316 559.558 154.001C559.558 154.125 559.666 154.281 559.855 154.281C560.071 154.281 560.125 154.094 560.179 153.969C561.097 150.513 562.906 149.86 563.689 149.86C564.904 149.86 565.147 151.167 565.147 151.915C565.147 152.6 564.985 153.316 564.661 154.81L563.743 159.076C563.338 160.944 562.555 162.656 561.124 162.656C560.989 162.656 560.314 162.656 559.747 162.252C560.719 162.034 560.935 161.1 560.935 160.726C560.935 160.103 560.53 159.73 560.017 159.73C559.369 159.73 558.667 160.384 558.667 161.38C558.667 162.688 559.936 163.279 561.097 163.279C562.393 163.279 563.311 162.096 563.878 160.819C564.31 162.656 565.66 163.279 566.659 163.279C569.413 163.279 570.871 159.2 570.871 158.515C570.871 158.36 570.763 158.235 570.601 158.235C570.358 158.235 570.331 158.391 570.25 158.64C569.521 161.38 567.955 162.656 566.74 162.656C565.795 162.656 565.282 161.847 565.282 160.57C565.282 159.885 565.39 159.387 565.822 157.332L566.767 153.098C567.172 151.23 568.09 149.86 569.332 149.86C569.386 149.86 570.142 149.86 570.709 150.264Z" fill="" stroke="" stroke-width="0.5"/>
<path d="M596.727 155.806C597.186 155.806 597.672 155.806 597.672 155.183C597.672 154.561 597.186 154.561 596.727 154.561H582.119C581.66 154.561 581.174 154.561 581.174 155.183C581.174 155.806 581.66 155.806 582.119 155.806H596.727Z" fill="" stroke="" stroke-width="0.5"/>
<path d="M614.062 159.263C613.927 159.792 613.927 159.854 613.549 160.446C612.955 161.318 611.767 162.656 610.498 162.656C609.391 162.656 608.77 161.504 608.77 159.667C608.77 157.955 609.607 154.468 610.12 153.16C611.038 150.98 612.307 149.86 613.36 149.86C615.142 149.86 615.493 152.413 615.493 152.662C615.493 152.693 615.412 153.098 615.385 153.16L614.062 159.263ZM615.79 151.292C615.493 150.482 614.764 149.237 613.36 149.237C610.309 149.237 607.015 153.783 607.015 158.391C607.015 161.473 608.581 163.279 610.417 163.279C611.902 163.279 613.171 161.94 613.927 160.913C614.197 162.75 615.466 163.279 616.276 163.279C617.086 163.279 617.734 162.719 618.22 161.598C618.652 160.539 619.03 158.64 619.03 158.515C619.03 158.36 618.922 158.235 618.76 158.235C618.517 158.235 618.49 158.391 618.382 158.858C617.977 160.695 617.464 162.656 616.357 162.656C615.574 162.656 615.52 161.847 615.52 161.224C615.52 160.508 615.601 160.166 615.844 158.951C616.033 158.173 616.168 157.488 616.384 156.585C617.383 151.915 617.626 150.794 617.626 150.607C617.626 150.171 617.329 149.828 616.924 149.828C616.06 149.828 615.844 150.918 615.79 151.292Z" fill="" stroke="" stroke-width="0.5"/>
<path d="M627.427 155.215C627.427 152.849 627.157 148.988 625.645 145.376C624.052 141.64 621.838 139.616 621.541 139.616C621.433 139.616 621.298 139.678 621.298 139.865C621.298 139.958 621.298 140.02 621.757 140.55C624.457 143.695 625.969 148.832 625.969 155.184C625.969 161.224 624.7 166.424 621.568 170.098C621.298 170.378 621.298 170.44 621.298 170.534C621.298 170.721 621.433 170.783 621.541 170.783C621.892 170.783 624.106 168.541 625.429 165.49C626.806 162.314 627.427 158.951 627.427 155.215Z" fill="" stroke="" stroke-width="0.5"/>
<path d="M634.649 143.179C636.071 143.179 636.971 144.383 636.971 146.563C636.971 149.157 635.693 149.925 634.739 149.925C633.749 149.925 632.399 149.51 631.769 148.41C632.417 148.41 632.867 147.933 632.867 147.248C632.867 146.583 632.453 146.106 631.877 146.106C631.391 146.106 630.887 146.459 630.887 147.289C630.887 149.261 632.723 150.548 634.775 150.548C637.169 150.548 638.843 148.638 638.843 146.563C638.843 144.84 637.655 143.262 635.819 142.806C637.241 142.224 638.303 140.813 638.303 139.152C638.303 137.492 636.683 136.309 634.811 136.309C632.885 136.309 631.427 137.513 631.427 139.09C631.427 139.858 631.877 140.19 632.345 140.19C632.903 140.19 633.263 139.734 633.263 139.132C633.263 138.364 632.687 138.073 632.291 138.052C633.047 136.911 634.433 136.848 634.757 136.848C635.225 136.848 636.593 137.014 636.593 139.152C636.593 140.605 636.071 141.477 635.819 141.809C635.279 142.453 634.865 142.494 633.767 142.577C633.425 142.598 633.281 142.619 633.281 142.889C633.281 143.179 633.443 143.179 633.749 143.179H634.649Z" fill="" stroke="" stroke-width="0.5"/>
<path d="M657.555 155.776H665.007C665.385 155.776 665.871 155.776 665.871 155.215C665.871 154.624 665.412 154.624 665.007 154.624H657.555V146.03C657.555 145.594 657.555 145.034 657.069 145.034C656.556 145.034 656.556 145.563 656.556 146.03V154.624H649.104C648.726 154.624 648.24 154.624 648.24 155.184C648.24 155.776 648.699 155.776 649.104 155.776H656.556V164.369C656.556 164.805 656.556 165.366 657.042 165.366C657.555 165.366 657.555 164.836 657.555 164.369V155.776Z" fill="" stroke="" stroke-width="0.5"/>
<path d="M678.312 161.473C678.312 160.57 677.664 159.948 677.016 159.948C676.233 159.948 675.693 160.695 675.693 161.442C675.693 162.345 676.341 162.968 676.989 162.968C677.772 162.968 678.312 162.221 678.312 161.473Z" fill="" stroke="" stroke-width="0.5"/>
<path d="M685.656 161.473C685.656 160.57 685.008 159.948 684.36 159.948C683.577 159.948 683.037 160.695 683.037 161.442C683.037 162.345 683.685 162.968 684.333 162.968C685.116 162.968 685.656 162.221 685.656 161.473Z" fill="" stroke="" stroke-width="0.5"/>
<path d="M693 161.473C693 160.57 692.352 159.948 691.704 159.948C690.921 159.948 690.381 160.695 690.381 161.442C690.381 162.345 691.029 162.968 691.677 162.968C692.46 162.968 693 162.221 693 161.473Z" fill="" stroke="" stroke-width="0.5"/>
</svg>
