<svg width="170" height="60" viewBox="0 0 170 60" fill="none" xmlns="http://www.w3.org/2000/svg">
<path fill-rule="evenodd" clip-rule="evenodd" d="M9.20302 27C6.75383 27 5.21009 28.4522 4.60151 31.3392C5.52181 29.8869 6.59055 29.3445 7.82256 29.712C8.52021 29.9219 9.02489 30.5168 9.57411 31.1817C10.4796 32.2665 11.5186 33.5088 13.8045 33.5088C16.2537 33.5088 17.7974 32.0565 18.406 29.1696C17.4857 30.6218 16.417 31.1642 15.185 30.7968C14.4873 30.5868 13.9826 29.9919 13.4334 29.3271C12.528 28.2423 11.4889 27 9.20302 27ZM4.60151 33.4913C2.15232 33.4913 0.608587 34.9435 0 37.8304C0.920302 36.3782 1.98904 35.8358 3.22106 36.2032C3.9187 36.4132 4.42339 37.0081 4.9726 37.6729C5.87806 38.7577 6.91711 40 9.20302 40C11.6522 40 13.1959 38.5478 13.8045 35.6608C12.8842 37.1131 11.8155 37.6555 10.5835 37.288C9.88582 37.0781 9.38114 36.4832 8.83193 35.8183C7.92647 34.751 6.88742 33.4913 4.60151 33.4913Z" fill="#06B6D4"/>
<path fill-rule="evenodd" clip-rule="evenodd" d="M27.6117 32.4752H26.0086V36.132C26.0086 37.1118 26.5578 37.0943 27.6117 37.0418V38.5291C25.4594 38.8265 24.6133 38.1266 24.6133 36.1495V32.4927H23.4258V30.9005H24.6133V28.8534L26.0086 28.3635V30.9005H27.6117V32.4752ZM33.7272 30.883H35.1225V38.5116H33.7272V37.4093C33.2374 38.2141 32.4655 38.704 31.4562 38.704C29.6898 38.704 28.2351 36.9544 28.2351 34.6973C28.2351 32.4227 29.7046 30.6906 31.4562 30.6906C32.4655 30.6906 33.2374 31.1805 33.7272 31.9678V30.883ZM31.6788 37.1468C32.8515 37.1468 33.7272 36.132 33.7272 34.6973C33.7272 33.2801 32.8515 32.2478 31.6788 32.2478C30.521 32.2478 29.6304 33.2626 29.6304 34.6973C29.6304 36.132 30.521 37.1468 31.6788 37.1468ZM37.453 29.7458C36.9631 29.7458 36.5623 29.2558 36.5623 28.696C36.5623 28.1186 36.9631 27.6462 37.453 27.6462C37.9428 27.6462 38.3436 28.1186 38.3436 28.696C38.3584 29.2558 37.9428 29.7458 37.453 29.7458ZM36.7553 38.5116V30.883H38.1506V38.5116H36.7553ZM39.7686 38.5116V27.3662H41.1639V38.5116H39.7686ZM50.2481 30.883H51.7176L49.6841 38.5116H48.3185L46.9677 33.3676L45.6021 38.5116H44.2365L42.2029 30.883H43.6724L44.9341 36.1495L46.2997 30.883H47.6357L48.9864 36.1495L50.2481 30.883ZM53.4692 29.7458C52.9793 29.7458 52.5786 29.2558 52.5786 28.696C52.5786 28.1186 52.9793 27.6462 53.4692 27.6462C53.959 27.6462 54.3598 28.1186 54.3598 28.696C54.3598 29.2558 53.959 29.7458 53.4692 29.7458ZM52.7567 38.5116V30.883H54.152V38.5116H52.7567ZM59.184 30.6906C60.6386 30.6906 61.6777 31.8453 61.6777 33.84V38.5291H60.2824V33.9974C60.2824 32.8427 59.7183 32.2303 58.8277 32.2303C57.9074 32.2303 57.1801 32.8776 57.1801 34.4348V38.5291H55.7848V30.9005H57.1801V31.8803C57.6105 31.0755 58.3082 30.6906 59.184 30.6906ZM68.2979 27.8386H69.6932V38.5291H68.2979V37.4268C67.8081 38.2316 67.0362 38.7215 66.0268 38.7215C64.2605 38.7215 62.8058 36.9719 62.8058 34.7148C62.8058 32.4402 64.2753 30.7081 66.0268 30.7081C67.0362 30.7081 67.8081 31.198 68.2979 31.9853V27.8386ZM66.2643 37.1468C67.437 37.1468 68.3128 36.132 68.3128 34.6973C68.3128 33.2801 67.437 32.2478 66.2643 32.2478C65.1065 32.2478 64.2159 33.2626 64.2159 34.6973C64.2159 36.132 65.0917 37.1468 66.2643 37.1468ZM74.3838 38.7215C72.4244 38.7215 70.9698 36.9719 70.9698 34.7148C70.9698 32.4402 72.4393 30.7081 74.3838 30.7081C75.6603 30.7081 76.7587 31.4779 77.2783 32.6852L76.0759 33.5075C75.7939 32.7902 75.1556 32.3353 74.3838 32.3353C73.2408 32.3353 72.3799 33.3501 72.3799 34.7323C72.3799 36.1145 73.2408 37.1293 74.3838 37.1293C75.1556 37.1293 75.7939 36.6569 76.1056 35.9571L77.308 36.7619C76.7587 37.9342 75.6603 38.7215 74.3838 38.7215ZM79.6087 33.0001C79.6087 34.3824 83.097 33.5425 83.097 36.377C83.097 37.8992 81.9688 38.7215 80.5735 38.7215C79.2822 38.7215 78.347 38.0391 77.9314 36.9369L79.1337 36.1145C79.3415 36.7969 79.8611 37.2168 80.5735 37.2168C81.197 37.2168 81.672 36.9719 81.672 36.3595C81.672 34.9947 78.1837 35.7646 78.1837 33.0351C78.1837 31.6004 79.2376 30.7081 80.5587 30.7081C81.6274 30.7081 82.5032 31.2855 82.9485 32.3003L81.7759 33.0701C81.5384 32.4752 81.0931 32.1953 80.5587 32.1953C80.054 32.1778 79.6087 32.4402 79.6087 33.0001ZM85.5758 33.0001C85.5758 34.3824 89.0641 33.5425 89.0641 36.377C89.0641 37.8992 87.936 38.7215 86.5407 38.7215C85.2493 38.7215 84.3141 38.0391 83.8985 36.9369L85.1008 36.1145C85.3086 36.7969 85.8282 37.2168 86.5407 37.2168C87.1641 37.2168 87.6391 36.9719 87.6391 36.3595C87.6391 34.9947 84.1509 35.7646 84.1509 33.0351C84.1509 31.6004 85.2048 30.7081 86.5258 30.7081C87.5946 30.7081 88.4703 31.2855 88.9156 32.3003L87.743 33.0701C87.5055 32.4752 87.0602 32.1953 86.5258 32.1953C86.0211 32.1778 85.5758 32.4402 85.5758 33.0001Z" fill=""/>
<path fill-rule="evenodd" clip-rule="evenodd" d="M160.069 4.25101L161.28 6.29032C161.598 6.82855 161.519 7.60002 161.098 8.00668L159.812 9.25658C160.046 10.052 160.195 10.9012 160.256 11.7683L161.72 12.0255C162.244 12.1152 162.608 12.7372 162.538 13.407L162.267 15.9486C162.197 16.6184 161.711 17.0909 161.187 16.9952L159.587 16.7141C159.302 17.5095 158.937 18.2391 158.507 18.8909L159.405 20.398C159.723 20.9362 159.639 21.7077 159.218 22.1144L157.623 23.6633C157.202 24.0699 156.599 23.9623 156.281 23.43L155.304 21.7854C154.677 22.0845 154.018 22.2758 153.335 22.3536L153.134 24.2254C153.064 24.8952 152.578 25.3617 152.054 25.272L150.066 24.9251C149.543 24.8354 149.178 24.2135 149.248 23.5437L149.468 21.4984C148.85 21.1336 148.275 20.6671 147.765 20.1229L146.587 21.2652C146.166 21.6718 145.563 21.5702 145.245 21.0319L144.034 18.9926C143.716 18.4544 143.795 17.6829 144.216 17.2762L145.502 16.0264C145.268 15.225 145.119 14.3818 145.058 13.5146L143.594 13.2574C143.07 13.1677 142.701 12.5458 142.776 11.876L143.047 9.33432C143.122 8.66452 143.603 8.19805 144.127 8.28776L145.727 8.56884C146.012 7.77943 146.377 7.04384 146.802 6.39198L145.909 4.88493C145.591 4.35268 145.67 3.58121 146.091 3.17454L147.686 1.62563C148.107 1.21896 148.71 1.32063 149.028 1.85886L150.005 3.50346C150.627 3.20445 151.291 3.01307 151.97 2.93533L152.171 1.06347C152.241 0.393672 152.727 -0.0787766 153.251 0.0109289L155.238 0.35779C155.762 0.447496 156.132 1.06945 156.057 1.73926L155.837 3.78454C156.459 4.14934 157.029 4.61581 157.544 5.16601L158.722 4.02376C159.143 3.61111 159.746 3.71278 160.069 4.25101ZM125.875 40.1392V30.2716H129.85C130.589 30.2716 131.15 30.3493 131.538 30.5168C131.926 30.6783 132.244 30.9773 132.478 31.4138C132.717 31.8564 132.838 32.3886 132.838 33.0166C132.838 33.5608 132.745 34.0392 132.562 34.4339C132.38 34.8346 132.128 35.1576 131.81 35.4027C131.608 35.5582 131.328 35.6898 130.972 35.7915C131.258 35.9171 131.464 36.0307 131.59 36.1563C131.679 36.24 131.805 36.4134 131.969 36.6766C132.132 36.9397 132.244 37.149 132.301 37.2925L133.46 40.1452H130.767L129.495 37.1371C129.331 36.7483 129.191 36.4912 129.065 36.3775C128.891 36.228 128.695 36.1503 128.48 36.1503H128.27V40.1452H125.875V40.1392ZM134.283 57.3208H129.831L129.191 60H125.178L129.962 43.7394H134.265L139.03 60H134.915L134.283 57.3208ZM133.451 53.7984L132.062 47.9496L130.669 53.7984H133.451ZM139.956 43.7394H146.493C147.92 43.7394 148.986 44.17 149.692 45.0371C150.398 45.9043 150.754 47.1422 150.754 48.739C150.754 50.3836 150.366 51.6693 149.594 52.5963C148.822 53.5233 147.639 53.9837 146.054 53.9837H143.898V60H139.956V43.7394ZM143.898 50.6886H144.866C145.628 50.6886 146.166 50.5211 146.475 50.1802C146.783 49.8453 146.938 49.4088 146.938 48.8885C146.938 48.3801 146.802 47.9436 146.536 47.5907C146.269 47.2379 145.764 47.0585 145.025 47.0585H143.898V50.6886ZM152.344 43.7394H156.286V60H152.344V43.7394ZM128.27 34.2784H129.275C129.383 34.2784 129.593 34.2306 129.906 34.1409C130.065 34.099 130.196 33.9974 130.294 33.8299C130.397 33.6625 130.444 33.4711 130.444 33.2558C130.444 32.9388 130.365 32.6877 130.206 32.5202C130.047 32.3468 129.752 32.2631 129.317 32.2631H128.27V34.2784ZM133.919 30.2716H140.302V32.3767H136.313V33.9495H140.012V35.9589H136.313V37.9025H140.419V40.1332H133.919V30.2716ZM140.985 36.8739L143.248 36.6945C143.295 37.167 143.398 37.5198 143.547 37.765C143.795 38.1597 144.146 38.363 144.6 38.363C144.936 38.363 145.203 38.2614 145.385 38.058C145.568 37.8547 145.661 37.6155 145.661 37.3464C145.661 37.0892 145.572 36.862 145.399 36.6586C145.226 36.4553 144.819 36.2699 144.179 36.0845C143.136 35.7855 142.392 35.3848 141.943 34.8884C141.494 34.3921 141.27 33.7581 141.27 32.9867C141.27 32.4783 141.387 31.9999 141.616 31.5514C141.845 31.1029 142.191 30.744 142.654 30.4869C143.117 30.2297 143.748 30.1041 144.553 30.1041C145.54 30.1041 146.288 30.3374 146.807 30.8098C147.321 31.2823 147.63 32.0238 147.728 33.0525L145.488 33.2259C145.427 32.7774 145.301 32.4484 145.114 32.2511C144.922 32.0478 144.656 31.9461 144.324 31.9461C144.048 31.9461 143.837 32.0238 143.697 32.1733C143.557 32.3229 143.487 32.5082 143.487 32.7235C143.487 32.879 143.547 33.0166 143.66 33.1481C143.772 33.2737 144.034 33.3993 144.455 33.513C145.497 33.8 146.246 34.093 146.695 34.3861C147.144 34.6791 147.476 35.0439 147.677 35.4805C147.882 35.9111 147.985 36.4015 147.985 36.9397C147.985 37.5736 147.85 38.1537 147.574 38.686C147.303 39.2182 146.919 39.6249 146.428 39.9C145.937 40.1751 145.32 40.3126 144.571 40.3126C143.262 40.3126 142.35 39.9897 141.845 39.3438C141.34 38.686 141.055 37.8667 140.985 36.8739ZM148.331 30.2716H155.584V32.7116H153.153V40.1392H150.768V32.7116H148.331V30.2716ZM140.307 6.85247C139.451 6.76874 138.586 6.78071 137.73 6.88835C135.097 7.21129 132.539 8.43727 130.425 10.5364C127.98 12.9584 126.123 16.5825 125.408 21.3848L125.183 22.8858L124.014 23.149C122.868 23.4061 121.844 23.759 120.946 24.2075C120.076 24.6381 119.3 25.1703 118.622 25.7983C118.08 26.3006 117.612 26.8628 117.215 27.4728C115.985 29.3566 115.414 31.7188 115.428 34.111C115.442 36.539 116.059 38.991 117.2 41.0064C117.626 41.7539 118.117 42.4416 118.678 43.0397C119.249 43.6437 119.889 44.146 120.61 44.5228C121.016 44.7381 121.451 44.9175 121.905 45.061V49.5403C120.97 49.325 120.109 49.0021 119.305 48.5775C118.243 48.0153 117.303 47.2917 116.476 46.4066C115.69 45.5694 115.003 44.6185 114.418 43.5839C112.861 40.8329 112.019 37.472 112 34.1229C111.982 30.7381 112.805 27.3711 114.582 24.6441C115.157 23.759 115.835 22.9456 116.611 22.228C117.514 21.3907 118.547 20.6851 119.716 20.105C120.521 19.7043 121.381 19.3694 122.288 19.1003C123.317 13.8734 125.51 9.84863 128.33 7.0558C130.968 4.44238 134.143 2.91739 137.412 2.5167C139.128 2.30739 140.868 2.40308 142.57 2.80974C142.533 3.00709 142.5 3.20445 142.481 3.40778L142.476 3.44366C142.444 3.78454 142.43 4.12542 142.444 4.47228C142.084 4.65169 141.747 4.89689 141.443 5.19591L141.429 5.20787C140.975 5.64444 140.592 6.20659 140.307 6.85247ZM165.049 18.3348C165.311 18.6398 165.564 18.9567 165.812 19.2976C166.312 19.9854 166.784 20.7628 167.229 21.63C168.725 24.5723 169.492 28.5014 169.459 32.3468C169.427 36.1204 168.632 39.8761 167.004 42.639C165.943 44.4391 164.582 45.9103 162.95 47.0764C161.832 47.8778 160.574 48.5416 159.204 49.0798V44.4451C159.943 44.0922 160.63 43.6975 161.262 43.249C162.491 42.3699 163.497 41.2994 164.25 40.0136C165.419 38.0221 165.994 35.2054 166.017 32.3169C166.046 29.2848 165.466 26.2408 164.339 24.0281C164.016 23.3882 163.661 22.8141 163.286 22.2998C163.142 22.1024 162.997 21.917 162.847 21.7376C162.87 21.4386 162.88 21.1336 162.866 20.8286C163.226 20.6492 163.562 20.404 163.866 20.105L163.88 20.093C164.362 19.6206 164.764 19.0225 165.049 18.3348ZM153.19 7.65384C155.346 8.0306 156.852 10.5723 156.557 13.3292C156.263 16.0862 154.275 18.0178 152.119 17.6411C149.963 17.2643 148.453 14.7226 148.752 11.9657C149.051 9.20873 151.034 7.27708 153.19 7.65384Z" fill=""/>
</svg>
