<svg width="1254" height="65" viewBox="0 0 1254 65" fill="none" xmlns="http://www.w3.org/2000/svg">
<path d="M28.5191 63.9993C13.2093 63.889 -0.102592 50.6215 0.00059594 33.7652C0.0998035 17.5459 13.0075 3.89009 28.9793 4.00067C44.5019 4.10837 57.598 17.5625 57.4593 34.0455C57.5879 50.3789 44.4272 64.1147 28.5191 63.9993ZM28.5191 63.9993C13.2093 63.889 -0.102592 50.6215 0.00059594 33.7652C0.0998035 17.5459 13.0075 3.89009 28.9793 4.00067C44.5019 4.10837 57.598 17.5625 57.4593 34.0455C57.5879 50.3789 44.4272 64.1147 28.5191 63.9993Z" fill="white"/>
<path d="M28.5478 60.015C15.2709 59.9194 3.72743 48.4138 3.81692 33.7964C3.90305 19.7309 15.0965 7.88868 28.947 7.98496C42.4079 8.07836 53.7647 19.7459 53.6443 34.0397C53.7558 48.2037 42.3434 60.1151 28.5478 60.015ZM28.5478 60.015C15.2709 59.9194 3.72743 48.4138 3.81692 33.7964C3.90305 19.7309 15.0965 7.88868 28.947 7.98496C42.4079 8.07836 53.7647 19.7459 53.6443 34.0397C53.7558 48.2037 42.3434 60.1151 28.5478 60.015Z" fill="#49A32B"/>
<path d="M38.0062 33.9897C37.9423 35.2296 36.905 36.2592 35.8826 36.0795C35.8777 36.0795 35.8725 36.0795 35.8673 36.0795C34.7349 36.0811 33.8159 35.1237 33.8147 33.9412C33.8532 32.7556 34.7948 31.8211 35.9306 31.8412C37.063 31.847 38.0673 32.8462 38.0062 33.9897ZM19.7971 46.0047C20.2241 46.0178 20.6513 46.0082 21.1437 46.0082V49.2393C18.0834 49.7796 15.5624 48.8723 14.9438 46.171C14.732 45.1778 14.6018 44.1674 14.5541 43.1509C14.4884 42.0747 14.6021 40.9864 14.5236 39.9122C14.306 36.9562 13.9392 35.9471 11.2227 35.8073V32.1284C11.4173 32.0809 11.6148 32.0458 11.8135 32.0225C13.3028 31.9459 13.9306 31.4691 14.2638 29.9372C14.4154 29.0764 14.5052 28.2052 14.5318 27.3304C14.6498 25.6389 14.6079 23.9199 14.8778 22.2559C15.2678 19.8495 16.6985 18.6805 19.0617 18.5496C19.7341 18.512 20.4087 18.5439 21.1706 18.5439V21.8464C20.857 21.8697 20.5697 21.9173 20.2843 21.9083C18.3584 21.8467 18.2588 22.5316 18.1182 24.1963C18.0305 25.2403 18.1515 26.3021 18.0834 27.3495C18.0121 28.3919 17.8786 29.4288 17.6836 30.4539C17.4058 31.9395 16.531 33.0444 15.3188 33.9821C17.672 35.581 17.9397 38.0656 18.0925 40.5884C18.1747 41.9442 18.1372 43.3095 18.2689 44.6586C18.3716 45.7057 18.7616 45.9728 19.7971 46.0047ZM21.7804 31.8412C21.7926 31.8412 21.8045 31.8412 21.8168 31.8412C22.9418 31.8607 23.8392 32.8287 23.8205 34.0038C23.8205 34.0424 23.8193 34.0807 23.8172 34.119C23.7539 35.2673 22.8113 36.1443 21.7116 36.0782C21.6673 36.0792 21.6233 36.0782 21.579 36.076C20.4591 36.0179 19.5963 35.0228 19.6519 33.8534C19.7075 32.6841 20.6605 31.7831 21.7804 31.8412ZM28.7915 31.8412C30.022 31.8313 30.8393 32.664 30.8457 33.9342C30.8524 35.2386 30.0776 36.0731 28.855 36.0786C27.6117 36.0843 26.7932 35.2631 26.7865 34.0006C26.7828 33.9361 26.7819 33.8716 26.7837 33.8072C26.8182 32.6854 27.7171 31.8052 28.7915 31.8412ZM43.4707 30.2321C43.7981 31.5087 44.4353 31.9574 45.7224 32.0187C45.9333 32.0289 46.1433 32.0662 46.4324 32.0997V35.7776C46.2759 35.8312 46.1155 35.8714 45.9525 35.8976C44.2278 36.0096 43.4417 36.7484 43.2675 38.5542C43.1562 39.707 43.1654 40.8725 43.089 42.0294C43.0569 43.2996 42.9463 44.5663 42.7577 45.8215C42.3176 48.0958 40.9578 49.2304 38.711 49.3689C37.9879 49.4136 37.2595 49.3759 36.4798 49.3759V46.0887C36.8995 46.0615 37.2699 46.0242 37.6413 46.0149C38.9836 45.9814 39.4583 45.5295 39.524 44.1374C39.5968 42.608 39.6285 41.0767 39.694 39.5471C39.789 37.336 40.3688 35.3608 42.3414 33.9817C41.2127 33.1414 40.3065 32.1237 40.0717 30.7513C39.7878 29.0879 39.6961 27.3878 39.5433 25.7011C39.4678 24.8579 39.4714 24.0074 39.3926 23.1648C39.3076 22.2553 38.7092 21.9406 37.9163 21.9202C37.4622 21.9087 37.0062 21.9179 36.4254 21.9179V18.7079C40.131 18.0655 42.6908 19.3529 42.9285 23.055C43.0282 24.6096 43.0135 26.1715 43.1089 27.7261C43.1507 28.5719 43.2718 29.4112 43.4707 30.2321Z" fill="white"/>
<path d="M135.912 42.9999C142.524 42.9999 147.883 38.5228 147.883 33C147.883 27.4771 142.524 23 135.912 23C129.301 23 123.941 27.4771 123.941 33C123.941 38.5228 129.301 42.9999 135.912 42.9999Z" fill="url(#paint0_linear_1633_1767)"/>
<path d="M135.912 22.9999H123.941V3H135.912C142.524 3 147.883 7.47712 147.883 13C147.883 18.5228 142.524 22.9999 135.912 22.9999Z" fill="url(#paint1_linear_1633_1767)"/>
<path d="M111.971 62.9999C105.36 62.9999 100 58.5228 100 53C100 47.4771 105.36 43 111.971 43H123.942V53C123.942 58.5228 118.582 62.9999 111.971 62.9999Z" fill="url(#paint2_linear_1633_1767)"/>
<path d="M123.942 42.9999H111.971C105.36 42.9999 100 38.5228 100 33C100 27.4771 105.36 23 111.971 23H123.942V42.9999Z" fill="url(#paint3_linear_1633_1767)"/>
<path d="M125.652 22.9999H111.971C105.36 22.9999 100 18.5228 100 13C100 7.47712 105.36 3 111.971 3H125.652V22.9999Z" fill="url(#paint4_linear_1633_1767)"/>
<path d="M192.349 34.3724V34.3296V27.8028H193.955V34.8744C194.03 35.4443 193.975 36.0218 193.794 36.5724C193.613 37.123 193.309 37.6354 192.901 38.079C192.142 38.6623 191.17 38.9777 190.168 38.9657L190 37.8975C190.646 37.8978 191.27 37.6846 191.75 37.2992C192.181 36.8506 192.349 36.2417 192.349 34.3724ZM204.327 33.5298C204.327 34.3309 204.327 35.0466 204.399 35.6662H202.973L202.877 34.395C202.579 34.8448 202.152 35.2161 201.64 35.4713C201.129 35.7265 200.55 35.8564 199.964 35.8478C198.574 35.8478 196.92 35.1748 196.92 32.4295V27.8683H198.526V32.1411C198.526 33.6259 199.041 34.6194 200.492 34.6194C200.79 34.6222 201.086 34.5719 201.362 34.4715C201.639 34.371 201.89 34.2224 202.101 34.0344C202.312 33.8464 202.478 33.6226 202.591 33.3764C202.704 33.1302 202.76 32.8664 202.757 32.6004V27.8148H204.363V33.4871L204.327 33.5298ZM207.372 30.4097C207.372 29.4162 207.372 28.6044 207.3 27.8673H208.738L208.81 29.2026C209.13 28.7202 209.592 28.3243 210.145 28.0572C210.698 27.79 211.322 27.6616 211.95 27.6857C214.084 27.6857 215.69 29.2773 215.69 31.6488C215.69 34.4475 213.76 35.8362 211.675 35.8362C211.141 35.8574 210.61 35.7555 210.133 35.5403C209.657 35.3251 209.25 35.0039 208.954 34.6077V38.8806H207.372V30.4417V30.4097ZM208.954 32.4927C208.958 32.6865 208.982 32.8796 209.026 33.0695C209.162 33.5438 209.471 33.9642 209.905 34.264C210.34 34.5639 210.874 34.7262 211.423 34.7252C213.113 34.7252 214.108 33.4968 214.108 31.7129C214.108 30.1533 213.173 28.818 211.483 28.818C210.814 28.8668 210.188 29.1314 209.723 29.562C209.257 29.9927 208.984 30.56 208.954 31.1574V32.4927ZM218.552 27.8602L220.481 32.4642C220.685 32.9769 220.901 33.5965 221.045 34.0558C221.212 33.5858 221.392 32.9876 221.608 32.4322L223.358 27.8602H225.048L222.651 33.4149C221.452 36.0854 220.721 37.4634 219.618 38.2966C219.063 38.7488 218.386 39.0652 217.653 39.2153L217.257 38.0189C217.77 37.8688 218.246 37.6332 218.659 37.3246C219.244 36.8999 219.708 36.3582 220.014 35.7436C220.079 35.6372 220.124 35.5216 220.146 35.4018C220.132 35.2729 220.096 35.1467 220.038 35.0279L216.778 27.8388H218.528L218.552 27.8602ZM229.312 25.6191V27.8624H231.613V28.9306H229.312V33.1394C229.312 34.1007 229.623 34.6562 230.51 34.6562C230.825 34.6608 231.14 34.6285 231.445 34.5601L231.517 35.6283C231.059 35.7698 230.575 35.8349 230.091 35.8206C229.77 35.8385 229.448 35.7943 229.148 35.691C228.848 35.5878 228.577 35.4279 228.353 35.2224C227.865 34.6404 227.642 33.9152 227.73 33.1928V28.9199H226.363V27.8517H227.754V25.9503L229.312 25.6191ZM234.572 32.0131C234.539 32.3753 234.595 32.7396 234.736 33.0806C234.877 33.4217 235.099 33.7314 235.388 33.9884C235.676 34.2454 236.024 34.4435 236.406 34.5691C236.789 34.6946 237.198 34.7446 237.604 34.7157C238.426 34.732 239.243 34.5937 240.001 34.3097L240.277 35.3779C239.347 35.7195 238.346 35.8832 237.34 35.8586C236.754 35.8944 236.166 35.8167 235.616 35.6309C235.067 35.4451 234.569 35.1556 234.157 34.7822C233.745 34.4087 233.428 33.9603 233.229 33.4676C233.029 32.9749 232.952 32.4495 233.002 31.9276C233.002 29.5776 234.572 27.7189 237.137 27.7189C240.013 27.7189 240.732 29.9621 240.732 31.3935C240.748 31.6141 240.748 31.8352 240.732 32.0558H234.536L234.572 32.0131ZM239.27 30.9449C239.316 30.6593 239.293 30.3682 239.203 30.0912C239.112 29.8141 238.956 29.5577 238.745 29.339C238.533 29.1204 238.272 28.9446 237.978 28.8236C237.684 28.7026 237.365 28.6391 237.041 28.6375C236.382 28.68 235.765 28.9401 235.311 29.367C234.856 29.7938 234.597 30.3565 234.584 30.9449H239.27ZM243.169 30.2892C243.169 29.3706 243.169 28.5801 243.097 27.8537H244.536V29.3813H244.608C244.759 28.9098 245.071 28.4919 245.5 28.1857C245.93 27.8794 246.456 27.6999 247.005 27.6721C247.156 27.6544 247.309 27.6544 247.46 27.6721V29.0074C247.277 28.9885 247.092 28.9885 246.909 29.0074C246.365 29.0262 245.847 29.2208 245.452 29.555C245.057 29.8892 244.813 30.34 244.764 30.8234C244.719 31.0419 244.695 31.2635 244.692 31.4856V35.641H243.109V30.2999L243.169 30.2892Z" fill="#4E4E4E"/>
<path d="M242.467 6.40232C242.516 7.11995 242.324 7.8344 241.916 8.45464C241.508 9.0749 240.902 9.57287 240.176 9.88514C239.449 10.1974 238.634 10.3098 237.836 10.2081C237.037 10.1063 236.291 9.79499 235.691 9.31377C235.092 8.83257 234.667 8.20323 234.47 7.50594C234.274 6.80866 234.314 6.07498 234.587 5.39839C234.86 4.7218 235.353 4.13291 236.002 3.70675C236.652 3.28059 237.43 3.03644 238.236 3.00541C238.764 2.97949 239.293 3.04693 239.792 3.20385C240.291 3.36076 240.75 3.60406 241.144 3.91975C241.537 4.23544 241.856 4.61728 242.083 5.04334C242.31 5.46939 242.44 5.93124 242.467 6.40232Z" fill="#767677"/>
<path d="M218.764 48.2391C207.977 48.2391 198.496 44.7887 193.594 39.6934C195.496 44.2772 198.928 48.2318 203.428 51.0247C207.928 53.8176 213.28 55.3148 218.764 55.3148C224.248 55.3148 229.6 53.8176 234.1 51.0247C238.6 48.2318 242.033 44.2772 243.935 39.6934C239.044 44.7887 229.599 48.2391 218.764 48.2391Z" fill="#F37726"/>
<path d="M218.764 15.107C229.552 15.107 239.032 18.5573 243.935 23.6527C242.033 19.0688 238.6 15.1143 234.1 12.3214C229.6 9.52847 224.248 8.03125 218.764 8.03125C213.28 8.03125 207.928 9.52847 203.428 12.3214C198.928 15.1143 195.496 19.0688 193.594 23.6527C198.496 18.5466 207.929 15.107 218.764 15.107Z" fill="#F37726"/>
<path d="M203.916 58.1543C203.979 59.0582 203.739 59.9584 203.226 60.7403C202.713 61.5222 201.951 62.1502 201.036 62.5445C200.121 62.9389 199.095 63.0815 198.089 62.9544C197.083 62.8272 196.142 62.436 195.386 61.8305C194.63 61.2251 194.094 60.4328 193.845 59.5547C193.596 58.6766 193.647 57.7524 193.989 56.8998C194.332 56.0472 194.952 55.3048 195.77 54.7673C196.588 54.2298 197.567 53.9214 198.582 53.8815C199.247 53.8497 199.912 53.9351 200.54 54.1327C201.168 54.3303 201.747 54.6363 202.242 55.0331C202.737 55.4299 203.14 55.9097 203.427 56.4453C203.714 56.9808 203.88 57.5616 203.916 58.1543Z" fill="#9E9E9E"/>
<path d="M194.821 13.945C194.24 13.9593 193.667 13.8202 193.174 13.545C192.681 13.2698 192.291 12.871 192.052 12.3986C191.813 11.9261 191.736 11.4013 191.83 10.89C191.925 10.3787 192.187 9.90377 192.584 9.52497C192.981 9.14616 193.495 8.88038 194.061 8.76105C194.626 8.64172 195.219 8.67416 195.764 8.85429C196.31 9.03443 196.783 9.35422 197.125 9.77345C197.467 10.1927 197.662 10.6926 197.686 11.2104C197.708 11.9106 197.42 12.5904 196.884 13.1024C196.348 13.6144 195.606 13.9172 194.821 13.945Z" fill="#616262"/>
<g clip-path="url(#clip0_1633_1767)">
<path fill-rule="evenodd" clip-rule="evenodd" d="M512.577 24.667V39.4207C510.967 39.717 510.121 39.8337 508.839 39.8337C504.999 39.8302 503 38.1595 503 34.9523C503 31.8618 505.12 29.8563 508.406 29.8563C508.916 29.8563 509.304 29.8948 509.774 30.0127V24.667H512.577ZM509.774 32.451C509.406 32.3343 509.103 32.2947 508.714 32.2947C507.124 32.2947 506.205 33.2385 506.205 34.894C506.205 36.5052 507.083 37.3942 508.693 37.3942C509.042 37.3942 509.324 37.3755 509.774 37.316V32.451Z" fill="#004D40"/>
<path fill-rule="evenodd" clip-rule="evenodd" d="M517.365 29.3871V37.1081C517.365 39.5301 517.18 40.8694 516.633 41.8728C516.123 42.8376 515.451 43.4466 514.064 44.1186L511.146 42.7781C512.534 42.1493 513.207 41.5939 513.635 40.7458C514.084 39.8789 514.227 38.6994 514.227 36.0593V29.3848H517.365V29.3871Z" fill="#004D40"/>
<path d="M517.365 24.667H514.225V27.8322H517.365V24.667Z" fill="#004D40"/>
<path fill-rule="evenodd" clip-rule="evenodd" d="M519.441 30.3552C520.801 29.7112 522.102 29.4277 523.521 29.4277C525.102 29.4277 526.141 29.8512 526.601 30.6796C526.858 31.1427 526.942 31.7459 526.942 33.0374V39.3456C525.563 39.5451 523.822 39.6886 522.545 39.6886C519.964 39.6886 518.807 38.7809 518.807 36.7661C518.807 34.5867 520.345 33.5799 524.123 33.2591V32.5766C524.123 32.0131 523.842 31.8089 523.065 31.8089C521.927 31.8089 520.647 32.1332 519.445 32.7562L519.441 30.3552ZM524.262 35.2914C522.224 35.4909 521.562 35.8152 521.562 36.6226C521.562 37.2269 521.943 37.5104 522.783 37.5104C523.243 37.5104 523.663 37.4707 524.262 37.3704V35.2914Z" fill="#004D40"/>
<path fill-rule="evenodd" clip-rule="evenodd" d="M528.639 30.1419C530.458 29.6508 531.957 29.4268 533.476 29.4268C535.054 29.4268 536.197 29.7966 536.875 30.5118C537.512 31.1861 537.715 31.9258 537.715 33.5019V39.6888H534.634V33.6279C534.634 32.4169 534.233 31.9666 533.135 31.9666C532.715 31.9666 532.334 32.0074 531.715 32.1941V39.6899H528.639V30.1419Z" fill="#004D40"/>
<path fill-rule="evenodd" clip-rule="evenodd" d="M539.124 41.0072C540.224 41.5742 541.325 41.8355 542.49 41.8355C544.55 41.8355 545.428 41.2837 545.428 39.2968V39.2362C544.817 39.5372 544.201 39.6632 543.388 39.6632C540.632 39.6632 538.912 37.8583 538.912 35C538.912 31.4498 541.475 29.4443 546.064 29.4443C547.411 29.4443 548.658 29.5855 550.166 29.8912L549.09 32.1428C548.253 31.9818 549.022 32.1183 548.391 32.0588V32.3843L548.431 33.7027L548.452 35.4072C548.472 35.8342 548.472 36.2588 548.492 36.6858V37.5375C548.492 40.215 548.265 41.1903 547.593 42.2275C546.614 43.7465 544.919 44.499 542.511 44.499C541.285 44.499 540.224 44.3182 539.124 43.8912V41.0072ZM545.367 31.9597H545.265H545.038C544.427 31.9398 543.711 32.1008 543.22 32.4065C542.469 32.8323 542.08 33.6047 542.08 34.6978C542.08 36.2577 542.857 37.1502 544.244 37.1502C544.673 37.1502 545.021 37.0697 545.425 36.9495V36.7243V35.8727C545.425 35.5063 545.405 35.1003 545.405 34.6745L545.385 33.2348L545.364 32.2012V31.9597H545.367Z" fill="#004D40"/>
<path fill-rule="evenodd" clip-rule="evenodd" d="M555.153 29.3867C558.449 29.3867 560.461 31.3234 560.461 34.4594C560.461 37.6747 558.364 39.6896 555.022 39.6896C551.723 39.6896 549.688 37.7541 549.688 34.6379C549.693 31.4027 551.791 29.3867 555.153 29.3867ZM555.085 37.2104C556.351 37.2104 557.097 36.2327 557.097 34.5341C557.097 32.8552 556.371 31.8577 555.107 31.8577C553.798 31.8577 553.05 32.8354 553.05 34.5341C553.051 36.2327 553.803 37.2104 555.085 37.2104Z" fill="#004D40"/>
</g>
<path d="M602 10.6667C602 7 604.873 4 608.384 4H653.076C656.587 4 659.46 7 659.46 10.6667V57.3333C659.46 61 656.587 64 653.076 64H608.384C604.873 64 602 61 602 57.3333V10.6667Z" fill="#C5CAE9"/>
<path d="M606.789 9V59H654.673V9H606.789ZM632.327 45.6667H619.558V22.3333H624.346V41.6667H632.327V45.6667ZM643.819 32.5L642.383 32.3333C641.106 32.3333 640.308 32.8333 639.988 34V45.6667H635.519V28H639.669L639.829 29.8333C640.467 28.3333 641.425 27.6667 642.702 27.6667C643.181 27.6667 643.659 27.6667 643.979 27.8333L643.819 32.5Z" fill="#020F16"/>
<path d="M1097 9.66667C1097 5.985 1099.86 3 1103.38 3H1148.08C1151.6 3 1154.46 5.985 1154.46 9.66667V56.3333C1154.46 60.015 1151.6 63 1148.08 63H1103.38C1099.86 63 1097 60.015 1097 56.3333V9.66667Z" fill="#FF5722"/>
<path d="M1118.77 35.8285H1123.01L1120.89 27.3818L1118.77 35.8285Z" fill="#1C0802"/>
<path d="M1101.79 8V58H1149.67V8H1101.79ZM1125.24 44.6667L1124.02 39.8167H1117.77L1116.56 44.6667H1111.71L1118.8 20.9683H1122.99L1130.13 44.6667H1125.24ZM1136.66 44.6667H1132.24V27.0567H1136.66V44.6667ZM1136.19 24.2567C1135.76 24.7233 1135.17 24.9567 1134.43 24.9567C1133.7 24.9567 1133.11 24.7233 1132.68 24.2567C1132.25 23.79 1132.03 23.2033 1132.03 22.4983C1132.03 21.7817 1132.25 21.1967 1132.69 20.74C1133.12 20.2833 1133.71 20.0567 1134.43 20.0567C1135.16 20.0567 1135.74 20.285 1136.18 20.74C1136.62 21.195 1136.84 21.7817 1136.84 22.4983C1136.84 23.2033 1136.62 23.79 1136.19 24.2567Z" fill="#1C0802"/>
<path fill-rule="evenodd" clip-rule="evenodd" d="M381.203 28C378.754 28 377.21 29.4522 376.602 32.3392C377.522 30.8869 378.591 30.3445 379.823 30.712C380.52 30.9219 381.025 31.5168 381.574 32.1817C382.48 33.2665 383.519 34.5088 385.805 34.5088C388.254 34.5088 389.797 33.0565 390.406 30.1696C389.486 31.6218 388.417 32.1642 387.185 31.7968C386.487 31.5868 385.983 30.9919 385.433 30.3271C384.528 29.2423 383.489 28 381.203 28ZM376.602 34.4913C374.152 34.4913 372.609 35.9435 372 38.8304C372.92 37.3782 373.989 36.8358 375.221 37.2032C375.919 37.4132 376.423 38.0081 376.973 38.6729C377.878 39.7577 378.917 41 381.203 41C383.652 41 385.196 39.5478 385.805 36.6608C384.884 38.1131 383.815 38.6555 382.583 38.288C381.886 38.0781 381.381 37.4832 380.832 36.8183C379.926 35.751 378.887 34.4913 376.602 34.4913Z" fill="#06B6D4"/>
<path fill-rule="evenodd" clip-rule="evenodd" d="M399.612 33.4752H398.009V37.132C398.009 38.1118 398.558 38.0943 399.612 38.0418V39.5291C397.459 39.8265 396.613 39.1266 396.613 37.1495V33.4927H395.426V31.9005H396.613V29.8534L398.009 29.3635V31.9005H399.612V33.4752ZM405.727 31.883H407.123V39.5116H405.727V38.4093C405.237 39.2141 404.466 39.704 403.456 39.704C401.69 39.704 400.235 37.9544 400.235 35.6973C400.235 33.4227 401.705 31.6906 403.456 31.6906C404.466 31.6906 405.237 32.1805 405.727 32.9678V31.883ZM403.679 38.1468C404.851 38.1468 405.727 37.132 405.727 35.6973C405.727 34.2801 404.851 33.2478 403.679 33.2478C402.521 33.2478 401.63 34.2626 401.63 35.6973C401.63 37.132 402.521 38.1468 403.679 38.1468ZM409.453 30.7458C408.963 30.7458 408.562 30.2558 408.562 29.696C408.562 29.1186 408.963 28.6462 409.453 28.6462C409.943 28.6462 410.344 29.1186 410.344 29.696C410.358 30.2558 409.943 30.7458 409.453 30.7458ZM408.755 39.5116V31.883H410.151V39.5116H408.755ZM411.769 39.5116V28.3662H413.164V39.5116H411.769ZM422.248 31.883H423.718L421.684 39.5116H420.318L418.968 34.3676L417.602 39.5116H416.236L414.203 31.883H415.672L416.934 37.1495L418.3 31.883H419.636L420.986 37.1495L422.248 31.883ZM425.469 30.7458C424.979 30.7458 424.579 30.2558 424.579 29.696C424.579 29.1186 424.979 28.6462 425.469 28.6462C425.959 28.6462 426.36 29.1186 426.36 29.696C426.36 30.2558 425.959 30.7458 425.469 30.7458ZM424.757 39.5116V31.883H426.152V39.5116H424.757ZM431.184 31.6906C432.639 31.6906 433.678 32.8453 433.678 34.84V39.5291H432.282V34.9974C432.282 33.8427 431.718 33.2303 430.828 33.2303C429.907 33.2303 429.18 33.8776 429.18 35.4348V39.5291H427.785V31.9005H429.18V32.8803C429.611 32.0755 430.308 31.6906 431.184 31.6906ZM440.298 28.8386H441.693V39.5291H440.298V38.4268C439.808 39.2316 439.036 39.7215 438.027 39.7215C436.26 39.7215 434.806 37.9719 434.806 35.7148C434.806 33.4402 436.275 31.7081 438.027 31.7081C439.036 31.7081 439.808 32.198 440.298 32.9853V28.8386ZM438.264 38.1468C439.437 38.1468 440.313 37.132 440.313 35.6973C440.313 34.2801 439.437 33.2478 438.264 33.2478C437.107 33.2478 436.216 34.2626 436.216 35.6973C436.216 37.132 437.092 38.1468 438.264 38.1468ZM446.384 39.7215C444.424 39.7215 442.97 37.9719 442.97 35.7148C442.97 33.4402 444.439 31.7081 446.384 31.7081C447.66 31.7081 448.759 32.4779 449.278 33.6852L448.076 34.5075C447.794 33.7902 447.156 33.3353 446.384 33.3353C445.241 33.3353 444.38 34.3501 444.38 35.7323C444.38 37.1145 445.241 38.1293 446.384 38.1293C447.156 38.1293 447.794 37.6569 448.106 36.9571L449.308 37.7619C448.759 38.9342 447.66 39.7215 446.384 39.7215ZM451.609 34.0001C451.609 35.3824 455.097 34.5425 455.097 37.377C455.097 38.8992 453.969 39.7215 452.574 39.7215C451.282 39.7215 450.347 39.0391 449.931 37.9369L451.134 37.1145C451.342 37.7969 451.861 38.2168 452.574 38.2168C453.197 38.2168 453.672 37.9719 453.672 37.3595C453.672 35.9947 450.184 36.7646 450.184 34.0351C450.184 32.6004 451.238 31.7081 452.559 31.7081C453.627 31.7081 454.503 32.2855 454.949 33.3003L453.776 34.0701C453.538 33.4752 453.093 33.1953 452.559 33.1953C452.054 33.1778 451.609 33.4402 451.609 34.0001ZM457.576 34.0001C457.576 35.3824 461.064 34.5425 461.064 37.377C461.064 38.8992 459.936 39.7215 458.541 39.7215C457.249 39.7215 456.314 39.0391 455.899 37.9369L457.101 37.1145C457.309 37.7969 457.828 38.2168 458.541 38.2168C459.164 38.2168 459.639 37.9719 459.639 37.3595C459.639 35.9947 456.151 36.7646 456.151 34.0351C456.151 32.6004 457.205 31.7081 458.526 31.7081C459.595 31.7081 460.47 32.2855 460.916 33.3003L459.743 34.0701C459.505 33.4752 459.06 33.1953 458.526 33.1953C458.021 33.1778 457.576 33.4402 457.576 34.0001Z" fill="black"/>
<path d="M1224 60.0003C1226.35 59.9924 1227.98 59.7761 1229.95 59.4208C1235.77 58.363 1236.83 56.1414 1236.83 52.0472V45.7898H1223.22V42.6319H1237.35H1243.92C1247.91 42.6319 1251.4 40.6709 1252.5 35.9704C1253.75 30.5751 1253.81 27.1962 1252.5 21.5625C1251.51 17.3609 1249.33 14.2109 1245.34 14.2109H1239.85V22.2699C1239.85 26.953 1235.79 31.5793 1231.13 31.5793H1220.19C1216.38 31.5793 1212.63 34.5193 1212.63 38.4904V52.0472C1212.63 55.8982 1215.29 58.7782 1219.01 59.424C1218.92 59.4335 1221.67 60.0098 1224 60.0003ZM1231.54 53.6845C1230.29 53.6845 1229.27 52.6156 1229.27 51.313C1229.27 49.9977 1230.29 48.9477 1231.54 48.9477C1232.8 48.9477 1233.8 49.9961 1233.8 51.313C1233.8 52.6109 1232.8 53.6845 1231.54 53.6845Z" fill="url(#paint5_linear_1633_1767)"/>
<path d="M1225.46 0.000115527C1223.11 0.00801025 1221.48 0.224326 1219.51 0.579588C1213.69 1.63748 1212.63 3.85905 1212.63 7.95326V14.2106H1226.24V17.3685H1212.11H1205.54C1201.55 17.3685 1198.06 19.3296 1196.96 24.0301C1195.71 29.4253 1195.65 32.8043 1196.96 38.4379C1197.95 42.6395 1200.13 45.7895 1204.12 45.7895H1209.61V37.7306C1209.61 33.0474 1213.67 28.4211 1218.32 28.4211H1229.27C1233.08 28.4211 1236.83 25.4811 1236.83 21.5101V7.95326C1236.83 4.10221 1234.17 1.22222 1230.45 0.57643C1230.54 0.566956 1227.79 -0.00935814 1225.46 0.000115527ZM1217.93 6.31589C1219.17 6.31589 1220.19 7.38484 1220.19 8.68747C1220.19 10.0027 1219.17 11.0527 1217.93 11.0527C1216.66 11.0527 1215.66 10.0043 1215.66 8.68747C1215.66 7.38957 1216.66 6.31589 1217.93 6.31589Z" fill="url(#paint6_linear_1633_1767)"/>
<path fill-rule="evenodd" clip-rule="evenodd" d="M1046.07 8.25101L1047.28 10.2903C1047.6 10.8285 1047.52 11.6 1047.1 12.0067L1045.81 13.2566C1046.05 14.052 1046.2 14.9012 1046.26 15.7683L1047.72 16.0255C1048.24 16.1152 1048.61 16.7372 1048.54 17.407L1048.27 19.9486C1048.2 20.6184 1047.71 21.0909 1047.19 20.9952L1045.59 20.7141C1045.3 21.5095 1044.94 22.2391 1044.51 22.8909L1045.41 24.398C1045.72 24.9362 1045.64 25.7077 1045.22 26.1144L1043.62 27.6633C1043.2 28.0699 1042.6 27.9623 1042.28 27.43L1041.3 25.7854C1040.68 26.0845 1040.02 26.2758 1039.34 26.3536L1039.13 28.2254C1039.06 28.8952 1038.58 29.3617 1038.05 29.272L1036.07 28.9251C1035.54 28.8354 1035.18 28.2135 1035.25 27.5437L1035.47 25.4984C1034.85 25.1336 1034.28 24.6671 1033.77 24.1229L1032.59 25.2652C1032.17 25.6718 1031.56 25.5702 1031.24 25.0319L1030.03 22.9926C1029.72 22.4544 1029.8 21.6829 1030.22 21.2762L1031.5 20.0264C1031.27 19.225 1031.12 18.3818 1031.06 17.5146L1029.59 17.2574C1029.07 17.1677 1028.7 16.5458 1028.78 15.876L1029.05 13.3343C1029.12 12.6645 1029.6 12.1981 1030.13 12.2878L1031.73 12.5688C1032.01 11.7794 1032.38 11.0438 1032.8 10.392L1031.91 8.88493C1031.59 8.35268 1031.67 7.58121 1032.09 7.17454L1033.69 5.62563C1034.11 5.21896 1034.71 5.32063 1035.03 5.85886L1036.01 7.50346C1036.63 7.20445 1037.29 7.01307 1037.97 6.93533L1038.17 5.06347C1038.24 4.39367 1038.73 3.92122 1039.25 4.01093L1041.24 4.35779C1041.76 4.4475 1042.13 5.06945 1042.06 5.73926L1041.84 7.78454C1042.46 8.14934 1043.03 8.61581 1043.54 9.16601L1044.72 8.02376C1045.14 7.61111 1045.75 7.71278 1046.07 8.25101ZM1011.88 44.1392V34.2716H1015.85C1016.59 34.2716 1017.15 34.3493 1017.54 34.5168C1017.93 34.6783 1018.24 34.9773 1018.48 35.4138C1018.72 35.8564 1018.84 36.3886 1018.84 37.0166C1018.84 37.5608 1018.74 38.0392 1018.56 38.4339C1018.38 38.8346 1018.13 39.1576 1017.81 39.4027C1017.61 39.5582 1017.33 39.6898 1016.97 39.7915C1017.26 39.9171 1017.46 40.0307 1017.59 40.1563C1017.68 40.24 1017.8 40.4134 1017.97 40.6766C1018.13 40.9397 1018.24 41.149 1018.3 41.2925L1019.46 44.1452H1016.77L1015.49 41.1371C1015.33 40.7483 1015.19 40.4912 1015.06 40.3775C1014.89 40.228 1014.7 40.1503 1014.48 40.1503H1014.27V44.1452H1011.88V44.1392ZM1020.28 61.3208H1015.83L1015.19 64H1011.18L1015.96 47.7394H1020.26L1025.03 64H1020.91L1020.28 61.3208ZM1019.45 57.7984L1018.06 51.9496L1016.67 57.7984H1019.45ZM1025.96 47.7394H1032.49C1033.92 47.7394 1034.99 48.17 1035.69 49.0371C1036.4 49.9043 1036.75 51.1422 1036.75 52.739C1036.75 54.3836 1036.37 55.6693 1035.59 56.5963C1034.82 57.5233 1033.64 57.9837 1032.05 57.9837H1029.9V64H1025.96V47.7394ZM1029.9 54.6886H1030.87C1031.63 54.6886 1032.17 54.5211 1032.47 54.1802C1032.78 53.8453 1032.94 53.4088 1032.94 52.8885C1032.94 52.3801 1032.8 51.9436 1032.54 51.5907C1032.27 51.2379 1031.76 51.0585 1031.03 51.0585H1029.9V54.6886ZM1038.34 47.7394H1042.29V64H1038.34V47.7394ZM1014.27 38.2784H1015.27C1015.38 38.2784 1015.59 38.2306 1015.91 38.1409C1016.07 38.099 1016.2 37.9974 1016.29 37.8299C1016.4 37.6625 1016.44 37.4711 1016.44 37.2558C1016.44 36.9388 1016.36 36.6877 1016.21 36.5202C1016.05 36.3468 1015.75 36.2631 1015.32 36.2631H1014.27V38.2784ZM1019.92 34.2716H1026.3V36.3767H1022.31V37.9495H1026.01V39.9589H1022.31V41.9025H1026.42V44.1332H1019.92V34.2716ZM1026.98 40.8739L1029.25 40.6945C1029.29 41.167 1029.4 41.5198 1029.55 41.765C1029.8 42.1597 1030.15 42.363 1030.6 42.363C1030.94 42.363 1031.2 42.2614 1031.39 42.058C1031.57 41.8547 1031.66 41.6155 1031.66 41.3464C1031.66 41.0892 1031.57 40.862 1031.4 40.6586C1031.23 40.4553 1030.82 40.2699 1030.18 40.0845C1029.14 39.7855 1028.39 39.3848 1027.94 38.8884C1027.49 38.3921 1027.27 37.7581 1027.27 36.9867C1027.27 36.4783 1027.39 35.9999 1027.62 35.5514C1027.85 35.1029 1028.19 34.744 1028.65 34.4869C1029.12 34.2297 1029.75 34.1041 1030.55 34.1041C1031.54 34.1041 1032.29 34.3374 1032.81 34.8098C1033.32 35.2823 1033.63 36.0238 1033.73 37.0525L1031.49 37.2259C1031.43 36.7774 1031.3 36.4484 1031.11 36.2511C1030.92 36.0478 1030.66 35.9461 1030.32 35.9461C1030.05 35.9461 1029.84 36.0238 1029.7 36.1733C1029.56 36.3229 1029.49 36.5082 1029.49 36.7235C1029.49 36.879 1029.55 37.0166 1029.66 37.1481C1029.77 37.2737 1030.03 37.3993 1030.45 37.513C1031.5 37.8 1032.25 38.093 1032.69 38.3861C1033.14 38.6791 1033.48 39.0439 1033.68 39.4805C1033.88 39.9111 1033.99 40.4015 1033.99 40.9397C1033.99 41.5736 1033.85 42.1537 1033.57 42.686C1033.3 43.2182 1032.92 43.6249 1032.43 43.9C1031.94 44.1751 1031.32 44.3126 1030.57 44.3126C1029.26 44.3126 1028.35 43.9897 1027.85 43.3438C1027.34 42.686 1027.05 41.8667 1026.98 40.8739ZM1034.33 34.2716H1041.58V36.7116H1039.15V44.1392H1036.77V36.7116H1034.33V34.2716ZM1026.31 10.8525C1025.45 10.7687 1024.59 10.7807 1023.73 10.8884C1021.1 11.2113 1018.54 12.4373 1016.43 14.5364C1013.98 16.9584 1012.12 20.5825 1011.41 25.3848L1011.18 26.8858L1010.01 27.149C1008.87 27.4061 1007.84 27.759 1006.95 28.2075C1006.08 28.6381 1005.3 29.1703 1004.62 29.7983C1004.08 30.3006 1003.61 30.8628 1003.21 31.4728C1001.98 33.3566 1001.41 35.7188 1001.43 38.111C1001.44 40.539 1002.06 42.991 1003.2 45.0064C1003.63 45.7539 1004.12 46.4416 1004.68 47.0397C1005.25 47.6437 1005.89 48.146 1006.61 48.5228C1007.02 48.7381 1007.45 48.9175 1007.9 49.061V53.5403C1006.97 53.325 1006.11 53.0021 1005.3 52.5775C1004.24 52.0153 1003.3 51.2917 1002.48 50.4066C1001.69 49.5694 1001 48.6185 1000.42 47.5839C998.861 44.8329 998.019 41.472 998 38.1229C997.982 34.7381 998.805 31.3711 1000.58 28.6441C1001.16 27.759 1001.83 26.9456 1002.61 26.228C1003.51 25.3907 1004.55 24.6851 1005.72 24.105C1006.52 23.7043 1007.38 23.3694 1008.29 23.1003C1009.32 17.8734 1011.51 13.8486 1014.33 11.0558C1016.97 8.44238 1020.14 6.91739 1023.41 6.5167C1025.13 6.30739 1026.87 6.40308 1028.57 6.80974C1028.53 7.00709 1028.5 7.20445 1028.48 7.40778L1028.48 7.44366C1028.44 7.78454 1028.43 8.12542 1028.44 8.47228C1028.08 8.65169 1027.75 8.89689 1027.44 9.19591L1027.43 9.20787C1026.98 9.64444 1026.59 10.2066 1026.31 10.8525ZM1051.05 22.3348C1051.31 22.6398 1051.56 22.9567 1051.81 23.2976C1052.31 23.9854 1052.78 24.7628 1053.23 25.63C1054.73 28.5723 1055.49 32.5014 1055.46 36.3468C1055.43 40.1204 1054.63 43.8761 1053 46.639C1051.94 48.4391 1050.58 49.9103 1048.95 51.0764C1047.83 51.8778 1046.57 52.5416 1045.2 53.0798V48.4451C1045.94 48.0922 1046.63 47.6975 1047.26 47.249C1048.49 46.3699 1049.5 45.2994 1050.25 44.0136C1051.42 42.0221 1051.99 39.2054 1052.02 36.3169C1052.05 33.2848 1051.47 30.2408 1050.34 28.0281C1050.02 27.3882 1049.66 26.8141 1049.29 26.2998C1049.14 26.1024 1049 25.917 1048.85 25.7376C1048.87 25.4386 1048.88 25.1336 1048.87 24.8286C1049.23 24.6492 1049.56 24.404 1049.87 24.105L1049.88 24.093C1050.36 23.6206 1050.76 23.0225 1051.05 22.3348ZM1039.19 11.6538C1041.35 12.0306 1042.85 14.5723 1042.56 17.3292C1042.26 20.0862 1040.28 22.0178 1038.12 21.6411C1035.96 21.2643 1034.45 18.7226 1034.75 15.9657C1035.05 13.2087 1037.03 11.2771 1039.19 11.6538Z" fill="black"/>
<path d="M952.816 4H902.65C900.635 4 899 5.70759 899 7.81138V60.1886C899 62.2924 900.635 64 902.65 64H952.81C954.825 64 956.46 62.2924 956.46 60.1942V7.81138C956.46 5.70759 954.825 4 952.816 4ZM930.466 49.9766C930.466 55.6853 927.26 58.2857 922.578 58.2857C918.346 58.2857 915.294 55.3225 914.049 52.5714L918.351 49.8538C919.18 51.3884 920.441 52.5714 922.258 52.5714C923.995 52.5714 924.994 51.8627 924.994 49.106V31.1429H930.466V49.9766ZM942.336 58.2857C937.489 58.2857 934.736 55.7355 933.203 52.5714L937.307 49.7143C938.424 51.6228 939.642 53.4475 942.218 53.4475C944.383 53.4475 945.516 52.3203 945.516 50.7578C945.516 48.894 944.34 48.2299 941.962 47.1417L940.658 46.5558C936.89 44.8817 934.384 42.7835 934.384 38.3415C934.384 34.2567 937.371 31.1429 942.031 31.1429C945.35 31.1429 947.733 32.3482 949.454 35.5067L945.393 38.2355C944.495 36.5558 943.533 35.8973 942.031 35.8973C940.503 35.8973 939.535 36.9129 939.535 38.2355C939.535 39.8705 940.503 40.529 942.742 41.5446L944.046 42.1306C948.487 44.1116 950.988 46.1373 950.988 50.6908C950.988 55.596 947.295 58.2857 942.336 58.2857Z" fill="#FFD03E"/>
<path d="M800 10.6667C800 6.985 802.859 4 806.384 4H851.076C854.602 4 857.46 6.985 857.46 10.6667V57.3333C857.46 61.015 854.602 64 851.076 64H806.384C802.859 64 800 61.015 800 57.3333V10.6667Z" fill="#03A9F4"/>
<path d="M822.371 25.9561H819.176V33.3461H822.325C823.198 33.3461 823.873 33.0477 824.352 32.4511C824.831 31.8544 825.069 30.9861 825.069 29.8461C825.069 28.6627 824.824 27.7227 824.336 27.0227C823.848 26.3227 823.192 25.9677 822.371 25.9561Z" fill="#020F16"/>
<path d="M804.789 9V59H852.673V9H804.789ZM827.717 35.315C826.399 36.6617 824.57 37.3333 822.231 37.3333H819.176V45.6667H814.594V21.9683H822.326C824.57 21.9683 826.361 22.6967 827.695 24.15C829.029 25.6033 829.698 27.4917 829.698 29.8133C829.698 32.135 829.037 33.9683 827.717 35.315ZM842.588 44.56C841.457 45.515 839.969 45.9917 838.13 45.9917C836.893 45.9917 835.802 45.74 834.857 45.235C833.912 44.73 833.17 44.0267 832.635 43.1267C832.1 42.2267 831.832 41.255 831.832 40.2133H836.025C836.047 41.015 836.225 41.6183 836.563 42.02C836.901 42.4217 837.454 42.6217 838.223 42.6217C839.407 42.6217 839.999 42.0633 839.999 40.945C839.999 40.555 839.821 40.1933 839.462 39.8633C839.102 39.5333 838.308 39.0867 837.071 38.5217C835.253 37.7517 834.003 36.955 833.321 36.1283C832.64 35.3017 832.3 34.2783 832.3 33.0517C832.3 31.51 832.833 30.2383 833.898 29.235C834.962 28.2317 836.375 27.73 838.129 27.73C839.977 27.73 841.458 28.23 842.571 29.2267C843.683 30.2233 844.239 31.565 844.239 33.2467H839.827C839.827 31.815 839.257 31.0983 838.113 31.0983C837.645 31.0983 837.262 31.25 836.959 31.5533C836.656 31.8567 836.507 32.2817 836.507 32.8233C836.507 33.2133 836.673 33.5583 837.007 33.8567C837.34 34.155 838.122 34.5817 839.361 35.135C841.16 35.83 842.429 36.6033 843.173 37.455C843.916 38.3067 844.287 39.4117 844.287 40.7667C844.287 42.3417 843.72 43.605 842.588 44.56Z" fill="#020F16"/>
<path d="M757.743 34.9882C757.743 30.3263 753.559 26.2646 746.98 23.6719C747.808 19.2184 747.921 15.2434 747.219 12.1989C746.633 9.66115 745.522 7.8354 743.92 6.77497C742.957 6.13804 741.855 5.81291 740.647 5.81291C737.476 5.81291 733.618 8.14886 729.734 12.1338C725.846 8.1472 721.986 5.80957 718.813 5.80957C717.604 5.80957 716.503 6.13304 715.539 6.77163C713.938 7.83373 712.826 9.66115 712.241 12.2005C711.539 15.2451 711.652 19.2201 712.478 23.6719C705.902 26.2646 701.719 30.328 701.719 34.9882C701.719 39.6485 705.902 43.7118 712.48 46.3029C711.652 50.7547 711.539 54.7297 712.243 57.7742C712.827 60.3153 713.939 62.141 715.542 63.2048C716.506 63.8417 717.608 64.1669 718.816 64.1669C718.818 64.1669 718.816 64.1669 718.818 64.1669C721.989 64.1669 725.848 61.8309 729.732 57.8426C733.616 61.8259 737.475 64.1602 740.645 64.1619C740.647 64.1619 740.647 64.1619 740.647 64.1619C741.856 64.1619 742.957 63.8384 743.922 63.1998C745.522 62.1394 746.633 60.3136 747.217 57.7759C747.92 54.7313 747.806 50.7564 746.98 46.3045C753.558 43.7135 757.743 39.6501 757.743 34.9882ZM742.498 9.67282C743.409 10.2764 744.064 11.4169 744.443 13.0625C745.019 15.5569 744.906 18.9133 744.216 22.7165C741.924 22.0212 739.414 21.4927 736.735 21.1525C735.141 18.6482 733.476 16.3922 731.793 14.4148C735.237 10.935 738.399 9.14927 740.647 9.14927C741.351 9.14927 741.973 9.32601 742.498 9.67282ZM738.039 40.4688C737.101 42.3312 736.137 44.0569 735.162 45.6693C733.431 45.8443 731.618 45.9394 729.729 45.9394C727.839 45.9394 726.026 45.8427 724.293 45.6693C723.318 44.0569 722.354 42.3312 721.416 40.4688C720.503 38.6514 719.675 36.8156 718.93 34.9882C719.675 33.1625 720.503 31.325 721.418 29.5076C722.356 27.6452 723.321 25.9195 724.296 24.3055C726.027 24.1304 727.842 24.0354 729.731 24.0354C731.62 24.0354 733.433 24.1304 735.162 24.3055C736.137 25.9195 737.101 27.6435 738.039 29.506C738.954 31.3234 739.783 33.1608 740.529 34.9866C739.783 36.8156 738.954 38.6514 738.039 40.4688ZM742.024 38.9765C742.613 40.7039 743.11 42.3979 743.52 44.0369C742.098 44.4671 740.565 44.8339 738.932 45.1291C739.473 44.1587 740.006 43.1716 740.52 42.1495C741.052 41.0957 741.547 40.037 742.024 38.9765ZM729.731 53.3007C728.683 52.0702 727.623 50.7063 726.563 49.1824C727.603 49.2391 728.656 49.2741 729.731 49.2741C730.804 49.2741 731.857 49.2391 732.895 49.1824C731.837 50.7063 730.778 52.0719 729.731 53.3007ZM720.527 45.1291C718.895 44.8339 717.362 44.4671 715.94 44.0369C716.35 42.3979 716.845 40.7056 717.434 38.9782C717.911 40.037 718.407 41.0974 718.937 42.1512C719.451 43.1716 719.985 44.1587 720.527 45.1291ZM717.434 30.9982C716.845 29.2709 716.35 27.5785 715.94 25.9395C717.362 25.5093 718.895 25.1425 720.528 24.8474C719.987 25.8178 719.452 26.8049 718.938 27.8253C718.407 28.8807 717.911 29.9395 717.434 30.9982ZM729.732 16.6774C730.779 17.9062 731.838 19.2701 732.895 20.7941C731.857 20.7374 730.804 20.7024 729.731 20.7024C728.658 20.7024 727.605 20.7374 726.566 20.7941C727.625 19.2701 728.685 17.9062 729.732 16.6774ZM740.52 27.8253C740.006 26.8032 739.473 25.8161 738.932 24.8457C740.565 25.1408 742.098 25.5077 743.52 25.9378C743.11 27.5785 742.613 29.2709 742.024 30.9999C741.547 29.9411 741.052 28.8807 740.52 27.8253ZM715.017 13.0642C715.397 11.4152 716.052 10.2731 716.963 9.66782C717.489 9.32101 718.111 9.14427 718.813 9.14427C721.064 9.14427 724.226 10.9317 727.671 14.4148C725.987 16.3939 724.321 18.6482 722.725 21.1542C720.046 21.4943 717.536 22.0246 715.243 22.7198C714.554 18.9133 714.44 15.5569 715.017 13.0642ZM704.592 34.9882C704.592 32.1054 707.797 29.0424 713.186 26.8899C713.836 29.4993 714.702 32.2238 715.768 34.9882C714.702 37.7527 713.836 40.4771 713.186 43.0865C707.797 40.934 704.592 37.8711 704.592 34.9882ZM718.815 60.8322C718.111 60.8322 717.487 60.6554 716.964 60.3103C716.051 59.705 715.396 58.5629 715.017 56.9139C714.44 54.4195 714.554 51.0632 715.243 47.2599C717.536 47.9552 720.044 48.4838 722.723 48.8239C724.319 51.3299 725.986 53.5859 727.671 55.565C724.226 59.0464 721.064 60.8322 718.815 60.8322ZM744.442 56.9139C744.061 58.5596 743.408 59.7 742.497 60.3036C741.973 60.6504 741.349 60.8272 740.645 60.8272C738.396 60.8272 735.234 59.0414 731.791 55.5633C733.474 53.5842 735.139 51.3283 736.734 48.8239C739.413 48.4838 741.921 47.9535 744.214 47.2599C744.905 51.0632 745.018 54.4195 744.442 56.9139ZM746.272 43.0882C745.623 40.4788 744.757 37.7544 743.691 34.9882C744.757 32.2221 745.623 29.4976 746.272 26.8882C751.663 29.0408 754.87 32.1054 754.87 34.9882C754.87 37.8711 751.663 40.9357 746.272 43.0882Z" fill="#98CCFD"/>
<path d="M718.816 65C717.48 65 716.259 64.6399 715.184 63.9296C713.407 62.7491 712.183 60.7516 711.547 57.9888C710.869 55.0509 710.906 51.2127 711.647 46.8475C704.87 44.0247 701 39.7263 701 34.9877C701 30.2491 704.87 25.9506 711.647 23.1261C710.905 18.7627 710.869 14.9228 711.547 11.9849C712.183 9.22376 713.407 7.22627 715.183 6.04746C718.803 3.64981 724.057 5.39219 729.732 11.0295C735.404 5.39719 740.655 3.65648 744.276 6.05079C746.05 7.22627 747.274 9.22209 747.912 11.9832C748.59 14.9228 748.553 18.7627 747.81 23.1261C754.589 25.949 758.46 30.2491 758.46 34.9877C758.46 39.7263 754.589 44.0264 747.81 46.8509C748.554 51.2143 748.589 55.0526 747.911 57.9921C747.274 60.7533 746.052 62.7491 744.278 63.9246C740.653 66.3222 735.399 64.5765 729.73 58.9475C725.742 62.9108 721.979 65 718.816 65ZM718.813 6.6427C717.731 6.6427 716.748 6.92949 715.895 7.49472C714.464 8.44511 713.469 10.1008 712.936 12.4151C712.278 15.2612 712.364 19.0928 713.182 23.4963L713.317 24.2233L712.71 24.4634C706.18 27.0344 702.437 30.871 702.437 34.9877C702.437 39.1044 706.18 42.9409 712.709 45.5137L713.315 45.7538L713.18 46.4807C712.363 50.8842 712.277 54.7158 712.935 57.5619C713.467 59.8779 714.463 61.5336 715.897 62.484C716.751 63.0459 717.732 63.3326 718.814 63.3326H718.816C721.706 63.3326 725.412 61.1618 729.255 57.2185L729.73 56.7299L730.206 57.2185C734.047 61.1567 737.755 63.3276 740.645 63.3276C741.728 63.3276 742.71 63.0409 743.567 62.4756C744.995 61.5286 745.99 59.8746 746.523 57.5603C747.181 54.7141 747.095 50.8842 746.277 46.4807L746.142 45.7538L746.748 45.5137C753.279 42.9426 757.024 39.1044 757.024 34.9877C757.024 30.8693 753.279 27.0327 746.748 24.4617L746.142 24.2216L746.279 23.4946C747.096 19.0911 747.182 15.2596 746.524 12.4134C745.99 10.0975 744.995 8.44511 743.564 7.49805C742.709 6.93282 741.728 6.64604 740.646 6.64604C737.757 6.64604 734.051 8.81693 730.207 12.7585L729.732 13.2471L729.256 12.7585C725.412 8.81526 721.704 6.6427 718.813 6.6427ZM718.814 61.6653C717.985 61.6653 717.243 61.4535 716.609 61.0334C715.523 60.3131 714.753 58.9992 714.321 57.1284C713.735 54.5824 713.811 51.1093 714.539 47.0876L714.694 46.2323L715.423 46.4524C717.708 47.1443 720.187 47.6645 722.799 47.9947L723.111 48.0347L723.299 48.3265C724.84 50.7458 726.484 52.9834 728.179 54.9775L728.716 55.6095L728.14 56.193C724.651 59.7212 721.338 61.6653 718.814 61.6653ZM715.8 48.2815C715.128 51.6829 715.108 54.5791 715.71 56.6966C716.109 58.0988 716.579 59.0942 717.32 59.5844C719.179 60.8166 722.798 59.1893 726.619 55.5061C725.135 53.7054 723.695 51.7262 722.332 49.6103C720.044 49.3069 717.85 48.86 715.8 48.2815ZM740.646 61.6603C738.122 61.6603 734.81 59.7178 731.322 56.1914L730.746 55.6095L731.283 54.9775C732.985 52.9734 734.626 50.7375 736.159 48.3281L736.345 48.0347L736.658 47.9947C739.271 47.6629 741.755 47.1443 744.038 46.4524L744.768 46.2323L744.921 47.0876C745.65 51.1126 745.726 54.584 745.138 57.1284C744.706 58.9975 743.937 60.3097 742.856 61.0267C742.218 61.4485 741.475 61.6603 740.646 61.6603ZM732.842 55.5061C736.663 59.1859 740.27 60.8149 742.143 59.5794C742.88 59.0926 743.348 58.0972 743.748 56.6983C744.354 54.579 744.329 51.6829 743.659 48.2831C741.609 48.8617 739.415 49.3069 737.124 49.612C735.769 51.7195 734.331 53.697 732.842 55.5061ZM729.73 54.4873L729.22 53.8871C728.11 52.5832 727.028 51.1777 726.005 49.7054L725 48.2598L726.597 48.3482C728.653 48.4615 730.808 48.4615 732.862 48.3482L734.458 48.2598L733.455 49.7037C732.435 51.1693 731.355 52.5766 730.242 53.8838L729.73 54.4873ZM728.147 50.0839C728.663 50.7792 729.193 51.4544 729.73 52.1047C730.267 51.4511 730.795 50.7775 731.312 50.0839C730.265 50.1156 729.194 50.1156 728.147 50.0839ZM729.73 46.7725C727.886 46.7725 726.037 46.6808 724.233 46.4991L723.899 46.4657L723.707 46.1473C722.671 44.4349 721.693 42.6642 720.798 40.8884C719.909 39.1194 719.061 37.2553 718.28 35.3445L718.133 34.9877L718.28 34.6309C719.061 32.7201 719.909 30.8543 720.798 29.0869C721.703 27.2895 722.655 25.5705 723.71 23.8264L723.902 23.5096L724.236 23.4763C727.838 23.1128 731.622 23.1128 735.223 23.4763L735.557 23.5096L735.749 23.8281C736.806 25.5788 737.759 27.2995 738.658 29.0869C739.556 30.871 740.403 32.7351 741.176 34.6325L741.321 34.9877L741.176 35.3445C740.403 37.2403 739.556 39.106 738.658 40.8901C737.759 42.6775 736.806 44.3982 735.749 46.1489L735.557 46.4674L735.223 46.5007C733.422 46.6808 731.575 46.7725 729.73 46.7725ZM724.689 44.8717C728.006 45.1835 731.455 45.1835 734.767 44.8717C735.725 43.2694 736.594 41.6871 737.42 40.0481C738.24 38.4191 739.017 36.7184 739.733 34.9877C739.017 33.257 738.24 31.5563 737.42 29.9273C736.595 28.2883 735.725 26.7059 734.767 25.1036C731.454 24.7918 727.999 24.7918 724.692 25.1036C723.737 26.7009 722.867 28.2816 722.036 29.9289C721.225 31.5429 720.446 33.2436 719.723 34.9877C720.446 36.7301 721.223 38.4308 722.036 40.0481C722.856 41.6738 723.749 43.2944 724.689 44.8717ZM737.454 46.2406L738.326 44.6767C738.862 43.7163 739.389 42.7392 739.899 41.7304C740.425 40.6867 740.915 39.6379 741.386 38.5908L742.113 36.9768L742.69 38.6709C743.272 40.3766 743.784 42.1056 744.209 43.808L744.414 44.6316L743.7 44.8467C742.239 45.2869 740.673 45.6604 739.042 45.9555L737.454 46.2406ZM741.91 40.9901C741.66 41.517 741.403 42.0456 741.139 42.5725C740.898 43.0527 740.651 43.5245 740.402 43.9914C741.16 43.8246 741.899 43.6429 742.614 43.4428C742.399 42.6258 742.163 41.8071 741.91 40.9901ZM722.003 46.2406L720.416 45.9538C718.784 45.6587 717.217 45.2852 715.76 44.8451L715.046 44.63L715.252 43.808C715.674 42.1123 716.184 40.3849 716.769 38.6725L717.346 36.9768L718.073 38.5942C718.543 39.6413 719.032 40.6883 719.558 41.7321C720.067 42.7409 720.595 43.7179 721.131 44.6783L722.003 46.2406ZM716.843 43.4395C717.556 43.6379 718.294 43.8213 719.051 43.988C718.803 43.5228 718.557 43.051 718.316 42.5708C718.05 42.0456 717.796 41.5187 717.546 40.9901C717.293 41.8105 717.059 42.6275 716.843 43.4395ZM745.79 44.1614L745.581 43.3194C744.94 40.7384 744.082 38.0506 743.035 35.3295L742.903 34.9877L743.035 34.6475C744.082 31.9298 744.94 29.2403 745.582 26.6576L745.792 25.8156L746.507 26.1007C752.193 28.37 755.587 31.693 755.587 34.9877C755.587 38.284 752.193 41.6054 746.506 43.8763L745.79 44.1614ZM744.476 34.9877C745.381 37.367 746.141 39.7229 746.744 42.0056C751.268 40.0548 754.151 37.342 754.151 34.9877C754.151 32.6334 751.268 29.9206 746.744 27.9698C746.141 30.2557 745.379 32.61 744.476 34.9877ZM713.666 44.1598L712.952 43.8747C707.267 41.6037 703.873 38.2824 703.873 34.9877C703.873 31.693 707.267 28.3716 712.952 26.1007L713.666 25.8156L713.875 26.6576C714.52 29.2486 715.377 31.9381 716.421 34.6475L716.555 34.9877L716.422 35.3278C715.377 38.0373 714.522 40.7267 713.877 43.3178L713.666 44.1598ZM712.715 27.9698C708.191 29.9223 705.31 32.635 705.31 34.9877C705.31 37.3403 708.191 40.0531 712.715 42.0056C713.319 39.7129 714.079 37.3586 714.982 34.9877C714.079 32.6167 713.319 30.2624 712.715 27.9698ZM717.345 33.0019L716.767 31.3062C716.184 29.5938 715.672 27.8664 715.25 26.1707L715.045 25.3487L715.759 25.1336C717.218 24.6934 718.784 24.32 720.416 24.0248L722.005 23.7381L721.128 25.3037C720.593 26.2624 720.065 27.2395 719.555 28.2482C719.03 29.2903 718.54 30.3391 718.07 31.3862L717.345 33.0019ZM716.843 26.5359C717.057 27.3479 717.293 28.1665 717.546 28.9852C717.796 28.4583 718.051 27.9314 718.316 27.4046C718.557 26.926 718.803 26.4542 719.051 25.9873C718.294 26.1524 717.556 26.3375 716.843 26.5359ZM742.113 33.0019L741.386 31.3862C740.915 30.3374 740.425 29.2903 739.899 28.2466C739.391 27.2378 738.862 26.2608 738.326 25.3004L737.454 23.7364L739.04 24.0232C740.673 24.3183 742.242 24.6918 743.699 25.1336L744.413 25.3487L744.207 26.1724C743.782 27.8731 743.272 29.6021 742.689 31.3095L742.113 33.0019ZM740.403 25.9856C740.652 26.4525 740.899 26.9244 741.14 27.4046C741.406 27.9314 741.662 28.4583 741.912 28.9869C742.165 28.1682 742.4 27.3495 742.616 26.5359C741.902 26.3358 741.162 26.1524 740.403 25.9856ZM744.763 23.7447L744.035 23.5246C741.755 22.8327 739.273 22.3141 736.656 21.9823L736.342 21.9423L736.156 21.6489C734.619 19.2329 732.978 16.9953 731.28 15.0011L730.743 14.3692L731.319 13.7856C735.957 9.09871 740.287 7.25128 742.85 8.94865C743.934 9.66728 744.703 10.9795 745.135 12.8469C745.721 15.393 745.645 18.8661 744.917 22.8894L744.763 23.7447ZM737.124 20.3633C739.418 20.6685 741.61 21.1153 743.659 21.6939C744.401 18.5142 744.506 15.6998 743.749 13.2771C743.315 11.8932 742.881 10.8844 742.142 10.3942C740.277 9.1604 736.666 10.7877 732.843 14.4692C734.327 16.2717 735.765 18.2508 737.124 20.3633ZM714.696 23.7447L714.541 22.8894C713.811 18.8661 713.735 15.3946 714.322 12.8486C714.755 10.9761 715.523 9.66227 716.608 8.94531C719.178 7.24462 723.504 9.09704 728.143 13.7873L728.72 14.3709L728.182 15.0028C726.481 16.9986 724.84 19.2362 723.303 21.6505L723.116 21.944L722.803 21.984C720.192 22.3158 717.708 22.8344 715.424 23.5263L714.696 23.7447ZM718.813 9.9774C718.237 9.9774 717.734 10.1158 717.317 10.3926C716.579 10.8811 716.205 11.9199 715.71 13.2788C714.934 15.4046 715.065 18.2992 715.8 21.6939C717.852 21.1153 720.044 20.6685 722.335 20.3633C723.694 18.2508 725.133 16.2733 726.62 14.4709C723.648 11.6064 720.828 9.9774 718.813 9.9774ZM725.003 21.7139L726.007 20.27C727.027 18.8027 728.108 17.3971 729.22 16.0899L729.73 15.4897L730.24 16.0899C731.356 17.4021 732.437 18.8077 733.452 20.2683L734.453 21.7122L732.859 21.6255C730.805 21.5138 728.65 21.5138 726.597 21.6255L725.003 21.7139ZM729.73 19.8681C730.262 19.8681 730.789 19.8765 731.312 19.8915C730.799 19.1995 730.269 18.5259 729.732 17.8723C729.194 18.5242 728.666 19.1979 728.15 19.8915C728.673 19.8765 729.199 19.8681 729.73 19.8681Z" fill="#4788C7"/>
<path d="M734.999 34.8357C734.999 38.0621 732.751 40.6715 729.971 40.6715C727.191 40.6715 724.943 38.0621 724.943 34.8357C724.943 31.6094 727.191 29 729.971 29C732.751 29 734.999 31.6094 734.999 34.8357Z" fill="#98CCFD"/>
<path d="M729.73 41.3388C726.561 41.3388 723.984 38.3476 723.984 34.6694C723.984 30.9912 726.561 28 729.73 28C732.899 28 735.476 30.9912 735.476 34.6694C735.476 38.3476 732.899 41.3388 729.73 41.3388ZM729.73 29.6674C727.354 29.6674 725.421 31.9116 725.421 34.6694C725.421 37.4272 727.354 39.6715 729.73 39.6715C732.106 39.6715 734.04 37.4272 734.04 34.6694C734.04 31.9116 732.106 29.6674 729.73 29.6674Z" fill="#4788C7"/>
<path d="M317.67 31.7852H290C290 38.9884 295.592 44.8277 302.491 44.8277H307.604V49.9663C307.608 57.1564 313.184 62.9868 320.07 63.0004V34.2918C320.07 32.9075 318.995 31.7852 317.67 31.7852Z" fill="url(#paint7_linear_1633_1767)"/>
<path d="M322.74 17.3965H295.07C295.075 24.5931 300.661 30.426 307.553 30.4307H312.65V35.586C312.659 42.7826 318.248 48.6115 325.141 48.6115V19.9034C325.141 18.519 324.066 17.3967 322.74 17.3967V17.3965Z" fill="url(#paint8_linear_1633_1767)"/>
<path d="M327.81 3H300.141C300.141 6.4591 301.457 9.77653 303.799 12.2225C306.141 14.6684 309.319 16.0426 312.631 16.0426H317.728V21.1814C317.733 28.378 323.319 34.211 330.211 34.2157V5.50643C330.211 4.12256 329.136 3 327.81 3Z" fill="#2684FF"/>
<defs>
<linearGradient id="paint0_linear_1633_1767" x1="130.293" y1="20.1029" x2="137.892" y2="45.0977" gradientUnits="userSpaceOnUse">
<stop stop-color="#32BDEF"/>
<stop offset="1" stop-color="#1EA2E4"/>
</linearGradient>
<linearGradient id="paint1_linear_1633_1767" x1="128.213" y1="-0.554269" x2="136.404" y2="26.3836" gradientUnits="userSpaceOnUse">
<stop stop-color="#F09CA2"/>
<stop offset="1" stop-color="#EB6773"/>
</linearGradient>
<linearGradient id="paint2_linear_1633_1767" x1="106.516" y1="36.3672" x2="115.189" y2="64.8898" gradientUnits="userSpaceOnUse">
<stop stop-color="#33C481"/>
<stop offset="1" stop-color="#21A366"/>
</linearGradient>
<linearGradient id="paint3_linear_1633_1767" x1="107.935" y1="19.6229" x2="116.191" y2="46.7756" gradientUnits="userSpaceOnUse">
<stop stop-color="#AE4CD5"/>
<stop offset="1" stop-color="#9331BF"/>
</linearGradient>
<linearGradient id="paint4_linear_1633_1767" x1="109.079" y1="0.287156" x2="117.385" y2="27.6027" gradientUnits="userSpaceOnUse">
<stop stop-color="#F44F5A"/>
<stop offset="0.443" stop-color="#EE3D4A"/>
<stop offset="1" stop-color="#E52030"/>
</linearGradient>
<linearGradient id="paint5_linear_1633_1767" x1="1242.53" y1="51.9651" x2="1223.61" y2="26.0871" gradientUnits="userSpaceOnUse">
<stop stop-color="#FEB705"/>
<stop offset="1" stop-color="#FFDA1C"/>
</linearGradient>
<linearGradient id="paint6_linear_1633_1767" x1="1204.91" y1="12.5875" x2="1229.74" y2="32.5367" gradientUnits="userSpaceOnUse">
<stop stop-color="#26ABE7"/>
<stop offset="1" stop-color="#086DBF"/>
</linearGradient>
<linearGradient id="paint7_linear_1633_1767" x1="320.27" y1="31.9272" x2="306.163" y2="45.2196" gradientUnits="userSpaceOnUse">
<stop offset="0.18" stop-color="#0052CC"/>
<stop offset="1" stop-color="#2684FF"/>
</linearGradient>
<linearGradient id="paint8_linear_1633_1767" x1="324.549" y1="17.4467" x2="312.322" y2="29.665" gradientUnits="userSpaceOnUse">
<stop offset="0.18" stop-color="#0052CC"/>
<stop offset="1" stop-color="#2684FF"/>
</linearGradient>
<clipPath id="clip0_1633_1767">
<rect width="57.4603" height="56" fill="white" transform="translate(503 6)"/>
</clipPath>
</defs>
</svg>
