<svg width="351" height="64" viewBox="0 0 351 64" fill="none" xmlns="http://www.w3.org/2000/svg">
<path d="M1.39781 56.8581C1.68211 57.2635 2.08487 57.4662 2.60609 57.4662H2.65348C3.09572 57.4662 3.53797 56.9984 3.98022 56.0629C4.42246 55.1273 4.83312 53.8487 5.21219 52.2271C5.59125 50.6055 5.94663 48.9761 6.27832 47.3389C6.61 45.7016 6.94168 43.9319 7.27337 42.0296C7.32075 41.7022 7.36024 41.4605 7.39183 41.3046C8.52903 34.6777 9.761 28.5343 11.0877 22.8742C12.4145 17.2141 13.3779 13.5343 13.9781 11.8347C14.0729 11.554 14.1519 11.3201 14.2151 11.133C14.2782 10.9459 14.4125 10.6029 14.6178 10.1039C14.8231 9.60495 15.0364 9.16835 15.2575 8.79414C15.4786 8.41991 15.7471 8.0379 16.063 7.64808C16.3789 7.25827 16.7264 6.94642 17.1054 6.71253C17.4845 6.47865 17.8873 6.3695 18.3137 6.38509C19.1982 6.38509 19.8616 6.65796 20.3038 7.2037C20.7461 7.74944 20.9988 8.37313 21.062 9.0748C21.062 9.46461 20.9672 9.77646 20.7777 10.0104C20.5881 10.2442 20.4065 10.3924 20.2328 10.4547C20.059 10.5171 19.8853 10.5405 19.7115 10.5249C19.3799 10.5249 19.0798 10.408 18.8113 10.1741C18.5427 9.94019 18.4085 9.62054 18.4085 9.21513C18.4085 8.46669 18.827 8.0223 19.6642 7.88197L19.5931 7.78842C19.5457 7.74164 19.4825 7.68707 19.4035 7.62469C19.3246 7.56232 19.2614 7.51555 19.214 7.48436C18.9771 7.32844 18.7165 7.25047 18.4322 7.25047C18.2111 7.25047 18.0057 7.34403 17.8162 7.53114C17.6267 7.71825 17.374 8.15484 17.0581 8.84091C16.7422 9.52699 16.4342 10.4314 16.1341 11.554C15.834 12.6767 15.4628 14.2593 15.0206 16.3019C14.5783 18.3446 14.1361 20.7458 13.6938 23.5057C12.762 28.7292 11.7906 33.6642 10.7797 38.3108C9.7689 42.9574 8.97918 46.3253 8.41057 48.4147C7.84197 50.5041 7.40762 52.001 7.10753 52.9054C5.89135 56.5385 4.39087 58.355 2.60609 58.355C1.97431 58.355 1.39781 58.1133 0.876595 57.6299C0.355376 57.1466 0.063178 56.4839 0 55.6419C0 55.0961 0.150048 54.7219 0.450143 54.5192C0.750239 54.3165 1.05033 54.2152 1.35043 54.2152C1.68211 54.2152 1.98221 54.3321 2.25072 54.566C2.51922 54.7999 2.65348 55.1195 2.65348 55.5249C2.65348 56.2734 2.23492 56.7178 1.39781 56.8581Z" fill="black"/>
<path d="M25.3086 2.0442C25.3086 1.93396 25.3309 1.80719 25.3756 1.66388C25.4203 1.52056 25.4873 1.44891 25.5766 1.44891C25.5878 1.44891 25.9898 1.42135 26.7826 1.36623C27.5755 1.31111 27.983 1.27804 28.0054 1.26701C28.1394 1.26701 28.2064 1.31662 28.2064 1.41584C28.2064 1.51505 28.0165 2.30326 27.6369 3.78047C27.5475 4.15528 27.4526 4.54112 27.3521 4.93798C27.2516 5.33484 27.1679 5.63248 27.1009 5.83092L27.0339 6.1451C27.0339 6.17817 27.0674 6.16163 27.1344 6.09549C27.6815 5.65453 28.2455 5.43405 28.8261 5.43405C29.5185 5.43405 30.0768 5.6876 30.5011 6.1947C30.9255 6.7018 31.1432 7.34119 31.1544 8.11287C31.1544 9.33652 30.7133 10.4444 29.8311 11.4366C28.949 12.4287 27.9998 12.9248 26.9836 12.9248C26.4253 12.9248 25.9172 12.7154 25.4594 12.2964C25.0015 11.8775 24.767 11.1996 24.7559 10.2625V10.1137C24.7559 9.8822 24.8005 9.56251 24.8899 9.15463C24.9792 8.74674 25.2528 7.66089 25.7106 5.89706C26.2689 3.72535 26.5481 2.57335 26.5481 2.44106C26.5481 2.30877 26.3359 2.23161 25.9116 2.20956C25.8558 2.20956 25.8111 2.20956 25.7776 2.20956H25.6939C25.5822 2.20956 25.5096 2.20956 25.4761 2.20956C25.4426 2.20956 25.4035 2.19302 25.3589 2.15995C25.3142 2.12688 25.2974 2.0883 25.3086 2.0442ZM29.7139 7.36875V7.26954C29.7139 6.45377 29.3733 6.04588 28.6921 6.04588C28.5023 6.04588 28.3069 6.08998 28.1059 6.17817C27.9049 6.26636 27.7206 6.38211 27.5531 6.52542C27.3856 6.66873 27.2405 6.80102 27.1176 6.92228C26.9948 7.04355 26.8943 7.16481 26.8161 7.28607L26.7156 7.41836L26.3639 8.84044C26.1182 9.7885 25.9954 10.461 25.9954 10.8578C25.9954 11.387 26.1294 11.7838 26.3974 12.0484C26.576 12.2248 26.7994 12.313 27.0674 12.313C27.4359 12.313 27.81 12.1366 28.1896 11.7838C28.4688 11.5303 28.6921 11.2216 28.8596 10.8578C29.0271 10.494 29.2114 9.91528 29.4124 9.12155C29.6134 8.32783 29.7139 7.74356 29.7139 7.36875Z" fill="black"/>
<path d="M12.4221 56.5632C12.4221 55.4498 12.8465 54.3915 13.6951 53.3883C14.5438 52.3852 15.4985 51.8781 16.5594 51.867C17.1289 51.867 17.6314 52.1371 18.0669 52.6773C18.2456 52.3466 18.5024 52.1812 18.8374 52.1812C18.9826 52.1812 19.111 52.2253 19.2226 52.3135C19.3343 52.4017 19.3901 52.5119 19.3901 52.6442C19.3901 52.7875 19.1836 53.6694 18.7704 55.29C18.3572 56.9105 18.1451 57.8255 18.1339 58.0349C18.1339 58.3105 18.173 58.4924 18.2511 58.5806C18.3293 58.6688 18.4466 58.7184 18.6029 58.7294C18.7034 58.7184 18.8151 58.6688 18.9379 58.5806C19.1724 58.3601 19.4013 57.831 19.6247 56.9931C19.6917 56.7727 19.7475 56.6569 19.7922 56.6459C19.8145 56.6349 19.8703 56.6294 19.9597 56.6294H20.0267C20.2388 56.6294 20.3449 56.679 20.3449 56.7782C20.3449 56.8443 20.317 56.9931 20.2612 57.2247C20.2053 57.4562 20.0937 57.7538 19.9262 58.1176C19.7587 58.4814 19.58 58.757 19.3901 58.9444C19.245 59.0877 19.0663 59.2034 18.8541 59.2916C18.7648 59.3137 18.6308 59.3247 18.4521 59.3247C18.0725 59.3247 17.7542 59.242 17.4974 59.0767C17.2406 58.9113 17.0731 58.7404 16.9949 58.5641L16.8944 58.316C16.8832 58.305 16.8609 58.3105 16.8274 58.3326C16.8051 58.3546 16.7827 58.3767 16.7604 58.3987C16.1016 59.016 15.4315 59.3247 14.7504 59.3247C14.1362 59.3247 13.5946 59.1042 13.1256 58.6633C12.6566 58.2223 12.4221 57.5223 12.4221 56.5632ZM17.7486 53.7356C17.7486 53.6694 17.7207 53.5482 17.6649 53.3718C17.6091 53.1954 17.4806 53.0025 17.2796 52.793C17.0786 52.5836 16.8218 52.4733 16.5091 52.4623C16.1183 52.4623 15.7442 52.6332 15.3869 52.9749C15.0295 53.3167 14.7504 53.7631 14.5494 54.3143C14.2255 55.1852 13.9966 56.0892 13.8626 57.0262C13.8626 57.0593 13.8626 57.1199 13.8626 57.2081C13.8626 57.2963 13.857 57.3624 13.8459 57.4065C13.8459 57.9026 13.9464 58.2444 14.1474 58.4318C14.3484 58.6192 14.5885 58.7184 14.8676 58.7294C15.292 58.7294 15.7107 58.5475 16.1239 58.1837C16.5371 57.8199 16.7827 57.5388 16.8609 57.3404C16.8832 57.2963 17.034 56.7065 17.3131 55.5711C17.5923 54.4356 17.7375 53.8238 17.7486 53.7356Z" fill="black"/>
<path d="M39.2001 41.9809C39.2317 41.9809 39.2791 41.9964 39.3423 42.0276C39.4054 42.0588 39.4923 42.0822 39.6029 42.0978C39.7134 42.1134 39.8082 42.1212 39.8872 42.1212C40.0925 42.1212 40.282 42.0198 40.4558 41.8171C40.6295 41.6144 40.7559 41.3883 40.8348 41.1389C40.9928 40.7179 41.2613 39.525 41.6404 37.5604C42.0194 35.5957 42.3827 33.7246 42.7302 31.9471C43.0777 30.1695 43.2514 29.2729 43.2514 29.2574V29.1872H42.1379C41.3955 29.1872 41.0007 29.1716 40.9533 29.1404C40.8901 29.0936 40.8585 29.0157 40.8585 28.9065L41.0244 28.2516C41.056 28.1737 41.1191 28.1347 41.2139 28.1347C41.3087 28.1347 41.6798 28.1269 42.3274 28.1113C43.0855 28.1113 43.4646 28.1035 43.4646 28.0879C43.4646 28.0567 43.5357 27.6669 43.6778 26.9185C43.82 26.17 43.9148 25.7178 43.9621 25.5619C44.5465 22.9892 45.6995 21.7028 47.4211 21.7028C48.0055 21.734 48.4873 21.9055 48.8663 22.2173C49.2454 22.5292 49.4349 22.9424 49.4349 23.4569C49.4349 24.0183 49.2691 24.4237 48.9374 24.6731C48.6057 24.9226 48.274 25.0552 47.9424 25.0708C47.2474 25.0708 46.8999 24.7433 46.8999 24.0884C46.8999 23.7922 46.9868 23.5349 47.1605 23.3166C47.3343 23.0983 47.5238 22.9346 47.7291 22.8254L47.9424 22.7085C47.6896 22.6149 47.4527 22.5682 47.2316 22.5682C47.0421 22.5682 46.8604 22.6461 46.6867 22.802C46.513 22.958 46.3945 23.1763 46.3313 23.4569C46.2208 23.9091 46.0944 24.5172 45.9523 25.2813C45.8101 26.0453 45.6837 26.6924 45.5732 27.2225C45.4626 27.7527 45.4073 28.0333 45.4073 28.0645C45.4073 28.0957 45.8417 28.1113 46.7104 28.1113C47.4211 28.1113 47.8318 28.1191 47.9424 28.1347C48.0529 28.1503 48.1398 28.1971 48.203 28.275C48.2188 28.3374 48.203 28.4699 48.1556 28.6726C48.1082 28.8753 48.0687 29.0001 48.0371 29.0469C48.0055 29.1248 47.9345 29.1638 47.8239 29.1638C47.7133 29.1638 47.2869 29.1716 46.5445 29.1872H45.2178L44.6729 32.0406C43.9148 35.9076 43.3856 38.3244 43.0855 39.2911C42.6591 40.6165 42.1063 41.5988 41.4271 42.2381C40.8427 42.7371 40.2662 42.9866 39.6976 42.9866C39.1922 42.9866 38.7342 42.8384 38.3235 42.5422C37.9128 42.2459 37.7075 41.8249 37.7075 41.2792C37.7075 40.7023 37.8734 40.2813 38.205 40.0162C38.5367 39.7511 38.8684 39.6186 39.2001 39.6186C39.8951 39.6186 40.2425 39.946 40.2425 40.6009C40.2425 40.8972 40.1557 41.1545 39.9819 41.3727C39.8082 41.591 39.6187 41.7548 39.4133 41.8639L39.2001 41.9809Z" fill="black"/>
<path d="M51.6614 32.3444C51.6614 31.2685 51.7403 30.2472 51.8983 29.2805C52.0562 28.3138 52.2379 27.4796 52.4432 26.7779C52.6485 26.0762 52.9407 25.3902 53.3198 24.7197C53.6989 24.0492 53.999 23.5269 54.2201 23.1526C54.4412 22.7784 54.7729 22.373 55.2151 21.9364C55.6574 21.4998 55.918 21.2348 55.997 21.1412C56.0759 21.0476 56.2734 20.8839 56.5893 20.65H56.8973H56.992C57.2131 20.65 57.3237 20.7202 57.3237 20.8605C57.3237 20.9073 57.1895 21.071 56.9209 21.3517C56.6524 21.6324 56.3287 22.0456 55.9496 22.5913C55.5705 23.137 55.1836 23.8075 54.7887 24.6027C54.3938 25.398 54.0621 26.4738 53.7936 27.8304C53.5251 29.1869 53.3909 30.6916 53.3909 32.3444C53.3909 33.9972 53.5251 35.4941 53.7936 36.8351C54.0621 38.176 54.3859 39.2597 54.765 40.0861C55.1441 40.9125 55.531 41.583 55.9259 42.0975C56.3208 42.6121 56.6524 43.0253 56.9209 43.3372C57.1895 43.649 57.3237 43.8127 57.3237 43.8283C57.3237 43.9687 57.2052 44.0388 56.9683 44.0388H56.8973H56.5893L55.9259 43.4775C54.4412 42.1521 53.3593 40.4993 52.6801 38.5191C52.001 36.5388 51.6614 34.4806 51.6614 32.3444Z" fill="black"/>
<path d="M59.8832 31.4318C59.9938 30.777 60.4202 30.0207 61.1626 29.1631C61.9049 28.3055 62.821 27.869 63.9108 27.8534C64.4636 27.8534 64.9691 27.9937 65.4271 28.2744C65.8851 28.555 66.2247 28.9059 66.4458 29.3269C67.1092 28.3445 67.9068 27.8534 68.8387 27.8534C69.4231 27.8534 69.9285 28.0249 70.355 28.3679C70.7814 28.711 71.0026 29.1709 71.0184 29.7479C71.0184 30.2 70.9078 30.5665 70.6867 30.8471C70.4655 31.1278 70.2523 31.2993 70.047 31.3617C69.8417 31.4241 69.66 31.4552 69.5021 31.4552C69.202 31.4552 68.9572 31.3695 68.7676 31.198C68.5781 31.0264 68.4833 30.8004 68.4833 30.5197C68.4833 29.8024 68.8782 29.3113 69.6679 29.0462C69.4942 28.8435 69.1783 28.7421 68.7203 28.7421C68.5149 28.7421 68.3649 28.7577 68.2701 28.7889C67.6699 29.0384 67.2277 29.553 66.9434 30.3326C65.9957 33.7785 65.5219 35.79 65.5219 36.3669C65.5219 36.8035 65.6482 37.1153 65.9009 37.3024C66.1536 37.4895 66.4301 37.5831 66.7301 37.5831C67.3145 37.5831 67.891 37.3258 68.4596 36.8113C69.0282 36.2967 69.4152 35.6652 69.6205 34.9168C69.6679 34.7609 69.7153 34.6751 69.7627 34.6595C69.8101 34.6439 69.9364 34.6283 70.1418 34.6127H70.2365C70.4734 34.6127 70.5919 34.6751 70.5919 34.7998C70.5919 34.8154 70.5761 34.9012 70.5445 35.0571C70.2918 35.9459 69.8022 36.7333 69.0756 37.4194C68.3491 38.1055 67.5041 38.4485 66.5406 38.4485C65.435 38.4485 64.5979 37.9573 64.0293 36.975C63.3817 37.9417 62.6394 38.4251 61.8023 38.4251H61.6601C60.8862 38.4251 60.3334 38.2224 60.0017 37.817C59.67 37.4116 59.4963 36.9828 59.4805 36.5306C59.4805 36.0316 59.6305 35.6262 59.9306 35.3144C60.2307 35.0025 60.5861 34.8466 60.9967 34.8466C61.6759 34.8466 62.0155 35.1741 62.0155 35.8289C62.0155 36.1408 61.9207 36.4137 61.7312 36.6475C61.5417 36.8814 61.36 37.0374 61.1863 37.1153C61.0125 37.1933 60.9099 37.2323 60.8783 37.2323L60.8072 37.2557C60.8072 37.2713 60.8546 37.3024 60.9494 37.3492C61.0441 37.396 61.1705 37.4506 61.3284 37.5129C61.4864 37.5753 61.6364 37.5987 61.7786 37.5831C62.3472 37.5831 62.8368 37.2323 63.2475 36.5306C63.3896 36.2811 63.5712 35.751 63.7924 34.9402C64.0135 34.1294 64.2346 33.2874 64.4557 32.4142C64.6769 31.541 64.8032 31.0264 64.8348 30.8705C64.9138 30.4495 64.9533 30.1455 64.9533 29.9584C64.9533 29.5218 64.8348 29.2099 64.5979 29.0228C64.361 28.8357 64.0925 28.7421 63.7924 28.7421C63.1606 28.7421 62.5683 28.9916 62.0155 29.4906C61.4627 29.9895 61.0757 30.6288 60.8546 31.4085C60.823 31.5488 60.7835 31.6268 60.7361 31.6423C60.6887 31.6579 60.5624 31.6735 60.3571 31.6891H60.0254C59.9306 31.5956 59.8832 31.5098 59.8832 31.4318Z" fill="black"/>
<path d="M73.6246 20.6734L73.7193 20.65C73.7983 20.65 73.8773 20.65 73.9562 20.65H74.2405L74.9039 21.2114C76.3886 22.5367 77.4705 24.1895 78.1497 26.1698C78.8289 28.15 79.1684 30.2082 79.1684 32.3444C79.1684 33.4047 79.0895 34.426 78.9315 35.4084C78.7736 36.3907 78.5919 37.2249 78.3866 37.911C78.1813 38.597 77.8891 39.2831 77.51 39.9692C77.1309 40.6552 76.8308 41.1776 76.6097 41.5362C76.3886 41.8948 76.0648 42.2925 75.6384 42.729C75.2119 43.1656 74.9592 43.4229 74.8802 43.5009C74.8013 43.5788 74.6196 43.727 74.3353 43.9453C74.2879 43.992 74.2563 44.0232 74.2405 44.0388H73.9562C73.8299 44.0388 73.743 44.0388 73.6956 44.0388C73.6483 44.0388 73.6088 44.0154 73.5772 43.9687C73.5456 43.9219 73.5219 43.8517 73.5061 43.7582C73.5219 43.7426 73.6088 43.6412 73.7667 43.4541C76.2149 40.9437 77.4389 37.2405 77.4389 32.3444C77.4389 27.4484 76.2149 23.7451 73.7667 21.2348C73.6088 21.0476 73.5219 20.9463 73.5061 20.9307C73.5061 20.806 73.5456 20.7202 73.6246 20.6734Z" fill="black"/>
<path d="M90.0905 22.2171C90.1063 22.2171 90.6749 22.1781 91.7963 22.1002C92.9177 22.0222 93.4942 21.9754 93.5258 21.9598C93.7154 21.9598 93.8101 22.0222 93.8101 22.1469C93.8101 22.2561 93.2336 24.6106 92.0806 29.2104C90.9276 33.8101 90.3353 36.1568 90.3038 36.2504C90.2722 36.3439 90.2643 36.4609 90.2801 36.6012C90.2801 37.2561 90.5012 37.5835 90.9434 37.5835C91.0856 37.5679 91.2435 37.4978 91.4173 37.373C91.7489 37.0612 92.0727 36.3127 92.3886 35.1277C92.4834 34.8159 92.5624 34.6521 92.6255 34.6366C92.6571 34.621 92.7361 34.6132 92.8625 34.6132H92.9572H93.052C93.2889 34.6132 93.4074 34.6755 93.4074 34.8003C93.4074 34.8782 93.3837 35.003 93.3363 35.1745C93.131 35.9541 92.8941 36.5856 92.6255 37.069C92.357 37.5524 92.1359 37.8642 91.9622 38.0045C91.7884 38.1449 91.5673 38.2696 91.2988 38.3788C91.1725 38.4099 90.9829 38.4255 90.7302 38.4255C90.1932 38.4255 89.743 38.3086 89.3798 38.0747C89.0165 37.8408 88.7796 37.5991 88.669 37.3497L88.5269 36.9988C88.5111 36.9832 88.4795 36.991 88.4321 37.0222C88.4005 37.0534 88.3689 37.0846 88.3373 37.1158C87.4055 37.9889 86.4578 38.4255 85.4943 38.4255C84.6256 38.4255 83.8596 38.1137 83.1962 37.49C82.5329 36.8663 82.2012 35.8762 82.2012 34.5196C82.2012 33.7712 82.3591 33.0071 82.675 32.2275C82.9909 31.4479 83.37 30.7774 83.8122 30.2161C84.5546 29.3273 85.2969 28.7114 86.0392 28.3684C86.7816 28.0253 87.4528 27.8538 88.053 27.8538C88.9375 27.8538 89.6009 28.1812 90.0431 28.8361C90.1221 28.9297 90.1616 28.9609 90.1616 28.9297C90.1774 28.8673 90.3906 28.0175 90.8013 26.3803C91.2119 24.7431 91.4331 23.8777 91.4646 23.7842C91.4646 23.5815 91.4094 23.4567 91.2988 23.4099C91.1882 23.3632 90.8803 23.3242 90.3748 23.293H89.8773C89.7825 23.1994 89.7351 23.1371 89.7351 23.1059C89.7351 23.0747 89.7509 22.9266 89.7825 22.6615C89.8615 22.3652 89.9642 22.2171 90.0905 22.2171ZM89.7588 30.5669C89.3956 29.3351 88.8033 28.7192 87.982 28.7192C87.4292 28.7192 86.9 28.9609 86.3946 29.4442C85.8892 29.9276 85.4943 30.5591 85.21 31.3387C84.752 32.5705 84.4282 33.8491 84.2387 35.1745C84.2387 35.2213 84.2387 35.307 84.2387 35.4318C84.2387 35.5565 84.2308 35.6501 84.215 35.7124C84.215 36.4141 84.3571 36.8975 84.6414 37.1625C84.9257 37.4276 85.2653 37.5679 85.6602 37.5835C86.5131 37.5835 87.3897 37.0222 88.29 35.8995L88.4795 35.6423L89.7588 30.5669Z" fill="black"/>
<path d="M94.9704 31.4318C95.0809 30.777 95.5074 30.0207 96.2497 29.1631C96.9921 28.3055 97.9082 27.869 98.998 27.8534C99.5508 27.8534 100.056 27.9937 100.514 28.2744C100.972 28.555 101.312 28.9059 101.533 29.3269C102.196 28.3445 102.994 27.8534 103.926 27.8534C104.51 27.8534 105.016 28.0249 105.442 28.3679C105.869 28.711 106.09 29.1709 106.106 29.7479C106.106 30.2 105.995 30.5665 105.774 30.8471C105.553 31.1278 105.339 31.2993 105.134 31.3617C104.929 31.4241 104.747 31.4552 104.589 31.4552C104.289 31.4552 104.044 31.3695 103.855 31.198C103.665 31.0264 103.57 30.8004 103.57 30.5197C103.57 29.8024 103.965 29.3113 104.755 29.0462C104.581 28.8435 104.265 28.7421 103.807 28.7421C103.602 28.7421 103.452 28.7577 103.357 28.7889C102.757 29.0384 102.315 29.553 102.031 30.3326C101.083 33.7785 100.609 35.79 100.609 36.3669C100.609 36.8035 100.735 37.1153 100.988 37.3024C101.241 37.4895 101.517 37.5831 101.817 37.5831C102.402 37.5831 102.978 37.3258 103.547 36.8113C104.115 36.2967 104.502 35.6652 104.708 34.9168C104.755 34.7609 104.802 34.6751 104.85 34.6595C104.897 34.6439 105.024 34.6283 105.229 34.6127H105.324C105.561 34.6127 105.679 34.6751 105.679 34.7998C105.679 34.8154 105.663 34.9012 105.632 35.0571C105.379 35.9459 104.889 36.7333 104.163 37.4194C103.436 38.1055 102.591 38.4485 101.628 38.4485C100.522 38.4485 99.685 37.9573 99.1164 36.975C98.4689 37.9417 97.7265 38.4251 96.8894 38.4251H96.7473C95.9733 38.4251 95.4205 38.2224 95.0888 37.817C94.7572 37.4116 94.5834 36.9828 94.5676 36.5306C94.5676 36.0316 94.7177 35.6262 95.0178 35.3144C95.3179 35.0025 95.6732 34.8466 96.0839 34.8466C96.7631 34.8466 97.1026 35.1741 97.1026 35.8289C97.1026 36.1408 97.0079 36.4137 96.8183 36.6475C96.6288 36.8814 96.4472 37.0374 96.2734 37.1153C96.0997 37.1933 95.997 37.2323 95.9654 37.2323L95.8944 37.2557C95.8944 37.2713 95.9417 37.3024 96.0365 37.3492C96.1313 37.396 96.2576 37.4506 96.4156 37.5129C96.5735 37.5753 96.7236 37.5987 96.8657 37.5831C97.4343 37.5831 97.924 37.2323 98.3346 36.5306C98.4768 36.2811 98.6584 35.751 98.8795 34.9402C99.1006 34.1294 99.3218 33.2874 99.5429 32.4142C99.764 31.541 99.8904 31.0264 99.922 30.8705C100.001 30.4495 100.04 30.1455 100.04 29.9584C100.04 29.5218 99.922 29.2099 99.685 29.0228C99.4481 28.8357 99.1796 28.7421 98.8795 28.7421C98.2477 28.7421 97.6555 28.9916 97.1026 29.4906C96.5498 29.9895 96.1629 30.6288 95.9417 31.4085C95.9102 31.5488 95.8707 31.6268 95.8233 31.6423C95.7759 31.6579 95.6496 31.6735 95.4442 31.6891H95.1125C95.0178 31.5956 94.9704 31.5098 94.9704 31.4318Z" fill="black"/>
<path d="M113.7 16.0185C113.747 15.9874 118.525 15.9718 128.033 15.9718H142.295L143.67 19.1292C144.601 21.281 145.099 22.4193 145.162 22.544H144.214L144.049 22.2166C143.717 21.5773 143.275 20.9692 142.722 20.3922C141.932 19.6438 141.056 19.0435 140.092 18.5913C139.129 18.1391 138.015 17.8039 136.752 17.5856C135.488 17.3673 134.296 17.2348 133.174 17.188C132.053 17.1412 130.608 17.11 128.839 17.0944H125.877H125.143H118.225L118.414 17.3517C125.727 27.2218 129.399 32.2036 129.431 32.2971C129.447 32.3283 129.447 32.3751 129.431 32.4375C129.383 32.4842 127.299 34.8387 123.176 39.5009L116.922 46.5175C116.922 46.5331 118.588 46.5409 121.921 46.5409C122.742 46.5409 123.855 46.5409 125.261 46.5409C126.667 46.5409 127.678 46.5487 128.294 46.5643C130.442 46.5643 132.179 46.5253 133.506 46.4474C134.833 46.3694 136.151 46.2057 137.462 45.9562C138.773 45.7067 139.887 45.3247 140.803 44.8101C141.719 44.2956 142.532 43.6173 143.243 42.7753C143.575 42.3699 143.899 41.8086 144.214 41.0913H145.162C145.162 41.1069 145.107 41.2706 144.996 41.5825C144.886 41.8943 144.688 42.4011 144.404 43.1028C144.12 43.8044 143.875 44.4593 143.67 45.0674L142.295 48.6927L128.057 48.7161C118.548 48.7161 113.771 48.7005 113.723 48.6693C113.628 48.6381 113.581 48.5679 113.581 48.4588C113.581 48.4276 113.597 48.3808 113.628 48.3185L126.256 34.0513C126.256 34.0357 125.996 33.6849 125.474 32.9988C124.953 32.3127 124.124 31.1901 122.987 29.6308C121.849 28.0716 120.823 26.6838 119.907 25.4676L113.605 16.9307L113.581 16.5799C113.581 16.2524 113.621 16.0653 113.7 16.0185Z" fill="black"/>
<path d="M114.003 58.8902C114.014 58.824 114.031 58.7358 114.053 58.6256C114.075 58.5154 114.142 58.3059 114.254 57.9972C114.366 57.6886 114.477 57.4295 114.589 57.2201C114.701 57.0106 114.885 56.8067 115.142 56.6082C115.399 56.4098 115.655 56.3161 115.912 56.3271C116.314 56.3271 116.649 56.4263 116.917 56.6248C117.185 56.8232 117.353 57.0106 117.42 57.187C117.487 57.3634 117.52 57.4791 117.52 57.5342C117.52 57.5563 117.526 57.5673 117.537 57.5673L117.721 57.3854C118.402 56.6799 119.178 56.3271 120.049 56.3271C120.652 56.3271 121.138 56.4759 121.507 56.7736C121.875 57.0712 122.065 57.5067 122.076 58.0799C122.087 58.6532 121.875 59.5185 121.44 60.6761C121.004 61.8336 120.792 62.5336 120.803 62.7761C120.803 63.0627 120.898 63.206 121.088 63.206C121.155 63.206 121.205 63.2005 121.239 63.1895C121.563 63.1344 121.853 62.9249 122.11 62.5611C122.367 62.1974 122.562 61.7564 122.696 61.2383C122.718 61.1501 122.83 61.106 123.031 61.106C123.254 61.106 123.366 61.1501 123.366 61.2383C123.366 61.2493 123.344 61.332 123.299 61.4863C123.21 61.806 123.087 62.1202 122.93 62.4289C122.774 62.7375 122.517 63.0462 122.16 63.3549C121.803 63.6635 121.417 63.8124 121.004 63.8013C120.479 63.8013 120.1 63.6525 119.865 63.3549C119.631 63.0572 119.513 62.7486 119.513 62.4289C119.513 62.2194 119.714 61.558 120.116 60.4446C120.518 59.3311 120.725 58.4933 120.736 57.9311C120.736 57.2807 120.491 56.9555 119.999 56.9555H119.915C118.955 56.9555 118.146 57.5122 117.487 58.6256L117.369 58.824L116.817 61.0398C116.448 62.484 116.236 63.2612 116.18 63.3714C116.035 63.669 115.795 63.8179 115.46 63.8179C115.315 63.8179 115.198 63.7848 115.108 63.7187C115.019 63.6525 114.957 63.5864 114.924 63.5202C114.89 63.4541 114.879 63.399 114.89 63.3549C114.89 63.2116 115.103 62.3131 115.527 60.6595C115.951 59.0059 116.175 58.1075 116.197 57.9642C116.208 57.9091 116.214 57.7823 116.214 57.5838C116.214 57.1539 116.08 56.9389 115.812 56.9389C115.387 56.9389 115.036 57.4901 114.756 58.5925C114.689 58.813 114.656 58.9288 114.656 58.9398C114.634 59.0059 114.528 59.039 114.338 59.039H114.103C114.036 58.9729 114.003 58.9233 114.003 58.8902Z" fill="black"/>
<path d="M124.639 57.8986C124.639 57.7553 124.717 57.645 124.873 57.5679H135.543C135.711 57.6561 135.794 57.7663 135.794 57.8986C135.794 58.0198 135.716 58.1246 135.56 58.2128L130.233 58.2293H124.907C124.728 58.1742 124.639 58.0639 124.639 57.8986ZM124.639 61.1065C124.639 60.9412 124.728 60.8309 124.907 60.7758H135.56C135.716 60.8861 135.794 60.9963 135.794 61.1065C135.794 61.2498 135.711 61.3601 135.543 61.4373H124.873C124.717 61.3601 124.639 61.2498 124.639 61.1065Z" fill="black"/>
<path d="M138.341 53.963C138.966 53.07 139.82 52.6236 140.904 52.6236C141.44 52.6236 141.976 52.7669 142.512 53.0535C143.048 53.3401 143.483 53.8472 143.818 54.5748C144.231 55.4898 144.438 56.7465 144.438 58.345C144.438 60.0537 144.198 61.36 143.718 62.264C143.494 62.727 143.187 63.0963 142.796 63.3719C142.405 63.6475 142.065 63.8183 141.775 63.8845C141.484 63.9506 141.199 63.9892 140.92 64.0002C140.63 64.0002 140.34 63.9672 140.049 63.901C139.759 63.8349 139.418 63.6585 139.027 63.3719C138.637 63.0853 138.33 62.716 138.106 62.264C137.626 61.36 137.386 60.0537 137.386 58.345C137.386 56.4268 137.704 54.9661 138.341 53.963ZM142.11 53.7645C141.775 53.4118 141.378 53.2354 140.92 53.2354C140.451 53.2354 140.049 53.4118 139.714 53.7645C139.435 54.0512 139.251 54.448 139.161 54.9551C139.072 55.4622 139.027 56.5205 139.027 58.13C139.027 59.8718 139.072 61.0183 139.161 61.5695C139.251 62.1207 139.452 62.5561 139.764 62.8758C140.077 63.2065 140.462 63.3719 140.92 63.3719C141.367 63.3719 141.747 63.2065 142.059 62.8758C142.383 62.5451 142.584 62.0821 142.662 61.4868C142.74 60.8915 142.785 59.7726 142.796 58.13C142.796 56.5315 142.752 55.4788 142.662 54.9717C142.573 54.4646 142.389 54.0622 142.11 53.7645Z" fill="black"/>
<path d="M115.159 0.760838C115.125 0.760838 115.081 0.760838 115.025 0.760838C114.746 0.760838 114.578 0.755325 114.522 0.744302C114.466 0.733277 114.439 0.672647 114.439 0.562407C114.439 0.264761 114.5 0.0828667 114.623 0.0167227C114.645 0.00569916 115.187 0.00018692 116.248 0.00018692C117.107 0.00018692 117.599 0.00018692 117.722 0.00018692C117.844 0.00018692 117.923 0.0332594 117.956 0.0994024C120.312 5.56726 121.513 8.37285 121.557 8.51616L122.462 4.99402C123.054 2.66797 123.35 1.42778 123.35 1.27345C123.35 0.975803 122.992 0.804934 122.278 0.760838C122.01 0.760838 121.876 0.700206 121.876 0.578943C121.876 0.556895 121.887 0.490751 121.909 0.380512C121.954 0.204129 121.987 0.0994024 122.01 0.0663309C122.032 0.0332594 122.088 0.0112114 122.177 0.00018692C122.211 0.00018692 122.384 0.00569916 122.696 0.0167227C123.009 0.0277472 123.472 0.0387707 124.087 0.0497952C124.645 0.0497952 125.069 0.0442829 125.36 0.0332594C125.65 0.0222349 125.817 0.0167227 125.862 0.0167227C126.03 0.0167227 126.113 0.0718422 126.113 0.182082C126.113 0.424608 126.069 0.589967 125.979 0.678158C125.957 0.733277 125.834 0.760838 125.611 0.760838C124.818 0.804934 124.321 1.02541 124.12 1.42227L121.624 11.1784C121.602 11.2556 121.485 11.2942 121.273 11.2942C121.116 11.2942 121.021 11.2832 120.988 11.2611C120.954 11.228 120.234 9.55792 118.827 6.25075L116.7 1.30652L115.611 5.60585C114.885 8.42797 114.522 9.88864 114.522 9.98786C114.578 10.3516 114.98 10.5335 115.728 10.5335H115.896C115.963 10.5887 115.996 10.6328 115.996 10.6658C115.996 10.6989 115.985 10.8036 115.963 10.98C115.918 11.1233 115.862 11.228 115.795 11.2942H115.578C115.231 11.2721 114.628 11.2611 113.769 11.2611C113.456 11.2611 113.171 11.2611 112.914 11.2611C112.657 11.2611 112.451 11.2611 112.295 11.2611C112.138 11.2611 112.043 11.2666 112.01 11.2777C111.842 11.2777 111.759 11.228 111.759 11.1288C111.759 11.0847 111.775 10.9965 111.809 10.8643C111.842 10.732 111.87 10.6548 111.893 10.6328C111.915 10.5666 112.043 10.5335 112.278 10.5335C113.037 10.5005 113.528 10.2855 113.752 9.88864C113.796 9.8225 114.193 8.29568 114.941 5.3082L116.08 0.810445C116.058 0.799421 115.751 0.782886 115.159 0.760838Z" fill="black"/>
<path d="M127.521 7.37497C127.521 7.37497 127.521 7.30332 127.521 7.16001C127.521 7.01669 127.599 6.90646 127.755 6.82929H137.487C137.654 6.91748 137.738 7.02772 137.738 7.16001C137.738 7.29229 137.654 7.40253 137.487 7.49072H127.755C127.599 7.41356 127.521 7.30332 127.521 7.16001V7.37497Z" fill="black"/>
<path d="M142.713 1.73645L142.496 1.81913C142.339 1.87425 142.116 1.92937 141.826 1.98449C141.535 2.03961 141.211 2.07819 140.854 2.10024H140.536V1.33959H140.854C141.379 1.31754 141.865 1.23486 142.311 1.09155C142.758 0.948241 143.071 0.815954 143.249 0.694692C143.428 0.573428 143.584 0.452166 143.718 0.330902C143.741 0.297831 143.808 0.281295 143.919 0.281295C144.02 0.281295 144.115 0.314366 144.204 0.38051V5.32474L144.221 10.2855C144.299 10.3627 144.366 10.4123 144.422 10.4343C144.478 10.4564 144.612 10.4784 144.824 10.5005C145.036 10.5225 145.382 10.5335 145.862 10.5335H146.298V11.2942H146.114C145.879 11.2611 144.991 11.2446 143.45 11.2446C141.932 11.2446 141.055 11.2611 140.821 11.2942H140.62V10.5335H141.055C141.301 10.5335 141.513 10.5335 141.692 10.5335C141.87 10.5335 142.01 10.528 142.11 10.517C142.211 10.506 142.3 10.4894 142.378 10.4674C142.457 10.4453 142.501 10.4343 142.512 10.4343C142.524 10.4343 142.557 10.4068 142.613 10.3516C142.669 10.2965 142.702 10.2745 142.713 10.2855V1.73645Z" fill="black"/>
<path d="M161.732 8.86189L161.424 8.97884C161.202 9.0568 160.887 9.13476 160.476 9.21273C160.065 9.29069 159.607 9.34526 159.102 9.37645H158.652V8.30056H159.102C159.844 8.26938 160.531 8.15243 161.163 7.94973C161.795 7.74703 162.237 7.55992 162.49 7.3884C162.742 7.21688 162.964 7.04536 163.153 6.87385C163.185 6.82707 163.279 6.80368 163.437 6.80368C163.579 6.80368 163.714 6.85046 163.84 6.94401V13.9373L163.864 20.9539C163.974 21.063 164.069 21.1332 164.148 21.1644C164.227 21.1956 164.417 21.2268 164.717 21.258C165.017 21.2891 165.506 21.3047 166.186 21.3047H166.802V22.3806H166.541C166.209 22.3338 164.954 22.3104 162.774 22.3104C160.626 22.3104 159.386 22.3338 159.054 22.3806H158.77V21.3047H159.386C159.734 21.3047 160.034 21.3047 160.286 21.3047C160.539 21.3047 160.736 21.2969 160.879 21.2813C161.021 21.2657 161.147 21.2424 161.258 21.2112C161.368 21.18 161.431 21.1644 161.447 21.1644C161.463 21.1644 161.51 21.1254 161.589 21.0475C161.668 20.9695 161.716 20.9383 161.732 20.9539V8.86189Z" fill="black"/>
<path d="M159.268 44.2016C158.841 44.2016 158.502 44.0612 158.249 43.7806C157.996 43.4999 157.87 43.1569 157.87 42.7515C157.87 41.6444 158.289 40.6854 159.126 39.8746C159.963 39.0638 161.005 38.6584 162.253 38.6584C163.69 38.6584 164.891 39.095 165.854 39.9682C166.818 40.8414 167.307 41.9718 167.323 43.3596C167.323 44.03 167.165 44.6693 166.849 45.2774C166.533 45.8856 166.154 46.4157 165.712 46.8679C165.27 47.3201 164.638 47.897 163.817 48.5987C163.248 49.082 162.458 49.7993 161.448 50.7504L160.05 52.0602L161.85 52.0836C164.33 52.0836 165.649 52.0446 165.807 51.9666C165.917 51.9355 166.107 51.2416 166.375 49.885V49.8149H167.323V49.885C167.307 49.9318 167.205 50.6413 167.015 52.0134C166.826 53.3856 166.707 54.1028 166.66 54.1652V54.2354H157.87V53.791V53.5103C157.87 53.4012 157.918 53.2842 158.012 53.1595C158.107 53.0347 158.344 52.7619 158.723 52.3409C159.181 51.8419 159.576 51.4053 159.908 51.0311C160.05 50.8752 160.318 50.5867 160.713 50.1657C161.108 49.7447 161.376 49.4562 161.519 49.3003C161.661 49.1444 161.89 48.8871 162.206 48.5285C162.522 48.1699 162.743 47.9048 162.869 47.7333C162.995 47.5617 163.177 47.3279 163.414 47.0316C163.651 46.7353 163.817 46.4859 163.912 46.2832C164.006 46.0805 164.125 45.8544 164.267 45.6049C164.409 45.3554 164.512 45.1059 164.575 44.8564C164.638 44.607 164.693 44.3731 164.741 44.1548C164.788 43.9365 164.812 43.6792 164.812 43.383C164.812 42.4006 164.543 41.5508 164.006 40.8336C163.469 40.1163 162.703 39.7577 161.708 39.7577C161.187 39.7577 160.729 39.8902 160.334 40.1553C159.939 40.4204 159.663 40.6776 159.505 40.9271C159.347 41.1766 159.268 41.3247 159.268 41.3715C159.268 41.3871 159.307 41.3949 159.386 41.3949C159.671 41.3949 159.963 41.5041 160.263 41.7223C160.563 41.9406 160.713 42.2993 160.713 42.7982C160.713 43.188 160.587 43.5155 160.334 43.7806C160.081 44.0456 159.726 44.186 159.268 44.2016Z" fill="black"/>
<path d="M170.9 33.0454H154.316V31.6421H170.9V33.0454Z" fill="black"/>
<path d="M175.97 32.3444C175.97 31.2685 176.049 30.2472 176.207 29.2805C176.365 28.3138 176.547 27.4796 176.752 26.7779C176.958 26.0762 177.25 25.3902 177.629 24.7197C178.008 24.0492 178.308 23.5269 178.529 23.1526C178.75 22.7784 179.082 22.373 179.524 21.9364C179.966 21.4998 180.227 21.2348 180.306 21.1412C180.385 21.0476 180.582 20.8839 180.898 20.65H181.206H181.301C181.522 20.65 181.633 20.7202 181.633 20.8605C181.633 20.9073 181.499 21.071 181.23 21.3517C180.962 21.6324 180.638 22.0456 180.259 22.5913C179.88 23.137 179.493 23.8075 179.098 24.6027C178.703 25.398 178.371 26.4738 178.103 27.8304C177.834 29.1869 177.7 30.6916 177.7 32.3444C177.7 33.9972 177.834 35.4941 178.103 36.8351C178.371 38.176 178.695 39.2597 179.074 40.0861C179.453 40.9125 179.84 41.583 180.235 42.0975C180.63 42.6121 180.962 43.0253 181.23 43.3372C181.499 43.649 181.633 43.8127 181.633 43.8283C181.633 43.9687 181.514 44.0388 181.277 44.0388H181.206H180.898L180.235 43.4775C178.75 42.1521 177.668 40.4993 176.989 38.5191C176.31 36.5388 175.97 34.4806 175.97 32.3444Z" fill="black"/>
<path d="M185.755 41.9809C185.787 41.9809 185.834 41.9964 185.897 42.0276C185.96 42.0588 186.047 42.0822 186.158 42.0978C186.268 42.1134 186.363 42.1212 186.442 42.1212C186.647 42.1212 186.837 42.0198 187.011 41.8171C187.184 41.6144 187.311 41.3883 187.39 41.1389C187.548 40.7179 187.816 39.525 188.195 37.5604C188.574 35.5957 188.938 33.7246 189.285 31.9471C189.633 30.1695 189.806 29.2729 189.806 29.2574V29.1872H188.693C187.95 29.1872 187.556 29.1716 187.508 29.1404C187.445 29.0936 187.413 29.0157 187.413 28.9065L187.579 28.2516C187.611 28.1737 187.674 28.1347 187.769 28.1347C187.864 28.1347 188.235 28.1269 188.882 28.1113C189.64 28.1113 190.02 28.1035 190.02 28.0879C190.02 28.0567 190.091 27.6669 190.233 26.9185C190.375 26.17 190.47 25.7178 190.517 25.5619C191.101 22.9892 192.254 21.7028 193.976 21.7028C194.56 21.734 195.042 21.9055 195.421 22.2173C195.8 22.5292 195.99 22.9424 195.99 23.4569C195.99 24.0183 195.824 24.4237 195.492 24.6731C195.161 24.9226 194.829 25.0552 194.497 25.0708C193.802 25.0708 193.455 24.7433 193.455 24.0884C193.455 23.7922 193.542 23.5349 193.715 23.3166C193.889 23.0983 194.079 22.9346 194.284 22.8254L194.497 22.7085C194.245 22.6149 194.008 22.5682 193.787 22.5682C193.597 22.5682 193.415 22.6461 193.242 22.802C193.068 22.958 192.949 23.1763 192.886 23.4569C192.776 23.9091 192.649 24.5172 192.507 25.2813C192.365 26.0453 192.239 26.6924 192.128 27.2225C192.018 27.7527 191.962 28.0333 191.962 28.0645C191.962 28.0957 192.397 28.1113 193.265 28.1113C193.976 28.1113 194.387 28.1191 194.497 28.1347C194.608 28.1503 194.695 28.1971 194.758 28.275C194.774 28.3374 194.758 28.4699 194.711 28.6726C194.663 28.8753 194.624 29.0001 194.592 29.0469C194.56 29.1248 194.489 29.1638 194.379 29.1638C194.268 29.1638 193.842 29.1716 193.099 29.1872H191.773L191.228 32.0406C190.47 35.9076 189.941 38.3244 189.64 39.2911C189.214 40.6165 188.661 41.5988 187.982 42.2381C187.398 42.7371 186.821 42.9866 186.253 42.9866C185.747 42.9866 185.289 42.8384 184.878 42.5422C184.468 42.2459 184.262 41.8249 184.262 41.2792C184.262 40.7023 184.428 40.2813 184.76 40.0162C185.092 39.7511 185.423 39.6186 185.755 39.6186C186.45 39.6186 186.797 39.946 186.797 40.6009C186.797 40.8972 186.711 41.1545 186.537 41.3727C186.363 41.591 186.174 41.7548 185.968 41.8639L185.755 41.9809Z" fill="black"/>
<path d="M194.92 36.9539C194.931 36.8878 194.948 36.7996 194.97 36.6893C194.993 36.5791 195.06 36.3696 195.171 36.061C195.283 35.7523 195.395 35.4932 195.506 35.2838C195.618 35.0743 195.802 34.8704 196.059 34.672C196.316 34.4735 196.573 34.3798 196.83 34.3908C197.232 34.3908 197.567 34.4901 197.835 34.6885C198.103 34.8869 198.27 35.0743 198.337 35.2507C198.404 35.4271 198.438 35.5428 198.438 35.598C198.438 35.62 198.443 35.631 198.454 35.631L198.639 35.4491C199.32 34.7436 200.096 34.3908 200.967 34.3908C201.57 34.3908 202.056 34.5397 202.424 34.8373C202.793 35.135 202.983 35.5704 202.994 36.1436C203.005 36.7169 202.793 37.5823 202.357 38.7398C201.922 39.8973 201.71 40.5973 201.721 40.8398C201.721 41.1265 201.816 41.2698 202.005 41.2698C202.072 41.2698 202.123 41.2643 202.156 41.2532C202.48 41.1981 202.77 40.9887 203.027 40.6249C203.284 40.2611 203.479 39.8201 203.613 39.302C203.636 39.2138 203.747 39.1697 203.948 39.1697C204.172 39.1697 204.283 39.2138 204.283 39.302C204.283 39.313 204.261 39.3957 204.216 39.55C204.127 39.8697 204.004 40.1839 203.848 40.4926C203.692 40.8012 203.435 41.1099 203.077 41.4186C202.72 41.7273 202.335 41.8761 201.922 41.8651C201.397 41.8651 201.017 41.7162 200.783 41.4186C200.548 41.1209 200.431 40.8123 200.431 40.4926C200.431 40.2831 200.632 39.6217 201.034 38.5083C201.436 37.3949 201.643 36.557 201.654 35.9948C201.654 35.3444 201.408 35.0192 200.917 35.0192H200.833C199.873 35.0192 199.063 35.5759 198.404 36.6893L198.287 36.8878L197.734 39.1036C197.366 40.5477 197.154 41.3249 197.098 41.4351C196.953 41.7328 196.712 41.8816 196.377 41.8816C196.232 41.8816 196.115 41.8485 196.026 41.7824C195.936 41.7162 195.875 41.6501 195.841 41.5839C195.808 41.5178 195.797 41.4627 195.808 41.4186C195.808 41.2753 196.02 40.3768 196.444 38.7232C196.869 37.0697 197.092 36.1712 197.114 36.0279C197.126 35.9728 197.131 35.846 197.131 35.6476C197.131 35.2176 196.997 35.0027 196.729 35.0027C196.305 35.0027 195.953 35.5539 195.674 36.6563C195.607 36.8767 195.573 36.9925 195.573 37.0035C195.551 37.0697 195.445 37.1027 195.255 37.1027H195.021C194.954 37.0366 194.92 36.987 194.92 36.9539Z" fill="black"/>
<path d="M212.397 32.6488C212.397 32.6488 212.397 32.5475 212.397 32.3448C212.397 32.1421 212.508 31.9862 212.729 31.877H219.812V28.3687L219.836 24.8604C219.994 24.6577 220.144 24.5563 220.286 24.5563C220.492 24.5563 220.65 24.6733 220.76 24.9071V31.877H227.82C228.057 32.0017 228.176 32.1577 228.176 32.3448C228.176 32.5319 228.057 32.6878 227.82 32.8126H220.76V39.7824C220.634 40.0007 220.492 40.1099 220.334 40.1099H220.286H220.239C220.049 40.1099 219.907 40.0007 219.812 39.7824V32.8126H212.729C212.508 32.7034 212.397 32.5475 212.397 32.3448V32.6488Z" fill="black"/>
<path d="M237.565 41.9809C237.597 41.9809 237.644 41.9964 237.707 42.0276C237.77 42.0588 237.857 42.0822 237.968 42.0978C238.078 42.1134 238.173 42.1212 238.252 42.1212C238.457 42.1212 238.647 42.0198 238.821 41.8171C238.994 41.6144 239.121 41.3883 239.2 41.1389C239.358 40.7179 239.626 39.525 240.005 37.5604C240.384 35.5957 240.748 33.7246 241.095 31.9471C241.443 30.1695 241.616 29.2729 241.616 29.2574V29.1872H240.503C239.761 29.1872 239.366 29.1716 239.318 29.1404C239.255 29.0936 239.224 29.0157 239.224 28.9065L239.389 28.2516C239.421 28.1737 239.484 28.1347 239.579 28.1347C239.674 28.1347 240.045 28.1269 240.692 28.1113C241.451 28.1113 241.83 28.1035 241.83 28.0879C241.83 28.0567 241.901 27.6669 242.043 26.9185C242.185 26.17 242.28 25.7178 242.327 25.5619C242.912 22.9892 244.065 21.7028 245.786 21.7028C246.371 21.734 246.852 21.9055 247.231 22.2173C247.61 22.5292 247.8 22.9424 247.8 23.4569C247.8 24.0183 247.634 24.4237 247.302 24.6731C246.971 24.9226 246.639 25.0552 246.307 25.0708C245.612 25.0708 245.265 24.7433 245.265 24.0884C245.265 23.7922 245.352 23.5349 245.526 23.3166C245.699 23.0983 245.889 22.9346 246.094 22.8254L246.307 22.7085C246.055 22.6149 245.818 22.5682 245.597 22.5682C245.407 22.5682 245.225 22.6461 245.052 22.802C244.878 22.958 244.759 23.1763 244.696 23.4569C244.586 23.9091 244.459 24.5172 244.317 25.2813C244.175 26.0453 244.049 26.6924 243.938 27.2225C243.828 27.7527 243.772 28.0333 243.772 28.0645C243.772 28.0957 244.207 28.1113 245.075 28.1113C245.786 28.1113 246.197 28.1191 246.307 28.1347C246.418 28.1503 246.505 28.1971 246.568 28.275C246.584 28.3374 246.568 28.4699 246.521 28.6726C246.473 28.8753 246.434 29.0001 246.402 29.0469C246.371 29.1248 246.299 29.1638 246.189 29.1638C246.078 29.1638 245.652 29.1716 244.91 29.1872H243.583L243.038 32.0406C242.28 35.9076 241.751 38.3244 241.451 39.2911C241.024 40.6165 240.471 41.5988 239.792 42.2381C239.208 42.7371 238.631 42.9866 238.063 42.9866C237.557 42.9866 237.099 42.8384 236.688 42.5422C236.278 42.2459 236.073 41.8249 236.073 41.2792C236.073 40.7023 236.238 40.2813 236.57 40.0162C236.902 39.7511 237.233 39.6186 237.565 39.6186C238.26 39.6186 238.608 39.946 238.608 40.6009C238.608 40.8972 238.521 41.1545 238.347 41.3727C238.173 41.591 237.984 41.7548 237.778 41.8639L237.565 41.9809Z" fill="black"/>
<path d="M246.73 36.9541C246.741 36.888 246.758 36.7998 246.78 36.6896C246.802 36.5793 246.869 36.3699 246.981 36.0612C247.093 35.7525 247.204 35.4935 247.316 35.284C247.428 35.0746 247.612 34.8706 247.869 34.6722C248.126 34.4738 248.382 34.3801 248.639 34.3911C249.041 34.3911 249.376 34.4903 249.644 34.6887C249.912 34.8872 250.08 35.0746 250.147 35.251C250.214 35.4273 250.247 35.5431 250.247 35.5982C250.247 35.6203 250.253 35.6313 250.264 35.6313L250.448 35.4494C251.129 34.7439 251.906 34.3911 252.777 34.3911C253.38 34.3911 253.865 34.5399 254.234 34.8376C254.602 35.1352 254.792 35.5706 254.803 36.1439C254.814 36.7171 254.602 37.5825 254.167 38.74C253.731 39.8975 253.519 40.5975 253.53 40.8401C253.53 41.1267 253.625 41.27 253.815 41.27C253.882 41.27 253.932 41.2645 253.966 41.2535C254.29 41.1984 254.58 40.9889 254.837 40.6251C255.094 40.2613 255.289 39.8204 255.423 39.3022C255.445 39.214 255.557 39.17 255.758 39.17C255.981 39.17 256.093 39.214 256.093 39.3022C256.093 39.3133 256.071 39.3959 256.026 39.5503C255.937 39.87 255.814 40.1842 255.658 40.4928C255.501 40.8015 255.244 41.1102 254.887 41.4188C254.53 41.7275 254.144 41.8763 253.731 41.8653C253.206 41.8653 252.827 41.7165 252.592 41.4188C252.358 41.1212 252.241 40.8125 252.241 40.4928C252.241 40.2834 252.442 39.6219 252.844 38.5085C253.246 37.3951 253.452 36.5573 253.463 35.9951C253.463 35.3447 253.218 35.0194 252.726 35.0194H252.643C251.682 35.0194 250.873 35.5762 250.214 36.6896L250.097 36.888L249.544 39.1038C249.175 40.5479 248.963 41.3251 248.907 41.4354C248.762 41.733 248.522 41.8818 248.187 41.8818C248.042 41.8818 247.925 41.8488 247.835 41.7826C247.746 41.7165 247.684 41.6503 247.651 41.5842C247.617 41.518 247.606 41.4629 247.617 41.4188C247.617 41.2755 247.83 40.3771 248.254 38.7235C248.678 37.0699 248.902 36.1714 248.924 36.0281C248.935 35.973 248.941 35.8462 248.941 35.6478C248.941 35.2179 248.807 35.0029 248.539 35.0029C248.114 35.0029 247.763 35.5541 247.483 36.6565C247.416 36.877 247.383 36.9927 247.383 37.0038C247.361 37.0699 247.255 37.103 247.065 37.103H246.83C246.763 37.0368 246.73 36.9872 246.73 36.9541Z" fill="black"/>
<path d="M257.366 37.7815C257.366 37.7815 257.366 37.7098 257.366 37.5665C257.366 37.4232 257.444 37.3129 257.6 37.2358H262.609V34.7554L262.625 32.275C262.737 32.1317 262.843 32.06 262.944 32.06C263.089 32.06 263.201 32.1427 263.279 32.3081V37.2358H268.27C268.438 37.324 268.522 37.4342 268.522 37.5665C268.522 37.6988 268.438 37.809 268.27 37.8972H263.279V42.8249C263.189 42.9792 263.089 43.0564 262.977 43.0564H262.944H262.91C262.776 43.0564 262.676 42.9792 262.609 42.8249V37.8972H257.6C257.444 37.82 257.366 37.7098 257.366 37.5665V37.7815Z" fill="black"/>
<path d="M273.027 32.1437L272.81 32.2264C272.653 32.2815 272.43 32.3366 272.14 32.3917C271.849 32.4468 271.525 32.4854 271.168 32.5075H270.85V31.7468H271.168C271.693 31.7248 272.179 31.6421 272.625 31.4988C273.072 31.3555 273.385 31.2232 273.563 31.1019C273.742 30.9807 273.898 30.8594 274.032 30.7381C274.055 30.7051 274.122 30.6885 274.233 30.6885C274.334 30.6885 274.429 30.7216 274.518 30.7877V35.732L274.535 40.6927C274.613 40.7699 274.68 40.8195 274.736 40.8416C274.792 40.8636 274.926 40.8856 275.138 40.9077C275.35 40.9297 275.696 40.9408 276.176 40.9408H276.612V41.7014H276.428C276.193 41.6683 275.305 41.6518 273.764 41.6518C272.246 41.6518 271.369 41.6683 271.135 41.7014H270.934V40.9408H271.369C271.615 40.9408 271.827 40.9408 272.006 40.9408C272.184 40.9408 272.324 40.9353 272.424 40.9242C272.525 40.9132 272.614 40.8967 272.692 40.8746C272.771 40.8526 272.815 40.8416 272.826 40.8416C272.838 40.8416 272.871 40.814 272.927 40.7589C272.983 40.7038 273.016 40.6817 273.027 40.6927V32.1437Z" fill="black"/>
<path d="M280.444 20.6734L280.539 20.65C280.618 20.65 280.697 20.65 280.776 20.65H281.06L281.723 21.2114C283.208 22.5367 284.29 24.1895 284.969 26.1698C285.648 28.15 285.988 30.2082 285.988 32.3444C285.988 33.4047 285.909 34.426 285.751 35.4084C285.593 36.3907 285.411 37.2249 285.206 37.911C285.001 38.597 284.708 39.2831 284.329 39.9692C283.95 40.6552 283.65 41.1776 283.429 41.5362C283.208 41.8948 282.884 42.2925 282.458 42.729C282.031 43.1656 281.779 43.4229 281.7 43.5009C281.621 43.5788 281.439 43.727 281.155 43.9453C281.107 43.992 281.076 44.0232 281.06 44.0388H280.776C280.649 44.0388 280.562 44.0388 280.515 44.0388C280.468 44.0388 280.428 44.0154 280.397 43.9687C280.365 43.9219 280.341 43.8517 280.325 43.7582C280.341 43.7426 280.428 43.6412 280.586 43.4541C283.034 40.9437 284.258 37.2405 284.258 32.3444C284.258 27.4484 283.034 23.7451 280.586 21.2348C280.428 21.0476 280.341 20.9463 280.325 20.9307C280.325 20.806 280.365 20.7202 280.444 20.6734Z" fill="black"/>
<path d="M290.466 32.3444C290.466 31.2685 290.545 30.2472 290.703 29.2805C290.861 28.3138 291.043 27.4796 291.248 26.7779C291.453 26.0762 291.746 25.3902 292.125 24.7197C292.504 24.0492 292.804 23.5269 293.025 23.1526C293.246 22.7784 293.578 22.373 294.02 21.9364C294.462 21.4998 294.723 21.2348 294.802 21.1412C294.881 21.0476 295.078 20.8839 295.394 20.65H295.702H295.797C296.018 20.65 296.129 20.7202 296.129 20.8605C296.129 20.9073 295.994 21.071 295.726 21.3517C295.457 21.6324 295.134 22.0456 294.755 22.5913C294.375 23.137 293.988 23.8075 293.594 24.6027C293.199 25.398 292.867 26.4738 292.599 27.8304C292.33 29.1869 292.196 30.6916 292.196 32.3444C292.196 33.9972 292.33 35.4941 292.599 36.8351C292.867 38.176 293.191 39.2597 293.57 40.0861C293.949 40.9125 294.336 41.583 294.731 42.0975C295.126 42.6121 295.457 43.0253 295.726 43.3372C295.994 43.649 296.129 43.8127 296.129 43.8283C296.129 43.9687 296.01 44.0388 295.773 44.0388H295.702H295.394L294.731 43.4775C293.246 42.1521 292.164 40.4993 291.485 38.5191C290.806 36.5388 290.466 34.4806 290.466 32.3444Z" fill="black"/>
<path d="M299.232 38.1909L299.161 38.1441C299.113 38.1285 299.074 38.1052 299.042 38.074C299.01 38.0428 298.971 37.996 298.924 37.9336C298.876 37.8713 298.853 37.8011 298.853 37.7231C298.853 37.6608 298.876 37.5828 298.924 37.4893C298.971 37.3801 300.416 34.7294 303.259 29.5371C306.102 24.3448 307.547 21.7174 307.595 21.655C307.595 21.6395 307.611 21.6161 307.642 21.5849C307.674 21.5537 307.721 21.5225 307.784 21.4913C307.848 21.4601 307.911 21.4445 307.974 21.4445C308.084 21.4445 308.171 21.4757 308.234 21.5381C308.298 21.5693 309.79 24.2512 312.712 29.5838L317.071 37.5594V37.7231C317.071 37.9258 316.961 38.0818 316.74 38.1909H299.232ZM311.907 30.075L307.974 22.918C307.958 22.918 306.647 25.3037 304.041 30.075C301.435 34.8463 300.132 37.2398 300.132 37.2554H315.816C315.816 37.2242 314.513 34.8307 311.907 30.075Z" fill="black"/>
<path d="M319.748 31.4318C319.859 30.777 320.285 30.0207 321.028 29.1631C321.77 28.3055 322.686 27.869 323.776 27.8534C324.329 27.8534 324.834 27.9937 325.292 28.2744C325.75 28.555 326.09 28.9059 326.311 29.3269C326.974 28.3445 327.772 27.8534 328.704 27.8534C329.288 27.8534 329.794 28.0249 330.22 28.3679C330.647 28.711 330.868 29.1709 330.884 29.7479C330.884 30.2 330.773 30.5665 330.552 30.8471C330.331 31.1278 330.118 31.2993 329.912 31.3617C329.707 31.4241 329.525 31.4552 329.367 31.4552C329.067 31.4552 328.822 31.3695 328.633 31.198C328.443 31.0264 328.349 30.8004 328.349 30.5197C328.349 29.8024 328.743 29.3113 329.533 29.0462C329.359 28.8435 329.044 28.7421 328.585 28.7421C328.38 28.7421 328.23 28.7577 328.135 28.7889C327.535 29.0384 327.093 29.553 326.809 30.3326C325.861 33.7785 325.387 35.79 325.387 36.3669C325.387 36.8035 325.513 37.1153 325.766 37.3024C326.019 37.4895 326.295 37.5831 326.595 37.5831C327.18 37.5831 327.756 37.3258 328.325 36.8113C328.893 36.2967 329.28 35.6652 329.486 34.9168C329.533 34.7609 329.581 34.6751 329.628 34.6595C329.675 34.6439 329.802 34.6283 330.007 34.6127H330.102C330.339 34.6127 330.457 34.6751 330.457 34.7998C330.457 34.8154 330.441 34.9012 330.41 35.0571C330.157 35.9459 329.667 36.7333 328.941 37.4194C328.214 38.1055 327.369 38.4485 326.406 38.4485C325.3 38.4485 324.463 37.9573 323.895 36.975C323.247 37.9417 322.505 38.4251 321.667 38.4251H321.525C320.751 38.4251 320.199 38.2224 319.867 37.817C319.535 37.4116 319.361 36.9828 319.346 36.5306C319.346 36.0316 319.496 35.6262 319.796 35.3144C320.096 35.0025 320.451 34.8466 320.862 34.8466C321.541 34.8466 321.881 35.1741 321.881 35.8289C321.881 36.1408 321.786 36.4137 321.596 36.6475C321.407 36.8814 321.225 37.0374 321.052 37.1153C320.878 37.1933 320.775 37.2323 320.744 37.2323L320.672 37.2557C320.672 37.2713 320.72 37.3024 320.815 37.3492C320.909 37.396 321.036 37.4506 321.194 37.5129C321.352 37.5753 321.502 37.5987 321.644 37.5831C322.212 37.5831 322.702 37.2323 323.113 36.5306C323.255 36.2811 323.436 35.751 323.658 34.9402C323.879 34.1294 324.1 33.2874 324.321 32.4142C324.542 31.541 324.668 31.0264 324.7 30.8705C324.779 30.4495 324.818 30.1455 324.818 29.9584C324.818 29.5218 324.7 29.2099 324.463 29.0228C324.226 28.8357 323.958 28.7421 323.658 28.7421C323.026 28.7421 322.434 28.9916 321.881 29.4906C321.328 29.9895 320.941 30.6288 320.72 31.4085C320.688 31.5488 320.649 31.6268 320.601 31.6423C320.554 31.6579 320.428 31.6735 320.222 31.6891H319.891C319.796 31.5956 319.748 31.5098 319.748 31.4318Z" fill="black"/>
<path d="M333.49 20.6732L333.585 20.6498C333.664 20.6498 333.743 20.6498 333.822 20.6498H334.106L334.769 21.2111C336.254 22.5365 337.336 24.1893 338.015 26.1695C338.694 28.1498 339.034 30.208 339.034 32.3442C339.034 33.4045 338.955 34.4258 338.797 35.4081C338.639 36.3904 338.457 37.2246 338.252 37.9107C338.047 38.5968 337.755 39.2829 337.375 39.9689C336.996 40.655 336.696 41.1773 336.475 41.536C336.254 41.8946 335.93 42.2922 335.504 42.7288C335.077 43.1654 334.825 43.4227 334.746 43.5006C334.667 43.5786 334.485 43.7267 334.201 43.945C334.153 43.9918 334.122 44.023 334.106 44.0386H333.822C333.695 44.0386 333.608 44.0386 333.561 44.0386C333.514 44.0386 333.474 44.0152 333.443 43.9684C333.411 43.9216 333.387 43.8515 333.372 43.7579C333.387 43.7423 333.474 43.641 333.632 43.4539C336.08 40.9435 337.304 37.2402 337.304 32.3442C337.304 27.4481 336.08 23.7449 333.632 21.2345C333.474 21.0474 333.387 20.946 333.372 20.9305C333.372 20.8057 333.411 20.72 333.49 20.6732Z" fill="black"/>
<path d="M341.637 36.9539C341.648 36.8878 341.665 36.7996 341.687 36.6893C341.709 36.5791 341.776 36.3696 341.888 36.061C342 35.7523 342.111 35.4932 342.223 35.2838C342.335 35.0743 342.519 34.8704 342.776 34.672C343.033 34.4735 343.289 34.3798 343.546 34.3908C343.948 34.3908 344.283 34.4901 344.551 34.6885C344.819 34.8869 344.987 35.0743 345.054 35.2507C345.121 35.4271 345.154 35.5428 345.154 35.598C345.154 35.62 345.16 35.631 345.171 35.631L345.355 35.4491C346.036 34.7436 346.812 34.3908 347.683 34.3908C348.286 34.3908 348.772 34.5397 349.141 34.8373C349.509 35.135 349.699 35.5704 349.71 36.1436C349.721 36.7169 349.509 37.5823 349.074 38.7398C348.638 39.8973 348.426 40.5973 348.437 40.8398C348.437 41.1265 348.532 41.2698 348.722 41.2698C348.789 41.2698 348.839 41.2643 348.873 41.2532C349.197 41.1981 349.487 40.9887 349.744 40.6249C350.001 40.2611 350.196 39.8201 350.33 39.302C350.352 39.2138 350.464 39.1697 350.665 39.1697C350.888 39.1697 351 39.2138 351 39.302C351 39.313 350.978 39.3957 350.933 39.55C350.844 39.8697 350.721 40.1839 350.565 40.4926C350.408 40.8012 350.151 41.1099 349.794 41.4186C349.437 41.7273 349.051 41.8761 348.638 41.8651C348.113 41.8651 347.734 41.7162 347.499 41.4186C347.265 41.1209 347.147 40.8123 347.147 40.4926C347.147 40.2831 347.348 39.6217 347.75 38.5083C348.152 37.3949 348.359 36.557 348.37 35.9948C348.37 35.3444 348.125 35.0192 347.633 35.0192H347.549C346.589 35.0192 345.78 35.5759 345.121 36.6893L345.003 36.8878L344.451 39.1036C344.082 40.5477 343.87 41.3249 343.814 41.4351C343.669 41.7328 343.429 41.8816 343.094 41.8816C342.949 41.8816 342.832 41.8485 342.742 41.7824C342.653 41.7162 342.591 41.6501 342.558 41.5839C342.524 41.5178 342.513 41.4627 342.524 41.4186C342.524 41.2753 342.737 40.3768 343.161 38.7232C343.585 37.0697 343.809 36.1712 343.831 36.0279C343.842 35.9728 343.848 35.846 343.848 35.6476C343.848 35.2176 343.714 35.0027 343.446 35.0027C343.021 35.0027 342.67 35.5539 342.39 36.6563C342.323 36.8767 342.29 36.9925 342.29 37.0035C342.268 37.0697 342.162 37.1027 341.972 37.1027H341.737C341.67 37.0366 341.637 36.987 341.637 36.9539Z" fill="black"/>
</svg>
