<svg width="405" height="179" viewBox="0 0 405 179" fill="none" xmlns="http://www.w3.org/2000/svg">
<path d="M2.60888 75.5139C2.93611 76.0523 3.39968 76.3215 3.9996 76.3215H4.05414C4.56317 76.3215 5.07219 75.7003 5.58121 74.4578C6.09024 73.2152 6.5629 71.5171 6.99921 69.3634C7.43551 67.2096 7.84455 65.0456 8.22632 62.8711C8.60809 60.6967 8.98985 58.3463 9.37162 55.8198C9.42616 55.3849 9.47161 55.0639 9.50797 54.8568C10.8169 46.0555 12.2349 37.8963 13.7619 30.3789C15.289 22.8616 16.398 17.9743 17.0888 15.7171C17.1979 15.3443 17.2888 15.0337 17.3615 14.7852C17.4342 14.5367 17.5887 14.0811 17.825 13.4184C18.0614 12.7557 18.3068 12.1758 18.5613 11.6788C18.8158 11.1818 19.1249 10.6745 19.4885 10.1567C19.8521 9.63901 20.252 9.22483 20.6883 8.9142C21.1246 8.60357 21.5882 8.4586 22.079 8.47932C23.0971 8.47932 23.8606 8.84172 24.3696 9.56653C24.8787 10.2913 25.1695 11.1197 25.2423 12.0516C25.2423 12.5693 25.1332 12.9835 24.915 13.2941C24.6969 13.6048 24.4878 13.8015 24.2878 13.8843C24.0879 13.9672 23.8879 13.9982 23.6879 13.9775C23.3061 13.9775 22.9607 13.8222 22.6517 13.5116C22.3426 13.2009 22.1881 12.7764 22.1881 12.238C22.1881 11.2439 22.6699 10.6537 23.6334 10.4674L23.5516 10.3431C23.497 10.281 23.4243 10.2085 23.3334 10.1257C23.2425 10.0428 23.1698 9.98071 23.1153 9.93929C22.8426 9.7322 22.5426 9.62865 22.2154 9.62865C21.9609 9.62865 21.7245 9.75291 21.5064 10.0014C21.2882 10.2499 20.9974 10.8298 20.6338 11.741C20.2702 12.6522 19.9157 13.8533 19.5703 15.3443C19.2249 16.8353 18.7976 18.9373 18.2886 21.6502C17.7796 24.363 17.2706 27.5522 16.7616 31.2176C15.689 38.1551 14.5709 44.7095 13.4075 50.8807C12.244 57.052 11.335 61.5251 10.6805 64.3001C10.0261 67.075 9.52615 69.0631 9.18074 70.2642C7.78092 75.0894 6.05388 77.502 3.9996 77.502C3.27243 77.502 2.60888 77.181 2.00896 76.539C1.40904 75.897 1.07272 75.0169 1 73.8986C1 73.1738 1.1727 72.6768 1.51811 72.4076C1.86352 72.1384 2.20893 72.0037 2.55434 72.0037C2.93611 72.0037 3.28152 72.1591 3.59057 72.4697C3.89962 72.7803 4.05414 73.2049 4.05414 73.7433C4.05414 74.7373 3.57239 75.3275 2.60888 75.5139Z" fill=""/>
<path d="M30.1304 2.71519C30.1304 2.56877 30.1561 2.4004 30.2075 2.21006C30.2589 2.01973 30.336 1.92456 30.4388 1.92456C30.4517 1.92456 30.9144 1.88796 31.8269 1.81475C32.7395 1.74155 33.2086 1.69762 33.2343 1.68298C33.3886 1.68298 33.4657 1.74887 33.4657 1.88064C33.4657 2.01241 33.2472 3.05925 32.8102 5.02117C32.7074 5.51897 32.5981 6.03141 32.4824 6.55849C32.3668 7.08557 32.2704 7.48088 32.1932 7.74443L32.1161 8.1617C32.1161 8.20562 32.1547 8.18366 32.2318 8.09581C32.8616 7.51017 33.5107 7.21734 34.179 7.21734C34.9759 7.21734 35.6185 7.55409 36.1069 8.22758C36.5953 8.90108 36.846 9.75027 36.8588 10.7751C36.8588 12.4003 36.3511 13.8718 35.3358 15.1895C34.3204 16.5072 33.2279 17.166 32.0583 17.166C31.4156 17.166 30.8308 16.8878 30.3039 16.3315C29.7769 15.7751 29.507 14.8747 29.4941 13.6302V13.4325C29.4941 13.1251 29.5456 12.7005 29.6484 12.1587C29.7512 11.617 30.0661 10.1749 30.5931 7.83227C31.2357 4.94796 31.557 3.41796 31.557 3.24227C31.557 3.06657 31.3128 2.96408 30.8244 2.9348C30.7601 2.9348 30.7087 2.9348 30.6702 2.9348H30.5738C30.4453 2.9348 30.3617 2.9348 30.3231 2.9348C30.2846 2.9348 30.2396 2.91284 30.1882 2.86892C30.1368 2.82499 30.1175 2.77375 30.1304 2.71519ZM35.2008 9.78687V9.6551C35.2008 8.57165 34.8088 8.02993 34.0248 8.02993C33.8063 8.02993 33.5813 8.08849 33.35 8.20562C33.1186 8.32275 32.9066 8.47648 32.7138 8.66682C32.521 8.85715 32.3539 9.03285 32.2125 9.1939C32.0711 9.35495 31.9555 9.51601 31.8655 9.67706L31.7498 9.85275L31.345 11.7415C31.0622 13.0006 30.9208 13.8937 30.9208 14.4208C30.9208 15.1236 31.075 15.6507 31.3835 16.002C31.5892 16.2363 31.8462 16.3534 32.1547 16.3534C32.5788 16.3534 33.0094 16.1192 33.4464 15.6507C33.7677 15.3139 34.0248 14.904 34.2176 14.4208C34.4104 13.9376 34.6224 13.169 34.8538 12.1148C35.0851 11.0606 35.2008 10.2847 35.2008 9.78687Z" fill=""/>
<path d="M15.2969 75.1215C15.2969 73.6427 15.7853 72.2371 16.7621 70.9048C17.7389 69.5724 18.8378 68.899 20.0589 68.8843C20.7144 68.8843 21.2927 69.243 21.794 69.9604C21.9996 69.5212 22.2953 69.3016 22.6808 69.3016C22.8479 69.3016 22.9957 69.3602 23.1243 69.4773C23.2528 69.5944 23.3171 69.7408 23.3171 69.9165C23.3171 70.1069 23.0793 71.2781 22.6037 73.4304C22.1282 75.5826 21.884 76.7979 21.8711 77.076C21.8711 77.4421 21.9161 77.6837 22.0061 77.8008C22.096 77.9179 22.231 77.9838 22.4109 77.9984C22.5266 77.9838 22.6551 77.9179 22.7965 77.8008C23.0664 77.508 23.3299 76.8052 23.587 75.6925C23.6641 75.3996 23.7283 75.2459 23.7798 75.2313C23.8055 75.2166 23.8697 75.2093 23.9725 75.2093H24.0497C24.2939 75.2093 24.416 75.2752 24.416 75.407C24.416 75.4948 24.3838 75.6925 24.3196 75.9999C24.2553 76.3074 24.1268 76.7027 23.934 77.1859C23.7412 77.669 23.5356 78.035 23.3171 78.2839C23.15 78.4743 22.9443 78.628 22.7001 78.7451C22.5973 78.7744 22.4431 78.7891 22.2374 78.7891C21.8004 78.7891 21.4341 78.6793 21.1385 78.4596C20.8429 78.24 20.6501 78.0131 20.5601 77.7788L20.4444 77.4494C20.4316 77.4348 20.4059 77.4421 20.3673 77.4714C20.3416 77.5006 20.3159 77.5299 20.2902 77.5592C19.5319 78.3791 18.7607 78.7891 17.9767 78.7891C17.2698 78.7891 16.6464 78.4962 16.1066 77.9106C15.5668 77.3249 15.2969 76.3952 15.2969 75.1215ZM21.4277 71.366C21.4277 71.2781 21.3956 71.1171 21.3313 70.8828C21.267 70.6486 21.1192 70.3924 20.8879 70.1142C20.6565 69.836 20.3609 69.6896 20.001 69.6749C19.5512 69.6749 19.1206 69.9019 18.7093 70.3558C18.298 70.8096 17.9767 71.4026 17.7453 72.1347C17.3726 73.2913 17.1091 74.4919 16.9549 75.7364C16.9549 75.7803 16.9549 75.8608 16.9549 75.978C16.9549 76.0951 16.9485 76.1829 16.9356 76.2415C16.9356 76.9004 17.0513 77.3542 17.2826 77.6031C17.514 77.852 17.7903 77.9838 18.1116 77.9984C18.6001 77.9984 19.082 77.7569 19.5576 77.2737C20.0331 76.7905 20.3159 76.4172 20.4059 76.1537C20.4316 76.0951 20.6051 75.3118 20.9264 73.8037C21.2477 72.2957 21.4148 71.4831 21.4277 71.366Z" fill=""/>
<path d="M46.1183 55.7551C46.1547 55.7551 46.2092 55.7758 46.282 55.8172C46.3547 55.8586 46.4547 55.8897 46.5819 55.9104C46.7092 55.9311 46.8183 55.9415 46.9091 55.9415C47.1455 55.9415 47.3636 55.8069 47.5636 55.5377C47.7636 55.2684 47.909 54.9682 47.9999 54.6368C48.1817 54.0777 48.4908 52.4935 48.9271 49.8841C49.3634 47.2748 49.7815 44.7898 50.1814 42.4289C50.5814 40.0681 50.7814 38.8774 50.7814 38.8567V38.7635H49.4997C48.6453 38.7635 48.1908 38.7428 48.1363 38.7013C48.0635 38.6392 48.0272 38.5357 48.0272 38.3907L48.2181 37.5209C48.2544 37.4174 48.3271 37.3656 48.4362 37.3656C48.5453 37.3656 48.9725 37.3553 49.7179 37.3346C50.5905 37.3346 51.0268 37.3242 51.0268 37.3035C51.0268 37.2621 51.1086 36.7444 51.2722 35.7503C51.4358 34.7563 51.5449 34.1558 51.5994 33.9487C52.2721 30.5317 53.5992 28.8232 55.5807 28.8232C56.2534 28.8646 56.8078 29.0924 57.2441 29.5066C57.6805 29.9208 57.8986 30.4696 57.8986 31.153C57.8986 31.8985 57.7077 32.4369 57.326 32.7683C56.9442 33.0996 56.5624 33.2756 56.1807 33.2963C55.3808 33.2963 54.9808 32.8615 54.9808 31.9917C54.9808 31.5982 55.0808 31.2565 55.2808 30.9666C55.4807 30.6767 55.6989 30.4592 55.9352 30.3143L56.1807 30.1589C55.8898 30.0347 55.6171 29.9726 55.3626 29.9726C55.1444 29.9726 54.9354 30.0761 54.7354 30.2832C54.5354 30.4903 54.3991 30.7802 54.3264 31.153C54.1991 31.7535 54.0537 32.5612 53.89 33.5759C53.7264 34.5906 53.581 35.4501 53.4537 36.1542C53.3265 36.8583 53.2629 37.231 53.2629 37.2724C53.2629 37.3139 53.7628 37.3346 54.7627 37.3346C55.5807 37.3346 56.0534 37.3449 56.1807 37.3656C56.3079 37.3863 56.4079 37.4485 56.4806 37.552C56.4988 37.6348 56.4806 37.8109 56.4261 38.0801C56.3715 38.3493 56.3261 38.515 56.2897 38.5771C56.2534 38.6806 56.1716 38.7324 56.0443 38.7324C55.9171 38.7324 55.4262 38.7428 54.5718 38.7635H53.0447L52.4175 42.5532C51.5449 47.689 50.9359 50.8989 50.5905 52.1828C50.0996 53.9431 49.4634 55.2477 48.6816 56.0968C48.009 56.7595 47.3455 57.0908 46.691 57.0908C46.1093 57.0908 45.5821 56.8941 45.1094 56.5006C44.6367 56.1071 44.4004 55.548 44.4004 54.8232C44.4004 54.057 44.5913 53.4978 44.973 53.1458C45.3548 52.7937 45.7366 52.6177 46.1183 52.6177C46.9182 52.6177 47.3182 53.0526 47.3182 53.9224C47.3182 54.3158 47.2182 54.6575 47.0182 54.9475C46.8183 55.2374 46.6001 55.4548 46.3638 55.5998L46.1183 55.7551Z" fill=""/>
<path d="M60.4629 42.9566C60.4629 41.5277 60.5538 40.1713 60.7356 38.8873C60.9174 37.6034 61.1264 36.4955 61.3628 35.5636C61.5991 34.6317 61.9354 33.7205 62.3717 32.83C62.808 31.9395 63.1534 31.2458 63.408 30.7488C63.6625 30.2517 64.0442 29.7133 64.5533 29.1335C65.0623 28.5536 65.3622 28.2016 65.4531 28.0773C65.544 27.9531 65.7713 27.7356 66.1349 27.425H66.4894H66.5984C66.853 27.425 66.9802 27.5182 66.9802 27.7046C66.9802 27.7667 66.8257 27.9841 66.5166 28.3569C66.2076 28.7296 65.8349 29.2784 65.3986 30.0032C64.9623 30.7281 64.5169 31.6185 64.0624 32.6747C63.6079 33.7308 63.2262 35.1597 62.9171 36.9614C62.6081 38.7631 62.4535 40.7615 62.4535 42.9566C62.4535 45.1518 62.6081 47.1398 62.9171 48.9208C63.2262 50.7017 63.5988 52.141 64.0351 53.2386C64.4715 54.3362 64.9168 55.2266 65.3713 55.91C65.8258 56.5934 66.2076 57.1422 66.5166 57.5564C66.8257 57.9706 66.9802 58.188 66.9802 58.2087C66.9802 58.3951 66.8439 58.4883 66.5712 58.4883H66.4894H66.1349L65.3713 57.7428C63.6625 55.9825 62.4172 53.7874 61.6355 51.1573C60.8537 48.5273 60.4629 45.7937 60.4629 42.9566Z" fill=""/>
<path d="M69.9245 41.7455C70.0518 40.8757 70.5426 39.8713 71.397 38.7323C72.2515 37.5933 73.3059 37.0135 74.5603 36.9928C75.1965 36.9928 75.7783 37.1792 76.3055 37.5519C76.8327 37.9247 77.2235 38.3906 77.4781 38.9498C78.2416 37.6451 79.1597 36.9928 80.2322 36.9928C80.9049 36.9928 81.4866 37.2206 81.9775 37.6762C82.4683 38.1318 82.7228 38.7427 82.741 39.5089C82.741 40.1095 82.6137 40.5961 82.3592 40.9689C82.1047 41.3416 81.8593 41.5694 81.623 41.6523C81.3866 41.7351 81.1776 41.7765 80.9958 41.7765C80.6504 41.7765 80.3686 41.6626 80.1504 41.4348C79.9323 41.207 79.8232 40.9068 79.8232 40.534C79.8232 39.5814 80.2777 38.9291 81.1867 38.577C80.9867 38.3078 80.6231 38.1732 80.0959 38.1732C79.8596 38.1732 79.6869 38.1939 79.5778 38.2353C78.887 38.5667 78.3779 39.25 78.0507 40.2855C76.9599 44.8621 76.4146 47.5336 76.4146 48.2998C76.4146 48.8797 76.56 49.2938 76.8509 49.5424C77.1417 49.7909 77.4599 49.9151 77.8053 49.9151C78.4779 49.9151 79.1415 49.5734 79.7959 48.89C80.4504 48.2066 80.8958 47.3679 81.1321 46.3739C81.1867 46.1668 81.2412 46.0529 81.2957 46.0322C81.3503 46.0115 81.4957 45.9908 81.732 45.9701H81.8411C82.1138 45.9701 82.2502 46.0529 82.2502 46.2186C82.2502 46.2393 82.232 46.3532 82.1956 46.5603C81.9047 47.7407 81.3412 48.7865 80.5049 49.6977C79.6687 50.6089 78.6961 51.0645 77.5871 51.0645C76.3146 51.0645 75.3511 50.4121 74.6966 49.1075C73.9513 50.3914 73.0968 51.0334 72.1333 51.0334H71.9697C71.0789 51.0334 70.4426 50.7642 70.0609 50.2257C69.6791 49.6873 69.4791 49.1178 69.4609 48.5173C69.4609 47.8546 69.6336 47.3161 69.9791 46.902C70.3245 46.4878 70.7335 46.2807 71.2062 46.2807C71.9879 46.2807 72.3787 46.7156 72.3787 47.5854C72.3787 47.9995 72.2697 48.3619 72.0515 48.6726C71.8334 48.9832 71.6243 49.1903 71.4243 49.2938C71.2243 49.3974 71.1062 49.4492 71.0698 49.4492L70.988 49.4802C70.988 49.5009 71.0425 49.5424 71.1516 49.6045C71.2607 49.6666 71.4061 49.7391 71.5879 49.8219C71.7697 49.9048 71.9424 49.9358 72.106 49.9151C72.7605 49.9151 73.3241 49.4492 73.7967 48.5173C73.9603 48.1859 74.1694 47.4818 74.4239 46.405C74.6784 45.3281 74.9329 44.2098 75.1875 43.0501C75.442 41.8904 75.5874 41.207 75.6238 40.9999C75.7147 40.4408 75.7601 40.037 75.7601 39.7885C75.7601 39.2086 75.6238 38.7945 75.3511 38.5459C75.0784 38.2974 74.7693 38.1732 74.4239 38.1732C73.6967 38.1732 73.015 38.5045 72.3787 39.1672C71.7425 39.8299 71.2971 40.679 71.0425 41.7144C71.0062 41.9008 70.9607 42.0043 70.9062 42.025C70.8517 42.0457 70.7062 42.0665 70.4699 42.0872H70.0881C69.9791 41.9629 69.9245 41.849 69.9245 41.7455Z" fill=""/>
<path d="M85.7418 27.4561L85.8509 27.425C85.9418 27.425 86.0327 27.425 86.1236 27.425H86.4508L87.2143 28.1705C88.9232 29.9308 90.1685 32.1259 90.9502 34.7559C91.7319 37.386 92.1228 40.1195 92.1228 42.9566C92.1228 44.3648 92.0319 45.7213 91.8501 47.0259C91.6683 48.3306 91.4592 49.4385 91.2229 50.3497C90.9866 51.2609 90.6503 52.1721 90.214 53.0833C89.7776 53.9945 89.4322 54.6882 89.1777 55.1645C88.9232 55.6408 88.5505 56.1689 88.0597 56.7487C87.5688 57.3286 87.278 57.6703 87.1871 57.7738C87.0962 57.8774 86.8871 58.0741 86.5599 58.364C86.5053 58.4262 86.469 58.4676 86.4508 58.4883H86.1236C85.9781 58.4883 85.8782 58.4883 85.8236 58.4883C85.7691 58.4883 85.7236 58.4572 85.6873 58.3951C85.6509 58.333 85.6236 58.2398 85.6055 58.1155C85.6236 58.0948 85.7236 57.9602 85.9054 57.7117C88.7232 54.3776 90.1321 49.4592 90.1321 42.9566C90.1321 36.4541 88.7232 31.5357 85.9054 28.2016C85.7236 27.9531 85.6236 27.8185 85.6055 27.7977C85.6055 27.6321 85.6509 27.5182 85.7418 27.4561Z" fill=""/>
<path d="M104.694 29.5073C104.712 29.5073 105.367 29.4555 106.657 29.352C107.948 29.2485 108.612 29.1863 108.648 29.1656C108.866 29.1656 108.975 29.2485 108.975 29.4141C108.975 29.5591 108.312 32.6861 106.985 38.7952C105.657 44.9044 104.976 48.021 104.939 48.1453C104.903 48.2695 104.894 48.4249 104.912 48.6112C104.912 49.481 105.167 49.9159 105.676 49.9159C105.839 49.8952 106.021 49.802 106.221 49.6363C106.603 49.2222 106.975 48.2281 107.339 46.6543C107.448 46.2401 107.539 46.0226 107.612 46.0019C107.648 45.9812 107.739 45.9709 107.884 45.9709H107.993H108.103C108.375 45.9709 108.512 46.0537 108.512 46.2194C108.512 46.3229 108.484 46.4886 108.43 46.7164C108.193 47.7518 107.921 48.5905 107.612 49.2325C107.303 49.8745 107.048 50.2887 106.848 50.475C106.648 50.6614 106.394 50.8271 106.085 50.9721C105.939 51.0135 105.721 51.0342 105.43 51.0342C104.812 51.0342 104.294 50.8789 103.876 50.5682C103.458 50.2576 103.185 49.9366 103.058 49.6053L102.894 49.1393C102.876 49.1186 102.84 49.129 102.785 49.1704C102.749 49.2118 102.712 49.2532 102.676 49.2946C101.603 50.4543 100.513 51.0342 99.4037 51.0342C98.4038 51.0342 97.5221 50.62 96.7586 49.7916C95.995 48.9633 95.6133 47.6483 95.6133 45.8466C95.6133 44.8526 95.7951 43.8379 96.1587 42.8024C96.5223 41.767 96.9586 40.8765 97.4676 40.131C98.322 38.9506 99.1764 38.1326 100.031 37.677C100.885 37.2214 101.658 36.9936 102.349 36.9936C103.367 36.9936 104.13 37.4285 104.639 38.2982C104.73 38.4225 104.776 38.4639 104.776 38.4225C104.794 38.3396 105.039 37.211 105.512 35.0366C105.985 32.8622 106.239 31.7128 106.276 31.5886C106.276 31.3193 106.212 31.1537 106.085 31.0915C105.957 31.0294 105.603 30.9776 105.021 30.9362H104.448C104.339 30.812 104.285 30.7291 104.285 30.6877C104.285 30.6463 104.303 30.4496 104.339 30.0975C104.43 29.7041 104.548 29.5073 104.694 29.5073ZM104.312 40.5969C103.894 38.9609 103.212 38.1429 102.267 38.1429C101.631 38.1429 101.022 38.4639 100.44 39.1059C99.8582 39.7479 99.4037 40.5866 99.0765 41.622C98.5493 43.258 98.1766 44.9561 97.9584 46.7164C97.9584 46.7785 97.9584 46.8924 97.9584 47.0581C97.9584 47.2237 97.9493 47.348 97.9312 47.4308C97.9312 48.3627 98.0948 49.0047 98.422 49.3568C98.7492 49.7088 99.1401 49.8952 99.5946 49.9159C100.576 49.9159 101.585 49.1704 102.621 47.6793L102.84 47.3376L104.312 40.5969Z" fill=""/>
<path d="M110.311 41.7455C110.438 40.8757 110.929 39.8713 111.784 38.7323C112.638 37.5933 113.693 37.0135 114.947 36.9928C115.583 36.9928 116.165 37.1792 116.692 37.5519C117.219 37.9247 117.61 38.3906 117.865 38.9498C118.628 37.6451 119.546 36.9928 120.619 36.9928C121.292 36.9928 121.873 37.2206 122.364 37.6762C122.855 38.1318 123.11 38.7427 123.128 39.5089C123.128 40.1095 123 40.5961 122.746 40.9689C122.491 41.3416 122.246 41.5694 122.01 41.6523C121.773 41.7351 121.564 41.7765 121.382 41.7765C121.037 41.7765 120.755 41.6626 120.537 41.4348C120.319 41.207 120.21 40.9068 120.21 40.534C120.21 39.5814 120.664 38.9291 121.573 38.577C121.373 38.3078 121.01 38.1732 120.483 38.1732C120.246 38.1732 120.074 38.1939 119.965 38.2353C119.274 38.5667 118.765 39.25 118.437 40.2855C117.347 44.8621 116.801 47.5336 116.801 48.2998C116.801 48.8797 116.947 49.2938 117.238 49.5424C117.528 49.7909 117.847 49.9151 118.192 49.9151C118.865 49.9151 119.528 49.5734 120.183 48.89C120.837 48.2066 121.283 47.3679 121.519 46.3739C121.573 46.1668 121.628 46.0529 121.682 46.0322C121.737 46.0115 121.882 45.9908 122.119 45.9701H122.228C122.501 45.9701 122.637 46.0529 122.637 46.2186C122.637 46.2393 122.619 46.3532 122.582 46.5603C122.291 47.7407 121.728 48.7865 120.892 49.6977C120.055 50.6089 119.083 51.0645 117.974 51.0645C116.701 51.0645 115.738 50.4121 115.083 49.1075C114.338 50.3914 113.484 51.0334 112.52 51.0334H112.356C111.466 51.0334 110.829 50.7642 110.448 50.2257C110.066 49.6873 109.866 49.1178 109.848 48.5173C109.848 47.8546 110.02 47.3161 110.366 46.902C110.711 46.4878 111.12 46.2807 111.593 46.2807C112.375 46.2807 112.765 46.7156 112.765 47.5854C112.765 47.9995 112.656 48.3619 112.438 48.6726C112.22 48.9832 112.011 49.1903 111.811 49.2938C111.611 49.3974 111.493 49.4492 111.457 49.4492L111.375 49.4802C111.375 49.5009 111.429 49.5424 111.538 49.6045C111.647 49.6666 111.793 49.7391 111.975 49.8219C112.156 49.9048 112.329 49.9358 112.493 49.9151C113.147 49.9151 113.711 49.4492 114.183 48.5173C114.347 48.1859 114.556 47.4818 114.811 46.405C115.065 45.3281 115.32 44.2098 115.574 43.0501C115.829 41.8904 115.974 41.207 116.01 40.9999C116.101 40.4408 116.147 40.037 116.147 39.7885C116.147 39.2086 116.01 38.7945 115.738 38.5459C115.465 38.2974 115.156 38.1732 114.811 38.1732C114.083 38.1732 113.402 38.5045 112.765 39.1672C112.129 39.8299 111.684 40.679 111.429 41.7144C111.393 41.9008 111.347 42.0043 111.293 42.025C111.238 42.0457 111.093 42.0665 110.857 42.0872H110.475C110.366 41.9629 110.311 41.849 110.311 41.7455Z" fill=""/>
<path d="M131.867 21.2747C131.921 21.2333 137.421 21.2126 148.365 21.2126H164.781L166.362 25.4061C167.435 28.2639 168.007 29.7757 168.08 29.9413H166.989L166.799 29.5065C166.417 28.6574 165.908 27.8497 165.271 27.0835C164.363 26.0895 163.354 25.2922 162.245 24.6916C161.136 24.0911 159.854 23.6458 158.4 23.3559C156.945 23.066 155.573 22.89 154.282 22.8278C152.991 22.7657 151.328 22.7243 149.292 22.7036H145.883H145.038H137.075L137.293 23.0453C145.71 36.154 149.937 42.7705 149.974 42.8947C149.992 42.9362 149.992 42.9983 149.974 43.0811C149.919 43.1432 147.519 46.2703 142.774 52.4622L135.575 61.7812C135.575 61.8019 137.493 61.8123 141.329 61.8123C142.275 61.8123 143.556 61.8123 145.174 61.8123C146.792 61.8123 147.956 61.8226 148.665 61.8433C151.137 61.8433 153.137 61.7916 154.664 61.688C156.191 61.5845 157.709 61.367 159.218 61.0357C160.727 60.7044 162.008 60.197 163.063 59.5136C164.117 58.8302 165.053 57.9294 165.871 56.8111C166.253 56.2727 166.626 55.5271 166.989 54.5745H168.08C168.08 54.5952 168.017 54.8127 167.889 55.2269C167.762 55.641 167.535 56.3141 167.208 57.246C166.88 58.1779 166.599 59.0477 166.362 59.8553L164.781 64.6701L148.392 64.7012C137.448 64.7012 131.949 64.6805 131.894 64.639C131.785 64.5976 131.73 64.5044 131.73 64.3595C131.73 64.3181 131.749 64.2559 131.785 64.1731L146.319 45.2245C146.319 45.2038 146.019 44.7378 145.42 43.8266C144.82 42.9154 143.865 41.4244 142.556 39.3535C141.247 37.2826 140.066 35.4395 139.011 33.8243L131.758 22.4861L131.73 22.0202C131.73 21.5853 131.776 21.3368 131.867 21.2747Z" fill=""/>
<path d="M132.217 78.2132C132.23 78.1254 132.249 78.0082 132.275 77.8618C132.3 77.7154 132.377 77.4372 132.506 77.0273C132.635 76.6173 132.763 76.2733 132.892 75.9951C133.02 75.7169 133.232 75.446 133.528 75.1825C133.823 74.9189 134.119 74.7945 134.415 74.8091C134.877 74.8091 135.263 74.9409 135.571 75.2045C135.88 75.468 136.073 75.7169 136.15 75.9512C136.227 76.1854 136.265 76.3391 136.265 76.4123C136.265 76.4416 136.272 76.4563 136.285 76.4563L136.497 76.2147C137.281 75.2777 138.174 74.8091 139.177 74.8091C139.871 74.8091 140.43 75.0068 140.854 75.4021C141.278 75.7974 141.497 76.3757 141.509 77.1371C141.522 77.8984 141.278 79.0478 140.777 80.5851C140.276 82.1224 140.031 83.0521 140.044 83.3742C140.044 83.7549 140.153 83.9452 140.372 83.9452C140.449 83.9452 140.507 83.9379 140.545 83.9233C140.918 83.8501 141.252 83.5719 141.548 83.0887C141.844 82.6056 142.069 82.0199 142.223 81.3318C142.248 81.2147 142.377 81.1561 142.608 81.1561C142.865 81.1561 142.994 81.2147 142.994 81.3318C142.994 81.3464 142.968 81.4562 142.917 81.6612C142.814 82.0858 142.673 82.5031 142.493 82.913C142.313 83.323 142.017 83.7329 141.606 84.1429C141.195 84.5528 140.751 84.7505 140.276 84.7359C139.671 84.7359 139.234 84.5382 138.965 84.1429C138.695 83.7476 138.56 83.3376 138.56 82.913C138.56 82.6348 138.791 81.7564 139.254 80.2776C139.716 78.7989 139.954 77.6861 139.967 76.9394C139.967 76.0756 139.684 75.6437 139.119 75.6437H139.022C137.917 75.6437 136.985 76.3831 136.227 77.8618L136.092 78.1254L135.456 81.0682C135.032 82.9862 134.787 84.0184 134.723 84.1648C134.556 84.5602 134.28 84.7578 133.894 84.7578C133.727 84.7578 133.592 84.7139 133.489 84.626C133.386 84.5382 133.316 84.4503 133.277 84.3625C133.239 84.2747 133.226 84.2014 133.239 84.1429C133.239 83.9525 133.483 82.7593 133.971 80.5631C134.46 78.3669 134.717 77.1737 134.742 76.9834C134.755 76.9101 134.762 76.7418 134.762 76.4782C134.762 75.9072 134.607 75.6217 134.299 75.6217C133.811 75.6217 133.406 76.3538 133.084 77.8179C133.007 78.1107 132.969 78.2645 132.969 78.2791C132.943 78.3669 132.821 78.4109 132.602 78.4109H132.332C132.255 78.323 132.217 78.2571 132.217 78.2132Z" fill=""/>
<path d="M144.459 76.8959C144.459 76.7056 144.549 76.5591 144.729 76.4567H157.01C157.203 76.5738 157.299 76.7202 157.299 76.8959C157.299 77.0569 157.209 77.196 157.029 77.3132L150.898 77.3351H144.767C144.562 77.2619 144.459 77.1155 144.459 76.8959ZM144.459 81.1565C144.459 80.9369 144.562 80.7904 144.767 80.7172H157.029C157.209 80.8636 157.299 81.0101 157.299 81.1565C157.299 81.3468 157.203 81.4932 157.01 81.5957H144.729C144.549 81.4932 144.459 81.3468 144.459 81.1565Z" fill=""/>
<path d="M160.23 71.6692C160.95 70.4833 161.933 69.8903 163.18 69.8903C163.796 69.8903 164.413 70.0807 165.03 70.4613C165.647 70.842 166.149 71.5155 166.534 72.4818C167.01 73.697 167.247 75.3661 167.247 77.4891C167.247 79.7585 166.971 81.4934 166.418 82.694C166.161 83.3089 165.808 83.7994 165.358 84.1655C164.908 84.5315 164.516 84.7584 164.182 84.8463C163.848 84.9341 163.52 84.9854 163.199 85C162.865 85 162.53 84.9561 162.196 84.8682C161.862 84.7804 161.47 84.5461 161.02 84.1655C160.57 83.7848 160.217 83.2943 159.96 82.694C159.407 81.4934 159.131 79.7585 159.131 77.4891C159.131 74.9415 159.497 73.0016 160.23 71.6692ZM164.568 71.4057C164.182 70.9372 163.726 70.7029 163.199 70.7029C162.659 70.7029 162.196 70.9372 161.811 71.4057C161.489 71.7863 161.277 72.3134 161.174 72.9869C161.072 73.6604 161.02 75.066 161.02 77.2036C161.02 79.5169 161.072 81.0396 161.174 81.7716C161.277 82.5037 161.509 83.082 161.869 83.5066C162.228 83.9458 162.672 84.1655 163.199 84.1655C163.713 84.1655 164.15 83.9458 164.51 83.5066C164.883 83.0674 165.114 82.4524 165.204 81.6618C165.294 80.8712 165.345 79.3851 165.358 77.2036C165.358 75.0806 165.307 73.6824 165.204 73.0089C165.101 72.3354 164.889 71.801 164.568 71.4057Z" fill=""/>
<path d="M133.547 1.01036C133.508 1.01036 133.457 1.01036 133.392 1.01036C133.071 1.01036 132.878 1.00304 132.814 0.988403C132.75 0.973763 132.717 0.893235 132.717 0.746824C132.717 0.351513 132.788 0.109933 132.93 0.0220861C132.955 0.00744534 133.579 0.000123978 134.8 0.000123978C135.789 0.000123978 136.355 0.000123978 136.496 0.000123978C136.638 0.000123978 136.728 0.0440483 136.766 0.131895C139.478 7.39391 140.86 11.1201 140.911 11.3104L141.952 6.63257C142.633 3.54329 142.974 1.89616 142.974 1.69118C142.974 1.29587 142.563 1.06893 141.74 1.01036C141.432 1.01036 141.277 0.929838 141.277 0.768785C141.277 0.739503 141.29 0.651656 141.316 0.505244C141.367 0.270986 141.406 0.131895 141.432 0.0879717C141.457 0.0440483 141.522 0.0147657 141.625 0.000123978C141.663 0.000123978 141.862 0.00744534 142.222 0.0220861C142.582 0.036727 143.115 0.0513687 143.822 0.0660095C144.465 0.0660095 144.953 0.0586891 145.288 0.0440483C145.622 0.0294065 145.815 0.0220861 145.866 0.0220861C146.059 0.0220861 146.155 0.0952921 146.155 0.241704C146.155 0.563809 146.104 0.783427 146.001 0.900557C145.975 0.973763 145.834 1.01036 145.577 1.01036C144.664 1.06893 144.092 1.36175 143.861 1.88883L140.988 14.8463C140.963 14.9488 140.828 15 140.583 15C140.403 15 140.294 14.9854 140.256 14.9561C140.217 14.9122 139.388 12.694 137.769 8.30167L135.32 1.7351L134.067 7.44516C133.232 11.1933 132.814 13.1333 132.814 13.265C132.878 13.7482 133.341 13.9898 134.202 13.9898H134.395C134.472 14.063 134.51 14.1215 134.51 14.1655C134.51 14.2094 134.498 14.3485 134.472 14.5827C134.42 14.7731 134.356 14.9122 134.279 15H134.028C133.63 14.9707 132.936 14.9561 131.946 14.9561C131.586 14.9561 131.259 14.9561 130.963 14.9561C130.667 14.9561 130.43 14.9561 130.25 14.9561C130.07 14.9561 129.961 14.9634 129.922 14.978C129.729 14.978 129.633 14.9122 129.633 14.7804C129.633 14.7218 129.652 14.6047 129.691 14.429C129.729 14.2533 129.761 14.1508 129.787 14.1215C129.813 14.0337 129.961 13.9898 130.23 13.9898C131.104 13.9458 131.67 13.6603 131.927 13.1333C131.978 13.0454 132.435 11.0176 133.296 7.04985L134.607 1.07625C134.581 1.06161 134.228 1.03965 133.547 1.01036Z" fill=""/>
<path d="M147.775 9.79451C147.775 9.79451 147.775 9.69934 147.775 9.50901C147.775 9.31867 147.865 9.17226 148.045 9.06977H159.247C159.439 9.1869 159.536 9.33331 159.536 9.50901C159.536 9.6847 159.439 9.83111 159.247 9.94824H148.045C147.865 9.84575 147.775 9.69934 147.775 9.50901V9.79451Z" fill=""/>
<path d="M165.262 2.30611L165.012 2.41592C164.832 2.48912 164.575 2.56233 164.24 2.63554C163.906 2.70874 163.533 2.75998 163.122 2.78927H162.756V1.77903H163.122C163.726 1.74975 164.285 1.63994 164.799 1.4496C165.314 1.25927 165.673 1.08357 165.879 0.922519C166.085 0.761466 166.265 0.600413 166.419 0.439361C166.445 0.395437 166.522 0.373475 166.65 0.373475C166.766 0.373475 166.875 0.417398 166.978 0.505246V7.07181L166.997 13.6603C167.087 13.7628 167.164 13.8287 167.229 13.858C167.293 13.8873 167.447 13.9166 167.691 13.9458C167.936 13.9751 168.334 13.9898 168.887 13.9898H169.388V15H169.176C168.906 14.9561 167.884 14.9341 166.11 14.9341C164.362 14.9341 163.354 14.9561 163.084 15H162.852V13.9898H163.354C163.636 13.9898 163.88 13.9898 164.086 13.9898C164.292 13.9898 164.452 13.9824 164.568 13.9678C164.684 13.9532 164.787 13.9312 164.877 13.9019C164.967 13.8726 165.018 13.858 165.031 13.858C165.044 13.858 165.082 13.8214 165.146 13.7482C165.211 13.675 165.249 13.6457 165.262 13.6603V2.30611Z" fill=""/>
<path d="M187.152 11.769L186.798 11.9244C186.543 12.0279 186.18 12.1315 185.707 12.235C185.234 12.3385 184.707 12.411 184.126 12.4524H183.607V11.0235H184.126C184.98 10.9821 185.771 10.8268 186.498 10.5576C187.225 10.2884 187.734 10.0399 188.025 9.81206C188.316 9.58426 188.57 9.35647 188.789 9.12867C188.825 9.06654 188.934 9.03548 189.116 9.03548C189.279 9.03548 189.434 9.0976 189.579 9.22186V18.5098L189.607 27.8288C189.734 27.9737 189.843 28.0669 189.934 28.1083C190.025 28.1498 190.243 28.1912 190.588 28.2326C190.934 28.274 191.497 28.2947 192.279 28.2947H192.988V29.7236H192.688C192.306 29.6615 190.861 29.6304 188.352 29.6304C185.88 29.6304 184.453 29.6615 184.071 29.7236H183.744V28.2947H184.453C184.853 28.2947 185.198 28.2947 185.489 28.2947C185.78 28.2947 186.007 28.2844 186.171 28.2637C186.334 28.2429 186.48 28.2119 186.607 28.1705C186.734 28.1291 186.807 28.1083 186.825 28.1083C186.843 28.1083 186.898 28.0566 186.989 27.953C187.08 27.8495 187.134 27.8081 187.152 27.8288V11.769Z" fill=""/>
<path d="M184.316 58.7051C183.825 58.7051 183.434 58.5187 183.143 58.146C182.852 57.7732 182.707 57.3176 182.707 56.7792C182.707 55.3088 183.189 54.0352 184.152 52.9584C185.116 51.8815 186.316 51.3431 187.752 51.3431C189.406 51.3431 190.788 51.9229 191.897 53.0826C193.006 54.2423 193.569 55.7437 193.587 57.5868C193.587 58.4773 193.406 59.3264 193.042 60.134C192.678 60.9417 192.242 61.6458 191.733 62.2463C191.224 62.8469 190.497 63.6131 189.552 64.545C188.897 65.187 187.988 66.1396 186.825 67.4028L185.216 69.1424L187.288 69.1734C190.142 69.1734 191.66 69.1217 191.842 69.0181C191.969 68.9767 192.188 68.0551 192.497 66.2535V66.1603H193.587V66.2535C193.569 66.3156 193.451 67.2579 193.233 69.0802C193.015 70.9026 192.878 71.8552 192.824 71.9381V72.0312H182.707V71.441V71.0683C182.707 70.9233 182.762 70.768 182.871 70.6023C182.98 70.4367 183.252 70.0743 183.689 69.5151C184.216 68.8524 184.67 68.2726 185.052 67.7756C185.216 67.5685 185.525 67.1854 185.979 66.6262C186.434 66.0671 186.743 65.684 186.906 65.4769C187.07 65.2698 187.334 64.9281 187.697 64.4518C188.061 63.9755 188.315 63.6235 188.461 63.3957C188.606 63.1679 188.815 62.8572 189.088 62.4638C189.361 62.0703 189.552 61.7389 189.661 61.4697C189.77 61.2005 189.906 60.9002 190.07 60.5689C190.233 60.2376 190.351 59.9062 190.424 59.5749C190.497 59.2435 190.561 58.9329 190.615 58.643C190.67 58.353 190.697 58.0113 190.697 57.6179C190.697 56.3132 190.388 55.1846 189.77 54.232C189.152 53.2794 188.27 52.8031 187.125 52.8031C186.525 52.8031 185.998 52.9791 185.543 53.3311C185.089 53.6832 184.77 54.0249 184.589 54.3562C184.407 54.6876 184.316 54.8843 184.316 54.9464C184.316 54.9671 184.361 54.9775 184.452 54.9775C184.779 54.9775 185.116 55.1225 185.461 55.4124C185.807 55.7023 185.979 56.1786 185.979 56.8413C185.979 57.359 185.834 57.7939 185.543 58.146C185.252 58.498 184.843 58.6844 184.316 58.7051Z" fill=""/>
<path d="M197.706 43.8887H178.617V42.0249H197.706V43.8887Z" fill=""/>
<path d="M203.541 42.9566C203.541 41.5277 203.632 40.1713 203.814 38.8873C203.996 37.6034 204.205 36.4955 204.441 35.5636C204.677 34.6317 205.014 33.7205 205.45 32.83C205.886 31.9395 206.232 31.2458 206.486 30.7488C206.741 30.2517 207.122 29.7133 207.631 29.1335C208.14 28.5536 208.44 28.2016 208.531 28.0773C208.622 27.9531 208.849 27.7356 209.213 27.425H209.567H209.677C209.931 27.425 210.058 27.5182 210.058 27.7046C210.058 27.7667 209.904 27.9841 209.595 28.3569C209.286 28.7296 208.913 29.2784 208.477 30.0032C208.04 30.7281 207.595 31.6185 207.141 32.6747C206.686 33.7308 206.304 35.1597 205.995 36.9614C205.686 38.7631 205.532 40.7615 205.532 42.9566C205.532 45.1518 205.686 47.1398 205.995 48.9208C206.304 50.7017 206.677 52.141 207.113 53.2386C207.55 54.3362 207.995 55.2266 208.449 55.91C208.904 56.5934 209.286 57.1422 209.595 57.5564C209.904 57.9706 210.058 58.188 210.058 58.2087C210.058 58.3951 209.922 58.4883 209.649 58.4883H209.567H209.213L208.449 57.7428C206.741 55.9825 205.495 53.7874 204.714 51.1573C203.932 48.5273 203.541 45.7937 203.541 42.9566Z" fill=""/>
<path d="M214.804 55.7551C214.84 55.7551 214.895 55.7758 214.968 55.8172C215.04 55.8586 215.14 55.8897 215.267 55.9104C215.395 55.9311 215.504 55.9415 215.595 55.9415C215.831 55.9415 216.049 55.8069 216.249 55.5377C216.449 55.2684 216.595 54.9682 216.685 54.6368C216.867 54.0777 217.176 52.4935 217.613 49.8841C218.049 47.2748 218.467 44.7898 218.867 42.4289C219.267 40.0681 219.467 38.8774 219.467 38.8567V38.7635H218.185C217.331 38.7635 216.876 38.7428 216.822 38.7013C216.749 38.6392 216.713 38.5357 216.713 38.3907L216.904 37.5209C216.94 37.4174 217.013 37.3656 217.122 37.3656C217.231 37.3656 217.658 37.3553 218.403 37.3346C219.276 37.3346 219.712 37.3242 219.712 37.3035C219.712 37.2621 219.794 36.7444 219.958 35.7503C220.121 34.7563 220.23 34.1558 220.285 33.9487C220.958 30.5317 222.285 28.8232 224.266 28.8232C224.939 28.8646 225.493 29.0924 225.93 29.5066C226.366 29.9208 226.584 30.4696 226.584 31.153C226.584 31.8985 226.393 32.4369 226.012 32.7683C225.63 33.0996 225.248 33.2756 224.866 33.2963C224.066 33.2963 223.666 32.8615 223.666 31.9917C223.666 31.5982 223.766 31.2565 223.966 30.9666C224.166 30.6767 224.384 30.4592 224.621 30.3143L224.866 30.1589C224.575 30.0347 224.303 29.9726 224.048 29.9726C223.83 29.9726 223.621 30.0761 223.421 30.2832C223.221 30.4903 223.085 30.7802 223.012 31.153C222.885 31.7535 222.739 32.5612 222.576 33.5759C222.412 34.5906 222.267 35.4501 222.139 36.1542C222.012 36.8583 221.948 37.231 221.948 37.2724C221.948 37.3139 222.448 37.3346 223.448 37.3346C224.266 37.3346 224.739 37.3449 224.866 37.3656C224.993 37.3863 225.093 37.4485 225.166 37.552C225.184 37.6348 225.166 37.8109 225.112 38.0801C225.057 38.3493 225.012 38.515 224.975 38.5771C224.939 38.6806 224.857 38.7324 224.73 38.7324C224.603 38.7324 224.112 38.7428 223.257 38.7635H221.73L221.103 42.5532C220.23 47.689 219.621 50.8989 219.276 52.1828C218.785 53.9431 218.149 55.2477 217.367 56.0968C216.695 56.7595 216.031 57.0908 215.377 57.0908C214.795 57.0908 214.268 56.8941 213.795 56.5006C213.322 56.1071 213.086 55.548 213.086 54.8232C213.086 54.057 213.277 53.4978 213.659 53.1458C214.04 52.7937 214.422 52.6177 214.804 52.6177C215.604 52.6177 216.004 53.0526 216.004 53.9224C216.004 54.3158 215.904 54.6575 215.704 54.9475C215.504 55.2374 215.286 55.4548 215.049 55.5998L214.804 55.7551Z" fill=""/>
<path d="M225.354 49.0794C225.366 48.9916 225.386 48.8744 225.411 48.728C225.437 48.5816 225.514 48.3034 225.643 47.8935C225.771 47.4835 225.9 47.1395 226.028 46.8613C226.157 46.5831 226.369 46.3122 226.665 46.0487C226.96 45.7852 227.256 45.6607 227.551 45.6754C228.014 45.6754 228.4 45.8071 228.708 46.0707C229.017 46.3342 229.209 46.5831 229.286 46.8174C229.364 47.0516 229.402 47.2054 229.402 47.2786C229.402 47.3078 229.409 47.3225 229.421 47.3225L229.634 47.0809C230.418 46.1439 231.311 45.6754 232.313 45.6754C233.007 45.6754 233.566 45.873 233.991 46.2683C234.415 46.6636 234.633 47.242 234.646 48.0033C234.659 48.7646 234.415 49.914 233.914 51.4513C233.412 52.9886 233.168 53.9183 233.181 54.2404C233.181 54.6211 233.29 54.8114 233.509 54.8114C233.586 54.8114 233.644 54.8041 233.682 54.7895C234.055 54.7163 234.389 54.4381 234.685 53.9549C234.98 53.4718 235.205 52.8861 235.359 52.198C235.385 52.0809 235.514 52.0223 235.745 52.0223C236.002 52.0223 236.131 52.0809 236.131 52.198C236.131 52.2126 236.105 52.3224 236.054 52.5274C235.951 52.952 235.809 53.3693 235.629 53.7792C235.449 54.1892 235.154 54.5991 234.743 55.0091C234.331 55.419 233.888 55.6167 233.412 55.6021C232.808 55.6021 232.371 55.4044 232.101 55.0091C231.831 54.6138 231.696 54.2038 231.696 53.7792C231.696 53.5011 231.928 52.6226 232.39 51.1438C232.853 49.6651 233.091 48.5523 233.104 47.8056C233.104 46.9418 232.821 46.5099 232.255 46.5099H232.159C231.054 46.5099 230.122 47.2493 229.364 48.728L229.229 48.9916L228.592 51.9344C228.168 53.8524 227.924 54.8846 227.86 55.0311C227.693 55.4264 227.416 55.624 227.031 55.624C226.864 55.624 226.729 55.5801 226.626 55.4923C226.523 55.4044 226.452 55.3166 226.414 55.2287C226.375 55.1409 226.362 55.0677 226.375 55.0091C226.375 54.8188 226.62 53.6255 227.108 51.4293C227.596 49.2332 227.853 48.0399 227.879 47.8496C227.892 47.7764 227.898 47.608 227.898 47.3444C227.898 46.7734 227.744 46.4879 227.436 46.4879C226.947 46.4879 226.542 47.22 226.221 48.6841C226.144 48.9769 226.105 49.1307 226.105 49.1453C226.08 49.2332 225.958 49.2771 225.739 49.2771H225.469C225.392 49.1892 225.354 49.1233 225.354 49.0794Z" fill=""/>
<path d="M245.469 43.3613C245.469 43.3613 245.469 43.2267 245.469 42.9575C245.469 42.6883 245.596 42.4812 245.851 42.3362H254.004V37.6767L254.031 33.0172C254.213 32.748 254.386 32.6134 254.549 32.6134C254.786 32.6134 254.967 32.7687 255.095 33.0794V42.3362H263.221C263.494 42.5019 263.63 42.709 263.63 42.9575C263.63 43.206 263.494 43.4131 263.221 43.5788H255.095V52.8356C254.949 53.1255 254.786 53.2705 254.604 53.2705H254.549H254.495C254.277 53.2705 254.113 53.1255 254.004 52.8356V43.5788H245.851C245.596 43.4338 245.469 43.2267 245.469 42.9575V43.3613Z" fill=""/>
<path d="M274.437 55.7551C274.473 55.7551 274.528 55.7758 274.6 55.8172C274.673 55.8586 274.773 55.8897 274.9 55.9104C275.028 55.9311 275.137 55.9415 275.228 55.9415C275.464 55.9415 275.682 55.8069 275.882 55.5377C276.082 55.2684 276.227 54.9682 276.318 54.6368C276.5 54.0777 276.809 52.4935 277.245 49.8841C277.682 47.2748 278.1 44.7898 278.5 42.4289C278.9 40.0681 279.1 38.8774 279.1 38.8567V38.7635H277.818C276.964 38.7635 276.509 38.7428 276.455 38.7013C276.382 38.6392 276.346 38.5357 276.346 38.3907L276.536 37.5209C276.573 37.4174 276.646 37.3656 276.755 37.3656C276.864 37.3656 277.291 37.3553 278.036 37.3346C278.909 37.3346 279.345 37.3242 279.345 37.3035C279.345 37.2621 279.427 36.7444 279.591 35.7503C279.754 34.7563 279.863 34.1558 279.918 33.9487C280.59 30.5317 281.918 28.8232 283.899 28.8232C284.572 28.8646 285.126 29.0924 285.563 29.5066C285.999 29.9208 286.217 30.4696 286.217 31.153C286.217 31.8985 286.026 32.4369 285.644 32.7683C285.263 33.0996 284.881 33.2756 284.499 33.2963C283.699 33.2963 283.299 32.8615 283.299 31.9917C283.299 31.5982 283.399 31.2565 283.599 30.9666C283.799 30.6767 284.017 30.4592 284.254 30.3143L284.499 30.1589C284.208 30.0347 283.935 29.9726 283.681 29.9726C283.463 29.9726 283.254 30.0761 283.054 30.2832C282.854 30.4903 282.717 30.7802 282.645 31.153C282.517 31.7535 282.372 32.5612 282.208 33.5759C282.045 34.5906 281.899 35.4501 281.772 36.1542C281.645 36.8583 281.581 37.231 281.581 37.2724C281.581 37.3139 282.081 37.3346 283.081 37.3346C283.899 37.3346 284.372 37.3449 284.499 37.3656C284.626 37.3863 284.726 37.4485 284.799 37.552C284.817 37.6348 284.799 37.8109 284.744 38.0801C284.69 38.3493 284.644 38.515 284.608 38.5771C284.572 38.6806 284.49 38.7324 284.363 38.7324C284.235 38.7324 283.745 38.7428 282.89 38.7635H281.363L280.736 42.5532C279.863 47.689 279.254 50.8989 278.909 52.1828C278.418 53.9431 277.782 55.2477 277 56.0968C276.327 56.7595 275.664 57.0908 275.009 57.0908C274.428 57.0908 273.9 56.8941 273.428 56.5006C272.955 56.1071 272.719 55.548 272.719 54.8232C272.719 54.057 272.91 53.4978 273.291 53.1458C273.673 52.7937 274.055 52.6177 274.437 52.6177C275.237 52.6177 275.637 53.0526 275.637 53.9224C275.637 54.3158 275.537 54.6575 275.337 54.9475C275.137 55.2374 274.918 55.4548 274.682 55.5998L274.437 55.7551Z" fill=""/>
<path d="M284.984 49.0794C284.997 48.9916 285.017 48.8744 285.042 48.728C285.068 48.5816 285.145 48.3034 285.274 47.8935C285.402 47.4835 285.531 47.1395 285.659 46.8613C285.788 46.5831 286 46.3122 286.295 46.0487C286.591 45.7852 286.887 45.6607 287.182 45.6754C287.645 45.6754 288.03 45.8071 288.339 46.0707C288.647 46.3342 288.84 46.5831 288.917 46.8174C288.994 47.0516 289.033 47.2054 289.033 47.2786C289.033 47.3078 289.039 47.3225 289.052 47.3225L289.264 47.0809C290.048 46.1439 290.942 45.6754 291.944 45.6754C292.638 45.6754 293.197 45.873 293.621 46.2683C294.046 46.6636 294.264 47.242 294.277 48.0033C294.29 48.7646 294.046 49.914 293.544 51.4513C293.043 52.9886 292.799 53.9183 292.812 54.2404C292.812 54.6211 292.921 54.8114 293.14 54.8114C293.217 54.8114 293.274 54.8041 293.313 54.7895C293.686 54.7163 294.02 54.4381 294.316 53.9549C294.611 53.4718 294.836 52.8861 294.99 52.198C295.016 52.0809 295.145 52.0223 295.376 52.0223C295.633 52.0223 295.761 52.0809 295.761 52.198C295.761 52.2126 295.736 52.3224 295.684 52.5274C295.582 52.952 295.44 53.3693 295.26 53.7792C295.08 54.1892 294.785 54.5991 294.373 55.0091C293.962 55.419 293.519 55.6167 293.043 55.6021C292.439 55.6021 292.002 55.4044 291.732 55.0091C291.462 54.6138 291.327 54.2038 291.327 53.7792C291.327 53.5011 291.559 52.6226 292.021 51.1438C292.484 49.6651 292.722 48.5523 292.735 47.8056C292.735 46.9418 292.452 46.5099 291.886 46.5099H291.79C290.685 46.5099 289.753 47.2493 288.994 48.728L288.86 48.9916L288.223 51.9344C287.799 53.8524 287.555 54.8846 287.491 55.0311C287.324 55.4264 287.047 55.624 286.662 55.624C286.495 55.624 286.36 55.5801 286.257 55.4923C286.154 55.4044 286.083 55.3166 286.045 55.2287C286.006 55.1409 285.993 55.0677 286.006 55.0091C286.006 54.8188 286.25 53.6255 286.739 51.4293C287.227 49.2332 287.484 48.0399 287.51 47.8496C287.523 47.7764 287.529 47.608 287.529 47.3444C287.529 46.7734 287.375 46.4879 287.067 46.4879C286.578 46.4879 286.173 47.22 285.852 48.6841C285.775 48.9769 285.736 49.1307 285.736 49.1453C285.711 49.2332 285.588 49.2771 285.37 49.2771H285.1C285.023 49.1892 284.984 49.1233 284.984 49.0794Z" fill=""/>
<path d="M297.227 50.1778C297.227 50.1778 297.227 50.0826 297.227 49.8923C297.227 49.702 297.317 49.5555 297.496 49.4531H303.261V46.1588L303.28 42.8645C303.409 42.6742 303.531 42.579 303.647 42.579C303.814 42.579 303.942 42.6888 304.032 42.9085V49.4531H309.777C309.97 49.5702 310.067 49.7166 310.067 49.8923C310.067 50.068 309.97 50.2144 309.777 50.3315H304.032V56.8761C303.929 57.0811 303.814 57.1836 303.685 57.1836H303.647H303.608C303.454 57.1836 303.338 57.0811 303.261 56.8761V50.3315H297.496C297.317 50.229 297.227 50.0826 297.227 49.8923V50.1778Z" fill=""/>
<path d="M315.252 42.6899L315.002 42.7997C314.822 42.8729 314.565 42.9461 314.231 43.0193C313.896 43.0925 313.524 43.1438 313.112 43.1731H312.746V42.1628H313.112C313.716 42.1335 314.276 42.0237 314.79 41.8334C315.304 41.6431 315.664 41.4674 315.869 41.3063C316.075 41.1453 316.255 40.9842 316.409 40.8231C316.435 40.7792 316.512 40.7573 316.641 40.7573C316.756 40.7573 316.865 40.8012 316.968 40.889V47.4556L316.988 54.0441C317.078 54.1466 317.155 54.2125 317.219 54.2418C317.283 54.2711 317.437 54.3003 317.682 54.3296C317.926 54.3589 318.324 54.3735 318.877 54.3735H319.378V55.3838H319.166C318.896 55.3399 317.874 55.3179 316.101 55.3179C314.353 55.3179 313.344 55.3399 313.074 55.3838H312.842V54.3735H313.344C313.627 54.3735 313.871 54.3735 314.076 54.3735C314.282 54.3735 314.443 54.3662 314.558 54.3516C314.674 54.3369 314.777 54.315 314.867 54.2857C314.957 54.2564 315.008 54.2418 315.021 54.2418C315.034 54.2418 315.072 54.2052 315.137 54.132C315.201 54.0588 315.24 54.0295 315.252 54.0441V42.6899Z" fill=""/>
<path d="M323.791 27.4561L323.9 27.425C323.991 27.425 324.082 27.425 324.172 27.425H324.5L325.263 28.1705C326.972 29.9308 328.217 32.1259 328.999 34.7559C329.781 37.386 330.172 40.1195 330.172 42.9566C330.172 44.3648 330.081 45.7213 329.899 47.0259C329.717 48.3306 329.508 49.4385 329.272 50.3497C329.035 51.2609 328.699 52.1721 328.263 53.0833C327.826 53.9945 327.481 54.6882 327.227 55.1645C326.972 55.6408 326.599 56.1689 326.109 56.7487C325.618 57.3286 325.327 57.6703 325.236 57.7738C325.145 57.8774 324.936 58.0741 324.609 58.364C324.554 58.4262 324.518 58.4676 324.5 58.4883H324.172C324.027 58.4883 323.927 58.4883 323.872 58.4883C323.818 58.4883 323.772 58.4572 323.736 58.3951C323.7 58.333 323.672 58.2398 323.654 58.1155C323.672 58.0948 323.772 57.9602 323.954 57.7117C326.772 54.3776 328.181 49.4592 328.181 42.9566C328.181 36.4541 326.772 31.5357 323.954 28.2016C323.772 27.9531 323.672 27.8185 323.654 27.7977C323.654 27.6321 323.7 27.5182 323.791 27.4561Z" fill=""/>
<path d="M335.326 42.9566C335.326 41.5277 335.417 40.1713 335.599 38.8873C335.781 37.6034 335.99 36.4955 336.226 35.5636C336.462 34.6317 336.799 33.7205 337.235 32.83C337.671 31.9395 338.017 31.2458 338.271 30.7488C338.526 30.2517 338.908 29.7133 339.417 29.1335C339.926 28.5536 340.226 28.2016 340.316 28.0773C340.407 27.9531 340.635 27.7356 340.998 27.425H341.353H341.462C341.716 27.425 341.843 27.5182 341.843 27.7046C341.843 27.7667 341.689 27.9841 341.38 28.3569C341.071 28.7296 340.698 29.2784 340.262 30.0032C339.826 30.7281 339.38 31.6185 338.926 32.6747C338.471 33.7308 338.089 35.1597 337.78 36.9614C337.471 38.7631 337.317 40.7615 337.317 42.9566C337.317 45.1518 337.471 47.1398 337.78 48.9208C338.089 50.7017 338.462 52.141 338.898 53.2386C339.335 54.3362 339.78 55.2266 340.235 55.91C340.689 56.5934 341.071 57.1422 341.38 57.5564C341.689 57.9706 341.843 58.188 341.843 58.2087C341.843 58.3951 341.707 58.4883 341.434 58.4883H341.353H340.998L340.235 57.7428C338.526 55.9825 337.28 53.7874 336.499 51.1573C335.717 48.5273 335.326 45.7937 335.326 42.9566Z" fill=""/>
<path d="M345.415 50.7217L345.333 50.6596C345.278 50.6388 345.233 50.6078 345.197 50.5664C345.16 50.5249 345.115 50.4628 345.06 50.38C345.006 50.2971 344.979 50.204 344.979 50.1004C344.979 50.0176 345.006 49.914 345.06 49.7898C345.115 49.6448 346.778 46.1243 350.051 39.2283C353.323 32.3322 354.986 28.8428 355.041 28.7599C355.041 28.7392 355.059 28.7082 355.095 28.6667C355.132 28.6253 355.186 28.5839 355.259 28.5425C355.332 28.5011 355.404 28.4804 355.477 28.4804C355.604 28.4804 355.704 28.5218 355.777 28.6046C355.85 28.646 357.568 32.208 360.931 39.2904L365.948 49.883V50.1004C365.948 50.3696 365.821 50.5767 365.567 50.7217H345.415ZM360.004 39.9427L355.477 30.4373C355.459 30.4373 353.95 33.6058 350.95 39.9427C347.951 46.2796 346.451 49.4584 346.451 49.4791H364.503C364.503 49.4377 363.003 46.2589 360.004 39.9427Z" fill=""/>
<path d="M369.03 41.7455C369.157 40.8757 369.648 39.8713 370.503 38.7323C371.357 37.5933 372.411 37.0135 373.666 36.9928C374.302 36.9928 374.884 37.1792 375.411 37.5519C375.938 37.9247 376.329 38.3906 376.584 38.9498C377.347 37.6451 378.265 36.9928 379.338 36.9928C380.01 36.9928 380.592 37.2206 381.083 37.6762C381.574 38.1318 381.828 38.7427 381.846 39.5089C381.846 40.1095 381.719 40.5961 381.465 40.9689C381.21 41.3416 380.965 41.5694 380.728 41.6523C380.492 41.7351 380.283 41.7765 380.101 41.7765C379.756 41.7765 379.474 41.6626 379.256 41.4348C379.038 41.207 378.929 40.9068 378.929 40.534C378.929 39.5814 379.383 38.9291 380.292 38.577C380.092 38.3078 379.729 38.1732 379.201 38.1732C378.965 38.1732 378.792 38.1939 378.683 38.2353C377.992 38.5667 377.483 39.25 377.156 40.2855C376.065 44.8621 375.52 47.5336 375.52 48.2998C375.52 48.8797 375.665 49.2938 375.956 49.5424C376.247 49.7909 376.565 49.9151 376.911 49.9151C377.583 49.9151 378.247 49.5734 378.901 48.89C379.556 48.2066 380.001 47.3679 380.238 46.3739C380.292 46.1668 380.347 46.0529 380.401 46.0322C380.456 46.0115 380.601 45.9908 380.838 45.9701H380.947C381.219 45.9701 381.356 46.0529 381.356 46.2186C381.356 46.2393 381.337 46.3532 381.301 46.5603C381.01 47.7407 380.447 48.7865 379.61 49.6977C378.774 50.6089 377.802 51.0645 376.693 51.0645C375.42 51.0645 374.457 50.4121 373.802 49.1075C373.057 50.3914 372.202 51.0334 371.239 51.0334H371.075C370.184 51.0334 369.548 50.7642 369.166 50.2257C368.785 49.6873 368.585 49.1178 368.566 48.5173C368.566 47.8546 368.739 47.3161 369.085 46.902C369.43 46.4878 369.839 46.2807 370.312 46.2807C371.093 46.2807 371.484 46.7156 371.484 47.5854C371.484 47.9995 371.375 48.3619 371.157 48.6726C370.939 48.9832 370.73 49.1903 370.53 49.2938C370.33 49.3974 370.212 49.4492 370.175 49.4492L370.093 49.4802C370.093 49.5009 370.148 49.5424 370.257 49.6045C370.366 49.6666 370.512 49.7391 370.693 49.8219C370.875 49.9048 371.048 49.9358 371.212 49.9151C371.866 49.9151 372.43 49.4492 372.902 48.5173C373.066 48.1859 373.275 47.4818 373.529 46.405C373.784 45.3281 374.038 44.2098 374.293 43.0501C374.547 41.8904 374.693 41.207 374.729 40.9999C374.82 40.4408 374.866 40.037 374.866 39.7885C374.866 39.2086 374.729 38.7945 374.457 38.5459C374.184 38.2974 373.875 38.1732 373.529 38.1732C372.802 38.1732 372.12 38.5045 371.484 39.1672C370.848 39.8299 370.403 40.679 370.148 41.7144C370.112 41.9008 370.066 42.0043 370.012 42.025C369.957 42.0457 369.812 42.0665 369.575 42.0872H369.194C369.085 41.9629 369.03 41.849 369.03 41.7455Z" fill=""/>
<path d="M384.845 27.4561L384.954 27.425C385.045 27.425 385.136 27.425 385.227 27.425H385.554L386.318 28.1705C388.027 29.9308 389.272 32.1259 390.054 34.7559C390.835 37.386 391.226 40.1195 391.226 42.9566C391.226 44.3648 391.135 45.7213 390.954 47.0259C390.772 48.3306 390.563 49.4385 390.326 50.3497C390.09 51.2609 389.754 52.1721 389.317 53.0833C388.881 53.9945 388.536 54.6882 388.281 55.1645C388.027 55.6408 387.654 56.1689 387.163 56.7487C386.672 57.3286 386.381 57.6703 386.291 57.7738C386.2 57.8774 385.991 58.0741 385.663 58.364C385.609 58.4262 385.573 58.4676 385.554 58.4883H385.227C385.082 58.4883 384.982 58.4883 384.927 58.4883C384.873 58.4883 384.827 58.4572 384.791 58.3951C384.754 58.333 384.727 58.2398 384.709 58.1155C384.727 58.0948 384.827 57.9602 385.009 57.7117C387.827 54.3776 389.236 49.4592 389.236 42.9566C389.236 36.4541 387.827 31.5357 385.009 28.2016C384.827 27.9531 384.727 27.8185 384.709 27.7977C384.709 27.6321 384.754 27.5182 384.845 27.4561Z" fill=""/>
<path d="M394.223 49.0794C394.236 48.9916 394.255 48.8744 394.28 48.728C394.306 48.5816 394.383 48.3034 394.512 47.8935C394.64 47.4835 394.769 47.1395 394.897 46.8613C395.026 46.5831 395.238 46.3122 395.534 46.0487C395.829 45.7852 396.125 45.6607 396.42 45.6754C396.883 45.6754 397.269 45.8071 397.577 46.0707C397.886 46.3342 398.079 46.5831 398.156 46.8174C398.233 47.0516 398.271 47.2054 398.271 47.2786C398.271 47.3078 398.278 47.3225 398.291 47.3225L398.503 47.0809C399.287 46.1439 400.18 45.6754 401.182 45.6754C401.877 45.6754 402.436 45.873 402.86 46.2683C403.284 46.6636 403.502 47.242 403.515 48.0033C403.528 48.7646 403.284 49.914 402.783 51.4513C402.281 52.9886 402.037 53.9183 402.05 54.2404C402.05 54.6211 402.159 54.8114 402.378 54.8114C402.455 54.8114 402.513 54.8041 402.551 54.7895C402.924 54.7163 403.258 54.4381 403.554 53.9549C403.849 53.4718 404.074 52.8861 404.229 52.198C404.254 52.0809 404.383 52.0223 404.614 52.0223C404.871 52.0223 405 52.0809 405 52.198C405 52.2126 404.974 52.3224 404.923 52.5274C404.82 52.952 404.678 53.3693 404.499 53.7792C404.319 54.1892 404.023 54.5991 403.612 55.0091C403.2 55.419 402.757 55.6167 402.281 55.6021C401.677 55.6021 401.24 55.4044 400.97 55.0091C400.7 54.6138 400.566 54.2038 400.566 53.7792C400.566 53.5011 400.797 52.6226 401.26 51.1438C401.722 49.6651 401.96 48.5523 401.973 47.8056C401.973 46.9418 401.69 46.5099 401.125 46.5099H401.028C399.923 46.5099 398.991 47.2493 398.233 48.728L398.098 48.9916L397.462 51.9344C397.037 53.8524 396.793 54.8846 396.729 55.0311C396.562 55.4264 396.286 55.624 395.9 55.624C395.733 55.624 395.598 55.5801 395.495 55.4923C395.392 55.4044 395.322 55.3166 395.283 55.2287C395.244 55.1409 395.232 55.0677 395.244 55.0091C395.244 54.8188 395.489 53.6255 395.977 51.4293C396.465 49.2332 396.723 48.0399 396.748 47.8496C396.761 47.7764 396.768 47.608 396.768 47.3444C396.768 46.7734 396.613 46.4879 396.305 46.4879C395.816 46.4879 395.412 47.22 395.09 48.6841C395.013 48.9769 394.975 49.1307 394.975 49.1453C394.949 49.2332 394.827 49.2771 394.608 49.2771H394.338C394.261 49.1892 394.223 49.1233 394.223 49.0794Z" fill=""/>
<path d="M14.3197 152.47C14.3197 152.137 14.4706 151.827 14.7724 151.541C15.0742 151.255 15.4078 151.104 15.7732 151.088C16.0591 151.088 16.3212 151.231 16.5595 151.517C16.7978 151.803 16.9248 152.256 16.9407 152.876C16.9407 153.336 16.7898 154.25 16.488 155.616C16.2497 156.505 16.0353 157.236 15.8446 157.808C15.654 158.38 15.376 159.023 15.0107 159.738C14.6453 160.453 14.2085 160.993 13.7002 161.358C13.1918 161.724 12.62 161.906 11.9846 161.906C11.2856 161.906 10.6661 161.779 10.126 161.525C9.58591 161.271 9.19672 160.929 8.95844 160.5C8.94256 160.516 8.91873 160.548 8.88696 160.596C8.23567 161.469 7.44142 161.906 6.50419 161.906C6.09118 161.906 5.69405 161.859 5.31281 161.763C4.93157 161.668 4.55827 161.517 4.19291 161.311C3.82755 161.104 3.53368 160.794 3.31128 160.381C3.08889 159.968 2.9777 159.468 2.9777 158.88C2.9777 158.022 3.24774 156.863 3.78784 155.401C4.32793 153.94 4.60592 153.011 4.62181 152.613C4.62181 152.598 4.62181 152.582 4.62181 152.566C4.62181 152.423 4.62181 152.328 4.62181 152.28C4.62181 152.232 4.59004 152.177 4.5265 152.113C4.46296 152.05 4.37559 152.018 4.26439 152.018H4.16908C3.80372 152.018 3.47014 152.169 3.16832 152.47C2.8665 152.772 2.62822 153.098 2.45349 153.447C2.27875 153.797 2.14373 154.13 2.04842 154.448C1.95311 154.766 1.88957 154.941 1.8578 154.972C1.82603 155.004 1.69895 155.02 1.47655 155.02H1.14297C1.04766 154.925 1 154.853 1 154.806C1 154.71 1.06354 154.488 1.19062 154.138C1.3177 153.789 1.50038 153.384 1.73866 152.923C1.97693 152.463 2.32641 152.05 2.78708 151.684C3.24774 151.319 3.76401 151.136 4.33587 151.136C5.01893 151.136 5.54314 151.335 5.9085 151.732C6.27386 152.129 6.45654 152.59 6.45654 153.114C6.45654 153.4 6.19443 154.258 5.67022 155.687C5.14602 157.117 4.88391 158.221 4.88391 158.999C4.88391 159.73 5.0507 160.246 5.38429 160.548C5.71788 160.85 6.13884 161.009 6.64716 161.025C7.33022 161.025 7.93385 160.54 8.45806 159.571L8.5772 159.357V158.809C8.5772 158.761 8.5772 158.69 8.5772 158.594C8.5772 158.499 8.58514 158.435 8.60103 158.404C8.61691 158.372 8.62486 158.316 8.62486 158.237C8.62486 158.157 8.6328 158.086 8.64868 158.022C8.66457 157.959 8.6884 157.856 8.72017 157.713C8.75194 157.57 8.77577 157.435 8.79165 157.308C8.80754 157.18 8.85519 156.99 8.93462 156.736C9.01404 156.481 9.07758 156.227 9.12524 155.973C9.17289 155.719 9.26026 155.377 9.38734 154.949C9.84801 153.138 10.1101 152.161 10.1737 152.018C10.3802 151.589 10.7217 151.374 11.1982 151.374C11.5001 151.374 11.7066 151.454 11.8178 151.613C11.929 151.772 11.9925 151.922 12.0084 152.065C12.0084 152.272 11.7781 153.289 11.3174 155.115C10.8567 156.942 10.6026 157.991 10.5549 158.261C10.5231 158.435 10.5072 158.713 10.5072 159.095V159.261C10.5072 159.5 10.5311 159.73 10.5787 159.952C10.6264 160.175 10.7773 160.405 11.0315 160.643C11.2856 160.882 11.643 161.009 12.1037 161.025C13.2315 161.025 14.1291 160.056 14.7962 158.118C14.9392 157.752 15.098 157.236 15.2728 156.569C15.4475 155.902 15.5428 155.425 15.5587 155.139C15.5587 154.615 15.4555 154.202 15.249 153.9C15.0424 153.598 14.8359 153.344 14.6294 153.138C14.4229 152.931 14.3197 152.709 14.3197 152.47Z" fill="" stroke="" stroke-width="0.2"/>
<path d="M20.8238 145.37C20.8397 145.37 21.4115 145.33 22.5394 145.251C23.6672 145.171 24.247 145.124 24.2788 145.108C24.4694 145.108 24.5647 145.179 24.5647 145.322C24.5647 145.497 24.2788 146.696 23.7069 148.92C23.1033 151.271 22.8015 152.47 22.8015 152.518C22.8015 152.55 22.8571 152.51 22.9683 152.399C23.9373 151.541 24.9698 151.112 26.0659 151.112C26.9237 151.112 27.6147 151.327 28.1389 151.756C28.6631 152.185 28.9331 152.812 28.949 153.638C28.949 154.448 28.6472 155.703 28.0436 157.403C27.4399 159.103 27.1381 160.119 27.1381 160.453C27.154 160.675 27.1937 160.826 27.2573 160.905C27.3208 160.985 27.4399 161.025 27.6147 161.025C28.0595 161.025 28.4725 160.786 28.8537 160.31C29.235 159.833 29.5447 159.182 29.783 158.356C29.8307 158.181 29.8783 158.078 29.926 158.046C29.9736 158.014 30.1007 157.999 30.3072 157.999C30.6249 157.999 30.7838 158.062 30.7838 158.189C30.7838 158.205 30.752 158.324 30.6884 158.547C30.4343 159.484 30.0292 160.254 29.4732 160.858C28.9331 161.541 28.2898 161.882 27.5432 161.882H27.4241C26.6775 161.882 26.1374 161.668 25.8038 161.239C25.4702 160.81 25.3034 160.357 25.3034 159.881C25.3034 159.627 25.5893 158.69 26.1612 157.069C26.7331 155.449 27.0269 154.234 27.0428 153.424C27.0428 152.486 26.6933 152.018 25.9944 152.018H25.8753C24.5568 152.018 23.4131 152.796 22.4441 154.353L22.2773 154.663L21.4671 157.879C20.9588 159.944 20.6649 161.072 20.5855 161.263C20.379 161.692 20.0295 161.906 19.5371 161.906C19.3147 161.906 19.1241 161.835 18.9652 161.692C18.8064 161.549 18.719 161.406 18.7031 161.263C18.7031 161.041 19.2829 158.626 20.4425 154.019L22.2058 146.966C22.2058 146.76 22.1502 146.633 22.039 146.585C21.9278 146.537 21.618 146.498 21.1097 146.466H20.6093C20.514 146.371 20.4664 146.307 20.4664 146.275C20.4664 146.244 20.4823 146.093 20.514 145.823C20.5935 145.521 20.6967 145.37 20.8238 145.37Z" fill="" stroke="" stroke-width="0.2"/>
<path d="M32.2148 157.641C32.2148 156.736 32.3658 155.91 32.6676 155.163C32.9694 154.416 33.3586 153.797 33.8351 153.304C34.3117 152.812 34.8438 152.399 35.4316 152.065C36.0193 151.732 36.5753 151.486 37.0995 151.327C37.6237 151.168 38.1241 151.096 38.6007 151.112H38.6721C39.387 151.112 40.0065 151.287 40.5307 151.637C41.0549 151.986 41.317 152.502 41.317 153.185C41.317 154.615 40.4354 155.552 38.6721 155.997C37.8938 156.203 36.8295 156.315 35.4792 156.331C34.8915 156.331 34.5897 156.346 34.5738 156.378C34.5738 156.41 34.5261 156.688 34.4308 157.212C34.3355 157.736 34.2799 158.197 34.264 158.594C34.264 159.341 34.4308 159.929 34.7644 160.357C35.098 160.786 35.5984 161.009 36.2655 161.025C36.9327 161.041 37.6714 160.89 38.4815 160.572C39.2917 160.254 40.0224 159.73 40.6737 158.999C40.8166 158.84 40.9119 158.761 40.9596 158.761C41.0231 158.761 41.1264 158.832 41.2694 158.975C41.4123 159.118 41.4918 159.23 41.5076 159.309C41.5235 159.388 41.452 159.516 41.2932 159.69C41.1343 159.865 40.8961 160.079 40.5784 160.334C40.2607 160.588 39.8953 160.834 39.4823 161.072C39.0693 161.311 38.5689 161.509 37.9811 161.668C37.3934 161.827 36.7898 161.906 36.1702 161.906C34.9153 161.906 33.9463 161.485 33.2633 160.643C32.5802 159.801 32.2307 158.801 32.2148 157.641ZM40.1733 153.233C40.078 152.407 39.5379 151.994 38.553 151.994C38.0288 151.994 37.5443 152.105 37.0995 152.328C36.6547 152.55 36.2973 152.82 36.0273 153.138C35.7572 153.455 35.5269 153.781 35.3363 154.115C35.1456 154.448 35.0186 154.734 34.955 154.972C34.8915 155.211 34.8518 155.362 34.8359 155.425C34.8359 155.441 34.9947 155.449 35.3124 155.449C37.1075 155.449 38.3624 155.258 39.0772 154.877C39.792 154.496 40.1574 153.948 40.1733 153.233Z" fill="" stroke="" stroke-width="0.2"/>
<path d="M42.8887 154.806C42.9046 154.758 42.9204 154.694 42.9363 154.615C42.9522 154.536 42.9919 154.361 43.0555 154.091C43.119 153.821 43.1984 153.575 43.2937 153.352C43.3891 153.13 43.5082 152.868 43.6512 152.566C43.7941 152.264 43.953 152.026 44.1277 151.851C44.3024 151.676 44.509 151.501 44.7472 151.327C44.9855 151.152 45.2476 151.081 45.5335 151.112C45.9942 151.112 46.3993 151.208 46.7488 151.398C47.0982 151.589 47.3444 151.764 47.4874 151.922C47.6304 152.081 47.7177 152.24 47.7495 152.399C47.7813 152.494 47.8051 152.542 47.821 152.542C47.8369 152.542 47.9004 152.486 48.0116 152.375C48.7741 151.549 49.6557 151.136 50.6565 151.136H50.728C51.4905 151.136 52.0623 151.462 52.4436 152.113C52.5707 152.415 52.6342 152.709 52.6342 152.995C52.6342 153.471 52.5309 153.852 52.3244 154.138C52.1179 154.424 51.9114 154.607 51.7049 154.686C51.4984 154.766 51.2998 154.798 51.1092 154.782C50.7915 154.782 50.5374 154.694 50.3467 154.52C50.1561 154.345 50.0608 154.115 50.0608 153.829C50.0608 153.066 50.5056 152.558 51.3952 152.304C51.0457 152.097 50.7597 151.994 50.5374 151.994C49.6478 151.994 48.8297 152.582 48.0831 153.757C47.9243 154.011 47.8051 154.273 47.7257 154.543C47.6463 154.814 47.3762 155.87 46.9155 157.713C46.3755 159.936 46.0657 161.12 45.9863 161.263C45.7798 161.692 45.4382 161.906 44.9617 161.906C44.7552 161.906 44.5884 161.859 44.4613 161.763C44.3342 161.668 44.2468 161.573 44.1992 161.477C44.1515 161.382 44.1357 161.303 44.1515 161.239C44.1515 161.033 44.4692 159.666 45.1046 157.141C45.7401 154.615 46.0578 153.209 46.0578 152.923C46.0578 152.304 45.8512 151.994 45.4382 151.994C45.1046 151.994 44.8187 152.216 44.5804 152.661C44.3422 153.106 44.1515 153.59 44.0086 154.115C43.8656 154.639 43.7782 154.925 43.7465 154.972C43.7147 155.004 43.5876 155.02 43.3652 155.02H43.0316C42.9363 154.925 42.8887 154.853 42.8887 154.806Z" fill="" stroke="" stroke-width="0.2"/>
<path d="M54.0645 157.641C54.0645 156.736 54.2154 155.91 54.5172 155.163C54.819 154.416 55.2082 153.797 55.6847 153.304C56.1613 152.812 56.6934 152.399 57.2812 152.065C57.8689 151.732 58.4249 151.486 58.9491 151.327C59.4733 151.168 59.9737 151.096 60.4503 151.112H60.5218C61.2366 151.112 61.8561 151.287 62.3803 151.637C62.9045 151.986 63.1666 152.502 63.1666 153.185C63.1666 154.615 62.285 155.552 60.5218 155.997C59.7434 156.203 58.6791 156.315 57.3288 156.331C56.7411 156.331 56.4393 156.346 56.4234 156.378C56.4234 156.41 56.3757 156.688 56.2804 157.212C56.1851 157.736 56.1295 158.197 56.1136 158.594C56.1136 159.341 56.2804 159.929 56.614 160.357C56.9476 160.786 57.448 161.009 58.1152 161.025C58.7823 161.041 59.521 160.89 60.3311 160.572C61.1413 160.254 61.872 159.73 62.5233 158.999C62.6662 158.84 62.7616 158.761 62.8092 158.761C62.8728 158.761 62.976 158.832 63.119 158.975C63.2619 159.118 63.3414 159.23 63.3572 159.309C63.3731 159.388 63.3017 159.516 63.1428 159.69C62.9839 159.865 62.7457 160.079 62.428 160.334C62.1103 160.588 61.7449 160.834 61.3319 161.072C60.9189 161.311 60.4185 161.509 59.8308 161.668C59.243 161.827 58.6394 161.906 58.0198 161.906C56.7649 161.906 55.7959 161.485 55.1129 160.643C54.4298 159.801 54.0803 158.801 54.0645 157.641ZM62.0229 153.233C61.9276 152.407 61.3875 151.994 60.4026 151.994C59.8784 151.994 59.3939 152.105 58.9491 152.328C58.5043 152.55 58.1469 152.82 57.8769 153.138C57.6068 153.455 57.3765 153.781 57.1859 154.115C56.9953 154.448 56.8682 154.734 56.8046 154.972C56.7411 155.211 56.7014 155.362 56.6855 155.425C56.6855 155.441 56.8443 155.449 57.1621 155.449C58.9571 155.449 60.212 155.258 60.9268 154.877C61.6417 154.496 62.007 153.948 62.0229 153.233Z" fill="" stroke="" stroke-width="0.2"/>
<path d="M66.0977 160.81C66.0977 160.81 66.0977 160.611 66.0977 160.214C66.0977 159.817 66.2247 159.475 66.4789 159.19C66.7331 158.904 67.0746 158.761 67.5035 158.761C67.9483 158.761 68.3454 158.959 68.6949 159.356C69.0443 159.753 69.227 160.452 69.2429 161.453C69.2429 162.009 69.1714 162.549 69.0285 163.073C68.8855 163.598 68.7187 164.05 68.5281 164.432C68.3375 164.813 68.131 165.139 67.9086 165.409C67.6862 165.679 67.4955 165.893 67.3367 166.052C67.1778 166.211 67.0746 166.282 67.0269 166.266C66.9634 166.266 66.8601 166.195 66.7172 166.052C66.5742 165.909 66.5027 165.806 66.5027 165.742C66.5027 165.679 66.5901 165.552 66.7648 165.361C66.9396 165.17 67.1381 164.932 67.3605 164.646C67.5829 164.36 67.7894 163.963 67.98 163.455C68.1707 162.946 68.2977 162.367 68.3613 161.715V161.429L68.3375 161.453C68.3057 161.469 68.266 161.485 68.2183 161.501C68.1707 161.517 68.123 161.541 68.0754 161.572C68.0277 161.604 67.9562 161.62 67.8609 161.62C67.7656 161.62 67.6703 161.628 67.575 161.644C67.1461 161.644 66.7966 161.509 66.5266 161.239L66.0977 160.81Z" fill="" stroke="" stroke-width="0.2"/>
<path d="M76.6215 161.644L76.55 161.596C76.5023 161.581 76.4626 161.557 76.4309 161.525C76.3991 161.493 76.3594 161.445 76.3117 161.382C76.2641 161.318 76.2402 161.247 76.2402 161.167C76.2402 161.104 76.2641 161.025 76.3117 160.929C76.3594 160.818 77.8129 158.118 80.6722 152.828C83.5315 147.538 84.985 144.861 85.0326 144.798C85.0326 144.782 85.0485 144.758 85.0803 144.726C85.1121 144.695 85.1597 144.663 85.2233 144.631C85.2868 144.599 85.3503 144.583 85.4139 144.583C85.5251 144.583 85.6125 144.615 85.676 144.679C85.7395 144.711 87.2407 147.443 90.1794 152.875L94.5637 161.001V161.167C94.5637 161.374 94.4525 161.533 94.2301 161.644H76.6215ZM89.3693 153.376L85.4139 146.085C85.398 146.085 84.0795 148.515 81.4585 153.376C78.8375 158.237 77.5269 160.675 77.5269 160.691H93.3009C93.3009 160.659 91.9903 158.221 89.3693 153.376Z" fill="" stroke="" stroke-width="0.2"/>
<path d="M97.2566 154.758C97.3678 154.091 97.7967 153.32 98.5433 152.447C99.2899 151.573 100.211 151.128 101.307 151.112C101.863 151.112 102.372 151.255 102.832 151.541C103.293 151.827 103.635 152.185 103.857 152.613C104.524 151.613 105.326 151.112 106.263 151.112C106.851 151.112 107.36 151.287 107.788 151.637C108.217 151.986 108.44 152.455 108.456 153.042C108.456 153.503 108.344 153.876 108.122 154.162C107.9 154.448 107.685 154.623 107.479 154.686C107.272 154.75 107.09 154.782 106.931 154.782C106.629 154.782 106.383 154.694 106.192 154.52C106.001 154.345 105.906 154.115 105.906 153.829C105.906 153.098 106.303 152.598 107.097 152.328C106.923 152.121 106.605 152.018 106.144 152.018C105.938 152.018 105.787 152.034 105.692 152.065C105.088 152.32 104.643 152.844 104.357 153.638C103.404 157.149 102.928 159.198 102.928 159.786C102.928 160.23 103.055 160.548 103.309 160.739C103.563 160.929 103.841 161.025 104.143 161.025C104.731 161.025 105.31 160.763 105.882 160.238C106.454 159.714 106.843 159.071 107.05 158.308C107.097 158.149 107.145 158.062 107.193 158.046C107.24 158.03 107.368 158.014 107.574 157.999H107.669C107.908 157.999 108.027 158.062 108.027 158.189C108.027 158.205 108.011 158.292 107.979 158.451C107.725 159.357 107.232 160.159 106.502 160.858C105.771 161.557 104.921 161.906 103.952 161.906C102.84 161.906 101.998 161.406 101.426 160.405C100.775 161.39 100.029 161.882 99.1867 161.882H99.0437C98.2653 161.882 97.7094 161.676 97.3758 161.263C97.0422 160.85 96.8674 160.413 96.8516 159.952C96.8516 159.444 97.0025 159.031 97.3043 158.713C97.6061 158.396 97.9635 158.237 98.3765 158.237C99.0596 158.237 99.4011 158.57 99.4011 159.238C99.4011 159.555 99.3058 159.833 99.1152 160.072C98.9246 160.31 98.7419 160.469 98.5672 160.548C98.3924 160.627 98.2892 160.667 98.2574 160.667L98.1859 160.691C98.1859 160.707 98.2336 160.739 98.3289 160.786C98.4242 160.834 98.5513 160.89 98.7101 160.953C98.869 161.017 99.0199 161.041 99.1628 161.025C99.7347 161.025 100.227 160.667 100.64 159.952C100.783 159.698 100.966 159.158 101.188 158.332C101.411 157.506 101.633 156.648 101.855 155.759C102.078 154.869 102.205 154.345 102.237 154.186C102.316 153.757 102.356 153.447 102.356 153.257C102.356 152.812 102.237 152.494 101.998 152.304C101.76 152.113 101.49 152.018 101.188 152.018C100.553 152.018 99.9571 152.272 99.4011 152.78C98.8451 153.289 98.456 153.94 98.2336 154.734C98.2018 154.877 98.1621 154.957 98.1144 154.972C98.0668 154.988 97.9397 155.004 97.7332 155.02H97.3996C97.3043 154.925 97.2566 154.837 97.2566 154.758Z" fill="" stroke="" stroke-width="0.2"/>
<path d="M117.598 153.376C117.598 153.169 117.709 153.011 117.931 152.899H133.109C133.348 153.027 133.467 153.185 133.467 153.376C133.467 153.551 133.356 153.702 133.133 153.829L125.556 153.853H117.979C117.725 153.773 117.598 153.614 117.598 153.376ZM117.598 157.999C117.598 157.76 117.725 157.601 117.979 157.522H133.133C133.356 157.681 133.467 157.84 133.467 157.999C133.467 158.205 133.348 158.364 133.109 158.475H117.931C117.709 158.364 117.598 158.205 117.598 157.999Z" fill="" stroke="" stroke-width="0.2"/>
<path d="M148.404 130.12C148.404 129.961 148.435 129.779 148.499 129.572C148.562 129.366 148.658 129.262 148.785 129.262C148.801 129.262 149.372 129.223 150.5 129.143C151.628 129.064 152.208 129.016 152.24 129C152.43 129 152.526 129.072 152.526 129.215C152.526 129.358 152.256 130.494 151.716 132.622C151.588 133.162 151.453 133.718 151.31 134.29C151.168 134.862 151.048 135.291 150.953 135.577L150.858 136.029C150.858 136.077 150.905 136.053 151.001 135.958C151.779 135.323 152.581 135.005 153.407 135.005C154.392 135.005 155.186 135.37 155.79 136.101C156.394 136.832 156.703 137.753 156.719 138.865C156.719 140.628 156.092 142.225 154.837 143.654C153.582 145.084 152.232 145.799 150.786 145.799C149.992 145.799 149.269 145.497 148.618 144.893C147.967 144.29 147.633 143.313 147.617 141.963V141.748C147.617 141.415 147.681 140.954 147.808 140.366C147.935 139.778 148.324 138.214 148.975 135.672C149.77 132.543 150.167 130.883 150.167 130.692C150.167 130.501 149.865 130.39 149.261 130.358C149.182 130.358 149.118 130.358 149.071 130.358H148.952C148.793 130.358 148.689 130.358 148.642 130.358C148.594 130.358 148.539 130.335 148.475 130.287C148.411 130.239 148.388 130.184 148.404 130.12ZM154.67 137.793V137.65C154.67 136.474 154.186 135.887 153.217 135.887C152.947 135.887 152.669 135.95 152.383 136.077C152.097 136.204 151.835 136.371 151.596 136.578C151.358 136.784 151.152 136.975 150.977 137.149C150.802 137.324 150.659 137.499 150.548 137.674L150.405 137.864L149.905 139.913C149.555 141.28 149.38 142.249 149.38 142.82C149.38 143.583 149.571 144.155 149.952 144.536C150.206 144.79 150.524 144.917 150.905 144.917C151.43 144.917 151.962 144.663 152.502 144.155C152.899 143.789 153.217 143.345 153.455 142.82C153.693 142.296 153.955 141.462 154.241 140.318C154.527 139.175 154.67 138.333 154.67 137.793Z" fill="" stroke="" stroke-width="0.2"/>
<path d="M164.182 139.889C164.182 139.889 164.182 139.786 164.182 139.58C164.182 139.373 164.293 139.214 164.515 139.103H178.359C178.597 139.23 178.717 139.389 178.717 139.58C178.717 139.77 178.597 139.929 178.359 140.056H164.515C164.293 139.945 164.182 139.786 164.182 139.58V139.889Z" fill="" stroke="" stroke-width="0.2"/>
<path d="M186.799 141.796C186.799 140.191 187.402 138.666 188.61 137.221C189.817 135.775 191.175 135.045 192.684 135.029C193.494 135.029 194.209 135.418 194.829 136.196C195.083 135.72 195.448 135.481 195.925 135.481C196.131 135.481 196.314 135.545 196.473 135.672C196.632 135.799 196.711 135.958 196.711 136.149C196.711 136.355 196.417 137.626 195.83 139.961C195.242 142.296 194.94 143.615 194.924 143.916C194.924 144.313 194.98 144.576 195.091 144.703C195.202 144.83 195.369 144.901 195.591 144.917C195.734 144.901 195.893 144.83 196.068 144.703C196.401 144.385 196.727 143.622 197.045 142.415C197.14 142.097 197.219 141.931 197.283 141.915C197.315 141.899 197.394 141.891 197.521 141.891H197.617C197.918 141.891 198.069 141.962 198.069 142.105C198.069 142.201 198.03 142.415 197.95 142.749C197.871 143.082 197.712 143.511 197.474 144.035C197.235 144.56 196.981 144.957 196.711 145.227C196.505 145.433 196.25 145.6 195.949 145.727C195.822 145.759 195.631 145.775 195.377 145.775C194.837 145.775 194.384 145.656 194.019 145.417C193.653 145.179 193.415 144.933 193.304 144.679L193.161 144.321C193.145 144.306 193.113 144.313 193.066 144.345C193.034 144.377 193.002 144.409 192.97 144.441C192.033 145.33 191.08 145.775 190.111 145.775C189.237 145.775 188.467 145.457 187.8 144.822C187.132 144.186 186.799 143.178 186.799 141.796ZM194.376 137.721C194.376 137.626 194.336 137.451 194.257 137.197C194.177 136.943 193.995 136.665 193.709 136.363C193.423 136.061 193.058 135.902 192.613 135.886C192.057 135.886 191.525 136.133 191.016 136.625C190.508 137.118 190.111 137.761 189.825 138.555C189.364 139.81 189.039 141.113 188.848 142.463C188.848 142.511 188.848 142.598 188.848 142.725C188.848 142.852 188.84 142.947 188.824 143.011C188.824 143.726 188.967 144.218 189.253 144.488C189.539 144.758 189.881 144.901 190.278 144.917C190.881 144.917 191.477 144.655 192.065 144.131C192.652 143.607 193.002 143.202 193.113 142.916C193.145 142.852 193.359 142.002 193.757 140.366C194.154 138.73 194.36 137.848 194.376 137.721Z" fill="" stroke="" stroke-width="0.2"/>
<path d="M165.992 171.151C166.008 171.056 166.032 170.929 166.064 170.77C166.095 170.611 166.191 170.309 166.35 169.865C166.508 169.42 166.667 169.047 166.826 168.745C166.985 168.443 167.247 168.149 167.612 167.863C167.978 167.577 168.343 167.442 168.709 167.458C169.28 167.458 169.757 167.601 170.138 167.887C170.519 168.173 170.758 168.443 170.853 168.697C170.948 168.951 170.996 169.118 170.996 169.197C170.996 169.229 171.004 169.245 171.02 169.245L171.282 168.983C172.251 167.966 173.355 167.458 174.594 167.458C175.452 167.458 176.143 167.672 176.667 168.101C177.191 168.53 177.461 169.158 177.477 169.984C177.493 170.81 177.191 172.057 176.572 173.725C175.952 175.393 175.65 176.401 175.666 176.751C175.666 177.164 175.801 177.37 176.071 177.37C176.167 177.37 176.238 177.362 176.286 177.347C176.746 177.267 177.159 176.965 177.525 176.441C177.89 175.917 178.168 175.281 178.359 174.535C178.391 174.408 178.549 174.344 178.835 174.344C179.153 174.344 179.312 174.408 179.312 174.535C179.312 174.551 179.28 174.67 179.217 174.892C179.089 175.353 178.915 175.806 178.692 176.25C178.47 176.695 178.105 177.14 177.596 177.585C177.088 178.03 176.54 178.244 175.952 178.228C175.206 178.228 174.665 178.014 174.332 177.585C173.998 177.156 173.831 176.711 173.831 176.25C173.831 175.949 174.117 174.996 174.689 173.391C175.261 171.787 175.555 170.579 175.571 169.769C175.571 168.832 175.221 168.363 174.522 168.363H174.403C173.037 168.363 171.886 169.166 170.948 170.77L170.782 171.056L169.995 174.249C169.471 176.33 169.169 177.45 169.09 177.609C168.883 178.038 168.542 178.252 168.065 178.252C167.859 178.252 167.692 178.204 167.565 178.109C167.438 178.014 167.35 177.918 167.303 177.823C167.255 177.728 167.239 177.648 167.255 177.585C167.255 177.378 167.557 176.084 168.161 173.701C168.764 171.318 169.082 170.023 169.114 169.817C169.129 169.738 169.137 169.555 169.137 169.269C169.137 168.649 168.947 168.34 168.566 168.34C167.962 168.34 167.462 169.134 167.064 170.722C166.969 171.04 166.921 171.207 166.921 171.223C166.89 171.318 166.739 171.366 166.469 171.366H166.135C166.04 171.27 165.992 171.199 165.992 171.151Z" fill="" stroke="" stroke-width="0.2"/>
<path d="M201.001 156.402H144.281V154.972H201.001V156.402Z" fill="" stroke="" stroke-width="0.2"/>
</svg>
