<svg width="236" height="235" viewBox="0 0 236 235" fill="none" xmlns="http://www.w3.org/2000/svg">
<path fill-rule="evenodd" clip-rule="evenodd" d="M234.131 0.985144L0.774788 107.848L235.845 234.2L234.131 0.985144ZM218.639 222.411L20.5141 115.917L133.304 149.01L218.639 222.411ZM17.2697 112.687L134.597 147.112L223.365 223.465L144.117 133.136L17.2697 112.687ZM154.91 117.29L19.4782 110.863L145.456 131.171L224.16 220.881L154.91 117.29ZM22.0651 108.858L156.314 115.23L224.959 217.915L165.686 101.471L22.0651 108.858ZM176.447 85.6722L25.041 106.599L167.172 99.2886L225.83 214.525L176.447 85.6722ZM28.4088 104.028L178.03 83.3475L226.832 210.682L187.196 69.8916L28.4088 104.028ZM197.935 54.1255L32.1668 101.099L188.888 67.4064L228.009 206.366L197.935 54.1255ZM36.3106 97.7778L199.747 51.4653L229.398 201.563L208.665 38.3713L36.3106 97.7778ZM221.177 20.0034L35.4927 95.8811L210.605 35.5242L231.669 201.327L221.177 20.0034ZM46.5941 89.124L223.273 16.9262L233.256 189.456L231.895 4.26793L46.5941 89.124Z" fill="url(#paint0_linear_1618_1644)" fill-opacity="0.6"/>
<defs>
<linearGradient id="paint0_linear_1618_1644" x1="229.167" y1="230.61" x2="128.922" y2="45.8212" gradientUnits="userSpaceOnUse">
<stop stop-color="white"/>
<stop offset="1" stop-color="white" stop-opacity="0"/>
</linearGradient>
</defs>
</svg>
