<svg width="239" height="48" viewBox="0 0 239 48" fill="none" xmlns="http://www.w3.org/2000/svg">
<path d="M1.26554 46.6175C1.52294 46.9919 1.88758 47.1791 2.35948 47.1791H2.40238C2.80277 47.1791 3.20317 46.7471 3.60356 45.883C4.00396 45.019 4.37576 43.8381 4.71895 42.3404C5.06215 40.8427 5.3839 39.3378 5.68419 37.8257C5.98449 36.3136 6.28479 34.679 6.58509 32.9221C6.62798 32.6197 6.66373 32.3965 6.69233 32.2525C7.72192 26.132 8.83731 20.458 10.0385 15.2304C11.2397 10.0029 12.112 6.60423 12.6554 5.03451C12.7412 4.77529 12.8127 4.55928 12.8699 4.38647C12.9271 4.21365 13.0486 3.89683 13.2345 3.436C13.4204 2.97516 13.6135 2.57194 13.8137 2.22631C14.0139 1.88069 14.257 1.52786 14.543 1.16783C14.829 0.807809 15.1436 0.519788 15.4867 0.303773C15.8299 0.0877573 16.1946 -0.0130499 16.5807 0.00135114C17.3815 0.00135114 17.9821 0.253369 18.3825 0.757405C18.7829 1.26144 19.0117 1.83748 19.0689 2.48553C19.0689 2.84556 18.9831 3.13358 18.8115 3.34959C18.6399 3.56561 18.4754 3.70242 18.3181 3.76002C18.1608 3.81763 18.0035 3.83923 17.8462 3.82483C17.5459 3.82483 17.2742 3.71682 17.0311 3.5008C16.788 3.28479 16.6665 2.98957 16.6665 2.61514C16.6665 1.92389 17.0454 1.51346 17.8033 1.38385L17.739 1.29744C17.6961 1.25424 17.6389 1.20384 17.5674 1.14623C17.4959 1.08863 17.4387 1.04543 17.3958 1.01662C17.1813 0.872614 16.9453 0.800609 16.6879 0.800609C16.4877 0.800609 16.3018 0.887015 16.1302 1.05983C15.9586 1.23264 15.7298 1.63587 15.4438 2.26951C15.1579 2.90316 14.879 3.73842 14.6073 4.77529C14.3356 5.81217 13.9996 7.27387 13.5992 9.16041C13.1988 11.0469 12.7984 13.2647 12.398 15.8137C11.5543 20.638 10.6748 25.196 9.75965 29.4875C8.84446 33.779 8.12947 36.8896 7.61468 38.8193C7.09988 40.7491 6.70663 42.1316 6.43494 42.9668C5.33385 46.3223 3.97536 48 2.35948 48C1.78748 48 1.26554 47.7768 0.793642 47.3304C0.321747 46.8839 0.0571994 46.2719 0 45.4942C0 44.9902 0.135849 44.6446 0.407546 44.4573C0.679243 44.2701 0.950941 44.1765 1.22264 44.1765C1.52294 44.1765 1.79463 44.2845 2.03773 44.5005C2.28083 44.7166 2.40238 45.0118 2.40238 45.3862C2.40238 46.0775 2.02343 46.4879 1.26554 46.6175Z" fill="black"/>
<path d="M27.1836 25.9448C27.1836 24.3751 27.7985 22.9638 29.0283 21.7109C30.2581 20.458 31.588 19.8315 33.0179 19.8315C33.8187 19.8315 34.4479 20.0044 34.9055 20.35C35.3631 20.6956 35.5991 21.1492 35.6134 21.7109C35.6134 22.1285 35.4775 22.4813 35.2058 22.7693C34.9341 23.0574 34.5909 23.2086 34.1762 23.223C33.9045 23.223 33.69 23.151 33.5327 23.007C33.3754 22.863 33.2968 22.6469 33.2968 22.3589C33.2968 22.0709 33.3754 21.8261 33.5327 21.6245C33.69 21.4229 33.8473 21.2716 34.0046 21.1708C34.1619 21.07 34.262 21.0268 34.3049 21.0412H34.3264C34.3264 21.0124 34.2835 20.9692 34.1977 20.9116C34.1119 20.854 33.9617 20.7964 33.7472 20.7388C33.5327 20.6812 33.2896 20.6524 33.0179 20.6524C32.5889 20.6524 32.1814 20.7532 31.7953 20.9548C31.495 21.0844 31.1876 21.3076 30.873 21.6245C30.2438 22.2581 29.7862 23.151 29.5002 24.3031C29.2142 25.4551 29.064 26.2904 29.0497 26.8088C29.0497 27.4713 29.2356 27.9681 29.6074 28.2993C29.922 28.645 30.3367 28.8178 30.8515 28.8178H30.9373C32.5389 28.8178 33.8616 28.2057 34.9055 26.9817C35.0342 26.8376 35.12 26.7656 35.1629 26.7656C35.2201 26.7656 35.3131 26.8304 35.4418 26.9601C35.5705 27.0897 35.642 27.1905 35.6563 27.2625C35.6706 27.3345 35.6062 27.4425 35.4632 27.5865C35.3202 27.7305 35.1129 27.9321 34.8412 28.1913C34.5695 28.4506 34.2477 28.6666 33.8759 28.8394C33.5041 29.0122 33.0465 29.1922 32.5031 29.3794C31.9597 29.5666 31.3878 29.6458 30.7872 29.617C29.7147 29.617 28.8495 29.2714 28.1917 28.5802C27.5339 27.8889 27.1979 27.0105 27.1836 25.9448Z" fill="black"/>
<path d="M40.0533 29.6169C38.9808 29.6169 38.1157 29.2641 37.4579 28.5585C36.8001 27.8528 36.4712 27.0032 36.4712 26.0095C36.4712 25.0734 36.6857 24.1878 37.1147 23.3525C37.5437 22.5172 38.13 21.79 38.8736 21.1707C39.9604 20.2923 41.0686 19.853 42.1983 19.853C42.6559 19.853 42.9419 19.8602 43.0563 19.8746C43.2422 19.9178 43.4281 19.9683 43.614 20.0259C43.7999 20.0835 44.0501 20.1987 44.3647 20.3715C44.6793 20.5443 44.9367 20.7603 45.1369 21.0195C45.3371 21.2787 45.523 21.6316 45.6946 22.078C45.8662 22.5244 45.952 23.0285 45.952 23.5901C45.952 25.131 45.3371 26.5207 44.1073 27.7592C42.8775 28.9977 41.5262 29.6169 40.0533 29.6169ZM38.3373 26.7871C38.3373 27.5072 38.5232 28.0256 38.895 28.3425C39.2668 28.6593 39.6887 28.8177 40.1606 28.8177C40.7897 28.8177 41.3832 28.5873 41.9409 28.1264C42.4986 27.6656 42.9419 27.0608 43.2708 26.3119C43.3995 26.0095 43.5639 25.4766 43.7641 24.7134C43.9643 23.9501 44.0644 23.2877 44.0644 22.726C44.0644 22.0924 43.9357 21.61 43.6783 21.2787C43.3351 20.8467 42.8775 20.6307 42.3055 20.6307C41.4046 20.6307 40.611 21.0483 39.9246 21.8836C39.3955 22.5172 39.0023 23.3597 38.7449 24.411C38.4875 25.4622 38.3516 26.2543 38.3373 26.7871Z" fill="black"/>
<path d="M48.9548 23.1366C48.9548 22.6758 49.0692 22.2077 49.298 21.7325C49.5268 21.2573 49.9272 20.818 50.4992 20.4148C51.0712 20.0116 51.7647 19.8172 52.5798 19.8316C53.4664 19.8316 54.1099 20.026 54.5103 20.4148C54.9107 20.8036 55.1181 21.2357 55.1324 21.7109C55.1324 22.1717 55.0108 22.5101 54.7677 22.7262C54.5246 22.9422 54.2529 23.0574 53.9526 23.0718C53.7667 23.0718 53.5951 23.0142 53.4378 22.899C53.2805 22.7838 53.1947 22.5966 53.1804 22.3373C53.1804 22.1069 53.2448 21.9053 53.3735 21.7325C53.5022 21.5597 53.6237 21.4301 53.7381 21.3437C53.8525 21.2573 53.9455 21.2141 54.017 21.2141C54.0313 21.2141 54.0384 21.2069 54.0384 21.1925C54.0384 21.1493 53.9884 21.0844 53.8883 20.998C53.7882 20.9116 53.6094 20.8324 53.352 20.7604C53.0946 20.6884 52.8158 20.6452 52.5155 20.6308C51.8291 20.6308 51.3286 20.818 51.014 21.1925C50.6994 21.5669 50.535 21.9485 50.5207 22.3373C50.5207 22.6974 50.6565 22.9494 50.9282 23.0934C51.1999 23.2374 51.5931 23.3598 52.1079 23.4606C52.6227 23.5614 52.9945 23.6694 53.2233 23.7846C54.1671 24.2023 54.639 24.8935 54.639 25.8584C54.639 26.2616 54.5604 26.6648 54.4031 27.0681C54.2458 27.4713 54.0098 27.8745 53.6952 28.2778C53.3806 28.681 52.9302 28.9978 52.3439 29.2282C51.7576 29.4586 51.0855 29.5811 50.3276 29.5955C49.2265 29.5955 48.4472 29.3866 47.9896 28.969C47.532 28.5514 47.296 28.0617 47.2817 27.5001C47.2817 26.9385 47.4319 26.5352 47.7322 26.2904C48.0325 26.0456 48.3471 25.9232 48.676 25.9232C48.8905 25.9232 49.0907 25.988 49.2766 26.1176C49.4625 26.2472 49.5626 26.4704 49.5769 26.7873C49.5769 27.1617 49.4482 27.4785 49.1908 27.7377C48.9334 27.9969 48.7117 28.1266 48.5258 28.1266C48.4972 28.141 48.4758 28.1482 48.4615 28.1482C48.4472 28.1482 48.44 28.1626 48.44 28.1914C48.4543 28.2346 48.5115 28.2922 48.6116 28.3642C48.7117 28.4362 48.9334 28.5298 49.2766 28.645C49.6198 28.7602 50.013 28.8106 50.4563 28.7962C50.9711 28.7962 51.4144 28.717 51.7862 28.5586C52.158 28.4002 52.4297 28.1986 52.6013 27.9537C52.7729 27.7089 52.8944 27.4857 52.9659 27.2841C53.0374 27.0825 53.0732 26.9025 53.0732 26.7441C53.0732 26.3408 52.923 26.0384 52.6227 25.8368C52.3224 25.6352 51.9792 25.5128 51.5931 25.4696C51.207 25.4264 50.7852 25.3184 50.3276 25.1455C49.87 24.9727 49.534 24.7207 49.3195 24.3895C49.0764 24.0295 48.9548 23.6118 48.9548 23.1366Z" fill="black"/>
<path d="M58.2212 23.9793C58.2212 22.9856 58.2927 22.0423 58.4357 21.1494C58.5787 20.2566 58.7431 19.4861 58.929 18.8381C59.1149 18.19 59.3795 17.5564 59.7227 16.9371C60.0659 16.3179 60.3376 15.8355 60.5378 15.4898C60.738 15.1442 61.0383 14.7698 61.4387 14.3666C61.8391 13.9633 62.075 13.7185 62.1465 13.6321C62.218 13.5457 62.3968 13.3945 62.6827 13.1785H62.9616H63.0474C63.2476 13.1785 63.3477 13.2433 63.3477 13.3729C63.3477 13.4161 63.2261 13.5673 62.983 13.8265C62.7399 14.0857 62.4468 14.4674 62.1036 14.9714C61.7604 15.4754 61.4101 16.0947 61.0526 16.8291C60.6951 17.5636 60.3948 18.5573 60.1517 19.8102C59.9086 21.063 59.787 22.4527 59.787 23.9793C59.787 25.5058 59.9086 26.8883 60.1517 28.1268C60.3948 29.3652 60.6879 30.3661 61.0311 31.1294C61.3743 31.8926 61.7247 32.5119 62.0822 32.9871C62.4396 33.4623 62.7399 33.844 62.983 34.132C63.2261 34.42 63.3477 34.5712 63.3477 34.5856C63.3477 34.7152 63.2404 34.78 63.0259 34.78H62.9616H62.6827L62.0822 34.2616C60.738 33.0375 59.7584 31.511 59.1435 29.6821C58.5286 27.8531 58.2212 25.9522 58.2212 23.9793Z" fill="black"/>
<path d="M65.664 23.1365C65.7641 22.5316 66.1502 21.8332 66.8223 21.0411C67.4943 20.2491 68.3237 19.8458 69.3104 19.8314C69.8109 19.8314 70.2685 19.961 70.6832 20.2203C71.0979 20.4795 71.4054 20.8035 71.6056 21.1923C72.2061 20.2851 72.9283 19.8314 73.772 19.8314C74.3011 19.8314 74.7587 19.9899 75.1448 20.3067C75.5309 20.6235 75.7311 21.0483 75.7454 21.5812C75.7454 21.9988 75.6453 22.3372 75.4451 22.5964C75.2449 22.8557 75.0518 23.0141 74.8659 23.0717C74.68 23.1293 74.5156 23.1581 74.3726 23.1581C74.1009 23.1581 73.8792 23.0789 73.7076 22.9205C73.536 22.7621 73.4502 22.5532 73.4502 22.294C73.4502 21.6316 73.8077 21.1779 74.5227 20.9331C74.3654 20.7459 74.0794 20.6523 73.6647 20.6523C73.4788 20.6523 73.343 20.6667 73.2572 20.6955C72.7138 20.9259 72.3134 21.4012 72.056 22.1212C71.198 25.3038 70.769 27.1616 70.769 27.6944C70.769 28.0976 70.8834 28.3857 71.1122 28.5585C71.341 28.7313 71.5913 28.8177 71.863 28.8177C72.392 28.8177 72.914 28.5801 73.4288 28.1048C73.9436 27.6296 74.2939 27.0464 74.4798 26.3551C74.5227 26.2111 74.5656 26.1319 74.6085 26.1175C74.6514 26.1031 74.7658 26.0887 74.9517 26.0743H75.0375C75.252 26.0743 75.3593 26.1319 75.3593 26.2471C75.3593 26.2615 75.345 26.3407 75.3164 26.4847C75.0876 27.3056 74.6443 28.0328 73.9865 28.6665C73.3287 29.3001 72.5636 29.6169 71.6914 29.6169C70.6904 29.6169 69.9325 29.1633 69.4177 28.256C68.8314 29.1489 68.1593 29.5953 67.4014 29.5953H67.2727C66.572 29.5953 66.0715 29.4081 65.7712 29.0337C65.4709 28.6593 65.3136 28.2632 65.2993 27.8456C65.2993 27.3848 65.4352 27.0104 65.7069 26.7223C65.9786 26.4343 66.3003 26.2903 66.6721 26.2903C67.287 26.2903 67.5944 26.5927 67.5944 27.1976C67.5944 27.4856 67.5086 27.7376 67.337 27.9536C67.1654 28.1696 67.001 28.3136 66.8437 28.3857C66.6864 28.4577 66.5935 28.4937 66.5649 28.4937L66.5005 28.5153C66.5005 28.5297 66.5434 28.5585 66.6292 28.6017C66.715 28.6449 66.8294 28.6953 66.9724 28.7529C67.1154 28.8105 67.2512 28.8321 67.3799 28.8177C67.8947 28.8177 68.338 28.4937 68.7098 27.8456C68.8385 27.6152 69.003 27.1256 69.2032 26.3767C69.4034 25.6279 69.6036 24.8502 69.8038 24.0437C70.004 23.2373 70.1184 22.7621 70.147 22.618C70.2185 22.2292 70.2542 21.9484 70.2542 21.7756C70.2542 21.3724 70.147 21.0843 69.9325 20.9115C69.718 20.7387 69.4749 20.6523 69.2032 20.6523C68.6312 20.6523 68.0949 20.8827 67.5944 21.3435C67.0939 21.8044 66.7436 22.3948 66.5434 23.1149C66.5148 23.2445 66.4791 23.3165 66.4362 23.3309C66.3933 23.3453 66.2789 23.3597 66.093 23.3741H65.7927C65.7069 23.2877 65.664 23.2085 65.664 23.1365Z" fill="black"/>
<path d="M78.1048 13.2001L78.1906 13.1785C78.2621 13.1785 78.3336 13.1785 78.4051 13.1785H78.6625L79.2631 13.6969C80.6073 14.921 81.5868 16.4475 82.2017 18.2764C82.8166 20.1054 83.1241 22.0063 83.1241 23.9793C83.1241 24.9585 83.0526 25.9018 82.9096 26.8091C82.7666 27.7163 82.6021 28.4868 82.4162 29.1204C82.2303 29.7541 81.9658 30.3877 81.6226 31.0214C81.2794 31.655 81.0077 32.1374 80.8075 32.4687C80.6073 32.7999 80.3141 33.1671 79.928 33.5703C79.5419 33.9736 79.3131 34.2112 79.2416 34.2832C79.1701 34.3552 79.0057 34.492 78.7483 34.6936C78.7054 34.7368 78.6768 34.7656 78.6625 34.78H78.4051C78.2907 34.78 78.2121 34.78 78.1692 34.78C78.1263 34.78 78.0905 34.7584 78.0619 34.7152C78.0333 34.672 78.0119 34.6072 77.9976 34.5208C78.0119 34.5064 78.0905 34.4128 78.2335 34.24C80.45 31.9214 81.5582 28.5012 81.5582 23.9793C81.5582 19.4573 80.45 16.0371 78.2335 13.7185C78.0905 13.5457 78.0119 13.4521 77.9976 13.4377C77.9976 13.3225 78.0333 13.2433 78.1048 13.2001Z" fill="black"/>
<path d="M93.0129 14.6256C93.0272 14.6256 93.542 14.5896 94.5573 14.5176C95.5726 14.4456 96.0945 14.4024 96.1231 14.388C96.2947 14.388 96.3805 14.4456 96.3805 14.5608C96.3805 14.6616 95.8586 16.8361 94.8147 21.0844C93.7708 25.3328 93.2345 27.5001 93.2059 27.5865C93.1773 27.6729 93.1702 27.7809 93.1845 27.9105C93.1845 28.5154 93.3847 28.8178 93.7851 28.8178C93.9138 28.8034 94.0568 28.7386 94.2141 28.6234C94.5144 28.3354 94.8075 27.6441 95.0935 26.5496C95.1793 26.2616 95.2508 26.1104 95.308 26.096C95.3366 26.0816 95.4081 26.0744 95.5225 26.0744H95.6083H95.6941C95.9086 26.0744 96.0159 26.132 96.0159 26.2472C96.0159 26.3192 95.9944 26.4344 95.9515 26.5928C95.7656 27.3129 95.5511 27.8961 95.308 28.3426C95.0649 28.789 94.8647 29.077 94.7074 29.2066C94.5501 29.3362 94.3499 29.4514 94.1068 29.5523C93.9924 29.5811 93.8208 29.5955 93.592 29.5955C93.1058 29.5955 92.6983 29.4875 92.3694 29.2714C92.0405 29.0554 91.826 28.8322 91.7259 28.6018L91.5972 28.2778C91.5829 28.2634 91.5543 28.2706 91.5114 28.2994C91.4828 28.3282 91.4542 28.357 91.4256 28.3858C90.5819 29.1922 89.7239 29.5955 88.8516 29.5955C88.0651 29.5955 87.3716 29.3074 86.771 28.7314C86.1704 28.1554 85.8701 27.2409 85.8701 25.988C85.8701 25.2968 86.0131 24.5911 86.2991 23.871C86.5851 23.151 86.9283 22.5318 87.3287 22.0133C88.0008 21.1925 88.6729 20.6236 89.345 20.3068C90.0171 19.99 90.6248 19.8316 91.1682 19.8316C91.969 19.8316 92.5696 20.134 92.97 20.7388C93.0415 20.8252 93.0772 20.854 93.0772 20.8252C93.0915 20.7676 93.2846 19.9828 93.6564 18.4707C94.0282 16.9586 94.2284 16.1593 94.257 16.0729C94.257 15.8857 94.2069 15.7705 94.1068 15.7273C94.0067 15.6841 93.7279 15.6481 93.2703 15.6193H92.8198C92.734 15.5328 92.6912 15.4752 92.6912 15.4464C92.6912 15.4176 92.7055 15.2808 92.734 15.036C92.8055 14.7624 92.8985 14.6256 93.0129 14.6256ZM92.7126 22.3373C92.3837 21.1997 91.8475 20.6308 91.1039 20.6308C90.6034 20.6308 90.1243 20.854 89.6667 21.3005C89.2091 21.7469 88.8516 22.3301 88.5942 23.0502C88.1795 24.1879 87.8864 25.3688 87.7148 26.5928C87.7148 26.636 87.7148 26.7153 87.7148 26.8305C87.7148 26.9457 87.7076 27.0321 87.6933 27.0897C87.6933 27.7377 87.822 28.1842 88.0794 28.429C88.3368 28.6738 88.6443 28.8034 89.0018 28.8178C89.774 28.8178 90.5676 28.2994 91.3827 27.2625L91.5543 27.0249L92.7126 22.3373Z" fill="black"/>
<path d="M97.4315 23.1365C97.5316 22.5316 97.9177 21.8332 98.5898 21.0411C99.2619 20.2491 100.091 19.8458 101.078 19.8314C101.579 19.8314 102.036 19.961 102.451 20.2203C102.865 20.4795 103.173 20.8035 103.373 21.1923C103.974 20.2851 104.696 19.8314 105.54 19.8314C106.069 19.8314 106.526 19.9899 106.912 20.3067C107.298 20.6235 107.499 21.0483 107.513 21.5812C107.513 21.9988 107.413 22.3372 107.213 22.5964C107.012 22.8557 106.819 23.0141 106.634 23.0717C106.448 23.1293 106.283 23.1581 106.14 23.1581C105.868 23.1581 105.647 23.0789 105.475 22.9205C105.304 22.7621 105.218 22.5532 105.218 22.294C105.218 21.6316 105.575 21.1779 106.29 20.9331C106.133 20.7459 105.847 20.6523 105.432 20.6523C105.246 20.6523 105.111 20.6667 105.025 20.6955C104.481 20.9259 104.081 21.4012 103.824 22.1212C102.966 25.3038 102.537 27.1616 102.537 27.6944C102.537 28.0976 102.651 28.3857 102.88 28.5585C103.109 28.7313 103.359 28.8177 103.631 28.8177C104.16 28.8177 104.682 28.5801 105.196 28.1048C105.711 27.6296 106.062 27.0464 106.247 26.3551C106.29 26.2111 106.333 26.1319 106.376 26.1175C106.419 26.1031 106.533 26.0887 106.719 26.0743H106.805C107.02 26.0743 107.127 26.1319 107.127 26.2471C107.127 26.2615 107.113 26.3407 107.084 26.4847C106.855 27.3056 106.412 28.0328 105.754 28.6665C105.096 29.3001 104.331 29.6169 103.459 29.6169C102.458 29.6169 101.7 29.1633 101.185 28.256C100.599 29.1489 99.9269 29.5953 99.169 29.5953H99.0403C98.3396 29.5953 97.8391 29.4081 97.5388 29.0337C97.2385 28.6593 97.0812 28.2632 97.0669 27.8456C97.0669 27.3848 97.2027 27.0104 97.4744 26.7223C97.7461 26.4343 98.0679 26.2903 98.4397 26.2903C99.0546 26.2903 99.362 26.5927 99.362 27.1976C99.362 27.4856 99.2762 27.7376 99.1046 27.9536C98.933 28.1696 98.7686 28.3136 98.6113 28.3857C98.454 28.4577 98.361 28.4937 98.3324 28.4937L98.2681 28.5153C98.2681 28.5297 98.311 28.5585 98.3968 28.6017C98.4826 28.6449 98.597 28.6953 98.74 28.7529C98.883 28.8105 99.0188 28.8321 99.1475 28.8177C99.6623 28.8177 100.106 28.4937 100.477 27.8456C100.606 27.6152 100.771 27.1256 100.971 26.3767C101.171 25.6279 101.371 24.8502 101.571 24.0437C101.772 23.2373 101.886 22.7621 101.915 22.618C101.986 22.2292 102.022 21.9484 102.022 21.7756C102.022 21.3724 101.915 21.0843 101.7 20.9115C101.486 20.7387 101.242 20.6523 100.971 20.6523C100.399 20.6523 99.8625 20.8827 99.362 21.3435C98.8615 21.8044 98.5112 22.3948 98.311 23.1149C98.2824 23.2445 98.2466 23.3165 98.2037 23.3309C98.1608 23.3453 98.0464 23.3597 97.8605 23.3741H97.5602C97.4744 23.2877 97.4315 23.2085 97.4315 23.1365Z" fill="black"/>
<path d="M115.743 21.8836C115.743 21.6964 115.843 21.5524 116.043 21.4516H129.707C129.921 21.5668 130.029 21.7108 130.029 21.8836C130.029 22.042 129.929 22.1788 129.728 22.294L122.907 22.3156H116.086C115.858 22.2436 115.743 22.0996 115.743 21.8836ZM115.743 26.0743C115.743 25.8583 115.858 25.7143 116.086 25.6423H129.728C129.929 25.7863 130.029 25.9303 130.029 26.0743C130.029 26.2615 129.921 26.4055 129.707 26.5063H116.043C115.843 26.4055 115.743 26.2615 115.743 26.0743Z" fill="black"/>
<path d="M139.999 23.1366C139.999 22.6758 140.113 22.2077 140.342 21.7325C140.571 21.2573 140.971 20.818 141.543 20.4148C142.115 20.0116 142.809 19.8172 143.624 19.8316C144.51 19.8316 145.154 20.026 145.554 20.4148C145.955 20.8036 146.162 21.2357 146.176 21.7109C146.176 22.1717 146.055 22.5101 145.812 22.7262C145.569 22.9422 145.297 23.0574 144.997 23.0718C144.811 23.0718 144.639 23.0142 144.482 22.899C144.324 22.7838 144.239 22.5966 144.224 22.3373C144.224 22.1069 144.289 21.9053 144.417 21.7325C144.546 21.5597 144.668 21.4301 144.782 21.3437C144.896 21.2573 144.989 21.2141 145.061 21.2141C145.075 21.2141 145.082 21.2069 145.082 21.1925C145.082 21.1493 145.032 21.0844 144.932 20.998C144.832 20.9116 144.653 20.8324 144.396 20.7604C144.139 20.6884 143.86 20.6452 143.559 20.6308C142.873 20.6308 142.373 20.818 142.058 21.1925C141.743 21.5669 141.579 21.9485 141.565 22.3373C141.565 22.6974 141.7 22.9494 141.972 23.0934C142.244 23.2374 142.637 23.3598 143.152 23.4606C143.667 23.5614 144.038 23.6694 144.267 23.7846C145.211 24.2023 145.683 24.8935 145.683 25.8584C145.683 26.2616 145.604 26.6648 145.447 27.0681C145.29 27.4713 145.054 27.8745 144.739 28.2778C144.425 28.681 143.974 28.9978 143.388 29.2282C142.802 29.4586 142.129 29.5811 141.372 29.5955C140.27 29.5955 139.491 29.3866 139.034 28.969C138.576 28.5514 138.34 28.0617 138.326 27.5001C138.326 26.9385 138.476 26.5352 138.776 26.2904C139.076 26.0456 139.391 25.9232 139.72 25.9232C139.934 25.9232 140.135 25.988 140.321 26.1176C140.506 26.2472 140.607 26.4704 140.621 26.7873C140.621 27.1617 140.492 27.4785 140.235 27.7377C139.977 27.9969 139.756 28.1266 139.57 28.1266C139.541 28.141 139.52 28.1482 139.505 28.1482C139.491 28.1482 139.484 28.1626 139.484 28.1914C139.498 28.2346 139.555 28.2922 139.656 28.3642C139.756 28.4362 139.977 28.5298 140.321 28.645C140.664 28.7602 141.057 28.8106 141.5 28.7962C142.015 28.7962 142.458 28.717 142.83 28.5586C143.202 28.4002 143.474 28.1986 143.645 27.9537C143.817 27.7089 143.938 27.4857 144.01 27.2841C144.081 27.0825 144.117 26.9025 144.117 26.7441C144.117 26.3408 143.967 26.0384 143.667 25.8368C143.366 25.6352 143.023 25.5128 142.637 25.4696C142.251 25.4264 141.829 25.3184 141.372 25.1455C140.914 24.9727 140.578 24.7207 140.363 24.3895C140.12 24.0295 139.999 23.6118 139.999 23.1366Z" fill="black"/>
<path d="M151.196 16.4184C151.196 16.0728 151.331 15.7703 151.603 15.5111C151.875 15.2519 152.189 15.1151 152.547 15.1007C152.804 15.1007 153.019 15.1871 153.19 15.3599C153.362 15.5327 153.455 15.7487 153.469 16.008C153.469 16.3392 153.326 16.6416 153.04 16.9152C152.754 17.1888 152.44 17.3329 152.096 17.3473C151.882 17.3473 151.682 17.2753 151.496 17.1312C151.31 16.9872 151.21 16.7496 151.196 16.4184ZM147.699 23.1797C147.699 23.0645 147.764 22.8413 147.892 22.51C148.021 22.1788 148.193 21.8116 148.407 21.4084C148.622 21.0051 148.936 20.6379 149.351 20.3067C149.766 19.9754 150.195 19.817 150.638 19.8314C151.196 19.8314 151.66 19.9971 152.032 20.3283C152.404 20.6595 152.597 21.1059 152.611 21.6676C152.611 21.9124 152.511 22.3156 152.311 22.8773C152.111 23.4389 151.825 24.195 151.453 25.1454C151.081 26.0959 150.781 26.9095 150.552 27.5864C150.481 27.9032 150.445 28.1336 150.445 28.2776C150.445 28.6377 150.566 28.8177 150.809 28.8177C150.938 28.8177 151.074 28.7961 151.217 28.7529C151.36 28.7097 151.524 28.6089 151.71 28.4505C151.896 28.292 152.089 28.04 152.289 27.6944C152.49 27.3488 152.668 26.9239 152.826 26.4199C152.869 26.2471 152.904 26.1463 152.933 26.1175C152.962 26.0887 153.083 26.0743 153.298 26.0743C153.584 26.0743 153.727 26.1463 153.727 26.2903C153.727 26.4055 153.662 26.6287 153.534 26.96C153.405 27.2912 153.226 27.6584 152.997 28.0616C152.769 28.4649 152.447 28.8249 152.032 29.1417C151.617 29.4585 151.174 29.6169 150.702 29.6169C150.245 29.6169 149.823 29.4657 149.437 29.1633C149.051 28.8609 148.85 28.4001 148.836 27.7808C148.836 27.536 148.872 27.3056 148.943 27.0896C149.015 26.8735 149.322 26.0527 149.866 24.627C150.409 23.1725 150.724 22.3012 150.809 22.0132C150.895 21.7252 150.945 21.4444 150.96 21.1707C150.96 20.8251 150.838 20.6523 150.595 20.6523H150.552C150.123 20.6523 149.73 20.8899 149.372 21.3651C149.015 21.8404 148.743 22.4452 148.557 23.1797C148.543 23.1941 148.529 23.2157 148.514 23.2445C148.5 23.2733 148.493 23.2949 148.493 23.3093C148.493 23.3237 148.479 23.3381 148.45 23.3525C148.421 23.3669 148.4 23.3741 148.386 23.3741C148.371 23.3741 148.343 23.3741 148.3 23.3741C148.257 23.3741 148.2 23.3741 148.128 23.3741H147.828C147.742 23.2877 147.699 23.2229 147.699 23.1797Z" fill="black"/>
<path d="M155.099 23.1797C155.113 23.0933 155.135 22.9781 155.163 22.8341C155.192 22.69 155.278 22.4164 155.421 22.0132C155.564 21.61 155.707 21.2715 155.85 20.9979C155.993 20.7243 156.229 20.4579 156.558 20.1987C156.887 19.9394 157.216 19.817 157.544 19.8314C158.059 19.8314 158.488 19.961 158.831 20.2203C159.175 20.4795 159.389 20.7243 159.475 20.9547C159.561 21.1851 159.604 21.3363 159.604 21.4084C159.604 21.4372 159.611 21.4516 159.625 21.4516L159.861 21.2139C160.733 20.2923 161.727 19.8314 162.842 19.8314C163.615 19.8314 164.237 20.0259 164.709 20.4147C165.181 20.8035 165.424 21.3724 165.438 22.1212C165.452 22.8701 165.181 24.0005 164.623 25.5126C164.065 27.0248 163.793 27.9392 163.808 28.256C163.808 28.6305 163.929 28.8177 164.172 28.8177C164.258 28.8177 164.323 28.8105 164.365 28.7961C164.78 28.7241 165.152 28.4505 165.481 27.9752C165.81 27.5 166.06 26.9239 166.232 26.2471C166.26 26.1319 166.403 26.0743 166.661 26.0743C166.947 26.0743 167.09 26.1319 167.09 26.2471C167.09 26.2615 167.061 26.3695 167.004 26.5711C166.889 26.9888 166.732 27.3992 166.532 27.8024C166.332 28.2056 166.003 28.6089 165.545 29.0121C165.088 29.4153 164.594 29.6097 164.065 29.5953C163.393 29.5953 162.907 29.4009 162.607 29.0121C162.306 28.6233 162.156 28.22 162.156 27.8024C162.156 27.5288 162.413 26.6647 162.928 25.2102C163.443 23.7557 163.708 22.6612 163.722 21.9268C163.722 21.0771 163.407 20.6523 162.778 20.6523H162.671C161.441 20.6523 160.404 21.3796 159.561 22.8341L159.411 23.0933L158.703 25.9879C158.231 27.8744 157.959 28.8897 157.888 29.0337C157.702 29.4225 157.394 29.6169 156.965 29.6169C156.779 29.6169 156.629 29.5737 156.515 29.4873C156.4 29.4009 156.322 29.3145 156.279 29.2281C156.236 29.1417 156.222 29.0697 156.236 29.0121C156.236 28.8249 156.508 27.6512 157.051 25.491C157.594 23.3309 157.88 22.1572 157.909 21.97C157.923 21.898 157.93 21.7324 157.93 21.4732C157.93 20.9115 157.759 20.6307 157.416 20.6307C156.872 20.6307 156.422 21.3507 156.064 22.7909C155.979 23.0789 155.936 23.2301 155.936 23.2445C155.907 23.3309 155.771 23.3741 155.528 23.3741H155.228C155.142 23.2877 155.099 23.2229 155.099 23.1797Z" fill="black"/>
<path d="M169.535 23.9793C169.535 22.9856 169.607 22.0423 169.75 21.1494C169.893 20.2566 170.057 19.4861 170.243 18.8381C170.429 18.19 170.693 17.5564 171.037 16.9371C171.38 16.3179 171.652 15.8355 171.852 15.4898C172.052 15.1442 172.352 14.7698 172.753 14.3666C173.153 13.9633 173.389 13.7185 173.46 13.6321C173.532 13.5457 173.711 13.3945 173.997 13.1785H174.276H174.361C174.562 13.1785 174.662 13.2433 174.662 13.3729C174.662 13.4161 174.54 13.5673 174.297 13.8265C174.054 14.0857 173.761 14.4674 173.418 14.9714C173.074 15.4754 172.724 16.0947 172.367 16.8291C172.009 17.5636 171.709 18.5573 171.466 19.8102C171.223 21.063 171.101 22.4527 171.101 23.9793C171.101 25.5058 171.223 26.8883 171.466 28.1268C171.709 29.3652 172.002 30.3661 172.345 31.1294C172.688 31.8926 173.039 32.5119 173.396 32.9871C173.754 33.4623 174.054 33.844 174.297 34.132C174.54 34.42 174.662 34.5712 174.662 34.5856C174.662 34.7152 174.554 34.78 174.34 34.78H174.276H173.997L173.396 34.2616C172.052 33.0375 171.072 31.511 170.457 29.6821C169.843 27.8531 169.535 25.9522 169.535 23.9793Z" fill="black"/>
<path d="M176.978 23.1365C177.078 22.5316 177.464 21.8332 178.136 21.0411C178.808 20.2491 179.638 19.8458 180.624 19.8314C181.125 19.8314 181.582 19.961 181.997 20.2203C182.412 20.4795 182.719 20.8035 182.92 21.1923C183.52 20.2851 184.242 19.8314 185.086 19.8314C185.615 19.8314 186.073 19.9899 186.459 20.3067C186.845 20.6235 187.045 21.0483 187.059 21.5812C187.059 21.9988 186.959 22.3372 186.759 22.5964C186.559 22.8557 186.366 23.0141 186.18 23.0717C185.994 23.1293 185.83 23.1581 185.687 23.1581C185.415 23.1581 185.193 23.0789 185.022 22.9205C184.85 22.7621 184.764 22.5532 184.764 22.294C184.764 21.6316 185.122 21.1779 185.837 20.9331C185.679 20.7459 185.393 20.6523 184.979 20.6523C184.793 20.6523 184.657 20.6667 184.571 20.6955C184.028 20.9259 183.627 21.4012 183.37 22.1212C182.512 25.3038 182.083 27.1616 182.083 27.6944C182.083 28.0976 182.197 28.3857 182.426 28.5585C182.655 28.7313 182.905 28.8177 183.177 28.8177C183.706 28.8177 184.228 28.5801 184.743 28.1048C185.258 27.6296 185.608 27.0464 185.794 26.3551C185.837 26.2111 185.88 26.1319 185.922 26.1175C185.965 26.1031 186.08 26.0887 186.266 26.0743H186.351C186.566 26.0743 186.673 26.1319 186.673 26.2471C186.673 26.2615 186.659 26.3407 186.63 26.4847C186.402 27.3056 185.958 28.0328 185.3 28.6665C184.643 29.3001 183.878 29.6169 183.005 29.6169C182.004 29.6169 181.246 29.1633 180.732 28.256C180.145 29.1489 179.473 29.5953 178.715 29.5953H178.587C177.886 29.5953 177.385 29.4081 177.085 29.0337C176.785 28.6593 176.628 28.2632 176.613 27.8456C176.613 27.3848 176.749 27.0104 177.021 26.7223C177.293 26.4343 177.614 26.2903 177.986 26.2903C178.601 26.2903 178.908 26.5927 178.908 27.1976C178.908 27.4856 178.823 27.7376 178.651 27.9536C178.479 28.1696 178.315 28.3136 178.158 28.3857C178 28.4577 177.907 28.4937 177.879 28.4937L177.814 28.5153C177.814 28.5297 177.857 28.5585 177.943 28.6017C178.029 28.6449 178.143 28.6953 178.286 28.7529C178.429 28.8105 178.565 28.8321 178.694 28.8177C179.209 28.8177 179.652 28.4937 180.024 27.8456C180.152 27.6152 180.317 27.1256 180.517 26.3767C180.717 25.6279 180.918 24.8502 181.118 24.0437C181.318 23.2373 181.432 22.7621 181.461 22.618C181.532 22.2292 181.568 21.9484 181.568 21.7756C181.568 21.3724 181.461 21.0843 181.246 20.9115C181.032 20.7387 180.789 20.6523 180.517 20.6523C179.945 20.6523 179.409 20.8827 178.908 21.3435C178.408 21.8044 178.058 22.3948 177.857 23.1149C177.829 23.2445 177.793 23.3165 177.75 23.3309C177.707 23.3453 177.593 23.3597 177.407 23.3741H177.107C177.021 23.2877 176.978 23.2085 176.978 23.1365Z" fill="black"/>
<path d="M189.419 13.2001L189.505 13.1785C189.576 13.1785 189.648 13.1785 189.719 13.1785H189.976L190.577 13.6969C191.921 14.921 192.901 16.4475 193.516 18.2764C194.131 20.1054 194.438 22.0063 194.438 23.9793C194.438 24.9585 194.367 25.9018 194.224 26.8091C194.081 27.7163 193.916 28.4868 193.73 29.1204C193.544 29.7541 193.28 30.3877 192.937 31.0214C192.593 31.655 192.322 32.1374 192.121 32.4687C191.921 32.7999 191.628 33.1671 191.242 33.5703C190.856 33.9736 190.627 34.2112 190.556 34.2832C190.484 34.3552 190.32 34.492 190.062 34.6936C190.019 34.7368 189.991 34.7656 189.976 34.78H189.719C189.605 34.78 189.526 34.78 189.483 34.78C189.44 34.78 189.404 34.7584 189.376 34.7152C189.347 34.672 189.326 34.6072 189.312 34.5208C189.326 34.5064 189.404 34.4128 189.547 34.24C191.764 31.9214 192.872 28.5012 192.872 23.9793C192.872 19.4573 191.764 16.0371 189.547 13.7185C189.404 13.5457 189.326 13.4521 189.312 13.4377C189.312 13.3225 189.347 13.2433 189.419 13.2001Z" fill="black"/>
<path d="M202.443 24.2597C202.443 24.2597 202.443 24.1661 202.443 23.9789C202.443 23.7917 202.543 23.6477 202.744 23.5469H209.157V20.3067L209.179 17.0664C209.322 16.8792 209.457 16.7856 209.586 16.7856C209.772 16.7856 209.915 16.8936 210.015 17.1096V23.5469H216.407C216.622 23.6621 216.729 23.8061 216.729 23.9789C216.729 24.1517 216.622 24.2957 216.407 24.411H210.015V30.8482C209.901 31.0498 209.772 31.1506 209.629 31.1506H209.586H209.543C209.372 31.1506 209.243 31.0498 209.157 30.8482V24.411H202.744C202.543 24.3101 202.443 24.1661 202.443 23.9789V24.2597Z" fill="black"/>
<path d="M223.771 23.9359C223.771 22.2798 224.25 20.6885 225.208 19.162C226.166 17.6355 227.375 16.4258 228.833 15.5329C230.292 14.64 231.75 14.1864 233.209 14.172C234.496 14.172 235.518 14.5392 236.276 15.2737C236.405 15.4177 236.512 15.5401 236.598 15.6409C236.684 15.7417 236.741 15.8137 236.77 15.8569L236.791 15.9217C236.834 15.9217 237.027 15.7345 237.37 15.3601C237.47 15.2737 237.578 15.1729 237.692 15.0577C237.806 14.9425 237.921 14.8273 238.035 14.712C238.15 14.5968 238.221 14.5176 238.25 14.4744L238.571 14.1504H238.7C238.9 14.1504 239 14.2008 239 14.3016C239 14.3592 238.772 15.3457 238.314 17.261C237.799 19.2628 237.542 20.2708 237.542 20.2852C237.513 20.3573 237.477 20.4005 237.435 20.4149C237.392 20.4293 237.263 20.4437 237.048 20.4581H236.705C236.619 20.3717 236.577 20.3068 236.577 20.2636C236.577 20.2492 236.584 20.1988 236.598 20.1124C236.612 20.026 236.627 19.882 236.641 19.6804C236.655 19.4788 236.662 19.2484 236.662 18.9892C236.662 17.9667 236.434 17.0738 235.976 16.3106C235.518 15.5473 234.739 15.1585 233.638 15.1441C233.266 15.1441 232.866 15.1945 232.437 15.2953C232.008 15.3961 231.493 15.5689 230.892 15.8137C230.292 16.0585 229.698 16.4618 229.112 17.0234C228.526 17.5851 228.004 18.2547 227.546 19.0324C227.089 19.8532 226.724 20.8109 226.452 21.9054C226.181 22.9998 226.045 23.8927 226.045 24.584C226.045 26.2257 226.588 27.4066 227.675 28.1266C228.361 28.6162 229.205 28.8611 230.206 28.8611C231.507 28.8611 232.666 28.3714 233.681 27.3922C234.696 26.4129 235.368 25.3472 235.697 24.1951C235.754 24.0079 235.797 23.8999 235.826 23.8711C235.854 23.8423 235.969 23.8279 236.169 23.8279C236.455 23.8279 236.598 23.8927 236.598 24.0223C236.598 24.0943 236.591 24.1591 236.577 24.2167C236.162 25.7576 235.275 27.0825 233.917 28.1914C232.558 29.3003 231.1 29.8547 229.541 29.8547C227.925 29.8547 226.559 29.3147 225.444 28.2346C224.329 27.1545 223.771 25.7216 223.771 23.9359Z" fill="black"/>
</svg>
