<svg width="239" height="48" viewBox="0 0 239 48" fill="none" xmlns="http://www.w3.org/2000/svg">
<path d="M1.18294 46.6175C1.42354 46.9919 1.76439 47.1791 2.20549 47.1791H2.24559C2.61985 47.1791 2.99412 46.7471 3.36838 45.883C3.74265 45.019 4.09018 43.8381 4.41098 42.3404C4.73177 40.8427 5.03252 39.3378 5.31322 37.8257C5.59392 36.3136 5.87462 34.679 6.15532 32.9221C6.19542 32.6197 6.22883 32.3965 6.25557 32.2525C7.21796 26.132 8.26056 20.458 9.38335 15.2304C10.5061 10.0029 11.3215 6.60423 11.8294 5.03451C11.9096 4.7753 11.9765 4.55928 12.0299 4.38647C12.0834 4.21365 12.197 3.89683 12.3708 3.436C12.5446 2.97517 12.725 2.57194 12.9121 2.22631C13.0993 1.88069 13.3265 1.52786 13.5938 1.16784C13.8612 0.807808 14.1552 0.519787 14.476 0.303772C14.7968 0.0877571 15.1377 -0.0130501 15.4986 0.0013504C16.2471 0.0013504 16.8085 0.253368 17.1828 0.757404C17.557 1.26144 17.7709 1.83748 17.8244 2.48553C17.8244 2.84555 17.7442 3.13358 17.5838 3.34959C17.4234 3.56561 17.2696 3.70242 17.1226 3.76002C16.9756 3.81763 16.8285 3.83923 16.6815 3.82483C16.4008 3.82483 16.1468 3.71682 15.9196 3.5008C15.6924 3.28479 15.5788 2.98957 15.5788 2.61514C15.5788 1.92389 15.933 1.51346 16.6414 1.38385L16.5813 1.29744C16.5412 1.25424 16.4877 1.20384 16.4209 1.14623C16.354 1.08863 16.3006 1.04543 16.2605 1.01662C16.06 0.872612 15.8394 0.80061 15.5988 0.80061C15.4117 0.80061 15.2379 0.887016 15.0775 1.05983C14.9171 1.23264 14.7033 1.63587 14.4359 2.26952C14.1686 2.90316 13.9079 3.73842 13.654 4.7753C13.4 5.81217 13.0859 7.27387 12.7116 9.16041C12.3374 11.0469 11.9631 13.2647 11.5888 15.8137C10.8002 20.638 9.97816 25.196 9.1227 29.4875C8.26724 33.779 7.59891 36.8896 7.11771 38.8193C6.63652 40.7491 6.26893 42.1316 6.01497 42.9668C4.98574 46.3223 3.71591 48 2.20549 48C1.67082 48 1.18294 47.7768 0.741846 47.3304C0.300748 46.8839 0.0534664 46.2719 0 45.4942C0 44.9902 0.126983 44.6446 0.380948 44.4573C0.634913 44.2701 0.888879 44.1765 1.14284 44.1765C1.42354 44.1765 1.67751 44.2845 1.90474 44.5005C2.13197 44.7166 2.24559 45.0118 2.24559 45.3862C2.24559 46.0775 1.89137 46.4879 1.18294 46.6175Z" fill="black"/>
<path d="M27.3539 23.1368C27.3539 22.676 27.4609 22.208 27.6747 21.7327C27.8886 21.2575 28.2629 20.8183 28.7975 20.415C29.3322 20.0118 29.9805 19.8174 30.7424 19.8318C31.5711 19.8318 32.1726 20.0262 32.5469 20.415C32.9211 20.8039 33.1149 21.2359 33.1283 21.7111C33.1283 22.172 33.0147 22.5104 32.7875 22.7264C32.5602 22.9424 32.3063 23.0576 32.0256 23.072C31.8518 23.072 31.6914 23.0144 31.5444 22.8992C31.3973 22.784 31.3171 22.5968 31.3038 22.3376C31.3038 22.1072 31.3639 21.9056 31.4842 21.7327C31.6045 21.5599 31.7181 21.4303 31.8251 21.3439C31.932 21.2575 32.0189 21.2143 32.0857 21.2143C32.0991 21.2143 32.1058 21.2071 32.1058 21.1927C32.1058 21.1495 32.059 21.0847 31.9654 20.9983C31.8718 20.9119 31.7048 20.8327 31.4642 20.7607C31.2236 20.6887 30.9629 20.6455 30.6822 20.6311C30.0406 20.6311 29.5728 20.8183 29.2787 21.1927C28.9847 21.5671 28.8309 21.9488 28.8176 22.3376C28.8176 22.6976 28.9446 22.9496 29.1985 23.0936C29.4525 23.2376 29.8201 23.3601 30.3013 23.4609C30.7825 23.5617 31.13 23.6697 31.3439 23.7849C32.2261 24.2025 32.6672 24.8938 32.6672 25.8586C32.6672 26.2619 32.5936 26.6651 32.4466 27.0683C32.2996 27.4716 32.079 27.8748 31.785 28.278C31.4909 28.6812 31.0698 28.9981 30.5218 29.2285C29.9738 29.4589 29.3456 29.5813 28.6371 29.5957C27.6079 29.5957 26.8794 29.3869 26.4517 28.9693C26.024 28.5516 25.8034 28.062 25.79 27.5004C25.79 26.9387 25.9304 26.5355 26.2111 26.2907C26.4918 26.0458 26.7859 25.9234 27.0933 25.9234C27.2938 25.9234 27.4809 25.9882 27.6547 26.1179C27.8284 26.2475 27.922 26.4707 27.9354 26.7875C27.9354 27.1619 27.8151 27.4788 27.5745 27.738C27.3339 27.9972 27.1267 28.1268 26.9529 28.1268C26.9262 28.1412 26.9061 28.1484 26.8928 28.1484C26.8794 28.1484 26.8727 28.1628 26.8727 28.1916C26.8861 28.2348 26.9396 28.2924 27.0331 28.3644C27.1267 28.4364 27.3339 28.53 27.6547 28.6452C27.9755 28.7604 28.3431 28.8108 28.7574 28.7964C29.2386 28.7964 29.653 28.7172 30.0005 28.5588C30.348 28.4004 30.602 28.1988 30.7624 27.954C30.9228 27.7092 31.0364 27.486 31.1033 27.2843C31.1701 27.0827 31.2035 26.9027 31.2035 26.7443C31.2035 26.3411 31.0632 26.0386 30.7825 25.837C30.5018 25.6354 30.181 25.513 29.8201 25.4698C29.4592 25.4266 29.0649 25.3186 28.6371 25.1458C28.2094 24.973 27.8953 24.721 27.6948 24.3897C27.4675 24.0297 27.3539 23.6121 27.3539 23.1368Z" fill="black"/>
<path d="M37.8199 16.4186C37.8199 16.073 37.9469 15.7706 38.2008 15.5114C38.4548 15.2522 38.7489 15.1153 39.083 15.1009C39.3236 15.1009 39.5241 15.1873 39.6845 15.3602C39.8449 15.533 39.9318 15.749 39.9452 16.0082C39.9452 16.3394 39.8115 16.6419 39.5442 16.9155C39.2769 17.1891 38.9828 17.3331 38.662 17.3475C38.4615 17.3475 38.2744 17.2755 38.1006 17.1315C37.9268 16.9875 37.8333 16.7499 37.8199 16.4186ZM34.5518 23.1799C34.5518 23.0647 34.6119 22.8415 34.7322 22.5103C34.8525 22.1791 35.0129 21.8118 35.2134 21.4086C35.4139 21.0054 35.708 20.6381 36.0956 20.3069C36.4832 19.9757 36.8842 19.8173 37.2986 19.8317C37.8199 19.8317 38.2543 19.9973 38.6018 20.3285C38.9494 20.6597 39.1298 21.1062 39.1432 21.6678C39.1432 21.9126 39.0496 22.3159 38.8625 22.8775C38.6754 23.4391 38.408 24.1952 38.0605 25.1457C37.713 26.0961 37.4323 26.9098 37.2184 27.5866C37.1516 27.9035 37.1181 28.1339 37.1181 28.2779C37.1181 28.6379 37.2318 28.8179 37.459 28.8179C37.5793 28.8179 37.7063 28.7963 37.8399 28.7531C37.9736 28.7099 38.1273 28.6091 38.3011 28.4507C38.4749 28.2923 38.6553 28.0403 38.8424 27.6946C39.0296 27.349 39.1967 26.9242 39.3437 26.4202C39.3838 26.2473 39.4172 26.1465 39.4439 26.1177C39.4707 26.0889 39.5843 26.0745 39.7848 26.0745C40.0521 26.0745 40.1858 26.1465 40.1858 26.2905C40.1858 26.4058 40.1256 26.629 40.0053 26.9602C39.885 27.2914 39.7179 27.6586 39.5041 28.0619C39.2902 28.4651 38.9895 28.8251 38.6018 29.142C38.2142 29.4588 37.7998 29.6172 37.3587 29.6172C36.931 29.6172 36.5367 29.466 36.1758 29.1636C35.8149 28.8611 35.6278 28.4003 35.6144 27.7811C35.6144 27.5362 35.6478 27.3058 35.7147 27.0898C35.7815 26.8738 36.0689 26.0529 36.5768 24.6272C37.0847 23.1727 37.3788 22.3015 37.459 22.0134C37.5392 21.7254 37.586 21.4446 37.5993 21.171C37.5993 20.8254 37.4857 20.6525 37.2585 20.6525H37.2184C36.8174 20.6525 36.4498 20.8902 36.1156 21.3654C35.7815 21.8406 35.5275 22.4455 35.3538 23.1799C35.3404 23.1943 35.327 23.2159 35.3137 23.2447C35.3003 23.2735 35.2936 23.2951 35.2936 23.3095C35.2936 23.3239 35.2802 23.3383 35.2535 23.3527C35.2268 23.3671 35.2067 23.3743 35.1934 23.3743C35.18 23.3743 35.1533 23.3743 35.1132 23.3743C35.0731 23.3743 35.0196 23.3743 34.9528 23.3743H34.6721C34.5919 23.2879 34.5518 23.2231 34.5518 23.1799Z" fill="black"/>
<path d="M41.4689 23.1799C41.4822 23.0935 41.5023 22.9783 41.529 22.8343C41.5558 22.6903 41.636 22.4167 41.7696 22.0134C41.9033 21.6102 42.037 21.2718 42.1706 20.9982C42.3043 20.7245 42.5248 20.4581 42.8323 20.1989C43.1397 19.9397 43.4471 19.8173 43.7546 19.8317C44.2358 19.8317 44.6368 19.9613 44.9576 20.2205C45.2784 20.4797 45.4789 20.7245 45.5591 20.955C45.6393 21.1854 45.6794 21.3366 45.6794 21.4086C45.6794 21.4374 45.686 21.4518 45.6994 21.4518L45.9199 21.2142C46.7353 20.2925 47.6643 19.8317 48.7069 19.8317C49.4287 19.8317 50.0101 20.0261 50.4512 20.4149C50.8923 20.8038 51.1196 21.3726 51.1329 22.1214C51.1463 22.8703 50.8923 24.0008 50.371 25.5129C49.8497 27.025 49.5958 27.9395 49.6091 28.2563C49.6091 28.6307 49.7227 28.8179 49.95 28.8179C50.0302 28.8179 50.0903 28.8107 50.1304 28.7963C50.5181 28.7243 50.8656 28.4507 51.173 27.9755C51.4805 27.5002 51.7144 26.9242 51.8748 26.2473C51.9015 26.1321 52.0352 26.0745 52.2758 26.0745C52.5431 26.0745 52.6768 26.1321 52.6768 26.2473C52.6768 26.2617 52.65 26.3698 52.5966 26.5714C52.4896 26.989 52.3426 27.3994 52.1555 27.8027C51.9683 28.2059 51.6609 28.6091 51.2332 29.0123C50.8054 29.4156 50.3443 29.61 49.8497 29.5956C49.2215 29.5956 48.767 29.4012 48.4863 29.0123C48.2056 28.6235 48.0653 28.2203 48.0653 27.8027C48.0653 27.529 48.3059 26.665 48.7871 25.2105C49.2683 23.756 49.5156 22.6615 49.5289 21.927C49.5289 21.0774 49.2349 20.6525 48.6467 20.6525H48.5465C47.397 20.6525 46.4279 21.3798 45.6393 22.8343L45.4989 23.0935L44.8373 25.9881C44.3962 27.8747 44.1422 28.8899 44.0754 29.0339C43.9016 29.4228 43.6142 29.6172 43.2132 29.6172C43.0394 29.6172 42.8991 29.574 42.7922 29.4876C42.6852 29.4012 42.6117 29.3148 42.5716 29.2284C42.5315 29.142 42.5181 29.0699 42.5315 29.0123C42.5315 28.8251 42.7855 27.6514 43.2934 25.4913C43.8013 23.3311 44.0687 22.1575 44.0954 21.9702C44.1088 21.8982 44.1155 21.7326 44.1155 21.4734C44.1155 20.9118 43.9551 20.6309 43.6343 20.6309C43.1263 20.6309 42.7053 21.351 42.3711 22.7911C42.2909 23.0791 42.2508 23.2303 42.2508 23.2447C42.2241 23.3311 42.0971 23.3743 41.8699 23.3743H41.5892C41.509 23.2879 41.4689 23.2231 41.4689 23.1799Z" fill="black"/>
<path d="M54.9623 23.979C54.9623 22.9853 55.0291 22.0421 55.1628 21.1492C55.2964 20.2563 55.4502 19.4859 55.6239 18.8378C55.7977 18.1898 56.045 17.5561 56.3658 16.9369C56.6866 16.3177 56.9405 15.8352 57.1277 15.4896C57.3148 15.144 57.5955 14.7695 57.9698 14.3663C58.344 13.9631 58.5646 13.7183 58.6314 13.6319C58.6982 13.5455 58.8653 13.3942 59.1327 13.1782H59.3933H59.4735C59.6606 13.1782 59.7542 13.243 59.7542 13.3726C59.7542 13.4158 59.6406 13.5671 59.4134 13.8263C59.1861 14.0855 58.9121 14.4671 58.5913 14.9712C58.2705 15.4752 57.943 16.0944 57.6089 16.8289C57.2747 17.5633 56.994 18.557 56.7668 19.8099C56.5395 21.0628 56.4259 22.4525 56.4259 23.979C56.4259 25.5055 56.5395 26.888 56.7668 28.1265C56.994 29.365 57.268 30.3659 57.5888 31.1291C57.9096 31.8924 58.2371 32.5116 58.5713 32.9869C58.9054 33.4621 59.1861 33.8437 59.4134 34.1317C59.6406 34.4198 59.7542 34.571 59.7542 34.5854C59.7542 34.715 59.654 34.7798 59.4535 34.7798H59.3933H59.1327L58.5713 34.2613C57.3148 33.0373 56.3992 31.5108 55.8244 29.6818C55.2497 27.8529 54.9623 25.952 54.9623 23.979Z" fill="black"/>
<path d="M61.9204 23.1367C62.014 22.5319 62.3749 21.8334 63.0031 21.0414C63.6314 20.2493 64.4066 19.8461 65.3289 19.8317C65.7968 19.8317 66.2245 19.9613 66.6121 20.2205C66.9997 20.4797 67.2871 20.8038 67.4743 21.1926C68.0357 20.2853 68.7107 19.8317 69.4993 19.8317C69.9939 19.8317 70.4216 19.9901 70.7825 20.3069C71.1434 20.6237 71.3305 21.0486 71.3439 21.5814C71.3439 21.999 71.2503 22.3375 71.0632 22.5967C70.8761 22.8559 70.6956 23.0143 70.5218 23.0719C70.3481 23.1295 70.1944 23.1583 70.0607 23.1583C69.8067 23.1583 69.5995 23.0791 69.4391 22.9207C69.2788 22.7623 69.1986 22.5535 69.1986 22.2943C69.1986 21.6318 69.5327 21.1782 70.201 20.9334C70.054 20.7462 69.7867 20.6525 69.3991 20.6525C69.2253 20.6525 69.0983 20.6669 69.0181 20.6957C68.5102 20.9262 68.1359 21.4014 67.8953 22.1214C67.0933 25.3041 66.6923 27.1618 66.6923 27.6946C66.6923 28.0979 66.7992 28.3859 67.0131 28.5587C67.227 28.7315 67.4609 28.8179 67.7149 28.8179C68.2094 28.8179 68.6973 28.5803 69.1785 28.1051C69.6597 27.6298 69.9872 27.0466 70.1609 26.3554C70.201 26.2113 70.2411 26.1321 70.2812 26.1177C70.3213 26.1033 70.4283 26.0889 70.602 26.0745H70.6822C70.8827 26.0745 70.983 26.1321 70.983 26.2473C70.983 26.2617 70.9696 26.341 70.9429 26.485C70.729 27.3058 70.3147 28.0331 69.6998 28.6667C69.0849 29.3004 68.3698 29.6172 67.5545 29.6172C66.6188 29.6172 65.9104 29.1636 65.4292 28.2563C64.8811 29.1492 64.2529 29.5956 63.5445 29.5956H63.4242C62.7692 29.5956 62.3014 29.4084 62.0207 29.0339C61.74 28.6595 61.593 28.2635 61.5796 27.8459C61.5796 27.385 61.7066 27.0106 61.9605 26.7226C62.2145 26.4346 62.5153 26.2905 62.8628 26.2905C63.4375 26.2905 63.7249 26.593 63.7249 27.1978C63.7249 27.4858 63.6447 27.7379 63.4843 27.9539C63.3239 28.1699 63.1702 28.3139 63.0232 28.3859C62.8761 28.4579 62.7893 28.4939 62.7625 28.4939L62.7024 28.5155C62.7024 28.5299 62.7425 28.5587 62.8227 28.6019C62.9029 28.6451 63.0098 28.6955 63.1435 28.7531C63.2771 28.8107 63.4041 28.8323 63.5244 28.8179C64.0056 28.8179 64.42 28.4939 64.7675 27.8459C64.8878 27.6154 65.0415 27.1258 65.2287 26.377C65.4158 25.6281 65.6029 24.8504 65.7901 24.044C65.9772 23.2375 66.0841 22.7623 66.1109 22.6183C66.1777 22.2295 66.2111 21.9486 66.2111 21.7758C66.2111 21.3726 66.1109 21.0846 65.9104 20.9118C65.7099 20.739 65.4826 20.6525 65.2287 20.6525C64.694 20.6525 64.1928 20.883 63.7249 21.3438C63.2571 21.8046 62.9296 22.3951 62.7425 23.1151C62.7158 23.2447 62.6823 23.3167 62.6422 23.3311C62.6021 23.3455 62.4952 23.3599 62.3214 23.3743H62.0407C61.9605 23.2879 61.9204 23.2087 61.9204 23.1367Z" fill="black"/>
<path d="M73.5497 13.1998L73.6299 13.1782C73.6967 13.1782 73.7636 13.1782 73.8304 13.1782H74.071L74.6324 13.6967C75.8889 14.9208 76.8045 16.4473 77.3792 18.2762C77.954 20.1051 78.2414 22.0061 78.2414 23.979C78.2414 24.9583 78.1746 25.9015 78.0409 26.8088C77.9072 27.7161 77.7535 28.4865 77.5797 29.1202C77.406 29.7538 77.1587 30.3875 76.8379 31.0211C76.5171 31.6548 76.2631 32.1372 76.076 32.4684C75.8889 32.7996 75.6149 33.1669 75.254 33.5701C74.8931 33.9733 74.6792 34.2109 74.6124 34.2829C74.5455 34.355 74.3918 34.4918 74.1512 34.6934C74.1111 34.7366 74.0844 34.7654 74.071 34.7798H73.8304C73.7235 34.7798 73.65 34.7798 73.6099 34.7798C73.5698 34.7798 73.5363 34.7582 73.5096 34.715C73.4829 34.6718 73.4628 34.607 73.4495 34.5206C73.4628 34.5062 73.5363 34.4126 73.67 34.2397C75.7418 31.9212 76.7777 28.5009 76.7777 23.979C76.7777 19.4571 75.7418 16.0368 73.67 13.7183C73.5363 13.5455 73.4628 13.4519 73.4495 13.4375C73.4495 13.3222 73.4829 13.243 73.5497 13.1998Z" fill="black"/>
<path d="M87.4837 14.6258C87.4971 14.6258 87.9783 14.5898 88.9273 14.5178C89.8764 14.4458 90.3642 14.4026 90.391 14.3882C90.5514 14.3882 90.6316 14.4458 90.6316 14.561C90.6316 14.6618 90.1437 16.8364 89.1679 21.0847C88.1922 25.333 87.6909 27.5004 87.6642 27.5868C87.6375 27.6732 87.6308 27.7812 87.6441 27.9108C87.6441 28.5156 87.8313 28.818 88.2055 28.818C88.3258 28.8036 88.4595 28.7388 88.6065 28.6236C88.8872 28.3356 89.1613 27.6444 89.4286 26.5499C89.5088 26.2619 89.5756 26.1107 89.6291 26.0963C89.6558 26.0819 89.7226 26.0746 89.8296 26.0746H89.9098H89.99C90.1905 26.0746 90.2907 26.1323 90.2907 26.2475C90.2907 26.3195 90.2707 26.4347 90.2306 26.5931C90.0568 27.3131 89.8563 27.8964 89.6291 28.3428C89.4019 28.7892 89.2147 29.0773 89.0677 29.2069C88.9207 29.3365 88.7335 29.4517 88.5063 29.5525C88.3994 29.5813 88.239 29.5957 88.0251 29.5957C87.5706 29.5957 87.1897 29.4877 86.8822 29.2717C86.5748 29.0557 86.3743 28.8324 86.2808 28.602L86.1605 28.278C86.1471 28.2636 86.1204 28.2708 86.0803 28.2996C86.0535 28.3284 86.0268 28.3572 86.0001 28.386C85.2114 29.1925 84.4094 29.5957 83.5941 29.5957C82.8589 29.5957 82.2106 29.3077 81.6492 28.7316C81.0878 28.1556 80.8071 27.2411 80.8071 25.9882C80.8071 25.297 80.9408 24.5913 81.2081 23.8713C81.4755 23.1512 81.7963 22.532 82.1705 22.0136C82.7988 21.1927 83.427 20.6239 84.0552 20.307C84.6834 19.9902 85.2515 19.8318 85.7595 19.8318C86.508 19.8318 87.0694 20.1342 87.4436 20.7391C87.5105 20.8255 87.5439 20.8543 87.5439 20.8255C87.5573 20.7679 87.7377 19.983 88.0852 18.4709C88.4328 16.9588 88.6199 16.1595 88.6466 16.0731C88.6466 15.8859 88.5999 15.7707 88.5063 15.7275C88.4127 15.6843 88.1521 15.6483 87.7243 15.6195H87.3033C87.2231 15.5331 87.183 15.4755 87.183 15.4467C87.183 15.4179 87.1964 15.2811 87.2231 15.0363C87.2899 14.7626 87.3768 14.6258 87.4837 14.6258ZM87.203 22.3376C86.8956 21.1999 86.3944 20.6311 85.6993 20.6311C85.2315 20.6311 84.7837 20.8543 84.356 21.3007C83.9282 21.7471 83.5941 22.3304 83.3535 23.0504C82.9658 24.1881 82.6918 25.369 82.5314 26.5931C82.5314 26.6363 82.5314 26.7155 82.5314 26.8307C82.5314 26.9459 82.5247 27.0323 82.5114 27.0899C82.5114 27.738 82.6317 28.1844 82.8723 28.4292C83.1129 28.674 83.4002 28.8036 83.7344 28.818C84.4562 28.818 85.1981 28.2996 85.96 27.2627L86.1204 27.0251L87.203 22.3376Z" fill="black"/>
<path d="M91.6143 23.1367C91.7079 22.5319 92.0688 21.8334 92.697 21.0414C93.3252 20.2493 94.1005 19.8461 95.0228 19.8317C95.4906 19.8317 95.9183 19.9613 96.306 20.2205C96.6936 20.4797 96.981 20.8038 97.1681 21.1926C97.7295 20.2853 98.4045 19.8317 99.1931 19.8317C99.6877 19.8317 100.115 19.9901 100.476 20.3069C100.837 20.6237 101.024 21.0486 101.038 21.5814C101.038 21.999 100.944 22.3375 100.757 22.5967C100.57 22.8559 100.389 23.0143 100.216 23.0719C100.042 23.1295 99.8882 23.1583 99.7545 23.1583C99.5006 23.1583 99.2934 23.0791 99.133 22.9207C98.9726 22.7623 98.8924 22.5535 98.8924 22.2943C98.8924 21.6318 99.2266 21.1782 99.8949 20.9334C99.7479 20.7462 99.4805 20.6525 99.0929 20.6525C98.9191 20.6525 98.7921 20.6669 98.7119 20.6957C98.204 20.9262 97.8298 21.4014 97.5892 22.1214C96.7872 25.3041 96.3862 27.1618 96.3862 27.6946C96.3862 28.0979 96.4931 28.3859 96.707 28.5587C96.9208 28.7315 97.1547 28.8179 97.4087 28.8179C97.9033 28.8179 98.3912 28.5803 98.8723 28.1051C99.3535 27.6298 99.681 27.0466 99.8548 26.3554C99.8949 26.2113 99.935 26.1321 99.9751 26.1177C100.015 26.1033 100.122 26.0889 100.296 26.0745H100.376C100.577 26.0745 100.677 26.1321 100.677 26.2473C100.677 26.2617 100.663 26.341 100.637 26.485C100.423 27.3058 100.009 28.0331 99.3936 28.6667C98.7788 29.3004 98.0637 29.6172 97.2483 29.6172C96.3126 29.6172 95.6042 29.1636 95.123 28.2563C94.575 29.1492 93.9468 29.5956 93.2383 29.5956H93.118C92.4631 29.5956 91.9952 29.4084 91.7145 29.0339C91.4338 28.6595 91.2868 28.2635 91.2734 27.8459C91.2734 27.385 91.4004 27.0106 91.6544 26.7226C91.9084 26.4346 92.2091 26.2905 92.5566 26.2905C93.1314 26.2905 93.4188 26.593 93.4188 27.1978C93.4188 27.4858 93.3386 27.7379 93.1782 27.9539C93.0178 28.1699 92.8641 28.3139 92.717 28.3859C92.57 28.4579 92.4831 28.4939 92.4564 28.4939L92.3962 28.5155C92.3962 28.5299 92.4363 28.5587 92.5165 28.6019C92.5967 28.6451 92.7037 28.6955 92.8373 28.7531C92.971 28.8107 93.098 28.8323 93.2183 28.8179C93.6995 28.8179 94.1138 28.4939 94.4614 27.8459C94.5817 27.6154 94.7354 27.1258 94.9225 26.377C95.1097 25.6281 95.2968 24.8504 95.4839 24.044C95.671 23.2375 95.778 22.7623 95.8047 22.6183C95.8715 22.2295 95.905 21.9486 95.905 21.7758C95.905 21.3726 95.8047 21.0846 95.6042 20.9118C95.4037 20.739 95.1765 20.6525 94.9225 20.6525C94.3879 20.6525 93.8866 20.883 93.4188 21.3438C92.9509 21.8046 92.6235 22.3951 92.4363 23.1151C92.4096 23.2447 92.3762 23.3167 92.3361 23.3311C92.296 23.3455 92.189 23.3599 92.0153 23.3743H91.7346C91.6544 23.2879 91.6143 23.2087 91.6143 23.1367Z" fill="black"/>
<path d="M108.73 21.8836C108.73 21.6964 108.824 21.5524 109.011 21.4516H121.783C121.983 21.5668 122.083 21.7108 122.083 21.8836C122.083 22.042 121.99 22.1788 121.803 22.294L115.427 22.3156H109.051C108.837 22.2436 108.73 22.0996 108.73 21.8836ZM108.73 26.0743C108.73 25.8583 108.837 25.7143 109.051 25.6423H121.803C121.99 25.7863 122.083 25.9303 122.083 26.0743C122.083 26.2615 121.983 26.4055 121.783 26.5063H109.011C108.824 26.4055 108.73 26.2615 108.73 26.0743Z" fill="black"/>
<path d="M130.46 24.2599C130.46 24.2599 130.46 24.1663 130.46 23.9791C130.46 23.7919 130.554 23.6479 130.741 23.5471H142.39C142.59 23.6623 142.691 23.8063 142.691 23.9791C142.691 24.1519 142.59 24.2959 142.39 24.4111H130.741C130.554 24.3103 130.46 24.1663 130.46 23.9791V24.2599Z" fill="black"/>
<path d="M145.057 25.945C145.057 24.3753 145.632 22.964 146.781 21.7111C147.931 20.4582 149.174 19.8318 150.511 19.8318C151.259 19.8318 151.847 20.0046 152.275 20.3502C152.703 20.6958 152.923 21.1495 152.937 21.7111C152.937 22.1287 152.81 22.4816 152.556 22.7696C152.302 23.0576 151.981 23.2088 151.593 23.2232C151.339 23.2232 151.139 23.1512 150.992 23.0072C150.845 22.8632 150.771 22.6472 150.771 22.3592C150.771 22.0711 150.845 21.8263 150.992 21.6247C151.139 21.4231 151.286 21.2719 151.433 21.1711C151.58 21.0703 151.673 21.0271 151.714 21.0415H151.734C151.734 21.0127 151.694 20.9695 151.613 20.9119C151.533 20.8543 151.393 20.7967 151.192 20.739C150.992 20.6814 150.765 20.6526 150.511 20.6526C150.11 20.6526 149.729 20.7534 149.368 20.9551C149.087 21.0847 148.8 21.3079 148.506 21.6247C147.917 22.2584 147.49 23.1512 147.222 24.3033C146.955 25.4554 146.815 26.2906 146.801 26.8091C146.801 27.4715 146.975 27.9684 147.323 28.2996C147.617 28.6452 148.004 28.818 148.486 28.818H148.566C150.063 28.818 151.299 28.206 152.275 26.9819C152.395 26.8379 152.475 26.7659 152.516 26.7659C152.569 26.7659 152.656 26.8307 152.776 26.9603C152.897 27.0899 152.963 27.1907 152.977 27.2627C152.99 27.3347 152.93 27.4427 152.796 27.5867C152.663 27.7308 152.469 27.9324 152.215 28.1916C151.961 28.4508 151.66 28.6668 151.313 28.8396C150.965 29.0124 150.537 29.1925 150.029 29.3797C149.521 29.5669 148.987 29.6461 148.425 29.6173C147.423 29.6173 146.614 29.2717 145.999 28.5804C145.384 27.8892 145.07 27.0107 145.057 25.945Z" fill="black"/>
<path d="M157.087 29.6172C156.084 29.6172 155.275 29.2644 154.661 28.5587C154.046 27.8531 153.738 27.0034 153.738 26.0097C153.738 25.0737 153.939 24.188 154.34 23.3527C154.741 22.5175 155.289 21.7902 155.984 21.171C157 20.2925 158.036 19.8533 159.092 19.8533C159.519 19.8533 159.787 19.8605 159.894 19.8749C160.067 19.9181 160.241 19.9685 160.415 20.0261C160.589 20.0837 160.823 20.1989 161.117 20.3717C161.411 20.5445 161.651 20.7606 161.838 21.0198C162.026 21.279 162.199 21.6318 162.36 22.0782C162.52 22.5247 162.6 23.0287 162.6 23.5904C162.6 25.1313 162.026 26.521 160.876 27.7595C159.727 28.9979 158.463 29.6172 157.087 29.6172ZM155.483 26.7874C155.483 27.5074 155.656 28.0259 156.004 28.3427C156.351 28.6595 156.746 28.8179 157.187 28.8179C157.775 28.8179 158.33 28.5875 158.851 28.1267C159.372 27.6658 159.787 27.061 160.094 26.3122C160.214 26.0097 160.368 25.4769 160.555 24.7136C160.742 23.9504 160.836 23.2879 160.836 22.7263C160.836 22.0926 160.716 21.6102 160.475 21.279C160.154 20.847 159.727 20.6309 159.192 20.6309C158.35 20.6309 157.608 21.0486 156.966 21.8838C156.472 22.5175 156.104 23.3599 155.864 24.4112C155.623 25.4625 155.496 26.2545 155.483 26.7874Z" fill="black"/>
<path d="M165.408 23.1368C165.408 22.676 165.515 22.208 165.729 21.7327C165.943 21.2575 166.317 20.8183 166.851 20.415C167.386 20.0118 168.034 19.8174 168.796 19.8318C169.625 19.8318 170.227 20.0262 170.601 20.415C170.975 20.8039 171.169 21.2359 171.182 21.7111C171.182 22.172 171.069 22.5104 170.841 22.7264C170.614 22.9424 170.36 23.0576 170.08 23.072C169.906 23.072 169.745 23.0144 169.598 22.8992C169.451 22.784 169.371 22.5968 169.358 22.3376C169.358 22.1072 169.418 21.9056 169.538 21.7327C169.658 21.5599 169.772 21.4303 169.879 21.3439C169.986 21.2575 170.073 21.2143 170.14 21.2143C170.153 21.2143 170.16 21.2071 170.16 21.1927C170.16 21.1495 170.113 21.0847 170.019 20.9983C169.926 20.9119 169.759 20.8327 169.518 20.7607C169.278 20.6887 169.017 20.6455 168.736 20.6311C168.095 20.6311 167.627 20.8183 167.333 21.1927C167.039 21.5671 166.885 21.9488 166.872 22.3376C166.872 22.6976 166.999 22.9496 167.252 23.0936C167.506 23.2376 167.874 23.3601 168.355 23.4609C168.836 23.5617 169.184 23.6697 169.398 23.7849C170.28 24.2025 170.721 24.8938 170.721 25.8586C170.721 26.2619 170.648 26.6651 170.501 27.0683C170.354 27.4716 170.133 27.8748 169.839 28.278C169.545 28.6812 169.124 28.9981 168.576 29.2285C168.028 29.4589 167.4 29.5813 166.691 29.5957C165.662 29.5957 164.933 29.3869 164.506 28.9693C164.078 28.5516 163.857 28.062 163.844 27.5004C163.844 26.9387 163.984 26.5355 164.265 26.2907C164.546 26.0458 164.84 25.9234 165.147 25.9234C165.348 25.9234 165.535 25.9882 165.709 26.1179C165.882 26.2475 165.976 26.4707 165.989 26.7875C165.989 27.1619 165.869 27.4788 165.628 27.738C165.388 27.9972 165.181 28.1268 165.007 28.1268C164.98 28.1412 164.96 28.1484 164.947 28.1484C164.933 28.1484 164.927 28.1628 164.927 28.1916C164.94 28.2348 164.994 28.2924 165.087 28.3644C165.181 28.4364 165.388 28.53 165.709 28.6452C166.029 28.7604 166.397 28.8108 166.811 28.7964C167.293 28.7964 167.707 28.7172 168.054 28.5588C168.402 28.4004 168.656 28.1988 168.816 27.954C168.977 27.7092 169.09 27.486 169.157 27.2843C169.224 27.0827 169.257 26.9027 169.257 26.7443C169.257 26.3411 169.117 26.0386 168.836 25.837C168.556 25.6354 168.235 25.513 167.874 25.4698C167.513 25.4266 167.119 25.3186 166.691 25.1458C166.263 24.973 165.949 24.721 165.749 24.3897C165.522 24.0297 165.408 23.6121 165.408 23.1368Z" fill="black"/>
<path d="M174.069 23.979C174.069 22.9853 174.135 22.0421 174.269 21.1492C174.403 20.2563 174.556 19.4859 174.73 18.8378C174.904 18.1898 175.151 17.5561 175.472 16.9369C175.793 16.3177 176.047 15.8352 176.234 15.4896C176.421 15.144 176.702 14.7695 177.076 14.3663C177.45 13.9631 177.671 13.7183 177.738 13.6319C177.805 13.5455 177.972 13.3942 178.239 13.1782H178.5H178.58C178.767 13.1782 178.861 13.243 178.861 13.3726C178.861 13.4158 178.747 13.5671 178.52 13.8263C178.292 14.0855 178.018 14.4671 177.698 14.9712C177.377 15.4752 177.049 16.0944 176.715 16.8289C176.381 17.5633 176.1 18.557 175.873 19.8099C175.646 21.0628 175.532 22.4525 175.532 23.979C175.532 25.5055 175.646 26.888 175.873 28.1265C176.1 29.365 176.374 30.3659 176.695 31.1291C177.016 31.8924 177.343 32.5116 177.678 32.9869C178.012 33.4621 178.292 33.8437 178.52 34.1317C178.747 34.4198 178.861 34.571 178.861 34.5854C178.861 34.715 178.76 34.7798 178.56 34.7798H178.5H178.239L177.678 34.2613C176.421 33.0373 175.506 31.5108 174.931 29.6818C174.356 27.8529 174.069 25.952 174.069 23.979Z" fill="black"/>
<path d="M181.027 23.1367C181.12 22.5319 181.481 21.8334 182.11 21.0414C182.738 20.2493 183.513 19.8461 184.435 19.8317C184.903 19.8317 185.331 19.9613 185.719 20.2205C186.106 20.4797 186.394 20.8038 186.581 21.1926C187.142 20.2853 187.817 19.8317 188.606 19.8317C189.1 19.8317 189.528 19.9901 189.889 20.3069C190.25 20.6237 190.437 21.0486 190.45 21.5814C190.45 21.999 190.357 22.3375 190.17 22.5967C189.983 22.8559 189.802 23.0143 189.628 23.0719C189.455 23.1295 189.301 23.1583 189.167 23.1583C188.913 23.1583 188.706 23.0791 188.546 22.9207C188.385 22.7623 188.305 22.5535 188.305 22.2943C188.305 21.6318 188.639 21.1782 189.307 20.9334C189.16 20.7462 188.893 20.6525 188.505 20.6525C188.332 20.6525 188.205 20.6669 188.125 20.6957C187.617 20.9262 187.242 21.4014 187.002 22.1214C186.2 25.3041 185.799 27.1618 185.799 27.6946C185.799 28.0979 185.906 28.3859 186.12 28.5587C186.333 28.7315 186.567 28.8179 186.821 28.8179C187.316 28.8179 187.804 28.5803 188.285 28.1051C188.766 27.6298 189.094 27.0466 189.267 26.3554C189.307 26.2113 189.348 26.1321 189.388 26.1177C189.428 26.1033 189.535 26.0889 189.708 26.0745H189.789C189.989 26.0745 190.089 26.1321 190.089 26.2473C190.089 26.2617 190.076 26.341 190.049 26.485C189.835 27.3058 189.421 28.0331 188.806 28.6667C188.191 29.3004 187.476 29.6172 186.661 29.6172C185.725 29.6172 185.017 29.1636 184.536 28.2563C183.988 29.1492 183.359 29.5956 182.651 29.5956H182.531C181.876 29.5956 181.408 29.4084 181.127 29.0339C180.846 28.6595 180.699 28.2635 180.686 27.8459C180.686 27.385 180.813 27.0106 181.067 26.7226C181.321 26.4346 181.622 26.2905 181.969 26.2905C182.544 26.2905 182.831 26.593 182.831 27.1978C182.831 27.4858 182.751 27.7379 182.591 27.9539C182.43 28.1699 182.277 28.3139 182.13 28.3859C181.983 28.4579 181.896 28.4939 181.869 28.4939L181.809 28.5155C181.809 28.5299 181.849 28.5587 181.929 28.6019C182.009 28.6451 182.116 28.6955 182.25 28.7531C182.384 28.8107 182.511 28.8323 182.631 28.8179C183.112 28.8179 183.526 28.4939 183.874 27.8459C183.994 27.6154 184.148 27.1258 184.335 26.377C184.522 25.6281 184.709 24.8504 184.897 24.044C185.084 23.2375 185.191 22.7623 185.217 22.6183C185.284 22.2295 185.318 21.9486 185.318 21.7758C185.318 21.3726 185.217 21.0846 185.017 20.9118C184.816 20.739 184.589 20.6525 184.335 20.6525C183.8 20.6525 183.299 20.883 182.831 21.3438C182.364 21.8046 182.036 22.3951 181.849 23.1151C181.822 23.2447 181.789 23.3167 181.749 23.3311C181.709 23.3455 181.602 23.3599 181.428 23.3743H181.147C181.067 23.2879 181.027 23.2087 181.027 23.1367Z" fill="black"/>
<path d="M192.656 13.1998L192.736 13.1782C192.803 13.1782 192.87 13.1782 192.937 13.1782H193.178L193.739 13.6967C194.995 14.9208 195.911 16.4473 196.486 18.2762C197.061 20.1051 197.348 22.0061 197.348 23.979C197.348 24.9583 197.281 25.9015 197.147 26.8088C197.014 27.7161 196.86 28.4865 196.686 29.1202C196.513 29.7538 196.265 30.3875 195.944 31.0211C195.624 31.6548 195.37 32.1372 195.183 32.4684C194.995 32.7996 194.721 33.1669 194.361 33.5701C194 33.9733 193.786 34.2109 193.719 34.2829C193.652 34.355 193.498 34.4918 193.258 34.6934C193.218 34.7366 193.191 34.7654 193.178 34.7798H192.937C192.83 34.7798 192.757 34.7798 192.716 34.7798C192.676 34.7798 192.643 34.7582 192.616 34.715C192.589 34.6718 192.569 34.607 192.556 34.5206C192.569 34.5062 192.643 34.4126 192.777 34.2397C194.848 31.9212 195.884 28.5009 195.884 23.979C195.884 19.4571 194.848 16.0368 192.777 13.7183C192.643 13.5455 192.569 13.4519 192.556 13.4375C192.556 13.3222 192.589 13.243 192.656 13.1998Z" fill="black"/>
<path d="M204.83 24.26C204.83 24.26 204.83 24.1664 204.83 23.9792C204.83 23.792 204.923 23.6479 205.11 23.5471H211.105V20.3069L211.125 17.0667C211.259 16.8795 211.386 16.7858 211.506 16.7858C211.68 16.7858 211.814 16.8939 211.907 17.1099V23.5471H217.882C218.083 23.6623 218.183 23.8064 218.183 23.9792C218.183 24.152 218.083 24.296 217.882 24.4112H211.907V30.8485C211.8 31.0501 211.68 31.1509 211.546 31.1509H211.506H211.466C211.306 31.1509 211.185 31.0501 211.105 30.8485V24.4112H205.11C204.923 24.3104 204.83 24.1664 204.83 23.9792V24.26Z" fill="black"/>
<path d="M224.765 23.9357C224.765 22.2795 225.212 20.6882 226.108 19.1617C227.003 17.6352 228.133 16.4255 229.496 15.5327C230.86 14.6398 232.223 14.1862 233.586 14.1718C234.789 14.1718 235.745 14.539 236.454 15.2734C236.574 15.4175 236.674 15.5399 236.754 15.6407C236.835 15.7415 236.888 15.8135 236.915 15.8567L236.935 15.9215C236.975 15.9215 237.155 15.7343 237.476 15.3598C237.57 15.2734 237.67 15.1726 237.777 15.0574C237.884 14.9422 237.991 14.827 238.098 14.7118C238.205 14.5966 238.271 14.5174 238.298 14.4742L238.599 14.1502H238.719C238.906 14.1502 239 14.2006 239 14.3014C239 14.359 238.786 15.3454 238.358 17.2608C237.877 19.2625 237.637 20.2706 237.637 20.285C237.61 20.357 237.576 20.4002 237.536 20.4146C237.496 20.429 237.376 20.4434 237.175 20.4578H236.855C236.774 20.3714 236.734 20.3066 236.734 20.2634C236.734 20.249 236.741 20.1986 236.754 20.1122C236.768 20.0258 236.781 19.8818 236.794 19.6802C236.808 19.4785 236.815 19.2481 236.815 18.9889C236.815 17.9664 236.601 17.0736 236.173 16.3103C235.745 15.5471 235.017 15.1582 233.987 15.1438C233.64 15.1438 233.266 15.1942 232.865 15.295C232.464 15.3959 231.982 15.5687 231.421 15.8135C230.86 16.0583 230.305 16.4615 229.757 17.0232C229.209 17.5848 228.721 18.2545 228.293 19.0321C227.866 19.853 227.525 20.8106 227.271 21.9051C227.017 22.9996 226.89 23.8925 226.89 24.5837C226.89 26.2254 227.398 27.4063 228.414 28.1264C229.055 28.616 229.844 28.8608 230.779 28.8608C231.996 28.8608 233.079 28.3712 234.028 27.3919C234.977 26.4126 235.605 25.347 235.912 24.1949C235.966 24.0077 236.006 23.8997 236.033 23.8709C236.059 23.8421 236.166 23.8277 236.353 23.8277C236.621 23.8277 236.754 23.8925 236.754 24.0221C236.754 24.0941 236.748 24.1589 236.734 24.2165C236.347 25.7574 235.518 27.0823 234.248 28.1912C232.978 29.3001 231.615 29.8545 230.158 29.8545C228.648 29.8545 227.371 29.3145 226.328 28.2344C225.286 27.1543 224.765 25.7214 224.765 23.9357Z" fill="black"/>
</svg>
