<svg width="245" height="200" viewBox="0 0 245 200" fill="none" xmlns="http://www.w3.org/2000/svg">
<path fill-rule="evenodd" clip-rule="evenodd" d="M23.6111 38.4233L84.6946 0.466797H160.198L221.281 38.4233L244.613 99.8382L221.281 161.253L160.198 199.21H84.6946L23.6111 161.253L0.279297 99.8382L23.6111 38.4233ZM122.446 10.9577L94.0944 3.07893L150.798 3.07893L122.446 10.9577ZM117.504 12.331L85.8612 3.53754L66.3046 26.5591L117.504 12.331ZM67.6943 28.9194L119.128 14.6263L99.2978 38.0477L67.6943 28.9194ZM62.2996 31.2736L29.3043 70.1148L62.1625 61.111L62.2996 31.2736ZM62.1499 63.8574L28.7215 73.0174L49.2055 97.2107L62.0664 82.021L62.1499 63.8574ZM65.1372 78.3941L65.2079 63.0194L82.0658 58.4001L65.1372 78.3941ZM62.0458 86.499L51.0909 99.4376L61.9275 112.236L62.0458 86.499ZM64.9652 115.824L65.1167 82.872L86.9758 57.0546L122.17 47.4109L159.465 58.1832L181.275 83.942L181.576 116.489L145.859 157.537L86.5144 141.276L64.9652 115.824ZM61.9071 116.666L49.2055 101.664L29.0091 125.518L61.8251 134.51L61.9071 116.666ZM64.8755 135.346L64.9448 120.254L81.6044 139.93L64.8755 135.346ZM61.8125 137.25L27.9538 127.972L61.6727 167.665L61.8125 137.25ZM64.7165 169.93L64.8629 138.086L84.6283 143.502L120.015 185.297L64.7165 169.93ZM164.457 59.625L181.233 79.4392L181.094 64.4305L164.457 59.625ZM181.069 61.6661L161.367 55.9754L148.099 40.3057L180.788 31.3483L181.069 61.6661ZM184.157 65.3151L184.321 83.0864L197.301 98.4165L217.678 74.9973L184.157 65.3151ZM217.301 72.1313L184.131 62.5506L183.856 32.7603L217.301 72.1313ZM156.375 54.5337L127.068 46.0687L145.039 41.1444L156.375 54.5337ZM122.195 44.6611L143.154 38.918L122.743 14.811L102.328 38.9228L122.195 44.6611ZM97.4221 40.263L85.0897 54.8285L65.2205 60.2731L65.3551 31.0008L97.4221 40.263ZM100.452 41.1381L117.296 46.0033L89.9997 53.4831L100.452 41.1381ZM148.933 158.379L181.616 120.818L182.047 167.453L148.933 158.379ZM184.638 117.345L185.083 165.472L217.861 126.886L217.712 126.978L197.267 102.83L184.638 117.345ZM184.363 87.5892L184.598 113.016L195.389 100.613L184.363 87.5892ZM126.54 14.8418L178.412 29.2566L146.214 38.0793L126.54 14.8418ZM26.6652 75.0424V123.833L47.3201 99.4376L26.6652 75.0424ZM125.714 185.064L180.622 169.806L147.006 160.594L125.714 185.064ZM143.931 159.752L122.759 184.084L89.5383 144.847L143.931 159.752ZM199.178 100.634L218.227 123.132V78.7416L199.178 100.634ZM61.3628 27.9323L78.8852 7.30545L33.011 35.8111L61.3628 27.9323ZM33.011 163.865L78.8852 192.371L61.3628 171.744L33.011 163.865ZM58.3086 168.149L26.6652 130.899V159.355L58.3086 168.149ZM23.611 127.304V152.8L6.08868 106.677L23.611 127.304ZM23.611 76.8168L4.05446 99.8382L23.611 122.86V76.8168ZM23.611 72.3728L6.08868 92.9996L23.611 46.8766V72.3728ZM26.6652 68.7775V40.3211L58.3086 31.5276L26.6652 68.7775ZM66.3046 173.117L85.8612 196.139L117.504 187.345L66.3046 173.117ZM122.446 188.719L94.0944 196.597H150.798L122.446 188.719ZM166.007 192.371L211.882 163.865L183.53 171.744L166.007 192.371ZM178.588 173.117L127.388 187.345L159.031 196.139L178.588 173.117ZM186.584 168.149L218.227 159.355V130.899L186.584 168.149ZM221.281 127.304V152.8L238.804 106.677L221.281 127.304ZM238.804 92.9998L221.281 46.8764V72.3728L238.804 92.9998ZM221.281 122.86L240.838 99.8382L221.281 76.8168V122.86ZM218.227 68.7775V40.3211L186.584 31.5276L218.227 68.7775ZM183.53 27.9323L211.882 35.8112L166.007 7.30529L183.53 27.9323ZM178.588 26.5591L127.388 12.331L159.031 3.53754L178.588 26.5591Z" fill="url(#paint0_linear_1618_1610)"/>
<defs>
<linearGradient id="paint0_linear_1618_1610" x1="122.446" y1="0.466797" x2="122.446" y2="199.21" gradientUnits="userSpaceOnUse">
<stop stop-color="white"/>
<stop offset="1" stop-color="white" stop-opacity="0.11"/>
</linearGradient>
</defs>
</svg>
