<svg width="120" height="140" viewBox="0 0 120 140" fill="none" xmlns="http://www.w3.org/2000/svg">
<path d="M94.2843 55.7581L101.882 55.425L106.405 55.4783L109.65 54.5305L109.163 54.6727L109.436 57.9086L109.384 61.2886L109.432 68.6138L104.503 63.4848L99.7213 59.3436L94.2843 55.7581Z" fill=""/>
<path d="M54.13 61.6244L61.7845 57.6297L75.4064 54.2688L91.1607 59.2436L96.7548 63.1127L100.598 65.2708L104.549 70.9517L109.351 73.8254L108.943 100.161L97.475 100.026L81.6465 99.8395L71.6282 100.003L61.3043 99.0363L59.2156 98.3074L56.8037 97.5747L52.8052 94.9922L49.4592 91.9947L46.9317 88.3026L45.6876 85.1891L44.6028 82.2183L45.5086 75.8904L47.3878 69.2922L54.13 61.6244Z" fill=""/>
<path d="M44.9358 102.506L45.0231 96.8725L45.0493 95.1825L47.9195 97.6109L51.1127 100.043L54.6398 101.775L56.4056 102.5L57.2088 102.791L57.6912 102.938L58.6559 103.231L58.9789 103.235L59.6228 103.383L59.9436 103.528L66.8779 104.314L77.3764 104.437L82.3899 104.074L92.0808 104.188L100.48 104.287L104.841 104.338L106.539 104.218L108.898 103.119L106.622 104.078L104.517 104.335L104.179 105.317L103.352 106.575L102.693 107.412L102.363 107.831L100.384 110.484L97.4283 113.548L93.9906 116.465L89.9047 119.516L85.3452 121.857L80.3055 123.91L75.1152 125.258L71.5509 125.92L67.6658 126.438L60.0702 126.63L52.6536 125.697L45.0842 124.2L45.1213 121.805L44.9009 115.183L44.9969 108.986L45.0471 105.747L44.9358 102.506Z" fill="#EB7830"/>
<path fill-rule="evenodd" clip-rule="evenodd" d="M113.474 139.576C113.967 139.344 114.473 138.777 114.652 138.257C115.103 136.947 115.14 3.29895 114.69 1.85211C114.057 -0.179504 118.398 -0.0428314 56.975 0.0375519L1.81693 0.110077L1.02074 0.810257L0.224518 1.51042L0.0566254 69.3187C-0.0546722 114.28 -0.00162506 137.47 0.213524 138.145C0.85379 140.152 -3.67368 140.005 57.514 139.993C105.005 139.983 112.73 139.926 113.474 139.576ZM5.43917 117.599C5.39291 107.971 5.4369 99.9097 5.53687 99.6837C5.64848 99.4305 6.39584 100.377 7.48128 102.147C12.1346 109.735 18.6818 116.263 26.5523 121.161C40.3518 129.749 58.3176 133.347 73.7875 130.62C87.8849 128.135 101.255 119.739 108.014 109.127C108.578 108.241 109.152 107.516 109.289 107.516C109.593 107.516 109.321 135.057 109.321 135.057C109.202 135.161 85.7982 135.213 57.3134 135.174L5.52295 135.103L5.43917 117.599ZM55.9911 126.152C52.2259 125.689 50.3569 125.348 47.339 124.576L45.1552 124.017V109.629L45.1552 95.2418L47.1773 97.0653C50.5148 100.075 54.0584 101.974 58.7434 103.263C62.6429 104.336 64.8752 104.436 84.9305 104.436C95.6173 104.436 104.361 104.532 104.361 104.65C104.361 104.768 103.773 105.736 103.054 106.801C97.6332 114.831 89.2865 120.914 79.2875 124.123C72.1857 126.402 63.8882 127.124 55.9911 126.152ZM84.231 97.4619C86.4976 95.125 87.54 93.5149 88.6633 90.617C89.7045 87.9306 90.0315 84.5303 89.5045 81.8725C89.0182 79.4219 87.0593 75.8924 85.143 74.0154C80.9184 69.8768 73.9049 67.6649 68.2458 68.6866C63.9668 69.4587 60.452 71.4814 58.108 74.5198C54.2538 79.516 54.7404 85.8245 59.2824 89.7494C63.222 93.1536 68.8864 94.0515 73.5406 92.0098C75.1013 91.3253 77.3922 89.4256 78.1655 88.1748C78.7372 87.2503 79.4408 84.8549 79.4454 83.8184C79.4531 82.059 77.1845 80.7225 75.5051 81.4972C74.4071 82.0035 74.0043 82.5816 73.7681 83.9906C73.0712 88.1482 67.644 89.5855 63.694 86.6588C59.3316 83.4263 61.1349 76.4024 66.9031 74.1605C69.1956 73.2696 72.946 73.2741 75.6484 74.1714C83.4277 76.7537 86.2162 84.385 82.0139 91.5925C80.7751 93.7171 77.4123 96.6248 74.9477 97.7017C69.3797 100.135 62.2718 99.8492 56.1552 96.9466C53.2829 95.5835 49.2391 91.9941 47.658 89.4044C42.0134 80.159 46.086 67.1008 56.6405 60.6046C59.2504 58.9984 62.7199 57.5247 65.5954 56.801C69.2332 55.8857 76.0134 55.7505 80.2581 56.5086C91.3192 58.4842 100.357 64.4976 105.349 73.2038C107.89 77.6347 108.887 80.9678 109.122 85.8111C109.312 89.7415 108.945 92.9713 107.907 96.5153C107.556 97.7137 107.201 98.8516 107.119 99.0443C107.003 99.316 104.213 99.3944 94.6632 99.3944H82.3565L84.231 97.4619ZM106.583 65.5464C104.38 62.9586 100.164 59.4051 97.0816 57.5384C95.836 56.7839 94.6784 56.0627 94.5095 55.9353C94.3406 55.8079 97.5798 55.7037 101.708 55.7037H109.214L109.195 62.2153C109.18 67.3621 109.095 68.6179 108.79 68.2071C108.578 67.9211 107.585 66.7238 106.583 65.5464ZM11.8318 50.9201C11.8318 50.2905 15.4724 44.4909 17.5437 41.8213C25.067 32.1242 34.5008 24.8961 46.316 19.7754C55.3211 15.8726 64.5702 13.8472 76.0583 13.2621C79.7084 13.0761 80.3584 12.8874 81.0142 11.8214C81.5865 10.8913 81.4697 10.1634 80.6094 9.29802L79.8284 8.51215L75.8374 8.59505C64.9238 8.8219 54.2939 11.1627 43.6819 15.676C28.3638 22.1912 16.2098 32.7661 8.2859 46.4735C6.85299 48.9518 5.60771 50.8137 5.51842 50.6109C5.4288 50.4082 5.39355 40.0339 5.43949 27.5568L5.52295 4.87125L57.4493 4.87125H109.376L109.459 27.6968C109.505 40.2509 109.473 50.6798 109.389 50.8725C109.181 51.3444 11.8318 51.3918 11.8318 50.9201Z" fill="#5F5B80"/>
</svg>
